<svg width="577" height="542" viewBox="0 0 577 542" fill="none" xmlns="http://www.w3.org/2000/svg">
<path d="M500.767 348.583V312.109L91.9006 154.76V178.518L127.25 385.988L202.35 459.51L457.361 474.581L500.767 348.583Z" fill="#8CD9DA"/>
<path d="M199.734 53.0365L258.366 45.0047L364.894 98.1632L500.925 312.461L453.538 454.624L203.75 443.379L127.448 368.684L92.1081 154.235L199.734 53.0365Z" fill="#C0F4FF"/>
<path d="M522.333 137.466L522.333 118.742L413.446 133.684L413.446 144.771L444.882 185.384L507.024 180.147L522.333 137.466Z" fill="#8CD9DA"/>
<path d="M422.194 88.025L441.853 74.1319L477.66 81.0404L522.462 118.336L504.892 169.065L445.255 173.83L413.377 133.723L422.194 88.025Z" fill="#C0F4FF"/>
<path d="M403.845 78.4854L403.611 65.4663L371.471 77.093L371.471 85.8861L373.744 90.7716L387.097 96.7014L402.032 91.3488L403.845 78.4854Z" fill="#8CD9DA"/>
<path d="M374.035 83.8004L371.38 77.0781L375.941 67.1241L390.005 56.707L403.554 65.4386L400.704 83.1736L386.738 89.6211L374.035 83.8004Z" fill="#C0F4FF"/>
<path d="M374.454 414.12H339.57V416.593H332.085V424.078H339.887H374.454V414.12Z" fill="#009E9E"/>
<path d="M332.085 419.13H337.033V421.604H339.57V419.13V416.593H332.085V419.13Z" fill="#29B8B8" fill-opacity="0.9624"/>
<path d="M374.454 414.12H365.701V411.646H358.217V414.12H347.054V411.646H339.57V414.12V416.593H344.517V419.13H347.054V416.593H349.528V419.13H357.012V416.593H364.496V419.003H366.97V421.604H369.444V419.003H371.981V416.593H374.454V414.12Z" fill="#29B8B8" fill-opacity="0.9624"/>
<path d="M424.714 399.873V395.497H418.181H411.648V397.717H407.272V402.029H411.648H412.092H418.181H423.89H424.714H429.598V399.873H424.714Z" fill="#009E9E"/>
<path d="M418.181 395.496V393.34H415.961H413.805V395.496H411.648V397.716H418.181H422.494V399.873H424.714V397.716V397.272V395.496H418.181Z" fill="#29B8B8" fill-opacity="0.9624"/>
<path d="M409.428 397.716H407.272V399.873H409.428H411.585V397.716H409.428Z" fill="#29B8B8" fill-opacity="0.9624"/>
<g clip-path="url(#clip0_1146_9099)">
<path fill-rule="evenodd" clip-rule="evenodd" d="M223.65 215.169H244.371V219.422H248.647V223.348H252.594V231.853H269.369V235.779H273.645V215.169H302.589V235.779H306.865V231.853H323.639V223.348H327.586V219.095H331.862V215.169H352.255V247.883H348.307V252.136H340.085V256.388H348.307V264.567H344.032V268.819H340.085V272.745H335.809V301.86H340.085V318.217H344.361V339.153H348.307V359.763H352.584V376.119H356.86V384.625H360.806V380.372H365.082V388.878H369.029V397.056H207.204V388.878H211.151V380.699H215.098V384.625H219.703V376.447H223.65V359.763H227.926V339.153H231.873V318.544H236.149V301.86H240.095V273.072H236.148V268.819H231.872V264.567H227.926V256.388H236.149V252.136H227.926V247.883H223.65V215.169ZM240.425 252.463H244.371V256.388H240.425V252.463ZM252.594 252.463H248.647V256.388H252.594V252.463ZM331.862 252.463H335.809V256.388H331.862V252.463ZM327.586 252.463H323.639V256.388H327.586V252.463Z" fill="#026262"/>
<path d="M365.082 380.372V376.447H369.029V380.372H365.082ZM356.86 376.119V372.194H360.806V376.119H356.86ZM211.151 376.447H207.204V380.372H211.151V376.447ZM219.374 372.194H215.427V376.119H219.374V372.194Z" fill="#026262"/>
<path fill-rule="evenodd" clip-rule="evenodd" d="M295.399 95.6646H280.834V98.8836H277.598V109.748H280.834V215.17H284.071V168.897H292.162V215.17H295.399V165.678H299.04V168.897H309.558V165.678H319.672V162.459H326.954V159.24H340.709V162.459H347.992V165.678H361.342V155.216H358.106V141.535H354.869V130.671H358.106V123.026H362.556V119.807H365.792V112.967H358.915V109.748H351.633V106.529H331V109.748H320.077V112.967H313.199V116.186H305.917V112.967H295.399V109.748H298.635V98.8836H295.399V95.6646ZM295.399 98.8836V109.748H280.834V98.8836H295.399ZM305.917 116.186H295.399V162.459H299.04V165.678H309.558V162.459H319.672V159.24H326.954V156.021H340.709V159.24H347.992V162.459H358.106V155.216H354.869V141.535H351.633V130.671H354.869V123.026H358.106V119.807H362.556V116.186H358.915V112.967H351.633V109.748H331V112.967H320.077V116.186H313.199V119.405H305.917V116.186ZM292.162 165.678V112.967H284.071V165.678H292.162Z" fill="#026262"/>
<path d="M291.758 98.8833H280.835V106.931H284.88V102.907H291.758V98.8833Z" fill="#2FBABB"/>
<path d="M291.758 98.8833H295.399V109.747H280.835V106.931H284.88V102.907H291.758V98.8833Z" fill="#088484"/>
<path d="M284.071 116.99H287.307V162.056H284.071V116.99Z" fill="#FFE9C9"/>
<path d="M284.071 112.967H292.162V165.678H284.071V162.057H287.307V116.991H284.071V112.967Z" fill="#FFBB54"/>
<path d="M284.071 168.896H292.162V215.17H284.071V168.896Z" fill="#088484"/>
<path d="M284.071 172.518H288.117V195.051H284.071V172.518Z" fill="#2FBABB"/>
<path d="M351.633 109.747H331V112.966H320.077V116.185H313.2V119.404H305.917V116.185H295.399V162.458H299.04V165.677H309.558V162.458H319.673V159.239H326.955V156.02H340.71V159.239H347.992V162.458H358.106V155.215H354.869V141.535H351.633V130.671H354.869V123.025H358.106V119.806H362.556V116.185H358.915V112.966H351.633V109.747Z" fill="#FFBB54"/>
<path d="M351.633 109.747H331V112.966H320.077V116.185H313.199V119.404H305.917V127.049H309.154V130.268H312.39V134.292H316.031V137.511H323.718V140.73H330.596V143.949H341.114V140.73H343.946V137.511H348.396V134.292H351.633V123.025H354.869V116.185H358.915V112.966H351.633V109.747ZM326.145 154.411H312.39V157.63H308.749V162.458H319.672V157.63H326.145V154.411Z" fill="#FFE9C9"/>
<path fill-rule="evenodd" clip-rule="evenodd" d="M272.332 27.3989H275.686V30.753H279.04V34.1071H289.102V30.753H292.456V27.3989H295.81V33.2685H292.456V34.1071H297.487V37.4611H300.841V40.8152H304.196V54.2314H300.841V46.6848H297.487V53.3929H294.133V56.747H287.425V50.8774H294.133V50.0389H274.009V50.8774H280.717V56.747H274.009V53.3929H270.655V46.6848H267.301V54.2314H263.947V40.8152H267.301V37.4611H270.655V34.1071H275.686V33.2685H272.332V27.3989ZM289.102 39.9767V40.8152H292.456V39.9767H289.102ZM275.686 39.9767V40.8152H279.04V39.9767H275.686Z" fill="#551D98"/>
<path fill-rule="evenodd" clip-rule="evenodd" d="M275.686 26.5605H272.332V29.9146H275.686V33.2687H270.655V36.6227H267.301V39.9768H263.947V50.8775H267.301V43.3309H270.655V50.039H274.009V53.3931H280.717V50.039H274.009V46.6849H294.133V50.039H287.425V53.3931H294.133V50.039H297.487V43.3309H300.841V50.8775H304.196V39.9768H300.841V36.6227H297.487V33.2687H292.456V29.9146H295.81V26.5605H292.456V29.9146H289.102V33.2687H279.04V29.9146H275.686V26.5605ZM287.425 36.6227H292.456V39.9768H287.425V36.6227ZM275.686 36.6227H280.717V39.9768H275.686V36.6227Z" fill="#C9A2F6"/>
<path fill-rule="evenodd" clip-rule="evenodd" d="M367.3 56.9663H370.654V60.3204H374.008V63.6744H384.07V60.3204H387.424V56.9663H390.778V62.8359H387.424V63.6744H392.455V67.0285H395.809V70.3826H399.164V83.7988H395.809V76.2522H392.455V82.9603H389.101V86.3144H382.393V80.4448H389.101V79.6062H368.977V80.4448H375.685V86.3144H368.977V82.9603H365.623V76.2522H362.269V83.7988H358.915V70.3826H362.269V67.0285H365.623V63.6744H370.654V62.8359H367.3V56.9663ZM384.07 69.544V70.3826H387.424V69.544H384.07ZM370.654 69.544V70.3826H374.008V69.544H370.654Z" fill="#551D98"/>
<path fill-rule="evenodd" clip-rule="evenodd" d="M370.654 56.1274H367.3V59.4815H370.654V62.8356H365.623V66.1896H362.269V69.5437H358.915V80.4444H362.269V72.8978H365.623V79.6059H368.977V82.9599H375.685V79.6059H368.977V76.2518H389.101V79.6059H382.393V82.9599H389.101V79.6059H392.455V72.8978H395.809V80.4444H399.164V69.5437H395.809V66.1896H392.455V62.8356H387.424V59.4815H390.778V56.1274H387.424V59.4815H384.07V62.8356H374.008V59.4815H370.654V56.1274ZM382.393 66.1896H387.424V69.5437H382.393V66.1896ZM370.654 66.1896H375.685V69.5437H370.654V66.1896Z" fill="#C9A2F6"/>
<path fill-rule="evenodd" clip-rule="evenodd" d="M400.501 170.841H413.917V174.195H423.141V177.549H427.334V190.127H417.272V190.965H420.626V194.319H427.334V200.189H420.626V196.835H413.917V193.481H410.563V196.835H403.855V193.481H400.501V196.835H393.793V200.189H387.085V194.319H393.793V190.965H397.147V190.127H387.085V177.549H391.278V174.195H400.501V170.841ZM403.855 190.965H410.563V190.127H403.855V190.965ZM403.855 183.419H397.147V184.257H403.855V183.419ZM410.563 183.419V184.257H417.272V183.419H410.563Z" fill="#551D98"/>
<path fill-rule="evenodd" clip-rule="evenodd" d="M413.918 170.002H400.501V173.357H391.278V176.711H387.085V186.773H397.147V190.127H393.793V193.481H387.085V196.835H393.793V193.481H400.501V190.127H403.856V193.481H410.564V190.127H413.918V193.481H420.626V196.835H427.334V193.481H420.626V190.127H417.272V186.773H427.334V176.711H423.141V173.357H413.918V170.002ZM410.564 186.773H403.856V190.127H410.564V186.773ZM403.856 183.419V180.065H397.147V183.419H403.856ZM410.564 183.419V180.065H417.272V183.419H410.564Z" fill="#C9A2F6"/>
<path fill-rule="evenodd" clip-rule="evenodd" d="M200.496 87.6416H213.912V90.9957H223.136V94.3497H227.328V106.927H217.266V107.766H220.62V111.12H227.328V116.99H220.62V113.636H213.912V110.282H210.558V113.636H203.85V110.282H200.496V113.636H193.788V116.99H187.08V111.12H193.788V107.766H197.142V106.927H187.08V94.3497H191.272V90.9957H200.496V87.6416ZM203.85 107.766H210.558V106.927H203.85V107.766ZM203.85 100.219H197.142V101.058H203.85V100.219ZM210.558 100.219V101.058H217.266V100.219H210.558Z" fill="#551D98"/>
<path fill-rule="evenodd" clip-rule="evenodd" d="M213.913 86.8027H200.497V90.1568H191.273V93.5109H187.081V103.573H197.143V106.927H193.789V110.281H187.081V113.635H193.789V110.281H200.497V106.927H203.851V110.281H210.559V106.927H213.913V110.281H220.621V113.635H227.329V110.281H220.621V106.927H217.267V103.573H227.329V93.5109H223.137V90.1568H213.913V86.8027ZM210.559 103.573H203.851V106.927H210.559V103.573ZM203.851 100.219V96.8649H197.143V100.219H203.851ZM210.559 100.219V96.8649H217.267V100.219H210.559Z" fill="#C9A2F6"/>
<path fill-rule="evenodd" clip-rule="evenodd" d="M175.341 170.003H178.695V173.357H182.049V176.711H192.111V173.357H195.465V170.003H198.819V175.873H195.465V176.711H200.496V180.065H203.85V172.518H207.204V185.935H203.85V192.643H200.496V193.481H203.85V199.351H200.496V195.997H197.142V192.643H177.018V195.997H173.664V199.351H170.31V193.481H173.664V192.643H170.31V185.935H166.956V172.518H170.31V180.065H173.664V176.711H178.695V175.873H175.341V170.003ZM192.111 182.581V183.419H195.465V182.581H192.111ZM178.695 182.581V183.419H182.049V182.581H178.695Z" fill="#551D98"/>
<path fill-rule="evenodd" clip-rule="evenodd" d="M178.695 169.165H175.341V172.519H178.695V175.873H173.664V179.227H170.31V171.68H166.956V182.581H170.31V189.289H173.664V192.643H170.31V195.997H173.664V192.643H177.018V189.289H197.142V192.643H200.496V195.997H203.85V192.643H200.496V189.289H203.85V182.581H207.204V171.68H203.85V179.227H200.496V175.873H195.465V172.519H198.819V169.165H195.465V172.519H192.111V175.873H182.049V172.519H178.695V169.165ZM190.434 179.227H195.465V182.581H190.434V179.227ZM178.695 179.227H183.726V182.581H178.695V179.227Z" fill="#C9A2F6"/>
</g>
<defs>
<clipPath id="clip0_1146_9099">
<rect width="261.343" height="345.745" fill="white" transform="translate(166.45 26.7568)"/>
</clipPath>
</defs>
</svg>
