<svg width="651" height="401" viewBox="0 0 651 401" fill="none" xmlns="http://www.w3.org/2000/svg">
<path d="M37.0574 14.9533C36.3102 14.9533 35.8121 15.576 35.8121 16.1986V104.615C35.8121 105.238 36.3102 105.736 37.0574 105.736H92.3487C109.036 105.736 122.734 92.0374 122.734 75.3504C122.734 69.9956 121.364 64.8899 118.749 60.2823C121.364 55.7992 122.734 50.6935 122.734 45.3387C122.734 28.6516 109.036 14.9533 92.3487 14.9533H37.0574ZM76.4089 44.716V37.1197H78.5259C80.6429 37.1197 82.3863 38.8631 82.3863 40.9801C82.3863 43.0971 80.6429 44.716 78.5259 44.716H76.4089ZM76.4089 83.943V76.2221H78.5259C80.6429 76.2221 82.3863 77.9655 82.3863 80.0825C82.3863 82.1995 80.6429 83.943 78.5259 83.943H76.4089ZM177.356 63.1465C175.613 63.1465 174.118 61.7766 174.118 59.9087V16.1986C174.118 15.4515 173.62 14.9533 172.997 14.9533H132.401C131.653 14.9533 131.155 15.4515 131.155 16.1986V60.6559C131.155 85.6864 152.076 105.736 177.356 105.736C202.636 105.736 223.557 85.6864 223.557 60.6559V16.1986C223.557 15.4515 223.059 14.9533 222.311 14.9533H181.715C181.092 14.9533 180.594 15.4515 180.594 16.1986V59.9087C180.594 61.7766 179.099 63.1465 177.356 63.1465ZM254.722 59.037C267.175 59.037 277.138 49.0746 277.138 36.7461C277.138 24.4176 267.175 14.9533 254.722 14.9533C242.394 14.9533 232.307 24.4176 232.307 36.7461C232.307 49.0746 242.394 59.037 254.722 59.037ZM234.175 61.6521C233.552 61.6521 232.929 62.2747 232.929 62.8974V104.49C232.929 105.238 233.552 105.736 234.175 105.736H275.27C275.892 105.736 276.515 105.238 276.515 104.49V62.8974C276.515 62.2747 275.892 61.6521 275.27 61.6521H234.175ZM284.6 104.615C284.6 105.238 285.098 105.736 285.72 105.736H374.137C374.759 105.736 375.382 105.238 375.382 104.615V79.2108C375.382 78.5882 374.759 78.0901 374.137 78.0901H327.313V16.0741C327.313 15.4515 326.691 14.9533 326.068 14.9533H285.72C285.098 14.9533 284.6 15.4515 284.6 16.0741V104.615ZM384.744 14.9533C383.997 14.9533 383.499 15.576 383.499 16.1986V104.615C383.499 105.238 383.997 105.736 384.744 105.736H426.088C451.119 105.736 471.417 85.3128 471.417 60.4068C471.417 35.3763 451.119 14.9533 426.213 14.9533H384.744ZM423.598 64.6408V55.7992H426.088C428.579 55.7992 430.571 57.7917 430.571 60.2823C430.571 62.7729 428.579 64.6408 426.088 64.6408H423.598ZM587.515 15.7005C587.39 15.2024 586.892 14.9533 586.394 14.9533H546.794C546.171 14.9533 545.797 15.2024 545.548 15.7005L515.039 104.117C514.665 105.113 515.163 105.736 516.159 105.736H557.005C557.877 105.736 558.25 105.238 558.5 104.49L560.866 97.3922H572.073L574.439 104.49C574.688 105.238 575.062 105.736 575.934 105.736H616.655C617.651 105.736 618.149 105.113 617.776 104.117L587.515 15.7005ZM570.33 92.1619H562.609L566.469 80.2071L570.33 92.1619ZM41.1605 121.389C39.7173 121.389 38.7552 122.592 38.7552 123.795V294.571C38.7552 295.774 39.7173 296.736 41.1605 296.736H121.016C169.363 296.736 208.569 257.289 208.569 209.183C208.569 160.836 169.363 121.389 121.257 121.389H41.1605ZM116.206 217.361V200.283H121.016C125.827 200.283 129.676 204.132 129.676 208.942C129.676 213.753 125.827 217.361 121.016 217.361H116.206ZM226.726 121.389C225.282 121.389 224.32 122.592 224.32 123.795V294.571C224.32 295.774 225.282 296.736 226.726 296.736H393.653C395.097 296.736 396.059 296.014 396.059 294.33V246.465C396.059 245.022 395.097 244.3 393.653 244.3H305.138V235.641H362.144C363.587 235.641 364.309 234.92 364.309 233.236V185.13C364.309 183.446 363.587 182.724 362.144 182.724H305.138V174.065H393.653C395.097 174.065 396.059 173.344 396.059 171.66V123.795C396.059 122.111 395.097 121.389 393.653 121.389H226.726ZM512.306 143.518C511.825 143.518 511.585 143.278 510.141 141.113L497.634 123.314C496.672 121.87 495.95 121.389 494.988 121.389H410.562C408.397 121.389 407.435 123.314 408.638 124.997L464.441 205.094C466.605 208.221 466.846 208.461 466.846 208.942C466.846 209.423 466.605 209.664 464.441 212.791L408.638 293.128C407.435 294.811 408.397 296.736 410.562 296.736H494.988C495.95 296.736 496.672 296.495 497.153 295.774L510.141 277.012C511.585 274.847 511.825 274.607 512.306 274.607C512.787 274.607 513.028 274.847 514.471 277.012L527.46 295.774C527.941 296.495 528.662 296.736 529.624 296.736H614.05C616.215 296.736 617.177 294.811 615.975 293.128L560.172 212.791C558.007 209.664 557.766 209.423 557.766 208.942C557.766 208.461 558.007 208.221 560.172 205.094L615.975 124.997C617.177 123.314 616.215 121.389 614.05 121.389H529.624C528.662 121.389 527.941 121.87 526.978 123.314L514.471 141.113C513.028 143.278 512.787 143.518 512.306 143.518Z" fill="#E9D9FF"/>
<rect x="458.015" y="154.997" width="9.04079" height="44.8646" fill="#ACC756"/>
<rect x="450.984" y="165.64" width="22.4556" height="32.7926" fill="#ACC756"/>
<rect x="445.7" y="177.388" width="33.0236" height="27.3355" fill="#ACC756"/>
<rect x="441.426" y="188.567" width="41.961" height="16.1555" fill="#ACC756"/>
<rect x="466.313" y="219.754" width="7.12654" height="13.6619" fill="#4FAB59"/>
<rect x="473.261" y="215.715" width="7.12654" height="10.0767" fill="#4FAB59"/>
<rect x="444.504" y="215.715" width="7.12654" height="10.0767" fill="#ACC756"/>
<rect x="437.695" y="211.472" width="7.12654" height="8.28122" fill="#ACC756"/>
<rect x="480.387" y="211.359" width="7.12654" height="8.39418" fill="#4FAB59"/>
<rect x="458.309" y="224.108" width="8.00494" height="14.8317" fill="#ACC756"/>
<rect x="451.182" y="219.754" width="7.12654" height="13.6619" fill="#ACC756"/>
<rect x="462.374" y="154.997" width="4.68199" height="40.004" fill="#4FAB59"/>
<rect x="464.184" y="165.475" width="9.25623" height="38.3646" fill="#4FAB59"/>
<rect x="469.877" y="177.33" width="9.25623" height="21.8028" fill="#4FAB59"/>
<rect x="474.13" y="188.783" width="9.25623" height="15.0571" fill="#4FAB59"/>
<rect x="437.695" y="199.862" width="49.2313" height="6.84545" fill="#48786A"/>
<rect x="444.684" y="204.723" width="35.7031" height="6.84545" fill="#48786A"/>
<rect x="451.631" y="208.869" width="21.8093" height="6.84545" fill="#48786A"/>
<rect x="458.309" y="213.792" width="8.00494" height="5.96077" fill="#48786A"/>
<rect width="49.2313" height="6.84545" transform="matrix(1 0 0 -1 437.695 206.708)" fill="#48786A"/>
<rect width="35.7031" height="6.84545" transform="matrix(1 0 0 -1 444.684 201.848)" fill="#48786A"/>
<rect width="21.8093" height="6.84545" transform="matrix(1 0 0 -1 451.631 197.701)" fill="#48786A"/>
<rect width="8.00494" height="6.84545" transform="matrix(1 0 0 -1 458.309 192.777)" fill="#48786A"/>
<rect x="462.374" y="185.996" width="3.93969" height="33.7574" fill="#2C5146"/>
<rect x="464.88" y="190.855" width="8.55951" height="24.7571" fill="#2C5146"/>
<rect x="472.226" y="194.882" width="8.16074" height="16.6865" fill="#2C5146"/>
<rect x="479.572" y="199.862" width="7.35471" height="6.84545" fill="#2C5146"/>
<rect x="462.374" y="224.108" width="3.93969" height="14.8317" fill="#4FAB59"/>
<rect x="457.225" y="181.576" width="5.35352" height="3.34221" transform="rotate(-90 457.225 181.576)" fill="black"/>
<rect x="464.181" y="181.576" width="5.35352" height="3.34221" transform="rotate(-90 464.181 181.576)" fill="black"/>
<rect x="457.577" y="202.874" width="9.47838" height="3.34221" fill="black"/>
<rect x="169.693" y="238.94" width="101.395" height="6.72556" fill="#E2B436"/>
<rect x="411.914" y="238.94" width="101.395" height="6.72556" fill="#E2B436"/>
<rect x="275.819" y="372.159" width="134.551" height="6.11595" fill="#E2B436"/>
<path d="M318.631 335.463L288.051 366.043H398.138L367.559 335.463L361.443 317.115L355.327 310.999H330.863L324.747 317.115L318.631 335.463Z" fill="#A6644B"/>
<rect x="336.979" y="83.6226" width="12.2319" height="233.493" fill="#A6644B"/>
<rect x="330.863" y="101.97" width="24.4638" height="18.3479" fill="#E2B436"/>
<path d="M355.327 53.0428L349.211 46.9269H336.979L330.863 53.0428V65.2747L336.979 71.3907H349.211L355.327 65.2747V53.0428Z" fill="#E2B436"/>
<path d="M392.022 108.086H361.443V114.202L385.906 120.318L398.138 126.434L410.37 138.666H459.298L465.414 132.55L469.44 128.121L465.414 124.893L459.298 126.434H416.486L404.254 114.202L392.022 108.086Z" fill="#A6644B"/>
<path d="M294.177 108.086H325.586V114.202L300.458 120.318L287.895 126.434L275.331 138.666H223.551L217.745 132.55L214.66 128.121L218.795 124.893L223.551 126.434H269.504L281.613 114.202L294.177 108.086Z" fill="#A6644B"/>
<rect x="171.719" y="378.275" width="267.202" height="6.11595" fill="black"/>
<rect x="443.323" y="378.275" width="67.5981" height="6.11595" fill="black"/>
<rect x="269.574" y="378.275" width="146.783" height="6.11595" fill="black"/>
<rect x="275.819" y="366.043" width="134.551" height="6.11595" fill="black"/>
<rect x="300.283" y="347.695" width="85.6233" height="6.11595" fill="black"/>
<rect x="410.37" y="372.159" width="6.11595" height="12.2319" fill="black"/>
<rect x="269.574" y="372.159" width="6.11595" height="12.2319" fill="black"/>
<rect x="288.051" y="359.927" width="6.11595" height="6.11595" fill="black"/>
<rect x="294.167" y="353.811" width="6.11595" height="6.11595" fill="black"/>
<rect width="6.11595" height="6.11595" transform="matrix(-1 0 0 1 398.138 359.927)" fill="black"/>
<rect width="6.11595" height="6.11595" transform="matrix(-1 0 0 1 392.022 353.811)" fill="black"/>
<rect x="306.399" y="341.579" width="6.11595" height="6.11595" fill="black"/>
<rect x="312.515" y="335.463" width="6.11595" height="6.11595" fill="black"/>
<rect x="324.747" y="310.999" width="6.11595" height="6.11595" fill="black"/>
<rect x="333.921" y="120.318" width="21.4058" height="6.11595" fill="black"/>
<rect x="330.863" y="95.8545" width="24.4638" height="6.11595" fill="black"/>
<rect x="355.327" y="83.6226" width="18.3479" height="6.11595" transform="rotate(90 355.327 83.6226)" fill="black"/>
<rect x="361.443" y="101.97" width="18.3479" height="6.11595" transform="rotate(90 361.443 101.97)" fill="black"/>
<rect x="330.863" y="101.97" width="18.3479" height="6.11595" transform="rotate(90 330.863 101.97)" fill="black"/>
<rect x="336.979" y="83.6226" width="18.3479" height="6.11595" transform="rotate(90 336.979 83.6226)" fill="black"/>
<rect x="349.211" y="83.6226" width="12.2319" height="6.11595" transform="rotate(-180 349.211 83.6226)" fill="black"/>
<rect x="343.095" y="83.6226" width="12.2319" height="6.11595" transform="rotate(-90 343.095 83.6226)" fill="black"/>
<rect x="349.211" y="71.3906" width="6.11595" height="6.11595" transform="rotate(-90 349.211 71.3906)" fill="black"/>
<rect x="349.211" y="53.0428" width="6.11595" height="6.11595" transform="rotate(-90 349.211 53.0428)" fill="black"/>
<rect x="340.037" y="40.8109" width="6.11595" height="6.11595" transform="rotate(-90 340.037 40.8109)" fill="black"/>
<rect x="355.327" y="65.2747" width="12.2319" height="6.11595" transform="rotate(-90 355.327 65.2747)" fill="black"/>
<rect x="336.979" y="40.8109" width="12.2319" height="6.11595" fill="black"/>
<rect x="330.863" y="71.3906" width="6.11595" height="6.11595" transform="rotate(-90 330.863 71.3906)" fill="black"/>
<rect x="392.022" y="108.086" width="30.5798" height="6.11595" transform="rotate(-180 392.022 108.086)" fill="black"/>
<rect x="385.906" y="120.318" width="24.4638" height="6.11595" transform="rotate(-180 385.906 120.318)" fill="black"/>
<rect x="398.138" y="132.55" width="6.11595" height="6.11595" transform="rotate(-90 398.138 132.55)" fill="black"/>
<rect x="404.254" y="138.666" width="6.11595" height="6.11595" transform="rotate(-90 404.254 138.666)" fill="black"/>
<rect x="410.37" y="144.782" width="6.11595" height="42.8117" transform="rotate(-90 410.37 144.782)" fill="black"/>
<rect x="385.906" y="126.434" width="6.11595" height="12.2319" transform="rotate(-90 385.906 126.434)" fill="black"/>
<rect x="404.254" y="120.318" width="6.11595" height="6.11595" transform="rotate(-90 404.254 120.318)" fill="black"/>
<rect x="410.37" y="126.434" width="6.11595" height="6.11595" transform="rotate(-90 410.37 126.434)" fill="black"/>
<rect x="465.414" y="132.55" width="6.11595" height="6.11595" transform="rotate(-90 465.414 132.55)" fill="black"/>
<rect x="453.182" y="144.782" width="6.11595" height="18.3479" transform="rotate(-90 453.182 144.782)" fill="black"/>
<rect x="405.188" y="238.94" width="6.72556" height="114.335" transform="rotate(-90 405.188 238.94)" fill="black"/>
<rect x="452.267" y="144.782" width="6.72556" height="13.4511" fill="black"/>
<rect width="6.72556" height="13.4511" transform="matrix(-1 0 0 1 472.444 144.782)" fill="black"/>
<rect x="445.542" y="158.233" width="6.72556" height="13.4511" fill="black"/>
<rect width="6.72556" height="13.4511" transform="matrix(-1 0 0 1 479.17 158.233)" fill="black"/>
<rect x="438.816" y="171.684" width="6.72556" height="13.4511" fill="black"/>
<rect width="6.72556" height="13.4511" transform="matrix(-1 0 0 1 485.895 171.684)" fill="black"/>
<rect x="432.091" y="185.135" width="6.72556" height="13.4511" fill="black"/>
<rect width="6.72556" height="13.4511" transform="matrix(-1 0 0 1 492.621 185.135)" fill="black"/>
<rect x="425.365" y="198.586" width="6.72556" height="13.4511" fill="black"/>
<rect x="418.64" y="212.038" width="6.72556" height="13.4511" fill="black"/>
<rect x="411.914" y="225.489" width="6.72556" height="6.72556" fill="black"/>
<rect width="6.72556" height="13.4511" transform="matrix(-1 0 0 1 506.072 212.038)" fill="black"/>
<rect width="6.72556" height="6.72556" transform="matrix(-1 0 0 1 512.797 225.489)" fill="black"/>
<rect width="6.72556" height="13.4511" transform="matrix(-1 0 0 1 499.346 198.586)" fill="black"/>
<rect x="405.188" y="238.94" width="6.72556" height="6.72556" fill="black"/>
<rect x="512.797" y="238.94" width="6.72556" height="6.72556" fill="black"/>
<rect x="411.914" y="245.665" width="100.883" height="6.72556" fill="black"/>
<rect x="163.479" y="238.94" width="6.72556" height="114.335" transform="rotate(-90 163.479 238.94)" fill="black"/>
<rect x="210.558" y="144.782" width="6.72556" height="13.4511" fill="black"/>
<rect width="6.72556" height="13.4511" transform="matrix(-1 0 0 1 230.735 144.782)" fill="black"/>
<rect x="203.833" y="158.233" width="6.72556" height="13.4511" fill="black"/>
<rect width="6.72556" height="13.4511" transform="matrix(-1 0 0 1 237.46 158.233)" fill="black"/>
<rect x="197.107" y="171.684" width="6.72556" height="13.4511" fill="black"/>
<rect width="6.72556" height="13.4511" transform="matrix(-1 0 0 1 244.186 171.684)" fill="black"/>
<rect x="190.382" y="185.135" width="6.72556" height="13.4511" fill="black"/>
<rect width="6.72556" height="13.4511" transform="matrix(-1 0 0 1 250.911 185.135)" fill="black"/>
<rect x="183.656" y="198.586" width="6.72556" height="13.4511" fill="black"/>
<rect x="176.93" y="212.038" width="6.72556" height="13.4511" fill="black"/>
<rect x="170.205" y="225.489" width="6.72556" height="6.72556" fill="black"/>
<rect width="6.72556" height="13.4511" transform="matrix(-1 0 0 1 264.363 212.038)" fill="black"/>
<rect width="6.72556" height="6.72556" transform="matrix(-1 0 0 1 271.088 225.489)" fill="black"/>
<rect width="6.72556" height="13.4511" transform="matrix(-1 0 0 1 257.637 198.586)" fill="black"/>
<rect x="163.479" y="238.94" width="6.72556" height="6.72556" fill="black"/>
<rect x="271.088" y="238.94" width="6.72556" height="6.72556" fill="black"/>
<rect x="170.205" y="245.665" width="100.883" height="6.72556" fill="black"/>
<rect x="211.602" y="144.782" width="6.11595" height="18.3479" transform="rotate(-90 211.602 144.782)" fill="black"/>
<rect x="459.298" y="126.434" width="6.11595" height="12.2319" transform="rotate(-90 459.298 126.434)" fill="black"/>
<rect x="459.298" y="138.666" width="6.11595" height="6.11595" transform="rotate(-90 459.298 138.666)" fill="black"/>
<rect x="416.486" y="132.55" width="6.11595" height="42.8117" transform="rotate(-90 416.486 132.55)" fill="black"/>
<rect x="392.022" y="114.202" width="6.11595" height="12.2319" transform="rotate(-90 392.022 114.202)" fill="black"/>
<rect width="30.5798" height="6.11595" transform="matrix(1 -8.74228e-08 -8.74228e-08 -1 294.167 108.086)" fill="black"/>
<rect width="24.4638" height="6.11595" transform="matrix(1 -8.74228e-08 -8.74228e-08 -1 300.283 120.318)" fill="black"/>
<rect width="6.11595" height="6.11595" transform="matrix(4.37114e-08 -1 -1 -4.37114e-08 288.051 132.55)" fill="black"/>
<rect width="6.11595" height="6.11595" transform="matrix(4.37114e-08 -1 -1 -4.37114e-08 281.935 138.666)" fill="black"/>
<rect width="6.11595" height="45.8696" transform="matrix(4.37114e-08 -1 -1 -4.37114e-08 275.819 144.782)" fill="black"/>
<rect width="6.11595" height="12.2319" transform="matrix(4.37114e-08 -1 -1 -4.37114e-08 300.283 126.434)" fill="black"/>
<rect width="6.11595" height="6.11595" transform="matrix(4.37114e-08 -1 -1 -4.37114e-08 281.935 120.318)" fill="black"/>
<rect width="6.11595" height="6.11595" transform="matrix(4.37114e-08 -1 -1 -4.37114e-08 275.819 126.434)" fill="black"/>
<rect width="6.11595" height="6.11595" transform="matrix(4.37114e-08 -1 -1 -4.37114e-08 217.718 132.55)" fill="black"/>
<rect width="6.11595" height="12.2319" transform="matrix(4.37114e-08 -1 -1 -4.37114e-08 223.834 126.434)" fill="black"/>
<rect width="6.11595" height="6.11595" transform="matrix(4.37114e-08 -1 -1 -4.37114e-08 223.834 138.666)" fill="black"/>
<rect width="6.11595" height="45.8696" transform="matrix(5.46392e-08 -1 -1 -3.49691e-08 269.703 132.55)" fill="black"/>
<rect width="6.11595" height="12.2319" transform="matrix(4.37114e-08 -1 -1 -4.37114e-08 294.167 114.202)" fill="black"/>
<rect x="324.747" y="65.2747" width="12.2319" height="6.11595" transform="rotate(-90 324.747 65.2747)" fill="black"/>
<rect x="330.863" y="53.0428" width="6.11595" height="6.11595" transform="rotate(-90 330.863 53.0428)" fill="black"/>
<rect x="336.979" y="83.6226" width="12.2319" height="6.11595" transform="rotate(-90 336.979 83.6226)" fill="black"/>
<rect x="318.631" y="317.115" width="6.11595" height="18.3479" fill="black"/>
<rect x="330.863" y="120.318" width="6.11595" height="190.681" fill="black"/>
<rect width="6.11595" height="6.11595" transform="matrix(-1 0 0 1 361.443 310.999)" fill="black"/>
<rect width="6.11595" height="18.3479" transform="matrix(-1 0 0 1 367.558 317.115)" fill="black"/>
<rect width="6.11595" height="193.132" transform="matrix(-1 0 0 1 355.327 120.391)" fill="black"/>
<rect width="6.11595" height="6.11595" transform="matrix(-1 0 0 1 379.79 341.579)" fill="black"/>
<rect width="6.11595" height="6.11595" transform="matrix(-1 0 0 1 373.674 335.463)" fill="black"/>
<g style="mix-blend-mode:multiply">
<rect x="343.095" y="133.913" width="6.11595" height="179.61" fill="#D9D9D9"/>
</g>
<rect x="336.979" y="310.999" width="18.3479" height="6.11595" fill="#8D5540"/>
<rect x="324.747" y="353.811" width="55.0436" height="6.11595" fill="#8D5540"/>
<rect x="361.443" y="317.115" width="24.4638" height="6.11595" transform="rotate(90 361.443 317.115)" fill="#8D5540"/>
<rect x="349.211" y="317.115" width="6.11595" height="18.3479" fill="#8D5540"/>
<rect x="361.443" y="335.463" width="6.11595" height="12.2319" fill="#8D5540"/>
<rect x="367.558" y="341.579" width="6.11595" height="6.11595" fill="#8D5540"/>
<rect x="379.79" y="353.811" width="6.11595" height="12.2319" fill="#8D5540"/>
<g style="mix-blend-mode:multiply">
<rect x="410.37" y="372.159" width="6.11595" height="18.3479" transform="rotate(90 410.37 372.159)" fill="#DFDFDF"/>
</g>
<g style="mix-blend-mode:multiply">
<rect x="512.797" y="238.94" width="6.72556" height="20.1767" transform="rotate(90 512.797 238.94)" fill="#DFDFDF"/>
</g>
<g style="mix-blend-mode:multiply">
<rect x="271.088" y="238.94" width="6.72556" height="20.1767" transform="rotate(90 271.088 238.94)" fill="#DFDFDF"/>
</g>
<g style="mix-blend-mode:multiply">
<rect x="355.327" y="120.318" width="6.11595" height="18.3479" transform="rotate(-180 355.327 120.318)" fill="#DFDFDF"/>
</g>
<rect x="385.906" y="359.927" width="6.11595" height="6.11595" fill="#8D5540"/>
<rect x="343.095" y="101.97" width="6.11595" height="6.11595" fill="#C69D2F"/>
<rect x="343.095" y="83.6226" width="6.11595" height="12.2319" fill="#8D5540"/>
<rect x="343.095" y="46.9269" width="6.11595" height="18.3479" fill="#C69D2F"/>
<rect x="349.211" y="53.0428" width="6.11595" height="12.2319" fill="#C69D2F"/>
<rect x="226.932" y="205.989" width="6.30491" height="19.6665" transform="rotate(-90 226.932 205.989)" fill="#F77B1D"/>
<rect x="226.932" y="231.96" width="6.30491" height="19.6665" transform="rotate(-90 226.932 231.96)" fill="#F77B1D"/>
<rect x="220.627" y="205.989" width="6.30491" height="19.6665" fill="#F77B1D"/>
<rect x="226.932" y="205.989" width="6.30491" height="19.6665" fill="#FBE85D"/>
<rect x="259.209" y="225.656" width="6.30491" height="19.6665" transform="rotate(-180 259.209 225.656)" fill="#FBE85D"/>
<rect x="252.904" y="225.656" width="6.30491" height="19.6665" transform="rotate(90 252.904 225.656)" fill="#FBE85D"/>
<rect x="233.238" y="205.989" width="6.30491" height="19.6665" transform="rotate(-90 233.238 205.989)" fill="#FBE85D"/>
<rect x="233.238" y="205.989" width="19.6665" height="19.6665" fill="#FCAF37"/>
<rect x="252.904" y="225.656" width="6.30491" height="19.6665" transform="rotate(-180 252.904 225.656)" fill="#F77B1D"/>
<rect x="233.238" y="212.294" width="6.30491" height="19.6665" transform="rotate(-90 233.238 212.294)" fill="#F77B1D"/>
<rect x="238.617" y="214.915" width="5.77318" height="3.34221" transform="rotate(-90 238.617 214.915)" fill="black"/>
<rect x="244.182" y="214.915" width="5.77318" height="3.34221" transform="rotate(-90 244.182 214.915)" fill="black"/>
<rect x="240.288" y="218.107" width="5.77318" height="3.34221" fill="black"/>
<rect x="188.351" y="205.989" width="6.30491" height="19.6665" transform="rotate(-90 188.351 205.989)" fill="#F77B1D"/>
<rect x="188.351" y="231.96" width="6.30491" height="19.6665" transform="rotate(-90 188.351 231.96)" fill="#F77B1D"/>
<rect x="182.046" y="205.989" width="6.30491" height="19.6665" fill="#F77B1D"/>
<rect x="188.351" y="205.989" width="6.30491" height="19.6665" fill="#FBE85D"/>
<rect x="220.627" y="225.656" width="6.30491" height="19.6665" transform="rotate(-180 220.627 225.656)" fill="#FBE85D"/>
<rect x="214.322" y="225.656" width="6.30491" height="19.6665" transform="rotate(90 214.322 225.656)" fill="#FBE85D"/>
<rect x="194.656" y="205.989" width="6.30491" height="19.6665" transform="rotate(-90 194.656 205.989)" fill="#FBE85D"/>
<rect x="194.656" y="205.989" width="19.6665" height="19.6665" fill="#FCAF37"/>
<rect x="214.322" y="225.656" width="6.30491" height="19.6665" transform="rotate(-180 214.322 225.656)" fill="#F77B1D"/>
<rect x="194.656" y="212.294" width="6.30491" height="19.6665" transform="rotate(-90 194.656 212.294)" fill="#F77B1D"/>
<rect x="202.971" y="221.365" width="7.26678" height="2.77065" transform="rotate(-45 202.971 221.365)" fill="black"/>
<rect x="201.783" y="216.226" width="5.21319" height="2.77065" transform="rotate(45 201.783 216.226)" fill="black"/>
<rect x="198.74" y="209.141" width="3.56769" height="3.56504" fill="black"/>
<rect x="207.505" y="209.141" width="3.56769" height="3.56504" fill="black"/>
<rect x="208.665" y="173.713" width="6.30491" height="19.6665" transform="rotate(-90 208.665 173.713)" fill="#F77B1D"/>
<rect x="208.665" y="199.684" width="6.30491" height="19.6665" transform="rotate(-90 208.665 199.684)" fill="#F77B1D"/>
<rect x="202.36" y="173.713" width="6.30491" height="19.6665" fill="#F77B1D"/>
<rect x="208.665" y="173.713" width="6.30491" height="19.6665" fill="#FBE85D"/>
<rect x="240.942" y="193.379" width="6.30491" height="19.6665" transform="rotate(-180 240.942 193.379)" fill="#FBE85D"/>
<rect x="234.637" y="193.379" width="6.30491" height="19.6665" transform="rotate(90 234.637 193.379)" fill="#FBE85D"/>
<rect x="214.97" y="173.713" width="6.30491" height="19.6665" transform="rotate(-90 214.97 173.713)" fill="#FBE85D"/>
<rect x="214.971" y="173.713" width="19.6665" height="19.6665" fill="#FCAF37"/>
<rect x="234.637" y="193.379" width="6.30491" height="19.6665" transform="rotate(-180 234.637 193.379)" fill="#F77B1D"/>
<rect x="214.971" y="180.017" width="6.30491" height="19.6665" transform="rotate(-90 214.971 180.017)" fill="#F77B1D"/>
<rect x="216.975" y="182.638" width="5.77318" height="3.34221" transform="rotate(-90 216.975 182.638)" fill="black"/>
<rect x="222.539" y="182.638" width="5.77318" height="3.34221" transform="rotate(-90 222.539 182.638)" fill="black"/>
<rect x="228.332" y="189.738" width="4.46806" height="4.58155" transform="rotate(-90 228.332 189.738)" fill="black"/>
</svg>
