<svg width="652" height="402" viewBox="0 0 652 402" fill="none" xmlns="http://www.w3.org/2000/svg">
<path d="M140.121 138.219C140.121 136.819 138.921 135.619 137.321 135.619H59.0207C57.3207 135.619 56.2207 136.819 56.2207 138.219C56.2207 174.419 97.1207 193.819 144.021 193.819C203.121 193.819 234.421 172.719 234.421 138.919C234.421 102.719 203.221 81.2191 143.821 81.2191C137.621 81.2191 137.221 76.9191 137.221 75.3191C137.221 72.2191 140.321 69.6191 144.121 69.6191C147.621 69.6191 150.721 71.7191 150.721 75.0191C150.721 77.1191 152.121 78.3191 154.021 78.3191H229.921C231.621 78.3191 232.721 77.1191 232.721 75.7191C232.721 40.2191 191.521 21.3191 145.221 21.3191C98.6207 21.3191 55.1207 45.0191 55.1207 78.3191C55.1207 114.719 91.8207 131.819 144.521 132.019C149.921 132.019 153.521 134.619 153.521 138.919C153.521 142.019 150.721 144.619 147.121 144.619C142.721 144.619 140.121 142.419 140.121 138.219Z" fill="#8CD9DA"/>
<path d="M334.921 81.4191C334.721 82.3191 334.421 82.8191 334.021 82.8191C333.621 82.8191 333.321 82.3191 333.121 81.4191L318.921 23.0191C318.721 22.1191 317.721 21.3191 316.821 21.3191H238.921C237.021 21.3191 236.121 22.5191 236.821 24.4191L294.521 192.319C294.721 193.219 295.721 193.719 296.921 193.719H371.421C372.321 193.719 373.321 193.219 373.521 192.319L431.621 24.4191C432.321 22.5191 431.421 21.3191 429.521 21.3191H351.421C350.521 21.3191 349.521 22.0191 349.321 23.0191L334.921 81.4191Z" fill="#8CD9DA"/>
<path d="M526.821 111.519C526.121 111.519 525.421 111.719 524.921 112.419C523.021 115.519 520.221 117.119 516.921 117.119C511.521 117.119 507.221 112.819 507.221 107.419C507.221 102.219 511.521 97.9191 516.921 97.9191C520.221 97.9191 522.821 99.3191 524.921 102.419C525.421 103.119 526.121 103.619 526.821 103.619H601.121C603.221 103.619 603.721 102.919 603.521 100.819C599.921 55.4191 561.821 21.3191 516.921 21.3191C468.921 21.3191 429.621 59.6191 429.621 107.419C429.621 155.419 468.921 193.719 516.921 193.719C542.921 193.719 566.821 182.819 582.721 164.119H601.621C602.821 164.119 603.721 162.919 603.721 161.719V113.719C603.721 112.519 603.021 111.319 601.821 111.319H526.821V111.519Z" fill="#8CD9DA"/>
<path d="M137.021 291.019C137.021 290.519 137.521 290.519 137.521 291.019L148.421 375.719C148.621 376.619 149.321 377.619 150.321 377.819H227.921C229.121 377.819 230.321 376.919 230.321 375.719V207.719C230.321 206.319 229.121 205.319 227.921 205.319H150.921C149.721 205.319 148.821 206.219 148.821 207.719V290.219C148.821 290.719 148.321 290.719 148.321 290.219L137.721 207.419C137.521 206.019 136.521 205.319 135.121 205.319H57.7207C56.5207 205.319 55.6207 206.219 55.6207 207.719V375.619C55.6207 376.819 56.5207 377.719 57.7207 377.719H134.621C135.821 377.719 137.021 376.819 137.021 375.619V291.019Z" fill="#8CD9DA"/>
<path d="M251.521 205.319C250.121 205.319 249.121 206.019 249.121 207.719V375.419C249.121 376.819 250.021 377.819 251.521 377.819H329.621C331.021 377.819 332.021 376.919 332.021 375.419V324.819H392.121C393.321 324.819 394.521 323.919 394.521 322.719V277.519C394.521 276.319 393.321 275.419 392.121 275.419H331.921V258.119H420.921C422.121 258.119 423.021 257.219 423.021 255.719V207.719C423.021 206.519 422.121 205.319 420.921 205.319H251.521Z" fill="#8CD9DA"/>
<path d="M436.921 205.319C435.721 205.319 434.821 206.219 434.821 207.419V290.419C434.821 291.619 435.721 292.519 436.921 292.519H479.921V375.519C479.921 376.719 480.821 377.619 482.021 377.619H558.921C560.121 377.619 561.321 376.719 561.321 375.519V292.519H604.321C605.521 292.519 606.421 291.619 606.421 290.419V207.419C606.421 206.219 605.521 205.319 604.321 205.319H436.921Z" fill="#8CD9DA"/>
<path d="M75.7208 146.919L82.9208 140.919L101.621 134.919L125.821 136.519L129.521 140.319L133.221 150.119V179.819L127.221 186.119L120.221 193.219L115.221 197.019H93.2208L87.2208 190.719L81.5208 185.419L77.1208 180.019L75.7208 146.919Z" fill="#4AC157"/>
<path d="M130.221 140.619H124.421V182.819H130.221V140.619Z" fill="#33A940"/>
<path d="M124.421 140.619H118.421V188.819H124.421V140.619Z" fill="#33A940"/>
<path d="M118.221 188.819H112.221V194.819H118.221V188.819Z" fill="#33A940"/>
<path d="M118.421 182.819H112.421V188.819H118.421V182.819Z" fill="#33A940"/>
<path d="M112.421 188.819H106.421V194.819H112.421V188.819Z" fill="#33A940"/>
<path d="M105.521 98.8192L110.821 96.3192L127.021 95.4192L133.221 102.319L138.821 106.419V125.319L133.221 132.319L127.721 136.919H108.021L103.921 131.419L96.9208 127.119L98.6208 106.419L105.521 98.8192Z" fill="white"/>
<path d="M127.821 113.319H121.821V119.319H127.821V113.319Z" fill="black"/>
<path d="M106.221 128.819H100.221V134.819H106.221V128.819Z" fill="black"/>
<path d="M106.221 98.8191H100.221V104.819H106.221V98.8191Z" fill="black"/>
<path d="M136.221 128.819H130.221V134.819H136.221V128.819Z" fill="black"/>
<path d="M100.221 104.819H94.2208V128.819H100.221V104.819Z" fill="black"/>
<path d="M136.221 98.8191H130.221V104.819H136.221V98.8191Z" fill="black"/>
<path d="M130.221 134.619H106.121V140.619H130.221V134.619Z" fill="black"/>
<path d="M142.221 104.819H136.221V128.819H142.221V104.819Z" fill="black"/>
<path d="M130.221 92.9192H106.221V98.9192H130.221V92.9192Z" fill="black"/>
<path d="M81.4208 107.619L86.7208 105.119L102.921 104.219L109.121 111.119L114.721 115.219V134.119L109.121 141.119L103.621 145.719H84.0208L79.9208 140.219L72.9208 135.919L74.6208 115.219L81.4208 107.619Z" fill="white"/>
<path d="M100.821 123.019H94.8208V129.019H100.821V123.019Z" fill="black"/>
<path d="M82.2208 137.619H76.2208V143.619H82.2208V137.619Z" fill="black"/>
<path d="M82.2208 107.619H76.2208V113.619H82.2208V107.619Z" fill="black"/>
<path d="M112.221 137.619H106.221V143.619H112.221V137.619Z" fill="black"/>
<path d="M76.2208 113.619H70.2208V137.619H76.2208V113.619Z" fill="black"/>
<path d="M112.221 107.619H106.221V113.619H112.221V107.619Z" fill="black"/>
<path d="M106.221 143.419H82.1207V149.419H106.221V143.419Z" fill="black"/>
<path d="M118.221 113.619H112.221V137.619H118.221V113.619Z" fill="black"/>
<path d="M106.221 101.719H82.2208V107.719H106.221V101.719Z" fill="black"/>
<path d="M79.3208 143.719H73.3208V182.919H79.3208V143.719Z" fill="black"/>
<path d="M136.221 146.419H130.221V182.919H136.221V146.419Z" fill="black"/>
<path d="M85.3208 182.919H79.3208V188.919H85.3208V182.919Z" fill="black"/>
<path d="M91.3208 188.919H85.3208V194.919H91.3208V188.919Z" fill="black"/>
<path d="M130.221 182.919H124.221V188.919H130.221V182.919Z" fill="black"/>
<path d="M124.221 188.919H118.221V194.919H124.221V188.919Z" fill="black"/>
<path d="M118.221 194.919H91.2208V200.919H118.221V194.919Z" fill="black"/>
<path d="M133.221 140.619H127.221V146.619H133.221V140.619Z" fill="black"/>
<path d="M548.321 281.619L541.121 275.619L522.421 269.619L498.221 271.219L494.521 275.119L490.821 284.919V314.619L496.821 320.919L503.821 328.019L508.821 331.919H530.821L536.821 325.619L542.521 320.319L546.921 315.019L548.321 281.619Z" fill="#F48D2D"/>
<path d="M550.721 278.419H544.721V317.619H550.721V278.419Z" fill="black"/>
<path d="M544.721 278.419H538.921V317.619H544.721V278.419Z" fill="#C96F1C"/>
<path d="M544.721 317.619H538.721V323.619H544.721V317.619Z" fill="black"/>
<path d="M538.721 323.619H532.721V329.619H538.721V323.619Z" fill="black"/>
<path d="M493.821 281.119H487.821V317.619H493.821V281.119Z" fill="black"/>
<path d="M538.921 284.319H532.921V323.619H538.921V284.319Z" fill="#C96F1C"/>
<path d="M532.721 323.619H526.721V329.619H532.721V323.619Z" fill="#C96F1C"/>
<path d="M532.921 317.619H526.921V323.619H532.921V317.619Z" fill="#C96F1C"/>
<path d="M526.921 323.619H520.921V329.619H526.921V323.619Z" fill="#C96F1C"/>
<path d="M499.821 317.619H493.821V323.619H499.821V317.619Z" fill="black"/>
<path d="M505.821 323.619H499.821V329.619H505.821V323.619Z" fill="black"/>
<path d="M532.821 329.619H505.821V335.619H532.821V329.619Z" fill="black"/>
<path d="M496.821 275.319H490.821V281.319H496.821V275.319Z" fill="black"/>
<path d="M518.521 239.519L513.221 237.019L497.021 236.119L490.821 243.019L485.221 247.119V266.019L490.821 273.019L496.321 277.619H515.921L520.021 272.119L527.021 267.819L525.321 247.119L518.521 239.519Z" fill="white"/>
<path d="M502.221 254.019H496.221V260.019H502.221V254.019Z" fill="black"/>
<path d="M523.821 269.519H517.821V275.519H523.821V269.519Z" fill="black"/>
<path d="M523.821 239.519H517.821V245.519H523.821V239.519Z" fill="black"/>
<path d="M493.821 269.519H487.821V275.519H493.821V269.519Z" fill="black"/>
<path d="M529.821 245.519H523.821V269.519H529.821V245.519Z" fill="black"/>
<path d="M493.821 239.519H487.821V245.519H493.821V239.519Z" fill="black"/>
<path d="M517.921 275.319H493.821V281.319H517.921V275.319Z" fill="black"/>
<path d="M487.821 245.519H481.821V269.519H487.821V245.519Z" fill="black"/>
<path d="M517.821 233.619H493.821V239.619H517.821V233.619Z" fill="black"/>
<path d="M542.521 248.519L537.221 246.019L521.021 245.119L514.821 252.019L509.221 256.119V275.019L514.821 282.019L520.321 286.619H540.021L544.121 281.119L551.121 276.819L549.421 256.119L542.521 248.519Z" fill="white"/>
<path d="M529.121 263.919H523.121V269.919H529.121V263.919Z" fill="black"/>
<path d="M547.821 278.519H541.821V284.519H547.821V278.519Z" fill="black"/>
<path d="M547.821 248.519H541.821V254.519H547.821V248.519Z" fill="black"/>
<path d="M517.821 278.519H511.821V284.519H517.821V278.519Z" fill="black"/>
<path d="M553.821 254.519H547.821V278.519H553.821V254.519Z" fill="black"/>
<path d="M517.821 248.519H511.821V254.519H517.821V248.519Z" fill="black"/>
<path d="M541.921 284.319H517.821V290.319H541.921V284.319Z" fill="black"/>
<path d="M511.821 254.519H505.821V278.519H511.821V254.519Z" fill="black"/>
<path d="M541.821 242.619H517.821V248.619H541.821V242.619Z" fill="black"/>
<path d="M305.521 72.8191H299.521V84.8191H305.521V72.8191Z" fill="black" fill-opacity="0.9624"/>
<path d="M323.521 72.8191H317.521V84.8191H323.521V72.8191Z" fill="black" fill-opacity="0.9624"/>
<path d="M317.521 66.9192H305.521V72.9192H317.521V66.9192Z" fill="black" fill-opacity="0.9624"/>
<path d="M317.521 72.8191H311.521V78.8191H317.521V72.8191Z" fill="#C8F5FF"/>
<path d="M317.521 84.8191H305.521V90.8191H317.521V84.8191Z" fill="black" fill-opacity="0.9624"/>
<path d="M320.521 107.819H314.521V119.819H320.521V107.819Z" fill="black" fill-opacity="0.9624"/>
<path d="M350.521 107.819H344.521V119.819H350.521V107.819Z" fill="black" fill-opacity="0.9624"/>
<path d="M338.521 95.9192H326.521V101.919H338.521V95.9192Z" fill="black" fill-opacity="0.9624"/>
<path d="M338.521 125.819H326.521V131.819H338.521V125.819Z" fill="black" fill-opacity="0.9624"/>
<path d="M326.521 101.819H320.521V107.819H326.521V101.819Z" fill="black"/>
<path d="M326.521 119.819H320.521V125.819H326.521V119.819Z" fill="black"/>
<path d="M344.521 101.819H338.521V107.819H344.521V101.819Z" fill="black"/>
<path d="M338.521 107.919H332.521V119.819H338.521V107.919Z" fill="#C8F5FF"/>
<path d="M344.521 119.819H338.521V125.819H344.521V119.819Z" fill="black"/>
<path d="M329.521 48.8191H323.521V54.8191H329.521V48.8191Z" fill="black"/>
<path d="M331.621 193.819H325.621V205.819H331.621V193.819Z" fill="black" fill-opacity="0.9624"/>
<path d="M313.621 193.819H307.621V205.819H313.621V193.819Z" fill="black" fill-opacity="0.9624"/>
<path d="M325.621 187.919H313.621V193.919H325.621V187.919Z" fill="black" fill-opacity="0.9624"/>
<path d="M319.621 193.819H313.621V199.819H319.621V193.819Z" fill="#C8F5FF"/>
<path d="M325.621 205.819H313.621V211.819H325.621V205.819Z" fill="black" fill-opacity="0.9624"/>
<path d="M319.921 238.719H313.921V250.719H319.921V238.719Z" fill="black" fill-opacity="0.9624"/>
<path d="M289.921 238.719H283.921V250.719H289.921V238.719Z" fill="black" fill-opacity="0.9624"/>
<path d="M307.921 226.919H295.921V232.919H307.921V226.919Z" fill="black" fill-opacity="0.9624"/>
<path d="M307.921 256.719H295.921V262.719H307.921V256.719Z" fill="black" fill-opacity="0.9624"/>
<path d="M313.921 232.719H307.921V238.719H313.921V232.719Z" fill="black"/>
<path d="M313.921 250.719H307.921V256.719H313.921V250.719Z" fill="black"/>
<path d="M295.921 232.719H289.921V238.719H295.921V232.719Z" fill="black"/>
<path d="M301.921 238.819H295.921V250.719H301.921V238.819Z" fill="#C8F5FF"/>
<path d="M295.921 250.719H289.921V256.719H295.921V250.719Z" fill="black"/>
<path d="M304.621 164.119H298.621V170.119H304.621V164.119Z" fill="black"/>
<path d="M296.321 177.719H290.321V183.719H296.321V177.719Z" fill="black"/>
<path d="M175.821 117.519H169.821V129.519H175.821V117.519Z" fill="black" fill-opacity="0.9624"/>
<path d="M157.821 117.519H151.821V129.519H157.821V117.519Z" fill="black" fill-opacity="0.9624"/>
<path d="M169.821 111.619H157.821V117.619H169.821V111.619Z" fill="black" fill-opacity="0.9624"/>
<path d="M163.821 117.519H157.821V123.519H163.821V117.519Z" fill="#C8F5FF"/>
<path d="M169.821 129.519H157.821V135.519H169.821V129.519Z" fill="black" fill-opacity="0.9624"/>
<path d="M175.121 94.2192H169.121V100.219H175.121V94.2192Z" fill="black"/>
<path d="M166.821 81.4192H160.821V87.4192H166.821V81.4192Z" fill="black"/>
<path d="M449.121 265.919H443.121V277.919H449.121V265.919Z" fill="black" fill-opacity="0.9624"/>
<path d="M467.121 265.919H461.121V277.919H467.121V265.919Z" fill="black" fill-opacity="0.9624"/>
<path d="M461.121 260.019H449.121V266.019H461.121V260.019Z" fill="black" fill-opacity="0.9624"/>
<path d="M461.121 265.919H455.121V271.919H461.121V265.919Z" fill="#C8F5FF"/>
<path d="M461.121 277.919H449.121V283.919H461.121V277.919Z" fill="black" fill-opacity="0.9624"/>
<path d="M449.821 242.519H443.821V248.519H449.821V242.519Z" fill="black"/>
<path d="M458.121 221.619H452.121V227.619H458.121V221.619Z" fill="black"/>
<path d="M440.521 132.419L422.521 128.919L384.821 126.019L373.721 134.319L369.021 141.919L363.721 145.319L362.321 152.019V164.919V173.519L368.321 179.619L373.721 184.919L378.621 186.419L380.921 192.519L386.621 197.119H422.821L429.221 192.519L435.421 191.219L441.621 185.019L447.621 178.519L453.021 175.519L451.721 165.119V151.119V142.919L445.621 137.219L440.521 132.419Z" fill="#7846B4"/>
<path d="M402.121 102.119L396.821 99.6192L380.621 98.7192L374.421 105.619L368.821 109.719V128.619L374.421 135.619L379.921 140.219H399.621L403.721 134.719L410.721 130.419L409.021 109.719L402.121 102.119Z" fill="white"/>
<path d="M385.821 116.619H379.821V122.619H385.821V116.619Z" fill="black"/>
<path d="M407.421 132.119H401.421V138.119H407.421V132.119Z" fill="black"/>
<path d="M407.421 102.119H401.421V108.119H407.421V102.119Z" fill="black"/>
<path d="M377.421 132.119H371.421V138.119H377.421V132.119Z" fill="black"/>
<path d="M413.421 108.119H407.421V132.119H413.421V108.119Z" fill="black"/>
<path d="M377.421 102.119H371.421V108.119H377.421V102.119Z" fill="black"/>
<path d="M401.521 137.919H377.421V143.919H401.521V137.919Z" fill="black"/>
<path d="M371.421 108.119H365.421V132.119H371.421V108.119Z" fill="black"/>
<path d="M401.421 96.2192H377.421V102.219H401.421V96.2192Z" fill="black"/>
<path d="M426.221 110.919L420.921 108.419L404.721 107.519L398.521 114.419L392.921 118.519V137.419L398.521 144.419L404.021 149.019H423.721L427.821 143.519L434.921 138.519L433.121 118.519L426.221 110.919Z" fill="white"/>
<path d="M412.821 126.319H406.821V132.319H412.821V126.319Z" fill="black"/>
<path d="M431.521 140.919H425.521V146.919H431.521V140.919Z" fill="black"/>
<path d="M431.521 110.919H425.521V116.919H431.521V110.919Z" fill="black"/>
<path d="M401.521 140.919H395.521V146.919H401.521V140.919Z" fill="black"/>
<path d="M437.521 116.919H431.521V140.919H437.521V116.919Z" fill="black"/>
<path d="M401.521 110.919H395.521V116.919H401.521V110.919Z" fill="black"/>
<path d="M425.621 146.719H401.521V152.719H425.621V146.719Z" fill="black"/>
<path d="M395.521 116.919H389.521V140.919H395.521V116.919Z" fill="black"/>
<path d="M425.521 105.019H401.521V111.019H425.521V105.019Z" fill="black"/>
<path d="M371.521 138.119H365.521V144.119H371.521V138.119Z" fill="black"/>
<path d="M365.521 144.119H359.521V170.919H365.521V144.119Z" fill="black"/>
<path d="M449.521 134.919H443.521V140.919H449.521V134.919Z" fill="black"/>
<path d="M443.421 134.919H437.421V177.119H443.421V134.919Z" fill="#54238F"/>
<path d="M455.421 140.919H449.421V171.119H455.421V140.919Z" fill="black"/>
<path d="M449.421 140.919H443.421V171.119H449.421V140.919Z" fill="#54238F"/>
<path d="M449.521 176.919H443.521V182.919H449.521V176.919Z" fill="black"/>
<path d="M443.421 176.919H437.421V182.919H443.421V176.919Z" fill="#54238F"/>
<path d="M437.521 176.919H431.521V182.919H437.521V176.919Z" fill="#54238F"/>
<path d="M455.521 171.119H449.521V177.119H455.521V171.119Z" fill="black"/>
<path d="M449.421 171.119H443.421V177.119H449.421V171.119Z" fill="#54238F"/>
<path d="M437.421 182.919H431.421V188.919H437.421V182.919Z" fill="#54238F"/>
<path d="M443.521 182.919H437.521V188.919H443.521V182.919Z" fill="black"/>
<path d="M431.521 182.919H425.521V188.919H431.521V182.919Z" fill="#54238F"/>
<path d="M425.521 188.919H419.521V194.919H425.521V188.919Z" fill="#54238F"/>
<path d="M443.521 129.119H437.521V135.119H443.521V129.119Z" fill="black"/>
<path d="M371.521 176.919H365.521V182.919H371.521V176.919Z" fill="black"/>
<path d="M365.521 170.919H359.521V176.919H365.521V170.919Z" fill="black"/>
<path d="M383.521 188.919H377.521V194.919H383.521V188.919Z" fill="black"/>
<path d="M437.521 188.919H425.521V194.919H437.521V188.919Z" fill="black"/>
<path d="M425.521 194.919H383.521V200.919H425.521V194.919Z" fill="black"/>
<path d="M401.521 176.919H395.521V182.919H401.521V176.919Z" fill="black"/>
<path d="M407.521 170.919H401.521V176.919H407.521V170.919Z" fill="black"/>
<path d="M395.521 182.919H371.521V188.919H395.521V182.919Z" fill="black"/>
<path d="M413.521 191.819V194.919H407.521V197.819H401.521H395.521V194.919H389.521V191.819H383.521V209.819H389.521V206.619H395.521V203.819H401.521H407.521V206.619H413.521V209.819H419.521V191.819H413.521Z" fill="#F48D2D"/>
<path d="M521.021 305.619V311.619H512.421V305.619H509.721V299.619H496.421V305.619H493.821V311.619H485.221V305.619H479.321V311.619H481.821V317.619H499.821V312.419H506.021V317.619H523.921V311.619H526.921V305.619H521.021Z" fill="#B83124"/>
<path d="M190.721 259.219L208.721 255.719L246.421 252.819L257.521 261.119L262.221 268.719L267.521 272.119L268.921 278.819V291.719V300.319L262.921 306.419L257.521 311.719L252.621 313.219L250.321 319.319L244.621 323.919H208.421L202.021 319.319L195.821 318.019L189.621 311.819L183.621 305.319L178.221 302.319L179.521 291.919V277.919V269.719L185.621 264.019L190.721 259.219Z" fill="#088484"/>
<path d="M229.121 228.919L234.421 226.419L250.621 225.519L256.821 232.419L262.421 236.519V255.419L256.821 262.419L251.321 267.019H231.621L227.521 261.519L220.521 257.219L222.221 236.519L229.121 228.919Z" fill="white"/>
<path d="M251.421 243.519H245.421V249.519H251.421V243.519Z" fill="black"/>
<path d="M229.821 258.919H223.821V264.919H229.821V258.919Z" fill="black"/>
<path d="M229.821 228.919H223.821V234.919H229.821V228.919Z" fill="black"/>
<path d="M259.821 258.919H253.821V264.919H259.821V258.919Z" fill="black"/>
<path d="M223.821 234.919H217.821V258.919H223.821V234.919Z" fill="black"/>
<path d="M259.821 228.919H253.821V234.919H259.821V228.919Z" fill="black"/>
<path d="M253.821 264.719H229.721V270.719H253.821V264.719Z" fill="black"/>
<path d="M265.821 234.919H259.821V258.919H265.821V234.919Z" fill="black"/>
<path d="M253.821 223.019H229.821V229.019H253.821V223.019Z" fill="black"/>
<path d="M205.021 237.719L210.321 235.219L226.521 234.319L232.721 241.219L238.321 245.319V264.219L232.721 271.219L227.221 275.819H207.521L203.421 270.319L196.321 265.319L198.121 245.319L205.021 237.719Z" fill="white"/>
<path d="M224.421 253.119H218.421V259.119H224.421V253.119Z" fill="black"/>
<path d="M205.821 267.719H199.821V273.719H205.821V267.719Z" fill="black"/>
<path d="M205.821 237.719H199.821V243.719H205.821V237.719Z" fill="black"/>
<path d="M235.821 267.719H229.821V273.719H235.821V267.719Z" fill="black"/>
<path d="M199.821 243.719H193.821V267.719H199.821V243.719Z" fill="black"/>
<path d="M235.821 237.719H229.821V243.719H235.821V237.719Z" fill="black"/>
<path d="M229.821 273.519H205.721V279.519H229.821V273.519Z" fill="black"/>
<path d="M241.821 243.719H235.821V267.719H241.821V243.719Z" fill="black"/>
<path d="M229.821 231.819H205.821V237.819H229.821V231.819Z" fill="black"/>
<path d="M265.821 264.919H259.821V270.919H265.821V264.919Z" fill="black"/>
<path d="M271.821 270.919H265.821V297.719H271.821V270.919Z" fill="black"/>
<path d="M187.821 261.719H181.821V267.719H187.821V261.719Z" fill="black"/>
<path d="M193.821 261.719H187.821V303.919H193.821V261.719Z" fill="#096262"/>
<path d="M181.821 267.719H175.821V297.919H181.821V267.719Z" fill="black"/>
<path d="M187.921 267.719H181.921V297.919H187.921V267.719Z" fill="#096262"/>
<path d="M187.821 303.719H181.821V309.719H187.821V303.719Z" fill="black"/>
<path d="M193.821 303.719H187.821V309.719H193.821V303.719Z" fill="#096262"/>
<path d="M199.821 303.719H193.821V309.719H199.821V303.719Z" fill="#096262"/>
<path d="M181.821 297.919H175.821V303.919H181.821V297.919Z" fill="black"/>
<path d="M187.821 297.919H181.821V303.919H187.821V297.919Z" fill="#096262"/>
<path d="M199.821 309.719H193.821V315.719H199.821V309.719Z" fill="#096262"/>
<path d="M193.821 309.719H187.821V315.719H193.821V309.719Z" fill="black"/>
<path d="M205.821 309.719H199.821V315.719H205.821V309.719Z" fill="#096262"/>
<path d="M211.821 315.719H205.821V321.719H211.821V315.719Z" fill="#096262"/>
<path d="M193.821 255.919H187.821V261.919H193.821V255.919Z" fill="black"/>
<path d="M265.821 303.719H259.821V309.719H265.821V303.719Z" fill="black"/>
<path d="M271.821 297.719H265.821V303.719H271.821V297.719Z" fill="black"/>
<path d="M253.821 315.719H247.821V321.719H253.821V315.719Z" fill="black"/>
<path d="M205.821 315.719H193.821V321.719H205.821V315.719Z" fill="black"/>
<path d="M247.821 321.719H205.821V327.719H247.821V321.719Z" fill="black"/>
<path d="M235.821 303.719H229.821V309.719H235.821V303.719Z" fill="black"/>
<path d="M229.821 297.719H223.821V303.719H229.821V297.719Z" fill="black"/>
<path d="M259.821 309.719H235.821V315.719H259.821V309.719Z" fill="black"/>
<path d="M241.821 318.619V321.819H235.821V324.619H229.821H223.821V321.819H217.821V318.619H211.821V336.619H217.821V333.519H223.821V330.619H229.821H235.821V333.519H241.821V336.619H247.821V318.619H241.821Z" fill="#F48D2D"/>
<path d="M274.921 295.419H256.921V301.419H274.921V295.419Z" fill="#4AC157"/>
<path d="M250.721 295.419H232.721V301.419H250.721V295.419Z" fill="#4AC157"/>
<path d="M263.221 289.419H244.721V295.419H263.221V289.419Z" fill="#4AC157"/>
</svg>
