<svg width="652" height="401" viewBox="0 0 652 401" fill="none" xmlns="http://www.w3.org/2000/svg">
<path d="M248.121 312.6H245.121H188.121V336.6H245.121H248.121H302.121V312.6H248.121Z" fill="#E77F01"/>
<path d="M254.121 246.6H250.021H86.1207V306.6H250.021H254.121H424.321V246.6H254.121Z" fill="#E49901"/>
<path d="M428.521 342.6H425.521H257.121V374.8H425.521H428.521H569.221V342.6H428.521Z" fill="#934200"/>
<path d="M95.6208 87C96.1208 87 96.2208 87 96.4208 86.4L104.821 59.4C105.021 58.7 105.521 58.4 106.121 58.4C106.721 58.4 107.121 59 107.121 59.5999V86.2C107.121 86.7 107.521 87.1 108.021 87.1H141.721C142.221 87.1 142.621 86.7 142.621 86.2V11.9C142.621 11.3 142.221 10.9 141.721 10.9H87.0208C86.5208 10.9 86.3208 11.2 86.1208 11.9L81.5208 28.6C81.3208 29.2 80.9208 29.4 80.3208 29.4C79.8208 29.4 79.4208 29.2 79.1208 28.6L74.3208 11.9C74.1208 11.2 73.9208 10.9 73.4208 10.9H18.8208C18.3208 10.9 17.9208 11.3 17.9208 11.9V86.1C17.9208 86.6 18.3208 87 18.8208 87H52.5208C53.0208 87 53.4208 86.6 53.4208 86.1V59.5C53.4208 59 53.8208 58.2999 54.4208 58.2999C54.9208 58.2999 55.4208 58.5999 55.7208 59.2999L64.1208 86.3C64.2208 87 64.3208 87 64.9208 87H95.6208ZM188.921 51.2999C187.421 51.2999 186.221 50.1999 186.221 48.5999V11.9C186.221 11.3 185.821 10.9 185.321 10.9H151.221C150.621 10.9 150.221 11.3 150.221 11.9V49.2C150.221 70.2 167.821 87 189.021 87C210.221 87 227.821 70.2 227.821 49.2V11.9C227.821 11.3 227.421 10.9 226.821 10.9H192.721C192.221 10.9 191.821 11.3 191.821 11.9V48.5999C191.621 50.0999 190.321 51.2999 188.921 51.2999ZM235.021 86.1C235.021 86.6 235.421 87 235.921 87H310.121C310.621 87 311.121 86.6 311.121 86.1V64.8C311.121 64.3 310.621 63.9 310.121 63.9H270.921V11.8C270.921 11.3 270.421 10.9 269.921 10.9H235.921C235.421 10.9 235.021 11.3 235.021 11.8V86.1ZM305.921 10.8C305.421 10.8 305.021 11.2 305.021 11.7V48.4C305.021 48.9 305.421 49.2999 305.921 49.2999H324.921V86C324.921 86.5 325.321 86.9 325.821 86.9H359.821C360.321 86.9 360.821 86.5 360.821 86V49.4H379.821C380.321 49.4 380.721 49 380.721 48.5V11.8C380.721 11.3 380.321 10.9 379.821 10.9H305.921V10.8ZM405.421 47.7999C415.921 47.7999 424.221 39.4 424.221 29.1C424.221 18.8 415.821 10.8 405.421 10.8C395.021 10.8 386.621 18.7 386.621 29.1C386.621 39.5 395.121 47.7999 405.421 47.7999ZM388.221 50C387.721 50 387.221 50.5 387.221 51V86C387.221 86.6 387.721 87 388.221 87H422.721C423.221 87 423.721 86.6 423.721 86V51.0999C423.721 50.5999 423.221 50.0999 422.721 50.0999H388.221V50ZM467.621 62.5C467.621 61.9 467.121 61.2999 466.321 61.2999H431.721C431.021 61.2999 430.421 61.7999 430.421 62.5C430.421 78.5 448.521 87.1 469.221 87.1C495.321 87.1 509.121 77.7999 509.121 62.7999C509.121 46.7999 495.321 37.2999 469.121 37.2999C466.421 37.2999 466.221 35.4 466.221 34.7C466.221 33.3 467.621 32.2 469.221 32.2C470.821 32.2 472.121 33.0999 472.121 34.5999C472.121 35.4999 472.721 36.0999 473.621 36.0999H507.221C507.921 36.0999 508.521 35.6 508.521 34.9C508.521 19.2 490.321 10.9 469.821 10.9C449.221 10.9 430.021 21.3999 430.021 36.0999C430.021 52.2 446.221 59.7 469.521 59.7999C471.921 59.7999 473.521 61 473.521 62.7999C473.521 64.2 472.221 65.3 470.721 65.3C468.821 65.3 467.621 64.2999 467.621 62.5ZM533.821 47.7999C544.321 47.7999 552.621 39.4 552.621 29.1C552.621 18.8 544.221 10.8 533.821 10.8C523.421 10.8 515.021 18.7 515.021 29.1C515.021 39.5 523.421 47.7999 533.821 47.7999ZM516.521 50C516.021 50 515.521 50.5 515.521 51V86C515.521 86.6 516.021 87 516.521 87H551.021C551.521 87 552.021 86.6 552.021 86V51.0999C552.021 50.5999 551.521 50.0999 551.021 50.0999H516.521V50ZM601.321 50.5999C601.021 50.5999 600.721 50.7 600.521 51C599.721 52.4 598.421 53.0999 596.921 53.0999C594.521 53.0999 592.621 51.2 592.621 48.7999C592.621 46.5 594.521 44.5999 596.921 44.5999C598.421 44.5999 599.521 45.1999 600.521 46.5999C600.721 46.8999 601.021 47.0999 601.321 47.0999H634.121C635.021 47.0999 635.321 46.7999 635.121 45.7999C633.521 25.6999 616.721 10.7 596.821 10.7C575.621 10.7 558.221 27.5999 558.221 48.7999C558.221 70 575.621 87 596.821 87C608.321 87 618.921 82.2 625.921 73.9H634.321C634.821 73.9 635.221 73.4 635.221 72.9V51.7C635.221 51.2 634.921 50.7 634.421 50.7H601.321V50.5999ZM135.621 95C135.021 95 134.721 95.2 134.421 95.7L127.121 117.7C127.021 118.2 126.321 118.2 126.221 117.7L119.221 95.7C119.121 95.2 118.721 95 118.121 95H79.0208C78.4208 95 77.9208 95.2 77.8208 95.7L70.7208 117.7C70.5208 118.2 70.0208 118.2 69.8208 117.7L62.6208 95.7C62.5208 95.2 62.1208 95 61.5208 95H22.7208C21.8208 95 21.3208 95.6 21.6208 96.5L50.5208 180.3C50.7208 180.8 51.1208 181 51.7208 181H89.0208C89.6208 181 89.9208 180.8 90.2208 180.3L98.0208 158C98.2208 157.3 98.4208 157.2 98.6208 157.2C98.8208 157.2 99.0208 157.3 99.2208 158L106.921 180.3C107.021 180.8 107.521 181 108.021 181H145.421C146.021 181 146.321 180.8 146.621 180.3L175.521 96.5C175.921 95.6 175.421 95 174.421 95H135.621ZM232.421 95.7C232.321 95.2 231.821 95 231.321 95H193.821C193.221 95 192.921 95.2 192.621 95.7L163.721 179.5C163.321 180.4 163.821 181 164.821 181H203.521C204.321 181 204.721 180.5 204.921 179.8L207.121 173.1H217.721L219.921 179.8C220.121 180.5 220.521 181 221.321 181H259.921C260.821 181 261.321 180.4 261.021 179.5L232.421 95.7ZM216.121 168.2H208.821L212.521 156.9L216.121 168.2ZM267.721 180C267.721 180.6 268.221 181.1 268.821 181.1H352.621C353.221 181.1 353.821 180.6 353.821 180V155.9C353.821 155.3 353.221 154.8 352.621 154.8H308.221V96.1C308.221 95.5 307.621 95 307.021 95H268.821C268.221 95 267.721 95.5 267.721 96.1V180ZM360.221 180C360.221 180.6 360.721 181.1 361.321 181.1H445.121C445.721 181.1 446.321 180.6 446.321 180V155.9C446.321 155.3 445.721 154.8 445.121 154.8H400.721V96.1C400.721 95.5 400.121 95 399.521 95H361.321C360.721 95 360.221 95.5 360.221 96.1V180ZM455.121 95C454.421 95 453.921 95.6 453.921 96.2V180C453.921 180.6 454.421 181.1 455.121 181.1H537.021C537.721 181.1 538.221 180.7 538.221 179.9V156.4C538.221 155.7 537.721 155.3 537.021 155.3H493.621V151.1H521.621C522.321 151.1 522.721 150.7 522.721 149.9V126.3C522.721 125.5 522.321 125.1 521.621 125.1H493.621V120.9H537.021C537.721 120.9 538.221 120.5 538.221 119.7V96.2C538.221 95.3999 537.721 95 537.021 95H455.121ZM546.421 95C545.821 95 545.321 95.5 545.321 96.1V137.5C545.321 138.1 545.821 138.6 546.421 138.6H567.921V180C567.921 180.6 568.421 181.1 569.021 181.1H607.421C608.021 181.1 608.621 180.6 608.621 180V138.6H629.921C630.521 138.6 631.021 138.1 631.021 137.5V96.1C631.021 95.5 630.521 95 629.921 95H546.421Z" fill="#FBCB83"/>
<path d="M504.421 178.5H494.121V183.7H504.421V178.5Z" fill="#231E2B"/>
<path d="M514.821 173.3H504.521V178.5H514.821V173.3Z" fill="#231E2B"/>
<path d="M504.421 173.3H499.221V178.5H504.421V173.3Z" fill="#758F21"/>
<path d="M494.121 142.3H478.621V147.5H488.921V178.5H494.121V142.3Z" fill="#231E2B"/>
<path d="M519.921 168.1H514.721V173.3H519.921V168.1Z" fill="#231E2B"/>
<path d="M514.821 168.1H509.621V173.3H514.821V168.1Z" fill="#D8FB6B"/>
<path d="M514.821 163H509.621V168.2H514.821V163Z" fill="#231E2B"/>
<path d="M509.621 163H504.421V168.2H509.621V163Z" fill="#758F21"/>
<path d="M519.921 157.8H514.721V163H519.921V157.8Z" fill="#231E2B"/>
<path d="M514.821 157.8H504.521V163H514.821V157.8Z" fill="#D8FB6B"/>
<path d="M504.421 147.5H499.221V157.8H504.421V147.5Z" fill="#D8FB6B"/>
<path d="M504.421 142.3V157.8H514.721V152.6H509.521V147.4H519.921V142.2H504.421V142.3Z" fill="#231E2B"/>
<path d="M525.121 137.2H519.921V142.4H525.121V137.2Z" fill="#231E2B"/>
<path d="M519.921 137.2H504.421V142.4H519.921V137.2Z" fill="#758F21"/>
<path d="M494.121 137.2H478.621V142.4H494.121V137.2Z" fill="#758F21"/>
<path d="M478.621 137.2H473.421V142.4H478.621V137.2Z" fill="#231E2B"/>
<path d="M525.121 132H519.921V137.2H525.121V132Z" fill="#758F21"/>
<path d="M499.321 132H483.821V137.2H499.321V132Z" fill="#D8FB6B"/>
<path d="M478.621 132H473.421V137.2H478.621V132Z" fill="#758F21"/>
<path d="M473.521 121.7H468.321V137.2H473.521V121.7Z" fill="#231E2B"/>
<path d="M514.821 126.8H483.821V132H514.821V126.8Z" fill="#231E2B"/>
<path d="M530.221 121.7H525.021V137.2H530.221V121.7Z" fill="#231E2B"/>
<path d="M525.121 121.7H519.921V126.9H525.121V121.7Z" fill="#D8FB6B"/>
<path d="M514.821 132H499.321V137.2H494.121V178.5H499.321V173.3H509.621V168.1H504.421V157.8H499.221V147.5H504.421V137.2H519.921V132H525.121V126.8H519.921V121.6H514.721V132H514.821Z" fill="#B5DC3A"/>
<path d="M514.821 121.7H483.821V126.9H514.821V121.7Z" fill="#758F21"/>
<path d="M473.521 121.7V132H478.721V137.2H483.921V121.7H504.521V116.5H478.721V121.7H473.521Z" fill="#B5DC3A"/>
<path d="M525.121 116.5H519.921V121.7H525.121V116.5Z" fill="#231E2B"/>
<path d="M519.921 116.5H504.421V121.7H519.921V116.5Z" fill="#D8FB6B"/>
<path d="M478.621 116.5H473.421V121.7H478.621V116.5Z" fill="#231E2B"/>
<path d="M519.921 111.4H478.621V116.6H519.921V111.4Z" fill="#231E2B"/>
<path d="M336.921 178.5H326.621V183.7H336.921V178.5Z" fill="#231E2B"/>
<path d="M336.921 173.3H331.721V178.5H336.921V173.3Z" fill="#E2B436"/>
<path d="M326.621 147.5H321.421V178.5H326.621V147.5Z" fill="#231E2B"/>
<path d="M342.121 147.5H336.921V178.5H342.121V147.5Z" fill="#231E2B"/>
<path d="M336.921 168.1H331.721V173.3H336.921V168.1Z" fill="#CF8934"/>
<path d="M331.821 168.1H326.621V178.4H331.821V168.1Z" fill="#F5F38E"/>
<path d="M331.821 163H326.621V168.2H331.821V163Z" fill="#CF8934"/>
<path d="M336.921 157.8H331.721V168.1H336.921V157.8Z" fill="#E2B436"/>
<path d="M331.821 157.8H326.621V163H331.821V157.8Z" fill="#F5F38E"/>
<path d="M336.921 152.6H331.721V157.8H336.921V152.6Z" fill="#CF8934"/>
<path d="M331.821 152.6H326.621V157.8H331.821V152.6Z" fill="#E2B436"/>
<path d="M336.921 147.5H326.621V152.7H336.921V147.5Z" fill="#C2751D"/>
<path d="M347.221 142.3H342.021V147.5H347.221V142.3Z" fill="#231E2B"/>
<path d="M342.121 142.3H321.521V147.5H342.121V142.3Z" fill="#CF8934"/>
<path d="M321.421 142.3H316.221V147.5H321.421V142.3Z" fill="#231E2B"/>
<path d="M347.221 137.2H342.021V142.4H347.221V137.2Z" fill="#CF8934"/>
<path d="M321.421 137.2H316.221V142.4H321.421V137.2Z" fill="#CF8934"/>
<path d="M316.321 121.7H311.121V142.3H316.321V121.7Z" fill="#231E2B"/>
<path d="M331.821 132H321.521V137.2H331.821V132Z" fill="#CF8934"/>
<path d="M321.421 121.7H316.221V137.2H321.421V121.7Z" fill="#E2B436"/>
<path d="M331.821 121.7H321.521V132H331.821V121.7Z" fill="#231E2B"/>
<path d="M352.421 121.7H347.221V142.3H352.421V121.7Z" fill="#231E2B"/>
<path d="M347.221 121.7H342.021V126.9H347.221V121.7Z" fill="#F5F38E"/>
<path d="M331.821 121.7V137.2H321.521V142.4H342.121V137.2H347.321V126.9H342.121V121.7H331.821Z" fill="#E2B436"/>
<path d="M347.221 116.5H342.021V121.7H347.221V116.5Z" fill="#231E2B"/>
<path d="M342.121 116.5H331.821V121.7H342.121V116.5Z" fill="#F5F38E"/>
<path d="M331.821 116.5H321.521V121.7H331.821V116.5Z" fill="#E2B436"/>
<path d="M321.421 116.5H316.221V121.7H321.421V116.5Z" fill="#231E2B"/>
<path d="M342.121 111.4H321.521V116.6H342.121V111.4Z" fill="#231E2B"/>
<path d="M145.921 121.7V132V137.2H156.021V178.5H161.221V173.3H171.521V168.1H166.321V157.8H161.121V147.5H166.321V137.2H181.821V132H187.021V126.8H181.821V121.6H176.621H145.921V121.7Z" fill="#96E9EA"/>
<path d="M166.321 178.5H156.021V183.7H166.321V178.5Z" fill="#231E2B"/>
<path d="M166.321 173.3H161.121V178.5H166.321V173.3Z" fill="#29B8B8" fill-opacity="0.9624"/>
<path d="M156.021 142.3H140.521V147.5H150.821V178.5H156.021V142.3Z" fill="#231E2B"/>
<path d="M176.621 168.1H171.421V173.3H176.621V168.1Z" fill="#C8F5FF"/>
<path d="M176.621 152.4H166.321V163H176.621V152.4Z" fill="#C8F5FF"/>
<path d="M166.321 147.5H161.121V157.8H166.321V147.5Z" fill="#C8F5FF"/>
<path d="M181.821 137.2H166.321V142.4H181.821V137.2Z" fill="#29B8B8" fill-opacity="0.9624"/>
<path d="M156.021 137.2H140.521V142.4H156.021V137.2Z" fill="#29B8B8" fill-opacity="0.9624"/>
<path d="M186.921 132H181.721V137.2H186.921V132Z" fill="#29B8B8" fill-opacity="0.9624"/>
<path d="M140.521 132H135.321V137.2H140.521V132Z" fill="#29B8B8" fill-opacity="0.9624"/>
<path d="M169.521 126.8H152.821V132H169.521V126.8Z" fill="#231E2B"/>
<path d="M186.921 121.7H181.721V126.9H186.921V121.7Z" fill="#C8F5FF"/>
<path d="M169.521 121.7H152.821V126.9H169.521V121.7Z" fill="#29B8B8" fill-opacity="0.9624"/>
<path d="M135.321 121.7V132H140.521V137.2H147.421V121.7H166.321V116.5H140.521V121.7H135.321Z" fill="#96E9EA"/>
<path d="M181.821 116.5H166.321V121.7H181.821V116.5Z" fill="#C8F5FF"/>
<path d="M181.821 111.4H140.521V116.6H181.821V111.4Z" fill="#231E2B"/>
<path d="M140.521 116.5H135.321V142.3H140.521V116.5Z" fill="#231E2B"/>
<path d="M186.921 116.5H181.721V142.3H186.921V116.5Z" fill="#231E2B"/>
<path d="M176.621 166.5V163H166.321V168.1H171.421V173.3H166.321V178.5H176.621V174.9V173.3V166.5Z" fill="#231E2B"/>
<path d="M177.921 152.4H176.621H171.421V147.5H181.821V142.3H166.321V146.3V147.5V152.4V153.8V157.6H176.621V163H181.821V152.4H177.921Z" fill="#231E2B"/>
<path d="M260.121 342.6H92.1207V372.6H260.121V342.6Z" fill="#934200"/>
<path d="M182.121 306.6H140.121V360.6H182.121V306.6Z" fill="#96E9EA"/>
<path d="M134.121 312.6H80.1207V336.6H134.121V312.6Z" fill="#E77F01"/>
<path d="M122.121 306.6H98.1207V342.6H122.121V306.6Z" fill="#686777"/>
<path d="M98.1207 294.6V318.6V330.6H104.121V324.6H110.121V330.6H116.121V318.6H122.121V294.6H98.1207Z" fill="#B2B4BC"/>
<path d="M122.121 255.2H98.1207V294.6H122.121V255.2Z" fill="#EEEEF0"/>
<path d="M110.121 291.6H104.121V303.6H110.121V291.6Z" fill="#EEEEF0"/>
<path d="M122.121 291.6H116.121V303.6H122.121V291.6Z" fill="#EEEEF0"/>
<path d="M116.121 285.6H110.121V297.6H116.121V285.6Z" fill="#EEEEF0"/>
<path d="M122.121 234.6H98.1207V258.6H104.121V270.6H110.121V264.6H116.121V270.6H122.121V258.6V234.6Z" fill="#B2B4BC"/>
<path d="M116.121 234.6H104.121V240.6H116.121V234.6Z" fill="#6A6674"/>
<path d="M122.121 240.6H110.121V246.6H122.121V240.6Z" fill="#6A6674"/>
<path d="M104.121 240.6H98.1207V246.6H104.121V240.6Z" fill="#6A6674"/>
<path d="M224.121 306.6H200.121V342.6H224.121V306.6Z" fill="#686777"/>
<path d="M200.121 294.6V318.6V330.6H206.121V324.6H212.121V330.6H218.121V318.6H224.121V294.6H200.121Z" fill="#B2B4BC"/>
<path d="M224.121 255.2H200.121V294.6H224.121V255.2Z" fill="#EEEEF0"/>
<path d="M212.121 291.6H206.121V303.6H212.121V291.6Z" fill="#EEEEF0"/>
<path d="M224.121 291.6H218.121V303.6H224.121V291.6Z" fill="#EEEEF0"/>
<path d="M218.121 285.6H212.121V297.6H218.121V285.6Z" fill="#EEEEF0"/>
<path d="M200.121 234.6V258.6H206.121V270.6H212.121V264.6H218.121V270.6H224.121V258.6V255.6V234.6H200.121Z" fill="#B2B4BC"/>
<path d="M218.121 234.6H206.121V240.6H218.121V234.6Z" fill="#6A6674"/>
<path d="M224.121 240.6H212.121V246.6H224.121V240.6Z" fill="#6A6674"/>
<path d="M206.121 240.6H200.121V246.6H206.121V240.6Z" fill="#6A6674"/>
<path d="M350.121 306.6H308.121V360.6H350.121V306.6Z" fill="#E2B436"/>
<path d="M422.221 312.6H356.121V336.6H422.221V312.6Z" fill="#E77F01"/>
<path d="M518.221 306.6H476.221V360.6H518.221V306.6Z" fill="#B5DC3A"/>
<path d="M578.221 246.6H422.221V306.6H578.221V246.6Z" fill="#E49901"/>
<path d="M470.221 312.6H416.221V336.6H470.221V312.6Z" fill="#E77F01"/>
<path d="M578.221 312.6H524.221V336.6H578.221V312.6Z" fill="#E77F01"/>
<path d="M80.1207 294.6H74.1207V306.6H80.1207V294.6Z" fill="#B2B4BC"/>
<path d="M80.1207 282.6H74.1207V288.6H80.1207V282.6Z" fill="#B2B4BC"/>
<path d="M80.1207 288.6H74.1207V294.6H80.1207V288.6Z" fill="#EEEEF0"/>
<path d="M194.121 270.6H128.121V276.6H194.121V270.6Z" fill="#AC5603"/>
<path d="M170.121 294.6H152.121V300.6H170.121V294.6Z" fill="#C8F5FF"/>
<path d="M176.121 300.6H170.121V312.6H176.121V300.6Z" fill="#C8F5FF"/>
<path d="M182.121 324.6H176.121V354.6H182.121V324.6Z" fill="#31B9B6"/>
<path d="M152.121 300.6H146.121V312.6H152.121V300.6Z" fill="#C8F5FF"/>
<path d="M176.121 348.6H170.121V354.6H176.121V348.6Z" fill="#31B9B6"/>
<path d="M164.121 342.6H158.121V348.6H164.121V342.6Z" fill="#C8F5FF"/>
<path d="M86.1207 324.6H80.1207V336.6H86.1207V324.6Z" fill="#E49802"/>
<path d="M176.121 354.6H158.121V360.6H176.121V354.6Z" fill="#31B9B6"/>
<path d="M92.1207 258.6H86.1207V270.6H92.1207V258.6Z" fill="#F4CC7A"/>
<path d="M236.121 258.6H230.121V270.6H236.121V258.6Z" fill="#F4CC7A"/>
<path d="M92.1207 276.6H86.1207V282.6H92.1207V276.6Z" fill="#F4CC7A"/>
<path d="M236.121 276.6H230.121V282.6H236.121V276.6Z" fill="#F4CC7A"/>
<path d="M242.121 258.3H236.121V264.3H242.121V258.3Z" fill="#F4CC7A"/>
<path d="M134.121 318.6H128.121V324.6H134.121V318.6Z" fill="#AC5603"/>
<path d="M92.1207 318.6H86.1207V324.6H92.1207V318.6Z" fill="#AC5603"/>
<path d="M134.121 330.6H128.121V336.6H134.121V330.6Z" fill="#AC5603"/>
<path d="M92.1207 330.6H86.1207V336.6H92.1207V330.6Z" fill="#AC5603"/>
<path d="M194.121 318.6H188.121V324.6H194.121V318.6Z" fill="#AC5603"/>
<path d="M290.121 306.6H266.121V342.6H290.121V306.6Z" fill="#686777"/>
<path d="M266.121 294.6V316.9V318.6V330.6H273.421V324.6H278.121V330.6H284.121V318.6H290.121V294.6H266.121Z" fill="#B2B4BC"/>
<path d="M290.121 255.2H266.121V294.6H290.121V255.2Z" fill="#EEEEF0"/>
<path d="M278.121 291.6H272.121V303.6H278.121V291.6Z" fill="#EEEEF0"/>
<path d="M290.121 291.6H284.121V303.6H290.121V291.6Z" fill="#EEEEF0"/>
<path d="M284.121 285.6H278.121V297.6H284.121V285.6Z" fill="#EEEEF0"/>
<path d="M266.121 234.6V258.6H272.121V270.6H278.121V264.6H284.121V270.6H290.121V258.6V255.6V234.6H266.121Z" fill="#B2B4BC"/>
<path d="M284.121 234.6H272.121V240.6H284.121V234.6Z" fill="#6A6674"/>
<path d="M290.121 240.6H278.121V246.6H290.121V240.6Z" fill="#6A6674"/>
<path d="M272.121 240.6H266.121V246.6H272.121V240.6Z" fill="#6A6674"/>
<path d="M392.121 306.6H368.121V342.6H392.121V306.6Z" fill="#686777"/>
<path d="M392.121 294.6H368.121V318.6V330.6H374.121V324.6H378.921V330.6H386.121V318.6H392.121V294.6Z" fill="#B2B4BC"/>
<path d="M392.121 255.2H368.121V294.6H392.121V255.2Z" fill="#EEEEF0"/>
<path d="M380.121 291.6H374.121V303.6H380.121V291.6Z" fill="#EEEEF0"/>
<path d="M392.121 291.6H386.121V303.6H392.121V291.6Z" fill="#EEEEF0"/>
<path d="M386.121 285.6H380.121V297.6H386.121V285.6Z" fill="#EEEEF0"/>
<path d="M368.121 234.6V258.6H374.121V270.6H380.121V264.6H386.121V270.6H392.121V258.6V255.6V234.6H368.121Z" fill="#B2B4BC"/>
<path d="M386.121 234.6H374.121V240.6H386.121V234.6Z" fill="#6A6674"/>
<path d="M392.121 240.6H380.121V246.6H392.121V240.6Z" fill="#6A6674"/>
<path d="M374.121 240.6H368.121V246.6H374.121V240.6Z" fill="#6A6674"/>
<path d="M194.121 330.6H188.121V336.6H194.121V330.6Z" fill="#AC5603"/>
<path d="M182.121 264.6H128.121V270.6H182.121V264.6Z" fill="#F4CC7A"/>
<path d="M170.121 258.6H128.121V264.6H170.121V258.6Z" fill="#F4CC7A"/>
<path d="M164.121 276.6H128.121V282.6H164.121V276.6Z" fill="#F4CC7A"/>
<path d="M362.121 270.6H296.121V276.6H362.121V270.6Z" fill="#AC5603"/>
<path d="M338.121 294.6H320.121V300.6H338.121V294.6Z" fill="#F5F38E"/>
<path d="M344.121 300.6H338.121V312.6H344.121V300.6Z" fill="#F5F38E"/>
<path d="M350.121 324.6H344.121V354.6H350.121V324.6Z" fill="#C2751D"/>
<path d="M320.121 300.6H314.121V312.6H320.121V300.6Z" fill="#F5F38E"/>
<path d="M344.121 348.6H338.121V354.6H344.121V348.6Z" fill="#C2751D"/>
<path d="M332.121 342.6H326.121V348.6H332.121V342.6Z" fill="#F5F38E"/>
<path d="M344.121 354.6H326.121V360.6H344.121V354.6Z" fill="#C2751D"/>
<path d="M458.221 306.6H434.221V342.6H458.221V306.6Z" fill="#686777"/>
<path d="M434.221 294.6V318.6V330.6H440.221V324.6H446.221V330.6H452.221V318.6H458.221V294.6H434.221Z" fill="#B2B4BC"/>
<path d="M458.221 255.2H434.221V294.6H458.221V255.2Z" fill="#EEEEF0"/>
<path d="M446.221 291.6H440.221V303.6H446.221V291.6Z" fill="#EEEEF0"/>
<path d="M458.221 291.6H452.221V303.6H458.221V291.6Z" fill="#EEEEF0"/>
<path d="M452.221 285.6H446.221V297.6H452.221V285.6Z" fill="#EEEEF0"/>
<path d="M434.221 234.6V258.6H440.221V270.6H446.221V264.6H452.221V270.6H458.221V258.6V255.6V234.6H434.221Z" fill="#B2B4BC"/>
<path d="M452.221 234.6H440.221V240.6H452.221V234.6Z" fill="#6A6674"/>
<path d="M458.221 240.6H446.221V246.6H458.221V240.6Z" fill="#6A6674"/>
<path d="M440.221 240.6H434.221V246.6H440.221V240.6Z" fill="#6A6674"/>
<path d="M410.221 258.3H401.121V258.6H398.121V270.6H404.121V264.3H410.221V258.3Z" fill="#F4CC7A"/>
<path d="M560.221 306.6H536.221V342.6H560.221V306.6Z" fill="#686777"/>
<path d="M536.221 294.6V318.6V330.6H542.221V324.6H548.221V330.6H554.221V318.6H560.221V294.6H536.221Z" fill="#B2B4BC"/>
<path d="M560.221 255.2H536.221V294.6H560.221V255.2Z" fill="#EEEEF0"/>
<path d="M548.221 291.6H542.221V303.6H548.221V291.6Z" fill="#EEEEF0"/>
<path d="M560.221 291.6H554.221V303.6H560.221V291.6Z" fill="#EEEEF0"/>
<path d="M554.221 285.6H548.221V297.6H554.221V285.6Z" fill="#EEEEF0"/>
<path d="M536.221 234.6V258.6H542.221V270.6H548.221V264.6H554.221V270.6H560.221V258.6V255.6V234.6H536.221Z" fill="#B2B4BC"/>
<path d="M554.221 234.6H542.221V240.6H554.221V234.6Z" fill="#6A6674"/>
<path d="M560.221 240.6H548.221V246.6H560.221V240.6Z" fill="#6A6674"/>
<path d="M542.221 240.6H536.221V246.6H542.221V240.6Z" fill="#6A6674"/>
<path d="M404.121 276.6H398.121V282.6H404.121V276.6Z" fill="#F4CC7A"/>
<path d="M302.121 318.6H296.121V324.6H302.121V318.6Z" fill="#AC5603"/>
<path d="M302.121 330.6H296.121V336.6H302.121V330.6Z" fill="#AC5603"/>
<path d="M404.121 318.6H398.121V324.6H404.121V318.6Z" fill="#AC5603"/>
<path d="M362.121 318.6H356.121V324.6H362.121V318.6Z" fill="#AC5603"/>
<path d="M404.121 330.6H398.121V336.6H404.121V330.6Z" fill="#AC5603"/>
<path d="M362.121 330.6H356.121V336.6H362.121V330.6Z" fill="#AC5603"/>
<path d="M350.121 264.6H296.121V270.6H350.121V264.6Z" fill="#F4CC7A"/>
<path d="M338.121 258.6H296.121V264.6H338.121V258.6Z" fill="#F4CC7A"/>
<path d="M332.121 276.6H296.121V282.6H332.121V276.6Z" fill="#F4CC7A"/>
<path d="M530.221 270.6H464.221V276.6H530.221V270.6Z" fill="#AC5603"/>
<path d="M506.221 294.6H488.221V300.6H506.221V294.6Z" fill="#D8FB6B"/>
<path d="M512.221 300.6H506.221V312.6H512.221V300.6Z" fill="#D8FB6B"/>
<path d="M518.221 324.6H512.221V354.6H518.221V324.6Z" fill="#758F21"/>
<path d="M488.221 300.6H482.221V312.6H488.221V300.6Z" fill="#D8FB6B"/>
<path d="M512.221 348.6H506.221V354.6H512.221V348.6Z" fill="#758F21"/>
<path d="M500.221 342.6H494.221V348.6H500.221V342.6Z" fill="#D8FB6B"/>
<path d="M260.121 258.6H254.121V270.6H260.121V258.6Z" fill="#F4CC7A"/>
<path d="M512.221 354.6H494.221V360.6H512.221V354.6Z" fill="#758F21"/>
<path d="M260.121 276.6H254.121V282.6H260.121V276.6Z" fill="#F4CC7A"/>
<path d="M428.221 258.6H422.221V270.6H428.221V258.6Z" fill="#F4CC7A"/>
<path d="M572.221 258.6H566.221V270.6H572.221V258.6Z" fill="#F4CC7A"/>
<path d="M428.221 276.6H422.221V282.6H428.221V276.6Z" fill="#F4CC7A"/>
<path d="M572.221 276.6H566.221V282.6H572.221V276.6Z" fill="#F4CC7A"/>
<path d="M470.221 318.6H464.221V324.6H470.221V318.6Z" fill="#AC5603"/>
<path d="M470.221 330.6H464.221V336.6H470.221V330.6Z" fill="#AC5603"/>
<path d="M254.121 318.6H251.021H230.121V324.6H251.021H254.121H260.121V318.6H254.121Z" fill="#AC5603"/>
<path d="M251.021 330.6H230.121V336.6H251.021H254.121H260.121V330.6H254.121H251.021Z" fill="#AC5603"/>
<path d="M572.221 318.6H566.221V324.6H572.221V318.6Z" fill="#AC5603"/>
<path d="M530.221 318.6H524.221V324.6H530.221V318.6Z" fill="#AC5603"/>
<path d="M572.221 330.6H566.221V336.6H572.221V330.6Z" fill="#AC5603"/>
<path d="M530.221 330.6H524.221V336.6H530.221V330.6Z" fill="#AC5603"/>
<path d="M518.221 264.6H464.221V270.6H518.221V264.6Z" fill="#F4CC7A"/>
<path d="M506.221 258.6H464.221V264.6H506.221V258.6Z" fill="#F4CC7A"/>
<path d="M500.221 276.6H464.221V282.6H500.221V276.6Z" fill="#F4CC7A"/>
<path d="M584.221 294.6H578.221V306.6H584.221V294.6Z" fill="#B2B4BC"/>
<path d="M584.221 282.6H578.221V288.6H584.221V282.6Z" fill="#B2B4BC"/>
<path d="M584.221 288.6H578.221V294.6H584.221V288.6Z" fill="#EEEEF0"/>
<path d="M578.221 324.6H572.221V336.6H578.221V324.6Z" fill="#E49802"/>
<path d="M122.121 342.6H89.1207V348.6H122.121V342.6Z" fill="#231E2B"/>
<path d="M98.1207 336.6H74.1207V342.6H98.1207V336.6Z" fill="#231E2B"/>
<path d="M86.1207 276.6H74.1207V282.6H86.1207V276.6Z" fill="#231E2B"/>
<path d="M98.1207 240.6H86.1207V246.6H98.1207V240.6Z" fill="#231E2B"/>
<path d="M98.1207 252.6H86.1207V258.6H98.1207V252.6Z" fill="#AC5603"/>
<path d="M98.1207 270.6H86.1207V276.6H98.1207V270.6Z" fill="#AC5603"/>
<path d="M260.121 270.6H224.121V276.6H260.121V270.6Z" fill="#AC5603"/>
<path d="M104.121 234.6H92.1207V240.6H104.121V234.6Z" fill="#231E2B"/>
<path d="M116.121 228.6H104.121V234.6H116.121V228.6Z" fill="#231E2B"/>
<path d="M128.121 234.6H116.121V240.6H128.121V234.6Z" fill="#231E2B"/>
<path d="M206.121 234.6H194.121V240.6H206.121V234.6Z" fill="#231E2B"/>
<path d="M218.121 228.6H206.121V234.6H218.121V228.6Z" fill="#231E2B"/>
<path d="M230.121 234.6H218.121V240.6H230.121V234.6Z" fill="#231E2B"/>
<path d="M260.121 252.6H224.121V258.6H260.121V252.6Z" fill="#AC5603"/>
<path d="M200.121 240.6H122.121V246.6H200.121V240.6Z" fill="#231E2B"/>
<path d="M200.121 252.6H122.121V258.6H200.121V252.6Z" fill="#AC5603"/>
<path d="M200.121 336.6H182.121V342.6H200.121V336.6Z" fill="#231E2B"/>
<path d="M260.121 306.6H224.121V312.6H260.121V306.6Z" fill="#231E2B"/>
<path d="M176.121 360.6H146.121V366.6H176.121V360.6Z" fill="#231E2B"/>
<path d="M146.121 354.6H140.121V360.6H146.121V354.6Z" fill="#231E2B"/>
<path d="M182.121 354.6H176.121V360.6H182.121V354.6Z" fill="#231E2B"/>
<path d="M146.121 300.6H140.121V306.6H146.121V300.6Z" fill="#231E2B"/>
<path d="M152.121 312.6H146.121V318.6H152.121V312.6Z" fill="#231E2B"/>
<path d="M176.121 312.6H170.121V318.6H176.121V312.6Z" fill="#231E2B"/>
<path d="M164.121 324.6H158.121V342.6H164.121V324.6Z" fill="#231E2B"/>
<path d="M182.121 300.6H176.121V306.6H182.121V300.6Z" fill="#231E2B"/>
<path d="M140.121 336.6H122.121V342.6H140.121V336.6Z" fill="#231E2B"/>
<path d="M170.121 300.6H152.121V306.6H170.121V300.6Z" fill="#231E2B"/>
<path d="M200.121 306.6H182.121V309.6V312.6V354.6H188.121V312.6H200.121V306.6Z" fill="#231E2B"/>
<path d="M80.1207 324.6H74.1207V342.6H80.1207V324.6Z" fill="#231E2B"/>
<path d="M74.1207 282.6H68.1207V306.6H74.1207V282.6Z" fill="#231E2B"/>
<path d="M584.221 336.6H560.221V342.6H584.221V336.6Z" fill="#231E2B"/>
<path d="M584.221 306.6H560.221V312.6H584.221V306.6Z" fill="#231E2B"/>
<path d="M584.221 276.6H572.221V282.6H584.221V276.6Z" fill="#231E2B"/>
<path d="M584.221 324.6H578.221V342.6H584.221V324.6Z" fill="#231E2B"/>
<path d="M590.221 282.6H584.221V306.6H590.221V282.6Z" fill="#231E2B"/>
<path d="M98.1207 306.6H74.1207V312.6H98.1207V306.6Z" fill="#231E2B"/>
<path d="M122.121 306.6V312.6H134.121V354.6H140.121V312.6V309.6V306.6H122.121Z" fill="#231E2B"/>
<path d="M86.1207 246.6H80.1207V324.6H86.1207V246.6Z" fill="#231E2B"/>
<path d="M290.121 342.6H260.121V348.6H290.121V342.6Z" fill="#231E2B"/>
<path d="M254.121 240.6H250.721H224.121V246.6H250.721H254.121H266.121V240.6H254.121Z" fill="#231E2B"/>
<path d="M428.221 270.6H392.121V276.6H428.221V270.6Z" fill="#AC5603"/>
<path d="M272.121 234.6H260.121V240.6H272.121V234.6Z" fill="#231E2B"/>
<path d="M284.121 228.6H272.121V234.6H284.121V228.6Z" fill="#231E2B"/>
<path d="M296.121 234.6H284.121V240.6H296.121V234.6Z" fill="#231E2B"/>
<path d="M374.121 234.6H362.121V240.6H374.121V234.6Z" fill="#231E2B"/>
<path d="M386.121 228.6H374.121V234.6H386.121V228.6Z" fill="#231E2B"/>
<path d="M398.121 234.6H386.121V240.6H398.121V234.6Z" fill="#231E2B"/>
<path d="M434.121 240.6H392.121V246.6H434.121V240.6Z" fill="#231E2B"/>
<path d="M434.121 252.6H392.121V258.6H434.121V252.6Z" fill="#AC5603"/>
<path d="M368.121 240.6H290.121V246.6H368.121V240.6Z" fill="#231E2B"/>
<path d="M368.121 252.6H290.121V258.6H368.121V252.6Z" fill="#AC5603"/>
<path d="M368.121 336.6H350.121V342.6H368.121V336.6Z" fill="#231E2B"/>
<path d="M428.221 306.6H392.121V312.6H428.221V306.6Z" fill="#231E2B"/>
<path d="M344.121 360.6H314.121V366.6H344.121V360.6Z" fill="#231E2B"/>
<path d="M314.121 354.6H308.121V360.6H314.121V354.6Z" fill="#231E2B"/>
<path d="M350.121 354.6H344.121V360.6H350.121V354.6Z" fill="#231E2B"/>
<path d="M314.121 300.6H308.121V306.6H314.121V300.6Z" fill="#231E2B"/>
<path d="M320.121 312.6H314.121V318.6H320.121V312.6Z" fill="#231E2B"/>
<path d="M344.121 312.6H338.121V318.6H344.121V312.6Z" fill="#231E2B"/>
<path d="M332.121 324.6H326.121V342.6H332.121V324.6Z" fill="#231E2B"/>
<path d="M350.121 300.6H344.121V306.6H350.121V300.6Z" fill="#231E2B"/>
<path d="M308.121 336.6H290.121V342.6H308.121V336.6Z" fill="#231E2B"/>
<path d="M338.121 300.6H320.121V306.6H338.121V300.6Z" fill="#231E2B"/>
<path d="M290.121 312.6H302.121V354.6H308.121V312.6V309.6V306.6H290.121V312.6Z" fill="#231E2B"/>
<path d="M368.121 306.6H350.121V309.6V312.6V354.6H356.121V312.6H368.121V306.6Z" fill="#231E2B"/>
<path d="M458.221 342.6H428.221V348.6H458.221V342.6Z" fill="#231E2B"/>
<path d="M398.121 342.6H367.821V348.6H398.121V342.6Z" fill="#231E2B"/>
<path d="M434.221 336.6H407.221H392.121V342.6H410.221H434.221V336.6Z" fill="#231E2B"/>
<path d="M578.221 270.6H560.221V276.6H578.221V270.6Z" fill="#AC5603"/>
<path d="M440.221 234.6H428.221V240.6H440.221V234.6Z" fill="#231E2B"/>
<path d="M452.221 228.6H440.221V234.6H452.221V228.6Z" fill="#231E2B"/>
<path d="M464.221 234.6H452.221V240.6H464.221V234.6Z" fill="#231E2B"/>
<path d="M542.221 234.6H530.221V240.6H542.221V234.6Z" fill="#231E2B"/>
<path d="M554.221 228.6H542.221V234.6H554.221V228.6Z" fill="#231E2B"/>
<path d="M566.221 234.6H554.221V240.6H566.221V234.6Z" fill="#231E2B"/>
<path d="M572.221 240.6H560.221V246.6H572.221V240.6Z" fill="#231E2B"/>
<path d="M578.221 252.6H560.221V258.6H578.221V252.6Z" fill="#AC5603"/>
<path d="M536.221 240.6H458.221V246.6H536.221V240.6Z" fill="#231E2B"/>
<path d="M536.221 252.6H458.221V258.6H536.221V252.6Z" fill="#AC5603"/>
<path d="M536.221 336.6H518.221V342.6H536.221V336.6Z" fill="#231E2B"/>
<path d="M578.221 306.6H560.221V312.6H578.221V306.6Z" fill="#231E2B"/>
<path d="M578.221 336.6H560.221V342.6H578.221V336.6Z" fill="#231E2B"/>
<path d="M512.221 360.6H482.221V366.6H512.221V360.6Z" fill="#231E2B"/>
<path d="M482.221 354.6H476.221V360.6H482.221V354.6Z" fill="#231E2B"/>
<path d="M518.221 354.6H512.221V360.6H518.221V354.6Z" fill="#231E2B"/>
<path d="M482.221 300.6H476.221V306.6H482.221V300.6Z" fill="#231E2B"/>
<path d="M488.221 312.6H482.221V318.6H488.221V312.6Z" fill="#231E2B"/>
<path d="M512.221 312.6H506.221V318.6H512.221V312.6Z" fill="#231E2B"/>
<path d="M500.221 324.6H494.221V342.6H500.221V324.6Z" fill="#231E2B"/>
<path d="M518.221 300.6H512.221V306.6H518.221V300.6Z" fill="#231E2B"/>
<path d="M476.221 336.6H458.221V342.6H476.221V336.6Z" fill="#231E2B"/>
<path d="M506.221 300.6H488.221V306.6H506.221V300.6Z" fill="#231E2B"/>
<path d="M572.221 342.6H530.221V348.6H572.221V342.6Z" fill="#231E2B"/>
<path d="M458.221 312.6H470.221V354.6H476.221V312.6V309.6V306.6H458.221V312.6Z" fill="#231E2B"/>
<path d="M536.221 306.6H518.221V309.6V312.6V354.6H524.221V312.6H536.221V306.6Z" fill="#231E2B"/>
<path d="M572.221 372.6V342.6H566.221V372.6H536.221V341H530.221V372.6H464.221V341H458.221V372.6H368.121V342.6H362.121V372.6H296.121V342.6H290.121V372.6H200.121V339.6H194.121V372.6H128.121V342.6H122.121V372.6H92.1208V341.4H86.1208V372.6H55.8208V378.6H601.821V372.6H572.221Z" fill="#231E2B"/>
<path d="M122.121 348.6H92.1207V354.6H122.121V348.6Z" fill="#693103"/>
<path d="M566.221 348.6H536.221V354.6H566.221V348.6Z" fill="#693103"/>
<path d="M253.821 348.6H200.121V354.6H253.821V348.6Z" fill="#693103"/>
<path d="M110.121 354.6H92.1207V360.6H110.121V354.6Z" fill="#693103"/>
<path d="M428.121 342.7H398.121V348.6H368.121V354.6H421.821V351.3H428.121V342.7Z" fill="#693103"/>
<path d="M554.221 354.6H536.221V360.6H554.221V354.6Z" fill="#693103"/>
<path d="M134.121 342.6H127.821V354.6H134.121V342.6Z" fill="#693103"/>
<path d="M194.421 342.6H188.121V348.6H194.421V342.6Z" fill="#693103"/>
<path d="M140.321 354.6H134.021V360.6H140.321V354.6Z" fill="#693103"/>
<path d="M302.421 342.6H296.121V354.6H302.421V342.6Z" fill="#693103"/>
<path d="M470.621 342.6H464.321V354.6H470.621V342.6Z" fill="#693103"/>
<path d="M362.121 342.6H355.821V348.6H362.121V342.6Z" fill="#693103"/>
<path d="M530.421 342.6H524.121V348.6H530.421V342.6Z" fill="#693103"/>
<path d="M308.621 354.6H302.321V360.6H308.621V354.6Z" fill="#693103"/>
<path d="M476.921 354.6H470.621V360.6H476.921V354.6Z" fill="#693103"/>
<path d="M98.1207 246.6H92.1207V336.6H98.1207V246.6Z" fill="#934200"/>
<path d="M128.121 246.6H122.121V336.6H128.121V246.6Z" fill="#934200"/>
<path d="M200.121 246.6H194.121V336.6H200.121V246.6Z" fill="#934200"/>
<path d="M230.121 246.6H224.121V336.6H230.121V246.6Z" fill="#934200"/>
<path d="M266.121 246.6H260.121V336.6H266.121V246.6Z" fill="#934200"/>
<path d="M296.121 246.6H290.121V336.6H296.121V246.6Z" fill="#934200"/>
<path d="M368.121 246.6H362.121V336.6H368.121V246.6Z" fill="#934200"/>
<path d="M398.121 246.6H392.121V336.6H398.121V246.6Z" fill="#934200"/>
<path d="M434.221 246.6H428.221V336.6H434.221V246.6Z" fill="#934200"/>
<path d="M464.221 246.6H458.221V336.6H464.221V246.6Z" fill="#934200"/>
<path d="M536.221 246.6H530.221V336.6H536.221V246.6Z" fill="#934200"/>
<path d="M566.221 246.6H560.221V336.6H566.221V246.6Z" fill="#934200"/>
<path d="M578.221 246.6H572.221V324.6H578.221V246.6Z" fill="#231E2B"/>
<path d="M124.521 108.6H119.121V114H124.521V108.6Z" fill="#231E2B"/>
<path d="M204.721 139.5H199.321V144.9H204.721V139.5Z" fill="#231E2B"/>
<path d="M199.221 144.9H193.821V150.3H199.221V144.9Z" fill="#231E2B"/>
<path d="M539.121 96.1H533.721V101.5H539.121V96.1Z" fill="#231E2B"/>
<path d="M372.021 182H367.321V186.7H372.021V182Z" fill="#231E2B"/>
<path d="M376.721 177.3H372.021V182H376.721V177.3Z" fill="#231E2B"/>
<path d="M372.021 177.3H367.321V182H372.021V177.3Z" fill="#E2B436"/>
<path d="M367.321 177.3H362.621V182H367.321V177.3Z" fill="#231E2B"/>
<path d="M381.521 172.6H376.821V177.3H381.521V172.6Z" fill="#231E2B"/>
<path d="M376.721 172.6H372.021V177.3H376.721V172.6Z" fill="#E2B436"/>
<path d="M367.321 172.6H362.621V177.3H367.321V172.6Z" fill="#E2B436"/>
<path d="M362.621 172.6H357.921V177.3H362.621V172.6Z" fill="#231E2B"/>
<path d="M376.721 167.9H372.021V172.6H376.721V167.9Z" fill="#231E2B"/>
<path d="M372.021 167.9H367.321V172.6H372.021V167.9Z" fill="#E2B436"/>
<path d="M372.021 172.6H367.321V177.3H372.021V172.6Z" fill="#F5F38E"/>
<path d="M367.321 167.9H362.621V172.6H367.321V167.9Z" fill="#231E2B"/>
<path d="M372.021 163.2H367.321V167.9H372.021V163.2Z" fill="#231E2B"/>
<path d="M354.321 188.1H350.721V198.9H354.321V188.1Z" fill="#231E2B"/>
<path d="M347.121 191.7V195.3H357.921V191.7H347.121Z" fill="#231E2B"/>
<path d="M552.621 114.1H548.421V126.6H552.621V114.1Z" fill="#231E2B"/>
<path d="M544.221 118.2V122.4H556.721V118.2H544.221Z" fill="#231E2B"/>
<path d="M229.821 342.6H199.821V348.6H229.821V342.6Z" fill="#231E2B"/>
<path d="M260.121 341.4H229.821V348.6H260.121V341.4Z" fill="#693103"/>
<path d="M242.121 336.6H239.121H224.121V342.6H239.121H242.121H266.121V336.6H242.121Z" fill="#231E2B"/>
</svg>
