<svg width="651" height="401" viewBox="0 0 651 401" fill="none" xmlns="http://www.w3.org/2000/svg">
<path d="M94.711 87.0312C95.2337 87.0312 95.3383 87.0312 95.5474 86.4039L103.912 59.4291C104.121 58.6972 104.644 58.3836 105.166 58.3836C105.794 58.3836 106.212 59.0109 106.212 59.5337V86.0903C106.212 86.613 106.63 87.0312 107.153 87.0312H140.819C141.342 87.0312 141.76 86.613 141.76 86.0903V11.8573C141.76 11.2299 141.342 10.8117 140.819 10.8117H86.1376C85.6148 10.8117 85.4057 11.1254 85.1966 11.8573L80.5962 28.5858C80.3871 29.2131 79.9689 29.4223 79.4461 29.4223C78.9234 29.4223 78.5052 29.2131 78.2961 28.5858L73.4866 11.8573C73.2775 11.1254 73.0684 10.8117 72.5456 10.8117H17.8641C17.3413 10.8117 16.9231 11.2299 16.9231 11.8573V86.0903C16.9231 86.613 17.3413 87.0312 17.8641 87.0312H51.5304C52.0531 87.0312 52.4713 86.613 52.4713 86.0903V59.5337C52.4713 59.0109 52.8896 58.3836 53.5169 58.3836C54.0396 58.3836 54.5624 58.6972 54.7715 59.4291L63.1358 86.4039C63.3449 87.0312 63.4495 87.0312 63.9722 87.0312H94.711ZM187.958 51.2739C186.494 51.2739 185.24 50.1239 185.24 48.5555V11.8573C185.24 11.2299 184.821 10.8117 184.299 10.8117H150.214C149.587 10.8117 149.169 11.2299 149.169 11.8573V49.1829C149.169 70.1981 166.734 87.0312 187.958 87.0312C209.182 87.0312 226.747 70.1981 226.747 49.1829V11.8573C226.747 11.2299 226.329 10.8117 225.702 10.8117H191.617C191.095 10.8117 190.676 11.2299 190.676 11.8573V48.5555C190.676 50.1239 189.422 51.2739 187.958 51.2739ZM234.094 86.0903C234.094 86.613 234.512 87.0312 235.035 87.0312H309.268C309.791 87.0312 310.313 86.613 310.313 86.0903V64.7613C310.313 64.2386 309.791 63.8204 309.268 63.8204H269.956V11.7527C269.956 11.2299 269.433 10.8117 268.91 10.8117H235.035C234.512 10.8117 234.094 11.2299 234.094 11.7527V86.0903ZM304.963 10.8117C304.44 10.8117 304.022 11.2299 304.022 11.7527V48.451C304.022 48.9738 304.44 49.392 304.963 49.392H323.992V86.0903C323.992 86.613 324.41 87.0312 324.933 87.0312H358.913C359.436 87.0312 359.958 86.613 359.958 86.0903V49.392H378.987C379.51 49.392 379.928 48.9738 379.928 48.451V11.7527C379.928 11.2299 379.51 10.8117 378.987 10.8117H304.963ZM404.537 47.8237C414.992 47.8237 423.356 39.4594 423.356 29.1086C423.356 18.7578 414.992 10.8117 404.537 10.8117C394.186 10.8117 385.717 18.7578 385.717 29.1086C385.717 39.4594 394.186 47.8237 404.537 47.8237ZM387.285 50.0193C386.762 50.0193 386.24 50.5421 386.24 51.0648V85.9857C386.24 86.613 386.762 87.0312 387.285 87.0312H421.788C422.311 87.0312 422.833 86.613 422.833 85.9857V51.0648C422.833 50.5421 422.311 50.0193 421.788 50.0193H387.285ZM466.738 62.4612C466.738 61.8338 466.215 61.3111 465.483 61.3111H430.876C430.144 61.3111 429.621 61.8338 429.621 62.4612C429.621 78.4579 447.709 87.0312 468.411 87.0312C494.549 87.0312 508.35 77.726 508.35 62.7748C508.35 46.7781 494.549 37.2638 468.306 37.2638C465.588 37.2638 465.379 35.3818 465.379 34.6499C465.379 33.2907 466.738 32.1406 468.411 32.1406C469.979 32.1406 471.338 33.0816 471.338 34.5454C471.338 35.4864 471.965 36.0091 472.802 36.0091H506.364C507.095 36.0091 507.618 35.4864 507.618 34.859C507.618 19.176 489.426 10.8117 468.933 10.8117C448.336 10.8117 429.098 21.2671 429.098 36.0091C429.098 52.1104 445.304 59.6382 468.62 59.7428C471.024 59.7428 472.593 60.8929 472.593 62.7748C472.593 64.134 471.338 65.2841 469.77 65.2841C467.888 65.2841 466.738 64.3431 466.738 62.4612ZM532.88 47.8237C543.335 47.8237 551.7 39.4594 551.7 29.1086C551.7 18.7578 543.335 10.8117 532.88 10.8117C522.529 10.8117 514.06 18.7578 514.06 29.1086C514.06 39.4594 522.529 47.8237 532.88 47.8237ZM515.629 50.0193C515.106 50.0193 514.583 50.5421 514.583 51.0648V85.9857C514.583 86.613 515.106 87.0312 515.629 87.0312H550.131C550.654 87.0312 551.177 86.613 551.177 85.9857V51.0648C551.177 50.5421 550.654 50.0193 550.131 50.0193H515.629ZM600.413 50.6466C600.1 50.6466 599.786 50.7512 599.577 51.0648C598.741 52.424 597.486 53.1559 596.022 53.1559C593.617 53.1559 591.736 51.2739 591.736 48.8692C591.736 46.569 593.617 44.6871 596.022 44.6871C597.486 44.6871 598.636 45.3144 599.577 46.6736C599.786 46.9872 600.1 47.1964 600.413 47.1964H633.243C634.184 47.1964 634.393 46.8827 634.289 45.9417C632.721 25.8674 615.887 10.8117 596.022 10.8117C574.798 10.8117 557.442 27.7494 557.442 48.8692C557.442 70.0936 574.798 87.0312 596.022 87.0312C607.523 87.0312 618.083 82.2218 625.088 73.9621H633.452C633.975 73.9621 634.393 73.4393 634.393 72.9165V51.6922C634.393 51.1694 634.08 50.6466 633.557 50.6466H600.413ZM134.706 94.9977C134.116 94.9977 133.762 95.2338 133.526 95.7058L126.209 117.657C126.091 118.129 125.383 118.129 125.265 117.657L118.302 95.7058C118.184 95.2338 117.83 94.9977 117.24 94.9977H78.0588C77.4687 94.9977 76.9966 95.2338 76.8786 95.7058L69.7976 117.657C69.5616 118.129 69.0896 118.129 68.8535 117.657L61.6546 95.7058C61.5365 95.2338 61.1825 94.9977 60.5924 94.9977H21.7652C20.8211 94.9977 20.349 95.5878 20.7031 96.532L49.617 180.323C49.853 180.795 50.207 181.031 50.7971 181.031H88.0901C88.6802 181.031 89.0342 180.795 89.2703 180.323L97.0593 158.018C97.2953 157.31 97.4133 157.192 97.6494 157.192C97.8854 157.192 98.0034 157.31 98.2394 158.018L105.91 180.323C106.028 180.795 106.501 181.031 106.973 181.031H144.384C144.974 181.031 145.328 180.795 145.564 180.323L174.478 96.532C174.832 95.5878 174.36 94.9977 173.415 94.9977H134.706ZM231.488 95.7058C231.37 95.2338 230.898 94.9977 230.426 94.9977H192.897C192.307 94.9977 191.953 95.2338 191.717 95.7058L162.803 179.497C162.449 180.441 162.921 181.031 163.865 181.031H202.575C203.401 181.031 203.755 180.559 203.991 179.851L206.233 173.124H216.855L219.097 179.851C219.333 180.559 219.687 181.031 220.513 181.031H259.104C260.048 181.031 260.52 180.441 260.166 179.497L231.488 95.7058ZM215.202 168.168H207.885L211.544 156.838L215.202 168.168ZM266.772 179.969C266.772 180.559 267.244 181.031 267.835 181.031H351.626C352.216 181.031 352.806 180.559 352.806 179.969V155.894C352.806 155.304 352.216 154.832 351.626 154.832H307.252V96.0599C307.252 95.4698 306.662 94.9977 306.072 94.9977H267.835C267.244 94.9977 266.772 95.4698 266.772 96.0599V179.969ZM359.318 179.969C359.318 180.559 359.79 181.031 360.38 181.031H444.171C444.761 181.031 445.351 180.559 445.351 179.969V155.894C445.351 155.304 444.761 154.832 444.171 154.832H399.797V96.0599C399.797 95.4698 399.207 94.9977 398.617 94.9977H360.38C359.79 94.9977 359.318 95.4698 359.318 96.0599V179.969ZM454.224 94.9977C453.516 94.9977 453.044 95.5878 453.044 96.1779V179.969C453.044 180.559 453.516 181.031 454.224 181.031H536.127C536.835 181.031 537.307 180.677 537.307 179.851V156.366C537.307 155.658 536.835 155.304 536.127 155.304H492.697V151.055H520.667C521.375 151.055 521.729 150.701 521.729 149.875V126.272C521.729 125.446 521.375 125.092 520.667 125.092H492.697V120.843H536.127C536.835 120.843 537.307 120.489 537.307 119.663V96.1779C537.307 95.3518 536.835 94.9977 536.127 94.9977H454.224ZM545.457 94.9977C544.867 94.9977 544.395 95.4698 544.395 96.0599V137.483C544.395 138.074 544.867 138.546 545.457 138.546H566.936V179.969C566.936 180.559 567.408 181.031 567.998 181.031H606.354C606.944 181.031 607.534 180.559 607.534 179.969V138.546H629.013C629.603 138.546 630.075 138.074 630.075 137.483V96.0599C630.075 95.4698 629.603 94.9977 629.013 94.9977H545.457Z" fill="#FBCB83"/>
<path d="M503.537 178.451H493.216V183.612H503.537V178.451Z" fill="#231E2B"/>
<path d="M513.859 173.29H503.537V178.451H513.859V173.29Z" fill="#231E2B"/>
<path d="M503.537 173.29H498.376V178.451H503.537V173.29Z" fill="#758F21"/>
<path d="M493.216 142.326H477.734V147.487H488.055V178.451H493.216V142.326Z" fill="#231E2B"/>
<path d="M519.019 168.129H513.859V173.29H519.019V168.129Z" fill="#231E2B"/>
<path d="M513.859 168.129H508.698V173.29H513.859V168.129Z" fill="#D8FB6B"/>
<path d="M513.859 162.969H508.698V168.129H513.859V162.969Z" fill="#231E2B"/>
<path d="M508.698 162.969H503.537V168.129H508.698V162.969Z" fill="#758F21"/>
<path d="M519.019 157.808H513.859V162.969H519.019V157.808Z" fill="#231E2B"/>
<path d="M513.859 157.808H503.537V162.969H513.859V157.808Z" fill="#D8FB6B"/>
<path d="M503.537 147.487H498.376V157.808H503.537V147.487Z" fill="#D8FB6B"/>
<path d="M503.537 142.326V157.808H513.859V152.647H508.698V147.487H519.019V142.326H503.537Z" fill="#231E2B"/>
<path d="M524.18 137.165H519.019V142.326H524.18V137.165Z" fill="#231E2B"/>
<path d="M519.019 137.165H503.537V142.326H519.019V137.165Z" fill="#758F21"/>
<path d="M493.216 137.165H477.734V142.326H493.216V137.165Z" fill="#758F21"/>
<path d="M477.734 137.165H472.573V142.326H477.734V137.165Z" fill="#231E2B"/>
<path d="M524.18 132.004H519.019V137.165H524.18V132.004Z" fill="#758F21"/>
<path d="M498.376 132.004H482.894V137.165H498.376V132.004Z" fill="#D8FB6B"/>
<path d="M477.734 132.004H472.573V137.165H477.734V132.004Z" fill="#758F21"/>
<path d="M472.573 121.683H467.412V137.165H472.573V121.683Z" fill="#231E2B"/>
<path d="M513.859 126.844H482.894V132.004H513.859V126.844Z" fill="#231E2B"/>
<path d="M529.341 121.683H524.18V137.165H529.341V121.683Z" fill="#231E2B"/>
<path d="M524.18 121.683H519.019V126.844H524.18V121.683Z" fill="#D8FB6B"/>
<path d="M513.859 132.004H498.376V137.165H493.216V178.451H498.376V173.29H508.698V168.129H503.537V157.808H498.376V147.487H503.537V137.165H519.019V132.004H524.18V126.844H519.019V121.683H513.859V132.004Z" fill="#B5DC3A"/>
<path d="M513.859 121.683H482.894V126.844H513.859V121.683Z" fill="#758F21"/>
<path d="M472.573 121.683V132.004H477.734V137.165H482.894V121.683H503.537V116.522H477.734V121.683H472.573Z" fill="#B5DC3A"/>
<path d="M524.18 116.522H519.019V121.683H524.18V116.522Z" fill="#231E2B"/>
<path d="M519.019 116.522H503.537V121.683H519.019V116.522Z" fill="#D8FB6B"/>
<path d="M477.734 116.522H472.573V121.683H477.734V116.522Z" fill="#231E2B"/>
<path d="M519.019 111.362H477.734V116.522H519.019V111.362Z" fill="#231E2B"/>
<path d="M336.019 178.451H325.698V183.612H336.019V178.451Z" fill="#231E2B"/>
<path d="M336.019 173.29H330.858V178.451H336.019V173.29Z" fill="#E2B436"/>
<path d="M325.697 147.487H320.537V178.451H325.697V147.487Z" fill="#231E2B"/>
<path d="M341.18 147.487H336.019V178.451H341.18V147.487Z" fill="#231E2B"/>
<path d="M336.019 168.129H330.858V173.29H336.019V168.129Z" fill="#CF8934"/>
<path d="M330.858 168.129H325.698V178.451H330.858V168.129Z" fill="#F5F38E"/>
<path d="M330.858 162.969H325.698V168.129H330.858V162.969Z" fill="#CF8934"/>
<path d="M336.019 157.808H330.858V168.129H336.019V157.808Z" fill="#E2B436"/>
<path d="M330.858 157.808H325.698V162.969H330.858V157.808Z" fill="#F5F38E"/>
<path d="M336.019 152.647H330.858V157.808H336.019V152.647Z" fill="#CF8934"/>
<path d="M330.858 152.647H325.698V157.808H330.858V152.647Z" fill="#E2B436"/>
<path d="M336.019 147.487H325.698V152.647H336.019V147.487Z" fill="#C2751D"/>
<path d="M346.341 142.326H341.18V147.487H346.341V142.326Z" fill="#231E2B"/>
<path d="M341.18 142.326H320.537V147.487H341.18V142.326Z" fill="#CF8934"/>
<path d="M320.537 142.326H315.376V147.487H320.537V142.326Z" fill="#231E2B"/>
<path d="M346.341 137.165H341.18V142.326H346.341V137.165Z" fill="#CF8934"/>
<path d="M320.537 137.165H315.376V142.326H320.537V137.165Z" fill="#CF8934"/>
<path d="M315.376 121.683H310.215V142.326H315.376V121.683Z" fill="#231E2B"/>
<path d="M330.858 132.004H320.537V137.165H330.858V132.004Z" fill="#CF8934"/>
<path d="M320.537 121.683H315.376V137.165H320.537V121.683Z" fill="#E2B436"/>
<path d="M330.858 121.683H320.537V132.004H330.858V121.683Z" fill="#231E2B"/>
<path d="M351.501 121.683H346.34V142.326H351.501V121.683Z" fill="#231E2B"/>
<path d="M346.341 121.683H341.18V126.844H346.341V121.683Z" fill="#F5F38E"/>
<path d="M330.858 121.683V137.165H320.537V142.326H341.18V137.165H346.34V126.844H341.18V121.683H330.858Z" fill="#E2B436"/>
<path d="M346.341 116.522H341.18V121.683H346.341V116.522Z" fill="#231E2B"/>
<path d="M341.18 116.522H330.858V121.683H341.18V116.522Z" fill="#F5F38E"/>
<path d="M330.858 116.522H320.537V121.683H330.858V116.522Z" fill="#E2B436"/>
<path d="M320.537 116.522H315.376V121.683H320.537V116.522Z" fill="#231E2B"/>
<path d="M341.18 111.362H320.537V116.522H341.18V111.362Z" fill="#231E2B"/>
<path d="M144.987 121.683V132.004L144.987 137.165H155.054V178.451H160.215V173.29H170.537V168.129H165.376V157.808H160.215V147.487H165.376V137.165H180.858V132.004H186.019V126.844H180.858V121.683H175.697H144.987Z" fill="#96E9EA"/>
<path d="M165.376 178.451H155.055V183.612H165.376V178.451Z" fill="#231E2B"/>
<path d="M175.698 173.29H165.376V178.451H175.698V173.29Z" fill="#231E2B"/>
<path d="M165.376 173.29H160.215V178.451H165.376V173.29Z" fill="#29B8B8" fill-opacity="0.962426"/>
<path d="M155.055 142.326H139.573V147.487H149.894V178.451H155.055V142.326Z" fill="#231E2B"/>
<path d="M175.698 168.129H170.537V173.29H175.698V168.129Z" fill="#C8F5FF"/>
<path d="M175.697 162.969H165.376V168.129H175.697V162.969Z" fill="#231E2B"/>
<path d="M170.537 147.487H165.376V152.648H170.537V147.487Z" fill="#231E2B"/>
<path d="M180.858 152.413H175.698V162.969H180.858V152.413Z" fill="#231E2B"/>
<path d="M175.698 152.413H165.376V162.969H175.698V152.413Z" fill="#C8F5FF"/>
<path d="M165.376 147.487H160.215V157.808H165.376V147.487Z" fill="#C8F5FF"/>
<path d="M180.858 137.165H165.376V142.326H180.858V137.165Z" fill="#29B8B8" fill-opacity="0.962426"/>
<path d="M155.055 137.165H139.573V142.326H155.055V137.165Z" fill="#29B8B8" fill-opacity="0.962426"/>
<path d="M186.019 132.004H180.858V137.165H186.019V132.004Z" fill="#29B8B8" fill-opacity="0.962426"/>
<path d="M139.573 132.004H134.412V137.165H139.573V132.004Z" fill="#29B8B8" fill-opacity="0.962426"/>
<path d="M168.576 126.844H151.855V132.004H168.576V126.844Z" fill="#231E2B"/>
<path d="M186.019 121.683H180.858V126.844H186.019V121.683Z" fill="#C8F5FF"/>
<path d="M168.576 121.683H151.855V126.844H168.576V121.683Z" fill="#29B8B8" fill-opacity="0.962426"/>
<path d="M134.412 121.683V132.004H139.573V137.165H146.474V121.683H165.376V116.522H139.573V121.683H134.412Z" fill="#96E9EA"/>
<path d="M180.858 116.522H165.376V121.683H180.858V116.522Z" fill="#C8F5FF"/>
<path d="M180.858 111.362H139.573V116.522H180.858V111.362Z" fill="#231E2B"/>
<path d="M139.572 116.522H134.412V142.326H139.572V116.522Z" fill="#231E2B"/>
<path d="M186.019 116.522H180.859V142.326H186.019V116.522Z" fill="#231E2B"/>
<path d="M175.698 168.129H170.537V173.29H175.698V168.129Z" fill="#231E2B"/>
<rect x="165.376" y="142.326" width="15.4819" height="5.16064" fill="#231E2B"/>
<path d="M176.99 152.413H165.376V157.574H176.99V152.413Z" fill="#231E2B"/>
<rect x="91.2155" y="342.612" width="168" height="30" fill="#934200"/>
<rect x="139.215" y="306.612" width="42" height="54" fill="#96E9EA"/>
<rect x="85.2155" y="246.612" width="168" height="60" fill="#E49901"/>
<rect x="79.2155" y="312.612" width="54" height="24" fill="#E77F01"/>
<rect x="187.215" y="312.612" width="60" height="24" fill="#E77F01"/>
<rect x="97.2155" y="306.612" width="24" height="36" fill="#686777"/>
<rect width="24" height="24" transform="matrix(-1 0 0 1 121.215 294.612)" fill="#B2B4BC"/>
<rect width="6" height="12" transform="matrix(-1 0 0 1 115.215 318.612)" fill="#B2B4BC"/>
<rect width="6" height="12" transform="matrix(-1 0 0 1 103.215 318.612)" fill="#B2B4BC"/>
<rect width="6" height="12" transform="matrix(-1 0 0 1 109.215 312.612)" fill="#B2B4BC"/>
<rect x="97.2155" y="255.246" width="24" height="39.3657" fill="#EEEEF0"/>
<rect x="103.215" y="291.612" width="6" height="12" fill="#EEEEF0"/>
<rect x="115.215" y="291.612" width="6" height="12" fill="#EEEEF0"/>
<rect x="109.215" y="285.612" width="6" height="12" fill="#EEEEF0"/>
<rect x="97.2155" y="234.612" width="24" height="24" fill="#B2B4BC"/>
<rect x="103.215" y="258.612" width="6" height="12" fill="#B2B4BC"/>
<rect x="115.215" y="258.612" width="6" height="12" fill="#B2B4BC"/>
<rect x="109.215" y="252.612" width="6" height="12" fill="#B2B4BC"/>
<rect x="103.215" y="240.612" width="6" height="12" transform="rotate(-90 103.215 240.612)" fill="#6A6674"/>
<rect x="109.215" y="246.612" width="6" height="12" transform="rotate(-90 109.215 246.612)" fill="#6A6674"/>
<rect x="97.2155" y="240.612" width="6" height="6" fill="#6A6674"/>
<rect x="199.215" y="306.612" width="24" height="36" fill="#686777"/>
<rect width="24" height="24" transform="matrix(-1 0 0 1 223.215 294.612)" fill="#B2B4BC"/>
<rect width="6" height="12" transform="matrix(-1 0 0 1 217.215 318.612)" fill="#B2B4BC"/>
<rect width="6" height="12" transform="matrix(-1 0 0 1 205.215 318.612)" fill="#B2B4BC"/>
<rect width="6" height="12" transform="matrix(-1 0 0 1 211.215 312.612)" fill="#B2B4BC"/>
<rect x="199.215" y="255.246" width="24" height="39.3657" fill="#EEEEF0"/>
<rect x="205.215" y="291.612" width="6" height="12" fill="#EEEEF0"/>
<rect x="217.215" y="291.612" width="6" height="12" fill="#EEEEF0"/>
<rect x="211.215" y="285.612" width="6" height="12" fill="#EEEEF0"/>
<rect x="199.215" y="234.612" width="24" height="24" fill="#B2B4BC"/>
<rect x="205.215" y="258.612" width="6" height="12" fill="#B2B4BC"/>
<rect x="217.215" y="258.612" width="6" height="12" fill="#B2B4BC"/>
<rect x="211.215" y="252.612" width="6" height="12" fill="#B2B4BC"/>
<rect x="205.215" y="240.612" width="6" height="12" transform="rotate(-90 205.215 240.612)" fill="#6A6674"/>
<rect x="211.215" y="246.612" width="6" height="12" transform="rotate(-90 211.215 246.612)" fill="#6A6674"/>
<rect x="199.215" y="240.612" width="6" height="6" fill="#6A6674"/>
<rect x="259.215" y="342.612" width="168.125" height="30" fill="#934200"/>
<rect x="307.215" y="306.612" width="42" height="54" fill="#E2B436"/>
<rect x="253.215" y="246.612" width="170.193" height="60" fill="#E49901"/>
<rect x="247.215" y="312.612" width="54" height="24" fill="#E77F01"/>
<rect x="355.215" y="312.612" width="66.1252" height="24" fill="#E77F01"/>
<rect x="427.341" y="342.612" width="138" height="30" fill="#934200"/>
<rect x="475.341" y="306.612" width="42" height="54" fill="#B5DC3A"/>
<rect x="421.341" y="246.612" width="156" height="60" fill="#E49901"/>
<rect x="415.341" y="312.612" width="54" height="24" fill="#E77F01"/>
<rect x="523.341" y="312.612" width="54" height="24" fill="#E77F01"/>
<rect x="73.2155" y="294.612" width="6" height="12" fill="#B2B4BC"/>
<rect x="73.2155" y="282.612" width="6" height="6" fill="#B2B4BC"/>
<rect x="73.2155" y="288.612" width="6" height="6" fill="#EEEEF0"/>
<rect x="127.215" y="270.612" width="66" height="6" fill="#AC5603"/>
<rect x="151.215" y="294.612" width="18" height="6" fill="#C8F5FF"/>
<rect x="175.215" y="300.612" width="12" height="6" transform="rotate(90 175.215 300.612)" fill="#C8F5FF"/>
<rect x="181.215" y="324.612" width="30" height="6" transform="rotate(90 181.215 324.612)" fill="#31B9B6"/>
<rect x="151.215" y="300.612" width="12" height="6" transform="rotate(90 151.215 300.612)" fill="#C8F5FF"/>
<rect x="169.215" y="348.612" width="6" height="6" fill="#31B9B6"/>
<rect x="157.215" y="342.612" width="6" height="6" fill="#C8F5FF"/>
<rect x="79.2155" y="324.612" width="6" height="12" fill="#E49802"/>
<rect x="157.215" y="354.612" width="18" height="6" fill="#31B9B6"/>
<rect x="85.2155" y="258.612" width="6" height="12" fill="#F4CC7A"/>
<rect x="229.215" y="258.612" width="6" height="12" fill="#F4CC7A"/>
<rect x="85.2155" y="276.612" width="6" height="6" fill="#F4CC7A"/>
<rect x="229.215" y="276.612" width="6" height="6" fill="#F4CC7A"/>
<rect x="235.215" y="258.321" width="6" height="6" fill="#F4CC7A"/>
<rect x="403.341" y="258.321" width="6" height="6" fill="#F4CC7A"/>
<rect x="127.215" y="318.612" width="6" height="6" fill="#AC5603"/>
<rect x="85.2155" y="318.612" width="6" height="6" fill="#AC5603"/>
<rect x="127.215" y="330.612" width="6" height="6" fill="#AC5603"/>
<rect x="85.2155" y="330.612" width="6" height="6" fill="#AC5603"/>
<rect x="229.215" y="318.612" width="24" height="6" fill="#AC5603"/>
<rect x="187.215" y="318.612" width="6" height="6" fill="#AC5603"/>
<rect x="265.215" y="306.612" width="24" height="36" fill="#686777"/>
<rect width="24" height="24" transform="matrix(-1 0 0 1 289.215 294.612)" fill="#B2B4BC"/>
<rect width="6" height="12" transform="matrix(-1 0 0 1 283.215 318.612)" fill="#B2B4BC"/>
<rect width="6" height="12" transform="matrix(-1 0 0 1 271.215 318.612)" fill="#B2B4BC"/>
<rect width="6" height="12" transform="matrix(-1 0 0 1 277.215 312.612)" fill="#B2B4BC"/>
<rect x="265.215" y="255.246" width="24" height="39.3657" fill="#EEEEF0"/>
<rect x="271.215" y="291.612" width="6" height="12" fill="#EEEEF0"/>
<rect x="283.215" y="291.612" width="6" height="12" fill="#EEEEF0"/>
<rect x="277.215" y="285.612" width="6" height="12" fill="#EEEEF0"/>
<rect x="265.215" y="234.612" width="24" height="24" fill="#B2B4BC"/>
<rect x="271.215" y="258.612" width="6" height="12" fill="#B2B4BC"/>
<rect x="283.215" y="258.612" width="6" height="12" fill="#B2B4BC"/>
<rect x="277.215" y="252.612" width="6" height="12" fill="#B2B4BC"/>
<rect x="271.215" y="240.612" width="6" height="12" transform="rotate(-90 271.215 240.612)" fill="#6A6674"/>
<rect x="277.215" y="246.612" width="6" height="12" transform="rotate(-90 277.215 246.612)" fill="#6A6674"/>
<rect x="265.215" y="240.612" width="6" height="6" fill="#6A6674"/>
<rect x="367.215" y="306.612" width="24" height="36" fill="#686777"/>
<rect width="24" height="24" transform="matrix(-1 0 0 1 391.215 294.612)" fill="#B2B4BC"/>
<rect width="6" height="12" transform="matrix(-1 0 0 1 385.215 318.612)" fill="#B2B4BC"/>
<rect width="6" height="12" transform="matrix(-1 0 0 1 373.215 318.612)" fill="#B2B4BC"/>
<rect width="6" height="12" transform="matrix(-1 0 0 1 379.215 312.612)" fill="#B2B4BC"/>
<rect x="367.215" y="255.246" width="24" height="39.3657" fill="#EEEEF0"/>
<rect x="373.215" y="291.612" width="6" height="12" fill="#EEEEF0"/>
<rect x="385.215" y="291.612" width="6" height="12" fill="#EEEEF0"/>
<rect x="379.215" y="285.612" width="6" height="12" fill="#EEEEF0"/>
<rect x="367.215" y="234.612" width="24" height="24" fill="#B2B4BC"/>
<rect x="373.215" y="258.612" width="6" height="12" fill="#B2B4BC"/>
<rect x="385.215" y="258.612" width="6" height="12" fill="#B2B4BC"/>
<rect x="379.215" y="252.612" width="6" height="12" fill="#B2B4BC"/>
<rect x="373.215" y="240.612" width="6" height="12" transform="rotate(-90 373.215 240.612)" fill="#6A6674"/>
<rect x="379.215" y="246.612" width="6" height="12" transform="rotate(-90 379.215 246.612)" fill="#6A6674"/>
<rect x="367.215" y="240.612" width="6" height="6" fill="#6A6674"/>
<rect x="229.215" y="330.612" width="24" height="6" fill="#AC5603"/>
<rect x="187.215" y="330.612" width="6" height="6" fill="#AC5603"/>
<rect x="127.215" y="264.612" width="54" height="6" fill="#F4CC7A"/>
<rect x="127.215" y="258.612" width="42" height="6" fill="#F4CC7A"/>
<rect x="127.215" y="276.612" width="36" height="6" fill="#F4CC7A"/>
<rect x="295.215" y="270.612" width="66" height="6" fill="#AC5603"/>
<rect x="319.215" y="294.612" width="18" height="6" fill="#F5F38E"/>
<rect x="343.215" y="300.612" width="12" height="6" transform="rotate(90 343.215 300.612)" fill="#F5F38E"/>
<rect x="349.215" y="324.612" width="30" height="6" transform="rotate(90 349.215 324.612)" fill="#C2751D"/>
<rect x="319.215" y="300.612" width="12" height="6" transform="rotate(90 319.215 300.612)" fill="#F5F38E"/>
<rect x="337.215" y="348.612" width="6" height="6" fill="#C2751D"/>
<rect x="325.215" y="342.612" width="6" height="6" fill="#F5F38E"/>
<rect x="325.215" y="354.612" width="18" height="6" fill="#C2751D"/>
<rect x="433.341" y="306.612" width="24" height="36" fill="#686777"/>
<rect width="24" height="24" transform="matrix(-1 0 0 1 457.341 294.612)" fill="#B2B4BC"/>
<rect width="6" height="12" transform="matrix(-1 0 0 1 451.341 318.612)" fill="#B2B4BC"/>
<rect width="6" height="12" transform="matrix(-1 0 0 1 439.341 318.612)" fill="#B2B4BC"/>
<rect width="6" height="12" transform="matrix(-1 0 0 1 445.341 312.612)" fill="#B2B4BC"/>
<rect x="433.341" y="255.246" width="24" height="39.3657" fill="#EEEEF0"/>
<rect x="439.341" y="291.612" width="6" height="12" fill="#EEEEF0"/>
<rect x="451.341" y="291.612" width="6" height="12" fill="#EEEEF0"/>
<rect x="445.341" y="285.612" width="6" height="12" fill="#EEEEF0"/>
<rect x="433.341" y="234.612" width="24" height="24" fill="#B2B4BC"/>
<rect x="439.341" y="258.612" width="6" height="12" fill="#B2B4BC"/>
<rect x="451.341" y="258.612" width="6" height="12" fill="#B2B4BC"/>
<rect x="445.341" y="252.612" width="6" height="12" fill="#B2B4BC"/>
<rect x="439.341" y="240.612" width="6" height="12" transform="rotate(-90 439.341 240.612)" fill="#6A6674"/>
<rect x="445.341" y="246.612" width="6" height="12" transform="rotate(-90 445.341 246.612)" fill="#6A6674"/>
<rect x="433.341" y="240.612" width="6" height="6" fill="#6A6674"/>
<rect x="397.215" y="258.612" width="6" height="12" fill="#F4CC7A"/>
<rect x="535.341" y="306.612" width="24" height="36" fill="#686777"/>
<rect width="24" height="24" transform="matrix(-1 0 0 1 559.341 294.612)" fill="#B2B4BC"/>
<rect width="6" height="12" transform="matrix(-1 0 0 1 553.341 318.612)" fill="#B2B4BC"/>
<rect width="6" height="12" transform="matrix(-1 0 0 1 541.341 318.612)" fill="#B2B4BC"/>
<rect width="6" height="12" transform="matrix(-1 0 0 1 547.341 312.612)" fill="#B2B4BC"/>
<rect x="535.341" y="255.246" width="24" height="39.3657" fill="#EEEEF0"/>
<rect x="541.341" y="291.612" width="6" height="12" fill="#EEEEF0"/>
<rect x="553.341" y="291.612" width="6" height="12" fill="#EEEEF0"/>
<rect x="547.341" y="285.612" width="6" height="12" fill="#EEEEF0"/>
<rect x="535.341" y="234.612" width="24" height="24" fill="#B2B4BC"/>
<rect x="541.341" y="258.612" width="6" height="12" fill="#B2B4BC"/>
<rect x="553.341" y="258.612" width="6" height="12" fill="#B2B4BC"/>
<rect x="547.341" y="252.612" width="6" height="12" fill="#B2B4BC"/>
<rect x="541.341" y="240.612" width="6" height="12" transform="rotate(-90 541.341 240.612)" fill="#6A6674"/>
<rect x="547.341" y="246.612" width="6" height="12" transform="rotate(-90 547.341 246.612)" fill="#6A6674"/>
<rect x="535.341" y="240.612" width="6" height="6" fill="#6A6674"/>
<rect x="397.215" y="276.612" width="6" height="6" fill="#F4CC7A"/>
<rect x="295.215" y="318.612" width="6" height="6" fill="#AC5603"/>
<rect x="295.215" y="330.612" width="6" height="6" fill="#AC5603"/>
<rect x="397.215" y="318.612" width="6" height="6" fill="#AC5603"/>
<rect x="355.215" y="318.612" width="6" height="6" fill="#AC5603"/>
<rect x="397.215" y="330.612" width="6" height="6" fill="#AC5603"/>
<rect x="355.215" y="330.612" width="6" height="6" fill="#AC5603"/>
<rect x="295.215" y="264.612" width="54" height="6" fill="#F4CC7A"/>
<rect x="295.215" y="258.612" width="42" height="6" fill="#F4CC7A"/>
<rect x="295.215" y="276.612" width="36" height="6" fill="#F4CC7A"/>
<path d="M600.921 372.612H54.9208V378.612H600.921V372.612Z" fill="#231E2B"/>
<rect x="463.341" y="270.612" width="66" height="6" fill="#AC5603"/>
<rect x="487.341" y="294.612" width="18" height="6" fill="#D8FB6B"/>
<rect x="511.341" y="300.612" width="12" height="6" transform="rotate(90 511.341 300.612)" fill="#D8FB6B"/>
<rect x="517.341" y="324.612" width="30" height="6" transform="rotate(90 517.341 324.612)" fill="#758F21"/>
<rect x="487.341" y="300.612" width="12" height="6" transform="rotate(90 487.341 300.612)" fill="#D8FB6B"/>
<rect x="505.341" y="348.612" width="6" height="6" fill="#758F21"/>
<rect x="493.341" y="342.612" width="6" height="6" fill="#D8FB6B"/>
<rect x="253.215" y="258.612" width="6" height="12" fill="#F4CC7A"/>
<rect x="493.341" y="354.612" width="18" height="6" fill="#758F21"/>
<rect x="253.215" y="276.612" width="6" height="6" fill="#F4CC7A"/>
<rect x="421.341" y="258.612" width="6" height="12" fill="#F4CC7A"/>
<rect x="565.341" y="258.612" width="6" height="12" fill="#F4CC7A"/>
<rect x="421.341" y="276.612" width="6" height="6" fill="#F4CC7A"/>
<rect x="565.341" y="276.612" width="6" height="6" fill="#F4CC7A"/>
<rect x="463.341" y="318.612" width="6" height="6" fill="#AC5603"/>
<rect x="253.215" y="318.612" width="6" height="6" fill="#AC5603"/>
<rect x="463.341" y="330.612" width="6" height="6" fill="#AC5603"/>
<rect x="253.215" y="330.612" width="6" height="6" fill="#AC5603"/>
<rect x="565.341" y="318.612" width="6" height="6" fill="#AC5603"/>
<rect x="523.341" y="318.612" width="6" height="6" fill="#AC5603"/>
<rect x="565.341" y="330.612" width="6" height="6" fill="#AC5603"/>
<rect x="523.341" y="330.612" width="6" height="6" fill="#AC5603"/>
<rect x="463.341" y="264.612" width="54" height="6" fill="#F4CC7A"/>
<rect x="463.341" y="258.612" width="42" height="6" fill="#F4CC7A"/>
<rect x="463.341" y="276.612" width="36" height="6" fill="#F4CC7A"/>
<rect width="6" height="12" transform="matrix(-1 0 0 1 583.341 294.612)" fill="#B2B4BC"/>
<rect width="6" height="6" transform="matrix(-1 0 0 1 583.341 282.612)" fill="#B2B4BC"/>
<rect width="6" height="6" transform="matrix(-1 0 0 1 583.341 288.612)" fill="#EEEEF0"/>
<rect width="6" height="12" transform="matrix(-1 0 0 1 577.341 324.612)" fill="#E49802"/>
<rect x="85.2155" y="342.612" width="6" height="30" fill="#231E2B"/>
<rect x="91.2155" y="348.612" width="6" height="30" transform="rotate(-90 91.2155 348.612)" fill="#231E2B"/>
<rect x="73.2155" y="342.612" width="6" height="24" transform="rotate(-90 73.2155 342.612)" fill="#231E2B"/>
<rect x="73.2155" y="282.612" width="6" height="12" transform="rotate(-90 73.2155 282.612)" fill="#231E2B"/>
<rect x="85.2155" y="246.612" width="6" height="12" transform="rotate(-90 85.2155 246.612)" fill="#231E2B"/>
<rect x="85.2155" y="258.612" width="6" height="12" transform="rotate(-90 85.2155 258.612)" fill="#AC5603"/>
<rect x="85.2155" y="276.612" width="6" height="12" transform="rotate(-90 85.2155 276.612)" fill="#AC5603"/>
<rect x="223.215" y="276.612" width="6" height="36" transform="rotate(-90 223.215 276.612)" fill="#AC5603"/>
<rect x="91.2155" y="240.612" width="6" height="12" transform="rotate(-90 91.2155 240.612)" fill="#231E2B"/>
<rect x="103.215" y="234.612" width="6" height="12" transform="rotate(-90 103.215 234.612)" fill="#231E2B"/>
<rect x="115.215" y="240.612" width="6" height="12" transform="rotate(-90 115.215 240.612)" fill="#231E2B"/>
<rect x="193.215" y="240.612" width="6" height="12" transform="rotate(-90 193.215 240.612)" fill="#231E2B"/>
<rect x="205.215" y="234.612" width="6" height="12" transform="rotate(-90 205.215 234.612)" fill="#231E2B"/>
<rect x="217.215" y="240.612" width="6" height="12" transform="rotate(-90 217.215 240.612)" fill="#231E2B"/>
<rect x="223.215" y="246.612" width="6" height="30" transform="rotate(-90 223.215 246.612)" fill="#231E2B"/>
<rect x="223.215" y="258.612" width="6" height="36" transform="rotate(-90 223.215 258.612)" fill="#AC5603"/>
<rect x="121.215" y="246.612" width="6" height="78" transform="rotate(-90 121.215 246.612)" fill="#231E2B"/>
<rect x="121.215" y="258.612" width="6" height="78" transform="rotate(-90 121.215 258.612)" fill="#AC5603"/>
<rect x="181.215" y="312.612" width="6" height="18" transform="rotate(-90 181.215 312.612)" fill="#231E2B"/>
<rect x="181.215" y="342.612" width="6" height="18" transform="rotate(-90 181.215 342.612)" fill="#231E2B"/>
<rect x="223.215" y="312.612" width="6" height="36" transform="rotate(-90 223.215 312.612)" fill="#231E2B"/>
<rect x="223.215" y="342.612" width="6" height="18" transform="rotate(-90 223.215 342.612)" fill="#231E2B"/>
<rect x="145.215" y="366.612" width="6" height="30" transform="rotate(-90 145.215 366.612)" fill="#231E2B"/>
<rect x="139.215" y="360.612" width="6" height="6" transform="rotate(-90 139.215 360.612)" fill="#231E2B"/>
<rect x="175.215" y="360.612" width="6" height="6" transform="rotate(-90 175.215 360.612)" fill="#231E2B"/>
<rect x="139.215" y="306.612" width="6" height="6" transform="rotate(-90 139.215 306.612)" fill="#231E2B"/>
<rect x="145.215" y="318.612" width="6" height="6" transform="rotate(-90 145.215 318.612)" fill="#231E2B"/>
<rect x="169.215" y="318.612" width="6" height="6" transform="rotate(-90 169.215 318.612)" fill="#231E2B"/>
<rect x="157.215" y="342.612" width="18" height="6" transform="rotate(-90 157.215 342.612)" fill="#231E2B"/>
<rect x="175.215" y="306.612" width="6" height="6" transform="rotate(-90 175.215 306.612)" fill="#231E2B"/>
<rect x="121.215" y="342.612" width="6" height="18" transform="rotate(-90 121.215 342.612)" fill="#231E2B"/>
<rect x="151.215" y="306.612" width="6" height="18" transform="rotate(-90 151.215 306.612)" fill="#231E2B"/>
<rect x="181.215" y="312.612" width="6" height="42" fill="#231E2B"/>
<rect x="73.2155" y="324.612" width="6" height="18" fill="#231E2B"/>
<rect x="67.2155" y="282.612" width="6" height="24" fill="#231E2B"/>
<rect x="193.215" y="342.612" width="6" height="30" fill="#231E2B"/>
<rect x="133.215" y="312.612" width="6" height="42" fill="#231E2B"/>
<rect x="121.215" y="342.612" width="6" height="30" fill="#231E2B"/>
<rect width="6" height="24" transform="matrix(4.37114e-08 -1 -1 -4.37114e-08 583.341 342.612)" fill="#231E2B"/>
<rect width="6" height="24" transform="matrix(4.37114e-08 -1 -1 -4.37114e-08 583.341 312.612)" fill="#231E2B"/>
<rect width="6" height="12" transform="matrix(4.37114e-08 -1 -1 -4.37114e-08 583.341 282.612)" fill="#231E2B"/>
<rect width="6" height="18" transform="matrix(-1 0 0 1 583.341 324.612)" fill="#231E2B"/>
<rect width="6" height="24" transform="matrix(-1 0 0 1 589.341 282.612)" fill="#231E2B"/>
<rect x="73.2155" y="312.612" width="6" height="24" transform="rotate(-90 73.2155 312.612)" fill="#231E2B"/>
<rect x="121.215" y="312.612" width="6" height="18" transform="rotate(-90 121.215 312.612)" fill="#231E2B"/>
<rect x="79.2155" y="246.612" width="6" height="78" fill="#231E2B"/>
<rect x="259.215" y="348.612" width="6" height="30" transform="rotate(-90 259.215 348.612)" fill="#231E2B"/>
<rect x="198.921" y="348.612" width="6" height="30" transform="rotate(-90 198.921 348.612)" fill="#231E2B"/>
<rect x="241.215" y="342.612" width="6" height="24" transform="rotate(-90 241.215 342.612)" fill="#231E2B"/>
<rect x="253.215" y="246.612" width="6" height="12" transform="rotate(-90 253.215 246.612)" fill="#231E2B"/>
<rect x="391.215" y="276.612" width="6" height="36.1252" transform="rotate(-90 391.215 276.612)" fill="#AC5603"/>
<rect x="259.215" y="240.612" width="6" height="12" transform="rotate(-90 259.215 240.612)" fill="#231E2B"/>
<rect x="271.215" y="234.612" width="6" height="12" transform="rotate(-90 271.215 234.612)" fill="#231E2B"/>
<rect x="283.215" y="240.612" width="6" height="12" transform="rotate(-90 283.215 240.612)" fill="#231E2B"/>
<rect x="361.215" y="240.612" width="6" height="12" transform="rotate(-90 361.215 240.612)" fill="#231E2B"/>
<rect x="373.215" y="234.612" width="6" height="12" transform="rotate(-90 373.215 234.612)" fill="#231E2B"/>
<rect x="385.215" y="240.612" width="6" height="12" transform="rotate(-90 385.215 240.612)" fill="#231E2B"/>
<rect x="391.215" y="246.612" width="6" height="42" transform="rotate(-90 391.215 246.612)" fill="#231E2B"/>
<rect x="391.215" y="258.612" width="6" height="42" transform="rotate(-90 391.215 258.612)" fill="#AC5603"/>
<rect x="289.215" y="246.612" width="6" height="78" transform="rotate(-90 289.215 246.612)" fill="#231E2B"/>
<rect x="289.215" y="258.612" width="6" height="78" transform="rotate(-90 289.215 258.612)" fill="#AC5603"/>
<rect x="289.215" y="312.612" width="6" height="18" transform="rotate(-90 289.215 312.612)" fill="#231E2B"/>
<rect x="349.215" y="312.612" width="6" height="18" transform="rotate(-90 349.215 312.612)" fill="#231E2B"/>
<rect x="349.215" y="342.612" width="6" height="18" transform="rotate(-90 349.215 342.612)" fill="#231E2B"/>
<rect x="391.215" y="312.612" width="6" height="36.1252" transform="rotate(-90 391.215 312.612)" fill="#231E2B"/>
<rect x="391.215" y="342.612" width="6" height="18.1252" transform="rotate(-90 391.215 342.612)" fill="#231E2B"/>
<rect x="313.215" y="366.612" width="6" height="30" transform="rotate(-90 313.215 366.612)" fill="#231E2B"/>
<rect x="307.215" y="360.612" width="6" height="6" transform="rotate(-90 307.215 360.612)" fill="#231E2B"/>
<rect x="343.215" y="360.612" width="6" height="6" transform="rotate(-90 343.215 360.612)" fill="#231E2B"/>
<rect x="307.215" y="306.612" width="6" height="6" transform="rotate(-90 307.215 306.612)" fill="#231E2B"/>
<rect x="313.215" y="318.612" width="6" height="6" transform="rotate(-90 313.215 318.612)" fill="#231E2B"/>
<rect x="337.215" y="318.612" width="6" height="6" transform="rotate(-90 337.215 318.612)" fill="#231E2B"/>
<rect x="325.215" y="342.612" width="18" height="6" transform="rotate(-90 325.215 342.612)" fill="#231E2B"/>
<rect x="343.215" y="306.612" width="6" height="6" transform="rotate(-90 343.215 306.612)" fill="#231E2B"/>
<rect x="289.215" y="342.612" width="6" height="18" transform="rotate(-90 289.215 342.612)" fill="#231E2B"/>
<rect x="319.215" y="306.612" width="6" height="18" transform="rotate(-90 319.215 306.612)" fill="#231E2B"/>
<rect x="349.215" y="312.612" width="6" height="42" fill="#231E2B"/>
<rect x="361.215" y="342.612" width="6" height="30" fill="#231E2B"/>
<rect x="301.215" y="312.612" width="6" height="42" fill="#231E2B"/>
<rect x="289.215" y="342.612" width="6" height="30" fill="#231E2B"/>
<rect x="427.341" y="348.612" width="6" height="30" transform="rotate(-90 427.341 348.612)" fill="#231E2B"/>
<rect x="366.921" y="348.612" width="6" height="30.2947" transform="rotate(-90 366.921 348.612)" fill="#231E2B"/>
<rect x="409.341" y="342.612" width="6" height="24" transform="rotate(-90 409.341 342.612)" fill="#231E2B"/>
<rect x="559.341" y="276.612" width="6" height="18" transform="rotate(-90 559.341 276.612)" fill="#AC5603"/>
<rect x="427.341" y="240.612" width="6" height="12" transform="rotate(-90 427.341 240.612)" fill="#231E2B"/>
<rect x="439.341" y="234.612" width="6" height="12" transform="rotate(-90 439.341 234.612)" fill="#231E2B"/>
<rect x="451.341" y="240.612" width="6" height="12" transform="rotate(-90 451.341 240.612)" fill="#231E2B"/>
<rect x="529.341" y="240.612" width="6" height="12" transform="rotate(-90 529.341 240.612)" fill="#231E2B"/>
<rect x="541.341" y="234.612" width="6" height="12" transform="rotate(-90 541.341 234.612)" fill="#231E2B"/>
<rect x="553.341" y="240.612" width="6" height="12" transform="rotate(-90 553.341 240.612)" fill="#231E2B"/>
<rect x="559.341" y="246.612" width="6" height="12" transform="rotate(-90 559.341 246.612)" fill="#231E2B"/>
<rect x="559.341" y="258.612" width="6" height="18" transform="rotate(-90 559.341 258.612)" fill="#AC5603"/>
<rect x="457.341" y="246.612" width="6" height="78" transform="rotate(-90 457.341 246.612)" fill="#231E2B"/>
<rect x="457.341" y="258.612" width="6" height="78" transform="rotate(-90 457.341 258.612)" fill="#AC5603"/>
<rect x="457.341" y="312.612" width="6" height="18" transform="rotate(-90 457.341 312.612)" fill="#231E2B"/>
<rect x="517.341" y="312.612" width="6" height="18" transform="rotate(-90 517.341 312.612)" fill="#231E2B"/>
<rect x="517.341" y="342.612" width="6" height="18" transform="rotate(-90 517.341 342.612)" fill="#231E2B"/>
<rect x="559.341" y="312.612" width="6" height="18" transform="rotate(-90 559.341 312.612)" fill="#231E2B"/>
<rect x="559.341" y="342.612" width="6" height="18" transform="rotate(-90 559.341 342.612)" fill="#231E2B"/>
<rect x="481.341" y="366.612" width="6" height="30" transform="rotate(-90 481.341 366.612)" fill="#231E2B"/>
<rect x="475.341" y="360.612" width="6" height="6" transform="rotate(-90 475.341 360.612)" fill="#231E2B"/>
<rect x="511.341" y="360.612" width="6" height="6" transform="rotate(-90 511.341 360.612)" fill="#231E2B"/>
<rect x="475.341" y="306.612" width="6" height="6" transform="rotate(-90 475.341 306.612)" fill="#231E2B"/>
<rect x="481.341" y="318.612" width="6" height="6" transform="rotate(-90 481.341 318.612)" fill="#231E2B"/>
<rect x="505.341" y="318.612" width="6" height="6" transform="rotate(-90 505.341 318.612)" fill="#231E2B"/>
<rect x="493.341" y="342.612" width="18" height="6" transform="rotate(-90 493.341 342.612)" fill="#231E2B"/>
<rect x="511.341" y="306.612" width="6" height="6" transform="rotate(-90 511.341 306.612)" fill="#231E2B"/>
<rect x="457.341" y="342.612" width="6" height="18" transform="rotate(-90 457.341 342.612)" fill="#231E2B"/>
<rect x="487.341" y="306.612" width="6" height="18" transform="rotate(-90 487.341 306.612)" fill="#231E2B"/>
<rect x="517.341" y="312.612" width="6" height="42" fill="#231E2B"/>
<rect x="529.341" y="348.612" width="6" height="42" transform="rotate(-90 529.341 348.612)" fill="#231E2B"/>
<rect x="529.341" y="342.612" width="6" height="30" fill="#231E2B"/>
<rect x="565.341" y="342.612" width="6" height="30" fill="#231E2B"/>
<rect x="469.341" y="312.612" width="6" height="42" fill="#231E2B"/>
<rect x="457.341" y="342.612" width="6" height="30" fill="#231E2B"/>
<rect x="91.2155" y="348.612" width="30" height="6" fill="#693103"/>
<rect x="535.341" y="348.612" width="30" height="6" fill="#693103"/>
<rect x="229.215" y="342.612" width="30" height="6" fill="#693103"/>
<rect x="397.215" y="342.612" width="30" height="6" fill="#693103"/>
<rect x="199.215" y="348.612" width="53.7053" height="6" fill="#693103"/>
<rect x="91.2155" y="354.612" width="18" height="6" fill="#693103"/>
<rect x="367.215" y="348.612" width="53.7053" height="6" fill="#693103"/>
<rect x="535.341" y="354.612" width="18" height="6" fill="#693103"/>
<rect x="126.921" y="342.612" width="6.29468" height="12" fill="#693103"/>
<rect x="187.215" y="342.612" width="6.29468" height="6" fill="#693103"/>
<rect x="133.068" y="354.612" width="6.29468" height="6" fill="#693103"/>
<rect x="295.215" y="342.612" width="6.29468" height="12" fill="#693103"/>
<rect x="463.363" y="342.612" width="6.29468" height="12" fill="#693103"/>
<rect x="354.921" y="342.612" width="6.29468" height="6" fill="#693103"/>
<rect x="523.193" y="342.612" width="6.29468" height="6" fill="#693103"/>
<rect x="301.363" y="354.612" width="6.29468" height="6" fill="#693103"/>
<rect x="469.658" y="354.612" width="6.29468" height="6" fill="#693103"/>
<rect x="91.2155" y="246.612" width="6" height="90" fill="#934200"/>
<rect x="121.215" y="246.612" width="6" height="90" fill="#934200"/>
<rect x="193.215" y="246.612" width="6" height="90" fill="#934200"/>
<rect x="223.215" y="246.612" width="6" height="90" fill="#934200"/>
<rect x="259.215" y="246.612" width="6" height="90" fill="#934200"/>
<rect x="289.215" y="246.612" width="6" height="90" fill="#934200"/>
<rect x="361.215" y="246.612" width="6" height="90" fill="#934200"/>
<rect x="391.215" y="246.612" width="6" height="90" fill="#934200"/>
<rect x="427.341" y="246.612" width="6" height="90" fill="#934200"/>
<rect x="457.341" y="246.612" width="6" height="90" fill="#934200"/>
<rect x="529.341" y="246.612" width="6" height="90" fill="#934200"/>
<rect x="559.341" y="246.612" width="6" height="90" fill="#934200"/>
<rect width="6" height="78" transform="matrix(-1 0 0 1 577.341 246.612)" fill="#231E2B"/>
<rect x="118.196" y="114.086" width="5.44887" height="5.44887" transform="rotate(-90 118.196 114.086)" fill="#231E2B"/>
<rect x="198.37" y="144.906" width="5.44887" height="5.44887" transform="rotate(-90 198.37 144.906)" fill="#231E2B"/>
<rect x="192.921" y="150.355" width="5.44887" height="5.44887" transform="rotate(-90 192.921 150.355)" fill="#231E2B"/>
<rect x="532.821" y="101.579" width="5.44887" height="5.44887" transform="rotate(-90 532.821 101.579)" fill="#231E2B"/>
<path d="M371.121 182.024H366.403V186.742H371.121V182.024Z" fill="#231E2B"/>
<path d="M375.839 177.306H371.121V182.024H375.839V177.306Z" fill="#231E2B"/>
<path d="M371.121 177.306H366.403V182.024H371.121V177.306Z" fill="#E2B436"/>
<path d="M366.403 177.306H361.685V182.024H366.403V177.306Z" fill="#231E2B"/>
<path d="M380.557 172.587H375.839V177.306H380.557V172.587Z" fill="#231E2B"/>
<path d="M375.839 172.587H371.121V177.306H375.839V172.587Z" fill="#E2B436"/>
<path d="M366.403 172.587H361.685V177.306H366.403V172.587Z" fill="#E2B436"/>
<path d="M361.685 172.587H356.966V177.306H361.685V172.587Z" fill="#231E2B"/>
<path d="M375.839 167.869H371.121V172.587H375.839V167.869Z" fill="#231E2B"/>
<path d="M371.121 167.869H366.403V172.587H371.121V167.869Z" fill="#E2B436"/>
<path d="M371.121 172.584H366.403V177.303H371.121V172.584Z" fill="#F5F38E"/>
<path d="M366.403 167.869H361.685V172.587H366.403V167.869Z" fill="#231E2B"/>
<path d="M371.121 163.151H366.403V167.869H371.121V163.151Z" fill="#231E2B"/>
<path d="M353.445 188.068H349.83V198.911H353.445V188.068Z" fill="#231E2B"/>
<path d="M346.215 191.682L346.215 195.297L357.059 195.297L357.059 191.682L346.215 191.682Z" fill="#231E2B"/>
<path d="M551.686 114.07H547.512V126.593H551.686V114.07Z" fill="#231E2B"/>
<path d="M543.337 118.245L543.337 122.419L555.86 122.419L555.86 118.245L543.337 118.245Z" fill="#231E2B"/>
</svg>
