<svg width="650" height="401" viewBox="0 0 650 401" fill="none" xmlns="http://www.w3.org/2000/svg">
<g clip-path="url(#clip0_1098_3996)">
<rect x="293.629" y="291.164" width="169.613" height="14.9326" fill="#4BEA69"/>
<rect x="301.339" y="306.097" width="154.194" height="7.46632" fill="#068940"/>
<rect x="301.339" y="313.563" width="154.194" height="119.461" fill="#34AC80"/>
<rect x="363.016" y="321.029" width="28.9766" height="7.46632" fill="black"/>
<rect width="4.14132" height="4.14132" transform="matrix(-1 0 0 1 492.232 221.717)" fill="#27A463"/>
<rect width="4.14132" height="4.14132" transform="matrix(-1 0 0 1 488.091 217.576)" fill="#27A463"/>
<rect width="4.14132" height="4.14132" transform="matrix(-1 0 0 1 496.373 225.859)" fill="#27A463"/>
<rect width="4.14132" height="4.14132" transform="matrix(-1 0 0 1 500.515 230)" fill="#27A463"/>
<rect width="4.14132" height="4.14132" transform="matrix(-1 0 0 1 504.656 234.141)" fill="#27A463"/>
<rect width="4.14132" height="4.14132" transform="matrix(-1 0 0 1 508.798 238.283)" fill="#27A463"/>
<rect width="4.14132" height="4.14132" transform="matrix(-1 0 0 1 512.939 242.424)" fill="#27A463"/>
<rect width="4.14132" height="4.14132" transform="matrix(-1 0 0 1 517.08 246.565)" fill="#27A463"/>
<rect width="4.14132" height="4.14132" transform="matrix(-1 0 0 1 521.221 250.706)" fill="#27A463"/>
<rect width="4.14132" height="4.14132" transform="matrix(-1 0 0 1 525.363 254.847)" fill="#27A463"/>
<rect width="4.14132" height="4.14132" transform="matrix(-1 0 0 1 529.504 258.989)" fill="#27A463"/>
<rect width="4.14132" height="4.14132" transform="matrix(-1 0 0 1 533.645 263.13)" fill="#27A463"/>
<rect width="4.14132" height="4.14132" transform="matrix(-1 0 0 1 533.645 258.989)" fill="#068940"/>
<rect width="4.14132" height="8.28263" transform="matrix(-1 0 0 1 525.363 258.989)" fill="#068940"/>
<rect width="4.14132" height="12.424" transform="matrix(-1 0 0 1 521.221 254.847)" fill="#068940"/>
<rect width="4.14132" height="12.424" transform="matrix(-1 0 0 1 504.656 254.847)" fill="#068940"/>
<rect width="4.14132" height="16.5653" transform="matrix(-1 0 0 1 517.08 250.706)" fill="#068940"/>
<rect width="4.14132" height="16.5653" transform="matrix(-1 0 0 1 512.939 246.565)" fill="#068940"/>
<rect width="4.14132" height="16.5653" transform="matrix(-1 0 0 1 492.232 225.859)" fill="#068940"/>
<rect width="4.14132" height="20.7066" transform="matrix(-1 0 0 1 496.373 242.424)" fill="#068940"/>
<rect width="4.14132" height="24.8479" transform="matrix(-1 0 0 1 496.373 196.869)" fill="#068940"/>
<rect width="4.14132" height="20.7066" transform="matrix(-1 0 0 1 492.232 201.01)" fill="#068940"/>
<rect width="4.14132" height="12.424" transform="matrix(-1 0 0 1 488.091 205.152)" fill="#068940"/>
<rect width="4.14132" height="16.5653" transform="matrix(-1 0 0 1 500.515 196.869)" fill="#068940"/>
<rect width="4.14132" height="16.5653" transform="matrix(-1 0 0 1 504.656 196.869)" fill="#068940"/>
<rect width="4.14132" height="8.28263" transform="matrix(-1 0 0 1 508.798 201.01)" fill="#068940"/>
<rect width="4.14132" height="4.14132" transform="matrix(-1 0 0 1 512.939 205.152)" fill="#068940"/>
<rect width="4.14132" height="20.7066" transform="matrix(-1 0 0 1 483.95 238.283)" fill="#068940"/>
<rect width="4.14132" height="24.8479" transform="matrix(-1 0 0 1 488.091 234.141)" fill="#068940"/>
<rect width="4.14132" height="12.424" transform="matrix(-1 0 0 1 508.798 242.424)" fill="#068940"/>
<rect width="4.14132" height="33.1305" transform="matrix(-1 0 0 1 500.515 234.141)" fill="#068940"/>
<rect width="4.14132" height="8.28263" transform="matrix(-1 0 0 1 504.656 238.283)" fill="#068940"/>
<rect width="4.14132" height="8.28263" transform="matrix(-1 0 0 1 496.373 230)" fill="#068940"/>
<rect width="8.28263" height="4.14132" transform="matrix(-1 0 0 1 533.645 254.847)" fill="#068940"/>
<rect width="12.424" height="4.14132" transform="matrix(-1 0 0 1 533.645 250.706)" fill="#068940"/>
<rect width="16.5653" height="4.14132" transform="matrix(-1 0 0 1 533.645 246.565)" fill="#068940"/>
<rect width="16.5653" height="4.14132" transform="matrix(-1 0 0 1 529.504 242.424)" fill="#068940"/>
<rect width="12.424" height="4.14132" transform="matrix(-1 0 0 1 521.221 238.283)" fill="#068940"/>
<rect width="8.28263" height="4.14132" transform="matrix(-1 0 0 1 512.939 234.141)" fill="#068940"/>
<rect width="8.28263" height="4.14132" transform="matrix(-1 0 0 1 504.656 225.859)" fill="#068940"/>
<rect width="16.5653" height="4.14132" transform="matrix(-1 0 0 1 508.798 221.717)" fill="#068940"/>
<rect width="24.8479" height="4.14132" transform="matrix(-1 0 0 1 525.363 217.576)" fill="#068940"/>
<rect width="20.7066" height="4.14132" transform="matrix(-1 0 0 1 525.363 213.434)" fill="#068940"/>
<rect width="12.424" height="4.14132" transform="matrix(-1 0 0 1 533.645 234.141)" fill="#068940"/>
<rect width="4.14132" height="4.14132" transform="matrix(-1 0 0 1 533.645 238.283)" fill="#068940"/>
<rect width="4.14132" height="4.14132" transform="matrix(-1 0 0 1 529.504 221.717)" fill="#068940"/>
<rect width="33.1305" height="4.14132" transform="matrix(-1 0 0 1 533.645 230)" fill="#068940"/>
<rect width="20.7066" height="4.14132" transform="matrix(-1 0 0 1 529.504 225.859)" fill="#068940"/>
<rect width="4.14132" height="4.14132" transform="matrix(-1 0 0 1 529.504 263.13)" fill="#068940"/>
<rect width="4.14132" height="4.14132" transform="matrix(-1 0 0 1 508.798 263.13)" fill="#068940"/>
<rect width="4.14132" height="4.14132" transform="matrix(-1 0 0 1 492.232 258.989)" fill="#068940"/>
<rect width="4.14132" height="4.14132" transform="matrix(-1 0 0 1 479.809 246.565)" fill="#068940"/>
<rect width="4.14132" height="4.14132" transform="matrix(-1 0 0 1 517.08 209.293)" fill="#068940"/>
<rect width="24.8479" height="4.14132" transform="matrix(-1 0 0 1 488.091 225.859)" fill="#068940"/>
<rect width="20.7066" height="4.14132" transform="matrix(-1 0 0 1 488.091 221.717)" fill="#068940"/>
<rect width="12.424" height="4.14132" transform="matrix(-1 0 0 1 483.95 217.576)" fill="#068940"/>
<rect width="16.5653" height="4.14132" transform="matrix(-1 0 0 1 479.809 230)" fill="#068940"/>
<rect width="16.5653" height="4.14132" transform="matrix(-1 0 0 1 479.809 234.141)" fill="#068940"/>
<rect width="8.28263" height="4.14132" transform="matrix(-1 0 0 1 475.667 238.283)" fill="#068940"/>
<rect width="4.14132" height="4.14132" transform="matrix(-1 0 0 1 475.667 242.424)" fill="#068940"/>
<rect x="550.211" y="213.434" width="4.14132" height="86.9677" fill="#0ADC4D"/>
<rect width="4.14132" height="4.14132" transform="matrix(-1 0 0 1 558.493 292.119)" fill="#27A463"/>
<rect width="8.28263" height="4.14132" transform="matrix(-1 0 0 1 562.635 287.978)" fill="#27A463"/>
<rect width="16.5653" height="4.14132" transform="matrix(-1 0 0 1 570.917 283.837)" fill="#27A463"/>
<rect width="16.5653" height="8.28263" transform="matrix(-1 0 0 1 570.917 267.272)" fill="#27A463"/>
<rect width="12.424" height="8.28263" transform="matrix(-1 0 0 1 566.776 258.989)" fill="#27A463"/>
<rect width="8.28263" height="4.14132" transform="matrix(-1 0 0 1 562.635 254.847)" fill="#27A463"/>
<rect width="4.14132" height="4.14132" transform="matrix(-1 0 0 1 558.493 250.706)" fill="#27A463"/>
<rect width="24.8479" height="4.14132" transform="matrix(-1 0 0 1 579.2 246.565)" fill="#27A463"/>
<rect width="20.7066" height="4.14132" transform="matrix(-1 0 0 1 575.058 242.424)" fill="#27A463"/>
<rect width="12.424" height="4.14132" transform="matrix(-1 0 0 1 566.776 238.283)" fill="#27A463"/>
<rect width="8.28263" height="4.14132" transform="matrix(-1 0 0 1 562.635 234.141)" fill="#27A463"/>
<rect width="28.9892" height="4.14132" transform="matrix(-1 0 0 1 583.341 230)" fill="#27A463"/>
<rect width="20.7066" height="4.14132" transform="matrix(-1 0 0 1 575.058 225.859)" fill="#27A463"/>
<rect width="12.424" height="4.14132" transform="matrix(-1 0 0 1 566.776 221.717)" fill="#27A463"/>
<rect width="20.7066" height="4.14132" transform="matrix(-1 0 0 1 595.765 221.717)" fill="#27A463"/>
<rect width="12.424" height="4.14132" transform="matrix(-1 0 0 1 595.765 225.859)" fill="#27A463"/>
<rect width="4.14132" height="4.14132" transform="matrix(-1 0 0 1 591.624 230)" fill="#27A463"/>
<rect width="37.2719" height="8.28263" transform="matrix(-1 0 0 1 591.624 213.434)" fill="#27A463"/>
<rect width="33.1305" height="8.28263" transform="matrix(-1 0 0 1 587.483 205.152)" fill="#27A463"/>
<rect width="24.8479" height="4.14132" transform="matrix(-1 0 0 1 583.341 201.01)" fill="#27A463"/>
<rect width="16.5653" height="4.14132" transform="matrix(-1 0 0 1 579.2 196.869)" fill="#27A463"/>
<rect width="20.7066" height="4.14132" transform="matrix(-1 0 0 1 587.483 234.141)" fill="#27A463"/>
<rect width="16.5653" height="4.14132" transform="matrix(-1 0 0 1 591.624 238.283)" fill="#27A463"/>
<rect width="12.424" height="4.14132" transform="matrix(-1 0 0 1 591.624 242.424)" fill="#27A463"/>
<rect width="8.28263" height="4.14132" transform="matrix(-1 0 0 1 591.624 246.565)" fill="#27A463"/>
<rect width="4.14132" height="4.14132" transform="matrix(-1 0 0 1 591.624 250.706)" fill="#27A463"/>
<rect width="16.5653" height="4.14132" transform="matrix(-1 0 0 1 583.341 250.706)" fill="#27A463"/>
<rect width="16.5653" height="4.14132" transform="matrix(-1 0 0 1 587.483 254.847)" fill="#27A463"/>
<rect width="16.5653" height="4.14132" transform="matrix(-1 0 0 1 587.483 258.989)" fill="#27A463"/>
<rect width="12.424" height="4.14132" transform="matrix(-1 0 0 1 587.483 263.13)" fill="#27A463"/>
<rect width="8.28263" height="4.14132" transform="matrix(-1 0 0 1 583.341 267.272)" fill="#27A463"/>
<rect width="4.14132" height="4.14132" transform="matrix(-1 0 0 1 583.341 271.413)" fill="#27A463"/>
<rect width="20.7066" height="8.28263" transform="matrix(-1 0 0 1 575.058 275.554)" fill="#27A463"/>
<rect x="546.07" y="292.119" width="4.14132" height="4.14132" fill="#27A463"/>
<rect x="541.928" y="287.978" width="8.28263" height="4.14132" fill="#27A463"/>
<rect x="533.645" y="283.837" width="16.5653" height="4.14132" fill="#27A463"/>
<rect x="533.645" y="267.272" width="16.5653" height="8.28263" fill="#27A463"/>
<rect x="537.787" y="258.989" width="12.424" height="8.28263" fill="#27A463"/>
<rect x="541.928" y="254.847" width="8.28263" height="4.14132" fill="#27A463"/>
<rect x="546.07" y="250.706" width="4.14132" height="4.14132" fill="#27A463"/>
<rect x="525.363" y="246.565" width="24.8479" height="4.14132" fill="#27A463"/>
<rect x="529.504" y="242.424" width="20.7066" height="4.14132" fill="#27A463"/>
<rect x="537.787" y="238.283" width="12.424" height="4.14132" fill="#27A463"/>
<rect x="541.928" y="234.141" width="8.28263" height="4.14132" fill="#27A463"/>
<rect x="521.221" y="230" width="28.9892" height="4.14132" fill="#27A463"/>
<rect x="529.504" y="225.859" width="20.7066" height="4.14132" fill="#27A463"/>
<rect x="537.787" y="221.717" width="12.424" height="4.14132" fill="#27A463"/>
<rect x="508.798" y="221.717" width="20.7066" height="4.14132" fill="#27A463"/>
<rect x="508.798" y="225.859" width="12.424" height="4.14132" fill="#27A463"/>
<rect x="512.939" y="230" width="4.14132" height="4.14132" fill="#27A463"/>
<rect x="512.939" y="213.434" width="37.2719" height="8.28263" fill="#27A463"/>
<rect x="517.08" y="205.152" width="33.1305" height="8.28263" fill="#27A463"/>
<rect x="521.221" y="201.01" width="24.8479" height="4.14132" fill="#27A463"/>
<rect x="525.363" y="196.869" width="16.5653" height="4.14132" fill="#27A463"/>
<rect x="517.08" y="234.141" width="20.7066" height="4.14132" fill="#27A463"/>
<rect x="512.939" y="238.283" width="16.5653" height="4.14132" fill="#27A463"/>
<rect x="512.939" y="242.424" width="12.424" height="4.14132" fill="#27A463"/>
<rect x="512.939" y="246.565" width="8.28263" height="4.14132" fill="#27A463"/>
<rect x="512.939" y="250.706" width="4.14132" height="4.14132" fill="#27A463"/>
<rect x="521.221" y="250.706" width="16.5653" height="4.14132" fill="#27A463"/>
<rect x="517.08" y="254.847" width="16.5653" height="4.14132" fill="#27A463"/>
<rect x="517.08" y="258.989" width="16.5653" height="4.14132" fill="#27A463"/>
<rect x="517.08" y="263.13" width="12.424" height="4.14132" fill="#27A463"/>
<rect x="521.221" y="267.272" width="8.28263" height="4.14132" fill="#27A463"/>
<rect x="521.221" y="271.413" width="4.14132" height="4.14132" fill="#27A463"/>
<rect x="529.504" y="275.554" width="20.7066" height="8.28263" fill="#27A463"/>
<rect x="479.808" y="254.847" width="4.14132" height="4.14132" fill="#0ADC4D"/>
<rect x="483.95" y="250.706" width="4.14132" height="4.14132" fill="#0ADC4D"/>
<rect x="475.667" y="258.989" width="4.14132" height="4.14132" fill="#0ADC4D"/>
<rect x="471.526" y="263.13" width="4.14132" height="4.14132" fill="#0ADC4D"/>
<rect x="467.384" y="267.272" width="4.14132" height="4.14132" fill="#0ADC4D"/>
<rect x="463.243" y="271.413" width="4.14132" height="4.14132" fill="#0ADC4D"/>
<rect x="459.102" y="275.555" width="4.14132" height="4.14132" fill="#0ADC4D"/>
<rect x="454.961" y="279.696" width="4.14132" height="4.14132" fill="#0ADC4D"/>
<rect x="450.819" y="283.837" width="4.14132" height="4.14132" fill="#0ADC4D"/>
<rect x="446.677" y="287.978" width="4.14132" height="4.14132" fill="#0ADC4D"/>
<rect x="442.536" y="292.119" width="4.14132" height="4.14132" fill="#0ADC4D"/>
<rect x="438.395" y="296.261" width="4.14132" height="4.14132" fill="#0ADC4D"/>
<rect x="438.395" y="292.119" width="4.14132" height="4.14132" fill="#27A463"/>
<rect x="446.677" y="292.119" width="4.14132" height="8.28263" fill="#27A463"/>
<rect x="450.819" y="287.978" width="4.14132" height="12.424" fill="#27A463"/>
<rect x="467.384" y="287.978" width="4.14132" height="12.424" fill="#27A463"/>
<rect x="454.961" y="283.837" width="4.14132" height="16.5653" fill="#27A463"/>
<rect x="459.102" y="279.696" width="4.14132" height="16.5653" fill="#27A463"/>
<rect x="479.808" y="258.989" width="4.14132" height="16.5653" fill="#27A463"/>
<rect x="475.667" y="275.555" width="4.14132" height="20.7066" fill="#27A463"/>
<rect x="475.667" y="230" width="4.14132" height="24.8479" fill="#27A463"/>
<rect x="479.808" y="234.141" width="4.14132" height="20.7066" fill="#27A463"/>
<rect x="483.95" y="238.283" width="4.14132" height="12.424" fill="#27A463"/>
<rect x="471.526" y="230" width="4.14132" height="16.5653" fill="#27A463"/>
<rect x="467.384" y="230" width="4.14132" height="16.5653" fill="#27A463"/>
<rect x="463.243" y="234.141" width="4.14132" height="8.28263" fill="#27A463"/>
<rect x="459.102" y="238.283" width="4.14132" height="4.14132" fill="#27A463"/>
<rect x="488.091" y="271.413" width="4.14132" height="20.7066" fill="#27A463"/>
<rect x="483.95" y="267.272" width="4.14132" height="24.8479" fill="#27A463"/>
<rect x="463.243" y="275.555" width="4.14132" height="12.424" fill="#27A463"/>
<rect x="471.526" y="267.272" width="4.14132" height="33.1305" fill="#27A463"/>
<rect x="467.384" y="271.413" width="4.14132" height="8.28263" fill="#27A463"/>
<rect x="475.667" y="263.13" width="4.14132" height="8.28263" fill="#27A463"/>
<rect x="438.395" y="287.978" width="8.28263" height="4.14132" fill="#27A463"/>
<rect x="438.395" y="283.837" width="12.424" height="4.14132" fill="#27A463"/>
<rect x="438.395" y="279.696" width="16.5653" height="4.14132" fill="#27A463"/>
<rect x="442.536" y="275.555" width="16.5653" height="4.14132" fill="#27A463"/>
<rect x="450.819" y="271.413" width="12.424" height="4.14132" fill="#27A463"/>
<rect x="459.102" y="267.272" width="8.28263" height="4.14132" fill="#27A463"/>
<rect x="467.384" y="258.989" width="8.28263" height="4.14132" fill="#27A463"/>
<rect x="463.243" y="254.847" width="16.5653" height="4.14132" fill="#27A463"/>
<rect x="446.677" y="250.706" width="24.8479" height="4.14132" fill="#27A463"/>
<rect x="446.677" y="246.565" width="20.7066" height="4.14132" fill="#27A463"/>
<rect x="438.395" y="267.272" width="12.424" height="4.14132" fill="#27A463"/>
<rect x="438.395" y="271.413" width="4.14132" height="4.14132" fill="#27A463"/>
<rect x="442.536" y="254.847" width="4.14132" height="4.14132" fill="#27A463"/>
<rect x="438.395" y="263.13" width="33.1305" height="4.14132" fill="#27A463"/>
<rect x="442.536" y="258.989" width="20.7066" height="4.14132" fill="#27A463"/>
<rect x="442.536" y="296.261" width="4.14132" height="4.14132" fill="#27A463"/>
<rect x="463.243" y="296.261" width="4.14132" height="4.14132" fill="#27A463"/>
<rect x="479.808" y="292.119" width="4.14132" height="4.14132" fill="#27A463"/>
<rect x="492.232" y="279.696" width="4.14132" height="4.14132" fill="#27A463"/>
<rect x="454.961" y="242.424" width="4.14132" height="4.14132" fill="#27A463"/>
<rect x="483.95" y="258.989" width="24.8479" height="4.14132" fill="#27A463"/>
<rect x="483.95" y="254.847" width="20.7066" height="4.14132" fill="#27A463"/>
<rect x="488.091" y="250.706" width="12.424" height="4.14132" fill="#27A463"/>
<rect x="492.232" y="263.13" width="16.5653" height="4.14132" fill="#27A463"/>
<rect x="492.232" y="267.272" width="16.5653" height="4.14132" fill="#27A463"/>
<rect x="496.373" y="271.413" width="8.28263" height="4.14132" fill="#27A463"/>
<rect x="496.373" y="275.555" width="4.14132" height="4.14132" fill="#27A463"/>
<rect x="504.656" y="271.413" width="4.14132" height="8.28263" fill="#0ADC4D"/>
<rect x="508.798" y="275.554" width="4.14132" height="12.424" fill="#0ADC4D"/>
<rect x="512.939" y="283.837" width="4.14132" height="33.1305" fill="#0ADC4D"/>
<rect x="517.08" y="296.261" width="4.14132" height="20.7066" fill="#0ADC4D"/>
<rect x="521.221" y="283.837" width="4.14132" height="12.424" fill="#0ADC4D"/>
<rect x="525.363" y="271.413" width="4.14132" height="12.424" fill="#0ADC4D"/>
<rect x="529.504" y="263.131" width="4.14132" height="8.28263" fill="#0ADC4D"/>
<rect x="533.645" y="254.848" width="4.14132" height="4.14132" fill="#0ADC4D"/>
<rect x="508.798" y="308.685" width="4.14132" height="8.28263" fill="#068940"/>
<rect x="504.656" y="300.402" width="4.14132" height="8.28263" fill="#068940"/>
<rect x="500.515" y="287.978" width="4.14132" height="12.424" fill="#068940"/>
<rect x="496.373" y="279.696" width="4.14132" height="8.28263" fill="#068940"/>
<rect x="492.232" y="271.413" width="4.14132" height="4.14132" fill="#068940"/>
<rect x="479.808" y="221.717" width="4.14132" height="12.424" fill="#068940"/>
<rect x="488.091" y="316.968" width="53.8371" height="16.5653" fill="#FFF0EE"/>
<rect x="492.232" y="333.533" width="45.5545" height="16.5653" fill="#FFF0EE"/>
<rect x="496.373" y="350.098" width="37.2719" height="16.5653" fill="#FFF0EE"/>
<path d="M18.94 16.7226H57.554C69.25 16.7226 78.796 26.3546 78.796 38.0506C78.796 50.6066 69.25 60.1526 57.554 60.1526H48.094V78.4706C48.094 78.9866 47.664 79.4166 47.148 79.4166H18.94C18.424 79.4166 18.08 79.1586 18.08 78.6426V17.6686C18.08 17.1526 18.338 16.7226 18.94 16.7226ZM47.148 35.9866V41.3186H48.61C50.158 41.3186 51.362 40.2006 51.362 38.6526C51.362 37.1906 50.158 35.9866 48.61 35.9866H47.148ZM131.836 57.0566L146.456 78.1266C146.628 78.3846 146.628 78.7286 146.456 78.9866C146.284 79.2446 146.026 79.4166 145.682 79.4166H117.216C116.958 79.4166 116.7 79.3306 116.528 79.0726L111.454 71.9346V78.5566C111.454 79.0726 111.11 79.4166 110.594 79.4166H85.2238C84.7078 79.4166 84.3638 79.0726 84.3638 78.5566V17.5826C84.3638 17.0666 84.7078 16.7226 85.2238 16.7226H122.978C135.448 16.7226 144.478 25.2366 144.478 37.7066C144.478 46.0486 139.404 53.7886 131.836 57.0566ZM111.712 35.0406V40.3726H113.174C114.722 40.3726 116.012 39.1686 116.012 37.7066C116.012 36.2446 114.722 35.0406 113.174 35.0406H111.712ZM152.999 16.7226H212.683C213.199 16.7226 213.543 16.9806 213.543 17.5826V34.6966C213.543 35.2986 213.199 35.5566 212.683 35.5566H181.035V38.6526H201.417C201.933 38.6526 202.191 38.9106 202.191 39.5126V56.7126C202.191 57.3146 201.933 57.5726 201.417 57.5726H181.035V60.6686H212.683C213.199 60.6686 213.543 60.9266 213.543 61.4426V78.5566C213.543 79.1586 213.199 79.4166 212.683 79.4166H152.999C152.483 79.4166 152.139 79.0726 152.139 78.6426V17.5826C152.139 17.1526 152.483 16.7226 152.999 16.7226ZM220.019 16.7226H248.657C265.857 16.7226 279.875 30.8266 279.875 48.1126C279.875 65.3126 265.857 79.4166 248.571 79.4166H220.019C219.503 79.4166 219.159 79.0726 219.159 78.6426V17.5826C219.159 17.1526 219.503 16.7226 220.019 16.7226ZM246.851 44.9306V51.0366H248.571C250.291 51.0366 251.667 49.7466 251.667 48.0266C251.667 46.3066 250.291 44.9306 248.571 44.9306H246.851ZM300.126 47.1666C291.612 47.1666 284.646 40.2866 284.646 31.7726C284.646 23.2586 291.612 16.7226 300.126 16.7226C308.726 16.7226 315.606 23.2586 315.606 31.7726C315.606 40.2866 308.726 47.1666 300.126 47.1666ZM285.936 48.9726H314.316C314.746 48.9726 315.176 49.4026 315.176 49.8326V78.5566C315.176 79.0726 314.746 79.4166 314.316 79.4166H285.936C285.506 79.4166 285.076 79.0726 285.076 78.5566V49.8326C285.076 49.4026 285.506 48.9726 285.936 48.9726ZM382.938 45.8766C382.938 46.3066 382.594 46.7366 382.078 46.7366H355.332C355.074 46.7366 354.816 46.5646 354.644 46.3066C353.956 45.2746 352.924 44.6726 351.72 44.6726C349.828 44.6726 348.28 46.2206 348.28 48.1126C348.28 50.0046 349.828 51.5526 351.72 51.5526C352.924 51.5526 353.956 50.8646 354.644 49.8326C354.816 49.5746 355.074 49.4886 355.332 49.4886H382.078C382.594 49.4886 382.938 49.9186 382.938 50.3486C382.938 66.6026 368.06 79.4166 351.72 79.4166C334.434 79.4166 320.33 65.3986 320.33 48.1126C320.33 30.8266 334.434 16.7226 351.72 16.7226C367.974 16.7226 382.938 29.6226 382.938 45.8766ZM388.039 16.7226H448.927C449.357 16.7226 449.701 17.0666 449.701 17.4966V47.6826C449.701 48.1126 449.357 48.4566 448.927 48.4566H433.275V78.6426C433.275 79.0726 432.845 79.4166 432.415 79.4166H404.465C404.035 79.4166 403.691 79.0726 403.691 78.6426V48.4566H388.039C387.609 48.4566 387.265 48.1126 387.265 47.6826V17.4966C387.265 17.0666 387.609 16.7226 388.039 16.7226ZM469.943 47.1666C461.429 47.1666 454.463 40.2866 454.463 31.7726C454.463 23.2586 461.429 16.7226 469.943 16.7226C478.543 16.7226 485.423 23.2586 485.423 31.7726C485.423 40.2866 478.543 47.1666 469.943 47.1666ZM455.753 48.9726H484.133C484.563 48.9726 484.993 49.4026 484.993 49.8326V78.5566C484.993 79.0726 484.563 79.4166 484.133 79.4166H455.753C455.323 79.4166 454.893 79.0726 454.893 78.5566V49.8326C454.893 49.4026 455.323 48.9726 455.753 48.9726ZM521.708 16.7226C539.166 16.7226 553.27 30.6546 553.27 48.1126C553.27 65.5706 539.166 79.4166 521.708 79.4166C504.25 79.4166 490.146 65.5706 490.146 48.1126C490.146 30.6546 504.25 16.7226 521.708 16.7226ZM521.708 51.1226C523.342 51.1226 524.718 49.8326 524.718 48.1126C524.718 46.4786 523.342 45.1026 521.708 45.1026C520.074 45.1026 518.698 46.4786 518.698 48.1126C518.698 49.8326 520.074 51.1226 521.708 51.1226ZM588.544 47.8546V78.6426C588.544 79.0726 588.114 79.4166 587.684 79.4166H559.734C559.304 79.4166 558.96 79.0726 558.96 78.6426V17.5826C558.96 17.0666 559.304 16.7226 559.734 16.7226H587.856C588.372 16.7226 588.716 16.9806 588.802 17.4966L592.672 47.5966C592.672 47.7686 592.844 47.7686 592.844 47.5966V17.5826C592.844 17.0666 593.188 16.7226 593.618 16.7226H621.568C621.998 16.7226 622.428 17.0666 622.428 17.5826V78.6426C622.428 79.0726 621.998 79.4166 621.568 79.4166H593.36C593.016 79.3306 592.758 78.9866 592.672 78.6426L588.716 47.8546C588.716 47.6826 588.544 47.6826 588.544 47.8546ZM91.8608 157.417H62.8929C62.4003 157.417 62.3018 157.417 62.1047 156.825L54.2223 131.405C54.0252 130.715 53.5326 130.419 53.0399 130.419C52.4488 130.419 52.0546 131.011 52.0546 131.503V156.53C52.0546 157.023 51.6605 157.417 51.1679 157.417H19.4412C18.9485 157.417 18.5544 157.023 18.5544 156.53V86.5736C18.5544 85.9824 18.9485 85.5883 19.4412 85.5883H70.9724C71.465 85.5883 71.6621 85.8838 71.8592 86.5736L76.3915 102.338C76.5886 102.93 76.9827 103.127 77.4754 103.127C77.968 103.127 78.3621 102.93 78.5592 102.338L82.8945 86.5736C83.0916 85.8838 83.2886 85.5883 83.7813 85.5883H135.312C135.805 85.5883 136.199 85.9824 136.199 86.5736V156.53C136.199 157.023 135.805 157.417 135.312 157.417H103.586C103.093 157.417 102.699 157.023 102.699 156.53V131.503C102.699 131.011 102.305 130.419 101.714 130.419C101.221 130.419 100.728 130.715 100.531 131.405L92.649 156.825C92.4519 157.417 92.3534 157.417 91.8608 157.417ZM199.048 86.1794L222.99 156.136C223.286 156.924 222.892 157.417 222.104 157.417H189.884C189.195 157.417 188.899 157.023 188.702 156.431L186.83 150.815H177.962L176.09 156.431C175.893 157.023 175.597 157.417 174.908 157.417H142.59C141.802 157.417 141.407 156.924 141.703 156.136L165.843 86.1794C166.04 85.7853 166.336 85.5883 166.828 85.5883H198.161C198.555 85.5883 198.949 85.7853 199.048 86.1794ZM179.342 146.677H185.45L182.396 137.218L179.342 146.677ZM283.88 131.799L300.63 155.939C300.827 156.234 300.827 156.628 300.63 156.924C300.433 157.22 300.137 157.417 299.743 157.417H267.129C266.834 157.417 266.538 157.318 266.341 157.023L260.528 148.845V156.431C260.528 157.023 260.134 157.417 259.543 157.417H230.476C229.885 157.417 229.491 157.023 229.491 156.431V86.5736C229.491 85.9824 229.885 85.5883 230.476 85.5883H273.731C288.018 85.5883 298.363 95.3427 298.363 109.63C298.363 119.187 292.55 128.055 283.88 131.799ZM260.824 106.575V112.684H262.499C264.272 112.684 265.75 111.305 265.75 109.63C265.75 107.955 264.272 106.575 262.499 106.575H260.824ZM307.141 85.5883H339.656C340.247 85.5883 340.641 86.0809 340.641 86.5736V110.812H343.203L353.352 86.5736C353.647 85.9824 353.844 85.5883 354.633 85.5883H387.936C388.625 85.5883 388.822 85.8838 388.428 86.7706L373.846 121.65L388.428 156.234C388.822 157.121 388.625 157.417 387.936 157.417H354.534C353.746 157.417 353.549 157.023 353.253 156.431L343.4 132.883H340.641V156.431C340.641 157.023 340.247 157.417 339.656 157.417H307.141C306.55 157.417 306.156 157.023 306.156 156.431V86.5736C306.156 85.8838 306.55 85.5883 307.141 85.5883ZM395.976 85.5883H464.356C464.947 85.5883 465.341 85.8838 465.341 86.5736V106.181C465.341 106.871 464.947 107.166 464.356 107.166H428.097V110.713H451.448C452.039 110.713 452.335 111.009 452.335 111.699V131.405C452.335 132.094 452.039 132.39 451.448 132.39H428.097V135.937H464.356C464.947 135.937 465.341 136.233 465.341 136.824V156.431C465.341 157.121 464.947 157.417 464.356 157.417H395.976C395.385 157.417 394.991 157.023 394.991 156.53V86.5736C394.991 86.0809 395.385 85.5883 395.976 85.5883ZM472.146 85.5883H541.905C542.398 85.5883 542.792 85.9824 542.792 86.475V121.059C542.792 121.552 542.398 121.946 541.905 121.946H523.973V156.53C523.973 157.023 523.48 157.417 522.987 157.417H490.965C490.472 157.417 490.078 157.023 490.078 156.53V121.946H472.146C471.653 121.946 471.259 121.552 471.259 121.059V86.475C471.259 85.9824 471.653 85.5883 472.146 85.5883ZM583.225 134.262C583.225 136.036 584.309 136.922 586.083 136.922C587.561 136.922 588.743 135.839 588.743 134.558C588.743 132.784 587.265 131.7 584.999 131.7C563.027 131.602 547.754 124.508 547.754 109.334C547.754 95.4413 565.884 85.5883 585.294 85.5883C604.606 85.5883 621.75 93.4707 621.75 108.25C621.75 108.841 621.258 109.334 620.568 109.334H588.94C588.152 109.334 587.561 108.841 587.561 107.955C587.561 106.575 586.28 105.688 584.802 105.688C583.225 105.688 581.944 106.772 581.944 108.053C581.944 108.743 582.141 110.516 584.703 110.516C609.434 110.516 622.44 119.483 622.44 134.558C622.44 148.647 609.434 157.417 584.802 157.417C565.293 157.417 548.247 149.337 548.247 134.262C548.247 133.671 548.74 133.178 549.429 133.178H582.043C582.733 133.178 583.225 133.671 583.225 134.262Z" fill="#8CD9DA"/>
<rect x="147.833" y="291.164" width="166.801" height="14.8016" fill="#FF9729"/>
<rect x="155.414" y="305.965" width="151.637" height="7.40082" fill="#B4521C"/>
<rect x="155.414" y="313.366" width="151.637" height="118.413" fill="#F97932"/>
<rect x="216.069" y="320.767" width="30.3274" height="7.40082" fill="black"/>
<rect x="164.661" y="291.164" width="6.97946" height="62.8151" transform="rotate(-90 164.661 291.164)" fill="white"/>
<rect width="13.9589" height="76.774" transform="matrix(0 -1 -1 0 234.456 284.184)" fill="#5A423F"/>
<rect x="178.62" y="291.164" width="6.97946" height="62.8151" transform="rotate(-90 178.62 291.164)" fill="#E4A499"/>
<path fill-rule="evenodd" clip-rule="evenodd" d="M220.497 235.328H213.518V242.307H220.497V235.328ZM241.436 284.185H248.415V291.164H255.395V284.184H262.374V277.205H255.395H255.395V270.226H248.415V263.246H241.436V256.266H234.456V249.287H227.477V242.307H220.497H213.518H206.538V249.287H213.518V256.266H220.497V263.246H227.477V270.225H234.456V277.205H241.436V284.185Z" fill="#34AC80"/>
<rect x="185.6" y="256.266" width="34.8973" height="13.9589" fill="#5648ED"/>
<rect x="178.62" y="256.266" width="6.97946" height="13.9589" fill="white"/>
<rect x="454.672" y="316.514" width="18" height="6.00001" fill="#7E5243"/>
<rect x="472.672" y="316.514" width="90.0001" height="6.00001" fill="#8F785E"/>
<rect x="562.672" y="316.514" width="5.99962" height="5.99962" fill="#5A423F"/>
<rect x="448.672" y="322.514" width="24" height="6.00001" fill="#7E5243"/>
<rect x="472.672" y="322.514" width="90.0001" height="6.00001" fill="#8F785E"/>
<rect x="562.672" y="322.514" width="5.99962" height="5.99962" fill="#5A423F"/>
<rect x="442.672" y="328.514" width="24" height="6.00001" fill="#7E5243"/>
<rect x="466.672" y="328.514" width="5.99962" height="5.99962" fill="#5A423F"/>
<rect x="472.672" y="328.514" width="90.0001" height="6.00001" fill="#8F785E"/>
<rect x="562.672" y="328.514" width="11.9992" height="5.99962" fill="#5A423F"/>
<rect x="442.672" y="334.514" width="24" height="6.00001" fill="#7E5243"/>
<rect x="466.672" y="334.514" width="5.99962" height="5.99962" fill="#5A423F"/>
<rect x="472.672" y="334.514" width="90.0001" height="6.00001" fill="#8F785E"/>
<rect x="562.672" y="334.514" width="11.9992" height="5.99962" fill="#5A423F"/>
<rect x="436.672" y="340.514" width="24" height="6.00001" fill="#7E5243"/>
<rect x="460.672" y="340.514" width="11.9992" height="5.99962" fill="#5A423F"/>
<rect x="472.672" y="340.514" width="90.0001" height="6.00001" fill="#8F785E"/>
<rect x="562.672" y="340.514" width="11.9992" height="5.99962" fill="#5A423F"/>
<rect x="430.672" y="346.514" width="30" height="6.00001" fill="#7E5243"/>
<rect x="460.672" y="346.514" width="11.9992" height="5.99962" fill="#5A423F"/>
<rect x="472.672" y="346.514" width="90.0001" height="6.00001" fill="#8F785E"/>
<rect x="562.672" y="346.514" width="18" height="6.00001" fill="#5A423F"/>
<rect x="454.672" y="352.514" width="18" height="6.00001" fill="#5A423F"/>
<rect x="472.672" y="352.514" width="90.0001" height="6.00001" fill="#8F785E"/>
<rect x="562.672" y="352.514" width="18" height="6.00001" fill="#5A423F"/>
<rect x="454.672" y="358.514" width="18" height="6.00001" fill="#5A423F"/>
<rect x="472.672" y="358.514" width="90.0001" height="6.00001" fill="#8F785E"/>
<rect x="454.672" y="364.514" width="18" height="6.00001" fill="#5A423F"/>
<rect x="472.672" y="364.514" width="90.0001" height="6.00001" fill="#8F785E"/>
<rect x="454.672" y="370.514" width="11.9992" height="5.99962" fill="#8F785E"/>
<rect x="466.672" y="370.514" width="5.99962" height="5.99962" fill="#5A423F"/>
<rect x="472.672" y="370.514" width="90.0001" height="6.00001" fill="#8F785E"/>
<rect x="454.672" y="376.514" width="11.9992" height="5.99962" fill="#8F785E"/>
<rect x="466.672" y="376.514" width="5.99962" height="5.99962" fill="#5A423F"/>
<rect x="472.672" y="376.514" width="90.0001" height="6.00001" fill="#8F785E"/>
<rect x="454.672" y="382.514" width="11.9992" height="5.99962" fill="#8F785E"/>
<rect x="466.672" y="382.514" width="5.99962" height="5.99962" fill="#5A423F"/>
<rect x="472.672" y="382.514" width="30" height="6.00001" fill="#8F785E"/>
<rect x="502.672" y="382.514" width="60.0001" height="6.00001" fill="#C5B9A1"/>
<rect x="454.672" y="388.514" width="18" height="6.00001" fill="#5A423F"/>
<rect x="472.672" y="388.514" width="30" height="6.00001" fill="#8F785E"/>
<rect x="502.672" y="388.514" width="60.0001" height="6.00001" fill="#C5B9A1"/>
<rect x="454.672" y="394.514" width="18" height="6.00001" fill="#5A423F"/>
<rect x="472.672" y="394.514" width="30" height="6.00001" fill="#8F785E"/>
<rect x="502.672" y="394.514" width="60.0001" height="6.00001" fill="#C5B9A1"/>
<path d="M114.864 141.746H112.814V143.796V146.125H106.106H104.056V148.175V150.504H101.727H99.6769V152.554V154.883H97.3476H95.2978V156.933V163.642H92.9686H90.9187V165.691V191.966V194.016H92.9686H95.2978V200.724V202.774H97.3476H99.6769V205.103V207.153H101.727H104.056V209.482V211.532H106.106H112.814V213.861V215.911H114.864H141.138H143.188V213.861V211.532H149.897H151.946V209.482V207.153H154.276H156.325V205.103V202.774H158.655H160.705V200.724V194.016H163.034H165.084V191.966V165.691V163.642H163.034H160.705V156.933V154.883H158.655H156.325V152.554V150.504H154.276H151.946V148.175V146.125H149.897H143.188V143.796V141.746H141.138H114.864Z" stroke="black" stroke-opacity="0.1" stroke-width="4.09964"/>
<path d="M114.864 137.367H112.814V139.417V141.746H106.106H104.056V143.796V146.125H101.727H99.6768V148.175V150.504H97.3476H95.2978V152.554V159.262H92.9685H90.9187V161.312V187.586V189.636H92.9685H95.2978V196.345V198.394H97.3476H99.6768V200.724V202.774H101.727H104.056V205.103V207.153H106.106H112.814V209.482V211.532H114.864H141.138H143.188V209.482V207.153H149.897H151.946V205.103V202.774H154.276H156.325V200.724V198.394H158.655H160.705V196.345V189.636H163.034H165.084V187.586V161.312V159.262H163.034H160.705V152.554V150.504H158.655H156.325V148.175V146.125H154.276H151.946V143.796V141.746H149.897H143.188V139.417V137.367H141.138H114.864Z" fill="white" stroke="#3A085B" stroke-width="4.09964"/>
<rect x="128.001" y="161.312" width="4.37908" height="13.1372" fill="black"/>
<rect x="128.001" y="161.312" width="4.37908" height="13.1372" fill="black"/>
<rect x="132.38" y="148.175" width="4.37908" height="13.1372" fill="black"/>
<rect x="132.38" y="148.175" width="4.37908" height="13.1372" fill="black"/>
<rect x="123.622" y="174.449" width="4.37908" height="4.37908" fill="black"/>
<rect x="119.243" y="174.449" width="4.37908" height="4.37908" fill="black"/>
<rect x="110.485" y="178.828" width="8.75816" height="4.37908" fill="black"/>
<path d="M301.862 192.417H270.751V197.602H301.862V192.417Z" fill="#F938D8"/>
<path d="M270.751 197.602H260.381V202.787H270.751V197.602Z" fill="#F938D8"/>
<path d="M301.862 197.602H270.751V202.787H301.862V197.602Z" fill="#410D66"/>
<path d="M312.232 197.602H301.862V202.787H312.232V197.602Z" fill="#F938D8"/>
<path d="M260.381 202.787H255.196V207.972H260.381V202.787Z" fill="#F938D8"/>
<path d="M312.232 202.787H260.381V207.972H312.232V202.787Z" fill="#410D66"/>
<path d="M317.417 202.787H312.232V207.972H317.417V202.787Z" fill="#F938D8"/>
<path d="M255.196 207.971H250.011V213.156H255.196V207.971Z" fill="#F938D8"/>
<path d="M291.492 207.971H255.196V213.156H291.492V207.971Z" fill="#410D66"/>
<path d="M296.677 207.971H291.492V213.156H296.677V207.971Z" fill="#F938D8"/>
<path d="M317.417 207.971H296.677V213.156H317.417V207.971Z" fill="#410D66"/>
<path d="M322.602 207.971H317.417V213.156H322.602V207.971Z" fill="#F938D8"/>
<path d="M250.011 213.157H244.826V218.342H250.011V213.157Z" fill="#F938D8"/>
<path d="M265.566 213.157H250.011V218.342H265.566V213.157Z" fill="#410D66"/>
<path d="M270.751 213.157H265.566V218.342H270.751V213.157Z" fill="#F938D8"/>
<path d="M322.602 213.157H270.751V218.342H322.602V213.157Z" fill="#410D66"/>
<path d="M327.787 213.157H322.602V218.342H327.787V213.157Z" fill="#F938D8"/>
<path d="M244.826 218.342H239.641V223.527H244.826V218.342Z" fill="#F938D8"/>
<path d="M260.381 218.342H244.826V223.527H260.381V218.342Z" fill="#410D66"/>
<path d="M265.566 218.342H260.381V223.527H265.566V218.342Z" fill="#F938D8"/>
<path d="M270.751 218.342H265.566V223.527H270.751V218.342Z" fill="#410D66"/>
<path d="M275.936 218.342H270.751V223.527H275.936V218.342Z" fill="#F938D8"/>
<path d="M301.861 218.342H275.936V223.527H301.861V218.342Z" fill="#410D66"/>
<path d="M307.047 218.342H301.862V223.527H307.047V218.342Z" fill="#F938D8"/>
<path d="M327.787 218.342H307.047V223.527H327.787V218.342Z" fill="#410D66"/>
<path d="M332.972 218.342H327.787V223.527H332.972V218.342Z" fill="#F938D8"/>
<path d="M244.826 223.527H239.641V228.712H244.826V223.527Z" fill="#F938D8"/>
<path d="M265.566 223.527H244.826V228.712H265.566V223.527Z" fill="#410D66"/>
<path d="M270.751 223.527H265.566V228.712H270.751V223.527Z" fill="#F938D8"/>
<path d="M296.677 223.527H270.751V228.712H296.677V223.527Z" fill="#410D66"/>
<path d="M312.232 223.527H296.677V228.712H312.232V223.527Z" fill="#F938D8"/>
<path d="M327.787 223.527H312.232V228.712H327.787V223.527Z" fill="#410D66"/>
<path d="M332.972 223.527H327.787V228.712H332.972V223.527Z" fill="#F938D8"/>
<path d="M239.641 228.712H234.456V233.897H239.641V228.712Z" fill="#F938D8"/>
<path d="M301.862 228.712H239.641V233.897H301.862V228.712Z" fill="#410D66"/>
<path d="M307.047 228.712H301.862V233.897H307.047V228.712Z" fill="#F938D8"/>
<path d="M332.972 228.712H307.047V233.897H332.972V228.712Z" fill="#410D66"/>
<path d="M338.157 228.712H332.972V233.897H338.157V228.712Z" fill="#F938D8"/>
<path d="M239.641 233.897H234.456V239.082H239.641V233.897Z" fill="#F938D8"/>
<path d="M275.936 233.897H239.641V239.082H275.936V233.897Z" fill="#410D66"/>
<path d="M281.121 233.897H275.936V239.082H281.121V233.897Z" fill="#F938D8"/>
<path d="M332.972 233.897H281.122V239.082H332.972V233.897Z" fill="#410D66"/>
<path d="M338.157 233.897H332.972V239.082H338.157V233.897Z" fill="#F938D8"/>
<path d="M239.641 239.082H234.456V244.267H239.641V239.082Z" fill="#F938D8"/>
<path d="M332.972 239.082H239.641V244.267H332.972V239.082Z" fill="#410D66"/>
<path d="M338.157 239.082H332.972V244.267H338.157V239.082Z" fill="#F938D8"/>
<path d="M239.641 244.267H234.456V249.452H239.641V244.267Z" fill="#F938D8"/>
<path d="M332.972 244.267H239.641V249.452H332.972V244.267Z" fill="#410D66"/>
<path d="M338.157 244.267H332.972V249.452H338.157V244.267Z" fill="#F938D8"/>
<path d="M239.641 249.452H234.456V254.637H239.641V249.452Z" fill="#F938D8"/>
<path d="M332.972 249.452H239.641V254.637H332.972V249.452Z" fill="#410D66"/>
<path d="M338.157 249.452H332.972V254.637H338.157V249.452Z" fill="#F938D8"/>
<path d="M239.641 254.637H234.456V259.822H239.641V254.637Z" fill="#F938D8"/>
<path d="M332.972 254.637H239.641V259.822H332.972V254.637Z" fill="#410D66"/>
<path d="M338.157 254.637H332.972V259.822H338.157V254.637Z" fill="#F938D8"/>
<path d="M244.826 259.822H239.641V265.007H244.826V259.822Z" fill="#F938D8"/>
<path d="M327.787 259.822H244.826V265.007H327.787V259.822Z" fill="#410D66"/>
<path d="M332.972 259.822H327.787V265.007H332.972V259.822Z" fill="#F938D8"/>
<path d="M244.826 265.007H239.641V270.192H244.826V265.007Z" fill="#F938D8"/>
<path d="M327.787 265.007H244.826V270.192H327.787V265.007Z" fill="#410D66"/>
<path d="M332.972 265.007H327.787V270.192H332.972V265.007Z" fill="#F938D8"/>
<path d="M250.011 270.192H244.826V275.377H250.011V270.192Z" fill="#F938D8"/>
<path d="M322.602 270.192H250.011V275.377H322.602V270.192Z" fill="#410D66"/>
<path d="M327.787 270.192H322.602V275.377H327.787V270.192Z" fill="#F938D8"/>
<path d="M327.787 275.378H244.826V280.563H327.787V275.378Z" fill="#552D1D"/>
<path d="M270.752 280.563H244.826V285.748H270.752V280.563Z" fill="#552D1D"/>
<path d="M327.787 280.563H265.566V285.748H327.787V280.563Z" fill="#552D1D"/>
<path d="M327.787 285.748H244.826V290.933H327.787V285.748Z" fill="#552D1D"/>
<path d="M323.637 291.131L327.833 291.131L327.833 275.353L323.637 275.353L323.637 291.131Z" fill="black"/>
<path d="M244.84 291.131L249.037 291.131L249.037 275.353L244.84 275.353L244.84 291.131Z" fill="black"/>
<path d="M244.761 286.912L244.761 291.164L327.791 291.164L327.791 286.912L244.761 286.912Z" fill="black"/>
<path d="M244.761 275.379L244.761 279.63L327.791 279.63L327.791 275.379L244.761 275.379Z" fill="black"/>
<path d="M375.437 218.64H360.932V223.475H375.437V218.64Z" fill="#F78A18"/>
<path d="M360.932 223.474H356.097V228.309H360.932V223.474Z" fill="#F78A18"/>
<path d="M375.437 223.474H360.932V228.309H375.437V223.474Z" fill="#FFD067"/>
<path d="M380.272 223.474H375.437V228.309H380.272V223.474Z" fill="#F78A18"/>
<path d="M414.117 223.474H404.447V228.309H414.117V223.474Z" fill="#D233B7"/>
<path d="M356.098 228.309H341.593V233.144H356.098V228.309Z" fill="#FA6FE2"/>
<path d="M360.932 228.309H356.097V233.144H360.932V228.309Z" fill="#FFAE1A"/>
<path d="M375.437 228.309H360.932V233.144H375.437V228.309Z" fill="#FFD067"/>
<path d="M380.272 228.309H375.437V233.144H380.272V228.309Z" fill="#FFAE1A"/>
<path d="M389.942 228.309H380.272V233.144H389.942V228.309Z" fill="#FA6FE2"/>
<path d="M404.447 228.309H399.612V233.144H404.447V228.309Z" fill="#D233B7"/>
<path d="M409.282 228.309H404.447V233.144H409.282V228.309Z" fill="#FA6FE2"/>
<path d="M414.117 228.309H409.282V233.144H414.117V228.309Z" fill="#D233B7"/>
<path d="M341.592 233.145H331.922V237.98H341.592V233.145Z" fill="#D233B7"/>
<path d="M389.958 228.296H380.288V233.162H389.958V228.296Z" fill="#D233B7"/>
<path d="M356.131 228.311H341.522V233.146H356.131V228.311Z" fill="#D233B7"/>
<path d="M351.263 233.145H341.593V237.98H351.263V233.145Z" fill="#FA6FE2"/>
<path d="M356.098 233.145H351.263V237.98H356.098V233.145Z" fill="#D233B7"/>
<path d="M380.272 233.145H356.097V237.98H380.272V233.145Z" fill="#D233B7"/>
<path d="M385.107 233.145H380.272V237.98H385.107V233.145Z" fill="#D233B7"/>
<path d="M394.777 233.145H385.107V237.98H394.777V233.145Z" fill="#FA6FE2"/>
<path d="M399.612 233.145H389.915V237.98H399.612V233.145Z" fill="#D233B7"/>
<path d="M409.282 233.145H399.612V237.98H409.282V233.145Z" fill="#FA6FE2"/>
<path d="M414.117 233.145H409.282V237.98H414.117V233.145Z" fill="#D233B7"/>
<path d="M331.922 237.98H327.087V242.815H331.922V237.98Z" fill="#D233B7"/>
<path d="M409.282 237.98H331.922V242.815H409.282V237.98Z" fill="#FA6FE2"/>
<path d="M414.117 237.98H409.282V242.815H414.117V237.98Z" fill="#D233B7"/>
<path d="M317.418 242.815H312.583V247.65H317.418V242.815Z" fill="#D233B7"/>
<path d="M336.758 242.815H322.253V247.65H336.758V242.815Z" fill="#FA6FE2"/>
<path d="M341.592 242.815H336.758V247.65H341.592V242.815Z" fill="white"/>
<path d="M414.117 242.815H341.593V247.65H414.117V242.815Z" fill="#FA6FE2"/>
<path d="M418.952 242.815H414.117V247.65H418.952V242.815Z" fill="#D233B7"/>
<path d="M312.583 247.649H307.748V252.484H312.583V247.649Z" fill="#D233B7"/>
<path d="M418.952 247.649H322.253V252.484H418.952V247.649Z" fill="#FA6FE2"/>
<path d="M423.786 247.649H418.951V252.484H423.786V247.649Z" fill="#D233B7"/>
<path d="M312.583 252.484H307.748V257.319H312.583V252.484Z" fill="#D233B7"/>
<path d="M409.282 252.484H317.418V257.319H409.282V252.484Z" fill="#FA6FE2"/>
<path d="M414.117 252.484H409.282V257.319H414.117V252.484Z" fill="#9F21A0"/>
<path d="M418.952 252.484H414.117V257.319H418.952V252.484Z" fill="#FA6FE2"/>
<path d="M433.456 252.484H418.951V257.319H433.456V252.484Z" fill="#D233B7"/>
<path d="M312.583 257.319H307.748V262.154H312.583V257.319Z" fill="#D233B7"/>
<path d="M322.253 252.493H317.418V262.154H322.253V252.493Z" fill="#D233B7"/>
<path d="M428.622 257.319H322.253V262.154H428.622V257.319Z" fill="#FA6FE2"/>
<path d="M433.457 257.319H428.622V262.154H433.457V257.319Z" fill="#D233B7"/>
<path d="M322.253 262.154H312.583V266.989H322.253V262.154Z" fill="#D233B7"/>
<path d="M428.622 262.154H322.253V266.989H428.622V262.154Z" fill="#FA6FE2"/>
<path d="M433.457 262.154H428.622V266.989H433.457V262.154Z" fill="#D233B7"/>
<path d="M322.253 266.989H317.418V271.824H322.253V266.989Z" fill="#D233B7"/>
<path d="M418.952 266.989H322.253V271.824H418.952V266.989Z" fill="#FA6FE2"/>
<path d="M433.456 266.989H418.951V271.824H433.456V266.989Z" fill="#D233B7"/>
<path d="M327.088 271.824H317.418V276.659H327.088V271.824Z" fill="#D233B7"/>
<path d="M428.622 271.824H327.087V276.659H428.622V271.824Z" fill="#FA6FE2"/>
<path d="M433.457 271.824H428.622V276.659H433.457V271.824Z" fill="#D233B7"/>
<path d="M327.088 276.659H322.253V281.494H327.088V276.659Z" fill="#D233B7"/>
<path d="M423.787 276.659H327.087V281.494H423.787V276.659Z" fill="#FA6FE2"/>
<path d="M428.622 276.659H423.787V281.494H428.622V276.659Z" fill="#D233B7"/>
<path d="M336.758 281.494H322.253V286.329H336.758V281.494Z" fill="#D233B7"/>
<path d="M414.117 281.494H336.758V286.329H414.117V281.494Z" fill="#FA6FE2"/>
<path d="M423.787 281.494H414.117V286.329H423.787V281.494Z" fill="#D233B7"/>
<path d="M418.952 286.329H326.833V291.164H418.952V286.329Z" fill="#D233B7"/>
<path d="M327.092 242.834H322.257V252.543H327.092V242.834Z" fill="#D233B7"/>
<path d="M584.877 326.308H619.719V330.664H584.877V326.308Z" fill="#305ADE"/>
<path d="M597.943 330.663H624.075V335.019H597.943V330.663Z" fill="#305ADE"/>
<path d="M593.588 330.663H597.943V335.019H593.588V330.663Z" fill="#FFC925"/>
<path d="M576.167 330.663H593.588V335.019H576.167V330.663Z" fill="#305ADE"/>
<path d="M619.719 335.018H624.075V339.374H619.719V335.018Z" fill="#305ADE"/>
<path d="M602.298 335.018H611.008V339.374H602.298V335.018Z" fill="#305ADE"/>
<path d="M589.233 335.018H602.298V339.374H589.233V335.018Z" fill="#FFC925"/>
<path d="M571.812 335.018H589.233V339.374H571.812V335.018Z" fill="#305ADE"/>
<path d="M619.719 339.374H624.075V343.729H619.719V339.374Z" fill="#FFC925"/>
<path d="M597.943 339.374H606.653V343.729H597.943V339.374Z" fill="#305ADE"/>
<path d="M593.588 339.374H597.943V343.729H593.588V339.374Z" fill="#FFC925"/>
<path d="M567.457 339.374H593.588V343.729H567.457V339.374Z" fill="#305ADE"/>
<path d="M611.008 343.729H632.785V348.084H611.008V343.729Z" fill="#FFC925"/>
<path d="M584.877 343.729H602.298V348.084H584.877V343.729Z" fill="#305ADE"/>
<path d="M580.522 343.729H584.877V348.084H580.522V343.729Z" fill="#FFC925"/>
<path d="M563.101 343.729H580.522V348.084H563.101V343.729Z" fill="#305ADE"/>
<path d="M615.364 348.084H628.43V352.439H615.364V348.084Z" fill="#FFC925"/>
<path d="M589.232 348.084H597.943V352.439H589.232V348.084Z" fill="#305ADE"/>
<path d="M584.877 348.084H589.233V352.439H584.877V348.084Z" fill="#FFC925"/>
<path d="M580.522 348.084H584.877V352.439H580.522V348.084Z" fill="#305ADE"/>
<path d="M576.167 348.084H580.522V352.439H576.167V348.084Z" fill="#FFC925"/>
<path d="M571.812 348.084H576.167V352.439H571.812V348.084Z" fill="#305ADE"/>
<path d="M567.456 348.084H571.811V352.439H567.456V348.084Z" fill="#FFC925"/>
<path d="M558.746 348.084H567.457V352.439H558.746V348.084Z" fill="#305ADE"/>
<path d="M624.074 352.439H628.43V356.794H624.074V352.439Z" fill="#FFC925"/>
<path d="M615.364 352.439H619.719V356.794H615.364V352.439Z" fill="#FFC925"/>
<path d="M584.878 352.439H593.588V356.794H584.878V352.439Z" fill="#305ADE"/>
<path d="M580.522 352.439H584.877V356.794H580.522V352.439Z" fill="#FFC925"/>
<path d="M554.391 352.439H580.522V356.794H554.391V352.439Z" fill="#305ADE"/>
<path d="M550.036 356.795H593.588V361.15H550.036V356.795Z" fill="#305ADE"/>
<path d="M563.101 361.15H597.943V365.505H563.101V361.15Z" fill="#305ADE"/>
<path d="M558.746 361.15H563.101V365.505H558.746V361.15Z" fill="#FFC925"/>
<path d="M550.035 361.15H558.746V365.505H550.035V361.15Z" fill="#305ADE"/>
<path d="M593.588 365.505H597.943V369.86H593.588V365.505Z" fill="#305ADE"/>
<path d="M589.233 365.505H593.588V369.86H589.233V365.505Z" fill="#FFC925"/>
<path d="M567.456 365.505H589.233V369.86H567.456V365.505Z" fill="#305ADE"/>
<path d="M554.391 365.505H567.457V369.86H554.391V365.505Z" fill="#FFC925"/>
<path d="M545.68 365.505H554.391V369.86H545.68V365.505Z" fill="#305ADE"/>
<path d="M563.101 369.86H597.943V374.215H563.101V369.86Z" fill="#305ADE"/>
<path d="M558.746 369.86H563.101V374.215H558.746V369.86Z" fill="#FFC925"/>
<path d="M545.68 369.86H558.746V374.215H545.68V369.86Z" fill="#305ADE"/>
<path d="M580.522 374.216H597.943V378.571H580.522V374.216Z" fill="#305ADE"/>
<path d="M576.167 374.216H580.522V378.571H576.167V374.216Z" fill="#FFC925"/>
<path d="M545.68 374.216H576.167V378.571H545.68V374.216Z" fill="#305ADE"/>
<path d="M545.68 378.571H602.298V382.926H545.68V378.571Z" fill="#305ADE"/>
<path d="M545.68 382.926H606.653V387.281H545.68V382.926Z" fill="#305ADE"/>
<path d="M554.39 387.282H611.008V391.637H554.39V387.282Z" fill="#305ADE"/>
<path d="M550.035 387.282H558.746V391.637H550.035V387.282Z" fill="#305ADE"/>
<path d="M541.325 391.636H619.719V395.992H541.325V391.636Z" fill="#00499C"/>
<path d="M532.615 395.992H628.43V400.347H532.615V395.992Z" fill="#00499C"/>
<rect x="66.7317" y="370.911" width="73.4631" height="36.7316" fill="#E8705B"/>
<rect x="82.4736" y="349.922" width="5.24737" height="20.9895" fill="#80A72D"/>
<rect x="77.2264" y="334.18" width="5.24737" height="15.7421" fill="#80A72D"/>
<rect x="71.9792" y="323.685" width="5.24737" height="10.4947" fill="#80A72D"/>
<rect x="103.463" y="313.19" width="5.24737" height="10.4947" fill="#80A72D"/>
<rect x="66.7317" y="318.437" width="5.24737" height="5.24737" fill="#80A72D"/>
<rect width="5.24737" height="20.9895" transform="matrix(-1 0 0 1 113.958 349.922)" fill="#80A72D"/>
<rect width="5.24737" height="15.7421" transform="matrix(-1 0 0 1 119.205 334.18)" fill="#80A72D"/>
<rect width="5.24737" height="5.24737" transform="matrix(-1 0 0 1 124.453 328.932)" fill="#80A72D"/>
<rect width="5.24737" height="5.24737" transform="matrix(-1 0 0 1 129.7 323.685)" fill="#80A72D"/>
<rect x="108.71" y="307.943" width="5.24737" height="5.24737" fill="#80A72D"/>
<rect x="71.9792" y="365.663" width="5.24737" height="5.24737" fill="#80A72D"/>
<rect width="5.24737" height="5.24737" transform="matrix(-1 0 0 1 134.947 365.663)" fill="#80A72D"/>
<rect x="66.7317" y="360.416" width="5.24737" height="5.24737" fill="#80A72D"/>
<rect width="5.24737" height="5.24737" transform="matrix(-1 0 0 1 140.195 360.416)" fill="#80A72D"/>
<rect width="5.24737" height="5.24737" transform="matrix(-1 0 0 1 166.4 365.663)" fill="#80A72D"/>
<rect width="5.24737" height="5.24737" transform="matrix(-1 0 0 1 129.7 349.922)" fill="#80A72D"/>
<rect width="5.24737" height="5.24737" transform="matrix(-1 0 0 1 134.947 344.674)" fill="#80A72D"/>
<rect width="5.24737" height="5.24737" transform="matrix(-1 0 0 1 140.195 339.427)" fill="#80A72D"/>
<rect x="56.2368" y="355.169" width="10.4947" height="5.24737" fill="#80A72D"/>
<rect x="61.484" y="365.663" width="10.4947" height="5.24737" fill="#C4DA53"/>
<rect x="56.2368" y="349.922" width="10.4947" height="5.24737" fill="#C4DA53"/>
<rect x="50.9893" y="360.416" width="15.7421" height="5.24737" fill="#C4DA53"/>
<rect x="40.4947" y="355.169" width="15.7421" height="5.24737" fill="#C4DA53"/>
<rect x="35.2472" y="344.674" width="20.9895" height="5.24737" fill="#C4DA53"/>
<rect x="30" y="349.922" width="10.4947" height="5.24737" fill="#C4DA53"/>
<rect x="56.2368" y="307.943" width="5.24737" height="5.24737" fill="#C4DA53"/>
<rect x="124.453" y="344.674" width="5.24737" height="5.24737" fill="#C4DA53"/>
<rect x="129.7" y="360.416" width="5.24737" height="5.24737" fill="#C4DA53"/>
<rect x="134.947" y="355.169" width="5.24737" height="5.24737" fill="#C4DA53"/>
<rect x="161.184" y="360.416" width="5.24737" height="5.24737" fill="#C4DA53"/>
<rect x="166.432" y="365.663" width="5.24737" height="5.24737" fill="#C4DA53"/>
<rect x="161.184" y="370.911" width="5.24737" height="5.24737" fill="#C4DA53"/>
<rect x="134.947" y="365.663" width="5.24737" height="5.24737" fill="#C4DA53"/>
<rect x="150.69" y="365.663" width="10.4632" height="5.24737" fill="#C4DA53"/>
<rect x="140.195" y="360.416" width="10.4632" height="5.24737" fill="#C4DA53"/>
<rect x="140.195" y="349.922" width="15.7421" height="5.24737" fill="#C4DA53"/>
<rect x="150.69" y="355.169" width="15.7421" height="5.24737" fill="#C4DA53"/>
<rect x="124.453" y="355.169" width="5.24737" height="15.7421" fill="#C4DA53"/>
<rect x="129.7" y="339.427" width="5.24737" height="5.24737" fill="#C4DA53"/>
<rect x="150.69" y="334.18" width="5.24737" height="5.24737" fill="#C4DA53"/>
<rect x="124.453" y="302.695" width="5.24737" height="5.24737" fill="#C4DA53"/>
<rect x="119.205" y="323.685" width="5.24737" height="5.24737" fill="#C4DA53"/>
<rect x="124.453" y="318.437" width="5.24737" height="5.24737" fill="#C4DA53"/>
<rect x="129.7" y="318.437" width="5.24737" height="5.24737" fill="#C4DA53"/>
<rect x="129.7" y="323.685" width="5.24737" height="5.24737" fill="#C4DA53"/>
<rect x="124.453" y="328.932" width="5.24737" height="5.24737" fill="#C4DA53"/>
<rect x="119.205" y="334.18" width="5.24737" height="20.9895" fill="#C4DA53"/>
<rect x="113.958" y="349.922" width="5.24737" height="20.9895" fill="#C4DA53"/>
<rect x="113.958" y="328.932" width="5.24737" height="5.24737" fill="#C4DA53"/>
<rect x="108.71" y="318.437" width="5.24737" height="5.24737" fill="#C4DA53"/>
<rect x="66.7317" y="355.169" width="5.24737" height="5.24737" fill="#C4DA53"/>
<rect x="61.484" y="318.437" width="5.24737" height="10.4947" fill="#C4DA53"/>
<rect x="77.2264" y="323.685" width="5.24737" height="10.4947" fill="#C4DA53"/>
<rect x="103.463" y="302.695" width="5.24737" height="10.4947" fill="#C4DA53"/>
<rect x="98.2159" y="307.943" width="5.24737" height="15.7421" fill="#C4DA53"/>
<rect x="61.484" y="313.19" width="10.4947" height="5.24737" fill="#C4DA53"/>
<rect x="129.7" y="334.18" width="10.4947" height="5.24737" fill="#C4DA53"/>
<rect x="140.195" y="339.427" width="10.4947" height="5.24737" fill="#C4DA53"/>
<rect x="134.947" y="344.674" width="10.4947" height="5.24737" fill="#C4DA53"/>
<rect x="129.7" y="349.922" width="10.4947" height="5.24737" fill="#C4DA53"/>
<rect x="134.947" y="328.932" width="20.9895" height="5.24737" fill="#C4DA53"/>
<rect x="71.9792" y="318.437" width="5.24737" height="5.24737" fill="#C4DA53"/>
<rect x="108.71" y="302.695" width="5.24737" height="5.24737" fill="#C4DA53"/>
<rect x="113.958" y="307.943" width="10.4947" height="5.24737" fill="#C4DA53"/>
<rect x="108.71" y="313.19" width="10.4947" height="5.24737" fill="#C4DA53"/>
<rect x="108.71" y="297.448" width="15.7421" height="5.24737" fill="#C4DA53"/>
<rect x="71.9792" y="360.416" width="5.24737" height="5.24737" fill="#C4DA53"/>
<rect x="77.2264" y="349.922" width="5.24737" height="20.9895" fill="#C4DA53"/>
<rect x="87.7213" y="339.427" width="5.24737" height="31.4842" fill="#C4DA53"/>
<rect x="92.9685" y="318.437" width="5.24737" height="26.2368" fill="#C4DA53"/>
<rect x="103.463" y="323.685" width="5.24737" height="20.9895" fill="#C4DA53"/>
<rect x="98.2159" y="344.674" width="10.4947" height="26.2368" fill="#C4DA53"/>
<rect x="71.9792" y="334.18" width="5.24737" height="15.7421" fill="#C4DA53"/>
<rect x="66.7317" y="323.685" width="5.24737" height="15.7421" fill="#C4DA53"/>
<rect x="82.4736" y="334.18" width="5.24737" height="15.7421" fill="#C4DA53"/>
<rect x="108.71" y="334.18" width="5.24737" height="15.7421" fill="#C4DA53"/>
<rect width="10.4947" height="5.24737" transform="matrix(-1 0 0 1 150.69 355.169)" fill="#80A72D"/>
<rect width="10.4947" height="5.24737" transform="matrix(-1 0 0 1 150.69 334.18)" fill="#80A72D"/>
<rect x="113.958" y="302.695" width="10.4947" height="5.24737" fill="#80A72D"/>
<rect x="40.4947" y="349.922" width="15.7421" height="5.24737" fill="#80A72D"/>
<rect width="10.4632" height="5.24737" transform="matrix(-1 0 0 1 161.153 360.416)" fill="#80A72D"/>
<rect x="92.9685" y="344.674" width="5.24737" height="26.2368" fill="#80A72D"/>
<rect x="98.2159" y="323.685" width="5.24737" height="20.9895" fill="#80A72D"/>
<rect x="119.205" y="355.169" width="5.24737" height="15.7421" fill="#80A72D"/>
</g>
<defs>
<clipPath id="clip0_1098_3996">
<rect width="650" height="400" fill="white" transform="translate(0 0.416626)"/>
</clipPath>
</defs>
</svg>
