<svg fill="none" height="401" viewBox="0 0 650 401" width="650" xmlns="http://www.w3.org/2000/svg" xmlns:xlink="http://www.w3.org/1999/xlink"><clipPath id="a"><path d="m0 .787842h650v400h-650z"/></clipPath><clipPath id="b"><path d="m0 86.7878h783v196h-783z"/></clipPath><clipPath id="c"><path d="m.055695 118.236h705.92v183.833h-705.92z"/></clipPath><g clip-path="url(#a)"><path d="m.055725 282.788h649.944v118h-649.944z" fill="#dae8ff"/><g clip-path="url(#b)"><g clip-path="url(#c)" opacity=".5"><g fill="#667af9"><path d="m0 0h51.4733v29.4133h-51.4733z" transform="matrix(-1 0 0 1 66.2357 272.656)"/><path clip-rule="evenodd" d="m433.902 177.063h3.677v7.353h3.677v7.354h3.676v7.353h3.677v7.353h3.677v7.354h3.676v7.353h3.677v7.353h3.677v7.354h3.676v7.353h3.677v7.353h3.677v7.354h3.676v7.353h3.677v7.353h3.677v7.354h3.676v7.353h3.677v7.353h3.677v7.354h3.676v7.353h3.677v7.353h3.677v7.354h-143.39v-7.354h3.676v-7.353h3.677v-7.353h3.677v-7.354h3.676v-7.353h3.677v-7.353h3.677v-7.354h3.676v-7.353h3.677v-7.353h3.677v-7.354h3.676v-7.353h3.677v-7.353h3.677v-7.354h3.676v-7.353h3.677v-7.353h3.677v-7.354h3.676v-7.353h3.677v-7.353h3.677v-7.354h3.676zm14.707 117.653v-44.12h3.677v7.354h3.676v7.353h3.677v7.353h3.677v7.354h3.676v7.353h3.677v7.353zm-47.797 0v-7.353h3.677v-7.353h3.677v-7.354h3.676v-7.353h3.677v-7.353h3.677v-7.354h3.676v44.12z" fill-rule="evenodd"/><path d="m452.286 250.596h-3.677v44.12h22.06v-7.353h-3.677v-7.353h-3.676v-7.354h-3.677v-7.353h-3.677v-7.353h-3.676z"/><path d="m400.812 287.363v7.353h22.06v-44.12h-3.676v7.354h-3.677v7.353h-3.677v7.353h-3.676v7.354h-3.677v7.353z"/><path d="m0 0h234.204v69.8566h-234.204z" transform="matrix(-1 0 0 1 300.439 232.213)"/><path d="m0 0h51.4733v47.7966h-51.4733z" transform="matrix(-1 0 0 1 18.4391 254.273)"/><path d="m0 0h334.577v69.8566h-334.577z" transform="matrix(-1 0 0 1 672.886 254.273)"/><path clip-rule="evenodd" d="m650.826 180.74h3.676v3.676h3.677v3.677h3.677v3.677h3.676v3.676h3.677v3.677h3.677v3.677h3.676v3.676h3.677v3.677h3.677v3.677h3.676v3.676h3.677v3.677h3.677v3.677h3.676v3.676h3.677v3.677h3.677v3.677h3.676v3.676h3.677v3.677h3.676v3.677h3.677v3.676h3.677v3.677h-143.39v-3.677h3.677v-3.676h3.676v-3.677h3.677v-3.677h3.677v-3.676h3.676v-3.677h3.677v-3.677h3.677v-3.676h3.676v-3.677h3.677v-3.677h3.677v-3.676h3.676v-3.677h3.677v-3.677h3.677v-3.676h3.676v-3.677h3.677v-3.677h3.677v-3.676h3.676v-3.677h3.677v-3.677h3.677zm14.706 58.826v-22.06h3.677v3.677h3.677v3.677h3.676v3.676h3.677v3.677h3.677v3.677h3.676v3.676zm-47.796 0v-3.676h3.676v-3.677h3.677v-3.677h3.677v-3.676h3.676v-3.677h3.677v-3.677h3.677v22.06z" fill-rule="evenodd"/><path d="m669.209 217.506h-3.677v22.06h22.06v-3.676h-3.676v-3.677h-3.677v-3.677h-3.677v-3.676h-3.676v-3.677h-3.677z"/><path d="m617.736 235.89v3.676h22.06v-22.06h-3.677v3.677h-3.677v3.677h-3.676v3.676h-3.677v3.677h-3.677v3.677z"/><path clip-rule="evenodd" d="m-55.0942 180.74h3.6767v3.676h3.6766v3.677h3.6767v3.677h3.6766v3.676h3.6767v3.677h3.6767v3.677h3.6766v3.676h3.6767v3.677h3.6767v3.677h3.6766v3.676h3.6767v3.677h3.6767v3.677h3.67663v3.676h3.67667v3.677h3.6766613v3.677h3.6766687v3.676h3.67666v3.677h3.67671v3.677h3.6766v3.676h3.6767v3.677h-143.3901v-3.677h3.677v-3.676h3.676v-3.677h3.677v-3.677h3.677v-3.676h3.676v-3.677h3.677v-3.677h3.6768v-3.676h3.6767v-3.677h3.6766v-3.677h3.6767v-3.676h3.6767v-3.677h3.6766v-3.677h3.6767v-3.676h3.6767v-3.677h3.6766v-3.677h3.6767v-3.676h3.6767v-3.677h3.6766v-3.677h3.6767zm14.7066 58.826v-22.06h3.6767v3.677h3.6767v3.677h3.6766v3.676h3.6767v3.677h3.6767v3.677h3.6766v3.676zm-47.7966 0v-3.676h3.6767v-3.677h3.6766v-3.677h3.6767v-3.676h3.6767v-3.677h3.6766v-3.677h3.6767v22.06z" fill-rule="evenodd"/><path d="m-36.7109 217.506h-3.6767v22.06h22.06v-3.676h-3.6766v-3.677h-3.6767v-3.677h-3.6767v-3.676h-3.6766v-3.677h-3.6767z"/><path d="m-88.1842 235.89v3.676h22.06v-22.06h-3.6767v3.677h-3.6766v3.677h-3.6767v3.676h-3.6767v3.677h-3.6766v3.677z"/><path clip-rule="evenodd" d="m-22.0042 213.83h3.6766v3.676h3.6767v3.677h3.6766v3.677h3.67671v3.676h3.67666v3.677h3.6766704v3.677h3.6766696v3.676h3.67666v3.677h3.67663v3.677h3.6767v3.676h3.6767v3.677h3.6766v3.677h3.6767v3.676h3.6767v3.677h3.6766v3.677h3.6767v3.676h3.6767v3.677h3.6766v3.677h3.6767v3.676h3.6767v3.677h-143.39v-3.677h3.6767v-3.676h3.6766v-3.677h3.6767v-3.677h3.6767v-3.676h3.6766v-3.677h3.6767v-3.677h3.6767v-3.676h3.6766v-3.677h3.6767v-3.677h3.6767v-3.676h3.6766v-3.677h3.6767v-3.677h3.6767v-3.676h3.6766v-3.677h3.6767v-3.677h3.6767v-3.676h3.6766v-3.677h3.6767v-3.677h3.6767zm14.70661 58.826v-22.06h3.67666v3.677h3.6766704v3.677h3.6766696v3.676h3.67666v3.677h3.67663v3.677h3.6767v3.676zm-47.79661 0v-3.676h3.6766v-3.677h3.6767v-3.677h3.6767v-3.676h3.6766v-3.677h3.6767v-3.677h3.6767v22.06z" fill-rule="evenodd"/><path d="m-3.62093 250.596h-3.67666v22.06h22.05999v-3.676h-3.6767v-3.677h-3.67663v-3.677h-3.67666v-3.676h-3.6766696v-3.677h-3.6766704z"/><path d="m-55.0942 268.98v3.676h22.06v-22.06h-3.6767v3.677h-3.6767v3.677h-3.6766v3.676h-3.6767v3.677h-3.6767v3.677z"/><path clip-rule="evenodd" d="m275.806 155.003h3.676v7.353h3.677v7.354h3.677v7.353h3.676v7.353h3.677v7.354h3.677v7.353h3.676v7.353h3.677v7.354h3.677v7.353h3.676v7.353h3.677v7.354h3.677v7.353h3.676v7.353h3.677v7.354h3.677v7.353h3.676v7.353h3.677v7.354h3.677v7.353h3.676v7.353h3.677v7.354h-143.39v-7.354h3.677v-7.353h3.676v-7.353h3.677v-7.354h3.677v-7.353h3.676v-7.353h3.677v-7.354h3.677v-7.353h3.676v-7.353h3.677v-7.354h3.677v-7.353h3.676v-7.353h3.677v-7.354h3.677v-7.353h3.676v-7.353h3.677v-7.354h3.677v-7.353h3.676v-7.353h3.677v-7.354h3.677zm14.706 117.653v-44.12h3.677v7.354h3.677v7.353h3.676v7.353h3.677v7.354h3.677v7.353h3.676v7.353zm-47.796 0v-7.353h3.676v-7.353h3.677v-7.354h3.677v-7.353h3.676v-7.353h3.677v-7.354h3.677v44.12z" fill-rule="evenodd"/><path d="m294.189 228.536h-3.677v44.12h22.06v-7.353h-3.676v-7.353h-3.677v-7.354h-3.677v-7.353h-3.676v-7.353h-3.677z"/><path d="m242.716 265.303v7.353h22.06v-44.12h-3.677v7.354h-3.677v7.353h-3.676v7.353h-3.677v7.354h-3.677v7.353z"/><path d="m73.5891 206.476v7.354h-3.6766v7.353h-3.6767v7.353h-3.6766v7.354h-3.6767v7.353h33.09v-7.353h-3.6767v-7.354h-3.6767v-7.353h-3.6766v-7.353h-3.6767v-7.354z"/><path d="m58.8825 235.89v7.353h-3.6767v7.353h-3.6766v7.354h-3.6767v7.353h-3.6767v7.353h33.09v-7.353h-3.6767v-7.353h-3.6766v-7.354h-3.6767v-7.353h-3.6767v-7.353z"/><path d="m478.022 235.89v3.676h-3.677v3.677h-3.676v3.677h-3.677v3.676h-3.677v3.677h33.09v-3.677h-3.676v-3.676h-3.677v-3.677h-3.677v-3.677h-3.676v-3.676z"/><path d="m205.949 177.063v3.677h-3.677v3.676h-3.676v3.677h-3.677v3.677h-3.677v3.676h-3.676v3.677h-3.677v3.677h-3.677v3.676h-3.676v3.677h-3.677v3.677h-3.677v3.676h-3.676v3.677h-3.677v3.677h-3.677v3.676h-3.676v3.677h106.623v-3.677h-3.677v-3.676h-3.676v-3.677h-3.677v-3.677h-3.677v-3.676h-3.676v-3.677h-3.677v-3.677h-3.677v-3.676h-3.676v-3.677h-3.677v-3.677h-3.677v-3.676h-3.676v-3.677h-3.677v-3.677h-3.677v-3.676h-3.676v-3.677z"/><path d="m540.526 210.153v3.677h-3.677v3.676h-3.677v3.677h-3.676v3.677h-3.677v3.676h-3.677v3.677h-3.676v3.677h-3.677v3.676h-3.677v3.677h-3.676v3.677h-3.677v3.676h-3.677v3.677h-3.676v3.677h-3.677v3.676h-3.677v3.677h106.624v-3.677h-3.677v-3.676h-3.677v-3.677h-3.676v-3.677h-3.677v-3.676h-3.677v-3.677h-3.676v-3.677h-3.677v-3.676h-3.677v-3.677h-3.676v-3.677h-3.677v-3.676h-3.677v-3.677h-3.676v-3.677h-3.677v-3.676h-3.677v-3.677z"/><path d="m375.076 217.506v3.677h-3.677v3.677h-3.677v3.676h-3.676v3.677h-3.677v3.677h-3.677v3.676h-3.676v3.677h-3.677v3.677h-3.677v3.676h-3.676v3.677h-3.677v3.677h-3.677v3.676h-3.676v3.677h-3.677v3.677h-3.677v3.676h106.624v-3.676h-3.677v-3.677h-3.677v-3.677h-3.676v-3.676h-3.677v-3.677h-3.677v-3.677h-3.676v-3.676h-3.677v-3.677h-3.677v-3.677h-3.676v-3.676h-3.677v-3.677h-3.677v-3.677h-3.676v-3.676h-3.677v-3.677h-3.677v-3.677z"/><path d="m172.859 210.153v3.677h-3.677v3.676h-3.676v3.677h-3.677v3.677h-3.677v3.676h-3.676v3.677h-3.677v3.677h-3.677v3.676h-3.676v3.677h-3.677v3.677h-3.677v3.676h-3.676v3.677h-3.677v3.677h-3.677v3.676h-3.676v3.677h106.623v-3.677h-3.677v-3.676h-3.676v-3.677h-3.677v-3.677h-3.677v-3.676h-3.676v-3.677h-3.677v-3.677h-3.677v-3.676h-3.676v-3.677h-3.677v-3.677h-3.677v-3.676h-3.676v-3.677h-3.677v-3.677h-3.677v-3.676h-3.676v-3.677z"/><path d="m110.356 210.153v-3.677h3.676v3.677h3.677v3.677h3.677v3.676h3.676v3.677h3.677v3.677h3.677v3.676h3.676v3.677h3.677v3.677h3.677v3.676h3.676v3.677h-69.8563v-3.677h3.6766v-3.676h3.6767v-3.677h3.6767v-3.677h3.6766v-3.676h3.6767v-3.677h3.6767v-3.677h3.6763v-3.676h3.677v-3.677z"/></g><path clip-rule="evenodd" d="m239.039 199.123h-3.677v7.353h-3.677v7.354h-3.676v7.353h-3.677v7.353h-3.676v7.354h-3.677v7.353h-3.677v7.353h-3.676v7.354h-3.677v7.353h-3.677v7.353h-3.676v7.354h-3.677v7.353h-3.677v7.353h-3.676v7.354h-3.677v7.353h-3.677v7.353h-3.676v7.354h-3.677v7.353h-3.677v7.353h-3.676v7.354h143.389v-7.354h-3.676v-7.353h-3.677v-7.353h-3.677v-7.354h-3.676v-7.353h-3.677v-7.353h-3.677v-7.354h-3.676v-7.353h-3.677v-7.353h-3.677v-7.354h-3.676v-7.353h-3.677v-7.353h-3.677v-7.354h-3.676v-7.353h-3.677v-7.353h-3.677v-7.354h-3.676v-7.353h-3.677v-7.353h-3.677v-7.354h-3.676zm-14.707 117.653v-44.12h-3.676v7.354h-3.677v7.353h-3.677v7.353h-3.676v7.354h-3.677v7.353h-3.677v7.353zm47.797 0v-7.353h-3.677v-7.353h-3.677v-7.354h-3.676v-7.353h-3.677v-7.353h-3.677v-7.354h-3.676v44.12z" fill="#00499c" fill-rule="evenodd"/><path d="m220.656 272.656h3.676v44.12h-22.06v-7.353h3.677v-7.353h3.677v-7.354h3.676v-7.353h3.677v-7.353h3.677z" fill="#00499c"/><path d="m272.129 309.423v7.353h-22.06v-44.12h3.676v7.354h3.677v7.353h3.677v7.353h3.676v7.354h3.677v7.353z" fill="#00499c"/><path d="m372.502 254.273h234.204v69.8566h-234.204z" fill="#00499c"/><path d="m.055718 276.333h334.577v69.8566h-334.577z" fill="#00499c"/><path clip-rule="evenodd" d="m22.1156 202.8h-3.6766v3.676h-3.6767v3.677h-3.6766v3.677h-3.67671v3.676h-3.67667v3.677h-3.6766642v3.677h-3.6766658v3.676h-3.67666v3.677h-3.67663v3.677h-3.6767v3.676h-3.6767v3.677h-3.6766v3.677h-3.6767v3.676h-3.6767v3.677h-3.6766v3.677h-3.6767v3.676h-3.6767v3.677h-3.6766v3.677h-3.6767v3.676h-3.6767v3.677h143.39v-3.677h-3.6767v-3.676h-3.6766v-3.677h-3.6767v-3.677h-3.6767v-3.676h-3.6766v-3.677h-3.6767v-3.677h-3.6767v-3.676h-3.6766v-3.677h-3.6767v-3.677h-3.6767v-3.676h-3.6766v-3.677h-3.6767v-3.677h-3.6767v-3.676h-3.6766v-3.677h-3.6767v-3.677h-3.6767v-3.676h-3.6766v-3.677h-3.6767v-3.677h-3.6767zm-14.70661 58.826v-22.06h-3.67667v3.677h-3.6766642v3.677h-3.6766658v3.676h-3.67666v3.677h-3.67663v3.677h-3.6767v3.676zm47.79661 0v-3.676h-3.6766v-3.677h-3.6767v-3.677h-3.6767v-3.676h-3.6766v-3.677h-3.6767v-3.677h-3.6767v22.06z" fill="#00499c" fill-rule="evenodd"/><path d="m3.73232 239.566h3.67667v22.06h-22.05999v-3.676h3.6767v-3.677h3.67663v-3.677h3.67666v-3.676h3.6766658v-3.677h3.6766642z" fill="#00499c"/><path d="m55.2056 257.95v3.676h-22.06v-22.06h3.6767v3.677h3.6767v3.677h3.6766v3.676h3.6767v3.677h3.6767v3.677z" fill="#00499c"/><path clip-rule="evenodd" d="m694.945 235.89h-3.676v3.676h-3.677v3.677h-3.677v3.677h-3.676v3.676h-3.677v3.677h-3.677v3.677h-3.676v3.676h-3.677v3.677h-3.677v3.677h-3.676v3.676h-3.677v3.677h-3.677v3.677h-3.676v3.676h-3.677v3.677h-3.677v3.677h-3.676v3.676h-3.677v3.677h-3.677v3.677h-3.676v3.676h-3.677v3.677h143.39v-3.677h-3.677v-3.676h-3.676v-3.677h-3.677v-3.677h-3.677v-3.676h-3.676v-3.677h-3.677v-3.677h-3.677v-3.676h-3.676v-3.677h-3.677v-3.677h-3.677v-3.676h-3.676v-3.677h-3.677v-3.677h-3.677v-3.676h-3.676v-3.677h-3.677v-3.677h-3.677v-3.676h-3.676v-3.677h-3.677v-3.677h-3.677zm-14.706 58.826v-22.06h-3.677v3.677h-3.677v3.677h-3.676v3.676h-3.677v3.677h-3.677v3.677h-3.676v3.676zm47.796 0v-3.676h-3.676v-3.677h-3.677v-3.677h-3.677v-3.676h-3.676v-3.677h-3.677v-3.677h-3.677v22.06z" fill="#00499c" fill-rule="evenodd"/><path d="m676.562 272.656h3.677v22.06h-22.06v-3.676h3.676v-3.677h3.677v-3.677h3.677v-3.676h3.676v-3.677h3.677z" fill="#00499c"/><path d="m728.035 291.04v3.676h-22.06v-22.06h3.677v3.677h3.677v3.677h3.676v3.676h3.677v3.677h3.677v3.677z" fill="#00499c"/><path clip-rule="evenodd" d="m397.135 177.063h-3.676v7.353h-3.677v7.354h-3.677v7.353h-3.676v7.353h-3.677v7.354h-3.677v7.353h-3.676v7.353h-3.677v7.354h-3.677v7.353h-3.676v7.353h-3.677v7.354h-3.677v7.353h-3.676v7.353h-3.677v7.354h-3.677v7.353h-3.676v7.353h-3.677v7.354h-3.677v7.353h-3.676v7.353h-3.677v7.354h143.39v-7.354h-3.677v-7.353h-3.676v-7.353h-3.677v-7.354h-3.677v-7.353h-3.676v-7.353h-3.677v-7.354h-3.677v-7.353h-3.676v-7.353h-3.677v-7.354h-3.677v-7.353h-3.676v-7.353h-3.677v-7.354h-3.677v-7.353h-3.676v-7.353h-3.677v-7.354h-3.677v-7.353h-3.676v-7.353h-3.677v-7.354h-3.677zm-14.706 117.653v-44.12h-3.677v7.354h-3.677v7.353h-3.676v7.353h-3.677v7.354h-3.677v7.353h-3.676v7.353zm47.796 0v-7.353h-3.676v-7.353h-3.677v-7.354h-3.677v-7.353h-3.676v-7.353h-3.677v-7.354h-3.677v44.12z" fill="#00499c" fill-rule="evenodd"/><path d="m378.752 250.596h3.677v44.12h-22.06v-7.353h3.676v-7.353h3.677v-7.354h3.677v-7.353h3.676v-7.353h3.677z" fill="#00499c"/><path d="m430.225 287.363v7.353h-22.06v-44.12h3.677v7.354h3.677v7.353h3.676v7.353h3.677v7.354h3.677v7.353z" fill="#00499c"/><path d="m599.352 228.536v7.354h3.677v7.353h3.677v7.353h3.676v7.354h3.677v7.353h-33.09v-7.353h3.677v-7.354h3.676v-7.353h3.677v-7.353h3.677v-7.354z" fill="#00499c"/><path d="m614.059 257.95v7.353h3.677v7.353h3.676v7.354h3.677v7.353h3.677v7.353h-33.09v-7.353h3.676v-7.353h3.677v-7.354h3.677v-7.353h3.676v-7.353z" fill="#00499c"/><path d="m194.919 257.95v3.676h3.677v3.677h3.676v3.677h3.677v3.676h3.677v3.677h-33.09v-3.677h3.676v-3.676h3.677v-3.677h3.677v-3.677h3.676v-3.676z" fill="#00499c"/><path d="m466.992 199.123v3.677h3.677v3.676h3.677v3.677h3.676v3.677h3.677v3.676h3.676v3.677h3.677v3.677h3.677v3.676h3.676v3.677h3.677v3.677h3.677v3.676h3.676v3.677h3.677v3.677h3.677v3.676h3.676v3.677h-106.623v-3.677h3.677v-3.676h3.677v-3.677h3.676v-3.677h3.677v-3.676h3.677v-3.677h3.676v-3.677h3.677v-3.676h3.677v-3.677h3.676v-3.677h3.677v-3.676h3.677v-3.677h3.676v-3.677h3.677v-3.676h3.677v-3.677z" fill="#00499c"/><path d="m132.416 232.213v3.677h3.676v3.676h3.677v3.677h3.677v3.677h3.676v3.676h3.677v3.677h3.677v3.677h3.676v3.676h3.677v3.677h3.677v3.677h3.676v3.676h3.677v3.677h3.677v3.677h3.676v3.676h3.677v3.677h-106.6233v-3.677h3.6767v-3.676h3.6766v-3.677h3.6767v-3.677h3.6767v-3.676h3.6766v-3.677h3.6767v-3.677h3.6763v-3.676h3.677v-3.677h3.677v-3.677h3.676v-3.676h3.677v-3.677h3.677v-3.677h3.676v-3.676h3.677v-3.677z" fill="#00499c"/><path d="m297.865 239.566v3.677h3.677v3.677h3.677v3.676h3.676v3.677h3.677v3.677h3.677v3.676h3.676v3.677h3.677v3.677h3.677v3.676h3.676v3.677h3.677v3.677h3.677v3.676h3.676v3.677h3.677v3.677h3.677v3.676h-106.623v-3.676h3.676v-3.677h3.677v-3.677h3.677v-3.676h3.676v-3.677h3.677v-3.677h3.677v-3.676h3.676v-3.677h3.677v-3.677h3.677v-3.676h3.676v-3.677h3.677v-3.677h3.676v-3.676h3.677v-3.677h3.677v-3.677z" fill="#00499c"/><path d="m500.082 232.213v3.677h3.677v3.676h3.676v3.677h3.677v3.677h3.677v3.676h3.676v3.677h3.677v3.677h3.677v3.676h3.676v3.677h3.677v3.677h3.677v3.676h3.676v3.677h3.677v3.677h3.677v3.676h3.676v3.677h-106.623v-3.677h3.677v-3.676h3.676v-3.677h3.677v-3.677h3.677v-3.676h3.676v-3.677h3.677v-3.677h3.677v-3.676h3.676v-3.677h3.677v-3.677h3.677v-3.676h3.676v-3.677h3.677v-3.677h3.677v-3.676h3.676v-3.677z" fill="#00499c"/><path d="m562.585 232.213v-3.677h-3.676v3.677h-3.677v3.677h-3.677v3.676h-3.676v3.677h-3.677v3.677h-3.677v3.676h-3.676v3.677h-3.677v3.677h-3.677v3.676h-3.676v3.677h69.856v-3.677h-3.676v-3.676h-3.677v-3.677h-3.677v-3.677h-3.676v-3.676h-3.677v-3.677h-3.677v-3.677h-3.676v-3.676h-3.677v-3.677z" fill="#00499c"/></g><path clip-rule="evenodd" d="m599.352 243.243h3.677v7.354h3.676v3.676h-3.676-3.677-3.676v-3.676h3.676v-.001h-3.676v-3.676h3.676z" fill="#0b5027" fill-rule="evenodd"/><path d="m213.302 489.58h-47.796v-3.677h-14.707v-3.677h-11.03v-3.676h-7.353v-3.677h-7.354v-3.677h-3.676v-3.676h-7.354v-3.677h-3.676v-3.677h-7.354v-3.676h-3.6765v-3.677h-3.6766v-3.677h-3.6767v-7.353h-3.6767v-3.677h-3.6766v-7.353h-3.6767v-3.677h-3.6767v-7.353h-3.6766v-7.353h-3.6767v-11.03h-3.6767v-14.707h-3.6766v-47.797h3.6766v-14.706h3.6767v-11.03h3.6767v-7.354h3.6766v-7.353h3.6767v-3.677h3.6767v-7.353h3.6766v-3.677h3.6767v-7.353h3.6767v-3.677h3.6766v-3.676h3.6765v-3.677h7.354v-3.677h3.676v-3.676h7.354v-3.677h3.676v-3.677h7.354v-3.676h7.353v-3.677h11.03v-3.677h14.707v-3.676h47.796v3.676h14.707v3.677h11.03v3.677h7.353v3.676h7.353v3.677h3.677v3.677h7.353v3.676h3.677v3.677h7.353v3.677h3.677v3.676h3.677v3.677h3.676v7.353h3.677v3.677h3.677v7.353h3.676v3.677h3.677v7.353h3.677v7.354h3.676v11.03h3.677v14.706h3.677v47.797h-3.677v14.707h-3.677v11.03h-3.676v7.353h-3.677v7.353h-3.677v3.677h-3.676v7.353h-3.677v3.677h-3.677v7.353h-3.676v3.677h-3.677v3.677h-3.677v3.676h-7.353v3.677h-3.677v3.677h-7.353v3.676h-3.677v3.677h-7.353v3.677h-7.353v3.676h-11.03v3.677h-14.707z" fill="#068940"/><path d="m764.802 412.37h-3.679v-11.031l-3.676-.001v-7.352h-3.676v-7.352h-3.676v-7.355h-3.676v-7.352h-3.679v-3.676h-3.676v-7.355h-3.677v-7.353h-3.676v-3.676h-3.676v-3.676h-3.679v-7.355h-3.676v-3.676l-3.676-.001v-3.675l-3.676-.001v-3.676h-3.676v-3.678h-3.676v-3.677h-3.679v-3.676h-3.676v-3.676h-3.676v-3.676h-3.677v-3.679h-3.676v-3.676h-3.679v-3.676h-3.676v-3.676l-7.352-.001v-3.676h-3.676v-3.676h-3.676v-3.679h-7.355v-3.676h-7.353v-3.676h-3.676v-3.676h-7.355v-3.676h-7.352v-3.679h-7.355v-3.676h-7.352v-3.676h-11.031v-3.677h-7.353v-3.676h-11.028v-3.676h-14.707v-3.679h-18.384v-3.676h-25.736v-3.676h-44.121v3.676h-25.736v3.676h-18.383v3.679h-14.708v3.676h-11.028v3.676h-7.355v3.677h-11.029v3.676h-7.355v3.676h-7.352v3.679h-7.352v3.676h-7.355v3.676h-3.676v3.676h-7.353v3.676h-7.355v3.679h-3.676v3.676h-3.676v3.676h-7.352v3.676h-3.679v3.677h-3.676v3.676h-3.676v3.679h-3.676v3.676h-3.677v3.676h-3.676v3.676h-3.679v3.676h-3.676v3.679h-3.676v3.676h-3.676v3.676h-3.676v3.677h-3.679v7.355h-3.676v3.676h-3.676v3.676h-3.676v7.352h-3.677v7.355h-3.678v3.676h-3.676v7.353h-3.677v7.355h-3.676v7.352h-3.676v7.352h-3.679v11.032h-3.676v7.352h-3.676v11.031h-3.676v14.708h-3.676v18.383h-3.676v25.736h-3.679v44.119l3.679.001v25.735h3.676v18.384h3.676v14.707h3.676v11.031h3.676v7.352l3.676.001v11.031h3.679v7.352h3.676v7.353h3.676v7.355h3.677v7.352h3.676v3.676h3.678v7.355h3.677v7.352h3.676v3.677h3.676v3.676h3.676v7.355h3.679v3.676h3.676v3.676h3.676v3.676h3.676v3.679h3.676v3.676h3.679v3.676l3.676.001v3.675l3.677.001v3.676h3.676v3.679h3.676v3.676h3.676v3.676h3.679v3.676h7.352v3.676h3.676v3.676h3.676v3.679h7.355v3.676h7.353v3.676h3.676v3.677h7.355v3.676h7.352v3.679h7.352v3.676h7.355v3.676h11.029v3.676h7.355v3.676h11.028v3.676h14.708v3.679h18.383v3.676h25.736v3.677h44.121v-3.677h25.736v-3.676h18.384v-3.679h14.707v-3.676h11.028v-3.676h7.353v-3.676h11.031v-3.676h7.352v-3.676h7.355v-3.679h7.352v-3.676h7.355v-3.677h3.676v-3.676h7.353v-3.676h7.355v-3.679h3.676v-3.676h3.676v-3.676h7.352v-3.676h3.676v-3.676h3.679v-3.676h3.676v-3.679h3.677v-3.676h3.676v-3.676h3.676v-3.677h3.679v-3.676h3.676v-3.679h3.676v-3.676h3.676v-3.676h3.676v-3.676h3.676v-7.355h3.679v-3.676h3.676v-3.677h3.676v-7.352h3.677v-7.355h3.676v-3.676h3.679v-7.352h3.676v-7.355h3.676v-7.353h3.676v-7.352h3.676v-11.031h3.679v-7.353h3.676v-11.031h3.676v-14.707h3.676v-18.384h3.677v-25.735h3.678v-44.12h-3.678v-25.736h-3.677v-18.383h-3.676v-14.707h-3.676v-11.032h-3.676z" fill="#068940"/><path clip-rule="evenodd" d="m202.272 265.303h-3.676v3.677h3.676zm-7.353 7.354v-3.677h11.03v3.677zm-3.677 0v3.676h18.384v-3.676zm-3.676 11.03v3.676h25.736v-3.676zm22.06-3.677v3.677h-18.384v-3.677zm-3.677 0v-3.677h-11.03v3.677z" fill="#0b5027" fill-rule="evenodd"/><path d="m213.302 287.363h-3.676v-3.677h-3.677v-3.676h-7.355v-3.676h-7.352v-3.679h-7.355v-3.676h-7.352v-3.676h-11.031v-3.676h-7.353v-3.676h-11.028v-3.677h-14.707v-3.679h-18.384v-3.676h-25.7354v-3.676h-44.1218v3.676h-25.7357v3.676h-18.3834054v3.679 231.937l514.7323054-.001 3.677.001h187.51v-231.937h-14.707v3.677h-11.028v3.676h-7.355v3.676h-11.029v3.676h-7.355v3.676h-7.352v3.679h-7.352v3.676h-7.355v3.676h-3.676v3.677h-7.353v3.676h-7.355v3.679h-3.676v3.675h-3.676v3.677h-7.352-.002v3.676h-3.677v3.676h-3.676v3.676h-3.677v.002 3.676h-3.677v3.677h-3.675-.001v3.676l-3.675.001h-3.679v3.676h-7.353v3.677h-14.707v3.677h-18.383v-3.676h-18.383v-3.679h-14.708v-3.676h-11.028v-3.676h-7.355v-3.676h-11.028v-3.676l-.001-.002h-7.355l.001-3.675-.001-.001h-7.352v-3.677h-3.676v-3.676l-3.676-.001h-3.679v-3.675l-3.676-.001h-3.676v-3.676-.002h-7.352v-3.674h-.003v-.002h-7.353l.001-3.676h-11.032v-3.676h-7.352v-3.676h-11.028v-3.677h-14.708v-3.679h-18.383v-3.676h-25.736v-3.676h-44.122v3.676h-25.735v3.676h-18.384v3.679h-14.707v3.677h-11.029v3.676h-7.354z" fill="#8dd122"/><g clip-rule="evenodd" fill-rule="evenodd"><path d="m58.8824 221.183h3.6767v3.677h-3.6767zm-3.6769 3.677v3.677h11.03v-3.677zm-3.6766 7.353v-3.676h18.3834v3.676zm-3.6766 11.03v-3.676h3.6766v-3.677h18.3834v3.677h3.6767v3.676zm18.3832-11.03v3.677h-11.03v-3.677zm29.4135-7.353h3.6766v3.677h-3.6766zm-3.6766 3.677v3.676h11.0296v-3.676zm-3.6766 7.353v-3.677h18.3832v3.677zm-3.6769 11.03v-3.677h25.7371v3.677zm22.0601-3.677v-3.676h-3.677v-3.677h-11.0296v3.677h-3.6766v3.676z" fill="#068940"/><path d="m305.219 243.243h3.676v3.677h-3.676zm-3.677 3.677v3.676h11.03v-3.676zm-3.676 7.353v-3.676h18.383v3.676zm-3.677 11.03v-3.676h25.737v3.676zm22.06-3.676v-3.677h-18.383v3.677zm-3.677-7.354v3.677h-11.03v-3.677zm33.09-7.353h3.677v3.676h-3.677zm-3.676 3.676v3.677h11.03v-3.677zm-3.677 7.354v-3.677h18.383v3.677zm-3.677 11.03v-3.677h25.737v3.677zm22.06-3.677v-3.677h-18.383v3.677zm-3.676-7.353v3.676h-11.03v-3.676z" fill="#068940"/><path d="m158.152 228.536h3.677v7.354h3.676v3.677h-3.676v-.001h-3.677v.001h-3.676v-3.677h3.676-3.676v-3.677h3.676z" fill="#0b5027"/><path d="m448.609 232.213h3.676v7.353h3.677v3.677h-3.677-3.676zm0 3.677h-3.677v3.676 3.677h3.677v-3.677z" fill="#0b5027"/><path d="m481.699 228.536h-3.677v7.354h-3.677v3.677h3.677v-.001h3.677v.001h3.676v-3.677h-3.676 3.676v-3.677h-3.676z" fill="#0b5027"/><path d="m198.596 224.86h3.676v3.677h3.677v3.676h-3.677 3.677 3.677v3.677h-3.677-3.677-3.676zm-3.677 7.353h3.677v3.677h-3.677z" fill="#0b5027"/><path d="m191.242 224.86h-3.676v7.353h-3.677v3.677h3.677 3.676 3.677v-3.677h-3.677 3.677v-3.676h-3.677z" fill="#0b5027"/></g></g><path clip-rule="evenodd" d="m354.626 280.015h-4.906v4.899h4.906zm-49.064 4.899v-4.899h4.906 4.906 4.906v4.899h-4.906v4.899 4.899h-4.906-4.906-4.905v-4.899-4.899zm9.812 9.802h-4.906-4.906v4.899h4.906-4.906-4.905v4.899h4.905 4.906-4.906-4.905v4.899.001 4.898h4.905 4.906 4.906v-4.899-4.899-4.899zm29.44-14.701h4.906v4.899h-4.906-4.906v-4.899zm-9.812 0h4.906v4.899h-4.906zm0 0h-4.906-4.906v4.899h4.906 4.906zm-9.816 0h-4.906v4.899h4.906zm103.033 24.499h-4.906v4.899 4.899h4.906-4.906v4.899l4.906.001v4.898l4.906.001v4.898h4.906 4.905 4.906 4.906v-4.899h4.906v-4.898-19.597-4.899h-4.906-19.623-4.906v4.899h-4.906v4.899zm4.906 0v9.799h4.906v-.001h-4.906v-4.899zm9.811 14.697-4.905.001h9.811zm4.906-4.899v.001h4.906v-.001zm4.906-24.499h-4.906v4.899h4.906zm4.91 9.802h4.906v4.899h-4.906zm0 4.899v4.899 4.899h4.906v-4.899-4.899zm0 9.798v4.899h4.906v-4.899zm-24.533-24.499h4.906 4.905 4.906v4.899h-4.906-4.905-4.906zm-117.751 9.802v19.596.001 4.898h4.906v4.899h4.906v-4.898h.004v4.898h4.906 4.906v-4.898 4.898h4.906v-4.899h4.906v-4.899h-.004v-19.596h.004v-4.899h-4.906v4.899h-.004v-4.899h-19.624-4.906zm24.534 24.495v-4.898h-.004v4.898zm-19.628-9.798v.001h4.906v4.899h9.812v-.001h-4.902-4.906v-4.899zm4.906-9.798h.004v-4.899h-.004zm14.718 9.799h-4.902v-.001h4.902zm.004-24.5h-4.906v4.899h4.906zm4.906 9.802h4.906v4.899h-4.906zm4.906 4.899h-4.906v4.899 4.899h4.906v-4.899zm0 9.798h-4.906v4.899h4.906zm-39.252 0h4.906v4.899h-4.906zm9.812-24.499h4.906v4.899h-4.906zm14.722 0h-4.906-4.906v4.899h4.906 4.906z" fill="#ec3530" fill-rule="evenodd"/><path d="m467.47 309.416h-4.905v4.899h4.905z" fill="#ec3530"/><path d="m467.47 304.517h-4.905v4.899h4.905z" fill="#ec3530"/><path d="m467.47 299.617h-4.905v4.9h4.905z" fill="#ec3530"/><path d="m467.47 294.719h-4.905v4.899h4.905z" fill="#ec3530"/><path d="m467.47 289.815h-4.905v4.899h4.905z" fill="#ededed"/><path d="m472.376 309.416h-4.906v4.899h4.906z" fill="#ec3530"/><path d="m467.47 314.315h-4.905v4.899h4.905z" fill="#c00"/><path d="m472.376 314.315h-4.906v4.899h4.906z" fill="#c00"/><path d="m467.47 319.214h-4.905v4.899h4.905z" fill="#c00"/><path d="m462.564 319.214h-4.906v4.899h4.906z" fill="#c00"/><path d="m472.376 319.214h-4.906v4.899h4.906z" fill="#c00"/><path d="m477.282 319.214h-4.906v4.899h4.906z" fill="#c00"/><path d="m418.407 314.315h-4.906v4.899h4.906z" fill="#c00"/><path d="m423.313 314.315h-4.906v4.899h4.906z" fill="#c00"/><path d="m418.407 319.214h-4.906v4.899h4.906z" fill="#c00"/><path d="m423.313 319.214h-4.906v4.899h4.906z" fill="#c00"/><path d="m428.219 319.214h-4.906v4.899h4.906z" fill="#c00"/><path d="m408.595 314.315h-4.906v4.899h4.906z" fill="#c00"/><path d="m413.501 314.315h-4.906v4.899h4.906z" fill="#c00"/><path d="m408.595 319.214h-4.906v4.899h4.906z" fill="#c00"/><path d="m413.501 319.214h-4.906v4.899h4.906z" fill="#c00"/><path d="m398.783 314.315h-4.905v4.899h4.905z" fill="#c00"/><path d="m403.689 314.315h-4.906v4.899h4.906z" fill="#c00"/><path d="m398.783 319.214h-4.905v4.899h4.905z" fill="#c00"/><path d="m403.689 319.214h-4.906v4.899h4.906z" fill="#c00"/><path d="m388.967 314.315h-4.906v4.899h4.906z" fill="#c00"/><path d="m393.877 314.315h-4.906v4.899h4.906z" fill="#c00"/><path d="m388.967 319.214h-4.906v4.899h4.906z" fill="#c00"/><path d="m393.877 319.214h-4.906v4.899h4.906z" fill="#c00"/><path d="m379.155 314.315h-4.905v4.899h4.905z" fill="#c00"/><path d="m384.061 314.315h-4.906v4.899h4.906z" fill="#c00"/><path d="m379.155 319.214h-4.905v4.899h4.905z" fill="#c00"/><path d="m384.061 319.214h-4.906v4.899h4.906z" fill="#c00"/><path d="m369.344 314.315h-4.906v4.899h4.906z" fill="#c00"/><path d="m374.249 314.315h-4.906v4.899h4.906z" fill="#c00"/><path d="m369.344 319.214h-4.906v4.899h4.906z" fill="#c00"/><path d="m374.249 319.214h-4.906v4.899h4.906z" fill="#c00"/><path d="m359.532 314.315h-4.906v4.899h4.906z" fill="#c00"/><path d="m364.438 314.315h-4.906v4.899h4.906z" fill="#c00"/><path d="m359.532 319.214h-4.906v4.899h4.906z" fill="#c00"/><path d="m364.438 319.214h-4.906v4.899h4.906z" fill="#c00"/><path d="m349.72 314.315h-4.906v4.899h4.906z" fill="#c00"/><path d="m354.626 314.315h-4.906v4.899h4.906z" fill="#c00"/><path d="m349.72 319.214h-4.906v4.899h4.906z" fill="#c00"/><path d="m354.626 319.214h-4.906v4.899h4.906z" fill="#c00"/><path d="m339.908 314.315h-4.906v4.899h4.906z" fill="#c00"/><path d="m344.814 314.315h-4.906v4.899h4.906z" fill="#c00"/><path d="m339.908 319.214h-4.906v4.899h4.906z" fill="#c00"/><path d="m344.814 319.214h-4.906v4.899h4.906z" fill="#c00"/><path d="m330.096 314.315h-4.906v4.899h4.906z" fill="#c00"/><path d="m335.002 314.315h-4.906v4.899h4.906z" fill="#c00"/><path d="m330.096 319.214h-4.906v4.899h4.906z" fill="#c00"/><path d="m325.186 314.315h-4.906v4.899h4.906z" fill="#c00"/><path d="m325.186 319.214h-4.906v4.899h4.906z" fill="#c00"/><path d="m320.28 314.315h-4.906v4.899h4.906z" fill="#c00"/><path d="m320.28 319.214h-4.906v4.899h4.906z" fill="#c00"/><path d="m310.468 314.315h-4.906v4.899h4.906z" fill="#c00"/><path d="m310.468 319.214h-4.906v4.899h4.906z" fill="#c00"/><path d="m305.562 314.315h-4.905v4.899h4.905z" fill="#c00"/><path d="m305.562 319.214h-4.905v4.899h4.905z" fill="#c00"/><path d="m335.002 319.214h-4.906v4.899h4.906z" fill="#c00"/><path d="m472.376 304.517h-4.906v4.899h4.906z" fill="#ec3530"/><path d="m472.376 299.617h-4.906v4.9h4.906z" fill="#ec3530"/><path d="m472.376 294.719h-4.906v4.899h4.906z" fill="#ededed"/><path d="m477.282 309.416h-4.906v4.899h4.906z" fill="#ec3530"/><path d="m482.188 309.416h-4.906v4.899h4.906z" fill="#ec3530"/><path d="m477.282 314.315h-4.906v4.899h4.906z" fill="#c00"/><path d="m482.188 319.214h-4.906v4.899h4.906z" fill="#c00"/><path d="m482.188 314.315h-4.906v4.899h4.906z" fill="#c00"/><path d="m477.282 304.517h-4.906v4.899h4.906z" fill="#ec3530"/><path d="m482.188 304.517h-4.906v4.899h4.906z" fill="#ec3530"/><path d="m487.094 309.416h-4.906v4.899h4.906z" fill="#ec3530"/><path d="m487.094 319.214h-4.906v4.899h4.906z" fill="#c00"/><path d="m487.094 314.315h-4.906v4.899h4.906z" fill="#c00"/><path d="m492 319.214h-4.906v4.899h4.906z" fill="#c00"/><path d="m492 314.315h-4.906v4.899h4.906z" fill="#c00"/><path d="m487.094 304.517h-4.906v4.899h4.906z" fill="#ec3530"/><path d="m482.188 299.617h-4.906v4.9h4.906z" fill="#ec3530"/><path d="m477.282 299.617h-4.906v4.9h4.906z" fill="#ededed"/><path d="m477.282 294.719h-4.906v4.899h4.906z" fill="#ec3530"/><path d="m472.376 289.815h-4.906v4.899h4.906z" fill="#ec3530"/><path d="m462.564 309.416h-4.906v4.899h4.906z" fill="#ec3530"/><path d="m462.564 304.517h-4.906v4.899h4.906z" fill="#ec3530"/><path d="m462.564 299.617h-4.906v4.9h4.906z" fill="#ec3530"/><path d="m462.564 294.719h-4.906v4.899h4.906z" fill="#ec3530"/><path d="m462.564 289.815h-4.906v4.899h4.906z" fill="#ec3530"/><path d="m315.374 280.017h-4.906v4.899h4.906z" fill="#ec3530"/><path d="m310.468 270.219h-4.906v4.899h4.906z" fill="#ec3530"/><path d="m315.374 270.219h-4.906v4.899h4.906z" fill="#ec3530"/><path d="m310.468 280.017h-4.906v4.899h4.906z" fill="#ec3530"/><path d="m305.562 270.219h-4.905v4.899h4.905z" fill="#ec3530"/><path d="m305.562 280.017h-4.905v4.899h4.905z" fill="#bc0000"/><path d="m300.657 270.219h-4.906v4.899h4.906z" fill="#ec3530"/><path d="m315.374 275.118h-4.906v4.899h4.906z" fill="#bc0000"/><path d="m320.28 275.118h-4.906v4.899h4.906z" fill="#bc0000"/><path d="m310.468 275.118h-4.906v4.899h4.906z" fill="#bc0000"/><path d="m305.562 275.118h-4.905v4.899h4.905z" fill="#bc0000"/><path d="m300.657 275.118h-4.906v4.899h4.906z" fill="#bc0000"/><path d="m300.657 280.017h-4.906v4.899h4.906z" fill="#bc0000"/><path d="m295.751 270.219h-4.906v4.899h4.906z" fill="#ec3530"/><path d="m300.657 265.32h-4.906v4.899h4.906z" fill="#ec3530"/><path d="m295.751 265.32h-4.906v4.899h4.906z" fill="#ec3530"/><path d="m305.562 265.32h-4.905v4.899h4.905z" fill="#ec3530"/><path d="m310.468 265.32h-4.906v4.899h4.906z" fill="#ec3530"/><path d="m305.562 260.421h-4.905v4.899h4.905z" fill="#ec3530"/><path d="m320.28 270.219h-4.906v4.899h4.906z" fill="#ec3530"/><path d="m315.374 265.32h-4.906v4.899h4.906z" fill="#ec3530"/><path d="m310.468 260.421h-4.906v4.899h4.906z" fill="#ec3530"/><path d="m300.657 260.421h-4.906v4.899h4.906z" fill="#ec3530"/><path d="m295.751 260.421h-4.906v4.899h4.906z" fill="#ec3530"/><path d="m300.657 284.916h-4.906v4.899h4.906z" fill="#ff941f"/><path d="m300.657 289.815h-4.906v4.899h4.906z" fill="#ffc431"/><path d="m300.657 294.719h-4.906v4.899h4.906z" fill="#ff941f"/><path d="m305.562 294.719h-4.905v4.899h4.905z" fill="#ff941f"/><path d="m300.657 299.617h-4.906v4.9h4.906z" fill="#ec3530"/><path d="m300.657 304.517h-4.906v4.899h4.906z" fill="#ec3530"/><path d="m300.657 309.416h-4.906v4.899h4.906z" fill="#c00"/><path d="m300.657 314.315h-4.906v4.899h4.906z" fill="#c00"/><path d="m457.654 309.416h-4.906v4.899h4.906z" fill="#ec3530"/><path d="m457.654 304.517h-4.906v4.899h4.906z" fill="#ec3530"/><path d="m457.654 299.617h-4.906v4.9h4.906z" fill="#ec3530"/><path d="m457.654 294.719h-4.906v4.899h4.906z" fill="#ec3530"/><path d="m457.654 289.815h-4.906v4.899h4.906z" fill="#ec3530"/><path d="m457.654 284.916h-4.906v4.899h4.906z" fill="#ec3530"/><path d="m452.748 309.416h-4.905v4.899h4.905z" fill="#ec3530"/><path d="m452.748 304.517h-4.905v4.899h4.905z" fill="#ec3530"/><path d="m452.748 299.617h-4.905v4.9h4.905z" fill="#ec3530"/><path d="m452.748 294.719h-4.905v4.899h4.905z" fill="#ec3530"/><path d="m452.748 289.815h-4.905v4.899h4.905z" fill="#ec3530"/><path d="m452.748 284.916h-4.905v4.899h4.905z" fill="#ec3530"/><path d="m462.564 284.916h-4.906v4.899h4.906z" fill="#ec3530"/><path d="m467.47 284.916h-4.905v4.899h4.905z" fill="#ec3530"/><path d="m447.842 309.416h-4.906v4.899h4.906z" fill="#ec3530"/><path d="m447.842 304.517h-4.906v4.899h4.906z" fill="#ec3530"/><path d="m447.842 299.617h-4.906v4.9h4.906z" fill="#ec3530"/><path d="m447.842 294.719h-4.906v4.899h4.906z" fill="#ec3530"/><path d="m447.842 289.815h-4.906v4.899h4.906z" fill="#ec3530"/><path d="m447.842 284.916h-4.906v4.899h4.906z" fill="#ec3530"/><path d="m442.936 309.416h-4.905v4.899h4.905z" fill="#ec3530"/><path d="m442.936 304.517h-4.905v4.899h4.905z" fill="#ec3530"/><path d="m442.936 299.617h-4.905v4.9h4.905z" fill="#ec3530"/><path d="m442.936 294.719h-4.905v4.899h4.905z" fill="#ec3530"/><path d="m442.936 289.815h-4.905v4.899h4.905z" fill="#ec3530"/><path d="m442.936 284.916h-4.905v4.899h4.905z" fill="#ec3530"/><path d="m438.031 309.416h-4.906v4.899h4.906z" fill="#ec3530"/><path d="m438.031 304.517h-4.906v4.899h4.906z" fill="#ec3530"/><path d="m438.031 299.617h-4.906v4.9h4.906z" fill="#ec3530"/><path d="m438.031 294.719h-4.906v4.899h4.906z" fill="#ec3530"/><path d="m438.031 289.815h-4.906v4.899h4.906z" fill="#ec3530"/><path d="m438.031 284.916h-4.906v4.899h4.906z" fill="#ec3530"/><path d="m433.125 309.416h-4.906v4.899h4.906z" fill="#ec3530"/><path d="m433.125 304.517h-4.906v4.899h4.906z" fill="#ec3530"/><path d="m433.125 299.617h-4.906v4.9h4.906z" fill="#ec3530"/><path d="m433.125 294.719h-4.906v4.899h4.906z" fill="#ec3530"/><path d="m433.125 289.815h-4.906v4.899h4.906z" fill="#ec3530"/><path d="m433.125 284.916h-4.906v4.899h4.906z" fill="#ec3530"/><path d="m428.219 309.416h-4.906v4.899h4.906z" fill="#ec3530"/><path d="m428.219 304.517h-4.906v4.899h4.906z" fill="#ec3530"/><path d="m428.219 299.617h-4.906v4.9h4.906z" fill="#ec3530"/><path d="m428.219 294.719h-4.906v4.899h4.906z" fill="#ec3530"/><path d="m428.219 289.815h-4.906v4.899h4.906z" fill="#ec3530"/><path d="m428.219 284.916h-4.906v4.899h4.906z" fill="#ec3530"/><path d="m428.219 270.219h-4.906v4.899h4.906z" fill="#23b6d8"/><path d="m433.125 275.118h-4.906v4.899h4.906z" fill="#23b6d8"/><path d="m438.031 275.118h-4.906v4.899h4.906z" fill="#23b6d8"/><path d="m442.936 280.017h-4.905v4.899h4.905z" fill="#23b6d8"/><path d="m447.842 280.017h-4.906v4.899h4.906z" fill="#23b6d8"/><path d="m423.313 270.219h-4.906v4.899h4.906z" fill="#23b6d8"/><path d="m418.407 265.32h-4.906v4.899h4.906z" fill="#23b6d8"/><path d="m413.501 265.32h-4.906v4.899h4.906z" fill="#23b6d8"/><path d="m408.595 260.421h-4.906v4.899h4.906z" fill="#ec3530"/><path d="m423.313 280.017h-4.906v4.899h4.906z" fill="#c00"/><path d="m418.407 275.118h-4.906v4.899h4.906z" fill="#8aeeff"/><path d="m428.219 275.118h-4.906v4.899h4.906z" fill="#dcfcff"/><path d="m428.219 280.017h-4.906v4.899h4.906z" fill="#8aeeff"/><path d="m433.125 280.017h-4.906v4.899h4.906z" fill="#dcfcff"/><path d="m438.031 280.017h-4.906v4.899h4.906z" fill="#dcfcff"/><path d="m423.313 275.118h-4.906v4.899h4.906z" fill="#dcfcff"/><path d="m413.501 270.219h-4.906v4.899h4.906z" fill="#dcfcff"/><path d="m418.407 270.219h-4.906v4.899h4.906z" fill="#dcfcff"/><path d="m408.595 265.32h-4.906v4.899h4.906z" fill="#dcfcff"/><path d="m418.407 280.017h-4.906v4.899h4.906z" fill="#8aeeff"/><path d="m413.501 275.118h-4.906v4.899h4.906z" fill="#8aeeff"/><path d="m408.595 270.219h-4.906v4.899h4.906z" fill="#8aeeff"/><path d="m403.689 265.32h-4.906v4.899h4.906z" fill="#dcfcff"/><path d="m413.501 280.017h-4.906v4.899h4.906z" fill="#8aeeff"/><path d="m408.595 275.118h-4.906v4.899h4.906z" fill="#8aeeff"/><path d="m403.689 270.219h-4.906v4.899h4.906z" fill="#8aeeff"/><path d="m398.783 265.32h-4.905v4.899h4.905z" fill="#dcfcff"/><path d="m408.595 280.017h-4.906v4.899h4.906z" fill="#8aeeff"/><path d="m403.689 275.118h-4.906v4.899h4.906z" fill="#8aeeff"/><path d="m398.783 270.219h-4.905v4.899h4.905z" fill="#8aeeff"/><path d="m393.877 265.32h-4.906v4.899h4.906z" fill="#dcfcff"/><path d="m403.689 280.017h-4.906v4.899h4.906z" fill="#3dd2f4"/><path d="m398.783 280.017h-4.905v4.899h4.905z" fill="#8aeeff"/><path d="m393.877 280.017h-4.906v4.899h4.906z" fill="#3dd2f4"/><path d="m388.967 280.017h-4.906v4.899h4.906z" fill="#3dd2f4"/><path d="m384.061 280.017h-4.906v4.899h4.906z" fill="#3dd2f4"/><path d="m398.783 275.118h-4.905v4.899h4.905z" fill="#3dd2f4"/><path d="m393.877 275.118h-4.906v4.899h4.906z" fill="#8aeeff"/><path d="m388.967 275.118h-4.906v4.899h4.906z" fill="#3dd2f4"/><path d="m384.061 275.118h-4.906v4.899h4.906z" fill="#3dd2f4"/><path d="m393.877 270.219h-4.906v4.899h4.906z" fill="#3dd2f4"/><path d="m388.967 270.219h-4.906v4.899h4.906z" fill="#8aeeff"/><path d="m384.061 270.219h-4.906v4.899h4.906z" fill="#3dd2f4"/><path d="m388.967 265.32h-4.906v4.899h4.906z" fill="#dcfcff"/><path d="m384.061 265.32h-4.906v4.899h4.906z" fill="#dcfcff"/><path d="m403.689 260.421h-4.906v4.899h4.906z" fill="#ec3530"/><path d="m398.783 260.421h-4.905v4.899h4.905z" fill="#ec3530"/><path d="m393.877 260.421h-4.906v4.899h4.906z" fill="#ec3530"/><path d="m388.967 260.421h-4.906v4.899h4.906z" fill="#ec3530"/><path d="m384.061 260.421h-4.906v4.899h4.906z" fill="#ec3530"/><path d="m379.155 260.421h-4.905v4.899h4.905z" fill="#ec3530"/><path d="m379.155 265.32h-4.905v4.899h4.905z" fill="#dcfcff"/><path d="m379.155 270.219h-4.905v4.899h4.905z" fill="#3dd2f4"/><path d="m379.155 275.118h-4.905v4.899h4.905z" fill="#3dd2f4"/><path d="m379.155 280.017h-4.905v4.899h4.905z" fill="#3dd2f4"/><path d="m374.249 260.421h-4.906v4.899h4.906z" fill="#ec3530"/><path d="m369.344 265.32h-4.906v4.899h4.906z" fill="#ec3530"/><path d="m364.438 265.32h-4.906v4.899h4.906z" fill="#ec3530"/><path d="m369.344 260.421h-4.906v4.899h4.906z" fill="#ec3530"/><path d="m359.532 265.32h-4.906v4.899h4.906z" fill="#ec3530"/><path d="m354.626 265.32h-4.906v4.899h4.906z" fill="#ec3530"/><path d="m369.344 270.219h-4.906v4.899h4.906z" fill="#ec3530"/><path d="m364.438 270.219h-4.906v4.899h4.906z" fill="#ec3530"/><path d="m359.532 270.219h-4.906v4.899h4.906z" fill="#ec3530"/><path d="m354.626 270.219h-4.906v4.899h4.906z" fill="#ec3530"/><path d="m349.72 270.219h-4.906v4.899h4.906z" fill="#ec3530"/><path d="m369.344 275.118h-4.906v4.899h4.906z" fill="#ec3530"/><path d="m364.438 275.118h-4.906v4.899h4.906z" fill="#ec3530"/><path d="m359.532 275.118h-4.906v4.899h4.906z" fill="#ec3530"/><path d="m354.626 275.118h-4.906v4.899h4.906z" fill="#ec3530"/><path d="m349.72 275.118h-4.906v4.899h4.906z" fill="#ec3530"/><path d="m344.814 275.118h-4.906v4.899h4.906z" fill="#ec3530"/><path d="m369.344 280.017h-4.906v4.899h4.906z" fill="#ec3530"/><path d="m364.438 280.017h-4.906v4.899h4.906z" fill="#c00"/><path d="m359.532 280.017h-4.906v4.899h4.906z" fill="#c00"/><path d="m354.626 280.017h-4.906v4.899h4.906z" fill="#ec3530"/><path d="m349.72 280.017h-4.906v4.899h4.906z" fill="#ec3530"/><path d="m344.814 280.017h-4.906v4.899h4.906z" fill="#ec3530"/><path d="m339.908 280.017h-4.906v4.899h4.906z" fill="#ec3530"/><path d="m374.249 265.32h-4.906v4.899h4.906z" fill="#dcfcff"/><path d="m374.249 270.219h-4.906v4.899h4.906z" fill="#3dd2f4"/><path d="m374.249 275.118h-4.906v4.899h4.906z" fill="#3dd2f4"/><path d="m374.249 280.017h-4.906v4.899h4.906z" fill="#ec3530"/><path d="m369.344 260.421h-4.906v4.899h4.906z" fill="#ec3530"/><path d="m344.814 270.219h-4.906v4.899h4.906z" fill="#ec3530"/><path d="m339.908 275.118h-4.906v4.899h4.906z" fill="#ec3530"/><path d="m335.002 280.017h-4.906v4.899h4.906z" fill="#ec3530"/><path d="m330.096 275.118h-4.906v4.899h4.906z" fill="#ec3530"/><path d="m325.186 280.017h-4.906v4.899h4.906z" fill="#ec3530"/><path d="m325.186 275.118h-4.906v4.899h4.906z" fill="#ec3530"/><path d="m320.28 280.017h-4.906v4.899h4.906z" fill="#ec3530"/><path d="m339.908 270.219h-4.906v4.899h4.906z" fill="#ec3530"/><path d="m335.002 275.118h-4.906v4.899h4.906z" fill="#ec3530"/><path d="m330.096 280.017h-4.906v4.899h4.906z" fill="#ec3530"/><path d="m423.313 309.416h-4.906v4.899h4.906z" fill="#ec3530"/><path d="m423.313 304.517h-4.906v4.899h4.906z" fill="#ec3530"/><path d="m423.313 299.617h-4.906v4.9h4.906z" fill="#ec3530"/><path d="m423.313 294.719h-4.906v4.899h4.906z" fill="#ec3530"/><path d="m423.313 289.815h-4.906v4.899h4.906z" fill="#ec3530"/><path d="m423.313 284.916h-4.906v4.899h4.906z" fill="#c00"/><g fill="#ec3530"><path d="m418.407 309.416h-4.906v4.899h4.906z"/><path d="m418.407 304.517h-4.906v4.899h4.906z"/><path d="m418.407 299.617h-4.906v4.9h4.906z"/><path d="m418.407 294.719h-4.906v4.899h4.906z"/><path d="m418.407 289.815h-4.906v4.899h4.906z"/><path d="m418.407 284.916h-4.906v4.899h4.906z"/><path d="m413.501 309.416h-4.906v4.899h4.906z"/><path d="m413.501 304.517h-4.906v4.899h4.906z"/><path d="m413.501 299.617h-4.906v4.9h4.906z"/><path d="m413.501 294.719h-4.906v4.899h4.906z"/><path d="m413.501 289.815h-4.906v4.899h4.906z"/><path d="m413.501 284.916h-4.906v4.899h4.906z"/><path d="m408.595 309.416h-4.906v4.899h4.906z"/><path d="m408.595 304.517h-4.906v4.899h4.906z"/><path d="m408.595 299.617h-4.906v4.9h4.906z"/><path d="m408.595 294.719h-4.906v4.899h4.906z"/><path d="m408.595 289.815h-4.906v4.899h4.906z"/><path d="m408.595 284.916h-4.906v4.899h4.906z"/><path d="m403.689 309.416h-4.906v4.899h4.906z"/><path d="m403.689 304.517h-4.906v4.899h4.906z"/><path d="m403.689 299.617h-4.906v4.9h4.906z"/><path d="m403.689 294.719h-4.906v4.899h4.906z"/><path d="m403.689 289.815h-4.906v4.899h4.906z"/><path d="m403.689 284.916h-4.906v4.899h4.906z"/><path d="m398.783 309.416h-4.905v4.899h4.905z"/><path d="m398.783 304.517h-4.905v4.899h4.905z"/><path d="m398.783 299.617h-4.905v4.9h4.905z"/><path d="m398.783 294.719h-4.905v4.899h4.905z"/><path d="m398.783 289.815h-4.905v4.899h4.905z"/><path d="m398.783 284.916h-4.905v4.899h4.905z"/><path d="m393.877 309.416h-4.906v4.899h4.906z"/><path d="m393.877 304.517h-4.906v4.899h4.906z"/><path d="m393.877 299.617h-4.906v4.9h4.906z"/><path d="m393.877 294.719h-4.906v4.899h4.906z"/><path d="m393.877 289.815h-4.906v4.899h4.906z"/><path d="m393.877 284.916h-4.906v4.899h4.906z"/><path d="m388.967 309.416h-4.906v4.899h4.906z"/><path d="m388.967 304.517h-4.906v4.899h4.906z"/><path d="m388.967 299.617h-4.906v4.9h4.906z"/><path d="m388.967 294.719h-4.906v4.899h4.906z"/><path d="m388.967 289.815h-4.906v4.899h4.906z"/><path d="m388.967 284.916h-4.906v4.899h4.906z"/><path d="m384.061 309.416h-4.906v4.899h4.906z"/><path d="m384.061 304.517h-4.906v4.899h4.906z"/><path d="m384.061 299.617h-4.906v4.9h4.906z"/><path d="m384.061 294.719h-4.906v4.899h4.906z"/><path d="m384.061 289.815h-4.906v4.899h4.906z"/><path d="m384.061 284.916h-4.906v4.899h4.906z"/><path d="m379.155 309.416h-4.905v4.899h4.905z"/><path d="m379.155 304.517h-4.905v4.899h4.905z"/><path d="m379.155 299.617h-4.905v4.9h4.905z"/><path d="m379.155 294.719h-4.905v4.899h4.905z"/><path d="m379.155 289.815h-4.905v4.899h4.905z"/><path d="m379.155 284.916h-4.905v4.899h4.905z"/><path d="m374.249 309.416h-4.906v4.899h4.906z"/><path d="m374.249 304.517h-4.906v4.899h4.906z"/><path d="m374.249 299.617h-4.906v4.9h4.906z"/><path d="m374.249 294.719h-4.906v4.899h4.906z"/></g><path d="m374.249 289.815h-4.906v4.899h4.906z" fill="#c00"/><path d="m379.155 289.815h-4.905v4.899h4.905z" fill="#c00"/><path d="m384.061 289.815h-4.906v4.899h4.906z" fill="#c00"/><path d="m388.967 289.815h-4.906v4.899h4.906z" fill="#c00"/><path d="m393.877 289.815h-4.906v4.899h4.906z" fill="#c00"/><path d="m398.783 289.815h-4.905v4.899h4.905z" fill="#c00"/><path d="m403.689 289.815h-4.906v4.899h4.906z" fill="#c00"/><path d="m408.595 289.815h-4.906v4.899h4.906z" fill="#c00"/><path d="m413.501 289.815h-4.906v4.899h4.906z" fill="#c00"/><path d="m418.407 289.815h-4.906v4.899h4.906z" fill="#c00"/><path d="m423.313 289.815h-4.906v4.899h4.906z" fill="#c00"/><path d="m428.219 289.815h-4.906v4.899h4.906z" fill="#c00"/><path d="m433.125 289.815h-4.906v4.899h4.906z" fill="#c00"/><path d="m374.249 284.916h-4.906v4.899h4.906z" fill="#ec3530"/><path d="m369.344 309.416h-4.906v4.899h4.906z" fill="#ec3530"/><path d="m369.344 304.517h-4.906v4.899h4.906z" fill="#ec3530"/><path d="m369.344 299.617h-4.906v4.9h4.906z" fill="#ec3530"/><path d="m369.344 294.719h-4.906v4.899h4.906z" fill="#ec3530"/><path d="m369.344 289.815h-4.906v4.899h4.906z" fill="#c00"/><path d="m369.344 284.916h-4.906v4.899h4.906z" fill="#c00"/><path d="m364.438 309.416h-4.906v4.899h4.906z" fill="#ec3530"/><path d="m364.438 304.517h-4.906v4.899h4.906z" fill="#ec3530"/><path d="m364.438 299.617h-4.906v4.9h4.906z" fill="#ec3530"/><path d="m364.438 294.719h-4.906v4.899h4.906z" fill="#ec3530"/><path d="m364.438 289.815h-4.906v4.899h4.906z" fill="#ec3530"/><path d="m364.438 284.916h-4.906v4.899h4.906z" fill="#c00"/><path d="m359.532 309.416h-4.906v4.899h4.906z" fill="#ec3530"/><path d="m359.532 304.517h-4.906v4.899h4.906z" fill="#ec3530"/><path d="m359.532 299.617h-4.906v4.9h4.906z" fill="#ec3530"/><path d="m359.532 294.719h-4.906v4.899h4.906z" fill="#ec3530"/><path d="m359.532 289.815h-4.906v4.899h4.906z" fill="#ec3530"/><path d="m359.532 284.916h-4.906v4.899h4.906z" fill="#ec3530"/><path d="m354.626 309.416h-4.906v4.899h4.906z" fill="#c00"/><path d="m354.626 304.517h-4.906v4.899h4.906z" fill="#ec3530"/><path d="m354.626 299.617h-4.906v4.9h4.906z" fill="#ec3530"/><path d="m354.626 294.719h-4.906v4.899h4.906z" fill="#ec3530"/><path d="m354.626 289.815h-4.906v4.899h4.906z" fill="#ec3530"/><path d="m354.626 284.916h-4.906v4.899h4.906z" fill="#ec3530"/><path d="m349.72 309.416h-4.906v4.899h4.906z" fill="#ec3530"/><path d="m349.72 304.517h-4.906v4.899h4.906z" fill="#ec3530"/><path d="m349.72 299.617h-4.906v4.9h4.906z" fill="#ec3530"/><path d="m349.72 294.719h-4.906v4.899h4.906z" fill="#ec3530"/><path d="m349.72 289.815h-4.906v4.899h4.906z" fill="#ec3530"/><path d="m349.72 284.916h-4.906v4.899h4.906z" fill="#ec3530"/><path d="m344.814 309.416h-4.906v4.899h4.906z" fill="#ec3530"/><path d="m344.814 304.517h-4.906v4.899h4.906z" fill="#ec3530"/><path d="m344.814 299.617h-4.906v4.9h4.906z" fill="#ec3530"/><path d="m344.814 294.719h-4.906v4.899h4.906z" fill="#ec3530"/><path d="m344.814 289.815h-4.906v4.899h4.906z" fill="#ec3530"/><path d="m344.814 284.916h-4.906v4.899h4.906z" fill="#ec3530"/><path d="m339.908 309.416h-4.906v4.899h4.906z" fill="#ec3530"/><path d="m339.908 304.517h-4.906v4.899h4.906z" fill="#ec3530"/><path d="m339.908 299.617h-4.906v4.9h4.906z" fill="#ec3530"/><path d="m339.908 294.719h-4.906v4.899h4.906z" fill="#ec3530"/><path d="m339.908 289.815h-4.906v4.899h4.906z" fill="#ec3530"/><path d="m339.908 284.916h-4.906v4.899h4.906z" fill="#ec3530"/><path d="m335.002 309.416h-4.906v4.899h4.906z" fill="#ec3530"/><path d="m335.002 304.517h-4.906v4.899h4.906z" fill="#ec3530"/><path d="m335.002 299.617h-4.906v4.9h4.906z" fill="#ec3530"/><path d="m335.002 294.719h-4.906v4.899h4.906z" fill="#ec3530"/><path d="m335.002 289.815h-4.906v4.899h4.906z" fill="#ec3530"/><path d="m335.002 284.916h-4.906v4.899h4.906z" fill="#ec3530"/><path d="m330.096 309.416h-4.906v4.899h4.906z" fill="#ec3530"/><path d="m330.096 304.517h-4.906v4.899h4.906z" fill="#ec3530"/><path d="m330.096 299.617h-4.906v4.9h4.906z" fill="#ec3530"/><path d="m330.096 294.719h-4.906v4.899h4.906z" fill="#ec3530"/><path d="m330.096 289.815h-4.906v4.899h4.906z" fill="#ec3530"/><path d="m330.096 284.916h-4.906v4.899h4.906z" fill="#ec3530"/><path d="m325.186 309.416h-4.906v4.899h4.906z" fill="#ec3530"/><path d="m325.186 304.517h-4.906v4.899h4.906z" fill="#ec3530"/><path d="m325.186 299.617h-4.906v4.9h4.906z" fill="#ec3530"/><path d="m325.186 294.719h-4.906v4.899h4.906z" fill="#ec3530"/><path d="m325.186 289.815h-4.906v4.899h4.906z" fill="#ec3530"/><path d="m325.186 284.916h-4.906v4.899h4.906z" fill="#ec3530"/><path d="m320.28 309.416h-4.906v4.899h4.906z" fill="#ec3530"/><path d="m320.28 304.517h-4.906v4.899h4.906z" fill="#ec3530"/><path d="m320.28 299.617h-4.906v4.9h4.906z" fill="#ec3530"/><path d="m320.28 294.719h-4.906v4.899h4.906z" fill="#ec3530"/><path d="m320.28 289.815h-4.906v4.899h4.906z" fill="#ec3530"/><path d="m320.28 284.916h-4.906v4.899h4.906z" fill="#ec3530"/><path d="m315.374 314.315h-4.906v4.899h4.906z" fill="#c00"/><path d="m315.374 319.214h-4.906v4.899h4.906z" fill="#c00"/><path d="m315.374 309.416h-4.906v4.899h4.906z" fill="#ec3530"/><path d="m315.374 304.517h-4.906v4.899h4.906z" fill="#ec3530"/><path d="m315.374 299.617h-4.906v4.9h4.906z" fill="#ec3530"/><path d="m315.374 294.719h-4.906v4.899h4.906z" fill="#ec3530"/><path d="m315.374 289.815h-4.906v4.899h4.906z" fill="#ec3530"/><path d="m315.374 284.916h-4.906v4.899h4.906z" fill="#ec3530"/><path d="m310.468 309.416h-4.906v4.899h4.906z" fill="#ec3530"/><path d="m310.468 304.517h-4.906v4.899h4.906z" fill="#ec3530"/><path d="m310.468 299.617h-4.906v4.9h4.906z" fill="#ec3530"/><path d="m310.468 294.719h-4.906v4.899h4.906z" fill="#ec3530"/><path d="m310.468 289.815h-4.906v4.899h4.906z" fill="#ec3530"/><path d="m310.468 284.916h-4.906v4.899h4.906z" fill="#ec3530"/><path d="m305.562 309.416h-4.905v4.899h4.905z" fill="#ec3530"/><path d="m305.562 304.517h-4.905v4.899h4.905z" fill="#ec3530"/><path d="m305.562 299.617h-4.905v4.9h4.905z" fill="#ec3530"/><path d="m305.562 289.815h-4.905v4.899h4.905z" fill="#ffc431"/><path d="m305.562 284.916h-4.905v4.899h4.905z" fill="#ff941f"/><path d="m354.626 280.017h-4.906v4.899h4.906z" fill="#c00"/><path d="m349.72 280.017h-4.906v4.899h4.906z" fill="#c00"/><path d="m344.814 280.017h-4.906v4.899h4.906z" fill="#c00"/><path d="m339.908 280.017h-4.906v4.899h4.906z" fill="#c00"/><path d="m335.002 280.017h-4.906v4.899h4.906z" fill="#c00"/><path d="m330.096 280.017h-4.906v4.899h4.906z" fill="#c00"/><path d="m325.186 280.017h-4.906v4.899h4.906z" fill="#c00"/><path d="m320.28 280.017h-4.906v4.899h4.906z" fill="#c00"/><path d="m315.374 280.017h-4.906v4.899h4.906z" fill="#c00"/><path d="m310.468 280.017h-4.906v4.899h4.906z" fill="#c00"/><path d="m428.219 299.618v19.596h4.906v4.899h19.623v-4.899h4.906v-19.596h-4.906v-4.899h-19.623v4.899zm4.906 4.899h4.906v-4.899h9.811v4.899h4.906v9.798h-4.906v4.899h-9.811v-4.899h-4.906z" fill="#6d6d6d"/><path d="m438.031 304.517h-4.906v9.798h4.906v4.899h9.812v-4.899h4.905v-9.798h-4.905v-4.9h-9.812z" fill="#adadad"/><path d="m452.748 289.815h-4.906v4.899h4.906z" fill="#161616"/><path d="m457.654 294.719h-4.906v4.899h4.906z" fill="#161616"/><path d="m457.654 319.214h-4.906v4.899h4.906z" fill="#161616"/><path d="m447.842 299.617h-4.905v4.9h4.905z" fill="#ccc"/><path d="m442.936 299.617h-4.905v4.9h4.905z" fill="#ccc"/><path d="m438.031 304.517h-4.906v4.899h4.906z" fill="#ccc"/><path d="m438.031 309.416h-4.906v4.899h4.906z" fill="#ccc"/><path d="m442.936 314.315h-4.905v4.899h4.905z" fill="#ccc"/><path d="m447.842 314.315h-4.905v4.899h4.905z" fill="#ccc"/><path d="m452.748 309.416h-4.906v4.899h4.906z" fill="#ccc"/><path d="m452.748 304.517h-4.906v4.899h4.906z" fill="#ccc"/><path d="m462.564 299.617h-4.905v4.9h4.905z" fill="#161616"/><path d="m462.564 304.517h-4.905v4.899h4.905z" fill="#161616"/><path d="m462.564 309.416h-4.905v4.899h4.905z" fill="#161616"/><path d="m462.564 314.315h-4.905v4.899h4.905z" fill="#161616"/><path d="m452.748 324.113h-4.906v4.899h4.906z" fill="#161616"/><path d="m447.842 324.113h-4.905v4.899h4.905z" fill="#161616"/><path d="m442.936 324.113h-4.905v4.899h4.905z" fill="#161616"/><path d="m428.219 309.416h-4.906v4.899h4.906z" fill="#161616"/><path d="m428.219 314.315h-4.906v4.899h4.906z" fill="#161616"/><path d="m433.125 319.214h-4.906v4.899h4.906z" fill="#161616"/><path d="m438.031 324.113h-4.906v4.899h4.906z" fill="#161616"/><path d="m428.219 304.517h-4.906v4.899h4.906z" fill="#161616"/><path d="m428.219 299.617h-4.906v4.9h4.906z" fill="#161616"/><path d="m433.125 294.719h-4.906v4.899h4.906z" fill="#161616"/><path d="m438.031 289.815h-4.906v4.899h4.906z" fill="#161616"/><path d="m447.842 289.815h-4.905v4.899h4.905z" fill="#161616"/><path d="m442.936 289.815h-4.905v4.899h4.905z" fill="#161616"/><path d="m315.374 299.618v19.596h4.906v4.899h19.624v-4.899h4.906v-19.596h-4.906v-4.899h-19.624v4.899zm4.906 4.899h4.906v-4.899h9.812v4.899h4.906v9.798h-4.906v4.899h-9.812v-4.899h-4.906z" fill="#6d6d6d"/><path d="m325.19 304.517h-4.91v9.798h4.91v4.899h9.812v-4.899h4.906v-9.798h-4.906v-4.9h-9.812z" fill="#adadad"/><path d="m339.908 289.815h-4.906v4.899h4.906z" fill="#161616"/><path d="m344.814 294.719h-4.906v4.899h4.906z" fill="#161616"/><path d="m344.814 319.214h-4.906v4.899h4.906z" fill="#161616"/><path d="m335.002 299.617h-4.906v4.9h4.906z" fill="#ccc"/><path d="m330.096 299.617h-4.906v4.9h4.906z" fill="#ccc"/><path d="m325.186 304.517h-4.906v4.899h4.906z" fill="#ccc"/><path d="m325.186 309.416h-4.906v4.899h4.906z" fill="#ccc"/><path d="m330.096 314.315h-4.906v4.899h4.906z" fill="#ccc"/><path d="m335.002 314.315h-4.906v4.899h4.906z" fill="#ccc"/><path d="m339.908 309.416h-4.906v4.899h4.906z" fill="#ccc"/><path d="m339.908 304.517h-4.906v4.899h4.906z" fill="#ccc"/><path d="m349.72 299.617h-4.906v4.9h4.906z" fill="#161616"/><path d="m349.72 304.517h-4.906v4.899h4.906z" fill="#161616"/><path d="m349.72 309.416h-4.906v4.899h4.906z" fill="#161616"/><path d="m349.72 314.315h-4.906v4.899h4.906z" fill="#161616"/><path d="m339.908 324.113h-4.906v4.899h4.906z" fill="#161616"/><path d="m335.002 324.113h-4.906v4.899h4.906z" fill="#161616"/><path d="m330.096 324.113h-4.906v4.899h4.906z" fill="#161616"/><path d="m315.374 309.416h-4.906v4.899h4.906z" fill="#161616"/><path d="m315.374 314.315h-4.906v4.899h4.906z" fill="#161616"/><path d="m320.28 319.214h-4.906v4.899h4.906z" fill="#161616"/><path d="m325.186 324.113h-4.906v4.899h4.906z" fill="#161616"/><path d="m315.374 304.517h-4.906v4.899h4.906z" fill="#161616"/><path d="m315.374 299.617h-4.906v4.9h4.906z" fill="#161616"/><path d="m320.28 294.719h-4.906v4.899h4.906z" fill="#161616"/><path d="m325.186 289.815h-4.906v4.899h4.906z" fill="#161616"/><path d="m335.002 289.815h-4.906v4.899h4.906z" fill="#161616"/><path d="m330.096 289.815h-4.906v4.899h4.906z" fill="#161616"/><path d="m22.94 25.0938h38.614c11.696 0 21.242 9.632 21.242 21.328 0 12.556-9.546 22.102-21.242 22.102h-9.46v18.318c0 .516-.43.946-.946.946h-28.208c-.516 0-.86-.258-.86-.774v-60.974c0-.516.258-.946.86-.946zm28.208 19.264v5.332h1.462c1.548 0 2.752-1.118 2.752-2.666 0-1.462-1.204-2.666-2.752-2.666zm84.688 21.07 14.62 21.07c.172.258.172.602 0 .86s-.43.43-.774.43h-28.466c-.258 0-.516-.086-.688-.344l-5.074-7.138v6.622c0 .516-.344.86-.86.86h-25.3702c-.516 0-.86-.344-.86-.86v-60.974c0-.516.344-.86.86-.86h37.7542c12.47 0 21.5 8.514 21.5 20.984 0 8.342-5.074 16.082-12.642 19.35zm-20.124-22.016v5.332h1.462c1.548 0 2.838-1.204 2.838-2.666s-1.29-2.666-2.838-2.666zm41.287-18.318h59.684c.516 0 .86.258.86.86v17.114c0 .602-.344.86-.86.86h-31.648v3.096h20.382c.516 0 .774.258.774.86v17.2c0 .602-.258.86-.774.86h-20.382v3.096h31.648c.516 0 .86.258.86.774v17.114c0 .602-.344.86-.86.86h-59.684c-.516 0-.86-.344-.86-.774v-61.06c0-.43.344-.86.86-.86zm67.02 0h28.638c17.2 0 31.218 14.104 31.218 31.39 0 17.2-14.018 31.304-31.304 31.304h-28.552c-.516 0-.86-.344-.86-.774v-61.06c0-.43.344-.86.86-.86zm26.832 28.208v6.106h1.72c1.72 0 3.096-1.29 3.096-3.01s-1.376-3.096-3.096-3.096zm53.275 2.236c-8.514 0-15.48-6.88-15.48-15.394s6.966-15.05 15.48-15.05c8.6 0 15.48 6.536 15.48 15.05s-6.88 15.394-15.48 15.394zm-14.19 1.806h28.38c.43 0 .86.43.86.86v28.724c0 .516-.43.86-.86.86h-28.38c-.43 0-.86-.344-.86-.86v-28.724c0-.43.43-.86.86-.86zm97.002-3.096c0 .43-.344.86-.86.86h-26.746c-.258 0-.516-.172-.688-.43-.688-1.032-1.72-1.634-2.924-1.634-1.892 0-3.44 1.548-3.44 3.44s1.548 3.44 3.44 3.44c1.204 0 2.236-.688 2.924-1.72.172-.258.43-.344.688-.344h26.746c.516 0 .86.43.86.86 0 16.254-14.878 29.068-31.218 29.068-17.286 0-31.39-14.018-31.39-31.304s14.104-31.39 31.39-31.39c16.254 0 31.218 12.9 31.218 29.154zm5.101-29.154h60.888c.43 0 .774.344.774.774v30.186c0 .43-.344.774-.774.774h-15.652v30.186c0 .43-.43.774-.86.774h-27.95c-.43 0-.774-.344-.774-.774v-30.186h-15.652c-.43 0-.774-.344-.774-.774v-30.186c0-.43.344-.774.774-.774zm81.904 30.444c-8.514 0-15.48-6.88-15.48-15.394s6.966-15.05 15.48-15.05c8.6 0 15.48 6.536 15.48 15.05s-6.88 15.394-15.48 15.394zm-14.19 1.806h28.38c.43 0 .86.43.86.86v28.724c0 .516-.43.86-.86.86h-28.38c-.43 0-.86-.344-.86-.86v-28.724c0-.43.43-.86.86-.86zm65.955-32.25c17.458 0 31.562 13.932 31.562 31.39s-14.104 31.304-31.562 31.304-31.562-13.846-31.562-31.304 14.104-31.39 31.562-31.39zm0 34.4c1.634 0 3.01-1.29 3.01-3.01 0-1.634-1.376-3.01-3.01-3.01s-3.01 1.376-3.01 3.01c0 1.72 1.376 3.01 3.01 3.01zm66.836-3.268v30.788c0 .43-.43.774-.86.774h-27.95c-.43 0-.774-.344-.774-.774v-61.06c0-.516.344-.86.774-.86h28.122c.516 0 .86.258.946.774l3.87 30.1c0 .172.172.172.172 0v-30.014c0-.516.344-.86.774-.86h27.95c.43 0 .86.344.86.86v61.06c0 .43-.43.774-.86.774h-28.208c-.344-.086-.602-.43-.688-.774l-3.956-30.788c0-.172-.172-.172-.172 0zm-496.6832 109.5622h-28.9679c-.4926 0-.5911 0-.7882-.591l-7.8824-25.421c-.1971-.69-.6897-.985-1.1824-.985-.5911 0-.9853.591-.9853 1.083v25.027c0 .493-.3941.887-.8867.887h-31.7267c-.4927 0-.8868-.394-.8868-.887v-69.9562c0-.5912.3941-.9853.8868-.9853h51.5312c.4926 0 .6897.2956.8868.9853l4.5323 15.7652c.1971.591.5912.788 1.0839.788.4926 0 .8867-.197 1.0838-.788l4.3353-15.7652c.1971-.6897.3941-.9853.8868-.9853h51.5307c.493 0 .887.3941.887.9853v69.9562c0 .493-.394.887-.887.887h-31.726c-.493 0-.887-.394-.887-.887v-25.027c0-.492-.394-1.083-.985-1.083-.493 0-.986.295-1.183.985l-7.882 25.421c-.1971.591-.2956.591-.7882.591zm107.1872-71.2374 23.942 69.9564c.296.788-.098 1.281-.886 1.281h-32.22c-.689 0-.985-.394-1.182-.985l-1.872-5.617h-8.868l-1.872 5.617c-.197.591-.493.985-1.182.985h-32.318c-.788 0-1.183-.493-.887-1.281l24.14-69.9564c.197-.3941.493-.5911.985-.5911h31.333c.394 0 .788.197.887.5911zm-19.706 60.4974h6.108l-3.054-9.459zm104.538-14.878 16.75 24.14c.197.295.197.69 0 .985-.197.296-.493.493-.887.493h-32.614c-.295 0-.591-.099-.788-.394l-5.813-8.178v7.587c0 .591-.394.985-.985.985h-29.067c-.591 0-.985-.394-.985-.985v-69.8582c0-.5912.394-.9853.985-.9853h43.255c14.287 0 24.632 9.7545 24.632 24.0415 0 9.557-5.813 18.425-14.483 22.169zm-23.056-25.224v6.109h1.675c1.773 0 3.251-1.379 3.251-3.054s-1.478-3.055-3.251-3.055zm46.317-20.9865h32.515c.591 0 .985.4926.985.9853v24.2382h2.562l10.149-24.2382c.295-.5912.492-.9853 1.281-.9853h33.303c.689 0 .886.2956.492 1.1823l-14.582 34.8792 14.582 34.584c.394.887.197 1.183-.492 1.183h-33.402c-.788 0-.985-.394-1.281-.985l-9.853-23.549h-2.759v23.549c0 .591-.394.985-.985.985h-32.515c-.591 0-.985-.394-.985-.985v-69.8582c0-.6897.394-.9853.985-.9853zm88.835 0h68.38c.591 0 .985.2956.985.9853v19.6072c0 .69-.394.986-.985.986h-36.259v3.547h23.351c.591 0 .887.295.887.985v19.706c0 .69-.296.985-.887.985h-23.351v3.547h36.259c.591 0 .985.296.985.887v19.608c0 .689-.394.985-.985.985h-68.38c-.591 0-.985-.394-.985-.887v-69.9562c0-.4927.394-.9853.985-.9853zm76.17 0h69.759c.493 0 .887.3941.887.8867v34.5838c0 .493-.394.887-.887.887h-17.932v34.584c0 .493-.493.887-.986.887h-32.022c-.493 0-.887-.394-.887-.887v-34.584h-17.932c-.493 0-.887-.394-.887-.887v-34.5838c0-.4926.394-.8867.887-.8867zm111.079 48.6735c0 1.774 1.084 2.661 2.858 2.661 1.478 0 2.66-1.084 2.66-2.365 0-1.774-1.478-2.857-3.744-2.857-21.972-.099-37.245-7.193-37.245-22.367 0-13.893 18.13-23.7455 37.54-23.7455 19.312 0 36.456 7.8825 36.456 22.6615 0 .592-.492 1.084-1.182 1.084h-31.628c-.788 0-1.379-.492-1.379-1.379 0-1.38-1.281-2.266-2.759-2.266-1.577 0-2.858 1.083-2.858 2.364 0 .69.197 2.464 2.759 2.464 24.731 0 37.737 8.966 37.737 24.041 0 14.09-13.006 22.859-37.638 22.859-19.509 0-36.555-8.08-36.555-23.155 0-.591.493-1.084 1.182-1.084h32.614c.69 0 1.182.493 1.182 1.084z" fill="#8cd9da"/><path clip-rule="evenodd" d="m134.619 151.59h12.983v2.597h5.194v2.596h2.596v2.597h-28.562v-2.597h2.596v-2.596h5.193zm-10.386 7.79h33.756v2.596h2.596v2.597 2.596h2.597v2.597 2.597h-54.528v-2.597h2.596v-2.597h5.193v-2.596h5.194v-2.597h2.596zm38.949 12.983h-54.528v2.596h-2.597v2.597 2.596 2.597 2.596h2.597v2.597h59.721v-2.597-2.596-2.597h-2.597v-2.596h-2.596v-2.597zm5.193 15.579h-59.721v2.597h2.596v2.596h54.528v-2.596h2.597zm-5.193 5.193h-46.739v2.597h46.739z" fill="#fff" fill-rule="evenodd"/><path clip-rule="evenodd" d="m605.242 173.461h-15.118v3.024h-6.047v3.023h-3.023v3.024h33.258v-3.024h-3.023v-3.023h-6.047zm12.094 9.071h-39.306v3.023h-3.023v3.023 3.024h51.399v-3.024h-6.047v-3.023h-3.023zm-45.352 9.07h60.469v3.024l3.024-.001v3.024 3.023h3.023v3.024 3.023h-69.54v-3.023h3.024v-3.024-3.023-3.023zm66.516 15.117h-72.563v3.024 3.023 3.023 3.024h3.023v3.023h63.493v-3.023h3.024v-3.024-3.023h3.023v-3.023zm-66.517 15.117h54.423v3.024h-54.423z" fill="#fff" fill-rule="evenodd"/><path d="m22.0725 341.273h-28.4331v4.913h28.4331z" fill="#fff"/><path d="m76.981 341.273h-28.4331v4.913h28.4331z" fill="#fff"/><path d="m131.889 341.273h-28.433v4.913h28.433z" fill="#fff"/><path d="m186.798 341.273h-28.433v4.913h28.433z" fill="#fff"/><path d="m241.707 341.273h-28.434v4.913h28.434z" fill="#fff"/><path d="m296.615 341.273h-28.433v4.913h28.433z" fill="#fff"/><path d="m351.523 341.273h-28.433v4.913h28.433z" fill="#fff"/><path d="m406.432 341.273h-28.433v4.913h28.433z" fill="#fff"/><path d="m461.34 341.273h-28.433v4.913h28.433z" fill="#fff"/><path d="m521.001 341.273h-28.433v4.913h28.433z" fill="#fff"/><path d="m575.909 341.273h-28.433v4.913h28.433z" fill="#fff"/><path d="m630.818 341.273h-28.433v4.913h28.433z" fill="#fff"/><path clip-rule="evenodd" d="m194.655 317.122h-4.906-4.906v4.899h-4.906v4.899h4.906 4.906 4.906v-4.899zm0 0h4.906v4.899 4.899h-4.906v-4.899zm29.44 0h-4.906v4.899 4.899h4.906 4.906v-4.899h-4.906zm-9.812 9.798h-4.906v-4.899-4.899h4.906v4.899zm0-9.798h4.906v4.899 4.899h-4.906v-4.899zm14.718 9.798h4.906 4.905v4.899h-4.905v4.899h-4.906v-4.899zm9.811 9.798h-4.905-4.906v4.899 4.899h4.906 4.905v-4.899zm-9.811 0h-4.906-4.906v4.899 4.899h4.906 4.906v-4.899zm-14.718 0h4.906v4.899 4.899h-4.906v-4.899zm0 0h-4.906v4.899 4.899h4.906v-4.899zm-9.816 0h4.906v4.899 4.899h-4.906-4.906v-4.899-4.899zm0-19.596h4.906v4.899 4.899h-4.906-4.906v-4.899-4.899zm-9.812 14.697v-4.899h4.906v4.899 4.899h-4.906zm4.906 4.899v4.899 4.899h-4.906v-4.899-4.899zm-19.624-14.697h-4.906-4.906v4.899h4.906 4.906zm9.812 4.899h-4.906-4.906v4.899 4.899h4.906 4.906 4.906v-4.899-4.899zm-9.812 0h-4.906-4.906v4.899 4.899h4.906 4.906v-4.899zm-9.812 0h-4.905-.001-4.905v4.899 4.899h4.905.001 4.905v-4.899zm14.718 9.798h4.906 4.906v4.899 4.899h-4.906-4.906-4.906v-4.899-4.899zm-9.812 0h4.906v4.899 4.899h-4.906-4.906v-4.899-4.899zm-9.811 0h4.905v4.899 4.899h-4.905-.001-4.905v-4.899-4.899h4.905zm-9.812 0h4.905v4.899 4.899h-4.905-4.906-4.906v-4.899-4.899h4.906zm0-9.798v4.899h-4.906-4.906v4.899h4.906 4.906 4.905v-4.899-4.899zm-9.816 14.697v4.899h-4.906v-4.899-4.899h4.906zm0-9.798h-4.906v4.899h4.906zm-4.906 4.899h-4.906-4.906-4.906v4.899h-4.906v4.899h4.906 4.906 4.906 4.906v-4.899zm103.032 4.899h-4.905v4.899h4.905zm-44.157 24.5v4.899h-4.906v-4.899zm0 0v-4.899-4.899h-4.906v4.899 4.899zm0-9.798v-4.899h-4.906v4.899zm-9.812 9.798h4.906v4.899h-4.906-4.906-4.906v-4.899h4.906zm4.906 0v-4.899-4.899h-4.906-4.906-4.906v4.899 4.899h4.906 4.906zm0-14.697h-4.906-4.906-4.906v4.899h4.906 4.906 4.906zm-4.906-4.904h4.906v4.899h-4.906-4.906-4.906v-4.899h4.906zm4.906 0v4.899h4.906v-4.899zm9.812 0v4.899h4.906v-4.899zm4.91 4.899v-4.899h4.906v4.899zm4.906-4.899v4.899h4.906v-4.899zm4.906 4.899v-4.899h4.906 4.906v4.899h-4.906zm9.812 0v-4.899h4.906 4.905v4.899h-4.905zm19.623-4.899h-4.906v4.899h4.906zm0 0h4.906 4.906 4.906v4.899h-4.906-4.906-4.906zm-73.593 19.601h4.906v4.899h-4.906-4.906v-4.899zm4.906 0v-4.899-4.899h-4.906-4.906v4.899 4.899h4.906zm0-14.697h-4.906-4.906v4.899h4.906 4.906zm-4.906-4.904h4.906v4.899h-4.906-4.906v-4.899zm-9.811 19.601h4.905v4.899 4.899h-4.906v-4.899h-.004v4.899h.004v4.899h-4.905v4.899h-4.906v-4.899 4.899h-4.906-4.906v-4.899h-.004v4.899h-4.906v-4.899h-4.906v-4.899-4.899 4.899 4.899h-4.906v-4.899-4.899h-4.906-4.906v-4.899h4.906 4.906 4.906-4.906-4.906-4.906v-4.899-4.899h4.906 4.906 4.906-4.906-4.906v-4.899h4.906 4.906 4.906 19.623.004v4.899h.001v-4.899h4.905.001 4.905v4.899h-4.905-.001-.004.004.001 4.905v4.899 4.899h-4.905-.001-.004.004zm-4.911 14.697h.005v-4.899h-.005zm4.911-34.298h4.905v4.899h-4.905-.001-4.905v-4.899h4.905zm-19.624 9.803h4.906 4.901-4.901-4.906-.004v4.899h.004zm0 19.596v-4.899h-.004v4.899zm9.812-29.399h4.906v4.899h-.001-4.905-4.906-4.906v-4.899h4.906zm-9.816 0v4.899h-4.906v-4.899zm-9.812 0h4.906v4.899h-4.906-4.906-4.906-4.906v-4.899h4.906 4.906zm112.844 9.803h-4.906v4.899 4.899h4.906-4.906v4.899 4.899h4.906v4.899h4.906v4.899h4.906 4.906 4.906 4.906v-4.899h4.906v-4.899-19.596-4.899h-4.906-19.624-4.906zm4.906 4.899v4.899 4.899zm4.906-4.899h9.812-4.906zm14.718-9.803h-4.906v4.899h4.906zm4.91 9.803h4.906v4.899 4.899h-4.906v-4.899zm0 14.697v-4.899h4.906v4.899 4.899h-4.906zm-9.816-24.5h-4.906v4.899h4.906z" fill="#41dd73" fill-rule="evenodd"/><path d="m287.876 366.117h-4.906v4.899h4.906z" fill="#41dd73"/><path d="m287.876 361.218h-4.906v4.899h4.906z" fill="#41dd73"/><path d="m287.876 356.319h-4.906v4.899h4.906z" fill="#41dd73"/><path d="m287.876 351.419h-4.906v4.9h4.906z" fill="#41dd73"/><path d="m287.876 346.516h-4.906v4.899h4.906z" fill="#ededed"/><path d="m292.782 366.117h-4.906v4.899h4.906z" fill="#41dd73"/><path d="m287.876 371.016h-4.906v4.899h4.906z" fill="#19cc52"/><path d="m292.782 371.016h-4.906v4.899h4.906z" fill="#19cc52"/><path d="m287.876 375.915h-4.906v4.899h4.906z" fill="#19cc52"/><path d="m282.97 375.915h-4.906v4.899h4.906z" fill="#19cc52"/><path d="m292.782 375.915h-4.906v4.899h4.906z" fill="#19cc52"/><path d="m297.688 375.915h-4.906v4.899h4.906z" fill="#19cc52"/><path d="m238.812 371.016h-4.905v4.899h4.905z" fill="#19cc52"/><path d="m243.718 371.016h-4.906v4.899h4.906z" fill="#19cc52"/><path d="m238.812 375.915h-4.905v4.899h4.905z" fill="#19cc52"/><path d="m243.718 375.915h-4.906v4.899h4.906z" fill="#19cc52"/><path d="m248.624 375.915h-4.906v4.899h4.906z" fill="#19cc52"/><path d="m229.001 371.016h-4.906v4.899h4.906z" fill="#19cc52"/><path d="m233.907 371.016h-4.906v4.899h4.906z" fill="#19cc52"/><path d="m229.001 375.915h-4.906v4.899h4.906z" fill="#19cc52"/><path d="m233.907 375.915h-4.906v4.899h4.906z" fill="#19cc52"/><path d="m219.189 371.016h-4.906v4.899h4.906z" fill="#19cc52"/><path d="m224.095 371.016h-4.906v4.899h4.906z" fill="#19cc52"/><path d="m219.189 375.915h-4.906v4.899h4.906z" fill="#19cc52"/><path d="m224.095 375.915h-4.906v4.899h4.906z" fill="#19cc52"/><path d="m209.373 371.016h-4.906v4.899h4.906z" fill="#19cc52"/><path d="m214.283 371.016h-4.906v4.899h4.906z" fill="#19cc52"/><path d="m209.373 375.915h-4.906v4.899h4.906z" fill="#19cc52"/><path d="m214.283 375.915h-4.906v4.899h4.906z" fill="#19cc52"/><path d="m199.561 371.016h-4.906v4.899h4.906z" fill="#19cc52"/><path d="m204.467 371.016h-4.906v4.899h4.906z" fill="#19cc52"/><path d="m199.561 375.915h-4.906v4.899h4.906z" fill="#19cc52"/><path d="m204.467 375.915h-4.906v4.899h4.906z" fill="#19cc52"/><path d="m189.749 371.016h-4.906v4.899h4.906z" fill="#19cc52"/><path d="m194.655 371.016h-4.906v4.899h4.906z" fill="#19cc52"/><path d="m189.749 375.915h-4.906v4.899h4.906z" fill="#19cc52"/><path d="m194.655 375.915h-4.906v4.899h4.906z" fill="#19cc52"/><path d="m179.937 371.016h-4.906v4.899h4.906z" fill="#19cc52"/><path d="m184.843 371.016h-4.906v4.899h4.906z" fill="#19cc52"/><path d="m179.937 375.915h-4.906v4.899h4.906z" fill="#19cc52"/><path d="m184.843 375.915h-4.906v4.899h4.906z" fill="#19cc52"/><path d="m170.125 371.016h-4.906v4.899h4.906z" fill="#19cc52"/><path d="m175.031 371.016h-4.906v4.899h4.906z" fill="#19cc52"/><path d="m170.125 375.915h-4.906v4.899h4.906z" fill="#19cc52"/><path d="m175.031 375.915h-4.906v4.899h4.906z" fill="#19cc52"/><path d="m160.314 371.016h-4.906v4.899h4.906z" fill="#19cc52"/><path d="m165.22 371.016h-4.906v4.899h4.906z" fill="#19cc52"/><path d="m160.314 375.915h-4.906v4.899h4.906z" fill="#19cc52"/><path d="m165.22 375.915h-4.906v4.899h4.906z" fill="#19cc52"/><path d="m150.502 371.016h-4.906v4.899h4.906z" fill="#19cc52"/><path d="m155.408 371.016h-4.906v4.899h4.906z" fill="#19cc52"/><path d="m150.502 375.915h-4.906v4.899h4.906z" fill="#19cc52"/><path d="m145.592 371.016h-4.906v4.899h4.906z" fill="#19cc52"/><path d="m145.592 375.915h-4.906v4.899h4.906z" fill="#19cc52"/><path d="m140.686 371.016h-4.906v4.899h4.906z" fill="#19cc52"/><path d="m140.686 375.915h-4.906v4.899h4.906z" fill="#19cc52"/><path d="m130.874 371.016h-4.906v4.899h4.906z" fill="#19cc52"/><path d="m130.874 375.915h-4.906v4.899h4.906z" fill="#19cc52"/><path d="m125.968 371.016h-4.906v4.899h4.906z" fill="#19cc52"/><path d="m125.968 375.915h-4.906v4.899h4.906z" fill="#19cc52"/><path d="m155.408 375.915h-4.906v4.899h4.906z" fill="#19cc52"/><path d="m292.782 361.218h-4.906v4.899h4.906z" fill="#41dd73"/><path d="m292.782 356.319h-4.906v4.899h4.906z" fill="#41dd73"/><path d="m292.782 351.419h-4.906v4.9h4.906z" fill="#ededed"/><path d="m297.688 366.117h-4.906v4.899h4.906z" fill="#41dd73"/><path d="m302.594 366.117h-4.906v4.899h4.906z" fill="#41dd73"/><path d="m297.688 371.016h-4.906v4.899h4.906z" fill="#19cc52"/><path d="m302.594 375.915h-4.906v4.899h4.906z" fill="#19cc52"/><path d="m302.594 371.016h-4.906v4.899h4.906z" fill="#19cc52"/><path d="m297.688 361.218h-4.906v4.899h4.906z" fill="#41dd73"/><path d="m302.594 361.218h-4.906v4.899h4.906z" fill="#41dd73"/><path d="m307.499 366.117h-4.905v4.899h4.905z" fill="#41dd73"/><path d="m307.499 375.915h-4.905v4.899h4.905z" fill="#19cc52"/><path d="m307.499 371.016h-4.905v4.899h4.905z" fill="#19cc52"/><path d="m312.406 375.915h-4.906v4.899h4.906z" fill="#19cc52"/><path d="m312.406 371.016h-4.906v4.899h4.906z" fill="#19cc52"/><path d="m307.499 361.218h-4.905v4.899h4.905z" fill="#41dd73"/><path d="m302.594 356.319h-4.906v4.899h4.906z" fill="#41dd73"/><path d="m297.688 356.319h-4.906v4.899h4.906z" fill="#ededed"/><path d="m297.688 351.419h-4.906v4.9h4.906z" fill="#41dd73"/><path d="m292.782 346.516h-4.906v4.899h4.906z" fill="#41dd73"/><path d="m282.97 366.117h-4.906v4.899h4.906z" fill="#41dd73"/><path d="m282.97 361.218h-4.906v4.899h4.906z" fill="#41dd73"/><path d="m282.97 356.319h-4.906v4.899h4.906z" fill="#41dd73"/><path d="m282.97 351.419h-4.906v4.9h4.906z" fill="#41dd73"/><path d="m282.97 346.516h-4.906v4.899h4.906z" fill="#41dd73"/><path d="m135.78 336.718h-4.906v4.899h4.906z" fill="#41dd73"/><path d="m130.874 326.92h-4.906v4.899h4.906z" fill="#41dd73"/><path d="m135.78 326.92h-4.906v4.899h4.906z" fill="#41dd73"/><path d="m130.874 336.718h-4.906v4.899h4.906z" fill="#41dd73"/><path d="m125.968 326.92h-4.906v4.899h4.906z" fill="#41dd73"/><path d="m125.968 336.718h-4.906v4.899h4.906z" fill="#41dd73"/><path d="m121.062 326.92h-4.906v4.899h4.906z" fill="#41dd73"/><path d="m135.78 331.819h-4.906v4.899h4.906z" fill="#41dd73"/><path d="m140.686 331.819h-4.906v4.899h4.906z" fill="#41dd73"/><path d="m130.874 331.819h-4.906v4.899h4.906z" fill="#41dd73"/><path d="m125.968 331.819h-4.906v4.899h4.906z" fill="#41dd73"/><path d="m121.062 331.819h-4.906v4.899h4.906z" fill="#41dd73"/><path d="m121.062 336.718h-4.906v4.899h4.906z" fill="#41dd73"/><path d="m116.156 326.92h-4.906v4.899h4.906z" fill="#41dd73"/><path d="m121.062 322.021h-4.906v4.899h4.906z" fill="#41dd73"/><path d="m116.156 322.021h-4.906v4.899h4.906z" fill="#41dd73"/><path d="m125.968 322.021h-4.906v4.899h4.906z" fill="#41dd73"/><path d="m130.874 322.021h-4.906v4.899h4.906z" fill="#41dd73"/><path d="m125.968 317.122h-4.906v4.899h4.906z" fill="#41dd73"/><path d="m140.686 326.92h-4.906v4.899h4.906z" fill="#41dd73"/><path d="m135.78 322.021h-4.906v4.899h4.906z" fill="#41dd73"/><path d="m130.874 317.122h-4.906v4.899h4.906z" fill="#41dd73"/><path d="m121.062 317.122h-4.906v4.899h4.906z" fill="#41dd73"/><path d="m116.156 317.122h-4.906v4.899h4.906z" fill="#41dd73"/><path d="m121.062 341.617h-4.906v4.899h4.906z" fill="#ff941f"/><path d="m121.062 346.516h-4.906v4.899h4.906z" fill="#ffc431"/><path d="m121.062 351.419h-4.906v4.9h4.906z" fill="#ff941f"/><path d="m125.968 351.419h-4.906v4.9h4.906z" fill="#ff941f"/><path d="m121.062 356.319h-4.906v4.899h4.906z" fill="#41dd73"/><path d="m121.062 361.218h-4.906v4.899h4.906z" fill="#41dd73"/><path d="m121.062 366.117h-4.906v4.899h4.906z" fill="#19cc52"/><path d="m121.062 371.016h-4.906v4.899h4.906z" fill="#19cc52"/><path d="m278.06 366.117h-4.906v4.899h4.906z" fill="#41dd73"/><path d="m278.06 361.218h-4.906v4.899h4.906z" fill="#41dd73"/><path d="m278.06 356.319h-4.906v4.899h4.906z" fill="#41dd73"/><path d="m278.06 351.419h-4.906v4.9h4.906z" fill="#41dd73"/><path d="m278.06 346.516h-4.906v4.899h4.906z" fill="#41dd73"/><path d="m278.06 341.617h-4.906v4.899h4.906z" fill="#41dd73"/><path d="m273.154 366.117h-4.906v4.899h4.906z" fill="#41dd73"/><path d="m273.154 361.218h-4.906v4.899h4.906z" fill="#41dd73"/><path d="m273.154 356.319h-4.906v4.899h4.906z" fill="#41dd73"/><path d="m273.154 351.419h-4.906v4.9h4.906z" fill="#41dd73"/><path d="m273.154 346.516h-4.906v4.899h4.906z" fill="#41dd73"/><path d="m273.154 341.617h-4.906v4.899h4.906z" fill="#41dd73"/><path d="m282.97 341.617h-4.906v4.899h4.906z" fill="#41dd73"/><path d="m287.876 341.617h-4.906v4.899h4.906z" fill="#41dd73"/><path d="m268.248 366.117h-4.906v4.899h4.906z" fill="#41dd73"/><path d="m268.248 361.218h-4.906v4.899h4.906z" fill="#41dd73"/><path d="m268.248 356.319h-4.906v4.899h4.906z" fill="#41dd73"/><path d="m268.248 351.419h-4.906v4.9h4.906z" fill="#41dd73"/><path d="m268.248 346.516h-4.906v4.899h4.906z" fill="#41dd73"/><path d="m268.248 341.617h-4.906v4.899h4.906z" fill="#41dd73"/><path d="m263.342 366.117h-4.906v4.899h4.906z" fill="#41dd73"/><path d="m263.342 361.218h-4.906v4.899h4.906z" fill="#41dd73"/><path d="m263.342 356.319h-4.906v4.899h4.906z" fill="#41dd73"/><path d="m263.342 351.419h-4.906v4.9h4.906z" fill="#41dd73"/><path d="m263.342 346.516h-4.906v4.899h4.906z" fill="#41dd73"/><path d="m263.342 341.617h-4.906v4.899h4.906z" fill="#41dd73"/><path d="m258.436 366.117h-4.906v4.899h4.906z" fill="#41dd73"/><path d="m258.436 361.218h-4.906v4.899h4.906z" fill="#41dd73"/><path d="m258.436 356.319h-4.906v4.899h4.906z" fill="#41dd73"/><path d="m258.436 351.419h-4.906v4.9h4.906z" fill="#41dd73"/><path d="m258.436 346.516h-4.906v4.899h4.906z" fill="#41dd73"/><path d="m258.436 341.617h-4.906v4.899h4.906z" fill="#41dd73"/><path d="m253.53 366.117h-4.906v4.899h4.906z" fill="#41dd73"/><path d="m253.53 361.218h-4.906v4.899h4.906z" fill="#41dd73"/><path d="m253.53 356.319h-4.906v4.899h4.906z" fill="#41dd73"/><path d="m253.53 351.419h-4.906v4.9h4.906z" fill="#41dd73"/><path d="m253.53 346.516h-4.906v4.899h4.906z" fill="#41dd73"/><path d="m253.53 341.617h-4.906v4.899h4.906z" fill="#41dd73"/><path d="m248.624 366.117h-4.906v4.899h4.906z" fill="#41dd73"/><path d="m248.624 361.218h-4.906v4.899h4.906z" fill="#41dd73"/><path d="m248.624 356.319h-4.906v4.899h4.906z" fill="#41dd73"/><path d="m248.624 351.419h-4.906v4.9h4.906z" fill="#41dd73"/><path d="m248.624 346.516h-4.906v4.899h4.906z" fill="#41dd73"/><path d="m248.624 341.617h-4.906v4.899h4.906z" fill="#41dd73"/><path d="m248.624 326.92h-4.906v4.899h4.906z" fill="#23b6d8"/><path d="m253.53 331.819h-4.906v4.899h4.906z" fill="#23b6d8"/><path d="m258.436 331.819h-4.906v4.899h4.906z" fill="#23b6d8"/><path d="m263.342 336.718h-4.906v4.899h4.906z" fill="#23b6d8"/><path d="m268.248 336.718h-4.906v4.899h4.906z" fill="#23b6d8"/><path d="m243.718 326.92h-4.906v4.899h4.906z" fill="#23b6d8"/><path d="m238.812 322.021h-4.905v4.899h4.905z" fill="#23b6d8"/><path d="m233.907 322.021h-4.906v4.899h4.906z" fill="#23b6d8"/><path d="m229.001 317.122h-4.906v4.899h4.906z" fill="#41dd73"/><path d="m243.718 336.718h-4.906v4.899h4.906z" fill="#19cc52"/><path d="m238.812 331.819h-4.905v4.899h4.905z" fill="#8aeeff"/><path d="m248.624 331.819h-4.906v4.899h4.906z" fill="#dcfcff"/><path d="m248.624 336.718h-4.906v4.899h4.906z" fill="#8aeeff"/><path d="m253.53 336.718h-4.906v4.899h4.906z" fill="#dcfcff"/><path d="m258.436 336.718h-4.906v4.899h4.906z" fill="#dcfcff"/><path d="m243.718 331.819h-4.906v4.899h4.906z" fill="#dcfcff"/><path d="m233.907 326.92h-4.906v4.899h4.906z" fill="#dcfcff"/><path d="m238.812 326.92h-4.905v4.899h4.905z" fill="#dcfcff"/><path d="m229.001 322.021h-4.906v4.899h4.906z" fill="#dcfcff"/><path d="m238.812 336.718h-4.905v4.899h4.905z" fill="#8aeeff"/><path d="m233.907 331.819h-4.906v4.899h4.906z" fill="#8aeeff"/><path d="m229.001 326.92h-4.906v4.899h4.906z" fill="#8aeeff"/><path d="m224.095 322.021h-4.906v4.899h4.906z" fill="#dcfcff"/><path d="m233.907 336.718h-4.906v4.899h4.906z" fill="#8aeeff"/><path d="m229.001 331.819h-4.906v4.899h4.906z" fill="#8aeeff"/><path d="m224.095 326.92h-4.906v4.899h4.906z" fill="#8aeeff"/><path d="m219.189 322.021h-4.906v4.899h4.906z" fill="#dcfcff"/><path d="m229.001 336.718h-4.906v4.899h4.906z" fill="#8aeeff"/><path d="m224.095 331.819h-4.906v4.899h4.906z" fill="#8aeeff"/><path d="m219.189 326.92h-4.906v4.899h4.906z" fill="#8aeeff"/><path d="m214.283 322.021h-4.906v4.899h4.906z" fill="#dcfcff"/><path d="m224.095 336.718h-4.906v4.899h4.906z" fill="#3dd2f4"/><path d="m219.189 336.718h-4.906v4.899h4.906z" fill="#8aeeff"/><path d="m214.283 336.718h-4.906v4.899h4.906z" fill="#3dd2f4"/><path d="m209.373 336.718h-4.906v4.899h4.906z" fill="#3dd2f4"/><path d="m204.467 336.718h-4.906v4.899h4.906z" fill="#3dd2f4"/><path d="m219.189 331.819h-4.906v4.899h4.906z" fill="#3dd2f4"/><path d="m214.283 331.819h-4.906v4.899h4.906z" fill="#8aeeff"/><path d="m209.373 331.819h-4.906v4.899h4.906z" fill="#3dd2f4"/><path d="m204.467 331.819h-4.906v4.899h4.906z" fill="#3dd2f4"/><path d="m214.283 326.92h-4.906v4.899h4.906z" fill="#3dd2f4"/><path d="m209.373 326.92h-4.906v4.899h4.906z" fill="#8aeeff"/><path d="m204.467 326.92h-4.906v4.899h4.906z" fill="#3dd2f4"/><path d="m209.373 322.021h-4.906v4.899h4.906z" fill="#dcfcff"/><path d="m204.467 322.021h-4.906v4.899h4.906z" fill="#dcfcff"/><path d="m224.095 317.122h-4.906v4.899h4.906z" fill="#41dd73"/><path d="m219.189 317.122h-4.906v4.899h4.906z" fill="#41dd73"/><path d="m214.283 317.122h-4.906v4.899h4.906z" fill="#41dd73"/><path d="m209.373 317.122h-4.906v4.899h4.906z" fill="#41dd73"/><path d="m204.467 317.122h-4.906v4.899h4.906z" fill="#41dd73"/><path d="m199.561 317.122h-4.906v4.899h4.906z" fill="#41dd73"/><path d="m199.561 322.021h-4.906v4.899h4.906z" fill="#dcfcff"/><path d="m199.561 326.92h-4.906v4.899h4.906z" fill="#3dd2f4"/><path d="m199.561 331.819h-4.906v4.899h4.906z" fill="#3dd2f4"/><path d="m199.561 336.718h-4.906v4.899h4.906z" fill="#3dd2f4"/><path d="m194.655 317.122h-4.906v4.899h4.906z" fill="#41dd73"/><path d="m189.749 322.021h-4.906v4.899h4.906z" fill="#41dd73"/><path d="m184.843 322.021h-4.906v4.899h4.906z" fill="#41dd73"/><path d="m189.749 317.122h-4.906v4.899h4.906z" fill="#41dd73"/><path d="m179.937 322.021h-4.906v4.899h4.906z" fill="#41dd73"/><path d="m175.031 322.021h-4.906v4.899h4.906z" fill="#41dd73"/><path d="m189.749 326.92h-4.906v4.899h4.906z" fill="#41dd73"/><path d="m184.843 326.92h-4.906v4.899h4.906z" fill="#41dd73"/><path d="m179.937 326.92h-4.906v4.899h4.906z" fill="#41dd73"/><path d="m175.031 326.92h-4.906v4.899h4.906z" fill="#41dd73"/><path d="m170.125 326.92h-4.906v4.899h4.906z" fill="#41dd73"/><path d="m189.749 331.819h-4.906v4.899h4.906z" fill="#41dd73"/><path d="m184.843 331.819h-4.906v4.899h4.906z" fill="#41dd73"/><path d="m179.937 331.819h-4.906v4.899h4.906z" fill="#41dd73"/><path d="m175.031 331.819h-4.906v4.899h4.906z" fill="#41dd73"/><path d="m170.125 331.819h-4.906v4.899h4.906z" fill="#41dd73"/><path d="m165.22 331.819h-4.906v4.899h4.906z" fill="#41dd73"/><path d="m189.749 336.718h-4.906v4.899h4.906z" fill="#41dd73"/><path d="m184.843 336.718h-4.906v4.899h4.906z" fill="#19cc52"/><path d="m179.937 336.718h-4.906v4.899h4.906z" fill="#19cc52"/><path d="m175.031 336.718h-4.906v4.899h4.906z" fill="#41dd73"/><path d="m170.125 336.718h-4.906v4.899h4.906z" fill="#41dd73"/><path d="m165.22 336.718h-4.906v4.899h4.906z" fill="#41dd73"/><path d="m160.314 336.718h-4.906v4.899h4.906z" fill="#41dd73"/><path d="m194.655 322.021h-4.906v4.899h4.906z" fill="#dcfcff"/><path d="m194.655 326.92h-4.906v4.899h4.906z" fill="#3dd2f4"/><path d="m194.655 331.819h-4.906v4.899h4.906z" fill="#3dd2f4"/><path d="m194.655 336.718h-4.906v4.899h4.906z" fill="#41dd73"/><path d="m189.749 317.122h-4.906v4.899h4.906z" fill="#41dd73"/><path d="m165.22 326.92h-4.906v4.899h4.906z" fill="#41dd73"/><path d="m160.314 331.819h-4.906v4.899h4.906z" fill="#41dd73"/><path d="m155.408 336.718h-4.906v4.899h4.906z" fill="#41dd73"/><path d="m150.502 331.819h-4.906v4.899h4.906z" fill="#41dd73"/><path d="m145.592 336.718h-4.906v4.899h4.906z" fill="#41dd73"/><path d="m145.592 331.819h-4.906v4.899h4.906z" fill="#41dd73"/><path d="m140.686 336.718h-4.906v4.899h4.906z" fill="#41dd73"/><path d="m160.314 326.92h-4.906v4.899h4.906z" fill="#41dd73"/><path d="m155.408 331.819h-4.906v4.899h4.906z" fill="#41dd73"/><path d="m150.502 336.718h-4.906v4.899h4.906z" fill="#41dd73"/><path d="m243.718 366.117h-4.906v4.899h4.906z" fill="#41dd73"/><path d="m243.718 361.218h-4.906v4.899h4.906z" fill="#41dd73"/><path d="m243.718 356.319h-4.906v4.899h4.906z" fill="#41dd73"/><path d="m243.718 351.419h-4.906v4.9h4.906z" fill="#41dd73"/><path d="m243.718 346.516h-4.906v4.899h4.906z" fill="#41dd73"/><path d="m243.718 341.617h-4.906v4.899h4.906z" fill="#19cc52"/><path d="m238.812 366.117h-4.905v4.899h4.905z" fill="#41dd73"/><path d="m238.812 361.218h-4.905v4.899h4.905z" fill="#41dd73"/><path d="m238.812 356.319h-4.905v4.899h4.905z" fill="#41dd73"/><path d="m238.812 351.419h-4.905v4.9h4.905z" fill="#41dd73"/><path d="m238.812 346.516h-4.905v4.899h4.905z" fill="#41dd73"/><path d="m238.812 341.617h-4.905v4.899h4.905z" fill="#41dd73"/><path d="m233.907 366.117h-4.906v4.899h4.906z" fill="#41dd73"/><path d="m233.907 361.218h-4.906v4.899h4.906z" fill="#41dd73"/><path d="m233.907 356.319h-4.906v4.899h4.906z" fill="#41dd73"/><path d="m233.907 351.419h-4.906v4.9h4.906z" fill="#41dd73"/><path d="m233.907 346.516h-4.906v4.899h4.906z" fill="#41dd73"/><path d="m233.907 341.617h-4.906v4.899h4.906z" fill="#41dd73"/><path d="m229.001 366.117h-4.906v4.899h4.906z" fill="#41dd73"/><path d="m229.001 361.218h-4.906v4.899h4.906z" fill="#41dd73"/><path d="m229.001 356.319h-4.906v4.899h4.906z" fill="#41dd73"/><path d="m229.001 351.419h-4.906v4.9h4.906z" fill="#41dd73"/><path d="m229.001 346.516h-4.906v4.899h4.906z" fill="#41dd73"/><path d="m229.001 341.617h-4.906v4.899h4.906z" fill="#41dd73"/><path d="m224.095 366.117h-4.906v4.899h4.906z" fill="#41dd73"/><path d="m224.095 361.218h-4.906v4.899h4.906z" fill="#41dd73"/><path d="m224.095 356.319h-4.906v4.899h4.906z" fill="#41dd73"/><path d="m224.095 351.419h-4.906v4.9h4.906z" fill="#41dd73"/><path d="m224.095 346.516h-4.906v4.899h4.906z" fill="#41dd73"/><path d="m224.095 341.617h-4.906v4.899h4.906z" fill="#41dd73"/><path d="m219.189 366.117h-4.906v4.899h4.906z" fill="#41dd73"/><path d="m219.189 361.218h-4.906v4.899h4.906z" fill="#41dd73"/><path d="m219.189 356.319h-4.906v4.899h4.906z" fill="#41dd73"/><path d="m219.189 351.419h-4.906v4.9h4.906z" fill="#41dd73"/><path d="m219.189 346.516h-4.906v4.899h4.906z" fill="#41dd73"/><path d="m219.189 341.617h-4.906v4.899h4.906z" fill="#41dd73"/><path d="m214.283 366.117h-4.906v4.899h4.906z" fill="#41dd73"/><path d="m214.283 361.218h-4.906v4.899h4.906z" fill="#41dd73"/><path d="m214.283 356.319h-4.906v4.899h4.906z" fill="#41dd73"/><path d="m214.283 351.419h-4.906v4.9h4.906z" fill="#41dd73"/><path d="m214.283 346.516h-4.906v4.899h4.906z" fill="#41dd73"/><path d="m214.283 341.617h-4.906v4.899h4.906z" fill="#41dd73"/><path d="m209.373 366.117h-4.906v4.899h4.906z" fill="#41dd73"/><path d="m209.373 361.218h-4.906v4.899h4.906z" fill="#41dd73"/><path d="m209.373 356.319h-4.906v4.899h4.906z" fill="#41dd73"/><path d="m209.373 351.419h-4.906v4.9h4.906z" fill="#41dd73"/><path d="m209.373 346.516h-4.906v4.899h4.906z" fill="#41dd73"/><path d="m209.373 341.617h-4.906v4.899h4.906z" fill="#41dd73"/><path d="m204.467 366.117h-4.906v4.899h4.906z" fill="#41dd73"/><path d="m204.467 361.218h-4.906v4.899h4.906z" fill="#41dd73"/><path d="m204.467 356.319h-4.906v4.899h4.906z" fill="#41dd73"/><path d="m204.467 351.419h-4.906v4.9h4.906z" fill="#41dd73"/><path d="m204.467 346.516h-4.906v4.899h4.906z" fill="#41dd73"/><path d="m204.467 341.617h-4.906v4.899h4.906z" fill="#41dd73"/><path d="m199.561 366.117h-4.906v4.899h4.906z" fill="#41dd73"/><path d="m199.561 361.218h-4.906v4.899h4.906z" fill="#41dd73"/><path d="m199.561 356.319h-4.906v4.899h4.906z" fill="#41dd73"/><path d="m199.561 351.419h-4.906v4.9h4.906z" fill="#41dd73"/><path d="m199.561 346.516h-4.906v4.899h4.906z" fill="#41dd73"/><path d="m199.561 341.617h-4.906v4.899h4.906z" fill="#41dd73"/><path d="m194.655 366.117h-4.906v4.899h4.906z" fill="#41dd73"/><path d="m194.655 361.218h-4.906v4.899h4.906z" fill="#41dd73"/><path d="m194.655 356.319h-4.906v4.899h4.906z" fill="#41dd73"/><path d="m194.655 351.419h-4.906v4.9h4.906z" fill="#41dd73"/><path d="m194.655 346.516h-4.906v4.899h4.906z" fill="#19cc52"/><path d="m199.561 346.516h-4.906v4.899h4.906z" fill="#19cc52"/><path d="m204.467 346.516h-4.906v4.899h4.906z" fill="#19cc52"/><path d="m209.373 346.516h-4.906v4.899h4.906z" fill="#19cc52"/><path d="m214.283 346.516h-4.906v4.899h4.906z" fill="#19cc52"/><path d="m219.189 346.516h-4.906v4.899h4.906z" fill="#19cc52"/><path d="m224.095 346.516h-4.906v4.899h4.906z" fill="#19cc52"/><path d="m229.001 346.516h-4.906v4.899h4.906z" fill="#19cc52"/><path d="m233.907 346.516h-4.906v4.899h4.906z" fill="#19cc52"/><path d="m238.812 346.516h-4.905v4.899h4.905z" fill="#19cc52"/><path d="m243.718 346.516h-4.906v4.899h4.906z" fill="#19cc52"/><path d="m248.624 346.516h-4.906v4.899h4.906z" fill="#19cc52"/><path d="m253.53 346.516h-4.906v4.899h4.906z" fill="#19cc52"/><path d="m194.655 341.617h-4.906v4.899h4.906z" fill="#41dd73"/><path d="m189.749 366.117h-4.906v4.899h4.906z" fill="#41dd73"/><path d="m189.749 361.218h-4.906v4.899h4.906z" fill="#41dd73"/><path d="m189.749 356.319h-4.906v4.899h4.906z" fill="#41dd73"/><path d="m189.749 351.419h-4.906v4.9h4.906z" fill="#41dd73"/><path d="m189.749 346.516h-4.906v4.899h4.906z" fill="#19cc52"/><path d="m189.749 341.617h-4.906v4.899h4.906z" fill="#19cc52"/><path d="m184.843 366.117h-4.906v4.899h4.906z" fill="#41dd73"/><path d="m184.843 361.218h-4.906v4.899h4.906z" fill="#41dd73"/><path d="m184.843 356.319h-4.906v4.899h4.906z" fill="#41dd73"/><path d="m184.843 351.419h-4.906v4.9h4.906z" fill="#41dd73"/><path d="m184.843 346.516h-4.906v4.899h4.906z" fill="#41dd73"/><path d="m184.843 341.617h-4.906v4.899h4.906z" fill="#19cc52"/><path d="m179.937 366.117h-4.906v4.899h4.906z" fill="#41dd73"/><path d="m179.937 361.218h-4.906v4.899h4.906z" fill="#41dd73"/><path d="m179.937 356.319h-4.906v4.899h4.906z" fill="#41dd73"/><path d="m179.937 351.419h-4.906v4.9h4.906z" fill="#41dd73"/><path d="m179.937 346.516h-4.906v4.899h4.906z" fill="#41dd73"/><path d="m179.937 341.617h-4.906v4.899h4.906z" fill="#41dd73"/><path d="m175.031 366.117h-4.906v4.899h4.906z" fill="#19cc52"/><path d="m175.031 361.218h-4.906v4.899h4.906z" fill="#41dd73"/><path d="m175.031 356.319h-4.906v4.899h4.906z" fill="#41dd73"/><path d="m175.031 351.419h-4.906v4.9h4.906z" fill="#41dd73"/><path d="m175.031 346.516h-4.906v4.899h4.906z" fill="#41dd73"/><path d="m175.031 341.617h-4.906v4.899h4.906z" fill="#41dd73"/><path d="m170.125 366.117h-4.906v4.899h4.906z" fill="#41dd73"/><path d="m170.125 361.218h-4.906v4.899h4.906z" fill="#41dd73"/><path d="m170.125 356.319h-4.906v4.899h4.906z" fill="#41dd73"/><path d="m170.125 351.419h-4.906v4.9h4.906z" fill="#41dd73"/><path d="m170.125 346.516h-4.906v4.899h4.906z" fill="#41dd73"/><path d="m170.125 341.617h-4.906v4.899h4.906z" fill="#41dd73"/><path d="m165.22 366.117h-4.906v4.899h4.906z" fill="#41dd73"/><path d="m165.22 361.218h-4.906v4.899h4.906z" fill="#41dd73"/><path d="m165.22 356.319h-4.906v4.899h4.906z" fill="#41dd73"/><path d="m165.22 351.419h-4.906v4.9h4.906z" fill="#41dd73"/><path d="m165.22 346.516h-4.906v4.899h4.906z" fill="#41dd73"/><path d="m165.22 341.617h-4.906v4.899h4.906z" fill="#41dd73"/><path d="m160.314 366.117h-4.906v4.899h4.906z" fill="#41dd73"/><path d="m160.314 361.218h-4.906v4.899h4.906z" fill="#41dd73"/><path d="m160.314 356.319h-4.906v4.899h4.906z" fill="#41dd73"/><path d="m160.314 351.419h-4.906v4.9h4.906z" fill="#41dd73"/><path d="m160.314 346.516h-4.906v4.899h4.906z" fill="#41dd73"/><path d="m160.314 341.617h-4.906v4.899h4.906z" fill="#41dd73"/><path d="m155.408 366.117h-4.906v4.899h4.906z" fill="#41dd73"/><path d="m155.408 361.218h-4.906v4.899h4.906z" fill="#41dd73"/><path d="m155.408 356.319h-4.906v4.899h4.906z" fill="#41dd73"/><path d="m155.408 351.419h-4.906v4.9h4.906z" fill="#41dd73"/><path d="m155.408 346.516h-4.906v4.899h4.906z" fill="#41dd73"/><path d="m155.408 341.617h-4.906v4.899h4.906z" fill="#41dd73"/><path d="m150.502 366.117h-4.906v4.899h4.906z" fill="#41dd73"/><path d="m150.502 361.218h-4.906v4.899h4.906z" fill="#41dd73"/><path d="m150.502 356.319h-4.906v4.899h4.906z" fill="#41dd73"/><path d="m150.502 351.419h-4.906v4.9h4.906z" fill="#41dd73"/><path d="m150.502 346.516h-4.906v4.899h4.906z" fill="#41dd73"/><path d="m150.502 341.617h-4.906v4.899h4.906z" fill="#41dd73"/><path d="m145.592 366.117h-4.906v4.899h4.906z" fill="#41dd73"/><path d="m145.592 361.218h-4.906v4.899h4.906z" fill="#41dd73"/><path d="m145.592 356.319h-4.906v4.899h4.906z" fill="#41dd73"/><path d="m145.592 351.419h-4.906v4.9h4.906z" fill="#41dd73"/><path d="m145.592 346.516h-4.906v4.899h4.906z" fill="#41dd73"/><path d="m145.592 341.617h-4.906v4.899h4.906z" fill="#41dd73"/><path d="m140.686 366.117h-4.906v4.899h4.906z" fill="#41dd73"/><path d="m140.686 361.218h-4.906v4.899h4.906z" fill="#41dd73"/><path d="m140.686 356.319h-4.906v4.899h4.906z" fill="#41dd73"/><path d="m140.686 351.419h-4.906v4.9h4.906z" fill="#41dd73"/><path d="m140.686 346.516h-4.906v4.899h4.906z" fill="#41dd73"/><path d="m140.686 341.617h-4.906v4.899h4.906z" fill="#41dd73"/><path d="m135.78 371.016h-4.906v4.899h4.906z" fill="#19cc52"/><path d="m135.78 375.915h-4.906v4.899h4.906z" fill="#19cc52"/><path d="m135.78 366.117h-4.906v4.899h4.906z" fill="#41dd73"/><path d="m135.78 361.218h-4.906v4.899h4.906z" fill="#41dd73"/><path d="m135.78 356.319h-4.906v4.899h4.906z" fill="#41dd73"/><path d="m135.78 351.419h-4.906v4.9h4.906z" fill="#41dd73"/><path d="m135.78 346.516h-4.906v4.899h4.906z" fill="#41dd73"/><path d="m135.78 341.617h-4.906v4.899h4.906z" fill="#41dd73"/><path d="m130.874 366.117h-4.906v4.899h4.906z" fill="#41dd73"/><path d="m130.874 361.218h-4.906v4.899h4.906z" fill="#41dd73"/><path d="m130.874 356.319h-4.906v4.899h4.906z" fill="#41dd73"/><path d="m130.874 351.419h-4.906v4.9h4.906z" fill="#41dd73"/><path d="m130.874 346.516h-4.906v4.899h4.906z" fill="#41dd73"/><path d="m130.874 341.617h-4.906v4.899h4.906z" fill="#41dd73"/><path d="m125.968 366.117h-4.906v4.899h4.906z" fill="#41dd73"/><path d="m125.968 361.218h-4.906v4.899h4.906z" fill="#41dd73"/><path d="m125.968 356.319h-4.906v4.899h4.906z" fill="#41dd73"/><path d="m125.968 346.516h-4.906v4.899h4.906z" fill="#ffc431"/><path d="m125.968 341.617h-4.906v4.899h4.906z" fill="#ff941f"/><path d="m175.031 336.718h-4.906v4.899h4.906z" fill="#19cc52"/><path d="m170.125 336.718h-4.906v4.899h4.906z" fill="#19cc52"/><path d="m165.22 336.718h-4.906v4.899h4.906z" fill="#19cc52"/><path d="m160.314 336.718h-4.906v4.899h4.906z" fill="#19cc52"/><path d="m155.408 336.718h-4.906v4.899h4.906z" fill="#19cc52"/><path d="m150.502 336.718h-4.906v4.899h4.906z" fill="#19cc52"/><path d="m145.592 336.718h-4.906v4.899h4.906z" fill="#19cc52"/><path d="m140.686 336.718h-4.906v4.899h4.906z" fill="#19cc52"/><path d="m135.78 336.718h-4.906v4.899h4.906z" fill="#19cc52"/><path d="m130.874 336.718h-4.906v4.899h4.906z" fill="#19cc52"/><path d="m248.624 356.319v19.596h4.906v4.899h19.624v-4.899h4.906v-19.596h-4.906v-4.899h-19.624v4.899zm4.906 4.899h4.906v-4.899h9.812v4.899h4.906v9.798h-4.906v4.899h-9.812v-4.899h-4.906z" fill="#6d6d6d"/><path d="m258.436 361.218h-4.906v9.798h4.906v4.899h9.812v-4.899h4.906v-9.798h-4.906v-4.899h-9.812z" fill="#adadad"/><path d="m273.154 346.516h-4.906v4.899h4.906z" fill="#161616"/><path d="m278.06 351.42h-4.906v4.899h4.906z" fill="#161616"/><path d="m278.06 375.915h-4.906v4.899h4.906z" fill="#161616"/><path d="m268.248 356.319h-4.906v4.899h4.906z" fill="#ccc"/><path d="m263.342 356.319h-4.906v4.899h4.906z" fill="#ccc"/><path d="m258.436 361.218h-4.906v4.899h4.906z" fill="#ccc"/><path d="m258.436 366.117h-4.906v4.899h4.906z" fill="#ccc"/><path d="m263.342 371.016h-4.906v4.899h4.906z" fill="#ccc"/><path d="m268.248 371.016h-4.906v4.899h4.906z" fill="#ccc"/><path d="m273.154 366.117h-4.906v4.899h4.906z" fill="#ccc"/><path d="m273.154 361.218h-4.906v4.899h4.906z" fill="#ccc"/><path d="m282.97 356.319h-4.906v4.899h4.906z" fill="#161616"/><path d="m282.97 361.218h-4.906v4.899h4.906z" fill="#161616"/><path d="m282.97 366.117h-4.906v4.899h4.906z" fill="#161616"/><path d="m282.97 371.016h-4.906v4.899h4.906z" fill="#161616"/><path d="m273.154 380.814h-4.906v4.899h4.906z" fill="#161616"/><path d="m268.248 380.814h-4.906v4.899h4.906z" fill="#161616"/><path d="m263.342 380.814h-4.906v4.899h4.906z" fill="#161616"/><path d="m248.624 366.117h-4.906v4.899h4.906z" fill="#161616"/><path d="m248.624 371.016h-4.906v4.899h4.906z" fill="#161616"/><path d="m253.53 375.915h-4.906v4.899h4.906z" fill="#161616"/><path d="m258.436 380.814h-4.906v4.899h4.906z" fill="#161616"/><path d="m248.624 361.218h-4.906v4.899h4.906z" fill="#161616"/><path d="m248.624 356.319h-4.906v4.899h4.906z" fill="#161616"/><path d="m253.53 351.42h-4.906v4.899h4.906z" fill="#161616"/><path d="m258.436 346.516h-4.906v4.899h4.906z" fill="#161616"/><path d="m268.248 346.516h-4.906v4.899h4.906z" fill="#161616"/><path d="m263.342 346.516h-4.906v4.899h4.906z" fill="#161616"/><path d="m135.78 356.319v19.596h4.906v4.899h19.623v-4.899h4.906v-19.596h-4.906v-4.899h-19.623v4.899zm4.906 4.899h4.906v-4.899h9.811v4.899h4.906v9.798h-4.906v4.899h-9.811v-4.899h-4.906z" fill="#6d6d6d"/><path d="m145.596 361.218h-4.91v9.798h4.91v4.899h9.812v-4.899h4.906v-9.798h-4.906v-4.899h-9.812z" fill="#adadad"/><path d="m160.314 346.516h-4.906v4.899h4.906z" fill="#161616"/><path d="m165.219 351.42h-4.906v4.899h4.906z" fill="#161616"/><path d="m165.219 375.915h-4.906v4.899h4.906z" fill="#161616"/><path d="m155.408 356.319h-4.906v4.899h4.906z" fill="#ccc"/><path d="m150.502 356.319h-4.906v4.899h4.906z" fill="#ccc"/><path d="m145.591 361.218h-4.905v4.899h4.905z" fill="#ccc"/><path d="m145.591 366.117h-4.905v4.899h4.905z" fill="#ccc"/><path d="m150.502 371.016h-4.906v4.899h4.906z" fill="#ccc"/><path d="m155.408 371.016h-4.906v4.899h4.906z" fill="#ccc"/><path d="m160.314 366.117h-4.906v4.899h4.906z" fill="#ccc"/><path d="m160.314 361.218h-4.906v4.899h4.906z" fill="#ccc"/><path d="m170.125 356.319h-4.906v4.899h4.906z" fill="#161616"/><path d="m170.125 361.218h-4.906v4.899h4.906z" fill="#161616"/><path d="m170.125 366.117h-4.906v4.899h4.906z" fill="#161616"/><path d="m170.125 371.016h-4.906v4.899h4.906z" fill="#161616"/><path d="m160.314 380.814h-4.906v4.899h4.906z" fill="#161616"/><path d="m155.408 380.814h-4.906v4.899h4.906z" fill="#161616"/><path d="m150.502 380.814h-4.906v4.899h4.906z" fill="#161616"/><path d="m135.78 366.117h-4.906v4.899h4.906z" fill="#161616"/><path d="m135.78 371.016h-4.906v4.899h4.906z" fill="#161616"/><path d="m140.686 375.915h-4.906v4.899h4.906z" fill="#161616"/><path d="m145.591 380.814h-4.905v4.899h4.905z" fill="#161616"/><path d="m135.78 361.218h-4.906v4.899h4.906z" fill="#161616"/><path d="m135.78 356.319h-4.906v4.899h4.906z" fill="#161616"/><path d="m140.686 351.42h-4.906v4.899h4.906z" fill="#161616"/><path d="m145.591 346.516h-4.905v4.899h4.905z" fill="#161616"/><path d="m155.408 346.516h-4.906v4.899h4.906z" fill="#161616"/><path d="m150.502 346.516h-4.906v4.899h4.906z" fill="#161616"/></g></svg>