<svg width="650" height="400" viewBox="0 0 650 400" fill="none" xmlns="http://www.w3.org/2000/svg">
<g clip-path="url(#clip0_21_1944)">
<path d="M114.248 102.686C114.248 102.183 114.751 102.183 114.751 102.686L126.321 192.736C126.573 193.742 127.328 194.748 128.334 195H210.838C212.096 195 213.353 193.994 213.353 192.736V14.1448C213.353 12.6356 212.096 11.6294 210.838 11.6294H129.088C127.831 11.6294 126.825 12.6356 126.825 14.1448V101.931C126.825 102.434 126.321 102.434 126.321 101.931L115.002 13.8933C114.751 12.384 113.745 11.6294 112.235 11.6294H29.9827C28.725 11.6294 27.7189 12.6356 27.7189 14.1448V192.736C27.7189 193.994 28.725 195 29.9827 195H111.732C112.99 195 114.248 193.994 114.248 192.736V102.686ZM236.082 11.6294C234.573 11.6294 233.567 12.384 233.567 14.1448V192.485C233.567 193.994 234.573 195 236.082 195H319.089C320.599 195 321.605 193.994 321.605 192.485V138.656H385.495C386.753 138.656 388.01 137.65 388.01 136.392V88.3483C388.01 87.0906 386.753 86.0844 385.495 86.0844H321.605V67.7222H416.183C417.44 67.7222 418.446 66.7161 418.446 65.2068V14.1448C418.446 12.8871 417.44 11.6294 416.183 11.6294H236.082ZM433.238 11.6294C431.98 11.6294 430.974 12.6356 430.974 13.8933V102.183C430.974 103.44 431.98 104.447 433.238 104.447H479.018V192.736C479.018 193.994 480.024 195 481.282 195H563.031C564.289 195 565.547 193.994 565.547 192.736V104.447H611.326C612.584 104.447 613.59 103.44 613.59 102.183V13.8933C613.59 12.6356 612.584 11.6294 611.326 11.6294H433.238Z" fill="#8CD9DA"/>
<path d="M221.848 127.439C228.16 127.439 234.322 127.439 240.935 127.439V137.959C239.131 137.959 238.229 137.959 236.727 137.959C236.727 135.855 236.727 131.947 236.727 131.947C234.021 131.947 226.056 131.947 221.698 131.947C221.848 130.444 221.848 128.941 221.848 127.439Z" fill="black"/>
<path d="M206.82 92.8723C208.022 92.8723 209.374 92.8723 211.328 92.8723C211.328 92.8723 211.328 100.988 211.328 105.046C211.328 108.953 211.328 113.011 211.328 116.918C209.976 116.918 208.473 116.918 206.82 116.918C206.82 108.652 206.82 100.838 206.82 92.8723Z" fill="black"/>
<rect x="165.873" y="146.976" width="54.1034" height="4.82104" transform="rotate(-90 165.873 146.976)" fill="black"/>
<rect x="159.391" y="108.226" width="29.4831" height="8.68481" fill="black"/>
<path d="M236.877 137.959C236.877 139.311 236.877 140.814 236.877 142.467C234.623 142.467 232.669 142.467 230.866 142.467C230.866 141.115 230.866 139.762 230.866 137.959C233.12 137.959 235.074 137.959 236.877 137.959Z" fill="black"/>
<path d="M216.394 137.311C216.394 138.618 216.394 140.112 216.394 142.167C213.516 142.167 210.478 142.167 207.12 142.167C207.12 140.859 207.12 139.178 207.12 137.311C210.318 137.311 213.356 137.311 216.394 137.311Z" fill="black"/>
<path d="M225.044 148.214C225.044 149.521 225.044 151.015 225.044 153.069C222.165 153.069 219.127 153.069 215.77 153.069C215.77 151.762 215.77 150.081 215.77 148.214C218.967 148.214 222.006 148.214 225.044 148.214Z" fill="black"/>
<path d="M231.316 142.468C231.316 144.015 231.316 145.783 231.316 148.214C229.37 148.214 227.315 148.214 225.044 148.214C225.044 146.667 225.044 144.678 225.044 142.468C227.207 142.468 229.261 142.468 231.316 142.468Z" fill="black"/>
<rect x="148.408" y="354.83" width="36.3309" height="13.4559" fill="#0D0A03"/>
<rect x="242.599" y="352.139" width="37.6765" height="16.1471" fill="#0D0A03"/>
<path fill-rule="evenodd" clip-rule="evenodd" d="M160.928 190.264H135.778V199.318H123.706V220.444H168.976V199.318H160.928V190.264ZM100.569 220.444H181.048V253.642H178.03V283.821H165.958V301.929H87.4909V283.821H90.5089V265.714H94.5328V255.653H84.4729V247.606H90.5089V241.57H98.5568V247.606H99.5627V252.636H100.569V220.444ZM100.569 301.929H132.76V314.001H126.724V326.073H108.617V314.001H100.569V301.929Z" fill="#824419"/>
<path fill-rule="evenodd" clip-rule="evenodd" d="M223.299 187.246H181.048V274.767H175.012V289.857H162.94V307.965H144.832V320.037H149.862V347.199H164.952V322.049H165.958V357.259H184.066V332.109H223.299V326.073H241.407V320.037H245.29V344.065H260.092V320.037H262.783V354.83H280.276V332.109L289.695 332.109L289.695 314.001H295.73V283.821H301.766V253.641H295.73V241.57H289.695L289.695 235.534H283.659V229.498H271.587V223.462H265.551V217.426H253.479L253.479 313.117V211.39H241.407V205.354H223.299V205.354H229.335V199.318H223.299V187.246ZM181.048 310.983H178.03V307.965H181.048V310.983Z" fill="#A35A27"/>
<rect x="181.048" y="187.246" width="24.1437" height="24.1437" fill="#D09062"/>
<rect x="202.173" y="193.282" width="24.1437" height="6.03593" fill="#D09062"/>
<rect x="205.191" y="199.318" width="24.1437" height="6.03593" fill="#D09062"/>
<rect x="223.299" y="205.354" width="18.1078" height="6.03593" fill="#D09062"/>
<rect x="241.407" y="211.39" width="12.0719" height="6.03593" fill="#D09062"/>
<rect x="253.479" y="217.426" width="12.0719" height="6.03593" fill="#D09062"/>
<rect x="265.551" y="223.462" width="12.0719" height="6.03593" fill="#D09062"/>
<rect x="286.677" y="259.677" width="15.0898" height="24.1437" fill="#824418"/>
<rect x="280.641" y="275.773" width="15.0898" height="26.1557" fill="#824418"/>
<rect x="274.605" y="283.821" width="15.0898" height="30.1797" fill="#824418"/>
<rect x="253.479" y="301.929" width="21.1258" height="18.1078" fill="#824418"/>
<rect x="247.443" y="289.857" width="18.1078" height="12.0719" fill="#824418"/>
<rect x="280.641" y="247.605" width="21.1258" height="18.1078" fill="#824418"/>
<rect x="199.156" y="320.036" width="24.1437" height="12.0719" fill="#824418"/>
<rect x="187.084" y="314.001" width="18.1078" height="12.0719" fill="#824418"/>
<rect x="181.048" y="301.929" width="14.0838" height="12.0719" fill="#824418"/>
<rect x="160.928" y="314.001" width="14.0838" height="12.0719" fill="#824418"/>
<rect x="217.033" y="314.462" width="24.2206" height="12.1103" fill="#824418"/>
<rect x="231.834" y="302.352" width="30.9486" height="22.875" fill="#824418"/>
<rect x="265.474" y="307.735" width="18.8383" height="24.2206" fill="#824418"/>
<rect x="245.29" y="319.845" width="16.1471" height="32.2942" fill="#824418"/>
<rect x="147.85" y="320.036" width="36.2156" height="36.2156" fill="#824418"/>
<path d="M177.024 220.444V200.324L171.491 194.791L164.449 202.336L157.407 216.923L159.922 220.444L164.449 224.971H166.461L177.024 220.444Z" fill="#F5F5F5"/>
<path d="M133.263 208.875L123.203 203.342H117.167L112.641 206.863L106.605 204.348L98.0537 202.336L94.5327 209.881L86.9878 212.899V221.953L94.5327 237.546H109.12L116.665 243.079L129.239 245.594L136.281 237.546L141.311 234.025V212.899L133.263 208.875Z" fill="white"/>
<rect x="108.617" y="187.246" width="6.03593" height="18.1078" fill="#F5F5F5"/>
<rect x="138.796" y="298.911" width="6.03593" height="7.04192" fill="#824419"/>
<rect x="264.128" y="329.264" width="16.1471" height="22.875" fill="#824418"/>
<rect x="175.012" y="187.246" width="6.03593" height="30.1797" fill="black"/>
<rect x="168.976" y="181.21" width="6.03593" height="12.0719" fill="black"/>
<rect x="168.976" y="217.426" width="6.03593" height="6.03593" fill="black"/>
<rect x="156.904" y="205.354" width="6.03593" height="6.03593" fill="black"/>
<rect x="144.832" y="187.246" width="6.03593" height="6.03593" fill="black"/>
<rect x="126.725" y="193.282" width="6.03593" height="6.03593" fill="black"/>
<rect x="120.689" y="193.282" width="6.03593" height="6.03593" fill="black"/>
<rect x="114.653" y="193.282" width="6.03593" height="6.03593" fill="black"/>
<rect x="96.5448" y="199.318" width="6.03593" height="6.03593" fill="black"/>
<rect x="90.5089" y="205.354" width="6.03593" height="6.03593" fill="black"/>
<rect x="96.5448" y="217.426" width="6.03593" height="6.03593" fill="black"/>
<rect x="120.689" y="220.444" width="6.03593" height="6.03593" fill="black"/>
<rect x="138.796" y="211.39" width="6.03593" height="24.1437" fill="black"/>
<rect x="90.5089" y="229.498" width="6.03593" height="12.0719" fill="black"/>
<rect x="96.5448" y="235.534" width="6.03593" height="12.0719" fill="black"/>
<rect x="84.4731" y="241.57" width="6.03593" height="6.03593" fill="black"/>
<rect x="84.4731" y="295.893" width="12.0719" height="6.03593" fill="black"/>
<rect x="90.5089" y="301.929" width="24.1437" height="6.03593" fill="black"/>
<rect x="84.4731" y="253.641" width="6.03593" height="6.03593" fill="black"/>
<rect x="90.5089" y="253.641" width="6.03593" height="12.0719" fill="black"/>
<rect x="81.4551" y="283.821" width="6.03593" height="12.0719" fill="black"/>
<rect x="84.4731" y="265.714" width="6.03593" height="18.1078" fill="black"/>
<rect x="96.5448" y="247.606" width="6.03593" height="6.03593" fill="black"/>
<rect x="102.581" y="235.534" width="6.03593" height="6.03593" fill="black"/>
<rect x="78.4369" y="247.606" width="6.03593" height="12.0719" fill="black"/>
<rect x="84.4731" y="211.39" width="6.03593" height="18.1078" fill="black"/>
<rect x="102.581" y="211.39" width="6.03593" height="12.0719" fill="black"/>
<rect x="100.569" y="223.462" width="6.03593" height="12.0719" fill="black"/>
<rect x="114.653" y="187.246" width="6.03593" height="6.03593" fill="black"/>
<rect x="102.581" y="181.21" width="6.03593" height="24.1437" fill="black"/>
<rect x="108.617" y="169.138" width="6.03593" height="18.1078" fill="black"/>
<rect x="120.689" y="199.318" width="6.03593" height="6.03593" fill="black"/>
<rect x="126.725" y="205.354" width="12.0719" height="6.03593" fill="black"/>
<rect x="132.761" y="235.534" width="6.03593" height="6.03593" fill="black"/>
<rect x="108.617" y="235.534" width="6.03593" height="6.03593" fill="black"/>
<rect x="114.653" y="241.57" width="18.1078" height="6.03593" fill="black"/>
<rect x="108.617" y="326.073" width="18.1078" height="6.03593" fill="black"/>
<rect x="108.617" y="205.354" width="6.03593" height="6.03593" fill="black"/>
<rect x="114.653" y="199.318" width="6.03593" height="6.03593" fill="black"/>
<rect x="138.796" y="187.246" width="6.03593" height="6.03593" fill="black"/>
<rect x="132.761" y="187.246" width="6.03593" height="12.0719" fill="black"/>
<rect x="162.94" y="199.318" width="6.03593" height="6.03593" fill="black"/>
<rect x="168.976" y="193.282" width="6.03593" height="6.03593" fill="black"/>
<rect x="162.94" y="223.462" width="6.03593" height="6.03593" fill="black"/>
<rect x="156.904" y="229.498" width="6.03593" height="6.03593" fill="black"/>
<rect x="150.868" y="241.57" width="6.03593" height="6.03593" fill="black"/>
<rect x="156.904" y="247.606" width="6.03593" height="10.0599" fill="black"/>
<rect x="162.94" y="235.534" width="6.03593" height="22.1318" fill="black"/>
<rect x="156.904" y="211.39" width="6.03593" height="12.0719" fill="black"/>
<rect x="162.94" y="193.282" width="6.03593" height="6.03593" fill="black"/>
<rect x="156.904" y="187.246" width="6.03593" height="12.0719" fill="black"/>
<rect x="150.868" y="187.246" width="6.03593" height="12.0719" fill="black"/>
<rect x="181.048" y="181.21" width="24.1437" height="6.03593" fill="black"/>
<rect x="205.192" y="187.246" width="18.1078" height="6.03593" fill="black"/>
<rect x="223.3" y="193.282" width="6.03593" height="6.03593" fill="black"/>
<rect x="265.551" y="217.426" width="6.03593" height="6.03593" fill="black"/>
<rect x="283.659" y="229.498" width="6.03593" height="6.03593" fill="black"/>
<rect x="289.695" y="235.534" width="6.03593" height="6.03593" fill="black"/>
<rect x="295.731" y="241.57" width="6.03593" height="6.03593" fill="black"/>
<rect x="295.731" y="247.606" width="6.03593" height="6.03593" fill="black"/>
<rect x="313.838" y="259.678" width="6.03593" height="12.0719" fill="black"/>
<rect x="229.335" y="199.318" width="12.0719" height="6.03593" fill="black"/>
<rect x="241.407" y="205.354" width="12.0719" height="6.03593" fill="black"/>
<rect x="253.479" y="211.39" width="12.0719" height="6.03593" fill="black"/>
<rect x="271.587" y="223.462" width="12.0719" height="6.03593" fill="black"/>
<rect x="307.803" y="253.641" width="6.03593" height="6.03593" fill="black"/>
<rect x="301.767" y="253.641" width="6.03593" height="30.1797" fill="black"/>
<rect x="295.731" y="283.821" width="6.03593" height="18.1078" fill="black"/>
<rect x="319.874" y="271.75" width="6.03593" height="18.1078" fill="black"/>
<rect x="313.838" y="289.857" width="6.03593" height="12.0719" fill="black"/>
<rect x="289.695" y="301.929" width="6.03593" height="12.0719" fill="black"/>
<rect x="283.659" y="314.001" width="6.03593" height="18.1078" fill="black"/>
<rect x="277.584" y="331.956" width="6.72795" height="39.0221" fill="black"/>
<rect x="260.092" y="319.845" width="5.38236" height="36.3309" fill="black"/>
<rect x="245.29" y="326.073" width="6.03593" height="18.1078" fill="black"/>
<rect x="254.709" y="352.139" width="5.38236" height="14.8015" fill="black"/>
<rect x="239.908" y="344.066" width="5.38236" height="26.9118" fill="black"/>
<rect x="241.253" y="350.793" width="37.6765" height="5.38236" fill="black"/>
<rect x="239.908" y="365.595" width="40.3677" height="5.38236" fill="black"/>
<rect x="253.479" y="307.965" width="6.03593" height="12.0719" fill="black"/>
<rect x="247.443" y="301.929" width="6.03593" height="6.03593" fill="black"/>
<rect x="247.443" y="314.001" width="6.03593" height="6.03593" fill="black"/>
<rect x="180.702" y="319.845" width="6.72795" height="51.1324" fill="black"/>
<rect x="163.209" y="319.845" width="5.38236" height="32.2942" fill="black"/>
<rect x="144.371" y="319.845" width="6.72795" height="45.7501" fill="black"/>
<rect x="181.048" y="314.001" width="6.03593" height="6.03593" fill="black"/>
<rect x="175.012" y="307.965" width="6.03593" height="6.03593" fill="black"/>
<rect x="150.868" y="301.929" width="6.03593" height="6.03593" fill="black"/>
<rect x="156.904" y="295.893" width="6.03593" height="12.0719" fill="black"/>
<rect x="181.048" y="235.534" width="6.03593" height="12.0719" fill="black"/>
<rect x="175.012" y="217.426" width="6.03593" height="18.1078" fill="black"/>
<rect x="162.94" y="283.821" width="6.03593" height="18.1078" fill="black"/>
<rect x="168.976" y="271.75" width="6.03593" height="18.1078" fill="black"/>
<rect x="175.012" y="247.606" width="6.03593" height="30.1797" fill="black"/>
<rect x="241.407" y="320.037" width="6.03593" height="6.03593" fill="black"/>
<rect x="223.3" y="326.073" width="18.1078" height="6.03593" fill="black"/>
<rect x="318.59" y="370.878" width="6.60971" height="5.50809" fill="black"/>
<rect x="187.084" y="326.073" width="12.0719" height="6.03593" fill="black"/>
<rect x="144.371" y="350.793" width="37.6765" height="6.72795" fill="black"/>
<rect x="144.371" y="365.595" width="36.3309" height="5.38236" fill="black"/>
<rect x="199.156" y="332.109" width="24.1437" height="6.03593" fill="black"/>
<rect x="118.095" y="370.878" width="196.088" height="5.50809" fill="black"/>
<rect x="241.407" y="289.857" width="6.03593" height="12.0719" fill="black"/>
<rect x="157.827" y="352.139" width="5.38236" height="18.8383" fill="black"/>
<rect x="157.827" y="314.463" width="6.03593" height="12.0719" fill="black"/>
<rect x="138.796" y="305.953" width="6.03593" height="14.0838" fill="black"/>
<rect x="144.832" y="298.911" width="6.03593" height="9.0539" fill="black"/>
<rect x="114.653" y="295.893" width="6.03593" height="6.03593" fill="black"/>
<rect x="96.5448" y="307.965" width="6.03593" height="6.03593" fill="black"/>
<rect x="102.581" y="314.001" width="6.03593" height="12.0719" fill="black"/>
<rect x="120.689" y="320.037" width="6.03593" height="6.03593" fill="black"/>
<rect x="126.725" y="314.001" width="6.03593" height="12.0719" fill="black"/>
<rect x="132.761" y="298.911" width="6.03593" height="15.0898" fill="black"/>
<path d="M437.153 147.25L432.575 140.645L431.049 141.661L426.47 145.726L420.365 148.775L420.874 139.629L413.243 135.564H403.068L401.542 158.936L396.455 165.034L390.858 158.936L386.789 152.331L385.771 147.25L380.684 140.645L374.07 145.726V157.92L379.157 163.001L385.771 169.098V180.276L380.684 185.865L379.157 219.907L374.07 222.956L372.544 234.642L369.491 239.215L367.457 254.966L374.07 263.095L379.157 268.176H403.577L407.647 263.095L409.173 253.441L413.752 251.409L420.365 245.82L425.452 250.393V254.966L431.557 263.095V297.137L437.153 299.678V313.396L441.732 320.001L443.767 362.681L454.45 364.205V315.429L460.047 313.396L465.643 320.001L467.678 361.665L477.852 362.681L478.87 315.429H507.868L513.973 317.461V326.099L519.06 327.115L518.043 336.26L523.639 342.866L525.674 365.222H537.374V334.228L541.953 333.212L548.567 338.293L553.145 344.39L554.163 365.222H564.846L566.372 339.309L559.759 333.212V326.099L552.637 321.526V245.312L549.584 239.723L541.953 234.642L537.374 228.037H507.359L503.289 233.118H477.344V222.956L474.291 216.859L471.239 209.746L468.186 206.189L466.66 199.076L462.59 194.503L460.047 189.93L455.468 185.865L454.45 175.703L450.889 171.639L445.802 170.114L444.276 163.001L437.153 158.936V147.25Z" fill="white"/>
<rect x="410.856" y="138.277" width="6.32914" height="17.1791" fill="#DADADA"/>
<rect x="376.704" y="143.508" width="6.32914" height="17.1791" fill="#FFD7D4"/>
<rect x="428.232" y="143.555" width="6.32914" height="17.1791" fill="#FFD7D4"/>
<rect x="382.747" y="154.976" width="5.75698" height="11.5151" fill="#DADADA"/>
<rect x="423.047" y="149.219" width="5.75698" height="17.2714" fill="#DADADA"/>
<rect x="434.561" y="160.687" width="5.75698" height="17.2714" fill="#DADADA"/>
<rect x="446.075" y="172.247" width="5.75698" height="17.2714" fill="#DADADA"/>
<rect x="440.318" y="178.004" width="5.75698" height="17.2714" fill="#DADADA"/>
<rect x="428.858" y="166.49" width="5.75698" height="5.7572" fill="#DADADA"/>
<rect x="451.832" y="189.518" width="5.75698" height="17.2714" fill="#DADADA"/>
<rect x="463.346" y="206.79" width="5.75698" height="11.5144" fill="#DADADA"/>
<rect x="457.589" y="190.531" width="5.75698" height="11.5144" fill="#DADADA"/>
<rect x="469.103" y="215.425" width="5.75698" height="11.5144" fill="#DADADA"/>
<rect x="417.186" y="150.031" width="5.42498" height="11.7541" transform="rotate(90 417.186 150.031)" fill="#BABABA"/>
<path d="M369.265 238.733L374.314 234.118H398.55L402.59 240.784L408.144 243.861V261.81L405.114 266.938L378.858 268.476L373.809 262.835L370.275 258.733L369.265 238.733Z" fill="#FFD7D5"/>
<rect x="376.326" y="260.338" width="29.4499" height="5.17355" fill="#FFB8B3"/>
<rect x="434.561" y="262.925" width="5.7572" height="32.5238" fill="#D9D9D9"/>
<rect x="440.318" y="295.449" width="5.7572" height="23.0286" fill="#D9D9D9"/>
<rect x="428.804" y="248.241" width="5.7572" height="11.5142" fill="#D9D9D9"/>
<rect x="411.586" y="236.727" width="5.7572" height="11.5142" fill="#D9D9D9"/>
<rect x="417.344" y="230.969" width="5.7572" height="11.5142" fill="#D9D9D9"/>
<rect x="423.101" y="225.213" width="5.7572" height="11.5142" fill="#D9D9D9"/>
<rect x="405.829" y="236.727" width="5.7572" height="5.75764" fill="#D9D9D9"/>
<rect x="446.075" y="341.505" width="5.75698" height="19.6565" fill="#FFD7D5"/>
<rect x="469.103" y="341.505" width="5.75698" height="19.6565" fill="#FFD7D5"/>
<rect x="527.826" y="341.505" width="5.75698" height="19.6565" fill="#FFD7D5"/>
<rect x="556.611" y="341.505" width="5.75698" height="19.6565" fill="#FFD7D5"/>
<rect x="516.311" y="312.72" width="17.2713" height="11.5142" fill="#C2C2C2"/>
<rect x="522.069" y="324.234" width="11.5141" height="17.2714" fill="#C2C2C2"/>
<rect x="480.618" y="306.963" width="52.9651" height="5.75676" fill="#C2C2C2"/>
<rect x="480.617" y="301.205" width="47.2082" height="5.75698" fill="#D9D9D9"/>
<rect x="405.775" y="166.49" width="5.7571" height="17.2713" fill="black"/>
<rect x="382.747" y="166.49" width="5.7571" height="17.2713" fill="black"/>
<rect x="371.233" y="143.461" width="5.7571" height="17.2713" fill="black"/>
<rect x="434.561" y="143.461" width="5.7571" height="17.2713" fill="black"/>
<rect x="417.29" y="137.705" width="5.7571" height="17.2713" fill="black"/>
<rect x="400.018" y="131.948" width="5.7571" height="28.7855" fill="black"/>
<rect x="394.261" y="160.733" width="5.7571" height="23.0284" fill="black"/>
<rect x="400.054" y="131.948" width="17.2893" height="6.10212" fill="black"/>
<rect x="405.775" y="154.976" width="17.2713" height="5.7571" fill="black"/>
<rect x="411.532" y="160.733" width="5.7571" height="5.7571" fill="black"/>
<rect x="423.047" y="143.461" width="5.7571" height="5.7571" fill="black"/>
<rect x="428.804" y="137.705" width="5.7571" height="5.7571" fill="black"/>
<rect x="423.047" y="166.49" width="5.7571" height="5.7571" fill="black"/>
<rect x="428.804" y="172.247" width="5.7571" height="11.5142" fill="black"/>
<rect x="388.504" y="154.976" width="5.7571" height="11.5142" fill="black"/>
<rect x="382.747" y="143.461" width="5.7571" height="11.5142" fill="black"/>
<rect x="434.561" y="178.004" width="5.7571" height="17.2713" fill="black"/>
<rect x="451.832" y="172.247" width="5.7571" height="17.2713" fill="black"/>
<rect x="457.589" y="183.761" width="5.7571" height="11.5142" fill="black"/>
<rect x="463.346" y="195.276" width="5.7571" height="11.5142" fill="black"/>
<rect x="423.047" y="248.241" width="5.7571" height="11.5142" fill="black"/>
<rect x="405.775" y="242.484" width="5.7571" height="23.0284" fill="black"/>
<rect x="365.476" y="236.727" width="5.7571" height="23.0284" fill="black"/>
<rect x="428.804" y="219.455" width="5.7571" height="17.2713" fill="black"/>
<rect x="469.104" y="206.79" width="5.7571" height="11.5142" fill="black"/>
<rect x="446.075" y="189.518" width="5.7571" height="17.2713" fill="black"/>
<rect x="457.589" y="201.033" width="5.7571" height="17.2713" fill="black"/>
<rect x="474.86" y="218.304" width="5.7571" height="17.2713" fill="black"/>
<rect x="480.617" y="230.969" width="5.7571" height="34.5426" fill="black"/>
<rect x="499.04" y="242.484" width="5.7571" height="28.7855" fill="black"/>
<rect x="499.04" y="283.934" width="5.7571" height="17.2713" fill="black"/>
<rect x="516.311" y="283.934" width="5.7571" height="17.2713" fill="black"/>
<rect x="480.617" y="277.026" width="5.7571" height="17.2713" fill="black"/>
<rect x="434.561" y="301.206" width="5.7571" height="17.2713" fill="black"/>
<rect x="428.804" y="264.36" width="5.7571" height="36.8454" fill="black"/>
<rect x="516.311" y="236.726" width="5.7571" height="34.5426" fill="black"/>
<rect x="533.583" y="236.726" width="5.7571" height="34.5426" fill="black"/>
<rect x="550.854" y="242.484" width="5.7571" height="81.7508" fill="black"/>
<rect x="428.804" y="160.733" width="5.7571" height="5.7571" fill="black"/>
<rect x="376.99" y="137.705" width="5.7571" height="5.7571" fill="black"/>
<rect x="376.99" y="160.733" width="5.7571" height="5.7571" fill="black"/>
<rect x="440.318" y="195.276" width="5.7571" height="5.7571" fill="black"/>
<rect x="451.832" y="206.79" width="5.7571" height="5.7571" fill="black"/>
<rect x="446.075" y="212.547" width="5.7571" height="5.7571" fill="black"/>
<rect x="440.318" y="218.304" width="5.7571" height="5.7571" fill="black"/>
<rect x="423.047" y="213.698" width="5.7571" height="5.7571" fill="black"/>
<rect x="417.369" y="207.941" width="5.67756" height="5.7571" fill="black"/>
<rect x="417.29" y="242.484" width="5.7571" height="5.7571" fill="black"/>
<rect x="411.532" y="248.241" width="5.7571" height="5.7571" fill="black"/>
<rect x="400.018" y="236.727" width="5.7571" height="5.7571" fill="black"/>
<rect x="387.353" y="248.241" width="5.7571" height="5.7571" fill="black"/>
<rect x="375.839" y="248.241" width="5.7571" height="5.7571" fill="black"/>
<rect x="371.233" y="259.755" width="5.7571" height="5.7571" fill="black"/>
<rect x="423.047" y="236.727" width="5.7571" height="5.7571" fill="black"/>
<rect x="417.29" y="225.213" width="5.7571" height="11.5142" fill="black"/>
<rect x="371.233" y="219.455" width="5.7571" height="11.5142" fill="black"/>
<rect x="376.99" y="183.761" width="5.7571" height="41.4511" fill="black"/>
<rect x="411.532" y="219.455" width="5.7571" height="5.7571" fill="black"/>
<rect x="463.346" y="218.304" width="5.7571" height="5.7571" fill="black"/>
<rect x="474.86" y="265.512" width="5.7571" height="5.7571" fill="black"/>
<rect x="493.283" y="271.269" width="5.7571" height="5.7571" fill="black"/>
<rect x="493.283" y="301.206" width="5.7571" height="5.7571" fill="black"/>
<rect x="510.554" y="301.206" width="5.7571" height="5.7571" fill="black"/>
<rect x="493.283" y="236.726" width="5.7571" height="5.7571" fill="black"/>
<rect x="474.86" y="294.297" width="5.7571" height="5.7571" fill="black"/>
<rect x="463.346" y="289.692" width="5.7571" height="5.7571" fill="black"/>
<rect x="457.589" y="271.269" width="5.7571" height="5.7571" fill="black"/>
<rect x="510.554" y="230.969" width="5.7571" height="5.7571" fill="black"/>
<rect x="510.554" y="271.269" width="5.7571" height="5.7571" fill="black"/>
<rect x="469.104" y="235.575" width="5.7571" height="5.7571" fill="black"/>
<rect x="545.097" y="277.026" width="5.7571" height="5.7571" fill="black"/>
<rect x="527.825" y="230.969" width="5.7571" height="5.7571" fill="black"/>
<rect x="539.34" y="230.969" width="5.7571" height="5.7571" fill="black"/>
<rect x="545.097" y="236.726" width="5.7571" height="5.7571" fill="black"/>
<rect x="556.611" y="242.484" width="5.7571" height="5.7571" fill="black"/>
<rect x="562.368" y="248.24" width="5.7571" height="11.5142" fill="black"/>
<rect x="556.611" y="324.234" width="5.7571" height="11.5142" fill="black"/>
<rect x="533.583" y="324.234" width="5.7571" height="11.5142" fill="black"/>
<rect x="516.311" y="329.991" width="5.7571" height="11.5142" fill="black"/>
<rect x="568.125" y="259.755" width="5.7571" height="11.5142" fill="black"/>
<rect x="562.368" y="271.269" width="5.7571" height="17.2713" fill="black"/>
<rect x="562.368" y="335.748" width="5.7571" height="34.5426" fill="black"/>
<rect x="550.854" y="341.505" width="5.7571" height="28.7855" fill="black"/>
<rect x="533.583" y="335.748" width="5.7571" height="34.5426" fill="black"/>
<rect x="522.069" y="341.505" width="5.7571" height="28.7855" fill="black"/>
<rect x="474.86" y="306.963" width="5.7571" height="63.3284" fill="black"/>
<rect x="463.346" y="317.326" width="5.7571" height="52.9653" fill="black"/>
<rect x="451.832" y="305.812" width="5.7571" height="64.4795" fill="black"/>
<rect x="440.318" y="318.477" width="5.7571" height="51.8139" fill="black"/>
<rect x="527.825" y="271.269" width="5.7571" height="5.7571" fill="black"/>
<rect x="457.589" y="224.061" width="5.7571" height="5.7571" fill="black"/>
<rect x="451.832" y="229.818" width="5.7571" height="5.7571" fill="black"/>
<rect x="469.104" y="224.061" width="5.7571" height="5.7571" fill="black"/>
<rect x="486.374" y="230.969" width="18.4227" height="5.7571" fill="black"/>
<rect x="463.346" y="241.332" width="5.7571" height="5.7571" fill="black"/>
<rect x="457.589" y="247.09" width="5.7571" height="5.7571" fill="black"/>
<rect x="504.797" y="225.213" width="34.5426" height="5.7571" fill="black"/>
<rect x="539.34" y="282.783" width="5.7571" height="5.7571" fill="black"/>
<rect x="533.583" y="288.54" width="5.7571" height="5.7571" fill="black"/>
<rect x="533.583" y="301.206" width="5.7571" height="5.7571" fill="black"/>
<rect x="457.589" y="311.569" width="5.7571" height="5.7571" fill="black"/>
<rect x="469.103" y="323.083" width="5.7571" height="5.7571" fill="black"/>
<rect x="469.103" y="335.748" width="5.7571" height="5.7571" fill="black"/>
<rect x="446.075" y="323.083" width="5.7571" height="5.7571" fill="black"/>
<rect x="446.075" y="335.748" width="5.7571" height="5.7571" fill="black"/>
<rect x="527.825" y="306.963" width="5.7571" height="5.7571" fill="black"/>
<rect x="550.854" y="329.991" width="5.7571" height="5.7571" fill="black"/>
<rect x="510.554" y="324.234" width="17.2713" height="5.7571" fill="black"/>
<rect x="527.825" y="318.477" width="17.2713" height="5.7571" fill="black"/>
<rect x="428.804" y="295.449" width="34.5426" height="5.7571" fill="black"/>
<rect x="479.466" y="312.72" width="48.3596" height="5.7571" fill="black"/>
<rect x="425.724" y="370.198" width="154.709" height="6.18834" fill="black"/>
<rect x="428.804" y="277.026" width="28.7855" height="5.7571" fill="black"/>
<rect x="428.804" y="259.755" width="23.0284" height="5.7571" fill="black"/>
<rect x="397.876" y="370.198" width="23.0284" height="6.18838" fill="black"/>
<rect x="375.839" y="265.512" width="29.9369" height="5.7571" fill="black"/>
<rect x="371.233" y="230.97" width="28.7855" height="5.7571" fill="black"/>
<rect x="539.34" y="329.991" width="5.7571" height="5.7571" fill="black"/>
<rect x="550.854" y="358.777" width="13.817" height="11.5142" fill="black"/>
<rect x="545.097" y="335.748" width="5.7571" height="5.7571" fill="black"/>
<rect x="527.825" y="335.748" width="5.7571" height="5.7571" fill="black"/>
<rect x="522.069" y="358.777" width="13.817" height="11.5142" fill="black"/>
<rect x="510.554" y="318.477" width="5.7571" height="5.7571" fill="black"/>
<rect x="446.075" y="235.575" width="5.7571" height="5.7571" fill="black"/>
<rect x="463.346" y="358.777" width="13.817" height="11.5142" fill="black"/>
<rect x="446.075" y="166.49" width="5.7571" height="5.7571" fill="black"/>
<rect x="440.318" y="160.733" width="5.7571" height="23.0284" fill="black"/>
<rect x="440.318" y="358.777" width="13.817" height="11.5142" fill="black"/>
<path d="M412.012 186.412L402.417 181.28H396.66L392.342 184.546L386.585 182.213L378.429 180.347L375.071 187.345L367.874 190.144V198.541L375.071 213.003H388.984L396.18 218.135L408.174 220.468L414.891 213.003L419.688 209.738V190.144L412.012 186.412Z" fill="white"/>
<rect x="376.99" y="177.548" width="11.5142" height="5.59826" fill="black"/>
<rect x="371.233" y="183.146" width="5.75711" height="5.59826" fill="black"/>
<rect x="376.99" y="194.343" width="5.75711" height="5.59826" fill="black"/>
<rect x="400.018" y="197.142" width="5.75711" height="5.59826" fill="black"/>
<rect x="417.29" y="188.745" width="5.75711" height="22.393" fill="black"/>
<rect x="371.233" y="205.539" width="5.75711" height="11.1965" fill="black"/>
<rect x="376.99" y="211.137" width="5.75711" height="5.5982" fill="black"/>
<rect x="382.747" y="211.137" width="5.75711" height="5.59826" fill="black"/>
<rect x="365.476" y="188.745" width="5.75711" height="16.7948" fill="black"/>
<rect x="382.747" y="188.745" width="5.75711" height="11.1965" fill="black"/>
<rect x="380.828" y="199.941" width="5.75711" height="11.1965" fill="black"/>
<rect x="400.018" y="177.548" width="6.084" height="5.59826" fill="black"/>
<rect x="405.775" y="183.146" width="11.5142" height="5.59826" fill="black"/>
<rect x="411.533" y="211.137" width="5.75711" height="5.59826" fill="black"/>
<rect x="388.504" y="211.137" width="5.75711" height="5.59826" fill="black"/>
<rect x="394.261" y="216.736" width="17.2713" height="5.59826" fill="black"/>
<rect x="388.504" y="183.146" width="5.75711" height="5.59826" fill="black"/>
<rect x="394.261" y="177.548" width="5.75711" height="5.59826" fill="black"/>
<rect x="211.015" y="116.911" width="5.37873" height="5.37873" fill="black"/>
<rect x="176.762" y="97.3336" width="4.80922" height="4.80922" fill="black"/>
<rect x="170.818" y="86.9368" width="6.12114" height="6.12114" fill="black"/>
<rect x="200.808" y="86.7512" width="6.12114" height="6.12114" fill="black"/>
<rect x="186.381" y="97.3336" width="4.80922" height="4.80922" fill="black"/>
<rect x="216.319" y="122.29" width="5.37873" height="5.37873" fill="black"/>
<rect x="216.319" y="131.932" width="5.37873" height="5.37873" fill="black"/>
<rect x="170.694" y="146.714" width="6.36909" height="6.36909" fill="black"/>
<rect x="176.939" y="153.069" width="38.8304" height="4.82104" fill="black"/>
<rect x="176.939" y="82.1157" width="23.8689" height="4.82104" fill="black"/>
<rect x="188.246" y="182.455" width="27.7424" height="4.82104" transform="rotate(-90 188.246 182.455)" fill="black"/>
<rect x="196.354" y="182.455" width="27.7424" height="4.82104" transform="rotate(-90 196.354 182.455)" fill="black"/>
</g>
<defs>
<clipPath id="clip0_21_1944">
<rect width="650" height="400" fill="white"/>
</clipPath>
</defs>
</svg>
