<svg width="650" height="401" viewBox="0 0 650 401" fill="none" xmlns="http://www.w3.org/2000/svg">
<g clip-path="url(#clip0_1098_3351)">
<path d="M66.6404 97.0378C66.6404 99.4856 68.1363 100.71 70.5841 100.71C72.6239 100.71 74.2558 99.2136 74.2558 97.4458C74.2558 94.9979 72.216 93.502 69.0882 93.502C38.7624 93.3661 17.684 83.5748 17.684 62.6323C17.684 43.4577 42.7061 29.8587 69.4962 29.8587C96.1502 29.8587 119.812 40.7379 119.812 61.1364C119.812 61.9524 119.132 62.6323 118.181 62.6323H74.5278C73.4399 62.6323 72.6239 61.9524 72.6239 60.7285C72.6239 58.8246 70.8561 57.6007 68.8162 57.6007C66.6404 57.6007 64.8725 59.0966 64.8725 60.8645C64.8725 61.8164 65.1445 64.2642 68.6802 64.2642C102.814 64.2642 120.764 76.6393 120.764 97.4458C120.764 116.892 102.814 128.995 68.8162 128.995C41.8902 128.995 18.3639 117.844 18.3639 97.0378C18.3639 96.2218 19.0439 95.5419 19.9958 95.5419H65.0085C65.9604 95.5419 66.6404 96.2218 66.6404 97.0378ZM123.296 29.8587H219.577C220.257 29.8587 220.801 30.4027 220.801 31.0827V78.8151C220.801 79.4951 220.257 80.039 219.577 80.039H194.827V127.772C194.827 128.451 194.147 128.995 193.467 128.995H149.27C148.59 128.995 148.046 128.451 148.046 127.772V80.039H123.296C122.616 80.039 122.072 79.4951 122.072 78.8151V31.0827C122.072 30.4027 122.616 29.8587 123.296 29.8587ZM291.795 30.6747L324.841 127.228C325.249 128.315 324.705 128.995 323.617 128.995H279.148C278.196 128.995 277.788 128.451 277.516 127.636L274.932 119.884H262.693L260.109 127.636C259.837 128.451 259.429 128.995 258.478 128.995H213.873C212.785 128.995 212.241 128.315 212.649 127.228L245.966 30.6747C246.238 30.1307 246.646 29.8587 247.326 29.8587H290.571C291.115 29.8587 291.659 30.1307 291.795 30.6747ZM264.597 114.173H273.028L268.813 101.117L264.597 114.173ZM329.733 29.8587H390.113C408.335 29.8587 423.294 44.8176 423.294 63.0403C423.294 68.8879 421.798 74.4635 418.942 79.3591C421.798 84.3907 423.294 89.9663 423.294 95.8139C423.294 114.037 408.335 128.995 390.113 128.995H329.733C328.917 128.995 328.373 128.451 328.373 127.772V31.2186C328.373 30.5387 328.917 29.8587 329.733 29.8587ZM372.706 54.065V62.3603H375.018C377.33 62.3603 379.233 60.5925 379.233 58.2806C379.233 55.9688 377.33 54.065 375.018 54.065H372.706ZM372.706 96.7658V105.197H375.018C377.33 105.197 379.233 103.293 379.233 100.981C379.233 98.6697 377.33 96.7658 375.018 96.7658H372.706ZM425.691 127.772V31.0827C425.691 30.4027 426.235 29.8587 426.915 29.8587H470.976C471.656 29.8587 472.336 30.4027 472.336 31.0827V98.8057H523.468C524.148 98.8057 524.828 99.3496 524.828 100.03V127.772C524.828 128.451 524.148 128.995 523.468 128.995H426.915C426.235 128.995 425.691 128.451 425.691 127.772ZM529.612 29.8587H623.989C624.805 29.8587 625.349 30.2667 625.349 31.2186V58.2806C625.349 59.2326 624.805 59.6405 623.989 59.6405H573.944V64.5362H606.174C606.99 64.5362 607.398 64.9442 607.398 65.8961V93.0941C607.398 94.046 606.99 94.454 606.174 94.454H573.944V99.3496H623.989C624.805 99.3496 625.349 99.7576 625.349 100.574V127.636C625.349 128.587 624.805 128.995 623.989 128.995H529.612C528.796 128.995 528.252 128.451 528.252 127.772V31.2186C528.252 30.5387 528.796 29.8587 529.612 29.8587ZM146.217 302.629C146.217 303.531 145.496 304.433 144.413 304.433H88.3C87.7587 304.433 87.2174 304.072 86.8566 303.531C85.4131 301.366 83.248 300.103 80.722 300.103C76.7526 300.103 73.5049 303.35 73.5049 307.32C73.5049 311.289 76.7526 314.537 80.722 314.537C83.248 314.537 85.4131 313.093 86.8566 310.928C87.2174 310.387 87.7587 310.207 88.3 310.207H144.413C145.496 310.207 146.217 311.109 146.217 312.011C146.217 346.112 115.003 372.995 80.722 372.995C44.4561 372.995 14.8659 343.586 14.8659 307.32C14.8659 271.054 44.4561 241.464 80.722 241.464C114.823 241.464 146.217 268.528 146.217 302.629ZM214.296 241.464C250.923 241.464 280.513 270.693 280.513 307.32C280.513 343.947 250.923 372.995 214.296 372.995C177.669 372.995 148.079 343.947 148.079 307.32C148.079 270.693 177.669 241.464 214.296 241.464ZM214.296 313.635C217.724 313.635 220.611 310.928 220.611 307.32C220.611 303.892 217.724 301.005 214.296 301.005C210.868 301.005 207.981 303.892 207.981 307.32C207.981 310.928 210.868 313.635 214.296 313.635ZM315.905 305.335C298.043 305.335 283.428 290.901 283.428 273.039C283.428 255.176 298.043 241.464 315.905 241.464C333.948 241.464 348.382 255.176 348.382 273.039C348.382 290.901 333.948 305.335 315.905 305.335ZM286.135 309.124H345.676C346.578 309.124 347.48 310.026 347.48 310.928V371.191C347.48 372.274 346.578 372.995 345.676 372.995H286.135C285.233 372.995 284.33 372.274 284.33 371.191V310.928C284.33 310.026 285.233 309.124 286.135 309.124ZM415.848 306.778V371.372C415.848 372.274 414.946 372.995 414.044 372.995H355.405C354.503 372.995 353.781 372.274 353.781 371.372V243.268C353.781 242.185 354.503 241.464 355.405 241.464H414.405C415.487 241.464 416.209 242.005 416.389 243.088L424.509 306.237C424.509 306.598 424.869 306.598 424.869 306.237V243.268C424.869 242.185 425.591 241.464 426.493 241.464H485.132C486.034 241.464 486.937 242.185 486.937 243.268V371.372C486.937 372.274 486.034 372.995 485.132 372.995H425.952C425.23 372.815 424.689 372.093 424.509 371.372L416.209 306.778C416.209 306.418 415.848 306.418 415.848 306.778ZM556.466 330.595C556.466 333.843 558.451 335.466 561.698 335.466C564.405 335.466 566.57 333.482 566.57 331.136C566.57 327.889 563.864 325.904 559.714 325.904C519.478 325.723 491.512 312.733 491.512 284.947C491.512 259.506 524.711 241.464 560.255 241.464C595.619 241.464 627.013 255.898 627.013 282.962C627.013 284.045 626.111 284.947 624.848 284.947H566.931C565.487 284.947 564.405 284.045 564.405 282.421C564.405 279.895 562.059 278.271 559.353 278.271C556.466 278.271 554.12 280.256 554.12 282.601C554.12 283.864 554.481 287.112 559.172 287.112C604.46 287.112 628.276 303.531 628.276 331.136C628.276 356.937 604.46 372.995 559.353 372.995C523.628 372.995 492.414 358.2 492.414 330.595C492.414 329.512 493.316 328.61 494.579 328.61H554.301C555.564 328.61 556.466 329.512 556.466 330.595Z" fill="#FBCB83"/>
<path d="M473.736 118.072L462.856 111.134L457.234 108.842L444.745 112.028L441.177 120.184L445.128 132.035L450.607 135.348L459.272 139.935L461.057 146.179L456.724 154.59L451.754 161.598L449.078 168.352L431.11 174.087L421.681 170.773L413.27 184.791L415.564 192.054L422.318 195.495L427.925 194.73L431.493 206.964L439.139 210.022L445.255 209.385L448.568 220.726L455.067 225.059L498.903 213.335L503.108 207.601L515.214 202.886L519.929 196.26L530.251 192.564L516.106 133.691L508.422 132.745L496.394 125.858L487.36 126.008L480.224 121.266L473.736 118.072Z" fill="#AB7634"/>
<path d="M507.009 130.922L505.79 131.196L499.743 132.817L501.276 138.809L507.323 137.189L521.938 191.731L509.804 194.982L511.446 201.108L523.579 197.857L525.199 203.904L543.38 199.033L525.19 126.051L507.009 130.922ZM534.071 188.479L527.985 190.11L524.733 177.977L530.82 176.346L534.071 188.479Z" fill="#7E4F15"/>
<path d="M498.119 126.784L492.032 128.415L493.653 134.462L499.739 132.831L498.119 126.784Z" fill="#7E4F15"/>
<path d="M454.979 177.399L416.944 187.59L418.565 193.637L456.599 183.446L454.979 177.399Z" fill="#7E4F15"/>
<path d="M471.97 192.317L433.935 202.509L435.555 208.556L473.59 198.364L471.97 192.317Z" fill="#7E4F15"/>
<path d="M499.121 204.499L450.805 217.445L452.425 223.492L500.741 210.546L499.121 204.499Z" fill="#7E4F15"/>
<path d="M490.429 122.343L478.335 125.584L479.955 131.631L492.049 128.39L490.429 122.343Z" fill="#7E4F15"/>
<path d="M476.694 119.517L470.607 121.148L472.238 127.234L478.325 125.603L476.694 119.517Z" fill="#7E4F15"/>
<path d="M469.034 115.065L462.987 116.685L464.607 122.732L470.654 121.112L469.034 115.065Z" fill="#7E4F15"/>
<path d="M461.366 110.638L443.096 115.533L444.717 121.58L462.986 116.685L461.366 110.638Z" fill="#7E4F15"/>
<path d="M474.428 159.113L468.341 160.744L469.961 166.791L476.048 165.16L474.428 159.113Z" fill="#7E4F15"/>
<path d="M465.089 148.61L459.042 150.23L462.294 162.364L468.341 160.744L465.089 148.61Z" fill="#7E4F15"/>
<path d="M421.335 179.807L415.288 181.427L416.954 187.646L423.001 186.026L421.335 179.807Z" fill="#7E4F15"/>
<path d="M438.248 194.798L432.201 196.418L433.867 202.637L439.914 201.017L438.248 194.798Z" fill="#7E4F15"/>
<path d="M455.334 209.583L449.287 211.204L450.953 217.423L457 215.802L455.334 209.583Z" fill="#7E4F15"/>
<path d="M437.508 107.795L443.955 110.558L444.854 113.127L441.54 118.083L445.206 131.988L451.169 135.116L458.996 140.027L461.145 145.553L457.154 154.668L452.55 160.765L448.559 168.883L429.345 174.408L421.853 169.343L413.564 164.892L408.192 162.129L400.365 136.375L413.104 114.395L437.508 107.795Z" fill="#FFD250"/>
<path d="M412.811 123.472L406.764 125.093L408.455 131.402L414.502 129.781L412.811 123.472Z" fill="#FFB84D"/>
<path d="M441.507 109.303L411.191 117.426L412.855 123.638L443.172 115.514L441.507 109.303Z" fill="#FFB84D"/>
<path d="M544.825 192.096L539.241 171.96L527.396 174.836L533.487 193.45L544.825 192.096Z" fill="#009E9E"/>
<path d="M449.775 159.101L421.759 166.608L423.458 172.951L451.475 165.444L449.775 159.101Z" fill="#FFB84D"/>
<path d="M421.963 151.873L414.378 153.905L418.123 167.883L425.708 165.851L421.963 151.873Z" fill="#FFB84D"/>
<path d="M430.803 155.641L423.219 157.674L426.342 169.33L433.927 167.298L430.803 155.641Z" fill="#FFB84D"/>
<path d="M409.541 131.014L402.319 132.949L410.478 163.398L417.7 161.463L409.541 131.014Z" fill="#FFB84D"/>
<path d="M501.044 210.466L452.549 223.46L454.169 229.507L502.664 216.513L501.044 210.466Z" fill="#000001"/>
<path d="M517.605 199.547L499.424 204.418L501.044 210.465L519.225 205.594L517.605 199.547Z" fill="#000001"/>
<path d="M479.612 203.203L477.992 197.156L435.544 208.53L437.164 214.577L443.251 212.946L446.502 225.08L452.549 223.459L449.298 211.326L479.612 203.203Z" fill="#000001"/>
<path d="M462.607 188.274L460.987 182.227L418.579 193.59L420.199 199.637L426.246 198.017L429.497 210.15L435.544 208.53L432.293 196.397L462.607 188.274Z" fill="#000001"/>
<path d="M415.328 181.457L409.241 183.088L412.492 195.221L418.579 193.591L415.328 181.457Z" fill="#000001"/>
<path d="M426.18 172.072L413.646 175.43L415.27 181.489L427.803 178.131L426.18 172.072Z" fill="#000001"/>
<path d="M480.383 157.545L474.296 159.176L475.916 165.223L482.003 163.592L480.383 157.545Z" fill="#000001"/>
<path d="M450.069 165.668L425.802 172.17L427.422 178.217L451.689 171.715L450.069 165.668Z" fill="#000001"/>
<path d="M471.045 147.042L464.998 148.662L468.249 160.796L474.296 159.175L471.045 147.042Z" fill="#000001"/>
<path d="M454.796 157.876L448.437 159.58L450.068 165.666L456.427 163.963L454.796 157.876Z" fill="#000001"/>
<path d="M459.071 150.186L452.67 151.901L454.301 157.988L460.702 156.273L459.071 150.186Z" fill="#000001"/>
<path d="M453.221 151.767L446.821 153.482L448.452 159.569L454.852 157.854L453.221 151.767Z" fill="#FFB84D"/>
<path d="M424.171 166.081L418.124 167.702L419.755 173.788L425.802 172.168L424.171 166.081Z" fill="#000001"/>
<path d="M416.503 161.656L410.456 163.277L412.077 169.323L418.123 167.703L416.503 161.656Z" fill="#000001"/>
<path d="M461.746 136.527L455.699 138.148L458.95 150.281L464.997 148.661L461.746 136.527Z" fill="#000001"/>
<path d="M455.897 138.108L449.85 139.729L453.101 151.862L459.148 150.242L455.897 138.108Z" fill="#FFB84D"/>
<path d="M402.334 132.963L396.247 134.594L404.37 164.908L410.457 163.277L402.334 132.963Z" fill="#000001"/>
<path d="M510.236 123.514L511.857 129.561L505.81 131.181L507.441 137.268L513.488 135.648L528.102 190.189L515.968 193.441L517.61 199.567L529.744 196.316L531.364 202.363L549.544 197.491L528.417 118.643L510.236 123.514ZM540.236 186.938L534.149 188.569L530.898 176.436L536.984 174.805L540.236 186.938Z" fill="#000001"/>
<path d="M504.194 125.154L498.108 126.784L499.728 132.831L505.815 131.2L504.194 125.154Z" fill="#000001"/>
<path d="M496.487 120.739L484.394 123.979L486.014 130.026L498.108 126.786L496.487 120.739Z" fill="#000001"/>
<path d="M431.611 131.583L425.524 133.214L427.145 139.261L433.231 137.63L431.611 131.583Z" fill="#000001"/>
<path d="M482.763 117.892L476.676 119.523L478.307 125.61L484.394 123.979L482.763 117.892Z" fill="#000001"/>
<path d="M475.056 113.477L469.009 115.097L470.63 121.144L476.676 119.524L475.056 113.477Z" fill="#000001"/>
<path d="M467.388 109.05L461.302 110.68L462.922 116.727L469.009 115.096L467.388 109.05Z" fill="#000001"/>
<path d="M454.079 132.102L447.992 133.733L449.613 139.78L455.699 138.149L454.079 132.102Z" fill="#000001"/>
<path d="M448.23 133.683L442.143 135.314L443.763 141.361L449.85 139.73L448.23 133.683Z" fill="#FFB84D"/>
<path d="M421.588 134.404L415.541 136.025L417.172 142.111L423.219 140.491L421.588 134.404Z" fill="#000001"/>
<path d="M431.191 144.583L423.147 146.739L424.281 150.971L432.325 148.816L431.191 144.583Z" fill="#000001"/>
<path d="M443.121 115.552L437.074 117.172L441.946 135.353L447.993 133.732L443.121 115.552Z" fill="#000001"/>
<path d="M437.272 117.133L431.225 118.753L436.096 136.934L442.143 135.313L437.272 117.133Z" fill="#FFB84D"/>
<path d="M406.76 125.295L400.713 126.915L402.333 132.962L408.38 131.342L406.76 125.295Z" fill="#000001"/>
<path d="M459.67 104.594L441.49 109.465L443.121 115.552L461.301 110.68L459.67 104.594Z" fill="#000001"/>
<path d="M411.177 117.588L405.13 119.208L406.761 125.295L412.807 123.674L411.177 117.588Z" fill="#000001"/>
<path d="M439.873 103.418L409.556 111.541L411.176 117.588L441.493 109.465L439.873 103.418Z" fill="#000001"/>
<path d="M233.511 118.68L170.592 110.303L165.578 109.815L152.407 119.968L138.085 227.538L148.818 241.425L215.596 250.316L223.269 243.683L230.235 239.404L244.449 132.647L239.216 126.592L233.511 118.68Z" fill="#DABFFF"/>
<path d="M184.107 155.333L157.004 151.724L146.36 231.676L173.462 235.284L184.107 155.333Z" fill="#BA9EE1"/>
<rect x="159.402" y="162.211" width="12.7799" height="13.1663" transform="rotate(7.5838 159.402 162.211)" fill="#FFC110"/>
<rect x="186.717" y="165.848" width="12.7799" height="13.1663" transform="rotate(7.5838 186.717 165.848)" fill="#FFC110"/>
<rect x="212.786" y="169.219" width="12.7799" height="13.1663" transform="rotate(7.5838 212.786 169.219)" fill="#FFC110"/>
<rect x="155.881" y="188.657" width="12.7799" height="13.1663" transform="rotate(7.5838 155.881 188.657)" fill="#FFC110"/>
<rect x="152.36" y="215.103" width="12.7799" height="13.1663" transform="rotate(7.5838 152.36 215.103)" fill="#FFC110"/>
<rect x="183.196" y="192.294" width="12.7799" height="13.1663" transform="rotate(7.5838 183.196 192.294)" fill="#FFC110"/>
<rect x="209.265" y="195.665" width="12.7799" height="13.1663" transform="rotate(7.5838 209.265 195.665)" fill="#FFC110"/>
<rect x="165.503" y="123.205" width="65.6023" height="26.5662" transform="rotate(7.5838 165.503 123.205)" fill="#C8F5FF"/>
<rect x="164.161" y="133.284" width="31.1108" height="16.3976" transform="rotate(7.5838 164.161 133.284)" fill="#99DDEC"/>
<path d="M161.952 117.871L154.143 116.831L139.104 229.791L146.912 230.831L161.952 117.871Z" fill="#BA9EE1"/>
<path d="M219.871 240.895L146.957 231.187L146.087 237.726L219 247.433L219.871 240.895Z" fill="#BA9EE1"/>
<path d="M247.986 130.044L241.384 129.165L226.407 241.658L233.009 242.537L247.986 130.044Z" fill="#000001"/>
<path d="M226.407 241.658L219.806 240.779L218.921 247.424L225.523 248.303L226.407 241.658Z" fill="#000001"/>
<path d="M242.269 122.52L235.668 121.641L234.783 128.287L241.385 129.166L242.269 122.52Z" fill="#000001"/>
<path d="M222.448 220.929L176.105 214.759L173.462 234.608L219.805 240.778L222.448 220.929Z" fill="#000001"/>
<path d="M218.921 247.424L146.083 237.726L145.204 244.328L218.042 254.026L218.921 247.424Z" fill="#000001"/>
<path d="M225.97 194.48L206.121 191.837L203.478 211.686L223.327 214.329L225.97 194.48ZM217.566 206.798L210.965 205.92L211.844 199.318L218.445 200.197L217.566 206.798Z" fill="#000001"/>
<path d="M229.497 167.984L209.648 165.342L207.005 185.191L226.855 187.833L229.497 167.984ZM221.088 180.347L214.486 179.468L215.371 172.822L221.973 173.701L221.088 180.347Z" fill="#000001"/>
<path d="M161.945 118.589L157.538 151.685L230.376 161.383L234.783 128.287L161.945 118.589ZM224.616 153.853L165.069 145.925L167.711 126.076L227.258 134.004L224.616 153.853Z" fill="#000001"/>
<path d="M219.772 139.771L213.17 138.892L212.291 145.494L218.893 146.372L219.772 139.771Z" fill="#000001"/>
<path d="M206.524 138.007L199.922 137.128L199.043 143.729L205.645 144.608L206.524 138.007Z" fill="#000001"/>
<path d="M199.475 190.952L179.626 188.309L176.984 208.158L196.833 210.801L199.475 190.952ZM191.115 203.277L184.47 202.392L185.349 195.79L191.994 196.675L191.115 203.277Z" fill="#000001"/>
<path d="M203.003 164.457L183.154 161.814L180.511 181.663L200.36 184.306L203.003 164.457ZM194.637 176.825L187.992 175.94L188.877 169.295L195.522 170.18L194.637 176.825Z" fill="#000001"/>
<path d="M166.882 233.732L169.525 213.883L149.61 211.231L146.968 231.08L166.882 233.732ZM155.393 218.764L161.995 219.643L161.116 226.245L154.492 225.363L155.393 218.764Z" fill="#000001"/>
<path d="M173.046 187.433L153.132 184.782L150.489 204.631L170.404 207.282L173.046 187.433ZM164.643 199.752L158.019 198.87L158.898 192.268L165.5 193.147L164.643 199.752Z" fill="#000001"/>
<path d="M176.574 160.938L156.66 158.286L154.017 178.135L173.931 180.787L176.574 160.938ZM168.165 173.3L161.541 172.418L162.426 165.773L169.028 166.652L168.165 173.3Z" fill="#000001"/>
<path d="M236.547 115.039L163.709 105.341L162.83 111.943L235.668 121.641L236.547 115.039Z" fill="#000001"/>
<path d="M146.968 231.081L140.366 230.202L139.481 236.848L146.083 237.727L146.968 231.081Z" fill="#000001"/>
<path d="M162.83 111.944L156.228 111.065L155.343 117.71L161.945 118.589L162.83 111.944Z" fill="#000001"/>
<path d="M155.343 117.71L148.741 116.831L133.764 229.323L140.366 230.202L155.343 117.71Z" fill="#000001"/>
<path d="M367.037 160.295L363.762 157.48L354.168 155.006L348.643 158.889L345.844 166.289L335.128 167.993L330.07 158.385L327.478 153.969L317.401 151.919L312.548 155.53L309.089 163.632L292.884 164.555L289.942 168.365L285.297 172.668L279.127 176.344L273.439 182.448L268.487 198.68L267.942 213.476L276.965 223.109L279.9 227.681L283.166 238.564L285.912 242.648L297.591 243.626L301.808 239.891L341.222 242.365L344.62 247.514L354.913 249.466L359.755 245.514L362.85 238.803L372.165 233.429L385.77 229.883L388.565 211.085L380.143 200.255L382.109 187.477L376.444 179.771L373.458 176.343L369.89 172.232L367.037 160.295Z" fill="#FFB1DC"/>
<rect x="285.082" y="225.669" width="74.6163" height="14.898" transform="rotate(4.64 285.082 225.669)" fill="#F59CCD"/>
<rect x="281.838" y="218.976" width="41.5099" height="10.8545" transform="rotate(4.64 281.838 218.976)" fill="#F59CCD"/>
<rect x="272.565" y="208.174" width="40.8877" height="16.8166" transform="rotate(4.64 272.565 208.174)" fill="#F59CCD"/>
<rect x="267.262" y="200.829" width="37.0715" height="11.6626" transform="rotate(4.64 267.262 200.829)" fill="#F59CCD"/>
<rect x="273.433" y="191.952" width="21.7226" height="16.8166" transform="rotate(4.64 273.433 191.952)" fill="#F59CCD"/>
<path d="M385.142 205.24L361.555 203.031L355.055 207.198L355.706 228.083L386.384 229.694L388.473 218.421L385.142 205.24Z" fill="#FF73C0"/>
<path d="M391.636 197.806L384.267 197.207L385.458 182.542L378.137 181.948L376.944 196.637L354.935 194.85L354.34 202.17L346.971 201.572L344.586 230.95L351.955 231.549L351.36 238.869L358.681 239.464L358.082 246.832L365.451 247.431L366.049 240.062L380.69 241.251L381.285 233.93L388.654 234.529L389.248 227.208L396.569 227.803L398.36 205.745L391.039 205.15L391.636 197.806ZM367.24 225.397L359.872 224.798L361.062 210.133L368.431 210.732L367.24 225.397ZM381.881 226.586L374.561 225.991L375.752 211.326L383.072 211.921L381.881 226.586Z" fill="#000001"/>
<path d="M378.734 174.602L371.414 174.008L370.819 181.328L378.14 181.923L378.734 174.602Z" fill="#000001"/>
<path d="M370.819 181.329L363.45 180.73L362.851 188.099L370.22 188.697L370.819 181.329Z" fill="#000001"/>
<path d="M372.606 159.319L365.237 158.72L364.044 173.409L371.413 174.008L372.606 159.319Z" fill="#000001"/>
<path d="M365.832 151.4L351.142 150.207L350.548 157.528L365.237 158.72L365.832 151.4Z" fill="#000001"/>
<path d="M358.084 246.808L343.395 245.615L342.801 252.935L357.49 254.128L358.084 246.808Z" fill="#000001"/>
<path d="M343.993 238.246L299.974 234.671L299.375 242.04L343.395 245.615L343.993 238.246Z" fill="#000001"/>
<path d="M348.761 179.538L341.44 178.943L340.842 186.312L348.163 186.906L348.761 179.538Z" fill="#000001"/>
<path d="M349.355 172.217L350.548 157.528L343.228 156.933L342.629 164.302L335.309 163.708L335.907 156.339L328.538 155.741L327.346 170.43L349.355 172.217Z" fill="#000001"/>
<path d="M329.132 148.42L314.443 147.227L313.849 154.547L328.538 155.74L329.132 148.42Z" fill="#000001"/>
<path d="M312.656 169.237L313.849 154.548L306.529 153.953L305.93 161.322L291.241 160.129L290.647 167.45L312.656 169.237Z" fill="#000001"/>
<path d="M299.376 242.041L284.687 240.848L284.092 248.168L298.781 249.361L299.376 242.041Z" fill="#000001"/>
<path d="M285.879 226.158L278.559 225.563L277.366 240.253L284.686 240.847L285.879 226.158Z" fill="#000001"/>
<path d="M290.646 167.449L283.326 166.855L282.731 174.176L290.052 174.77L290.646 167.449Z" fill="#000001"/>
<path d="M279.153 218.243L271.833 217.649L271.238 224.97L278.559 225.564L279.153 218.243Z" fill="#000001"/>
<path d="M282.732 174.176L275.411 173.581L274.813 180.95L282.133 181.544L282.732 174.176Z" fill="#000001"/>
<path d="M261.084 187.253L253.763 186.658L253.165 194.027L260.485 194.621L261.084 187.253Z" fill="#000001"/>
<path d="M266.597 193.884L253.265 192.801L252.666 200.17L265.999 201.253L266.597 193.884Z" fill="#000001"/>
<path d="M274.812 180.95L267.444 180.351L264.464 217.05L271.832 217.649L274.812 180.95Z" fill="#000001"/>
<path d="M290.725 145.142L285.291 144.824L284.971 150.294L290.406 150.612L290.725 145.142Z" fill="#000001"/>
<path d="M273.433 160.527L267.998 160.209L267.679 165.679L273.113 165.997L273.433 160.527Z" fill="#000001"/>
<path d="M274.386 144.187L279.821 144.504L280.138 139.07L274.704 138.753L275.021 133.319L269.587 133.001L269.27 138.436L263.8 138.116L263.482 143.55L268.952 143.87L268.633 149.34L274.067 149.657L274.386 144.187Z" fill="#000001"/>
<path d="M263.163 149.021L257.728 148.703L257.411 154.138L262.845 154.455L263.163 149.021Z" fill="#000001"/>
<rect width="125.796" height="84.0205" transform="translate(-2.45636 182.777) rotate(-21.1492)" fill="#D8FB6B"/>
<path d="M132.134 215.355L33.4377 253.536L35.9026 259.907L134.599 221.726L132.134 215.355Z" fill="#B5DC3A"/>
<path d="M48.7167 240.485L29.6721 247.853L32.137 254.224L51.1817 246.857L48.7167 240.485Z" fill="#B5DC3A"/>
<path d="M114.999 137.795L112.637 131.689L-4.13968 176.864L-1.77738 182.971L-7.90864 185.343L22.6776 264.407L28.8089 262.035L31.1558 268.101L147.932 222.926L145.585 216.859L151.757 214.472L121.171 135.408L114.999 137.795ZM140.876 204.686L134.745 207.058L137.092 213.125L130.96 215.497L133.323 221.603L41.1118 257.275L38.7495 251.169L32.6182 253.541L30.2714 247.474L24.0998 249.862L2.93176 195.144L9.10336 192.756L6.74107 186.65L12.8723 184.278L10.5255 178.211L102.736 142.539L105.083 148.606L111.215 146.234L113.577 152.34L119.708 149.968L140.876 204.686Z" fill="#000001"/>
<path d="M99.534 171.722L93.4216 174.087L105.187 204.499L111.299 202.134L99.534 171.722Z" fill="#000001"/>
<path d="M105.186 204.498L99.0338 206.878L101.396 212.985L107.549 210.605L105.186 204.498Z" fill="#000001"/>
<path d="M91.0747 168.02L84.9221 170.4L87.2689 176.467L93.4216 174.087L91.0747 168.02Z" fill="#000001"/>
<path d="M101.396 212.985L95.284 215.35L97.6309 221.416L103.743 219.051L101.396 212.985Z" fill="#000001"/>
<path d="M82.5754 164.334L76.463 166.698L78.8099 172.765L84.9223 170.4L82.5754 164.334Z" fill="#000001"/>
<path d="M88.2123 197.07L82.0596 199.45L84.4219 205.556L90.5746 203.176L88.2123 197.07Z" fill="#000001"/>
<path d="M97.6307 221.416L66.9881 233.27L69.3349 239.337L99.9775 227.482L97.6307 221.416Z" fill="#000001"/>
<path d="M79.7128 193.384L61.3353 200.493L63.6821 206.56L82.0596 199.45L79.7128 193.384Z" fill="#000001"/>
<path d="M66.0444 212.666L68.3912 218.732L74.5439 216.352L76.9062 222.459L83.0186 220.094L80.6563 213.988L86.7687 211.623L84.4219 205.557L66.0444 212.666Z" fill="#000001"/>
<path d="M77.3662 187.318L75.004 181.212L68.8915 183.576L66.5447 177.51L60.4322 179.874L62.7791 185.941L56.6265 188.321L58.9887 194.427L77.3662 187.318Z" fill="#000001"/>
<path d="M74.1006 160.592L43.458 172.446L45.8203 178.552L76.4629 166.698L74.1006 160.592Z" fill="#000001"/>
<path d="M58.9885 194.427L52.876 196.791L55.2229 202.858L61.3353 200.493L58.9885 194.427Z" fill="#000001"/>
<path d="M64.6416 227.204L58.489 229.584L60.8358 235.65L66.9884 233.27L64.6416 227.204Z" fill="#000001"/>
<path d="M45.8206 178.552L39.668 180.933L42.0148 186.999L48.1675 184.619L45.8206 178.552Z" fill="#000001"/>
<path d="M56.1265 223.477L50.0141 225.842L52.3764 231.948L58.4888 229.584L56.1265 223.477Z" fill="#000001"/>
<path d="M42.0151 186.999L35.9026 189.364L38.2495 195.43L44.3619 193.066L42.0151 186.999Z" fill="#000001"/>
<path d="M38.2494 195.43L32.137 197.795L43.9021 228.207L50.0145 225.843L38.2494 195.43Z" fill="#000001"/>
<rect width="124.126" height="86.0128" transform="translate(-23.0549 171.318) rotate(-21.1492)" fill="#B5DC3A"/>
<path d="M108.691 204.886L8.76474 243.543L11.2105 249.865L111.136 211.208L108.691 204.886Z" fill="#94B52C"/>
<path d="M44.8621 222.285L-0.123352 239.688L2.51972 246.52L47.5052 229.117L44.8621 222.285Z" fill="#94B52C"/>
<path d="M13.7461 219.52L-4.34756 226.52L0.53163 239.132L18.6253 232.132L13.7461 219.52Z" fill="#94B52C"/>
<path d="M92.8887 126.921L90.5264 120.815L-25.3736 165.651L-23.0113 171.758L-29.0966 174.112L1.48968 253.176L7.57494 250.822L9.92179 256.888L125.822 212.052L123.475 205.985L129.6 203.616L99.014 124.552L92.8887 126.921ZM118.766 193.812L112.681 196.166L115.027 202.233L108.942 204.587L111.304 210.693L19.7855 246.098L17.4232 239.992L11.3379 242.346L8.99108 236.279L2.86579 238.649L-18.3022 183.931L-12.1769 181.561L-14.5392 175.455L-8.45396 173.1L-10.8008 167.034L80.7182 131.629L83.065 137.696L89.1503 135.342L91.5126 141.448L97.5978 139.094L118.766 193.812Z" fill="#000001"/>
<path d="M77.3774 160.866L71.265 163.23L83.0302 193.643L89.1426 191.278L77.3774 160.866Z" fill="#000001"/>
<path d="M83.0298 193.642L76.8772 196.022L79.2395 202.128L85.3921 199.748L83.0298 193.642Z" fill="#000001"/>
<path d="M68.9181 157.164L62.7654 159.544L65.1123 165.61L71.2649 163.23L68.9181 157.164Z" fill="#000001"/>
<path d="M79.2399 202.129L73.1274 204.493L75.4743 210.56L81.5867 208.195L79.2399 202.129Z" fill="#000001"/>
<path d="M60.4189 153.477L54.3065 155.842L56.6533 161.908L62.7657 159.544L60.4189 153.477Z" fill="#000001"/>
<path d="M66.0557 186.213L59.9031 188.594L62.2654 194.7L68.418 192.32L66.0557 186.213Z" fill="#000001"/>
<path d="M75.4741 210.56L44.8315 222.414L47.1784 228.48L77.821 216.626L75.4741 210.56Z" fill="#000001"/>
<path d="M57.5562 182.527L39.1787 189.637L41.5256 195.703L59.9031 188.594L57.5562 182.527Z" fill="#000001"/>
<path d="M43.8878 201.81L46.2347 207.876L52.3873 205.496L54.7496 211.602L60.862 209.238L58.4997 203.131L64.6122 200.767L62.2653 194.7L43.8878 201.81Z" fill="#000001"/>
<path d="M55.2097 176.462L52.8474 170.355L46.735 172.72L44.3881 166.653L38.2757 169.018L40.6225 175.084L34.4699 177.465L36.8322 183.571L55.2097 176.462Z" fill="#000001"/>
<path d="M51.944 149.735L21.3015 161.59L23.6637 167.696L54.3063 155.842L51.944 149.735Z" fill="#000001"/>
<path d="M36.8319 183.57L30.7195 185.935L33.0663 192.001L39.1788 189.637L36.8319 183.57Z" fill="#000001"/>
<path d="M42.485 216.347L36.3324 218.728L38.6793 224.794L44.8319 222.414L42.485 216.347Z" fill="#000001"/>
<path d="M23.6641 167.696L17.5114 170.076L19.8583 176.143L26.0109 173.762L23.6641 167.696Z" fill="#000001"/>
<path d="M33.97 212.621L27.8575 214.985L30.2198 221.092L36.3323 218.727L33.97 212.621Z" fill="#000001"/>
<path d="M19.8585 176.143L13.7461 178.507L16.0929 184.574L22.2054 182.209L19.8585 176.143Z" fill="#000001"/>
<path d="M16.0929 184.574L9.98047 186.939L21.7456 217.351L27.858 214.987L16.0929 184.574Z" fill="#000001"/>
<path d="M612.07 171.195L595.212 157.5L561.094 148.77L554.579 151.792L546.117 151.523L537.789 156.829L529.461 161.06L524.088 165.097L519.924 173.552L511.999 177.292L506.223 206.998L508.44 211.968L509.111 222.177L513.947 229.833L518.648 238.267L522.074 243.534L531.151 248.974L535.242 256.559L569.545 262.657L592.126 256.559L616.515 236.762L624.261 201.682L612.07 171.195Z" fill="#FFD850"/>
<rect x="522.638" y="234.622" width="74.6163" height="13.5937" transform="rotate(14.2456 522.638 234.622)" fill="#FEBF0B"/>
<rect x="520.878" y="226.217" width="51.3364" height="10.8545" transform="rotate(14.2456 520.878 226.217)" fill="#FEBF0B"/>
<rect x="512.451" y="218.295" width="31.6302" height="12.9304" transform="rotate(14.2456 512.451 218.295)" fill="#FEBF0B"/>
<rect x="507.844" y="207.994" width="29.4282" height="8.73593" transform="rotate(14.2456 507.844 207.994)" fill="#FEBF0B"/>
<rect x="507.457" y="199.987" width="23.2668" height="7.70697" transform="rotate(14.2456 507.457 199.987)" fill="#FEBF0B"/>
<rect x="513.712" y="175.353" width="9.62396" height="26.8868" transform="rotate(14.2456 513.712 175.353)" fill="#FEBF0B"/>
<path d="M589.758 165.567L603.231 168.965L601.537 175.679L608.251 177.373L606.547 184.131L613.305 185.836L609.907 199.309L616.621 201.002L608.142 234.618L601.428 232.924L598.029 246.397L591.271 244.692L589.566 251.451L582.852 249.757L581.159 256.471L567.686 253.073L565.992 259.787L532.333 251.297L530.628 258.056L577.76 269.944L579.465 263.186L592.938 266.584L594.631 259.87L601.345 261.563L603.039 254.849L609.797 256.554L611.502 249.795L618.216 251.489L621.615 238.016L628.329 239.71L636.808 206.094L630.094 204.401L633.492 190.928L626.778 189.234L628.482 182.476L621.724 180.771L623.418 174.057L616.703 172.363L618.397 165.649L604.924 162.251L606.629 155.492L559.497 143.604L557.792 150.362L591.452 158.853L589.758 165.567Z" fill="#000001"/>
<path d="M609.907 199.308L603.148 197.603L594.669 231.219L601.428 232.924L609.907 199.308Z" fill="#000001"/>
<path d="M594.67 231.218L587.956 229.524L586.251 236.283L592.965 237.976L594.67 231.218Z" fill="#000001"/>
<path d="M604.853 190.846L598.139 189.152L596.434 195.911L603.148 197.604L604.853 190.846Z" fill="#000001"/>
<path d="M586.25 236.284L579.536 234.59L577.843 241.304L584.557 242.998L586.25 236.284Z" fill="#000001"/>
<path d="M599.833 182.437L593.118 180.744L591.425 187.458L598.139 189.151L599.833 182.437Z" fill="#000001"/>
<path d="M577.843 241.306L571.084 239.601L569.379 246.359L576.138 248.064L577.843 241.306Z" fill="#000001"/>
<path d="M594.823 173.985L588.065 172.28L586.36 179.039L593.119 180.743L594.823 173.985Z" fill="#000001"/>
<path d="M569.379 246.358L535.72 237.868L534.026 244.582L567.686 253.073L569.379 246.358Z" fill="#000001"/>
<path d="M589.758 165.566L556.098 157.076L554.405 163.79L588.064 172.281L589.758 165.566Z" fill="#000001"/>
<path d="M534.026 244.582L520.598 241.195L518.904 247.909L532.333 251.296L534.026 244.582Z" fill="#000001"/>
<path d="M537.424 231.111L530.709 229.417L529.005 236.176L535.719 237.869L537.424 231.111Z" fill="#000001"/>
<path d="M554.405 163.79L547.69 162.096L545.986 168.855L552.7 170.548L554.405 163.79Z" fill="#000001"/>
<path d="M557.792 150.362L544.363 146.975L542.67 153.689L556.098 157.076L557.792 150.362Z" fill="#000001"/>
<path d="M532.404 222.702L525.69 221.009L523.996 227.723L530.71 229.416L532.404 222.702Z" fill="#000001"/>
<path d="M545.986 168.855L539.271 167.162L537.578 173.876L544.292 175.57L545.986 168.855Z" fill="#000001"/>
<path d="M522.291 234.481L515.533 232.776L513.839 239.49L520.598 241.195L522.291 234.481Z" fill="#000001"/>
<path d="M527.394 214.249L520.636 212.544L518.931 219.302L525.69 221.007L527.394 214.249Z" fill="#000001"/>
<path d="M537.578 173.877L530.819 172.172L529.114 178.93L535.873 180.635L537.578 173.877Z" fill="#000001"/>
<path d="M542.67 153.689L535.911 151.984L534.218 158.699L540.976 160.403L542.67 153.689Z" fill="#000001"/>
<path d="M517.237 226.019L510.523 224.326L508.818 231.084L515.533 232.778L517.237 226.019Z" fill="#000001"/>
<path d="M529.115 178.93L522.401 177.236L513.922 210.852L520.636 212.545L529.115 178.93Z" fill="#000001"/>
<path d="M534.218 158.698L527.504 157.005L525.799 163.763L532.513 165.457L534.218 158.698Z" fill="#000001"/>
<path d="M513.922 210.851L507.163 209.146L503.765 222.619L510.524 224.323L513.922 210.851Z" fill="#000001"/>
<path d="M525.799 163.763L519.041 162.059L515.642 175.531L522.401 177.236L525.799 163.763Z" fill="#000001"/>
<path d="M515.642 175.531L508.928 173.838L500.449 207.453L507.163 209.147L515.642 175.531Z" fill="#000001"/>
<rect x="567.911" y="174.399" width="6.84323" height="33.9593" transform="rotate(14.4991 567.911 174.399)" fill="#FFF671"/>
<rect x="560.742" y="180.867" width="16.9973" height="24.8216" transform="rotate(14.4991 560.742 180.867)" fill="#FFF671"/>
<rect x="554.644" y="188.474" width="24.9965" height="20.691" transform="rotate(14.4991 554.644 188.474)" fill="#FFF671"/>
<rect x="549.393" y="195.856" width="31.7615" height="12.2285" transform="rotate(14.4991 549.393 195.856)" fill="#FFF671"/>
<rect x="561.721" y="223.427" width="5.39428" height="10.3411" transform="rotate(14.4991 561.721 223.427)" fill="#FFC215"/>
<rect x="567.578" y="221.783" width="5.39428" height="7.62733" transform="rotate(14.4991 567.578 221.783)" fill="#FFC215"/>
<rect x="546.504" y="216.334" width="5.39428" height="7.62733" transform="rotate(14.4991 546.504 216.334)" fill="#FFF671"/>
<rect x="542.318" y="211.935" width="5.39428" height="6.26829" transform="rotate(14.4991 542.318 211.935)" fill="#FFF671"/>
<rect x="573.626" y="219.943" width="5.39428" height="6.3538" transform="rotate(14.4991 573.626 219.943)" fill="#FFC215"/>
<rect x="555.03" y="225.101" width="6.05917" height="11.2266" transform="rotate(14.4991 555.03 225.101)" fill="#FFF671"/>
<rect x="550.632" y="220.56" width="5.39428" height="10.3411" transform="rotate(14.4991 550.632 220.56)" fill="#FFF671"/>
<rect x="571.106" y="175.226" width="3.54393" height="30.2802" transform="rotate(14.4991 571.106 175.226)" fill="#FFC215"/>
<rect x="570.447" y="183.246" width="7.00631" height="29.0393" transform="rotate(14.4991 570.447 183.246)" fill="#FFC215"/>
<rect x="572.372" y="193.013" width="7.00631" height="16.5031" transform="rotate(14.4991 572.372 193.013)" fill="#FFC215"/>
<rect x="573.359" y="202.054" width="7.00631" height="11.5609" transform="rotate(14.4991 573.359 202.054)" fill="#FFC215"/>
<rect x="544.518" y="203.427" width="37.2646" height="5.18151" transform="rotate(14.4991 544.518 203.427)" fill="#DB8323"/>
<rect x="548.719" y="208.313" width="27.0247" height="5.18151" transform="rotate(14.4991 548.719 208.313)" fill="#DB8323"/>
<rect x="553.024" y="212.668" width="16.5081" height="5.18151" transform="rotate(14.4991 553.024 212.668)" fill="#DB8323"/>
<rect x="556.985" y="217.541" width="6.05917" height="4.51188" transform="rotate(14.4991 556.985 217.541)" fill="#DB8323"/>
<rect width="37.2646" height="5.18151" transform="matrix(0.968152 0.250365 0.250365 -0.968152 543.221 208.443)" fill="#DB8323"/>
<rect width="27.0247" height="5.18151" transform="matrix(0.968152 0.250365 0.250365 -0.968152 549.264 206.206)" fill="#DB8323"/>
<rect width="16.5081" height="5.18151" transform="matrix(0.968152 0.250365 0.250365 -0.968152 555.14 204.483)" fill="#DB8323"/>
<rect width="6.05917" height="5.18151" transform="matrix(0.968152 0.250365 0.250365 -0.968152 560.967 202.14)" fill="#DB8323"/>
<rect x="565.231" y="197.942" width="2.98206" height="25.5519" transform="rotate(14.4991 565.231 197.942)" fill="#DB8323"/>
<rect x="566.147" y="201.977" width="6.47894" height="18.7393" transform="rotate(14.4991 566.147 201.977)" fill="#DB8323"/>
<rect x="570.767" y="206.321" width="6.1771" height="12.6305" transform="rotate(14.4991 570.767 206.321)" fill="#DB8323"/>
<rect x="575.206" y="211.362" width="5.56699" height="5.18151" transform="rotate(14.4991 575.206 211.362)" fill="#DB8323"/>
<rect x="558.009" y="225.871" width="2.98206" height="11.2266" transform="rotate(14.4991 558.009 225.871)" fill="#FFC215"/>
</g>
<defs>
<clipPath id="clip0_1098_3351">
<rect width="650" height="400" fill="white" transform="translate(0 0.583313)"/>
</clipPath>
</defs>
</svg>
