<svg width="650" height="400" viewBox="0 0 650 400" fill="none" xmlns="http://www.w3.org/2000/svg">
<path d="M59.7577 70.0847C59.7577 69.3975 59.185 68.8248 58.3833 68.8248H20.4728C19.671 68.8248 19.0984 69.3975 19.0984 70.0847C19.0984 87.6083 38.9126 97 61.5902 97C90.2235 97 105.342 86.8066 105.342 70.4283C105.342 52.9047 90.2235 42.4822 61.4757 42.4822C58.4978 42.4822 58.2688 40.4206 58.2688 39.6188C58.2688 38.1299 59.7577 36.87 61.5902 36.87C63.3082 36.87 64.7972 37.9008 64.7972 39.5043C64.7972 40.5351 65.4844 41.1078 66.4006 41.1078H103.166C103.968 41.1078 104.54 40.5351 104.54 39.8479C104.54 22.6679 84.6114 13.5052 62.1629 13.5052C39.5998 13.5052 18.5257 24.9586 18.5257 41.1078C18.5257 58.7459 36.2784 66.9923 61.8193 67.1068C64.4536 67.1068 66.1716 68.3667 66.1716 70.4283C66.1716 71.9172 64.7972 73.1771 63.0792 73.1771C61.0176 73.1771 59.7577 72.1463 59.7577 70.0847Z" fill="#E9D9FF"/>
<path d="M112.056 13.5052C111.483 13.5052 111.025 13.9634 111.025 14.536V54.7372C111.025 55.3099 111.483 55.768 112.056 55.768H132.901V95.9692C132.901 96.5419 133.359 97 133.931 97H171.155C171.727 97 172.3 96.5419 172.3 95.9692V55.768H193.145C193.718 55.768 194.176 55.3099 194.176 54.7372V14.536C194.176 13.9634 193.718 13.5052 193.145 13.5052H112.056Z" fill="#E9D9FF"/>
<path d="M258.55 14.1924C258.435 13.7343 257.977 13.5052 257.519 13.5052H221.098C220.525 13.5052 220.181 13.7343 219.952 14.1924L191.892 95.5111C191.548 96.4274 192.006 97 192.922 97H230.489C231.291 97 231.635 96.5419 231.864 95.8547L234.04 89.3263H244.348L246.524 95.8547C246.753 96.5419 247.097 97 247.898 97H285.351C286.267 97 286.725 96.4274 286.382 95.5111L258.55 14.1924ZM242.744 84.5159H235.643L239.194 73.5207L242.744 84.5159Z" fill="#E9D9FF"/>
<path d="M293.938 13.5052C293.251 13.5052 292.793 13.8489 292.793 14.6506V95.8547C292.793 96.5419 293.251 97 293.938 97H331.734C332.421 97 332.879 96.5419 332.879 95.8547V68.4812H336.086L347.54 95.8547C347.883 96.5419 348.112 97 349.029 97H387.855C388.657 97 388.886 96.6564 388.428 95.6256L371.477 55.4244L388.428 14.8797C388.886 13.8489 388.657 13.5052 387.855 13.5052H349.143C348.227 13.5052 347.998 13.9634 347.654 14.6506L335.857 42.8258H332.879V14.6506C332.879 14.0779 332.421 13.5052 331.734 13.5052H293.938Z" fill="#E9D9FF"/>
<path d="M415.527 54.05C426.98 54.05 436.143 44.8874 436.143 33.5486C436.143 22.2098 426.98 13.5052 415.527 13.5052C404.188 13.5052 394.911 22.2098 394.911 33.5486C394.911 44.8874 404.188 54.05 415.527 54.05ZM396.629 56.4552C396.056 56.4552 395.483 57.0279 395.483 57.6006V95.8547C395.483 96.5419 396.056 97 396.629 97H434.425C434.997 97 435.57 96.5419 435.57 95.8547V57.6006C435.57 57.0279 434.997 56.4552 434.425 56.4552H396.629Z" fill="#E9D9FF"/>
<path d="M483.551 54.9663C483.551 54.7372 483.78 54.7372 483.78 54.9663L489.048 95.9692C489.163 96.4274 489.506 96.8855 489.965 97H527.531C528.104 97 528.677 96.5419 528.677 95.9692V14.6506C528.677 13.9634 528.104 13.5052 527.531 13.5052H490.308C489.735 13.5052 489.277 13.9634 489.277 14.6506V54.6227C489.277 54.8518 489.048 54.8518 489.048 54.6227L483.894 14.536C483.78 13.8489 483.322 13.5052 482.634 13.5052H445.182C444.609 13.5052 444.151 13.9634 444.151 14.6506V95.9692C444.151 96.5419 444.609 97 445.182 97H482.405C482.978 97 483.551 96.5419 483.551 95.9692V54.9663Z" fill="#E9D9FF"/>
<path d="M583.236 57.1424C582.892 57.1424 582.549 57.257 582.32 57.6006C581.403 59.0895 580.029 59.8912 578.425 59.8912C575.791 59.8912 573.73 57.8296 573.73 55.1954C573.73 52.6756 575.791 50.614 578.425 50.614C580.029 50.614 581.289 51.3012 582.32 52.7902C582.549 53.1338 582.892 53.3628 583.236 53.3628H619.199C620.23 53.3628 620.459 53.0192 620.345 51.9884C618.627 29.998 600.187 13.5052 578.425 13.5052C555.175 13.5052 536.163 32.0596 536.163 55.1954C536.163 78.4456 555.175 97 578.425 97C591.024 97 602.592 91.7315 610.266 82.6834H619.428C620.001 82.6834 620.459 82.1107 620.459 81.538V58.2878C620.459 57.7151 620.116 57.1424 619.543 57.1424H583.236Z" fill="#E9D9FF"/>
<path d="M168.241 107.698C167.987 106.684 166.973 106.177 165.959 106.177H85.3363C84.0687 106.177 83.3081 106.684 82.801 107.698L20.6862 287.704C19.9256 289.732 20.9397 291 22.968 291H106.126C107.901 291 108.661 289.986 109.168 288.465L113.985 274.014H136.803L141.62 288.465C142.127 289.986 142.888 291 144.662 291H227.567C229.595 291 230.609 289.732 229.848 287.704L168.241 107.698ZM133.254 263.365H117.535L125.394 239.026L133.254 263.365Z" fill="#E9D9FF"/>
<path d="M249.051 106.177C247.277 106.177 246.516 107.444 246.516 108.965V288.718C246.516 290.239 247.53 291 249.051 291H332.209C333.73 291 334.998 289.732 334.998 288.211V234.209H362.886C397.366 234.209 425.508 206.067 425.508 169.052C425.508 134.572 397.366 106.177 362.886 106.177H249.051ZM332.209 178.686V162.967H336.519C341.083 162.967 344.632 166.517 344.632 170.827C344.632 175.39 341.083 178.686 336.519 178.686H332.209Z" fill="#E9D9FF"/>
<path d="M441.922 106.177C440.148 106.177 439.387 107.444 439.387 108.965V288.718C439.387 290.239 440.401 291 441.922 291H525.08C526.601 291 527.869 289.732 527.869 288.211V234.209H555.757C590.237 234.209 618.379 206.067 618.379 169.052C618.379 134.572 590.237 106.177 555.757 106.177H441.922ZM525.08 178.686V162.967H529.39C533.954 162.967 537.503 166.517 537.503 170.827C537.503 175.39 533.954 178.686 529.39 178.686H525.08Z" fill="#E9D9FF"/>
<path d="M374.463 362.853L381.95 357.942H511.837L516.694 364.116V369.728L511.837 376.46H379.257L374.463 369.728V362.853Z" fill="#FFD850"/>
<rect x="376.362" y="373" width="138" height="6" fill="black"/>
<rect x="376.362" y="355" width="138" height="6" fill="black"/>
<rect x="514.362" y="361" width="6" height="12" fill="black"/>
<rect x="370.362" y="361" width="6" height="12" fill="black"/>
<path d="M336.262 362.853L328.774 357.942H198.888L194.03 364.116V369.728L198.888 376.46H331.467L336.262 369.728V362.853Z" fill="#FFD850"/>
<rect width="138" height="6" transform="matrix(-1 0 0 1 334.362 373)" fill="black"/>
<rect width="138" height="6" transform="matrix(-1 0 0 1 334.362 355)" fill="black"/>
<rect width="6" height="12" transform="matrix(-1 0 0 1 196.362 361)" fill="black"/>
<rect width="6" height="12" transform="matrix(-1 0 0 1 340.362 361)" fill="black"/>
<path d="M201.78 298.997L209.268 294.086H339.154L344.012 300.26V305.872L339.154 312.604H206.574L201.78 305.872V298.997Z" fill="#FFD850"/>
<rect x="203.679" y="309.144" width="138" height="6" fill="black"/>
<rect x="203.679" y="291.144" width="138" height="6" fill="black"/>
<rect x="341.679" y="297.144" width="6" height="12" fill="black"/>
<rect x="197.679" y="297.144" width="6" height="12" fill="black"/>
<path d="M342.262 341.795L334.774 336.884H204.888L200.03 343.058V348.67L204.888 355.402H337.467L342.262 348.67V341.795Z" fill="#FFD850"/>
<rect width="138" height="6" transform="matrix(-1 0 0 1 340.362 351.942)" fill="black"/>
<rect width="138" height="6" transform="matrix(-1 0 0 1 340.362 333.942)" fill="black"/>
<rect width="6" height="12" transform="matrix(-1 0 0 1 202.362 339.942)" fill="black"/>
<rect width="6" height="12" transform="matrix(-1 0 0 1 346.362 339.942)" fill="black"/>
<path d="M368.463 341.795L375.95 336.884H505.837L510.694 343.058V348.67L505.837 355.402H373.257L368.463 348.67V341.795Z" fill="#FFD850"/>
<rect x="370.362" y="351.942" width="138" height="6" fill="black"/>
<rect x="370.362" y="333.942" width="138" height="6" fill="black"/>
<rect x="508.362" y="339.942" width="6" height="12" fill="black"/>
<rect x="364.362" y="339.942" width="6" height="12" fill="black"/>
<path d="M330.403 320.055L322.916 315.144H193.029L188.172 321.318V326.93L193.029 333.663H325.609L330.403 326.93V320.055Z" fill="#FFD850"/>
<rect width="138" height="6" transform="matrix(-1 0 0 1 328.504 330.202)" fill="black"/>
<rect width="138" height="6" transform="matrix(-1 0 0 1 328.504 312.202)" fill="black"/>
<rect width="6" height="12" transform="matrix(-1 0 0 1 190.504 318.202)" fill="black"/>
<rect width="6" height="12" transform="matrix(-1 0 0 1 334.504 318.202)" fill="black"/>
<path d="M195.78 277.939L203.268 273.028H333.154L338.012 279.202V284.814L333.154 291.546H200.574L195.78 284.814V277.939Z" fill="#FFD850"/>
<rect x="197.679" y="288.086" width="138" height="6" fill="black"/>
<rect x="197.679" y="270.086" width="138" height="6" fill="black"/>
<rect x="335.679" y="276.086" width="6" height="12" fill="black"/>
<rect x="191.679" y="276.086" width="6" height="12" fill="black"/>
<path d="M378.564 320.055L386.051 315.144H515.938L520.795 321.318V326.93L515.938 333.663H383.358L378.564 326.93V320.055Z" fill="#FFD850"/>
<rect x="380.463" y="330.202" width="138" height="6" fill="black"/>
<rect x="380.463" y="312.202" width="138" height="6" fill="black"/>
<rect x="518.463" y="318.202" width="6" height="12" fill="black"/>
<rect x="374.463" y="318.202" width="6" height="12" fill="black"/>
<path d="M197.463 256.199L204.95 251.288H334.837L339.694 257.462V263.074L334.837 269.807H202.257L197.463 263.074V256.199Z" fill="#FFD850"/>
<rect x="199.362" y="266.346" width="138" height="6" fill="black"/>
<rect x="199.362" y="248.346" width="138" height="6" fill="black"/>
<rect x="337.362" y="254.346" width="6" height="12" fill="black"/>
<rect x="193.362" y="254.346" width="6" height="12" fill="black"/>
<path d="M190.927 235.304L193.746 243.803L160.331 369.317L153.115 372.423L147.692 370.979L142.436 364.553L176.544 236.436L184.283 233.535L190.927 235.304Z" fill="#FFD850"/>
<rect x="180.633" y="234.529" width="138" height="6" transform="rotate(104.908 180.633 234.529)" fill="black"/>
<rect x="198.027" y="239.159" width="138" height="6" transform="rotate(104.908 198.027 239.159)" fill="black"/>
<rect x="156.726" y="370.971" width="6" height="12" transform="rotate(104.908 156.726 370.971)" fill="black"/>
<rect x="193.772" y="231.818" width="6" height="12" transform="rotate(104.908 193.772 231.818)" fill="black"/>
<rect x="360" y="376" width="172.362" height="6" fill="black"/>
<rect width="175.638" height="6" transform="matrix(-1 0 0 1 354 376)" fill="black"/>
<rect x="128.679" y="376" width="42.4023" height="6" fill="black"/>
<path d="M295 93.7054L286.007 88.8278L245.116 87.3892L238.873 92.3384L232.477 93.0237L226.538 99.5718L219.99 106.044L214.279 112.668L209.33 117.237L207.045 126.129L202.249 131.171L203.162 163.683L207.426 168.861L208.644 176.627L215.04 182.262L219.076 187.82L226.614 194.216L230.649 199.774L237.654 201.373L243.441 205.561L285.243 205.104L298.644 200.384L304.355 193.759L311.36 187.059L317.07 180.129L321.563 176.627L322.857 168.129L327.426 163.759L328.187 132.129L323.238 126.129L322.553 120.129L315.928 111.831L308.542 105.282L304.355 99.1911L299.938 96.1288L295 93.7054Z" fill="#FFD850"/>
<rect x="241" y="84.1289" width="48" height="6.3" fill="black"/>
<rect width="48" height="6.3" transform="matrix(1 0 0 -1 241 210.129)" fill="black"/>
<rect x="307" y="103.029" width="6" height="6.3" fill="black"/>
<rect width="6" height="6.3" transform="matrix(-1 0 0 1 223 103.029)" fill="black"/>
<rect x="301" y="96.729" width="6" height="6.3" fill="black"/>
<rect width="6" height="6.3" transform="matrix(-1 0 0 1 229 96.729)" fill="black"/>
<rect x="313" y="109.329" width="6" height="6.3" fill="black"/>
<rect width="6" height="6.3" transform="matrix(-1 0 0 1 217 109.329)" fill="black"/>
<rect x="319" y="115.629" width="6" height="12.6" fill="black"/>
<rect width="6" height="12.6" transform="matrix(-1 0 0 1 211 115.629)" fill="black"/>
<rect width="6" height="6.3" transform="matrix(1 0 0 -1 307 191.229)" fill="black"/>
<rect x="289" y="90.429" width="12" height="6.3" fill="black"/>
<rect width="12" height="6.3" transform="matrix(-1 0 0 1 241 90.429)" fill="black"/>
<rect x="223" y="191.229" width="6" height="6.3" transform="rotate(-180 223 191.229)" fill="black"/>
<rect width="6" height="6.3" transform="matrix(1 0 0 -1 301 197.529)" fill="black"/>
<rect x="229" y="197.529" width="6" height="6.3" transform="rotate(-180 229 197.529)" fill="black"/>
<rect width="6" height="6.3" transform="matrix(1 0 0 -1 313 184.929)" fill="black"/>
<rect x="217" y="184.929" width="6" height="6.3" transform="rotate(-180 217 184.929)" fill="black"/>
<rect width="6" height="12.6" transform="matrix(1 0 0 -1 319 178.629)" fill="black"/>
<rect x="211" y="178.629" width="6" height="12.6" transform="rotate(-180 211 178.629)" fill="black"/>
<rect x="325" y="128.229" width="6" height="37.8" fill="black"/>
<rect x="199" y="128.229" width="6" height="37.8" fill="black"/>
<rect width="12" height="6.3" transform="matrix(1 0 0 -1 289 203.829)" fill="black"/>
<rect x="241" y="203.829" width="12" height="6.3" transform="rotate(-180 241 203.829)" fill="black"/>
<path d="M305.281 170.464H301.551V174.193H305.281V170.464Z" fill="#CF8934"/>
<path d="M301.551 141.571H286.707V126.703H290.412V122.998H286.707V119.268H245.854V122.998H242.125V126.703H238.42V130.408H234.715V134.137H230.986V137.842H227.281V148.981H230.986V145.276H249.559V152.711H253.264V160.121H256.994V167.555H260.699V174.989H264.428V145.276H279.272V152.711H275.567V160.121H271.838V167.555H268.133V174.989H264.428V178.694H260.699V182.424H264.428V186.129H268.133V182.424H271.838V178.694H275.567V174.989H279.272V171.284H283.002V167.555H286.707V163.85H290.412V160.121H294.141V156.416H297.846V152.711H301.551V148.981H305.281V137.842H301.551V141.571ZM279.272 141.571H253.264V137.842H249.559V122.998H264.428V126.703H268.133V130.408H271.838V134.137H275.567V137.842H279.272V141.571Z" fill="#CF8934"/>
<path d="M301.551 134.137H297.846V137.842H301.551V134.137Z" fill="#CF8934"/>
<path d="M297.846 130.408H294.141V134.137H297.846V130.408Z" fill="#CF8934"/>
<path d="M296.006 111.858H292.276V115.563H296.006V119.293H299.711V115.563H303.416V111.858H299.711V108.129H296.006V111.858Z" fill="#CF8934"/>
<path d="M294.141 126.703H290.412V130.408H294.141V126.703Z" fill="#CF8934"/>
<path d="M294.141 176.424H290.436V180.129H294.141V176.424Z" fill="#CF8934"/>
<path d="M286.705 103.029H283V106.734H286.705V103.029Z" fill="#CF8934"/>
<path d="M264.428 126.703H260.699V130.408H264.428V126.703Z" fill="#CF8934"/>
<path d="M274.086 109.969H270.357V113.698H274.086V109.969Z" fill="#CF8934"/>
<path d="M260.699 174.989H256.994V178.694H260.699V174.989Z" fill="#CF8934"/>
<path d="M260.699 130.408H256.994V134.137H260.699V130.408Z" fill="#CF8934"/>
<path d="M256.994 171.284H253.264V174.989H256.994V171.284Z" fill="#CF8934"/>
<path d="M256.994 134.137H253.264V137.842H256.994V134.137Z" fill="#CF8934"/>
<path d="M250.705 179.359H247V183.089H250.705V179.359Z" fill="#CF8934"/>
<path d="M253.264 167.555H249.559V171.284H253.264V167.555Z" fill="#CF8934"/>
<path d="M249.559 163.85H245.854V167.555H249.559V163.85Z" fill="#CF8934"/>
<path d="M245.854 160.12H242.125V163.85H245.854V160.12Z" fill="#CF8934"/>
<path d="M242.125 156.416H238.42V160.121H242.125V156.416Z" fill="#CF8934"/>
<path d="M233.59 173.789V177.519H229.861V181.224H233.59V184.929H237.295V181.224H241V177.519H237.295V173.789H233.59Z" fill="#CF8934"/>
<path d="M238.42 152.711H234.715V156.416H238.42V152.711Z" fill="#CF8934"/>
<path d="M234.715 148.981H230.986V152.71H234.715V148.981Z" fill="#CF8934"/>
<path d="M242.015 111.834H238.31V115.539H242.015V111.834Z" fill="#CF8934"/>
<path d="M238.31 115.539H234.605V119.268H238.31V115.539Z" fill="#CF8934"/>
<path d="M238.31 108.104H234.605V111.834H238.31V108.104Z" fill="#CF8934"/>
<path d="M234.605 111.834H230.875V115.539H234.605V111.834Z" fill="#CF8934"/>
<path d="M230.986 160.12H227.281V163.85H230.986V160.12Z" fill="#CF8934"/>
<path d="M459.915 310.833H436.582V305H430.748V316.667H465.748V305H459.915V310.833Z" fill="#231E2B"/>
<path d="M459.915 305H454.082V310.833H459.915V305Z" fill="#F5F38E"/>
<path d="M454.082 305H442.415V310.833H454.082V305Z" fill="#E2B436"/>
<path d="M442.415 305H436.582V310.833H442.415V305Z" fill="#F5F38E"/>
<path d="M448.248 299.166H442.415V305H454.082V293.333H448.248V299.166Z" fill="#F5F38E"/>
<path d="M448.248 293.333H442.415V299.166H448.248V293.333Z" fill="#E2B436"/>
<path d="M436.582 305H442.415V281.667H430.748V287.5H436.582V305Z" fill="#231E2B"/>
<path d="M454.082 281.667V305H459.915V287.5H465.748V281.667H454.082Z" fill="#231E2B"/>
<path d="M454.082 281.667H442.415V293.333H454.082V281.667Z" fill="#CF8934"/>
<path d="M477.415 275.833H465.748V281.667H477.415V275.833Z" fill="#231E2B"/>
<path d="M465.748 275.833H459.915V281.667H465.748V275.833Z" fill="#CF8934"/>
<path d="M454.082 275.833V270H459.915V246.667H424.915V270H430.748V275.833H436.582V281.667H459.915V275.833H454.082Z" fill="#E2B436"/>
<path d="M436.582 275.833H430.748V281.667H436.582V275.833Z" fill="#CF8934"/>
<path d="M430.749 275.833H419.082V281.667H430.749V275.833Z" fill="#231E2B"/>
<path d="M483.248 270H477.415V275.833H483.248V270Z" fill="#231E2B"/>
<path d="M477.415 270H465.748V275.833H477.415V270Z" fill="#CF8934"/>
<path d="M465.748 270H459.915V275.833H465.748V270Z" fill="#E2B436"/>
<path d="M459.915 270H454.082V275.833H459.915V270Z" fill="#F5F38E"/>
<path d="M430.749 270H419.082V275.833H430.749V270Z" fill="#CF8934"/>
<path d="M419.082 270H413.248V275.833H419.082V270Z" fill="#231E2B"/>
<path d="M483.248 264.167H477.415V270H483.248V264.167Z" fill="#CF8934"/>
<path d="M424.915 252.5H419.082V270H424.915V252.5Z" fill="#231E2B"/>
<path d="M419.082 264.167H413.248V270H419.082V264.167Z" fill="#CF8934"/>
<path d="M413.248 246.667H407.415V270H413.248V246.667Z" fill="#231E2B"/>
<path d="M489.082 246.667H483.248V270H489.082V246.667Z" fill="#231E2B"/>
<path d="M477.415 252.5H471.582V270H477.415V252.5Z" fill="#231E2B"/>
<path d="M419.082 252.5H413.248V264.167H419.082V252.5Z" fill="#E2B436"/>
<path d="M483.248 252.5H477.415V264.167H483.248V252.5Z" fill="#E2B436"/>
<path d="M483.248 246.667H477.415V252.5H483.248V246.667Z" fill="#F5F38E"/>
<path d="M477.415 246.667H471.582V252.5H477.415V246.667Z" fill="#CF8934"/>
<path d="M471.582 246.667H465.748V270H471.582V246.667Z" fill="#E2B436"/>
<path d="M424.915 246.667H419.082V252.5H424.915V246.667Z" fill="#CF8934"/>
<path d="M419.082 246.667H413.248V252.5H419.082V246.667Z" fill="#F5F38E"/>
<path d="M483.248 240.833H471.582V246.667H483.248V240.833Z" fill="#231E2B"/>
<path d="M459.915 246.667V270H465.748V246.667H471.582V240.833H424.915V246.667H459.915Z" fill="#F5F38E"/>
<path d="M424.915 240.833H413.248V246.667H424.915V240.833Z" fill="#231E2B"/>
<path d="M471.582 235H424.915V240.833H471.582V235Z" fill="#231E2B"/>
<path d="M190 93.8789H184V99.8789H190V93.8789Z" fill="#231E2B"/>
<path d="M190 87.8792H184V93.8791H190V87.8792Z" fill="#4FAB59"/>
<path d="M196 75.8787H190V93.8786H196V75.8787Z" fill="#231E2B"/>
<path d="M190 81.879H184V87.879H190V81.879Z" fill="#ACC756"/>
<path d="M184 75.8787H178V93.8786H184V75.8787Z" fill="#231E2B"/>
<path d="M202 69.8789H196V75.8789H202V69.8789Z" fill="#231E2B"/>
<path d="M196 69.8789H190V75.8789H196V69.8789Z" fill="#4FAB59"/>
<path d="M184 69.8789H178V75.8789H184V69.8789Z" fill="#4FAB59"/>
<path d="M178 69.8789H172V75.8789H178V69.8789Z" fill="#231E2B"/>
<path d="M190 57.8795H184V81.8792H190V57.8795Z" fill="#ACC756"/>
<path d="M184 51.8792H178V69.8791H184V51.8792Z" fill="#231E2B"/>
<path d="M196 51.8792H190V69.8791H196V51.8792Z" fill="#231E2B"/>
<path d="M190 51.8792H184V57.8791H190V51.8792Z" fill="#4FAB59"/>
<path d="M190 45.8795H184V51.8795H190V45.8795Z" fill="#231E2B"/>
<path d="M501.082 215.979H495.082V221.979H501.082V215.979Z" fill="#231E2B"/>
<path d="M507.082 209.979H501.082V215.979H507.082V209.979Z" fill="#231E2B"/>
<path d="M501.082 209.979H495.082V215.979H501.082V209.979Z" fill="#4FAB59"/>
<path d="M495.082 209.979H489.082V215.979H495.082V209.979Z" fill="#231E2B"/>
<path d="M513.082 203.979H507.082V209.979H513.082V203.979Z" fill="#231E2B"/>
<path d="M507.082 203.979H501.082V209.979H507.082V203.979Z" fill="#4FAB59"/>
<path d="M495.082 203.979H489.082V209.979H495.082V203.979Z" fill="#4FAB59"/>
<path d="M489.082 203.979H483.082V209.979H489.082V203.979Z" fill="#231E2B"/>
<path d="M507.082 197.979H501.082V203.979H507.082V197.979Z" fill="#231E2B"/>
<path d="M501.082 197.979H495.082V203.979H501.082V197.979Z" fill="#4FAB59"/>
<path d="M501.082 203.975H495.082V209.975H501.082V203.975Z" fill="#ACC756"/>
<path d="M495.082 197.979H489.082V203.979H495.082V197.979Z" fill="#231E2B"/>
<path d="M501.082 191.979H495.082V197.979H501.082V191.979Z" fill="#231E2B"/>
<path d="M159.679 150.416H153.679V156.416H159.679V150.416Z" fill="#231E2B"/>
<path d="M165.679 144.416H159.679V150.416H165.679V144.416Z" fill="#231E2B"/>
<path d="M159.679 144.416H153.679V150.416H159.679V144.416Z" fill="#4FAB59"/>
<path d="M153.679 144.416H147.679V150.416H153.679V144.416Z" fill="#231E2B"/>
<path d="M171.679 138.416H165.679V144.416H171.679V138.416Z" fill="#231E2B"/>
<path d="M165.679 138.416H159.679V144.416H165.679V138.416Z" fill="#4FAB59"/>
<path d="M153.679 138.416H147.679V144.416H153.679V138.416Z" fill="#4FAB59"/>
<path d="M147.679 138.416H141.679V144.416H147.679V138.416Z" fill="#231E2B"/>
<path d="M165.679 132.416H159.679V138.416H165.679V132.416Z" fill="#231E2B"/>
<path d="M159.679 132.416H153.679V138.416H159.679V132.416Z" fill="#4FAB59"/>
<path d="M159.679 138.412H153.679V144.412H159.679V138.412Z" fill="#ACC756"/>
<path d="M153.679 132.416H147.679V138.416H153.679V132.416Z" fill="#231E2B"/>
<path d="M159.679 126.416H153.679V132.416H159.679V126.416Z" fill="#231E2B"/>
<path d="M476.88 169H472.284V182.79H476.88V169Z" fill="#231E2B"/>
<path d="M467.687 173.596L467.687 178.193L481.477 178.193L481.477 173.596L467.687 173.596Z" fill="#231E2B"/>
</svg>
