<svg width="651" height="401" viewBox="0 0 651 401" fill="none" xmlns="http://www.w3.org/2000/svg">
<g clip-path="url(#clip0_105_6)">
<rect width="152.011" height="72.5011" transform="matrix(-1.69113e-08 -1 -1 1.12983e-07 369.701 429.473)" fill="#B5DC3A"/>
<rect width="151.813" height="72.5011" transform="matrix(-1.65359e-08 -1 -1 1.15548e-07 566.009 429.473)" fill="#B5DC3A"/>
<rect width="125.721" height="77.5625" transform="matrix(1 2.71755e-08 -7.18361e-08 -1 369.701 353.245)" fill="#B5DC3A"/>
<rect width="78.1033" height="8.45256" transform="matrix(-1.69113e-08 -1 -1 1.12983e-07 378.153 429.473)" fill="#4FAB59"/>
<rect width="160.712" height="16.3219" transform="matrix(-1.69113e-08 -1 -1 1.12983e-07 299.177 429.473)" fill="#4FAB59"/>
<rect width="162.511" height="8.45256" transform="matrix(-1.65359e-08 -1 -1 1.15548e-07 574.461 429.473)" fill="#4FAB59"/>
<rect width="76.2282" height="16.3219" transform="matrix(-1.65359e-08 -1 -1 1.15548e-07 495.485 429.473)" fill="#4FAB59"/>
<rect width="115.979" height="8.45256" transform="matrix(1 2.71755e-08 -7.18361e-08 -1 374.073 356.636)" fill="#4FAB59"/>
<rect width="276.207" height="16.3219" transform="matrix(1 2.71755e-08 -7.18361e-08 -1 289.801 277.659)" fill="#4FAB59"/>
<rect width="10.2636" height="5.47843" transform="matrix(-3.61508e-08 -1 -1 5.28532e-08 560.932 378.341)" fill="white"/>
<rect width="10.2636" height="5.47843" transform="matrix(-3.61508e-08 -1 -1 5.28532e-08 361.405 387.901)" fill="white"/>
<rect width="21.117" height="5.47843" transform="matrix(-3.61508e-08 -1 -1 5.28532e-08 560.932 315.844)" fill="white"/>
<rect width="35.3435" height="5.47843" transform="matrix(-3.61508e-08 -1 -1 5.28532e-08 560.932 423.244)" fill="white"/>
<rect width="34.8583" height="5.47843" transform="matrix(-3.61508e-08 -1 -1 5.28532e-08 560.932 358.518)" fill="white"/>
<rect width="5.05534" height="5.47843" transform="matrix(-3.61508e-08 -1 -1 5.28532e-08 560.932 289.805)" fill="white"/>
<rect width="35.3435" height="5.47843" transform="matrix(-3.61508e-08 -1 -1 5.28532e-08 361.405 429.473)" fill="white"/>
<rect width="23.4445" height="5.47843" transform="matrix(-3.61508e-08 -1 -1 5.28532e-08 361.405 370.674)" fill="white"/>
<rect width="10.2636" height="5.47843" transform="matrix(-1 7.98622e-08 9.65646e-08 1 504.379 284.539)" fill="white"/>
<rect width="21.117" height="5.47843" transform="matrix(-1 7.98622e-08 9.65646e-08 1 440.138 284.539)" fill="white"/>
<rect width="5.05534" height="5.47843" transform="matrix(-1 7.98622e-08 9.65646e-08 1 414.099 284.539)" fill="white"/>
<rect width="35.3435" height="5.47843" transform="matrix(-1 7.98622e-08 9.65646e-08 1 549.282 284.539)" fill="white"/>
<rect width="34.8583" height="5.47843" transform="matrix(-1 7.98622e-08 9.65646e-08 1 484.556 284.539)" fill="white"/>
<rect width="10.2636" height="5.47843" transform="matrix(-1 7.98622e-08 9.65646e-08 1 358.666 284.539)" fill="white"/>
<rect width="35.3435" height="5.47843" transform="matrix(-1 7.98622e-08 9.65646e-08 1 403.569 284.539)" fill="white"/>
<rect width="34.8583" height="5.47843" transform="matrix(-1 7.98622e-08 9.65646e-08 1 341.459 284.539)" fill="white"/>
<rect width="5.93429" height="160.712" transform="matrix(1 0 0 -1 276.921 429.473)" fill="black"/>
<rect width="5.93429" height="72.8369" transform="matrix(1 0 0 -1 378.153 429.473)" fill="black"/>
<rect width="5.93429" height="72.8369" transform="matrix(1 0 0 -1 473.229 429.473)" fill="black"/>
<rect width="5.93429" height="95.3508" transform="matrix(-4.37114e-08 -1 -1 4.37114e-08 476.471 362.57)" fill="black"/>
<rect width="5.93429" height="276.664" transform="matrix(-4.37114e-08 -1 -1 4.37114e-08 566.009 261.357)" fill="black"/>
<rect width="5.93429" height="162.511" transform="matrix(1 0 0 -1 574.461 429.473)" fill="black"/>
<rect width="6.94623" height="7.42345" transform="matrix(1 0 0 -1 282.855 268.761)" fill="black"/>
<rect width="8.45263" height="5.62416" transform="matrix(1 0 0 -1 566.009 266.962)" fill="black"/>
<rect x="487.684" y="296.035" width="11.2761" height="28.0142" transform="rotate(90 487.684 296.035)" fill="#CCF34E"/>
<rect x="462.092" y="302.117" width="15.3177" height="2.75773" fill="#4FAB59"/>
<rect x="478.852" y="302.117" width="2.90821" height="2.75773" fill="#4FAB59"/>
<path d="M488.942 309.184L488.942 295.051L457.839 295.051L457.839 309.184L488.942 309.184ZM460.677 297.889L486.104 297.889L486.104 306.365L460.677 306.365L460.677 297.889Z" fill="#4FAB59"/>
<rect x="451.888" y="296.035" width="11.2761" height="11.3017" transform="rotate(90 451.888 296.035)" fill="#CCF34E"/>
<path d="M453.146 309.184L453.146 295.051L438.911 295.051L438.911 309.184L453.146 309.184ZM441.748 297.889L450.308 297.889L450.308 306.365L441.748 306.365L441.748 297.889Z" fill="#4FAB59"/>
<rect x="497.376" y="297.725" width="49.3515" height="49.3687" fill="#CCF34E"/>
<path d="M549.319 300.333H546.728V344.485H549.319V300.333Z" fill="#4FAB59"/>
<path d="M546.728 344.485H544.12V347.093H546.728V344.485Z" fill="#4FAB59"/>
<path d="M546.728 297.725H544.12V300.333H546.728V297.725Z" fill="#4FAB59"/>
<path d="M544.12 339.285H541.528V341.894H544.12V339.285Z" fill="#4FAB59"/>
<path d="M544.12 302.924H541.528V305.515H544.12V302.924Z" fill="#4FAB59"/>
<path d="M544.119 347.093H499.967V349.684H544.119V347.093Z" fill="#4FAB59"/>
<path d="M533.738 305.515H528.538V302.924H525.947V300.333H507.758V302.924H520.748V305.515H507.758V302.924H505.167V310.715H507.758V308.123H525.947V310.715H528.538V313.323H531.147V315.914H533.738V318.505H515.548V315.914H512.957V336.694H515.548V321.113H533.738V336.694H536.329V308.123H533.738V305.515Z" fill="#4FAB59"/>
<path d="M533.738 336.695H515.548V339.286H533.738V336.695Z" fill="#4FAB59"/>
<path d="M531.147 328.904H528.538V331.495H531.147V328.904Z" fill="#4FAB59"/>
<path d="M531.147 323.704H528.538V326.296H531.147V323.704Z" fill="#4FAB59"/>
<path d="M528.538 331.495H520.748V334.103H528.538V331.495Z" fill="#4FAB59"/>
<path d="M520.748 328.904H518.157V331.495H520.748V328.904Z" fill="#4FAB59"/>
<path d="M520.748 323.704H518.157V326.296H520.748V323.704Z" fill="#4FAB59"/>
<path d="M512.957 313.323H510.366V315.914H512.957V313.323Z" fill="#4FAB59"/>
<path d="M510.366 310.715H507.758V313.323H510.366V310.715Z" fill="#4FAB59"/>
<path d="M544.119 295.133H499.967V297.724H544.119V295.133Z" fill="#4FAB59"/>
<path d="M502.558 339.285H499.967V341.894H502.558V339.285Z" fill="#4FAB59"/>
<path d="M502.558 302.924H499.967V305.515H502.558V302.924Z" fill="#4FAB59"/>
<path d="M499.967 344.485H497.376V347.093H499.967V344.485Z" fill="#4FAB59"/>
<path d="M499.967 297.725H497.376V300.333H499.967V297.725Z" fill="#4FAB59"/>
<path d="M497.376 300.333H494.768V344.485H497.376V300.333Z" fill="#4FAB59"/>
<path d="M63.3657 76.0646C63.3657 75.2719 62.7051 74.6114 61.7804 74.6114H18.0528C17.128 74.6114 16.4675 75.2719 16.4675 76.0646C16.4675 96.277 39.3221 107.11 65.4794 107.11C98.5063 107.11 115.945 95.3523 115.945 76.4609C115.945 56.2484 98.5063 44.2266 65.3473 44.2266C61.9125 44.2266 61.6483 41.8487 61.6483 40.9239C61.6483 39.2065 63.3657 37.7534 65.4794 37.7534C67.461 37.7534 69.1784 38.9423 69.1784 40.7918C69.1784 41.9808 69.9711 42.6413 71.0279 42.6413H113.434C114.359 42.6413 115.02 41.9808 115.02 41.1882C115.02 21.372 92.033 10.8034 66.1399 10.8034C40.1147 10.8034 15.8069 24.0142 15.8069 42.6413C15.8069 62.9859 36.2836 72.4977 65.7436 72.6298C68.7821 72.6298 70.7637 74.083 70.7637 76.4609C70.7637 78.1783 69.1784 79.6315 67.1968 79.6315C64.8189 79.6315 63.3657 78.4425 63.3657 76.0646ZM119.065 10.8034C118.404 10.8034 117.876 11.3318 117.876 11.9924V58.3621C117.876 59.0227 118.404 59.5511 119.065 59.5511H143.108V105.921C143.108 106.581 143.637 107.11 144.297 107.11H187.232C187.893 107.11 188.553 106.581 188.553 105.921V59.5511H212.597C213.257 59.5511 213.786 59.0227 213.786 58.3621V11.9924C213.786 11.3318 213.257 10.8034 212.597 10.8034H119.065ZM279.492 11.596C279.36 11.0676 278.831 10.8034 278.303 10.8034H236.292C235.632 10.8034 235.236 11.0676 234.971 11.596L202.605 105.392C202.209 106.449 202.737 107.11 203.794 107.11H247.125C248.05 107.11 248.446 106.581 248.711 105.789L251.221 98.2587H263.11L265.62 105.789C265.885 106.581 266.281 107.11 267.206 107.11H310.405C311.462 107.11 311.99 106.449 311.594 105.392L279.492 11.596ZM261.261 92.7101H253.07L257.165 80.0278L261.261 92.7101ZM300.362 10.8034C299.701 10.8034 299.173 11.3318 299.173 11.9924V58.3621C299.173 59.0227 299.701 59.5511 300.362 59.5511H324.405V105.921C324.405 106.581 324.934 107.11 325.594 107.11H368.529C369.19 107.11 369.85 106.581 369.85 105.921V59.5511H393.894C394.554 59.5511 395.083 59.0227 395.083 58.3621V11.9924C395.083 11.3318 394.554 10.8034 393.894 10.8034H300.362ZM401.076 10.8034C400.283 10.8034 399.755 11.4639 399.755 12.1245V105.921C399.755 106.581 400.283 107.11 401.076 107.11H492.759C493.551 107.11 494.08 106.714 494.08 105.789V79.4994C494.08 78.7067 493.551 78.3104 492.759 78.3104H444.143V73.5545H475.453C476.245 73.5545 476.642 73.1582 476.642 72.2335V45.8119C476.642 44.8872 476.245 44.4908 475.453 44.4908H444.143V39.735H492.759C493.551 39.735 494.08 39.3387 494.08 38.4139V12.1245C494.08 11.1997 493.551 10.8034 492.759 10.8034H401.076Z" fill="#E9D9FF"/>
<path d="M73.8851 143.998C73.8851 129.807 60.8206 118.545 46.6298 118.545C31.5381 118.545 19.2245 130.858 19.2245 145.95C19.2245 161.042 31.5381 173.281 46.6298 173.281C60.8957 173.281 73.8851 162.093 73.8851 147.902C73.8851 147.527 73.5847 147.152 73.1342 147.152H49.7833C49.5581 147.152 49.3328 147.227 49.1827 147.452C48.582 148.353 47.681 148.954 46.6298 148.954C44.978 148.954 43.6265 147.602 43.6265 145.95C43.6265 144.298 44.978 142.947 46.6298 142.947C47.681 142.947 48.582 143.472 49.1827 144.373C49.3328 144.599 49.5581 144.749 49.7833 144.749H73.1342C73.5847 144.749 73.8851 144.373 73.8851 143.998ZM133.075 119.296C133.075 118.92 132.774 118.545 132.399 118.545H107.546C107.171 118.545 106.796 118.92 106.796 119.296V138.142H103.567V119.296C103.567 118.92 103.267 118.545 102.816 118.545H77.9636C77.5882 118.545 77.2879 118.92 77.2879 119.296V172.53C77.2879 172.98 77.5882 173.281 77.9636 173.281H102.816C103.267 173.281 103.567 172.98 103.567 172.53V154.96H106.796V172.53C106.796 172.98 107.171 173.281 107.546 173.281H132.399C132.774 173.281 133.075 172.98 133.075 172.53V119.296ZM180.17 118.995C180.095 118.695 179.795 118.545 179.494 118.545H155.618C155.242 118.545 155.017 118.695 154.867 118.995L136.472 172.304C136.246 172.905 136.547 173.281 137.147 173.281H161.775C162.3 173.281 162.526 172.98 162.676 172.53L164.102 168.25H170.86L172.286 172.53C172.437 172.98 172.662 173.281 173.187 173.281H197.74C198.34 173.281 198.641 172.905 198.415 172.304L180.17 118.995ZM169.809 165.096H165.153L167.481 157.888L169.809 165.096ZM227.696 145.725C227.696 145.575 227.846 145.575 227.846 145.725L231.3 172.605C231.375 172.905 231.6 173.205 231.901 173.281H256.528C256.903 173.281 257.279 172.98 257.279 172.605V119.296C257.279 118.845 256.903 118.545 256.528 118.545H232.126C231.751 118.545 231.45 118.845 231.45 119.296V145.5C231.45 145.65 231.3 145.65 231.3 145.5L227.921 119.221C227.846 118.77 227.546 118.545 227.095 118.545H202.543C202.168 118.545 201.867 118.845 201.867 119.296V172.605C201.867 172.98 202.168 173.281 202.543 173.281H226.945C227.321 173.281 227.696 172.98 227.696 172.605V145.725ZM287.639 145.725C287.639 145.575 287.79 145.575 287.79 145.725L291.243 172.605C291.318 172.905 291.544 173.205 291.844 173.281H316.471C316.847 173.281 317.222 172.98 317.222 172.605V119.296C317.222 118.845 316.847 118.545 316.471 118.545H292.069C291.694 118.545 291.394 118.845 291.394 119.296V145.5C291.394 145.65 291.243 145.65 291.243 145.5L287.865 119.221C287.79 118.77 287.489 118.545 287.039 118.545H262.487C262.111 118.545 261.811 118.845 261.811 119.296V172.605C261.811 172.98 262.111 173.281 262.487 173.281H286.889C287.264 173.281 287.639 172.98 287.639 172.605V145.725ZM322.505 118.545C322.055 118.545 321.754 118.92 321.754 119.296V172.605C321.754 172.98 322.055 173.281 322.505 173.281H374.613C375.063 173.281 375.364 173.055 375.364 172.53V157.588C375.364 157.138 375.063 156.912 374.613 156.912H346.982V154.209H364.777C365.227 154.209 365.453 153.984 365.453 153.459V138.442C365.453 137.916 365.227 137.691 364.777 137.691H346.982V134.988H374.613C375.063 134.988 375.364 134.763 375.364 134.237V119.296C375.364 118.77 375.063 118.545 374.613 118.545H322.505ZM378.014 172.605C378.014 172.98 378.314 173.281 378.69 173.281H431.999C432.374 173.281 432.75 172.98 432.75 172.605V157.288C432.75 156.912 432.374 156.612 431.999 156.612H403.767V119.221C403.767 118.845 403.392 118.545 403.017 118.545H378.69C378.314 118.545 378.014 118.845 378.014 119.221V172.605ZM462.045 155.636C462.045 155.185 461.67 154.81 461.144 154.81H436.292C435.766 154.81 435.391 155.185 435.391 155.636C435.391 167.124 448.38 173.281 463.247 173.281C482.018 173.281 491.929 166.598 491.929 155.861C491.929 144.373 482.018 137.541 463.172 137.541C461.22 137.541 461.069 136.189 461.069 135.664C461.069 134.688 462.045 133.862 463.247 133.862C464.373 133.862 465.349 134.538 465.349 135.589C465.349 136.264 465.8 136.64 466.4 136.64H490.502C491.028 136.64 491.403 136.264 491.403 135.814C491.403 124.551 478.339 118.545 463.622 118.545C448.831 118.545 435.015 126.053 435.015 136.64C435.015 148.203 446.653 153.609 463.397 153.684C465.124 153.684 466.25 154.51 466.25 155.861C466.25 156.837 465.349 157.663 464.223 157.663C462.871 157.663 462.045 156.987 462.045 155.636Z" fill="#E9D9FF"/>
<rect x="123.062" y="205.475" width="50.1282" height="106.06" fill="#B5DC3A"/>
<rect x="-58.676" y="215.261" width="172.868" height="83.9478" fill="#B5DC3A"/>
<rect x="128.309" y="191.233" width="51.2193" height="14.2413" fill="#4FAB59"/>
<rect x="123.062" y="195.98" width="5.24685" height="14.3646" fill="#4FAB59"/>
<rect width="51.2193" height="14.2413" transform="matrix(1 0 0 -1 128.309 325.775)" fill="#4FAB59"/>
<rect width="5.24685" height="19.1116" transform="matrix(1 0 0 -1 123.062 325.775)" fill="#4FAB59"/>
<rect x="117.149" y="205.475" width="5.91335" height="106.06" fill="#4FAB59"/>
<rect x="111.236" y="205.475" width="5.91335" height="110.344" fill="#4FAB59"/>
<rect x="-58.676" y="205.475" width="175.825" height="9.78707" fill="#4FAB59"/>
<rect x="-58.676" y="296.92" width="175.825" height="18.8988" fill="#4FAB59"/>
<rect x="13.0613" y="224.489" width="9.82854" height="4.94989" fill="white"/>
<rect x="147.156" y="215.261" width="14.2346" height="4.94989" fill="white"/>
<rect x="74.5789" y="224.489" width="20.2218" height="4.94989" fill="white"/>
<rect x="99.5134" y="224.489" width="4.84103" height="4.94989" fill="white"/>
<rect x="137.875" y="215.261" width="4.84103" height="4.94989" fill="white"/>
<rect x="-29.9386" y="224.489" width="33.8453" height="4.94989" fill="white"/>
<rect x="32.0438" y="224.489" width="33.3806" height="4.94989" fill="white"/>
<rect x="171.283" y="195.98" width="24.2355" height="124.675" fill="#5CCF69"/>
<rect x="176.03" y="191.233" width="14.7412" height="134.542" fill="#5CCF69"/>
<rect x="188.273" y="209.722" width="12.2427" height="96.9417" fill="#5CCF69"/>
<rect x="181.028" y="200.727" width="9.74417" height="115.181" fill="black"/>
<rect x="176.03" y="219.716" width="19.4883" height="77.2037" fill="black"/>
<rect x="130.748" y="264.242" width="13.2113" height="32.8221" fill="#CCF34E"/>
<path d="M146.154 262.769L129.596 262.769L129.596 299.209L146.154 299.209L146.154 262.769ZM132.92 295.885L132.92 266.093L142.851 266.093L142.851 295.885L132.92 295.885Z" fill="#4FAB59"/>
<rect x="98.6141" y="243.893" width="43.2668" height="63.2504" transform="rotate(90 98.6141 243.893)" fill="#CCF34E"/>
<path d="M95.2727 290.479L95.2727 287.159L38.7051 287.159L38.7051 290.479L95.2727 290.479Z" fill="#4FAB59"/>
<path d="M38.7051 287.159L38.7051 283.839L35.3634 283.839L35.3634 287.159L38.7051 287.159Z" fill="#4FAB59"/>
<path d="M98.6141 287.159L98.6141 283.839L95.2725 283.839L95.2725 287.159L98.6141 287.159Z" fill="#4FAB59"/>
<path d="M48.6859 283.84L48.6859 260.535L38.7047 260.535L38.7047 283.839L48.6859 283.84Z" fill="#4FAB59"/>
<path d="M35.3636 283.839L35.3636 247.212L32.0438 247.212L32.0438 283.839L35.3636 283.839Z" fill="#4FAB59"/>
<path d="M61.9877 283.839L61.9877 273.858L52.0064 273.858L52.0064 283.839L61.9877 283.839ZM55.3481 280.498L55.3481 277.178L58.6679 277.178L58.6679 280.498L55.3481 280.498Z" fill="#4FAB59"/>
<path d="M75.3101 283.839L75.3101 273.858L65.3288 273.858L65.3288 283.839L75.3101 283.839ZM68.6486 280.498L68.6486 277.178L71.9903 277.178L71.9903 280.498L68.6486 280.498Z" fill="#4FAB59"/>
<path d="M95.2727 247.212L78.63 247.212L78.63 283.839L95.2727 283.839L95.2727 247.212ZM81.9717 280.498L81.9717 250.554L91.9529 250.554L91.9529 280.498L81.9717 280.498Z" fill="#4FAB59"/>
<path d="M88.6112 277.178L88.6112 273.858L85.2914 273.858L85.2914 277.178L88.6112 277.178Z" fill="#4FAB59"/>
<path d="M88.6112 270.517L88.6112 267.197L85.2914 267.197L85.2914 270.517L88.6112 270.517Z" fill="#4FAB59"/>
<path d="M61.9877 270.517L61.9877 260.535L52.0064 260.535L52.0064 270.517L61.9877 270.517ZM55.3481 267.197L55.3481 263.855L58.6679 263.855L58.6679 267.197L55.3481 267.197Z" fill="#4FAB59"/>
<path d="M75.3101 270.517L75.3101 260.535L65.3288 260.535L65.3288 270.517L75.3101 270.517ZM68.6486 267.197L68.6486 263.855L71.9903 263.855L71.9903 267.197L68.6486 267.197Z" fill="#4FAB59"/>
<path d="M38.7047 257.226L48.6859 257.226L48.6859 247.212L38.7047 247.212L38.7047 257.226ZM45.3443 250.565L45.3443 253.885L42.0245 253.885L42.0245 250.554L45.3443 250.565Z" fill="#4FAB59"/>
<path d="M61.9877 257.226L61.9877 247.212L52.0064 247.212L52.0064 257.226L61.9877 257.226ZM55.3481 253.885L55.3481 250.554L58.6679 250.554L58.6679 253.874L55.3481 253.885Z" fill="#4FAB59"/>
<path d="M75.3101 257.226L75.3101 247.212L65.3288 247.212L65.3288 257.226L75.3101 257.226ZM68.6486 253.885L68.6486 250.554L71.9903 250.554L71.9903 253.874L68.6486 253.885Z" fill="#4FAB59"/>
<path d="M101.934 283.839L101.934 247.212L98.6142 247.212L98.6142 283.839L101.934 283.839Z" fill="#4FAB59"/>
<path d="M38.7051 247.213L38.7051 243.893L35.3634 243.893L35.3634 247.213L38.7051 247.213Z" fill="#4FAB59"/>
<path d="M98.6141 247.213L98.6141 243.893L95.2725 243.893L95.2725 247.213L98.6141 247.213Z" fill="#4FAB59"/>
<path d="M95.2727 243.893L95.2727 240.573L38.7051 240.573L38.7051 243.893L95.2727 243.893Z" fill="#4FAB59"/>
<rect x="-58.676" y="200.727" width="181.738" height="5.13856" fill="black"/>
<rect x="118.214" y="195.888" width="4.84847" height="7.40851" fill="black"/>
<rect x="128.309" y="191.04" width="4.84847" height="5.24688" transform="rotate(90 128.309 191.04)" fill="black"/>
<rect x="190.772" y="186.385" width="4.84847" height="62.9415" transform="rotate(90 190.772 186.385)" fill="black"/>
<rect width="181.738" height="5.13856" transform="matrix(1 0 0 -1 -58.676 316.053)" fill="black"/>
<rect width="4.84847" height="7.40851" transform="matrix(1 0 0 -1 118.214 320.893)" fill="black"/>
<rect width="4.84847" height="5.24688" transform="matrix(-4.37114e-08 -1 -1 4.37114e-08 128.309 325.741)" fill="black"/>
<rect width="4.84847" height="62.9415" transform="matrix(-4.37114e-08 -1 -1 4.37114e-08 190.772 330.396)" fill="black"/>
<rect x="195.519" y="195.98" width="4.99709" height="13.7417" fill="black"/>
<rect x="195.519" y="306.664" width="4.99709" height="13.9919" fill="black"/>
<rect x="171.033" y="320.655" width="4.99709" height="9.52171" fill="black"/>
<rect x="190.772" y="320.655" width="4.99709" height="4.8921" fill="black"/>
<rect x="190.772" y="191.233" width="4.99709" height="4.8921" fill="black"/>
<rect x="171.283" y="191.233" width="4.99709" height="4.8921" fill="black"/>
<rect x="200.516" y="209.722" width="4.99709" height="96.9416" fill="black"/>
<rect x="166.286" y="196.125" width="4.99709" height="124.53" fill="black"/>
<rect x="118.065" y="204.48" width="4.99709" height="107.821" fill="black"/>
<mask id="mask0_105_6" style="mask-type:alpha" maskUnits="userSpaceOnUse" x="176" y="198" width="119" height="116">
<rect x="181.028" y="198.716" width="113.893" height="115.181" fill="black"/>
<rect x="176.03" y="217.704" width="19.4883" height="77.2037" fill="black"/>
</mask>
<g mask="url(#mask0_105_6)">
<path d="M228.462 304.595H198.087V312.265H228.462V304.595Z" fill="#231E2B"/>
<path d="M243.65 296.925H228.462V304.595H243.65V296.925Z" fill="#231E2B"/>
<path d="M198.087 296.925H182.9V304.595H198.087V296.925Z" fill="#231E2B"/>
<path d="M251.244 289.254H243.65V296.924H251.244V289.254Z" fill="#231E2B"/>
<path d="M213.275 289.254H198.087V296.924H213.275V289.254Z" fill="#F5F38E"/>
<path d="M190.493 289.254V281.584H182.9V243.231H190.493V235.561H198.087V227.89H228.462V220.22H213.275V212.549H198.087V220.22H182.9V227.89H175.306V243.231H167.712V273.913H175.306V289.254H182.9V296.925H198.087V289.254H190.493Z" fill="#E2B436"/>
<path d="M182.9 289.254H175.306V296.924H182.9V289.254Z" fill="#231E2B"/>
<path d="M198.087 281.583H190.493V289.254H198.087V281.583Z" fill="#F5F38E"/>
<path d="M258.837 273.913H251.244V289.254H258.837V273.913Z" fill="#231E2B"/>
<path d="M213.275 273.913H205.681V281.584H213.275V273.913Z" fill="#C2751D"/>
<path d="M190.493 273.913H182.9V281.584H190.493V273.913Z" fill="#F5F38E"/>
<path d="M205.681 266.242H198.087V273.913H205.681V266.242Z" fill="#C2751D"/>
<path d="M266.431 243.231H258.838V273.913H266.431V243.231Z" fill="#231E2B"/>
<path d="M228.462 250.902H220.869V258.572H228.462V250.902Z" fill="#F5F38E"/>
<path d="M243.65 243.231H236.056V250.902H243.65V243.231Z" fill="#C2751D"/>
<path d="M220.869 243.231H213.275V250.902H220.869V243.231Z" fill="#F5F38E"/>
<path d="M213.275 243.231H205.681V250.902H198.087V266.243H205.681V273.913H220.868V266.243H228.462V258.572H220.868V250.902H213.275V243.231Z" fill="#E2B436"/>
<path d="M251.244 235.56H243.65V227.89H228.462V235.56H236.056V243.231H243.65V273.913H236.056V281.583H228.462V289.254H213.275V296.924H198.087V304.595H228.462V296.924H243.65V289.254H251.244V273.913H258.837V243.231H251.244V235.56Z" fill="#E2B436"/>
<path d="M236.056 235.561H228.462V243.231H236.056V235.561Z" fill="#C2751D"/>
<path d="M213.275 235.56V227.89H198.087V235.56H190.493V243.231H182.9V273.913H190.493V281.583H198.087V289.254H228.462V281.583H236.056V273.913H243.65V250.901H236.056V243.231H228.462V235.56H213.275ZM228.462 250.901V266.242H220.869V273.913H213.275V281.583H205.681V273.913H198.087V250.901H205.681V243.231H220.869V250.901H228.462Z" fill="#CF8934"/>
<path d="M258.837 227.89H251.244V243.231H258.837V227.89Z" fill="#231E2B"/>
<path d="M251.244 227.89H243.65V235.56H251.244V227.89Z" fill="#F5F38E"/>
<path d="M228.462 227.89H213.275V235.56H228.462V227.89Z" fill="#C2751D"/>
<path d="M251.244 220.219H243.65V227.89H251.244V220.219Z" fill="#231E2B"/>
<path d="M243.65 220.219H228.462V227.89H243.65V220.219Z" fill="#F5F38E"/>
<path d="M182.9 220.219H175.306V227.89H182.9V220.219Z" fill="#231E2B"/>
<path d="M243.65 212.549H228.462V220.22H243.65V212.549Z" fill="#231E2B"/>
<path d="M228.462 212.549H213.275V220.22H228.462V212.549Z" fill="#F5F38E"/>
<path d="M198.087 212.549H182.9V220.22H198.087V212.549Z" fill="#231E2B"/>
<path d="M228.462 204.878H198.087V212.549H228.462V204.878Z" fill="#231E2B"/>
</g>
<rect x="619.127" y="163.641" width="46.7258" height="98.8609" transform="rotate(90 619.127 163.641)" fill="#B5DC3A"/>
<rect x="610.004" y="-62.2224" width="214.84" height="78.25" transform="rotate(90 610.004 -62.2224)" fill="#B5DC3A"/>
<rect x="632.401" y="168.531" width="47.7428" height="13.2747" transform="rotate(90 632.401 168.531)" fill="#4FAB59"/>
<rect x="627.977" y="163.641" width="4.89073" height="13.3896" transform="rotate(90 627.977 163.641)" fill="#4FAB59"/>
<rect width="47.7428" height="13.2747" transform="matrix(-4.37114e-08 1 1 4.37114e-08 506.991 168.531)" fill="#4FAB59"/>
<rect width="4.89073" height="17.8144" transform="matrix(-4.37114e-08 1 1 4.37114e-08 506.991 163.641)" fill="#4FAB59"/>
<rect x="619.127" y="158.129" width="5.51199" height="98.8609" transform="rotate(90 619.127 158.129)" fill="#4FAB59"/>
<rect x="619.127" y="152.617" width="5.51199" height="102.855" transform="rotate(90 619.127 152.617)" fill="#4FAB59"/>
<rect x="619.127" y="-62.2224" width="218.514" height="9.12279" transform="rotate(90 619.127 -62.2224)" fill="#4FAB59"/>
<rect x="533.888" y="-62.2224" width="218.514" height="17.6161" transform="rotate(90 533.888 -62.2224)" fill="#4FAB59"/>
<rect x="601.403" y="7.55249" width="9.16143" height="4.61392" transform="rotate(90 601.403 7.55249)" fill="white"/>
<rect x="601.403" y="61.106" width="9.16143" height="4.61392" transform="rotate(90 601.403 61.106)" fill="white"/>
<rect x="610.004" y="186.099" width="13.2684" height="4.61392" transform="rotate(90 610.004 186.099)" fill="white"/>
<rect x="601.403" y="118.448" width="18.8493" height="4.61392" transform="rotate(90 601.403 118.448)" fill="white"/>
<rect x="601.403" y="141.69" width="4.51245" height="4.61392" transform="rotate(90 601.403 141.69)" fill="white"/>
<rect x="610.004" y="177.448" width="4.51245" height="4.61392" transform="rotate(90 610.004 177.448)" fill="white"/>
<rect x="601.403" y="21.0247" width="31.548" height="4.61392" transform="rotate(90 601.403 21.0247)" fill="white"/>
<rect x="601.403" y="78.8003" width="31.1149" height="4.61392" transform="rotate(90 601.403 78.8003)" fill="white"/>
<rect x="627.977" y="208.589" width="22.5905" height="116.213" transform="rotate(90 627.977 208.589)" fill="#5CCF69"/>
<rect x="632.401" y="213.014" width="13.7407" height="125.41" transform="rotate(90 632.401 213.014)" fill="#5CCF69"/>
<rect x="615.167" y="224.426" width="11.4117" height="90.3619" transform="rotate(90 615.167 224.426)" fill="#5CCF69"/>
<rect x="623.552" y="217.672" width="9.0828" height="107.363" transform="rotate(90 623.552 217.672)" fill="black"/>
<rect x="605.852" y="213.014" width="18.1656" height="71.9636" transform="rotate(90 605.852 213.014)" fill="black"/>
<rect x="623.552" y="-62.2224" width="225.863" height="4.78979" transform="rotate(90 623.552 -62.2224)" fill="black"/>
<rect x="628.062" y="159.121" width="4.51939" height="6.90567" transform="rotate(90 628.062 159.121)" fill="black"/>
<rect x="632.582" y="168.531" width="4.51939" height="4.89076" transform="rotate(-180 632.582 168.531)" fill="black"/>
<rect x="636.921" y="226.755" width="4.51939" height="58.6695" transform="rotate(-180 636.921 226.755)" fill="black"/>
<rect width="225.863" height="4.78979" transform="matrix(-3.27846e-08 1 1 5.82799e-08 516.053 -62.2224)" fill="black"/>
<rect width="4.51939" height="6.90567" transform="matrix(-4.37114e-08 1 1 4.37114e-08 511.542 159.121)" fill="black"/>
<rect width="4.51939" height="4.89076" transform="matrix(1 0 0 -1 507.023 168.531)" fill="black"/>
<rect width="4.51939" height="58.6695" transform="matrix(1 0 0 -1 502.684 226.755)" fill="black"/>
<rect x="627.977" y="231.179" width="4.65792" height="12.809" transform="rotate(90 627.977 231.179)" fill="black"/>
<rect x="524.806" y="231.179" width="4.65792" height="13.0422" transform="rotate(90 524.806 231.179)" fill="black"/>
<rect x="511.764" y="208.356" width="4.65792" height="8.87543" transform="rotate(90 511.764 208.356)" fill="black"/>
<rect x="511.764" y="226.755" width="4.65792" height="4.56005" transform="rotate(90 511.764 226.755)" fill="black"/>
<rect x="632.401" y="226.755" width="4.65792" height="4.56005" transform="rotate(90 632.401 226.755)" fill="black"/>
<rect x="632.401" y="208.589" width="4.65792" height="4.56005" transform="rotate(90 632.401 208.589)" fill="black"/>
<rect x="615.167" y="235.837" width="4.65792" height="90.3618" transform="rotate(90 615.167 235.837)" fill="black"/>
<rect x="627.841" y="203.931" width="4.65792" height="116.078" transform="rotate(90 627.841 203.931)" fill="black"/>
<rect x="620.054" y="158.983" width="4.65792" height="100.503" transform="rotate(90 620.054 158.983)" fill="black"/>
<mask id="mask1_105_6" style="mask-type:alpha" maskUnits="userSpaceOnUse" x="515" y="213" width="109" height="93">
<rect x="623.261" y="217.398" width="87.8225" height="107.363" transform="rotate(90 623.261 217.398)" fill="black"/>
<rect x="605.562" y="213.014" width="92.2071" height="71.9636" transform="rotate(90 605.562 213.014)" fill="black"/>
</mask>
<g mask="url(#mask1_105_6)">
<path d="M533.707 190.1L533.707 290.056L605.105 290.056L605.105 190.1L533.707 190.1ZM597.965 282.917L540.847 282.917L540.847 197.239L597.965 197.239L597.965 282.917Z" fill="#231E2B"/>
<path d="M590.825 211.519L583.685 211.519L583.685 218.658L576.546 218.658L576.546 225.798L583.685 225.798L583.685 254.357L576.546 254.357L576.546 261.497L583.685 261.497L583.685 268.637L590.825 268.637L590.825 275.777L597.965 275.777L597.965 204.379L590.825 204.379L590.825 211.519Z" fill="#F7FEFF"/>
<path d="M590.825 275.777L590.825 282.917L597.965 282.917L597.965 275.777L590.825 275.777Z" fill="#B6B7B8"/>
<path d="M583.685 268.637L583.685 275.777L590.825 275.777L590.825 268.637L583.685 268.637Z" fill="#B6B7B8"/>
<path d="M583.686 275.777L583.686 268.637L576.546 268.637L576.546 261.497L569.406 261.497L569.406 268.637L562.266 268.637L562.266 275.777L555.126 275.777L555.126 282.917L590.825 282.917L590.825 275.777L583.686 275.777Z" fill="#F7FEFF"/>
<path d="M576.546 211.519L576.546 218.658L583.686 218.658L583.686 211.519L576.546 211.519Z" fill="#B6B7B8"/>
<path d="M576.546 225.798L576.546 254.357L583.685 254.357L583.685 225.798L576.546 225.798Z" fill="#B6B7B8"/>
<path d="M576.546 261.497L576.546 268.637L583.685 268.637L583.685 261.497L576.546 261.497Z" fill="#B6B7B8"/>
<path d="M569.406 218.659L569.406 225.798L576.546 225.798L576.546 218.659L569.406 218.659Z" fill="#B6B7B8"/>
<path d="M569.406 254.358L569.406 261.497L576.546 261.497L576.546 254.358L569.406 254.358Z" fill="#B6B7B8"/>
<path d="M562.266 211.519L562.266 218.658L569.406 218.658L569.406 211.519L562.266 211.519Z" fill="#B6B7B8"/>
<path d="M562.266 261.497L562.266 268.637L569.406 268.637L569.406 261.497L562.266 261.497Z" fill="#B6B7B8"/>
<path d="M562.266 204.379L562.266 211.519L569.406 211.519L569.406 218.658L576.546 218.658L576.546 211.519L583.686 211.519L583.686 204.379L590.825 204.379L590.825 197.239L555.126 197.239L555.126 204.379L562.266 204.379Z" fill="#F7FEFF"/>
<path d="M555.126 268.637L555.126 275.777L562.266 275.777L562.266 268.637L555.126 268.637Z" fill="#B6B7B8"/>
<path d="M555.126 275.777L555.126 268.637L562.266 268.637L562.266 261.497L569.406 261.497L569.406 254.357L576.546 254.357L576.546 225.798L569.406 225.798L569.406 218.659L562.266 218.659L562.266 211.519L555.126 211.519L555.126 204.379L547.987 204.379L547.987 197.239L540.847 197.239L540.847 282.917L547.987 282.917L547.987 275.777L555.126 275.777Z" fill="#F7FEFF"/>
<path d="M547.987 275.777L547.987 282.917L555.126 282.917L555.126 275.777L547.987 275.777Z" fill="#B6B7B8"/>
</g>
<rect x="543.849" y="89.8113" width="20.4534" height="50.8142" fill="#CCF34E"/>
<path d="M567.699 87.5305L542.065 87.5305L542.065 143.947L567.699 143.947L567.699 87.5305ZM547.212 138.8L547.212 92.6776L562.586 92.6776L562.586 138.8L547.212 138.8Z" fill="#4FAB59"/>
</g>
<defs>
<clipPath id="clip0_105_6">
<rect width="650" height="400" fill="white" transform="translate(0.920654 0.109863)"/>
</clipPath>
</defs>
</svg>
