<svg width="650" height="400" viewBox="0 0 650 400" fill="none" xmlns="http://www.w3.org/2000/svg">
<g clip-path="url(#clip0_285_615)">
<rect width="152.011" height="72.5011" transform="matrix(-1.69113e-08 -1 -1 1.12983e-07 368.78 429.363)" fill="#B5DC3A"/>
<rect width="151.813" height="72.5011" transform="matrix(-1.65359e-08 -1 -1 1.15548e-07 565.088 429.363)" fill="#B5DC3A"/>
<rect width="131.282" height="77.5625" transform="matrix(1 2.71755e-08 -7.18361e-08 -1 366 353.135)" fill="#B5DC3A"/>
<rect width="78.1033" height="8.45256" transform="matrix(-1.69113e-08 -1 -1 1.12983e-07 377.232 429.363)" fill="#4FAB59"/>
<rect width="160.712" height="16.3219" transform="matrix(-1.69113e-08 -1 -1 1.12983e-07 298.256 429.363)" fill="#4FAB59"/>
<rect width="162.511" height="8.45256" transform="matrix(-1.65359e-08 -1 -1 1.15548e-07 573.541 429.363)" fill="#4FAB59"/>
<rect width="76.2282" height="16.3219" transform="matrix(-1.65359e-08 -1 -1 1.15548e-07 494.564 429.363)" fill="#4FAB59"/>
<rect width="115.979" height="8.45256" transform="matrix(1 2.71755e-08 -7.18361e-08 -1 373.153 356.526)" fill="#4FAB59"/>
<rect width="276.207" height="16.3219" transform="matrix(1 2.71755e-08 -7.18361e-08 -1 288.881 277.55)" fill="#4FAB59"/>
<rect width="10.2636" height="5.47843" transform="matrix(-3.61508e-08 -1 -1 5.28532e-08 560.011 378.231)" fill="white"/>
<rect width="10.2636" height="5.47843" transform="matrix(-3.61508e-08 -1 -1 5.28532e-08 360.484 387.791)" fill="white"/>
<rect width="21.117" height="5.47843" transform="matrix(-3.61508e-08 -1 -1 5.28532e-08 560.011 315.734)" fill="white"/>
<rect width="35.3435" height="5.47843" transform="matrix(-3.61508e-08 -1 -1 5.28532e-08 560.011 423.135)" fill="white"/>
<rect width="34.8583" height="5.47843" transform="matrix(-3.61508e-08 -1 -1 5.28532e-08 560.011 358.408)" fill="white"/>
<rect width="5.05534" height="5.47843" transform="matrix(-3.61508e-08 -1 -1 5.28532e-08 560.011 289.696)" fill="white"/>
<rect width="35.3435" height="5.47843" transform="matrix(-3.61508e-08 -1 -1 5.28532e-08 360.484 429.363)" fill="white"/>
<rect width="23.4445" height="5.47843" transform="matrix(-3.61508e-08 -1 -1 5.28532e-08 360.484 370.564)" fill="white"/>
<rect width="10.2636" height="5.47843" transform="matrix(-1 7.98622e-08 9.65646e-08 1 503.458 284.429)" fill="white"/>
<rect width="21.117" height="5.47843" transform="matrix(-1 7.98622e-08 9.65646e-08 1 439.217 284.429)" fill="white"/>
<rect width="5.05534" height="5.47843" transform="matrix(-1 7.98622e-08 9.65646e-08 1 413.178 284.429)" fill="white"/>
<rect width="35.3435" height="5.47843" transform="matrix(-1 7.98622e-08 9.65646e-08 1 548.361 284.429)" fill="white"/>
<rect width="34.8583" height="5.47843" transform="matrix(-1 7.98622e-08 9.65646e-08 1 483.635 284.429)" fill="white"/>
<rect width="10.2636" height="5.47843" transform="matrix(-1 7.98622e-08 9.65646e-08 1 357.745 284.429)" fill="white"/>
<rect width="35.3435" height="5.47843" transform="matrix(-1 7.98622e-08 9.65646e-08 1 402.648 284.429)" fill="white"/>
<rect width="34.8583" height="5.47843" transform="matrix(-1 7.98622e-08 9.65646e-08 1 340.538 284.429)" fill="white"/>
<rect width="5.93429" height="160.712" transform="matrix(1 0 0 -1 276 429.363)" fill="black"/>
<rect width="5.93429" height="72.8369" transform="matrix(1 0 0 -1 377.232 429.363)" fill="black"/>
<rect width="5.93429" height="72.8369" transform="matrix(1 0 0 -1 472.308 429.363)" fill="black"/>
<rect width="5.93429" height="95.3508" transform="matrix(-4.37114e-08 -1 -1 4.37114e-08 475.551 362.46)" fill="black"/>
<rect width="5.93429" height="276.664" transform="matrix(-4.37114e-08 -1 -1 4.37114e-08 565.088 261.248)" fill="black"/>
<rect width="5.93429" height="162.511" transform="matrix(1 0 0 -1 573.541 429.363)" fill="black"/>
<rect width="6.94623" height="7.42345" transform="matrix(1 0 0 -1 281.934 268.651)" fill="black"/>
<rect width="8.45263" height="5.62416" transform="matrix(1 0 0 -1 565.088 266.853)" fill="black"/>
<rect x="486.764" y="295.925" width="11.2761" height="28.0142" transform="rotate(90 486.764 295.925)" fill="#CCF34E"/>
<rect x="461.171" y="302.008" width="15.3177" height="2.75773" fill="#4FAB59"/>
<rect x="477.931" y="302.008" width="2.90821" height="2.75773" fill="#4FAB59"/>
<path d="M488.021 309.074L488.021 294.941L456.919 294.941L456.919 309.074L488.021 309.074ZM459.756 297.779L485.184 297.779L485.184 306.255L459.756 306.255L459.756 297.779Z" fill="#4FAB59"/>
<rect x="450.967" y="295.925" width="11.2761" height="11.3017" transform="rotate(90 450.967 295.925)" fill="#CCF34E"/>
<path d="M452.225 309.074L452.225 294.941L437.99 294.941L437.99 309.074L452.225 309.074ZM440.828 297.779L449.387 297.779L449.387 306.255L440.828 306.255L440.828 297.779Z" fill="#4FAB59"/>
<rect x="496.455" y="297.615" width="49.3515" height="49.3687" fill="#CCF34E"/>
<path d="M548.398 300.223H545.807V344.375H548.398V300.223Z" fill="#4FAB59"/>
<path d="M545.807 344.375H543.199V346.983H545.807V344.375Z" fill="#4FAB59"/>
<path d="M545.807 297.615H543.199V300.223H545.807V297.615Z" fill="#4FAB59"/>
<path d="M543.199 339.176H540.608V341.784H543.199V339.176Z" fill="#4FAB59"/>
<path d="M543.199 302.814H540.608V305.405H543.199V302.814Z" fill="#4FAB59"/>
<path d="M543.199 346.983H499.046V349.574H543.199V346.983Z" fill="#4FAB59"/>
<path d="M532.817 305.405H527.618V302.814H525.027V300.223H506.837V302.814H519.827V305.405H506.837V302.814H504.246V310.605H506.837V308.013H525.027V310.605H527.618V313.213H530.226V315.804H532.817V318.395H514.628V315.804H512.037V336.585H514.628V321.003H532.817V336.585H535.408V308.013H532.817V305.405Z" fill="#4FAB59"/>
<path d="M532.817 336.585H514.628V339.176H532.817V336.585Z" fill="#4FAB59"/>
<path d="M530.226 328.794H527.618V331.385H530.226V328.794Z" fill="#4FAB59"/>
<path d="M530.226 323.594H527.618V326.186H530.226V323.594Z" fill="#4FAB59"/>
<path d="M527.618 331.385H519.827V333.993H527.618V331.385Z" fill="#4FAB59"/>
<path d="M519.827 328.794H517.236V331.385H519.827V328.794Z" fill="#4FAB59"/>
<path d="M519.827 323.594H517.236V326.186H519.827V323.594Z" fill="#4FAB59"/>
<path d="M512.036 313.213H509.445V315.804H512.036V313.213Z" fill="#4FAB59"/>
<path d="M509.445 310.605H506.837V313.213H509.445V310.605Z" fill="#4FAB59"/>
<path d="M543.199 295.023H499.046V297.615H543.199V295.023Z" fill="#4FAB59"/>
<path d="M501.638 339.176H499.046V341.784H501.638V339.176Z" fill="#4FAB59"/>
<path d="M501.638 302.814H499.046V305.405H501.638V302.814Z" fill="#4FAB59"/>
<path d="M499.046 344.375H496.455V346.983H499.046V344.375Z" fill="#4FAB59"/>
<path d="M499.046 297.615H496.455V300.223H499.046V297.615Z" fill="#4FAB59"/>
<path d="M496.455 300.223H493.847V344.375H496.455V300.223Z" fill="#4FAB59"/>
<path d="M62.445 75.9547C62.445 75.1621 61.7845 74.5015 60.8597 74.5015H17.1321C16.2074 74.5015 15.5468 75.1621 15.5468 75.9547C15.5468 96.1672 38.4014 107 64.5587 107C97.5857 107 115.024 95.2424 115.024 76.351C115.024 56.1386 97.5857 44.1168 64.4266 44.1168C60.9918 44.1168 60.7276 41.7388 60.7276 40.8141C60.7276 39.0967 62.445 37.6435 64.5587 37.6435C66.5404 37.6435 68.2578 38.8325 68.2578 40.682C68.2578 41.8709 69.0504 42.5315 70.1073 42.5315H112.514C113.439 42.5315 114.099 41.8709 114.099 41.0783C114.099 21.2621 91.1124 10.6935 65.2193 10.6935C39.1941 10.6935 14.8863 23.9043 14.8863 42.5315C14.8863 62.8761 35.363 72.3878 64.823 72.5199C67.8614 72.5199 69.8431 73.9731 69.8431 76.351C69.8431 78.0684 68.2578 79.5216 66.2761 79.5216C63.8982 79.5216 62.445 78.3326 62.445 75.9547ZM118.144 10.6935C117.483 10.6935 116.955 11.222 116.955 11.8825V58.2523C116.955 58.9128 117.483 59.4413 118.144 59.4413H142.187V105.811C142.187 106.472 142.716 107 143.376 107H186.311C186.972 107 187.632 106.472 187.632 105.811V59.4413H211.676C212.337 59.4413 212.865 58.9128 212.865 58.2523V11.8825C212.865 11.222 212.337 10.6935 211.676 10.6935H118.144ZM278.571 11.4862C278.439 10.9578 277.91 10.6935 277.382 10.6935H235.372C234.711 10.6935 234.315 10.9578 234.051 11.4862L201.684 105.283C201.288 106.339 201.816 107 202.873 107H246.205C247.129 107 247.526 106.472 247.79 105.679L250.3 98.1488H262.19L264.7 105.679C264.964 106.472 265.36 107 266.285 107H309.484C310.541 107 311.07 106.339 310.673 105.283L278.571 11.4862ZM260.34 92.6003H252.15L256.245 79.9179L260.34 92.6003ZM299.441 10.6935C298.78 10.6935 298.252 11.222 298.252 11.8825V58.2523C298.252 58.9128 298.78 59.4413 299.441 59.4413H323.485V105.811C323.485 106.472 324.013 107 324.673 107H367.608C368.269 107 368.93 106.472 368.93 105.811V59.4413H392.973C393.634 59.4413 394.162 58.9128 394.162 58.2523V11.8825C394.162 11.222 393.634 10.6935 392.973 10.6935H299.441ZM400.155 10.6935C399.363 10.6935 398.834 11.3541 398.834 12.0146V105.811C398.834 106.472 399.363 107 400.155 107H491.838C492.631 107 493.159 106.604 493.159 105.679V79.3895C493.159 78.5969 492.631 78.2005 491.838 78.2005H443.223V73.4447H474.532C475.325 73.4447 475.721 73.0483 475.721 72.1236V45.7021C475.721 44.7773 475.325 44.381 474.532 44.381H443.223V39.6251H491.838C492.631 39.6251 493.159 39.2288 493.159 38.304V12.0146C493.159 11.0899 492.631 10.6935 491.838 10.6935H400.155Z" fill="#E9D9FF"/>
<path d="M72.9644 143.888C72.9644 129.697 59.8999 118.435 45.7092 118.435C30.6175 118.435 18.3038 130.749 18.3038 145.84C18.3038 160.932 30.6175 173.171 45.7092 173.171C59.975 173.171 72.9644 161.983 72.9644 147.793C72.9644 147.417 72.6641 147.042 72.2136 147.042H48.8627C48.6374 147.042 48.4122 147.117 48.262 147.342C47.6614 148.243 46.7604 148.844 45.7092 148.844C44.0574 148.844 42.7059 147.492 42.7059 145.84C42.7059 144.189 44.0574 142.837 45.7092 142.837C46.7604 142.837 47.6614 143.363 48.262 144.264C48.4122 144.489 48.6374 144.639 48.8627 144.639H72.2136C72.6641 144.639 72.9644 144.264 72.9644 143.888ZM132.154 119.186C132.154 118.81 131.854 118.435 131.478 118.435H106.626C106.25 118.435 105.875 118.81 105.875 119.186V138.032H102.646V119.186C102.646 118.81 102.346 118.435 101.896 118.435H77.043C76.6675 118.435 76.3672 118.81 76.3672 119.186V172.42C76.3672 172.87 76.6675 173.171 77.043 173.171H101.896C102.346 173.171 102.646 172.87 102.646 172.42V154.85H105.875V172.42C105.875 172.87 106.25 173.171 106.626 173.171H131.478C131.854 173.171 132.154 172.87 132.154 172.42V119.186ZM179.249 118.885C179.174 118.585 178.874 118.435 178.574 118.435H154.697C154.322 118.435 154.097 118.585 153.946 118.885L135.551 172.195C135.326 172.795 135.626 173.171 136.227 173.171H160.854C161.38 173.171 161.605 172.87 161.755 172.42L163.182 168.14H169.939L171.366 172.42C171.516 172.87 171.741 173.171 172.267 173.171H196.819C197.42 173.171 197.72 172.795 197.495 172.195L179.249 118.885ZM168.888 164.987H164.233L166.56 157.779L168.888 164.987ZM226.775 145.615C226.775 145.465 226.926 145.465 226.926 145.615L230.379 172.495C230.454 172.795 230.68 173.096 230.98 173.171H255.607C255.983 173.171 256.358 172.87 256.358 172.495V119.186C256.358 118.735 255.983 118.435 255.607 118.435H231.205C230.83 118.435 230.53 118.735 230.53 119.186V145.39C230.53 145.54 230.379 145.54 230.379 145.39L227.001 119.111C226.926 118.66 226.625 118.435 226.175 118.435H201.622C201.247 118.435 200.947 118.735 200.947 119.186V172.495C200.947 172.87 201.247 173.171 201.622 173.171H226.025C226.4 173.171 226.775 172.87 226.775 172.495V145.615ZM286.719 145.615C286.719 145.465 286.869 145.465 286.869 145.615L290.323 172.495C290.398 172.795 290.623 173.096 290.923 173.171H315.551C315.926 173.171 316.302 172.87 316.302 172.495V119.186C316.302 118.735 315.926 118.435 315.551 118.435H291.149C290.773 118.435 290.473 118.735 290.473 119.186V145.39C290.473 145.54 290.323 145.54 290.323 145.39L286.944 119.111C286.869 118.66 286.569 118.435 286.118 118.435H261.566C261.19 118.435 260.89 118.735 260.89 119.186V172.495C260.89 172.87 261.19 173.171 261.566 173.171H285.968C286.343 173.171 286.719 172.87 286.719 172.495V145.615ZM321.584 118.435C321.134 118.435 320.834 118.81 320.834 119.186V172.495C320.834 172.87 321.134 173.171 321.584 173.171H373.692C374.143 173.171 374.443 172.945 374.443 172.42V157.478C374.443 157.028 374.143 156.803 373.692 156.803H346.061V154.1H363.856C364.307 154.1 364.532 153.874 364.532 153.349V138.332C364.532 137.806 364.307 137.581 363.856 137.581H346.061V134.878H373.692C374.143 134.878 374.443 134.653 374.443 134.127V119.186C374.443 118.66 374.143 118.435 373.692 118.435H321.584ZM377.093 172.495C377.093 172.87 377.393 173.171 377.769 173.171H431.078C431.453 173.171 431.829 172.87 431.829 172.495V157.178C431.829 156.803 431.453 156.502 431.078 156.502H402.847V119.111C402.847 118.735 402.471 118.435 402.096 118.435H377.769C377.393 118.435 377.093 118.735 377.093 119.111V172.495ZM461.125 155.526C461.125 155.076 460.749 154.7 460.224 154.7H435.371C434.846 154.7 434.47 155.076 434.47 155.526C434.47 167.014 447.46 173.171 462.326 173.171C481.097 173.171 491.008 166.488 491.008 155.751C491.008 144.264 481.097 137.431 462.251 137.431C460.299 137.431 460.149 136.08 460.149 135.554C460.149 134.578 461.125 133.752 462.326 133.752C463.452 133.752 464.428 134.428 464.428 135.479C464.428 136.155 464.879 136.53 465.48 136.53H489.581C490.107 136.53 490.482 136.155 490.482 135.704C490.482 124.442 477.418 118.435 462.702 118.435C447.91 118.435 434.095 125.943 434.095 136.53C434.095 148.093 445.733 153.499 462.476 153.574C464.203 153.574 465.329 154.4 465.329 155.751C465.329 156.727 464.428 157.553 463.302 157.553C461.951 157.553 461.125 156.878 461.125 155.526Z" fill="#E9D9FF"/>
<rect x="122.142" y="205.365" width="50.1282" height="106.06" fill="#B5DC3A"/>
<rect x="-59.5967" y="215.152" width="172.868" height="83.9478" fill="#B5DC3A"/>
<rect x="127.388" y="191.124" width="51.2193" height="14.2413" fill="#4FAB59"/>
<rect x="122.142" y="192.89" width="6.53336" height="17.2624" fill="#4FAB59"/>
<rect width="51.2193" height="14.2413" transform="matrix(1 0 0 -1 127.388 325.665)" fill="#4FAB59"/>
<rect width="6.53336" height="19.1251" transform="matrix(1 0 0 -1 122.142 325.665)" fill="#4FAB59"/>
<rect x="116.228" y="205.365" width="5.91335" height="106.06" fill="#4FAB59"/>
<rect x="110.315" y="205.365" width="5.91335" height="110.344" fill="#4FAB59"/>
<rect x="-59.5967" y="205.365" width="175.825" height="9.78707" fill="#4FAB59"/>
<rect x="-59.5967" y="296.81" width="175.825" height="18.8988" fill="#4FAB59"/>
<rect x="12.1406" y="224.379" width="9.82854" height="4.94989" fill="white"/>
<rect x="146.235" y="215.152" width="14.2346" height="4.94989" fill="white"/>
<rect x="73.6582" y="224.379" width="20.2218" height="4.94989" fill="white"/>
<rect x="98.5928" y="224.379" width="4.84103" height="4.94989" fill="white"/>
<rect x="136.954" y="215.152" width="4.84103" height="4.94989" fill="white"/>
<rect x="-30.8594" y="224.379" width="33.8453" height="4.94989" fill="white"/>
<rect x="31.1233" y="224.379" width="33.3806" height="4.94989" fill="white"/>
<rect x="170.363" y="195.87" width="24.2355" height="124.675" fill="#5CCF69"/>
<rect x="175.11" y="191.124" width="14.7412" height="134.542" fill="#5CCF69"/>
<rect x="187.352" y="209.612" width="12.2427" height="96.9417" fill="#5CCF69"/>
<rect x="180.107" y="200.617" width="9.74417" height="115.181" fill="black"/>
<rect x="175.11" y="219.606" width="19.4883" height="77.2037" fill="black"/>
<rect x="129.827" y="264.132" width="13.2113" height="32.8221" fill="#CCF34E"/>
<path d="M145.233 262.659L128.675 262.659L128.675 299.099L145.233 299.099L145.233 262.659ZM132 295.775L132 265.984L141.93 265.984L141.93 295.775L132 295.775Z" fill="#4FAB59"/>
<rect x="97.6934" y="243.783" width="43.2668" height="63.2504" transform="rotate(90 97.6934 243.783)" fill="#CCF34E"/>
<path d="M94.3518 290.369L94.3518 287.05L37.7842 287.05L37.7842 290.369L94.3518 290.369Z" fill="#4FAB59"/>
<path d="M37.7844 287.049L37.7844 283.729L34.4428 283.729L34.4428 287.049L37.7844 287.049Z" fill="#4FAB59"/>
<path d="M97.6934 287.049L97.6934 283.729L94.3517 283.729L94.3517 287.049L97.6934 287.049Z" fill="#4FAB59"/>
<path d="M47.7651 283.73L47.7651 260.426L37.7839 260.426L37.7839 283.73L47.7651 283.73Z" fill="#4FAB59"/>
<path d="M34.4429 283.73L34.4429 247.103L31.1231 247.103L31.1231 283.73L34.4429 283.73Z" fill="#4FAB59"/>
<path d="M61.0669 283.73L61.0669 273.748L51.0857 273.748L51.0857 283.73L61.0669 283.73ZM54.4273 280.388L54.4273 277.068L57.7471 277.068L57.7471 280.388L54.4273 280.388Z" fill="#4FAB59"/>
<path d="M74.3894 283.73L74.3894 273.748L64.4082 273.748L64.4082 283.73L74.3894 283.73ZM67.728 280.388L67.728 277.068L71.0696 277.068L71.0696 280.388L67.728 280.388Z" fill="#4FAB59"/>
<path d="M94.3518 247.103L77.7091 247.103L77.7091 283.73L94.3518 283.73L94.3518 247.103ZM81.0508 280.388L81.0508 250.444L91.032 250.444L91.032 280.388L81.0508 280.388Z" fill="#4FAB59"/>
<path d="M87.6904 277.068L87.6904 273.748L84.3706 273.748L84.3706 277.068L87.6904 277.068Z" fill="#4FAB59"/>
<path d="M87.6904 270.407L87.6904 267.087L84.3706 267.087L84.3706 270.407L87.6904 270.407Z" fill="#4FAB59"/>
<path d="M61.0669 270.407L61.0669 260.426L51.0857 260.426L51.0857 270.407L61.0669 270.407ZM54.4273 267.087L54.4273 263.745L57.7471 263.745L57.7471 267.087L54.4273 267.087Z" fill="#4FAB59"/>
<path d="M74.3894 270.407L74.3894 260.426L64.4082 260.426L64.4082 270.407L74.3894 270.407ZM67.728 267.087L67.728 263.745L71.0696 263.745L71.0696 267.087L67.728 267.087Z" fill="#4FAB59"/>
<path d="M37.7839 257.117L47.7651 257.117L47.7651 247.103L37.7839 247.103L37.7839 257.117ZM44.4235 250.455L44.4235 253.775L41.1037 253.775L41.1037 250.444L44.4235 250.455Z" fill="#4FAB59"/>
<path d="M61.0669 257.117L61.0669 247.103L51.0857 247.103L51.0857 257.117L61.0669 257.117ZM54.4273 253.775L54.4273 250.444L57.7471 250.444L57.7471 253.764L54.4273 253.775Z" fill="#4FAB59"/>
<path d="M74.3894 257.117L74.3894 247.103L64.4082 247.103L64.4082 257.117L74.3894 257.117ZM67.728 253.775L67.728 250.444L71.0696 250.444L71.0696 253.764L67.728 253.775Z" fill="#4FAB59"/>
<path d="M101.013 283.73L101.013 247.103L97.6934 247.103L97.6934 283.73L101.013 283.73Z" fill="#4FAB59"/>
<path d="M37.7844 247.103L37.7844 243.783L34.4428 243.783L34.4428 247.103L37.7844 247.103Z" fill="#4FAB59"/>
<path d="M97.6934 247.103L97.6934 243.783L94.3517 243.783L94.3517 247.103L97.6934 247.103Z" fill="#4FAB59"/>
<path d="M94.3518 243.783L94.3518 240.463L37.7842 240.463L37.7842 243.783L94.3518 243.783Z" fill="#4FAB59"/>
<rect x="-59.5967" y="200.617" width="181.738" height="5.13856" fill="black"/>
<rect x="117.293" y="195.778" width="4.84847" height="7.40851" fill="black"/>
<rect x="127.388" y="190.93" width="4.84847" height="5.24688" transform="rotate(90 127.388 190.93)" fill="black"/>
<rect x="189.851" y="186.275" width="4.84847" height="62.9415" transform="rotate(90 189.851 186.275)" fill="black"/>
<rect width="181.738" height="5.13856" transform="matrix(1 0 0 -1 -59.5967 315.943)" fill="black"/>
<rect width="4.84847" height="7.40851" transform="matrix(1 0 0 -1 117.293 320.783)" fill="black"/>
<rect width="4.84847" height="5.24688" transform="matrix(-4.37114e-08 -1 -1 4.37114e-08 127.388 325.631)" fill="black"/>
<rect width="4.84847" height="62.9415" transform="matrix(-4.37114e-08 -1 -1 4.37114e-08 189.851 330.286)" fill="black"/>
<rect x="194.598" y="195.87" width="4.99709" height="13.7417" fill="black"/>
<rect x="194.598" y="306.554" width="4.99709" height="13.9919" fill="black"/>
<rect x="170.113" y="320.545" width="4.99709" height="9.52171" fill="black"/>
<rect x="189.851" y="320.545" width="4.99709" height="4.8921" fill="black"/>
<rect x="189.851" y="191.124" width="4.99709" height="4.8921" fill="black"/>
<rect x="170.363" y="191.124" width="4.99709" height="4.8921" fill="black"/>
<rect x="199.595" y="209.612" width="4.99709" height="96.9416" fill="black"/>
<rect x="165.366" y="196.016" width="4.99709" height="124.53" fill="black"/>
<rect x="117.145" y="204.37" width="4.99709" height="107.821" fill="black"/>
<mask id="mask0_285_615" style="mask-type:alpha" maskUnits="userSpaceOnUse" x="175" y="198" width="120" height="116">
<rect x="180.107" y="198.606" width="113.893" height="115.181" fill="black"/>
<rect x="175.11" y="217.594" width="19.4883" height="77.2037" fill="black"/>
</mask>
<g mask="url(#mask0_285_615)">
<path d="M212.354 234.907V227.056H196.808V234.907H189.035V242.759H181.262V274.165H189.035V282.017H196.808V289.868H227.901V282.017H235.674V274.165H243.447V250.61H235.674V242.759H227.901V234.907H212.354ZM227.901 250.61V266.314H220.127V274.165H212.354V282.017H204.581V274.165H196.808V250.61H204.581V242.759H220.127V250.61H227.901Z" fill="#CF8934"/>
<path d="M227.542 304.485H197.167V312.155H227.542V304.485Z" fill="#231E2B"/>
<path d="M242.73 296.815H227.542V304.485H242.73V296.815Z" fill="#231E2B"/>
<path d="M197.167 296.815H181.979V304.485H197.167V296.815Z" fill="#231E2B"/>
<path d="M250.323 289.144H242.729V296.815H250.323V289.144Z" fill="#231E2B"/>
<path d="M212.354 289.144H197.167V296.815H212.354V289.144Z" fill="#F5F38E"/>
<path d="M189.573 289.144V281.474H181.979V243.121H189.573V235.451H197.166V227.78H227.542V220.11H212.354V212.439H197.166V220.11H181.979V227.78H174.385V243.121H166.791V273.803H174.385V289.144H181.979V296.815H197.166V289.144H189.573Z" fill="#E2B436"/>
<path d="M181.979 289.144H174.385V296.815H181.979V289.144Z" fill="#231E2B"/>
<path d="M197.167 281.473H189.573V289.144H197.167V281.473Z" fill="#F5F38E"/>
<path d="M257.917 273.803H250.323V289.144H257.917V273.803Z" fill="#231E2B"/>
<path d="M212.354 274.511H204.293V282.653H212.354V274.511Z" fill="#C2751D"/>
<path d="M189.573 273.803H181.979V281.474H189.573V273.803Z" fill="#F5F38E"/>
<path d="M204.293 266.368H196.233V274.511H204.293V266.368Z" fill="#C2751D"/>
<path d="M265.511 243.121H257.917V273.803H265.511V243.121Z" fill="#231E2B"/>
<path d="M228.476 250.084H220.415V258.226H228.476V250.084Z" fill="#F5F38E"/>
<path d="M242.729 243.121H235.135V250.792H242.729V243.121Z" fill="#C2751D"/>
<path d="M220.415 241.942H212.354V250.084H220.415V241.942Z" fill="#F5F38E"/>
<path d="M212.354 241.942H204.293V250.084H196.233V266.369H204.293V274.511H220.415V266.369H228.476V258.227H220.415V250.084H212.354V241.942Z" fill="#E2B436"/>
<path d="M250.323 235.451H242.729V227.78H227.542V235.451H235.135V243.121H242.729V273.803H235.135V281.474H227.542V289.144H212.354V296.815H197.167V304.485H227.542V296.815H242.729V289.144H250.323V273.803H257.917V243.121H250.323V235.451Z" fill="#E2B436"/>
<path d="M235.136 235.451H227.542V243.121H235.136V235.451Z" fill="#C2751D"/>
<path d="M257.917 227.78H250.323V243.121H257.917V227.78Z" fill="#231E2B"/>
<path d="M250.323 227.78H242.729V235.451H250.323V227.78Z" fill="#F5F38E"/>
<path d="M227.542 227.78H212.354V235.451H227.542V227.78Z" fill="#C2751D"/>
<path d="M250.323 220.109H242.729V227.78H250.323V220.109Z" fill="#231E2B"/>
<path d="M242.73 220.109H227.542V227.78H242.73V220.109Z" fill="#F5F38E"/>
<path d="M181.979 220.109H174.385V227.78H181.979V220.109Z" fill="#231E2B"/>
<path d="M242.73 212.439H227.542V220.11H242.73V212.439Z" fill="#231E2B"/>
<path d="M227.542 212.439H212.354V220.11H227.542V212.439Z" fill="#F5F38E"/>
<path d="M197.167 212.439H181.979V220.11H197.167V212.439Z" fill="#231E2B"/>
<path d="M227.542 204.769H197.167V212.439H227.542V204.769Z" fill="#231E2B"/>
</g>
<rect x="618.207" y="163.531" width="46.7258" height="98.8609" transform="rotate(90 618.207 163.531)" fill="#B5DC3A"/>
<rect x="609.083" y="-62.3322" width="214.84" height="78.25" transform="rotate(90 609.083 -62.3322)" fill="#B5DC3A"/>
<rect x="631.481" y="168.422" width="47.7428" height="13.2747" transform="rotate(90 631.481 168.422)" fill="#4FAB59"/>
<rect x="627.056" y="163.531" width="4.89073" height="13.3896" transform="rotate(90 627.056 163.531)" fill="#4FAB59"/>
<rect width="47.7428" height="13.2747" transform="matrix(-4.37114e-08 1 1 4.37114e-08 506.071 168.422)" fill="#4FAB59"/>
<rect width="4.89073" height="17.8144" transform="matrix(-4.37114e-08 1 1 4.37114e-08 506.071 163.531)" fill="#4FAB59"/>
<rect x="618.207" y="158.019" width="5.51199" height="98.8609" transform="rotate(90 618.207 158.019)" fill="#4FAB59"/>
<rect x="618.207" y="152.507" width="5.51199" height="102.855" transform="rotate(90 618.207 152.507)" fill="#4FAB59"/>
<rect x="618.207" y="-62.3322" width="218.514" height="9.12279" transform="rotate(90 618.207 -62.3322)" fill="#4FAB59"/>
<rect x="532.968" y="-62.3322" width="218.514" height="17.6161" transform="rotate(90 532.968 -62.3322)" fill="#4FAB59"/>
<rect x="600.483" y="7.44263" width="9.16143" height="4.61392" transform="rotate(90 600.483 7.44263)" fill="white"/>
<rect x="600.483" y="60.9962" width="9.16143" height="4.61392" transform="rotate(90 600.483 60.9962)" fill="white"/>
<rect x="609.083" y="185.99" width="13.2684" height="4.61392" transform="rotate(90 609.083 185.99)" fill="white"/>
<rect x="600.483" y="118.338" width="18.8493" height="4.61392" transform="rotate(90 600.483 118.338)" fill="white"/>
<rect x="600.483" y="141.58" width="4.51245" height="4.61392" transform="rotate(90 600.483 141.58)" fill="white"/>
<rect x="609.083" y="177.338" width="4.51245" height="4.61392" transform="rotate(90 609.083 177.338)" fill="white"/>
<rect x="600.483" y="20.9149" width="31.548" height="4.61392" transform="rotate(90 600.483 20.9149)" fill="white"/>
<rect x="600.483" y="78.6903" width="31.1149" height="4.61392" transform="rotate(90 600.483 78.6903)" fill="white"/>
<rect x="627.056" y="208.479" width="22.5905" height="116.213" transform="rotate(90 627.056 208.479)" fill="#5CCF69"/>
<rect x="631.481" y="212.904" width="13.7407" height="125.41" transform="rotate(90 631.481 212.904)" fill="#5CCF69"/>
<rect x="614.247" y="224.316" width="11.4117" height="90.3619" transform="rotate(90 614.247 224.316)" fill="#5CCF69"/>
<rect x="622.631" y="217.562" width="9.0828" height="107.363" transform="rotate(90 622.631 217.562)" fill="black"/>
<rect x="604.932" y="212.904" width="18.1656" height="71.9636" transform="rotate(90 604.932 212.904)" fill="black"/>
<rect x="622.631" y="-62.3322" width="225.863" height="4.78979" transform="rotate(90 622.631 -62.3322)" fill="black"/>
<rect x="627.142" y="159.011" width="4.51939" height="6.90567" transform="rotate(90 627.142 159.011)" fill="black"/>
<rect x="631.661" y="168.422" width="4.51939" height="4.89076" transform="rotate(-180 631.661 168.422)" fill="black"/>
<rect x="636" y="226.645" width="4.51939" height="58.6695" transform="rotate(-180 636 226.645)" fill="black"/>
<rect width="225.863" height="4.78979" transform="matrix(-3.27846e-08 1 1 5.82799e-08 515.132 -62.3322)" fill="black"/>
<rect width="4.51939" height="6.90567" transform="matrix(-4.37114e-08 1 1 4.37114e-08 510.622 159.011)" fill="black"/>
<rect width="4.51939" height="4.89076" transform="matrix(1 0 0 -1 506.102 168.422)" fill="black"/>
<rect width="4.51939" height="58.6695" transform="matrix(1 0 0 -1 501.764 226.645)" fill="black"/>
<rect x="627.056" y="231.069" width="4.65792" height="12.809" transform="rotate(90 627.056 231.069)" fill="black"/>
<rect x="523.885" y="231.069" width="4.65792" height="13.0422" transform="rotate(90 523.885 231.069)" fill="black"/>
<rect x="510.843" y="208.246" width="4.65792" height="8.87543" transform="rotate(90 510.843 208.246)" fill="black"/>
<rect x="510.843" y="226.645" width="4.65792" height="4.56005" transform="rotate(90 510.843 226.645)" fill="black"/>
<rect x="631.481" y="226.645" width="4.65792" height="4.56005" transform="rotate(90 631.481 226.645)" fill="black"/>
<rect x="631.481" y="208.479" width="4.65792" height="4.56005" transform="rotate(90 631.481 208.479)" fill="black"/>
<rect x="614.247" y="235.727" width="4.65792" height="90.3618" transform="rotate(90 614.247 235.727)" fill="black"/>
<rect x="626.921" y="203.821" width="4.65792" height="116.078" transform="rotate(90 626.921 203.821)" fill="black"/>
<rect x="619.133" y="158.873" width="4.65792" height="100.503" transform="rotate(90 619.133 158.873)" fill="black"/>
<mask id="mask1_285_615" style="mask-type:alpha" maskUnits="userSpaceOnUse" x="514" y="212" width="109" height="94">
<rect x="622.341" y="217.288" width="87.8225" height="107.363" transform="rotate(90 622.341 217.288)" fill="black"/>
<rect x="604.642" y="212.904" width="92.2071" height="71.9636" transform="rotate(90 604.642 212.904)" fill="black"/>
</mask>
<g mask="url(#mask1_285_615)">
<path d="M532.787 189.99L532.787 289.947L604.184 289.947L604.184 189.99L532.787 189.99ZM597.045 282.807L539.926 282.807L539.926 197.129L597.045 197.129L597.045 282.807Z" fill="#231E2B"/>
<path d="M589.905 211.409L582.765 211.409L582.765 218.549L575.625 218.549L575.625 225.688L582.765 225.688L582.765 254.247L575.625 254.247L575.625 261.387L582.765 261.387L582.765 268.527L589.905 268.527L589.905 275.667L597.045 275.667L597.045 204.269L589.905 204.269L589.905 211.409Z" fill="#F7FEFF"/>
<path d="M589.905 275.667L589.905 282.807L597.045 282.807L597.045 275.667L589.905 275.667Z" fill="#B6B7B8"/>
<path d="M582.765 268.527L582.765 275.667L589.905 275.667L589.905 268.527L582.765 268.527Z" fill="#B6B7B8"/>
<path d="M582.765 275.667L582.765 268.527L575.625 268.527L575.625 261.387L568.486 261.387L568.486 268.527L561.346 268.527L561.346 275.667L554.206 275.667L554.206 282.807L589.905 282.807L589.905 275.667L582.765 275.667Z" fill="#F7FEFF"/>
<path d="M575.625 211.409L575.625 218.549L582.765 218.549L582.765 211.409L575.625 211.409Z" fill="#B6B7B8"/>
<path d="M575.625 225.688L575.625 254.247L582.765 254.247L582.765 225.688L575.625 225.688Z" fill="#B6B7B8"/>
<path d="M575.625 261.387L575.625 268.527L582.765 268.527L582.765 261.387L575.625 261.387Z" fill="#B6B7B8"/>
<path d="M568.486 218.549L568.486 225.688L575.626 225.688L575.626 218.549L568.486 218.549Z" fill="#B6B7B8"/>
<path d="M568.486 254.248L568.486 261.387L575.626 261.387L575.626 254.248L568.486 254.248Z" fill="#B6B7B8"/>
<path d="M561.346 211.409L561.346 218.549L568.485 218.549L568.485 211.409L561.346 211.409Z" fill="#B6B7B8"/>
<path d="M561.346 261.387L561.346 268.527L568.485 268.527L568.485 261.387L561.346 261.387Z" fill="#B6B7B8"/>
<path d="M561.346 204.269L561.346 211.409L568.486 211.409L568.486 218.549L575.625 218.549L575.625 211.409L582.765 211.409L582.765 204.269L589.905 204.269L589.905 197.129L554.206 197.129L554.206 204.269L561.346 204.269Z" fill="#F7FEFF"/>
<path d="M554.206 268.527L554.206 275.667L561.346 275.667L561.346 268.527L554.206 268.527Z" fill="#B6B7B8"/>
<path d="M554.206 275.667L554.206 268.527L561.346 268.527L561.346 261.387L568.486 261.387L568.486 254.248L575.626 254.248L575.626 225.688L568.486 225.688L568.486 218.549L561.346 218.549L561.346 211.409L554.206 211.409L554.206 204.269L547.067 204.269L547.067 197.129L539.927 197.129L539.927 282.807L547.067 282.807L547.067 275.667L554.206 275.667Z" fill="#F7FEFF"/>
<path d="M547.066 275.667L547.066 282.807L554.206 282.807L554.206 275.667L547.066 275.667Z" fill="#B6B7B8"/>
</g>
<rect x="542.928" y="89.7012" width="20.4534" height="50.8142" fill="#CCF34E"/>
<path d="M566.779 87.4203L541.145 87.4203L541.145 143.836L566.779 143.836L566.779 87.4203ZM546.292 138.689L546.292 92.5674L561.666 92.5674L561.666 138.689L546.292 138.689Z" fill="#4FAB59"/>
</g>
<defs>
<clipPath id="clip0_285_615">
<rect width="650" height="400" fill="white"/>
</clipPath>
</defs>
</svg>
