<svg width="553" height="513" viewBox="0 0 553 513" fill="none" xmlns="http://www.w3.org/2000/svg">
<path d="M82.5462 400.186L78.8361 371.828L11.5426 405.099L13.7025 424.291L19.8629 434.396L50.4652 444.059L81.7489 428.707L82.5462 400.186Z" fill="#8CD9DA"/>
<path d="M18.787 419.111L11.3409 405.091L18.8508 382.245L46.989 356.053L78.7058 371.783L76.8418 411.192L47.9432 428.695L18.787 419.111Z" fill="#C0F4FF"/>
<path d="M55.4577 107.804V59.6973L552.249 204.005V235.529L490.303 469.198L303.009 488.453L99.8728 388.621L55.4577 107.804Z" fill="#8CD9DA"/>
<path d="M337.125 28.274L150.099 0.219971L55.8566 58.9914L103.699 358.309L307.209 461.518L489.083 444.406L552.204 203.61L337.125 28.274Z" fill="#C0F4FF"/>
<mask id="mask0_1193_4661" style="mask-type:alpha" maskUnits="userSpaceOnUse" x="154" y="475" width="61" height="38">
<rect width="59.5747" height="36.9851" transform="matrix(-1 0 0 1 214.367 475.077)" fill="#D9D9D9"/>
</mask>
<g mask="url(#mask0_1193_4661)">
<rect x="154.348" y="491.411" width="2.16663" height="2.16663" fill="#C6FEFF"/>
<rect x="156.515" y="493.577" width="2.16663" height="2.16663" fill="#C6FEFF"/>
<rect x="158.682" y="493.577" width="2.16663" height="2.16663" fill="#C6FEFF"/>
<rect x="165.182" y="487.077" width="2.16663" height="2.16663" fill="#C6FEFF"/>
<rect x="163.015" y="489.244" width="2.16663" height="2.16663" fill="#C6FEFF"/>
<rect x="160.848" y="491.411" width="2.16663" height="2.16663" fill="#C6FEFF"/>
<rect x="167.348" y="487.077" width="2.16663" height="2.16663" fill="#C6FEFF"/>
<rect x="169.515" y="487.078" width="2.16663" height="2.16663" fill="#C6FEFF"/>
<rect x="171.682" y="489.244" width="2.16663" height="2.16663" fill="#C6FEFF"/>
<rect x="173.848" y="491.411" width="2.16663" height="2.16663" fill="#C6FEFF"/>
<rect x="176.015" y="493.577" width="2.16663" height="2.16663" fill="#C6FEFF"/>
<rect x="178.181" y="493.577" width="2.16663" height="2.16663" fill="#C6FEFF"/>
<rect x="186.848" y="487.077" width="2.16663" height="2.16663" fill="#C6FEFF"/>
<rect x="182.515" y="489.244" width="2.16663" height="2.16663" fill="#C6FEFF"/>
<rect x="182.515" y="491.411" width="2.16663" height="2.16663" fill="#C6FEFF"/>
<rect x="180.348" y="493.577" width="2.16663" height="2.16663" fill="#C6FEFF"/>
<rect x="184.681" y="487.077" width="2.16663" height="2.16663" fill="#C6FEFF"/>
<rect x="189.014" y="487.077" width="2.16663" height="2.16663" fill="#C6FEFF"/>
<rect x="191.181" y="489.244" width="2.16663" height="2.16663" fill="#C6FEFF"/>
<rect x="193.348" y="491.411" width="2.16663" height="2.16663" fill="#C6FEFF"/>
<rect x="195.514" y="493.577" width="2.16663" height="2.16663" fill="#C6FEFF"/>
<rect x="197.681" y="493.577" width="2.16663" height="2.16663" fill="#C6FEFF"/>
<rect x="204.181" y="487.077" width="2.16663" height="2.16663" fill="#C6FEFF"/>
<rect x="202.014" y="489.244" width="2.16663" height="2.16663" fill="#C6FEFF"/>
<rect x="202.014" y="491.411" width="2.16663" height="2.16663" fill="#C6FEFF"/>
<rect x="199.848" y="491.411" width="2.16663" height="2.16663" fill="#C6FEFF"/>
<rect x="206.347" y="487.077" width="2.16663" height="2.16663" fill="#C6FEFF"/>
<rect x="208.514" y="487.077" width="2.16663" height="2.16663" fill="#C6FEFF"/>
<rect x="210.681" y="489.244" width="2.16663" height="2.16663" fill="#C6FEFF"/>
<rect x="212.847" y="491.411" width="2.16663" height="2.16663" fill="#C6FEFF"/>
<rect x="154.348" y="493.577" width="2.16663" height="2.16663" fill="#5DB7B9"/>
<rect x="156.515" y="495.744" width="2.16663" height="2.16663" fill="#5DB7B9"/>
<rect x="158.682" y="495.744" width="2.16663" height="2.16663" fill="#5DB7B9"/>
<rect x="165.182" y="489.244" width="2.16663" height="2.16663" fill="#5DB7B9"/>
<rect x="163.015" y="491.41" width="2.16663" height="2.16663" fill="#5DB7B9"/>
<rect x="160.848" y="493.577" width="2.16663" height="2.16663" fill="#5DB7B9"/>
<rect x="167.348" y="489.244" width="2.16663" height="2.16663" fill="#5DB7B9"/>
<rect x="169.515" y="489.244" width="2.16663" height="2.16663" fill="#5DB7B9"/>
<rect x="171.681" y="491.41" width="2.16663" height="2.16663" fill="#5DB7B9"/>
<rect x="173.848" y="493.577" width="2.16663" height="2.16663" fill="#5DB7B9"/>
<rect x="176.015" y="495.744" width="2.16663" height="2.16663" fill="#5DB7B9"/>
<rect x="178.181" y="495.744" width="2.16663" height="2.16663" fill="#5DB7B9"/>
<rect x="186.848" y="489.244" width="2.16663" height="2.16663" fill="#5DB7B9"/>
<rect x="182.514" y="491.41" width="2.16663" height="2.16663" fill="#5DB7B9"/>
<rect x="182.514" y="493.577" width="2.16663" height="2.16663" fill="#5DB7B9"/>
<rect x="180.348" y="495.744" width="2.16663" height="2.16663" fill="#5DB7B9"/>
<rect x="184.681" y="489.244" width="2.16663" height="2.16663" fill="#5DB7B9"/>
<rect x="189.014" y="489.244" width="2.16663" height="2.16663" fill="#5DB7B9"/>
<rect x="191.181" y="491.41" width="2.16663" height="2.16663" fill="#5DB7B9"/>
<rect x="193.348" y="493.577" width="2.16663" height="2.16663" fill="#5DB7B9"/>
<rect x="195.514" y="495.744" width="2.16663" height="2.16663" fill="#5DB7B9"/>
<rect x="197.681" y="495.744" width="2.16663" height="2.16663" fill="#5DB7B9"/>
<rect x="204.181" y="489.244" width="2.16663" height="2.16663" fill="#5DB7B9"/>
<rect x="202.014" y="491.41" width="2.16663" height="2.16663" fill="#5DB7B9"/>
<rect x="202.014" y="493.577" width="2.16663" height="2.16663" fill="#5DB7B9"/>
<rect x="199.848" y="493.577" width="2.16663" height="2.16663" fill="#5DB7B9"/>
<rect x="206.347" y="489.244" width="2.16663" height="2.16663" fill="#5DB7B9"/>
<rect x="208.514" y="489.244" width="2.16663" height="2.16663" fill="#5DB7B9"/>
<rect x="210.681" y="491.41" width="2.16663" height="2.16663" fill="#5DB7B9"/>
<rect x="212.847" y="493.577" width="2.16663" height="2.16663" fill="#5DB7B9"/>
<rect x="154.349" y="497.911" width="2.16663" height="2.16663" fill="#C1EBF7"/>
<rect x="160.848" y="497.911" width="2.16663" height="2.16663" fill="#C1EBF7"/>
<rect x="163.015" y="495.744" width="2.16663" height="2.16663" fill="#C1EBF7"/>
<rect x="165.182" y="493.578" width="2.16663" height="2.16663" fill="#C1EBF7"/>
<rect x="167.348" y="493.578" width="2.16663" height="2.16663" fill="#C1EBF7"/>
<rect x="169.515" y="493.578" width="2.16663" height="2.16663" fill="#C1EBF7"/>
<rect x="171.682" y="495.744" width="2.16663" height="2.16663" fill="#C1EBF7"/>
<rect x="173.848" y="497.911" width="2.16663" height="2.16663" fill="#C1EBF7"/>
<rect x="184.681" y="493.578" width="2.16663" height="2.16663" fill="#C1EBF7"/>
<rect x="186.848" y="493.578" width="2.16663" height="2.16663" fill="#C1EBF7"/>
<rect x="189.014" y="493.578" width="2.16663" height="2.16663" fill="#C1EBF7"/>
<rect x="191.181" y="495.744" width="2.16663" height="2.16663" fill="#C1EBF7"/>
<rect x="193.348" y="497.911" width="2.16663" height="2.16663" fill="#C1EBF7"/>
<rect x="199.848" y="497.911" width="2.16663" height="2.16663" fill="#C1EBF7"/>
<rect x="202.014" y="495.744" width="2.16663" height="2.16663" fill="#C1EBF7"/>
<rect x="154.349" y="495.744" width="2.16663" height="2.16663" fill="#5DB7B9"/>
<rect x="156.515" y="497.911" width="2.16663" height="2.16663" fill="#5DB7B9"/>
<rect x="158.682" y="497.911" width="2.16663" height="2.16663" fill="#5DB7B9"/>
<rect x="165.182" y="491.411" width="2.16663" height="2.16663" fill="#5DB7B9"/>
<rect x="163.015" y="493.578" width="2.16663" height="2.16663" fill="#5DB7B9"/>
<rect x="160.848" y="495.744" width="2.16663" height="2.16663" fill="#5DB7B9"/>
<rect x="167.348" y="491.411" width="2.16663" height="2.16663" fill="#5DB7B9"/>
<rect x="169.515" y="491.411" width="2.16663" height="2.16663" fill="#5DB7B9"/>
<rect x="171.681" y="493.578" width="2.16663" height="2.16663" fill="#5DB7B9"/>
<rect x="173.848" y="495.744" width="2.16663" height="2.16663" fill="#5DB7B9"/>
<rect x="176.015" y="497.911" width="2.16663" height="2.16663" fill="#5DB7B9"/>
<rect x="178.181" y="497.911" width="2.16663" height="2.16663" fill="#5DB7B9"/>
<rect x="186.848" y="491.411" width="2.16663" height="2.16663" fill="#5DB7B9"/>
<rect x="182.514" y="493.578" width="2.16663" height="2.16663" fill="#5DB7B9"/>
<rect x="182.514" y="495.744" width="2.16663" height="2.16663" fill="#5DB7B9"/>
<rect x="180.348" y="497.911" width="2.16663" height="2.16663" fill="#5DB7B9"/>
<rect x="184.681" y="491.411" width="2.16663" height="2.16663" fill="#5DB7B9"/>
<rect x="189.014" y="491.411" width="2.16663" height="2.16663" fill="#5DB7B9"/>
<rect x="191.181" y="493.578" width="2.16663" height="2.16663" fill="#5DB7B9"/>
<rect x="193.348" y="495.744" width="2.16663" height="2.16663" fill="#5DB7B9"/>
<rect x="195.514" y="497.911" width="2.16663" height="2.16663" fill="#5DB7B9"/>
<rect x="197.681" y="497.911" width="2.16663" height="2.16663" fill="#5DB7B9"/>
<rect x="204.181" y="491.411" width="2.16663" height="2.16663" fill="#5DB7B9"/>
<rect x="202.014" y="493.578" width="2.16663" height="2.16663" fill="#5DB7B9"/>
<rect x="199.847" y="495.744" width="2.16663" height="2.16663" fill="#5DB7B9"/>
<rect x="206.347" y="491.411" width="2.16663" height="2.16663" fill="#5DB7B9"/>
<rect x="208.514" y="491.411" width="2.16663" height="2.16663" fill="#5DB7B9"/>
<rect x="210.681" y="493.578" width="2.16663" height="2.16663" fill="#5DB7B9"/>
<rect x="212.847" y="495.744" width="2.16663" height="2.16663" fill="#5DB7B9"/>
<rect x="154.349" y="500.077" width="2.16663" height="2.16663" fill="#5DB7B9"/>
<rect x="156.515" y="502.244" width="2.16663" height="2.16663" fill="#5DB7B9"/>
<rect x="158.682" y="502.244" width="2.16663" height="2.16663" fill="#5DB7B9"/>
<rect x="165.182" y="495.744" width="2.16663" height="2.16663" fill="#5DB7B9"/>
<rect x="163.015" y="497.911" width="2.16663" height="2.16663" fill="#5DB7B9"/>
<rect x="160.848" y="500.077" width="2.16663" height="2.16663" fill="#5DB7B9"/>
<rect x="167.348" y="495.744" width="2.16663" height="2.16663" fill="#5DB7B9"/>
<rect x="169.515" y="495.744" width="2.16663" height="2.16663" fill="#5DB7B9"/>
<rect x="171.681" y="497.911" width="2.16663" height="2.16663" fill="#5DB7B9"/>
<rect x="173.848" y="500.077" width="2.16663" height="2.16663" fill="#5DB7B9"/>
<rect x="176.015" y="502.244" width="2.16663" height="2.16663" fill="#5DB7B9"/>
<rect x="178.181" y="502.244" width="2.16663" height="2.16663" fill="#5DB7B9"/>
<rect x="186.848" y="495.744" width="2.16663" height="2.16663" fill="#5DB7B9"/>
<rect x="182.514" y="497.911" width="2.16663" height="2.16663" fill="#5DB7B9"/>
<rect x="182.514" y="500.077" width="2.16663" height="2.16663" fill="#5DB7B9"/>
<rect x="180.348" y="502.244" width="2.16663" height="2.16663" fill="#5DB7B9"/>
<rect x="184.681" y="495.744" width="2.16663" height="2.16663" fill="#5DB7B9"/>
<rect x="189.014" y="495.744" width="2.16663" height="2.16663" fill="#5DB7B9"/>
<rect x="191.181" y="497.911" width="2.16663" height="2.16663" fill="#5DB7B9"/>
<rect x="193.348" y="500.077" width="2.16663" height="2.16663" fill="#5DB7B9"/>
<rect x="195.514" y="502.244" width="2.16663" height="2.16663" fill="#5DB7B9"/>
<rect x="197.681" y="502.244" width="2.16663" height="2.16663" fill="#5DB7B9"/>
<rect x="204.181" y="495.744" width="2.16663" height="2.16663" fill="#5DB7B9"/>
<rect x="202.014" y="497.911" width="2.16663" height="2.16663" fill="#5DB7B9"/>
<rect x="202.014" y="500.077" width="2.16663" height="2.16663" fill="#5DB7B9"/>
<rect x="199.847" y="500.077" width="2.16663" height="2.16663" fill="#5DB7B9"/>
<rect x="206.347" y="495.744" width="2.16663" height="2.16663" fill="#5DB7B9"/>
<rect x="208.514" y="495.744" width="2.16663" height="2.16663" fill="#5DB7B9"/>
<rect x="210.681" y="497.911" width="2.16663" height="2.16663" fill="#5DB7B9"/>
<rect x="212.847" y="500.077" width="2.16663" height="2.16663" fill="#5DB7B9"/>
<rect x="154.349" y="502.244" width="2.16663" height="2.16663" fill="#5DB7B9"/>
<rect x="156.515" y="504.41" width="2.16663" height="2.16663" fill="#5DB7B9"/>
<rect x="158.682" y="504.41" width="2.16663" height="2.16663" fill="#5DB7B9"/>
<rect x="165.182" y="497.911" width="2.16663" height="2.16663" fill="#5DB7B9"/>
<rect x="163.015" y="500.077" width="2.16663" height="2.16663" fill="#5DB7B9"/>
<rect x="160.848" y="502.244" width="2.16663" height="2.16663" fill="#5DB7B9"/>
<rect x="167.348" y="497.911" width="2.16663" height="2.16663" fill="#5DB7B9"/>
<rect x="169.515" y="497.911" width="2.16663" height="2.16663" fill="#5DB7B9"/>
<rect x="171.681" y="500.077" width="2.16663" height="2.16663" fill="#5DB7B9"/>
<rect x="173.848" y="502.244" width="2.16663" height="2.16663" fill="#5DB7B9"/>
<rect x="176.015" y="504.41" width="2.16663" height="2.16663" fill="#5DB7B9"/>
<rect x="178.181" y="504.41" width="2.16663" height="2.16663" fill="#5DB7B9"/>
<rect x="186.848" y="497.911" width="2.16663" height="2.16663" fill="#5DB7B9"/>
<rect x="182.514" y="500.077" width="2.16663" height="2.16663" fill="#5DB7B9"/>
<rect x="182.514" y="502.244" width="2.16663" height="2.16663" fill="#5DB7B9"/>
<rect x="180.348" y="504.41" width="2.16663" height="2.16663" fill="#5DB7B9"/>
<rect x="184.681" y="497.911" width="2.16663" height="2.16663" fill="#5DB7B9"/>
<rect x="189.014" y="497.911" width="2.16663" height="2.16663" fill="#5DB7B9"/>
<rect x="191.181" y="500.077" width="2.16663" height="2.16663" fill="#5DB7B9"/>
<rect x="193.348" y="502.244" width="2.16663" height="2.16663" fill="#5DB7B9"/>
<rect x="195.514" y="504.41" width="2.16663" height="2.16663" fill="#5DB7B9"/>
<rect x="197.681" y="504.41" width="2.16663" height="2.16663" fill="#5DB7B9"/>
<rect x="204.181" y="497.911" width="2.16663" height="2.16663" fill="#5DB7B9"/>
<rect x="202.014" y="500.077" width="2.16663" height="2.16663" fill="#5DB7B9"/>
<rect x="202.014" y="502.244" width="2.16663" height="2.16663" fill="#5DB7B9"/>
<rect x="199.847" y="502.244" width="2.16663" height="2.16663" fill="#5DB7B9"/>
<rect x="206.347" y="497.911" width="2.16663" height="2.16663" fill="#5DB7B9"/>
<rect x="208.514" y="497.911" width="2.16663" height="2.16663" fill="#5DB7B9"/>
<rect x="210.681" y="500.077" width="2.16663" height="2.16663" fill="#5DB7B9"/>
<rect x="212.847" y="502.244" width="2.16663" height="2.16663" fill="#5DB7B9"/>
</g>
<mask id="mask1_1193_4661" style="mask-type:alpha" maskUnits="userSpaceOnUse" x="110" y="438" width="43" height="38">
<rect width="41.8183" height="36.9851" transform="matrix(-1 0 0 1 152.024 438.092)" fill="#D9D9D9"/>
</mask>
<g mask="url(#mask1_1193_4661)">
<rect x="109.339" y="452.259" width="2.16663" height="2.16663" fill="#C6FEFF"/>
<rect x="111.505" y="454.425" width="2.16663" height="2.16663" fill="#C6FEFF"/>
<rect x="113.672" y="456.592" width="2.16663" height="2.16663" fill="#C6FEFF"/>
<rect x="115.838" y="456.592" width="2.16663" height="2.16663" fill="#C6FEFF"/>
<rect x="124.505" y="450.092" width="2.16663" height="2.16663" fill="#C6FEFF"/>
<rect x="120.171" y="452.259" width="2.16663" height="2.16663" fill="#C6FEFF"/>
<rect x="120.171" y="454.425" width="2.16663" height="2.16663" fill="#C6FEFF"/>
<rect x="118.005" y="456.592" width="2.16663" height="2.16663" fill="#C6FEFF"/>
<rect x="122.338" y="450.092" width="2.16663" height="2.16663" fill="#C6FEFF"/>
<rect x="126.671" y="450.092" width="2.16663" height="2.16663" fill="#C6FEFF"/>
<rect x="128.838" y="452.259" width="2.16663" height="2.16663" fill="#C6FEFF"/>
<rect x="131.005" y="454.425" width="2.16663" height="2.16663" fill="#C6FEFF"/>
<rect x="133.171" y="456.592" width="2.16663" height="2.16663" fill="#C6FEFF"/>
<rect x="135.338" y="456.592" width="2.16663" height="2.16663" fill="#C6FEFF"/>
<rect x="141.838" y="450.092" width="2.16663" height="2.16663" fill="#C6FEFF"/>
<rect x="139.671" y="452.259" width="2.16663" height="2.16663" fill="#C6FEFF"/>
<rect x="139.671" y="454.425" width="2.16663" height="2.16663" fill="#C6FEFF"/>
<rect x="137.505" y="454.425" width="2.16663" height="2.16663" fill="#C6FEFF"/>
<rect x="144.004" y="450.092" width="2.16663" height="2.16663" fill="#C6FEFF"/>
<rect x="146.171" y="450.092" width="2.16663" height="2.16663" fill="#C6FEFF"/>
<rect x="148.338" y="452.259" width="2.16663" height="2.16663" fill="#C6FEFF"/>
<rect x="150.504" y="454.425" width="2.16663" height="2.16663" fill="#C6FEFF"/>
<rect x="109.338" y="454.425" width="2.16663" height="2.16663" fill="#5DB7B9"/>
<rect x="111.505" y="456.592" width="2.16663" height="2.16663" fill="#5DB7B9"/>
<rect x="113.671" y="458.758" width="2.16663" height="2.16663" fill="#5DB7B9"/>
<rect x="115.838" y="458.758" width="2.16663" height="2.16663" fill="#5DB7B9"/>
<rect x="124.505" y="452.259" width="2.16663" height="2.16663" fill="#5DB7B9"/>
<rect x="120.171" y="454.425" width="2.16663" height="2.16663" fill="#5DB7B9"/>
<rect x="120.171" y="456.592" width="2.16663" height="2.16663" fill="#5DB7B9"/>
<rect x="118.005" y="458.758" width="2.16663" height="2.16663" fill="#5DB7B9"/>
<rect x="122.338" y="452.259" width="2.16663" height="2.16663" fill="#5DB7B9"/>
<rect x="126.671" y="452.259" width="2.16663" height="2.16663" fill="#5DB7B9"/>
<rect x="128.838" y="454.425" width="2.16663" height="2.16663" fill="#5DB7B9"/>
<rect x="131.005" y="456.592" width="2.16663" height="2.16663" fill="#5DB7B9"/>
<rect x="133.171" y="458.758" width="2.16663" height="2.16663" fill="#5DB7B9"/>
<rect x="135.338" y="458.758" width="2.16663" height="2.16663" fill="#5DB7B9"/>
<rect x="141.837" y="452.259" width="2.16663" height="2.16663" fill="#5DB7B9"/>
<rect x="139.671" y="454.425" width="2.16663" height="2.16663" fill="#5DB7B9"/>
<rect x="139.671" y="456.592" width="2.16663" height="2.16663" fill="#5DB7B9"/>
<rect x="137.504" y="456.592" width="2.16663" height="2.16663" fill="#5DB7B9"/>
<rect x="144.004" y="452.259" width="2.16663" height="2.16663" fill="#5DB7B9"/>
<rect x="146.171" y="452.259" width="2.16663" height="2.16663" fill="#5DB7B9"/>
<rect x="148.337" y="454.425" width="2.16663" height="2.16663" fill="#5DB7B9"/>
<rect x="150.504" y="456.592" width="2.16663" height="2.16663" fill="#5DB7B9"/>
<rect x="109.338" y="458.759" width="2.16663" height="2.16663" fill="#C1EBF7"/>
<rect x="111.505" y="460.925" width="2.16663" height="2.16663" fill="#C1EBF7"/>
<rect x="122.338" y="456.592" width="2.16663" height="2.16663" fill="#C1EBF7"/>
<rect x="124.505" y="456.592" width="2.16663" height="2.16663" fill="#C1EBF7"/>
<rect x="126.671" y="456.592" width="2.16663" height="2.16663" fill="#C1EBF7"/>
<rect x="128.838" y="458.759" width="2.16663" height="2.16663" fill="#C1EBF7"/>
<rect x="131.005" y="460.925" width="2.16663" height="2.16663" fill="#C1EBF7"/>
<rect x="137.504" y="460.925" width="2.16663" height="2.16663" fill="#C1EBF7"/>
<rect x="139.671" y="458.759" width="2.16663" height="2.16663" fill="#C1EBF7"/>
<rect x="109.338" y="456.592" width="2.16663" height="2.16663" fill="#5DB7B9"/>
<rect x="111.505" y="458.759" width="2.16663" height="2.16663" fill="#5DB7B9"/>
<rect x="113.671" y="460.925" width="2.16663" height="2.16663" fill="#5DB7B9"/>
<rect x="115.838" y="460.925" width="2.16663" height="2.16663" fill="#5DB7B9"/>
<rect x="124.505" y="454.425" width="2.16663" height="2.16663" fill="#5DB7B9"/>
<rect x="120.171" y="456.592" width="2.16663" height="2.16663" fill="#5DB7B9"/>
<rect x="120.171" y="458.759" width="2.16663" height="2.16663" fill="#5DB7B9"/>
<rect x="118.005" y="460.925" width="2.16663" height="2.16663" fill="#5DB7B9"/>
<rect x="122.338" y="454.425" width="2.16663" height="2.16663" fill="#5DB7B9"/>
<rect x="126.671" y="454.425" width="2.16663" height="2.16663" fill="#5DB7B9"/>
<rect x="128.838" y="456.592" width="2.16663" height="2.16663" fill="#5DB7B9"/>
<rect x="131.005" y="458.759" width="2.16663" height="2.16663" fill="#5DB7B9"/>
<rect x="133.171" y="460.925" width="2.16663" height="2.16663" fill="#5DB7B9"/>
<rect x="135.338" y="460.925" width="2.16663" height="2.16663" fill="#5DB7B9"/>
<rect x="141.837" y="454.425" width="2.16663" height="2.16663" fill="#5DB7B9"/>
<rect x="139.671" y="456.592" width="2.16663" height="2.16663" fill="#5DB7B9"/>
<rect x="137.504" y="458.759" width="2.16663" height="2.16663" fill="#5DB7B9"/>
<rect x="144.004" y="454.425" width="2.16663" height="2.16663" fill="#5DB7B9"/>
<rect x="146.171" y="454.425" width="2.16663" height="2.16663" fill="#5DB7B9"/>
<rect x="148.337" y="456.592" width="2.16663" height="2.16663" fill="#5DB7B9"/>
<rect x="150.504" y="458.759" width="2.16663" height="2.16663" fill="#5DB7B9"/>
<rect x="109.338" y="460.925" width="2.16663" height="2.16663" fill="#5DB7B9"/>
<rect x="111.505" y="463.091" width="2.16663" height="2.16663" fill="#5DB7B9"/>
<rect x="113.671" y="465.258" width="2.16663" height="2.16663" fill="#5DB7B9"/>
<rect x="115.838" y="465.258" width="2.16663" height="2.16663" fill="#5DB7B9"/>
<rect x="124.505" y="458.758" width="2.16663" height="2.16663" fill="#5DB7B9"/>
<rect x="120.171" y="460.925" width="2.16663" height="2.16663" fill="#5DB7B9"/>
<rect x="120.171" y="463.091" width="2.16663" height="2.16663" fill="#5DB7B9"/>
<rect x="118.005" y="465.258" width="2.16663" height="2.16663" fill="#5DB7B9"/>
<rect x="122.338" y="458.758" width="2.16663" height="2.16663" fill="#5DB7B9"/>
<rect x="126.671" y="458.758" width="2.16663" height="2.16663" fill="#5DB7B9"/>
<rect x="128.838" y="460.925" width="2.16663" height="2.16663" fill="#5DB7B9"/>
<rect x="131.005" y="463.091" width="2.16663" height="2.16663" fill="#5DB7B9"/>
<rect x="133.171" y="465.258" width="2.16663" height="2.16663" fill="#5DB7B9"/>
<rect x="135.338" y="465.258" width="2.16663" height="2.16663" fill="#5DB7B9"/>
<rect x="141.837" y="458.758" width="2.16663" height="2.16663" fill="#5DB7B9"/>
<rect x="139.671" y="460.925" width="2.16663" height="2.16663" fill="#5DB7B9"/>
<rect x="139.671" y="463.091" width="2.16663" height="2.16663" fill="#5DB7B9"/>
<rect x="137.504" y="463.091" width="2.16663" height="2.16663" fill="#5DB7B9"/>
<rect x="144.004" y="458.758" width="2.16663" height="2.16663" fill="#5DB7B9"/>
<rect x="146.171" y="458.758" width="2.16663" height="2.16663" fill="#5DB7B9"/>
<rect x="148.337" y="460.925" width="2.16663" height="2.16663" fill="#5DB7B9"/>
<rect x="150.504" y="463.091" width="2.16663" height="2.16663" fill="#5DB7B9"/>
<rect x="109.338" y="463.092" width="2.16663" height="2.16663" fill="#5DB7B9"/>
<rect x="111.505" y="465.258" width="2.16663" height="2.16663" fill="#5DB7B9"/>
<rect x="113.671" y="467.425" width="2.16663" height="2.16663" fill="#5DB7B9"/>
<rect x="115.838" y="467.425" width="2.16663" height="2.16663" fill="#5DB7B9"/>
<rect x="124.505" y="460.925" width="2.16663" height="2.16663" fill="#5DB7B9"/>
<rect x="120.171" y="463.092" width="2.16663" height="2.16663" fill="#5DB7B9"/>
<rect x="120.171" y="465.258" width="2.16663" height="2.16663" fill="#5DB7B9"/>
<rect x="118.005" y="467.425" width="2.16663" height="2.16663" fill="#5DB7B9"/>
<rect x="122.338" y="460.925" width="2.16663" height="2.16663" fill="#5DB7B9"/>
<rect x="126.671" y="460.925" width="2.16663" height="2.16663" fill="#5DB7B9"/>
<rect x="128.838" y="463.092" width="2.16663" height="2.16663" fill="#5DB7B9"/>
<rect x="131.005" y="465.258" width="2.16663" height="2.16663" fill="#5DB7B9"/>
<rect x="133.171" y="467.425" width="2.16663" height="2.16663" fill="#5DB7B9"/>
<rect x="135.338" y="467.425" width="2.16663" height="2.16663" fill="#5DB7B9"/>
<rect x="141.837" y="460.925" width="2.16663" height="2.16663" fill="#5DB7B9"/>
<rect x="139.671" y="463.092" width="2.16663" height="2.16663" fill="#5DB7B9"/>
<rect x="139.671" y="465.258" width="2.16663" height="2.16663" fill="#5DB7B9"/>
<rect x="137.504" y="465.258" width="2.16663" height="2.16663" fill="#5DB7B9"/>
<rect x="144.004" y="460.925" width="2.16663" height="2.16663" fill="#5DB7B9"/>
<rect x="146.171" y="460.925" width="2.16663" height="2.16663" fill="#5DB7B9"/>
<rect x="148.337" y="463.092" width="2.16663" height="2.16663" fill="#5DB7B9"/>
<rect x="150.504" y="465.258" width="2.16663" height="2.16663" fill="#5DB7B9"/>
</g>
<g clip-path="url(#clip0_1193_4661)">
<path d="M132.584 292.242V301.197H137.063V305.68H141.537V332.561H146.016V292.242H132.584Z" fill="#513418"/>
<path d="M168.395 292.242V301.197V305.68H172.874V310.163H177.347V332.561H181.827V292.242H168.395Z" fill="#513418"/>
<path d="M132.584 247.436H128.111V242.958H123.631V238.481H110.205V229.521H114.679V233.998H119.158V225.038H123.631V233.998H128.111V242.958H132.584V247.436Z" fill="#28211C"/>
<path d="M190.779 274.322H195.253V269.839H199.732V265.362H204.205V274.322H199.732V278.799H195.253H190.779V274.322Z" fill="#E2AE6A"/>
<path d="M150.489 251.919V256.396H146.016V269.839H150.489V274.322H172.874V269.839H186.3V274.322H190.779V278.799H195.253V292.242V296.72H190.779V305.68V337.038H186.3V314.64H181.827V310.163H177.347V301.197H159.442V305.68H154.969V337.038H150.489V301.197H141.537V296.72H137.063V292.242H132.584V260.879H123.631V251.919H128.111V247.435H123.631V242.958H119.158V233.998H123.631V238.481H128.111V242.958H146.016V238.481H150.489V233.998H154.969V242.958H150.489V251.919Z" fill="#AA7A41"/>
<path d="M132.584 269.839H137.063V278.799H141.537V287.76H146.016V296.72H150.489V301.197H141.537V296.72H137.063V292.243H132.584V269.839Z" fill="#E2AE6A"/>
<path d="M128.105 251.918H123.631V256.396H128.105V251.918Z" fill="#28211C"/>
<path d="M132.584 247.436H128.111V251.919H132.584V247.436Z" fill="#28211C"/>
<path d="M141.537 247.436H137.063V251.919H141.537V247.436Z" fill="#28211C"/>
<path d="M150.489 247.436H154.969V242.958H159.442V238.481H172.874V229.521H168.395V233.998H163.921V225.038H159.442V233.998H154.969V242.958H150.489V247.436Z" fill="#28211C"/>
<path d="M154.963 332.561H150.49V337.038H154.963V332.561Z" fill="#28211C"/>
<path d="M190.779 332.561H186.306V337.038H190.779V332.561Z" fill="#28211C"/>
</g>
<g clip-path="url(#clip1_1193_4661)">
<path d="M444.538 265.529V291.076H448.152V294.724H433.69V280.129H430.077V269.176H426.459V265.529H444.538Z" fill="#513418"/>
<path d="M419.228 239.976V236.324H426.459V232.676H430.077V229.029H444.538V232.676H459V229.029H462.613V225.376H473.462V229.029H477.075V232.676H480.809H487.923V229.029H491.536V239.976V243.624H498.767V250.929H495.154V254.576H491.536V258.224H487.923V291.076H491.536V294.724H477.075V280.129H473.462V276.476H469.844V265.529H459H444.538H430.077V294.724H433.69V298.376H419.228V265.529H415.615V239.976H419.228Z" fill="#754F26"/>
<path d="M491.536 243.624H487.923V239.976H480.692V243.624H477.075V247.276H473.462V250.929H469.844V254.576H473.462V258.224H477.075V261.876H480.692V265.529H484.305V261.876H487.923V258.224H491.536V254.576H495.154V250.929H498.767V243.624H491.536Z" fill="#AA7A41"/>
<path d="M469.844 265.529V294.724H473.462V298.376H459V280.129H455.382V269.176H451.769V265.529H469.844Z" fill="#754F26"/>
<path d="M484.305 265.529V261.876H487.923V291.076H491.536V294.724H477.075V280.129H473.462V265.529H484.305Z" fill="#513418"/>
<path d="M411.998 269.176V254.576H415.615V261.876H419.228V269.176H415.615V272.824H408.385V269.176H411.998Z" fill="#754F26"/>
<path d="M408.385 265.529H411.998V269.181H408.385V265.529Z" fill="#382210"/>
<path d="M404.772 269.176H408.385V272.824H404.772V269.176Z" fill="#382210"/>
<path d="M408.385 272.824H411.998V276.476H408.385V272.824Z" fill="#382210"/>
<path d="M473.462 232.676H469.844V236.324H466.231V239.976H462.613V250.929H459V254.576H462.613V258.224H459V254.576H455.382V250.929H459V239.976H462.613V236.324H466.231V232.676H469.844V229.029H473.462V232.676Z" fill="#AA7A41"/>
<path d="M477.079 239.976H480.692V243.629H477.079V239.976Z" fill="#28211C"/>
<path d="M487.923 239.976H491.536V243.629H487.923V239.976Z" fill="#28211C"/>
<path d="M498.767 243.624V247.276V250.929H495.154V247.276H491.536V243.624H498.767Z" fill="#28211C"/>
<path d="M480.692 250.928H484.305V254.576H487.923V258.224H484.305V254.576H480.692V250.928Z" fill="#28211C"/>
<path d="M491.541 232.676H495.154V243.624H491.541V232.676Z" fill="#754F26"/>
<path d="M491.541 232.676H495.154V236.324H491.541V232.676Z" fill="#513418"/>
<path d="M469.849 232.676H473.462V236.324H469.849V232.676Z" fill="#513418"/>
<path d="M437.308 265.529V269.176H433.69V272.824V276.476H430.077V265.529H437.308Z" fill="#754F26"/>
</g>
<mask id="mask2_1193_4661" style="mask-type:alpha" maskUnits="userSpaceOnUse" x="55" y="0" width="498" height="462">
<path d="M492.751 20.3276L150.144 0.663818L55.9012 59.4353L103.743 358.753L307.253 461.961L489.128 444.85L552.249 204.054L492.751 20.3276Z" fill="#C0F4FF"/>
</mask>
<g mask="url(#mask2_1193_4661)">
<path d="M290.288 284.401H276.149L275.618 317.978H260.37V322.962H231.047V332.346H235.445V373.398H219.611V393.338H190.874L188.528 388.06L153.927 388.353L145.13 391.872L286.174 475.736L519.586 460.194V388.353H440.413V383.368H410.469V376.775H381.248V323.283H360.511V327.524H350.378V287.7H290.288V284.401Z" fill="#8BE6E8"/>
<path d="M315.225 287.504H291.597L290.722 287.504V417.313H296.556V467.195H349.647V417.896H335.061V422.564H311.141V391.935H306.182V342.344H311.433V312.007H315.225V287.504Z" fill="#ADF6F7"/>
<path d="M406.53 428.106V458.735L365.691 464.569V412.646H361.023V389.017H391.944V402.728H402.154V428.106H406.53Z" fill="#ADF6F7"/>
<path d="M440.284 383.188H431.218L431.882 413.26H438.073V428.075H456.647V387.831H440.284V383.188Z" fill="#ADF6F7"/>
<path fill-rule="evenodd" clip-rule="evenodd" d="M308.287 176.538V58.489H303.487V276.069H293.116V154.572H288.316V212.397H273.605V285.135H278.405V217.197H288.316V285.365H293.116V280.869H303.487V285.365H308.287V280.869H317.941V212.599H322.309V207.312H362.765V167.546H367.822V148.136H363.022V162.746H357.965V202.512H333.112V192.371H338.169V181.338H345.194V176.538H308.287ZM333.369 181.338H317.941V202.512H328.312V187.571H333.369V181.338ZM313.141 181.338H308.287V276.069H313.141V181.338Z" fill="#00CF7E"/>
<path fill-rule="evenodd" clip-rule="evenodd" d="M278.432 152.862H305.427V157.662H283.232V200.646H278.635V215.026H273.835V192.601H263.951V187.544H238.868V207.083H224.157V216.636H219.357V202.283H234.068V187.544H204.646V182.717H164.649V156.737H169.449V177.917H209.446V182.744H263.951V182.487H258.434V160.567H263.234V177.687H268.751V187.801H278.432V152.862ZM377.503 167.573H459.436V172.373H382.303V178.12H348.283V191.939H359.675V196.739H348.283V204.912H343.484V173.32H377.503V167.573ZM305.198 197.198H291.176V192.398H305.198V197.198ZM305.657 236.735H290.946V231.935H305.657V236.735Z" fill="#00CF7E"/>
<path fill-rule="evenodd" clip-rule="evenodd" d="M184.39 73.5587V63.7759H179.59V78.3587H184.647V103.184H189.704V152.632H134.51V142.95H159.335V110.898H154.535V138.15H144.624V128.138H139.824V138.15H132.34V142.748H114.742V133.425H109.942V147.548H129.71V152.632H110.733V157.432H129.71V167.573H120.387V172.373H167.049V167.573H134.51V157.432H189.704V167.546H219.587V182.487H239.125V184.914H243.925V177.687H224.387V162.746H194.504V98.384H189.447V73.5587H184.39ZM110.733 172.4H119.467V177.2H110.733V172.4Z" fill="#00CF7E"/>
<path fill-rule="evenodd" clip-rule="evenodd" d="M164.392 68.5015V58.7188H159.592V73.3015H169.476V88.4997H164.879V107.808H139.797V63.546H134.997V87.5804H119.799V73.0989H110.962V77.8989H114.999V92.3804H134.997V107.808H130.4V117.463H120.029V108.14H115.229V122.248H110.44V127.048H124.232V122.263H135.2V112.608H164.879V137.893H174.533V142.72H192.104V137.92H179.333V113.426H174.533V133.093H169.679V93.2997H174.276V68.5015H164.392ZM214.043 143.309V165.146H209.243V143.309H214.043ZM223.954 158.148H280.602V162.948H228.754V167.546H222.217V162.746H223.954V158.148Z" fill="#00CF7E"/>
<path fill-rule="evenodd" clip-rule="evenodd" d="M223.467 58.7188V83.4156H218.525V97.9243H238.638V102.981H254.066V82.7261H239.125V63.7759H243.925V77.9261H278.432V68.603H283.232V82.7261H258.866V102.981H305.887V107.781H283.232V137.461H293.833V123.311H298.633V137.461H305.887V142.261H298.633V155.032H293.833V142.261H278.432V137.434H263.694V142.518H268.521V160.089H263.721V147.318H258.894V137.434H238.638V147.548H234.041V160.549H229.241V142.748H233.838V137.434H219.357V102.724H213.725V83.4156H208.783V78.1287H204.646V63.7758H209.446V73.3287H213.583V78.6156H218.667V58.7188H223.467ZM224.157 102.724V132.634H258.894V122.722H244.284V117.922H263.694V132.634H278.432V107.781H233.838V102.724H224.157ZM194.302 100.554V68.3729H199.102V100.554H194.302ZM150.168 109.749V83.0842H154.968V109.749H150.168ZM204.416 127.347V118.024H209.216V132.147H199.102V137.332H194.302V127.347H204.416Z" fill="#00CF7E"/>
<path fill-rule="evenodd" clip-rule="evenodd" d="M333.369 87.8102V53.6619H338.169V92.6102H333.112V97.4374H323.228V107.322H305.887V102.522H318.428V78.4872H323.228V92.6374H328.312V87.8102H333.369ZM288.776 68.603H293.576V87.8102H303.92V92.4075H305.887V97.2075H299.12V92.6103H288.776V68.603ZM263.951 80.5559H268.751V88.0402H273.348V92.6374H277.945V105.151H273.145V97.4374H268.548V92.8402H263.951V80.5559Z" fill="#00CF7E"/>
<path fill-rule="evenodd" clip-rule="evenodd" d="M338.197 92.6103H336.229V87.8103H342.997V92.8673H347.824V117.693H352.881V147.345H371.987V122.263H368.079V117.666H358.296V112.866H371.987V93.0701H354.08V88.2701H376.787V152.145H352.881V162.029H338.17V167.086H318.989V162.286H333.37V157.229H348.081V152.145H306.347V147.345H318.198V128.138H322.998V147.345H332.91V122.493H327.853V112.609H318.428V105.151H323.228V107.809H332.653V117.693H337.71V147.345H348.081V122.493H343.024V97.6673H338.197V92.6103ZM317.38 172.143H306.117V167.343H317.38V172.143Z" fill="#00CF7E"/>
<path fill-rule="evenodd" clip-rule="evenodd" d="M362.562 73.3288V63.3162H367.362V73.3288H377.375V78.1288H358.168V102.853H353.368V73.3288H362.562ZM387.388 68.603H392.188V73.3288H397.502V68.603H402.302V78.1288H397.245V142.518H402.099V137.921H451.749V95.727H456.549V142.721H426.897V152.375H422.07V157.662H411.726V169.973H406.926V169.743H402.788V158.02H406.926V152.862H417.27V147.575H422.097V142.721H406.899V147.318H397.245V172.17H411.726V186.422H417.243V192.398H427.255V197.198H412.443V191.222H406.926V176.97H392.445V147.318H374.387V142.518H382.56V128.368H387.36V142.518H392.445V78.1288H387.388V68.603Z" fill="#00CF7E"/>
<path fill-rule="evenodd" clip-rule="evenodd" d="M481.375 73.6602V167.086H457.368V162.719H446.665V169.513H441.865V157.662H419.9V152.862H446.665V157.919H471.748V147.778H466.921V137.893H454.379V133.093H476.575V73.6602H481.375ZM476.575 137.893H471.721V142.978H476.548V157.919H476.575V137.893Z" fill="#00CF7E"/>
<path fill-rule="evenodd" clip-rule="evenodd" d="M412.673 102.521V63.5459H417.473V107.321H395.304V102.521H412.673ZM432.644 73.5587V68.3732H427.844V78.3587H432.211V127.807H422.53V118.024H417.73V127.807H395.304V132.607H437.011V73.5587H432.644ZM471.491 108.369V122.492H454.379V117.692H466.691V108.369H471.491Z" fill="#00CF7E"/>
<path fill-rule="evenodd" clip-rule="evenodd" d="M461.634 63.1877H457.368V58.3877H466.434V88.0402H478.975V92.8402H461.634V63.1877ZM447.152 68.6031H451.952V93.3271H478.745V98.1271H451.952V98.1543H453.92V102.954H441.378V107.781H434.841V102.981H436.578V98.1543H447.152V68.6031Z" fill="#00CF7E"/>
<path d="M273.608 271.363H278.515V276.271H273.608V271.363Z" fill="#00FFAE"/>
<path d="M273.608 231.881H278.515V236.789H273.608V231.881Z" fill="#00FFAE"/>
<path d="M273.757 207.55H278.691V212.43H273.757V207.55Z" fill="#00FFAE"/>
<path d="M219.295 211.843H224.202V216.75H219.295V211.843Z" fill="#00FFAE"/>
<path d="M234.144 182.782H239.095V187.548H234.144V182.782Z" fill="#00FFAE"/>
<path d="M258.479 158.095H263.387V163.002H258.479V158.095Z" fill="#00FFAE"/>
<path d="M278.439 167.403H283.347V172.311H278.439V167.403Z" fill="#00FFAE"/>
<path d="M293.631 122.845H298.539V127.753H293.631V122.845Z" fill="#00FFAE"/>
<path d="M263.672 142.498H268.58V147.406H263.672V142.498Z" fill="#00FFAE"/>
<path d="M244.318 117.937H249.226V122.845H244.318V117.937Z" fill="#00FFAE"/>
<path d="M209.13 142.647H214.038V147.555H209.13V142.647Z" fill="#00FFAE"/>
<path d="M204.328 117.937H209.389V122.845H204.328V117.937Z" fill="#00FFAE"/>
<path d="M175.708 152.741H180.616V157.42H175.708V152.741Z" fill="#00FFAE"/>
<path d="M164.595 172.411H169.503V177.105H164.595V172.411Z" fill="#00FFAE"/>
<path d="M139.678 128.173H144.585V133.081H139.678V128.173Z" fill="#00FFAE"/>
<path d="M139.678 133.081H144.585V137.988H139.678V133.081Z" fill="#018348"/>
<path d="M129.735 87.5474H134.643V92.4551H129.735V87.5474Z" fill="#018348"/>
<path d="M159.505 68.4243H174.274V73.332H159.505V68.4243Z" fill="#018348"/>
<path d="M308.078 167.289H318.15V172.197H308.078V167.289Z" fill="#018348"/>
<path d="M180.616 152.741H189.695V157.42H180.616V152.741Z" fill="#018348"/>
<path d="M130.598 137.988H139.678V142.896H130.598V137.988Z" fill="#018348"/>
<path d="M194.158 127.369H204.481V132.66H194.158V127.369Z" fill="#018348"/>
<path d="M159.488 63.5403H164.396V72.8369H159.488V63.5403Z" fill="#018348"/>
<path d="M209.13 147.555H214.038V167.513H209.13V147.555Z" fill="#018348"/>
<path d="M204.328 122.845H209.389V132.66H204.328V122.845Z" fill="#018348"/>
<path d="M466.637 112.687H471.544V122.503H466.637V112.687Z" fill="#018348"/>
<path d="M476.577 137.968H481.484V147.784H476.577V137.968Z" fill="#018348"/>
<path d="M194.158 127.7H199.066V137.516H194.158V127.7Z" fill="#018348"/>
<path d="M119.502 172.431L119.502 177.338L110.205 177.338L110.205 172.431L119.502 172.431Z" fill="#018348"/>
<path d="M175.708 152.741L175.708 157.42L160.807 157.42L160.807 152.741L175.708 152.741Z" fill="#018348"/>
<path d="M115.205 107.18H120.112V112.088H115.205V107.18Z" fill="#00FFAE"/>
<path d="M124.827 87.5474H129.735V92.4551H124.827V87.5474Z" fill="#00FFAE"/>
<path d="M130.179 63.5518H135.086V68.4595H130.179V63.5518Z" fill="#00FFAE"/>
<path d="M139.835 63.4734H144.742V68.3811H139.835V63.4734Z" fill="#00FFAE"/>
<path d="M150.114 82.8486H155.022V87.7563H150.114V82.8486Z" fill="#00FFAE"/>
<path d="M159.531 58.7109H164.438V63.6187H159.531V58.7109Z" fill="#00FFAE"/>
<path d="M179.611 63.7759H184.519V68.6836H179.611V63.7759Z" fill="#00FFAE"/>
<path d="M184.519 73.332H189.427V78.2397H184.519V73.332Z" fill="#00FFAE"/>
<path d="M194.158 68.3811H199.066V73.2888H194.158V68.3811Z" fill="#00FFAE"/>
<path d="M204.481 63.7759H209.389V68.6836H204.481V63.7759Z" fill="#00FFAE"/>
<path d="M218.625 58.7188H223.533V63.6265H218.625V58.7188Z" fill="#00FFAE"/>
<path d="M208.76 78.6873H213.668V83.595H208.76V78.6873Z" fill="#00FFAE"/>
<path d="M239.136 63.3162H244.044V68.2239H239.136V63.3162Z" fill="#00FFAE"/>
<path d="M278.365 68.5332H283.273V73.4409H278.365V68.5332Z" fill="#00FFAE"/>
<path d="M303.433 58.489H308.341V63.3967H303.433V58.489Z" fill="#00FFAE"/>
<path d="M333.316 53.6619H338.223V58.5696H333.316V53.6619Z" fill="#00FFAE"/>
<path d="M318.15 77.9802H323.058V82.8879H318.15V77.9802Z" fill="#00FFAE"/>
<path d="M362.539 63.3162H367.447V68.2239H362.539V63.3162Z" fill="#00FFAE"/>
<path d="M372.493 73.269H377.401V78.1768H372.493V73.269Z" fill="#00FFAE"/>
<path d="M387.348 68.4536H392.256V73.3613H387.348V68.4536Z" fill="#00FFAE"/>
<path d="M397.502 68.4536H402.585V73.3613H397.502V68.4536Z" fill="#00FFAE"/>
<path d="M392.256 78.1768H397.163V83.0845H392.256V78.1768Z" fill="#00FFAE"/>
<path d="M412.699 63.5459H417.607V68.4536H412.699V63.5459Z" fill="#00FFAE"/>
<path d="M427.741 68.3613H432.648V73.6602H427.741V68.3613Z" fill="#00FFAE"/>
<path d="M447.098 68.4536H452.006V73.3613H447.098V68.4536Z" fill="#00FFAE"/>
<path d="M456.908 58.3337H461.816V63.2415H456.908V58.3337Z" fill="#00FFAE"/>
<path d="M476.521 73.6602H481.429V78.5679H476.521V73.6602Z" fill="#00FFAE"/>
<path d="M471.843 87.9922H476.577V92.7688H471.843V87.9922Z" fill="#00FFAE"/>
<path d="M466.637 108.122H471.544V113.03H466.637V108.122Z" fill="#00FFAE"/>
<path d="M476.577 133.113H481.484V138.021H476.577V133.113Z" fill="#00FFAE"/>
<path d="M471.843 152.808H476.751V157.716H471.843V152.808Z" fill="#00FFAE"/>
<path d="M422.514 152.808H427.422V157.716H422.514V152.808Z" fill="#00FFAE"/>
<path d="M387.529 147.315H392.437V152.222H387.529V147.315Z" fill="#00FFAE"/>
<path d="M353.03 168.422H357.937V173.33H353.03V168.422Z" fill="#00FFAE"/>
<path d="M422.514 192.344H427.422V197.252H422.514V192.344Z" fill="#00FFAE"/>
<path d="M476.521 158.095H481.429V163.002H476.521V158.095Z" fill="#00FFAE"/>
<path d="M417.607 117.937H422.514V122.845H417.607V117.937Z" fill="#00FFAE"/>
<path d="M353.314 98.0176H358.221V102.925H353.314V98.0176Z" fill="#00FFAE"/>
<path d="M358.221 112.772H363.129V117.68H358.221V112.772Z" fill="#00FFAE"/>
<path d="M263.897 77.9802H268.804V82.8879H263.897V77.9802Z" fill="#00FFAE"/>
<path d="M258.884 82.7222H263.897V87.7957H258.884V82.7222Z" fill="#00FFAE"/>
<path d="M110.34 73.0117H115.248V77.9194H110.34V73.0117Z" fill="#00FFAE"/>
<path d="M318.15 127.753H323.058V132.66H318.15V127.753Z" fill="#00FFAE"/>
<path d="M293.086 231.881H297.994V236.789H293.086V231.881Z" fill="#00FFAE"/>
<path d="M313.132 231.881H317.958V236.789H313.132V231.881Z" fill="#00FFAE"/>
<path d="M313.243 202.055H318.15V206.963H313.243V202.055Z" fill="#00FFAE"/>
<path d="M303.416 271.14H308.324V276.048H303.416V271.14Z" fill="#00FFAE"/>
<path d="M387.348 73.269H402.585V78.1768H387.348V73.269Z" fill="#018348"/>
<path fill-rule="evenodd" clip-rule="evenodd" d="M273.619 315.187V284.429H278.419V324.82H273.751V384.865H258.476V410.168H268.213V435.584H271.679V440.384H263.413V414.968H253.676V410.215H233.523V334.233H229.053V319.936H258.943V315.187H273.619ZM273.619 319.987H263.743V324.736H233.853V329.433H238.323V405.415H253.676V380.065H268.951V320.02H273.619V319.987Z" fill="#5DB7B9"/>
<path fill-rule="evenodd" clip-rule="evenodd" d="M253.708 322.615H258.508V376.363H263.607V381.163H258.508V382.674H253.708V322.615Z" fill="#5DB7B9"/>
<path fill-rule="evenodd" clip-rule="evenodd" d="M288.334 284.345H293.134V285.017H353.193V325.243H358.45V320.494H383.642V374.966H413.252V380.274H443.701V385.302H508.344V390.102H484.485V425.528H505.83V430.328H484.485V451.672H479.685V430.328H435.549V416.081H429.403V385.074H408.452V379.766H378.842V325.294H363.25V379.88H358.45V330.043H348.393V289.817H293.134V415.192H298.721V466.871H308.168V436.194H304.701V431.394H312.968V471.671H293.921V419.992H288.334V284.345ZM434.203 385.074V411.281H440.349V425.528H479.685V390.102H438.901V385.074H434.203ZM218.219 370.776H255.258V375.576H223.019V421.224H218.219V395.41H186.932V390.661H158.325V385.861H191.732V390.61H218.219V370.776ZM228.555 405.136H235.424V409.936H233.355V425.414H228.555V405.136Z" fill="#5DB7B9"/>
<path fill-rule="evenodd" clip-rule="evenodd" d="M313.475 287.417H318.275V305.41H333.081V389.772H343.416V415.471H352.914V460.332H348.114V420.271H338.616V420.246H337.55V425.579H308.447V394.851H303.419V339.769H309.006V309.6H313.475V287.417ZM322.745 310.21V314.4H313.806V344.569H308.219V390.051H313.247V420.779H332.75V415.446H338.616V394.572H328.281V310.21H322.745ZM399.234 400.387V377.646H404.034V425.528H408.504V456.7H403.704V430.328H399.234V405.187H388.898V390.382H363.808V410.164H368.837V462.008H364.037V414.964H359.008V385.581H393.698V400.387H399.234ZM454.544 448.879V387.423H459.344V448.879H454.544Z" fill="#5DB7B9"/>
</g>
<defs>
<clipPath id="clip0_1193_4661">
<rect width="94" height="112" fill="white" transform="translate(110.205 225.038)"/>
</clipPath>
<clipPath id="clip1_1193_4661">
<rect width="94" height="73" fill="white" transform="matrix(-1 0 0 1 498.767 225.376)"/>
</clipPath>
</defs>
</svg>
