<svg width="236" height="98" viewBox="0 0 236 98" fill="none" xmlns="http://www.w3.org/2000/svg">
<rect x="186.045" y="29.3134" width="10.5222" height="12.6267" fill="#A8E7F4"/>
<rect x="165" y="27.2088" width="2.10445" height="2.10445" fill="#088484"/>
<rect x="167.104" y="29.3134" width="2.10445" height="2.10445" fill="#088484"/>
<rect x="169.209" y="29.3134" width="2.10445" height="2.10445" fill="#088484"/>
<rect x="171.313" y="29.3134" width="2.10445" height="2.10445" fill="#088484"/>
<rect x="173.417" y="29.3134" width="2.10445" height="2.10445" fill="#088484"/>
<rect x="171.313" y="27.2088" width="2.10445" height="2.10445" fill="#088484"/>
<rect x="173.417" y="27.2088" width="2.10445" height="2.10445" fill="#088484"/>
<rect x="175.522" y="27.2088" width="2.10445" height="2.10445" fill="#088484"/>
<rect x="177.627" y="27.2088" width="2.10445" height="2.10445" fill="#088484"/>
<rect x="181.835" y="31.4176" width="2.10445" height="2.10445" fill="#088484"/>
<rect x="181.835" y="33.5222" width="2.10445" height="2.10445" fill="#088484"/>
<rect x="175.522" y="25.1045" width="2.10445" height="2.10445" fill="#088484"/>
<rect x="183.94" y="31.4176" width="2.10445" height="2.10445" fill="#088484"/>
<rect x="183.94" y="35.6266" width="2.10445" height="2.10445" fill="#088484"/>
<rect x="183.94" y="33.5222" width="2.10445" height="2.10445" fill="#088484"/>
<rect x="177.627" y="25.1045" width="2.10445" height="2.10445" fill="#088484"/>
<rect x="183.94" y="37.7312" width="2.10445" height="2.10445" fill="#088484"/>
<rect x="173.417" y="25.1045" width="2.10445" height="2.10445" fill="#088484"/>
<rect x="181.835" y="29.3134" width="2.10445" height="2.10445" fill="#088484"/>
<rect x="183.94" y="29.3134" width="2.10445" height="2.10445" fill="#088484"/>
<rect x="183.94" y="27.2088" width="2.10445" height="2.10445" fill="#088484"/>
<rect x="181.835" y="25.1045" width="2.10445" height="2.10445" fill="#088484"/>
<rect x="177.627" y="23" width="2.10445" height="2.10445" fill="#088484"/>
<rect x="179.731" y="23" width="2.10445" height="2.10445" fill="#088484"/>
<rect x="181.835" y="23" width="2.10445" height="2.10445" fill="#088484"/>
<rect x="179.731" y="25.1045" width="2.10445" height="2.10445" fill="#088484"/>
<rect x="186.045" y="27.2088" width="2.10445" height="2.10445" fill="#088484"/>
<rect x="194.462" y="33.5222" width="2.10445" height="2.10445" fill="#29B8B8" fill-opacity="0.962426"/>
<rect x="192.358" y="37.7312" width="2.10445" height="2.10445" fill="#009E9E"/>
<rect x="188.149" y="33.5222" width="2.10445" height="2.10445" fill="#29B8B8" fill-opacity="0.962426"/>
<rect x="186.045" y="29.3134" width="2.10445" height="2.10445" fill="#088484"/>
<rect x="190.253" y="27.2088" width="2.10445" height="2.10445" fill="#088484"/>
<rect x="194.462" y="27.2088" width="2.10445" height="2.10445" fill="#088484"/>
<rect x="196.567" y="27.2088" width="2.10445" height="2.10445" fill="#088484"/>
<rect x="188.149" y="25.1045" width="2.10445" height="2.10445" fill="#088484"/>
<rect x="190.253" y="25.1045" width="2.10445" height="2.10445" fill="#088484"/>
<rect x="188.149" y="27.2088" width="2.10445" height="2.10445" fill="#088484"/>
<rect x="186.045" y="25.1045" width="2.10445" height="2.10445" fill="#088484"/>
<rect x="192.358" y="25.1045" width="2.10445" height="2.10445" fill="#088484"/>
<rect x="194.462" y="25.1045" width="2.10445" height="2.10445" fill="#088484"/>
<rect x="192.358" y="27.2088" width="2.10445" height="2.10445" fill="#088484"/>
<rect x="183.94" y="25.1045" width="2.10445" height="2.10445" fill="#29B8B8" fill-opacity="0.962426"/>
<rect x="181.835" y="27.2088" width="2.10445" height="2.10445" fill="#29B8B8" fill-opacity="0.962426"/>
<rect x="188.149" y="41.9401" width="4.2089" height="6.31334" fill="#A8E7F4"/>
<rect x="186.045" y="48.2535" width="8.41779" height="8.41779" fill="#29B8B8" fill-opacity="0.962426"/>
<rect x="192.358" y="44.0446" width="2.10445" height="4.2089" fill="#29B8B8" fill-opacity="0.962426"/>
<rect x="186.045" y="44.0446" width="2.10445" height="4.2089" fill="#29B8B8" fill-opacity="0.962426"/>
<rect x="186.045" y="56.6713" width="8.41779" height="2.10445" fill="#A8E7F4"/>
<rect x="183.94" y="58.7758" width="10.5222" height="6.31334" fill="#017171"/>
<rect x="183.94" y="65.0891" width="4.2089" height="2.10445" fill="#017171"/>
<rect x="192.357" y="60.8801" width="4.2089" height="6.31334" fill="#017171"/>
<rect x="192.358" y="67.1935" width="4.2089" height="2.10445" fill="#A8E7F4"/>
<rect x="196.567" y="44.0446" width="4.2089" height="2.10445" transform="rotate(90 196.567 44.0446)" fill="#A8E7F4"/>
<rect x="186.045" y="44.0446" width="4.2089" height="2.10445" transform="rotate(90 186.045 44.0446)" fill="#A8E7F4"/>
<rect x="196.567" y="48.2535" width="4.2089" height="2.10445" fill="#A8E7F4"/>
<rect x="181.835" y="46.149" width="4.2089" height="2.10445" fill="#A8E7F4"/>
<rect x="181.835" y="48.2535" width="4.2089" height="2.10445" transform="rotate(90 181.835 48.2535)" fill="#A8E7F4"/>
<rect x="183.94" y="67.1935" width="2.10445" height="2.10445" fill="#A8E7F4"/>
<rect x="194.462" y="69.298" width="2.10445" height="2.10445" fill="#A8E7F4"/>
<rect x="200.775" y="46.149" width="2.10445" height="2.10445" fill="#A8E7F4"/>
<rect x="181.835" y="52.4622" width="2.10445" height="2.10445" fill="#A8E7F4"/>
<rect x="181.835" y="67.1935" width="2.10445" height="2.10445" fill="#A8E7F4"/>
<rect x="179.731" y="67.1935" width="2.10445" height="4.2089" fill="#088484"/>
<rect x="194.462" y="73.5069" width="2.10445" height="2.10445" transform="rotate(-90 194.462 73.5069)" fill="#A8E7F4"/>
<rect x="194.462" y="75.6112" width="2.10445" height="4.2089" transform="rotate(-90 194.462 75.6112)" fill="#088484"/>
<path d="M42.4873 75.6844C59.2493 75.6844 66.1952 69.4273 66.1952 60.8167C66.1952 51.8043 59.5937 48.5897 47.4815 47.7287C37.7802 47.0398 36.3451 46.7528 36.3451 45.7195C36.3451 44.8585 37.2636 44.0548 40.4208 44.0548C43.9798 44.0548 46.1612 44.9159 46.7926 46.5806H65.7359C62.7509 35.7312 54.944 31.7704 40.9948 31.7704C26.7587 31.7704 18.1481 37.4533 18.1481 47.0398C18.1481 55.306 24.1755 58.865 36.4599 59.7261C46.3908 60.4723 48.1129 60.7593 48.1129 62.0222C48.1129 62.9407 47.0223 63.4573 44.1521 63.4573C41.1671 63.4573 37.895 62.8259 37.321 60.8742H17.1148C18.5499 70.2884 24.6347 75.6844 42.4873 75.6844ZM94.1576 46.6954C96.5686 46.6954 97.6018 47.7287 97.6018 49.2786C97.6018 50.8859 96.2816 51.9191 94.1576 51.9191H87.0969V46.6954H94.1576ZM92.0911 64.3184C95.3631 64.3184 96.2816 65.122 96.2816 68.107V71.7235C96.2816 72.7568 96.6834 73.9048 97.8315 74.4789H116.832C115.569 73.9048 114.88 72.642 114.88 71.2069V68.5663C114.88 62.1944 113.79 59.0372 108.164 57.6595C113.331 55.7078 115.627 52.2636 115.627 47.212C115.627 37.683 110.403 33.1481 93.641 33.1481H69.6461V74.4789H87.0969V64.3184H92.0911ZM160.248 60.5871H136.483V57.5447H158.698V49.2786H136.483V46.4658H159.732V33.1481H119.377V74.4789H160.248V60.5871Z" fill="#088484"/>
</svg>
