<svg width="301" height="65" viewBox="0 0 301 65" fill="none" xmlns="http://www.w3.org/2000/svg">
<rect x="280.12" y="7.53601" width="12.5599" height="15.0718" fill="#A8E7F4"/>
<rect x="255" y="5.02383" width="2.51197" height="2.51197" fill="#088484"/>
<rect x="257.512" y="7.53601" width="2.51197" height="2.51197" fill="#088484"/>
<rect x="260.024" y="7.53601" width="2.51197" height="2.51197" fill="#088484"/>
<rect x="262.536" y="7.53601" width="2.51197" height="2.51197" fill="#088484"/>
<rect x="265.048" y="7.53601" width="2.51197" height="2.51197" fill="#088484"/>
<rect x="262.536" y="5.02383" width="2.51197" height="2.51197" fill="#088484"/>
<rect x="265.048" y="5.02383" width="2.51197" height="2.51197" fill="#088484"/>
<rect x="267.56" y="5.02383" width="2.51197" height="2.51197" fill="#088484"/>
<rect x="270.072" y="5.02383" width="2.51197" height="2.51197" fill="#088484"/>
<rect x="275.096" y="10.0476" width="2.51197" height="2.51197" fill="#088484"/>
<rect x="275.096" y="12.5598" width="2.51197" height="2.51197" fill="#088484"/>
<rect x="267.56" y="2.51202" width="2.51197" height="2.51197" fill="#088484"/>
<rect x="277.608" y="10.0476" width="2.51197" height="2.51197" fill="#088484"/>
<rect x="277.608" y="15.0717" width="2.51197" height="2.51197" fill="#088484"/>
<rect x="277.608" y="12.5598" width="2.51197" height="2.51197" fill="#088484"/>
<rect x="270.072" y="2.51202" width="2.51197" height="2.51197" fill="#088484"/>
<rect x="277.608" y="17.5839" width="2.51197" height="2.51197" fill="#088484"/>
<rect x="265.048" y="2.51202" width="2.51197" height="2.51197" fill="#088484"/>
<rect x="275.096" y="7.53601" width="2.51197" height="2.51197" fill="#088484"/>
<rect x="277.608" y="7.53601" width="2.51197" height="2.51197" fill="#088484"/>
<rect x="277.608" y="5.02383" width="2.51197" height="2.51197" fill="#088484"/>
<rect x="275.096" y="2.51202" width="2.51197" height="2.51197" fill="#088484"/>
<rect x="270.072" width="2.51197" height="2.51197" fill="#088484"/>
<rect x="272.584" width="2.51197" height="2.51197" fill="#088484"/>
<rect x="275.096" width="2.51197" height="2.51197" fill="#088484"/>
<rect x="272.584" y="2.51202" width="2.51197" height="2.51197" fill="#088484"/>
<rect x="280.12" y="5.02383" width="2.51197" height="2.51197" fill="#088484"/>
<rect x="290.168" y="12.5598" width="2.51197" height="2.51197" fill="#29B8B8" fill-opacity="0.962426"/>
<rect x="287.656" y="17.5839" width="2.51197" height="2.51197" fill="#009E9E"/>
<rect x="282.632" y="12.5598" width="2.51197" height="2.51197" fill="#29B8B8" fill-opacity="0.962426"/>
<rect x="280.12" y="7.53601" width="2.51197" height="2.51197" fill="#088484"/>
<rect x="285.144" y="5.02383" width="2.51197" height="2.51197" fill="#088484"/>
<rect x="290.168" y="5.02383" width="2.51197" height="2.51197" fill="#088484"/>
<rect x="292.68" y="5.02383" width="2.51197" height="2.51197" fill="#088484"/>
<rect x="282.632" y="2.51202" width="2.51197" height="2.51197" fill="#088484"/>
<rect x="285.144" y="2.51202" width="2.51197" height="2.51197" fill="#088484"/>
<rect x="282.632" y="5.02383" width="2.51197" height="2.51197" fill="#088484"/>
<rect x="280.12" y="2.51202" width="2.51197" height="2.51197" fill="#088484"/>
<rect x="287.656" y="2.51202" width="2.51197" height="2.51197" fill="#088484"/>
<rect x="290.168" y="2.51202" width="2.51197" height="2.51197" fill="#088484"/>
<rect x="287.656" y="5.02383" width="2.51197" height="2.51197" fill="#088484"/>
<rect x="277.608" y="2.51202" width="2.51197" height="2.51197" fill="#29B8B8" fill-opacity="0.962426"/>
<rect x="275.096" y="5.02383" width="2.51197" height="2.51197" fill="#29B8B8" fill-opacity="0.962426"/>
<rect x="282.632" y="22.6077" width="5.02395" height="7.53592" fill="#A8E7F4"/>
<rect x="280.12" y="30.1438" width="10.0479" height="10.0479" fill="#29B8B8" fill-opacity="0.962426"/>
<rect x="287.656" y="25.1199" width="2.51197" height="5.02395" fill="#29B8B8" fill-opacity="0.962426"/>
<rect x="280.12" y="25.1199" width="2.51197" height="5.02395" fill="#29B8B8" fill-opacity="0.962426"/>
<rect x="280.12" y="40.1918" width="10.0479" height="2.51197" fill="#A8E7F4"/>
<rect x="277.608" y="42.7038" width="12.5599" height="7.53592" fill="#017171"/>
<rect x="277.608" y="50.2397" width="5.02395" height="2.51197" fill="#017171"/>
<rect x="287.655" y="45.2155" width="5.02395" height="7.53592" fill="#017171"/>
<rect x="287.656" y="52.7516" width="5.02395" height="2.51197" fill="#A8E7F4"/>
<rect x="292.68" y="25.1199" width="5.02395" height="2.51197" transform="rotate(90 292.68 25.1199)" fill="#A8E7F4"/>
<rect x="280.12" y="25.1199" width="5.02395" height="2.51197" transform="rotate(90 280.12 25.1199)" fill="#A8E7F4"/>
<rect x="292.68" y="30.1438" width="5.02395" height="2.51197" fill="#A8E7F4"/>
<rect x="275.096" y="27.6318" width="5.02395" height="2.51197" fill="#A8E7F4"/>
<rect x="275.096" y="30.1438" width="5.02395" height="2.51197" transform="rotate(90 275.096 30.1438)" fill="#A8E7F4"/>
<rect x="277.608" y="52.7516" width="2.51197" height="2.51197" fill="#A8E7F4"/>
<rect x="290.168" y="55.2637" width="2.51197" height="2.51197" fill="#A8E7F4"/>
<rect x="297.703" y="27.6318" width="2.51197" height="2.51197" fill="#A8E7F4"/>
<rect x="275.096" y="35.1676" width="2.51197" height="2.51197" fill="#A8E7F4"/>
<rect x="275.096" y="52.7516" width="2.51197" height="2.51197" fill="#A8E7F4"/>
<rect x="272.584" y="52.7516" width="2.51197" height="5.02395" fill="#088484"/>
<rect x="290.168" y="60.2876" width="2.51197" height="2.51197" transform="rotate(-90 290.168 60.2876)" fill="#A8E7F4"/>
<rect x="290.168" y="62.7994" width="2.51197" height="5.02395" transform="rotate(-90 290.168 62.7994)" fill="#088484"/>
<path d="M16.1713 34.2438C26.8065 34.2438 31.2135 30.2738 31.2135 24.8105C31.2135 19.0923 27.025 17.0527 19.34 16.5063C13.1847 16.0693 12.2742 15.8872 12.2742 15.2316C12.2742 14.6852 12.8569 14.1753 14.8601 14.1753C17.1183 14.1753 18.5023 14.7217 18.903 15.7779H30.9221C29.0282 8.89418 24.0748 6.38107 15.2243 6.38107C6.19174 6.38107 0.728468 9.98683 0.728468 16.0693C0.728468 21.314 4.55276 23.5722 12.347 24.1185C18.648 24.592 19.7407 24.7741 19.7407 25.5754C19.7407 26.1581 19.0486 26.4859 17.2275 26.4859C15.3336 26.4859 13.2576 26.0853 12.8934 24.8469H0.072876C0.983421 30.8201 4.84413 34.2438 16.1713 34.2438Z" fill="#088484"/>
<path d="M48.1539 28.999C57.7329 28.999 62.1399 25.5754 62.1399 18.4367C62.1399 11.1887 57.8785 7.2552 48.0811 7.2552H33.4031V33.4789H44.2932V28.999H48.1539ZM47.9354 16.4699C50.23 16.4699 50.9584 17.0891 50.9584 18.5095C50.9584 19.93 50.23 20.5127 47.9718 20.5127H44.2932V16.4699H47.9354Z" fill="#088484"/>
<path d="M90.3551 24.6648H75.2765V22.7345H89.3717V17.4897H75.2765V15.7051H90.0273V7.2552H64.4228V33.4789H90.3551V24.6648Z" fill="#088484"/>
<path d="M118.885 24.6648H103.806V22.7345H117.902V17.4897H103.806V15.7051H118.557V7.2552H92.9527V33.4789H118.885V24.6648Z" fill="#088484"/>
<path d="M136.015 33.4789C145.193 33.4789 151.385 28.999 151.385 20.367C151.385 11.7351 145.339 7.2552 135.942 7.2552H121.483V33.4789H136.015ZM135.287 16.652C138.455 16.652 139.548 17.7811 139.548 20.3306C139.548 22.5888 138.419 23.9364 135.287 23.9364H132.846V16.652H135.287Z" fill="#088484"/>
<path d="M169.335 15.8507C170.865 15.8507 171.52 16.5063 171.52 17.4897C171.52 18.5095 170.683 19.1651 169.335 19.1651H164.855V15.8507H169.335ZM168.024 27.0322C170.1 27.0322 170.683 27.5421 170.683 29.4361V31.7306C170.683 32.3862 170.938 33.1147 171.666 33.4789H183.722C182.92 33.1147 182.483 32.3134 182.483 31.4029V29.7274C182.483 25.6846 181.791 23.6814 178.222 22.8073C181.5 21.569 182.957 19.3837 182.957 16.1785C182.957 10.1325 179.642 7.2552 169.007 7.2552H153.783V33.4789H164.855V27.0322H168.024Z" fill="#088484"/>
<path d="M199.83 34.1709C209.409 34.1709 214.581 29.9824 214.581 20.0392V7.2552H202.744V20.0392C202.744 22.8437 201.761 23.8635 199.903 23.8635C197.936 23.8635 196.989 22.8437 196.989 20.0392V7.2552H185.152V20.0392C185.152 29.7639 188.94 34.1709 199.83 34.1709Z" fill="#088484"/>
<path d="M237.961 33.4789H248.524V7.2552H237.561V18.9102L228.455 7.2552H217.565V33.4789H228.564V21.2776L237.961 33.4789Z" fill="#088484"/>
<path d="M27.4621 54.6648H12.3834V52.7345H26.4787V47.4897H12.3834V45.7051H27.1343V37.2552H1.52975V63.4789H27.4621V54.6648Z" fill="#088484"/>
<path d="M56.9728 47.344V37.2552H30.0207V47.344H37.5964V63.4789H49.2514V47.344H56.9728Z" fill="#088484"/>
<path d="M78.0659 63.4789H89.5752V37.2552H78.0659V45.5594H71.6557V37.2552H60.0735V63.4789H71.6557V55.3568H78.0659V63.4789Z" fill="#088484"/>
<path d="M119.279 54.6648H104.201V52.7345H118.296V47.4897H104.201V45.7051H118.951V37.2552H93.3468V63.4789H119.279V54.6648Z" fill="#088484"/>
<path d="M137.975 45.8507C139.505 45.8507 140.161 46.5063 140.161 47.4897C140.161 48.5095 139.323 49.1651 137.975 49.1651H133.495V45.8507H137.975ZM136.664 57.0322C138.74 57.0322 139.323 57.5421 139.323 59.4361V61.7306C139.323 62.3862 139.578 63.1147 140.306 63.4789H152.362C151.561 63.1147 151.123 62.3134 151.123 61.4029V59.7274C151.123 55.6846 150.431 53.6814 146.862 52.8073C150.14 51.569 151.597 49.3837 151.597 46.1785C151.597 40.1325 148.283 37.2552 137.647 37.2552H122.423V63.4789H133.495V57.0322H136.664Z" fill="#088484"/>
<path d="M180.455 54.6648H165.376V52.7345H179.472V47.4897H165.376V45.7051H180.127V37.2552H154.523V63.4789H180.455V54.6648Z" fill="#088484"/>
<path d="M198.022 64.1709C207.601 64.1709 212.773 59.9824 212.773 50.0392V37.2552H200.936V50.0392C200.936 52.8437 199.952 53.8635 198.095 53.8635C196.128 53.8635 195.181 52.8437 195.181 50.0392V37.2552H183.344V50.0392C183.344 59.7639 187.132 64.1709 198.022 64.1709Z" fill="#088484"/>
<path d="M232.292 57.6878H233.057L237.938 52.0789V63.4789H249.228V37.2552H239.067L232.911 44.9766L226.574 37.2552H216.303V63.4789H227.63V52.1517L232.292 57.6878Z" fill="#088484"/>
</svg>
