<svg width="1821" height="282" viewBox="0 0 1821 282" fill="none" xmlns="http://www.w3.org/2000/svg">
<path d="M1018.52 71.7478L1014.23 67.5782L1009.23 66.6251L1003.39 71.7478L998.747 76.9896L992.671 82.4697V88.5454H1029.48V82.4697L1023.88 76.9896L1018.52 71.7478Z" fill="#009E9E"/>
<path d="M837.976 71.7478L833.688 67.5782L828.684 66.6251L822.846 71.7478L818.2 76.9896L812.125 82.4697V88.5454H848.936V82.4697L843.337 76.9896L837.976 71.7478Z" fill="#009E9E"/>
<path d="M928.453 32.51L924.532 29.3775L918.766 28.2243L913.461 32.51L908.503 38.6031L903.313 43.1239L897.317 49.0973L892.243 54.748L886.131 60.7447L881.287 65.1269L881.979 69.6585L960.282 70.3163V65.1269L954.746 59.9374L949.557 53.7377L943.791 49.0973L939.524 43.9079L933.297 38.6031L928.453 32.51Z" fill="#009E9E"/>
<rect x="918.263" y="3.44171" width="20.7766" height="10.494" fill="#DFF9FF"/>
<rect x="1008.93" y="45.7774" width="15.5051" height="10.494" fill="#DFF9FF"/>
<rect x="828.461" y="45.9091" width="15.5051" height="10.494" fill="#DFF9FF"/>
<path d="M949.112 69.6586H892.618V84.585L884.18 87.9832V104.165H891.896V149.263H851.927V89.2536H809.471V244.787H1032.36V142.766V89.2536H989.907V143.956L977.973 147.104L973.986 151.624L967.126 147.104H958.065L952.758 151.624L947.451 147.104V104.165H958.065L960.861 101.5L960.356 90.8864L955.32 85.5794H949.112V69.6586Z" fill="#DFF9FF"/>
<rect x="851.932" y="149.263" width="138.059" height="18.5742" fill="#66C8C9"/>
<rect x="989.906" y="101.5" width="42.5401" height="21.526" fill="#66C8C9"/>
<rect x="809.387" y="101.5" width="42.5451" height="21.3766" fill="#66C8C9"/>
<rect x="884.021" y="88.0087" width="73.6778" height="21.3772" fill="#66C8C9"/>
<rect x="926.224" y="73.1464" width="22.8509" height="14.8623" fill="#AEF1F1"/>
<rect x="926.224" y="109.386" width="21.2459" height="39.8767" fill="#AEF1F1"/>
<rect x="1016.44" y="90.8864" width="15.9206" height="10.6139" fill="#AEF1F1"/>
<rect x="1016.44" y="123.026" width="15.9206" height="121.761" fill="#AEF1F1"/>
<rect x="970.519" y="167.837" width="19.3873" height="76.1838" fill="#AEF1F1"/>
<rect x="835.837" y="90.8864" width="16.0895" height="10.6139" fill="#AEF1F1"/>
<rect x="836.006" y="122.877" width="15.9209" height="121.13" fill="#AEF1F1"/>
<rect x="947.084" y="236.324" width="36.3055" height="7.68265" fill="#AEF1F1"/>
<rect x="851.927" y="236.324" width="42.8223" height="7.68265" fill="#AEF1F1"/>
<rect x="889.423" y="198.262" width="5.3255" height="44.0535" fill="#AEF1F1"/>
<rect x="931.438" y="203.773" width="5.30693" height="40.2339" fill="#2FBABB"/>
<rect x="905.089" y="203.773" width="5.30693" height="40.2339" fill="#2FBABB"/>
<rect x="910.303" y="198.262" width="21.1347" height="5.30693" fill="#2FBABB"/>
<rect x="931.128" y="119.578" width="5.30693" height="16.4177" fill="#2FBABB"/>
<rect x="904.779" y="119.578" width="5.30693" height="16.4177" fill="#2FBABB"/>
<rect x="909.993" y="114.271" width="21.1347" height="5.30693" fill="#2FBABB"/>
<rect x="904.779" y="130.688" width="31.6555" height="5.30693" fill="#2FBABB"/>
<rect x="957.614" y="88.0088" width="5.30693" height="21.3771" fill="#66C8C9"/>
<rect x="878.912" y="88.0088" width="5.30693" height="21.3771" fill="#66C8C9"/>
<rect x="957.614" y="82.7017" width="5.30693" height="10.9382" transform="rotate(90 957.614 82.7017)" fill="#66C8C9"/>
<rect x="962.921" y="62.5326" width="5.30693" height="5.30693" transform="rotate(90 962.921 62.5326)" fill="#009E9E"/>
<rect x="884.219" y="62.5326" width="5.30693" height="5.30693" transform="rotate(90 884.219 62.5326)" fill="#009E9E"/>
<rect x="952.307" y="51.9188" width="5.30693" height="5.30693" transform="rotate(90 952.307 51.9188)" fill="#009E9E"/>
<rect x="952.321" y="51.9188" width="5.30693" height="5.30693" transform="rotate(90 952.321 51.9188)" fill="#088484"/>
<rect x="952.321" y="57.2257" width="5.30693" height="5.30693" transform="rotate(90 952.321 57.2257)" fill="#088484"/>
<rect x="941.693" y="41.3048" width="5.30693" height="5.30693" transform="rotate(90 941.693 41.3048)" fill="#009E9E"/>
<rect x="941.707" y="41.3048" width="5.30693" height="5.30693" transform="rotate(90 941.707 41.3048)" fill="#088484"/>
<rect x="941.707" y="46.6118" width="5.30693" height="5.30693" transform="rotate(90 941.707 46.6118)" fill="#088484"/>
<rect x="957.614" y="57.2256" width="5.30693" height="5.30693" transform="rotate(90 957.614 57.2256)" fill="#009E9E"/>
<rect x="957.628" y="57.2257" width="5.30693" height="5.30693" transform="rotate(90 957.628 57.2257)" fill="#088484"/>
<rect x="957.628" y="62.5326" width="5.30693" height="5.30693" transform="rotate(90 957.628 62.5326)" fill="#088484"/>
<rect x="947" y="46.6118" width="5.30693" height="5.30693" transform="rotate(90 947 46.6118)" fill="#009E9E"/>
<rect x="947.014" y="46.6118" width="5.30693" height="5.30693" transform="rotate(90 947.014 46.6118)" fill="#088484"/>
<rect x="947.014" y="51.9187" width="5.30693" height="5.30693" transform="rotate(90 947.014 51.9187)" fill="#088484"/>
<rect x="936.386" y="35.9978" width="5.30693" height="5.30693" transform="rotate(90 936.386 35.9978)" fill="#009E9E"/>
<rect x="936.4" y="35.9979" width="5.30693" height="5.30693" transform="rotate(90 936.4 35.9979)" fill="#088484"/>
<rect x="936.4" y="41.3048" width="5.30693" height="5.30693" transform="rotate(90 936.4 41.3048)" fill="#088484"/>
<rect x="931.079" y="30.691" width="5.30693" height="5.30693" transform="rotate(90 931.079 30.691)" fill="#009E9E"/>
<rect x="931.094" y="30.691" width="5.30693" height="5.30693" transform="rotate(90 931.094 30.691)" fill="#088484"/>
<rect x="931.094" y="35.9979" width="5.30693" height="5.30693" transform="rotate(90 931.094 35.9979)" fill="#088484"/>
<rect x="942.144" y="3.45355" width="12.2261" height="5.30693" transform="rotate(90 942.144 3.45355)" fill="#DFF9FF"/>
<rect width="5.30693" height="5.30693" transform="matrix(4.37114e-08 1 1 -4.37114e-08 889.526 51.9188)" fill="#009E9E"/>
<rect width="5.30693" height="5.30693" transform="matrix(4.37114e-08 1 1 -4.37114e-08 900.14 41.3048)" fill="#009E9E"/>
<rect width="5.30693" height="5.30693" transform="matrix(4.37114e-08 1 1 -4.37114e-08 884.219 57.2256)" fill="#009E9E"/>
<rect width="5.30693" height="5.30693" transform="matrix(4.37114e-08 1 1 -4.37114e-08 894.833 46.6118)" fill="#009E9E"/>
<rect width="5.30693" height="5.30693" transform="matrix(4.37114e-08 1 1 -4.37114e-08 905.447 35.9978)" fill="#009E9E"/>
<rect width="5.30693" height="5.30693" transform="matrix(4.37114e-08 1 1 -4.37114e-08 910.754 30.691)" fill="#009E9E"/>
<rect x="895.158" y="82.7017" width="5.30693" height="10.9382" transform="rotate(90 895.158 82.7017)" fill="#66C8C9"/>
<rect x="910.284" y="82.7017" width="5.30693" height="9.81965" transform="rotate(90 910.284 82.7017)" fill="#66C8C9"/>
<rect x="906.836" y="143.956" width="5.30693" height="15.1266" transform="rotate(90 906.836 143.956)" fill="#66C8C9"/>
<rect x="928.474" y="143.956" width="5.30693" height="16.3307" transform="rotate(90 928.474 143.956)" fill="#66C8C9"/>
<rect x="950.086" y="143.956" width="5.30693" height="15.9953" transform="rotate(90 950.086 143.956)" fill="#66C8C9"/>
<rect x="970.519" y="143.956" width="5.30693" height="15.1266" transform="rotate(90 970.519 143.956)" fill="#66C8C9"/>
<rect x="989.907" y="143.956" width="5.30693" height="14.0803" transform="rotate(90 989.907 143.956)" fill="#66C8C9"/>
<rect x="886.403" y="143.956" width="5.30693" height="15.1266" transform="rotate(90 886.403 143.956)" fill="#66C8C9"/>
<rect x="865.969" y="143.956" width="5.30693" height="14.043" transform="rotate(90 865.969 143.956)" fill="#66C8C9"/>
<rect x="926.315" y="82.7017" width="5.30693" height="10.8654" transform="rotate(90 926.315 82.7017)" fill="#66C8C9"/>
<rect x="906.836" y="149.263" width="5.30693" height="5.30693" fill="#D1F7FF"/>
<rect x="910.284" y="88.0088" width="5.30693" height="10.9382" fill="#D1F7FF"/>
<rect x="928.474" y="149.263" width="5.61688" height="5.30693" fill="#AEF1F1"/>
<rect x="950.086" y="149.263" width="5.30693" height="5.30693" fill="#5EDDDE"/>
<rect x="970.519" y="149.263" width="5.30693" height="5.30693" fill="#5EDDDE"/>
<rect x="941.442" y="82.7017" width="5.30693" height="9.81965" transform="rotate(90 941.442 82.7017)" fill="#66C8C9"/>
<rect x="886.403" y="149.263" width="5.30693" height="5.30693" fill="#5EDDDE"/>
<rect x="865.969" y="149.263" width="5.30693" height="5.30693" fill="#5EDDDE"/>
<rect x="895.158" y="88.0088" width="5.30693" height="10.9382" fill="#D1F7FF"/>
<rect x="926.315" y="88.0088" width="5.30693" height="10.9382" fill="#AEF1F1"/>
<rect x="941.442" y="88.0088" width="5.30693" height="10.9382" fill="#AEF1F1"/>
<rect x="962.921" y="67.8395" width="5.30693" height="84.0085" transform="rotate(90 962.921 67.8395)" fill="#009E9E"/>
<rect x="919.173" y="5.9754" width="5.30693" height="22.9717" transform="rotate(-90 919.173 5.9754)" fill="#DFF9FF"/>
<rect x="919.173" y="16.5892" width="5.30693" height="22.9717" transform="rotate(-90 919.173 16.5892)" fill="#DFF9FF"/>
<rect x="915.61" y="0.668457" width="5.30693" height="24.7156" fill="#2FBABB"/>
<rect x="915.61" y="30.691" width="5.30695" height="10.6139" transform="rotate(-90 915.61 30.691)" fill="#009E9E"/>
<rect x="915.624" y="30.691" width="5.30695" height="10.6139" transform="rotate(-90 915.624 30.691)" fill="#088484"/>
<rect x="920.917" y="35.9979" width="5.30695" height="5.3211" transform="rotate(-90 920.917 35.9979)" fill="#088484"/>
<rect x="1016.44" y="143.956" width="5.30693" height="21.2277" fill="#2FBABB"/>
<rect x="1000.52" y="143.956" width="5.30693" height="21.2277" fill="#2FBABB"/>
<rect x="1005.83" y="138.649" width="10.6139" height="5.30693" fill="#2FBABB"/>
<rect x="1000.52" y="159.876" width="21.2277" height="5.30693" fill="#2FBABB"/>
<rect x="984.6" y="106.88" width="5.30693" height="15.9976" fill="#66C8C9"/>
<rect x="989.907" y="80.2725" width="5.30693" height="5.30695" fill="#009E9E"/>
<rect x="1026.63" y="45.9091" width="12.2261" height="5.30693" transform="rotate(90 1026.63 45.9091)" fill="#DFF9FF"/>
<rect x="1006.25" y="48.4309" width="5.30693" height="20.381" transform="rotate(-90 1006.25 48.4309)" fill="#DFF9FF"/>
<rect x="1006.25" y="59.0447" width="5.30693" height="20.381" transform="rotate(-90 1006.25 59.0447)" fill="#DFF9FF"/>
<rect x="1005.83" y="43.124" width="5.30693" height="21.2277" fill="#2FBABB"/>
<rect x="1027.06" y="80.2725" width="5.30693" height="10.6139" fill="#009E9E"/>
<rect x="1032.36" y="106.88" width="5.30693" height="15.6978" fill="#66C8C9"/>
<rect x="1016.44" y="101.5" width="5.30693" height="10.6138" fill="#AEF1F1"/>
<rect x="1000.52" y="101.5" width="5.30693" height="10.6138" fill="#D1F7FF"/>
<rect x="1005.83" y="69.6586" width="5.30695" height="10.6139" transform="rotate(-90 1005.83 69.6586)" fill="#009E9E"/>
<rect x="995.214" y="80.2725" width="5.30693" height="5.30693" transform="rotate(-90 995.214 80.2725)" fill="#009E9E"/>
<rect x="1021.75" y="80.2725" width="5.30693" height="5.30693" transform="rotate(-90 1021.75 80.2725)" fill="#009E9E"/>
<rect x="1016.44" y="74.9656" width="5.30693" height="5.30693" transform="rotate(-90 1016.44 74.9656)" fill="#009E9E"/>
<rect x="1000.52" y="74.9656" width="5.30693" height="5.30693" transform="rotate(-90 1000.52 74.9656)" fill="#009E9E"/>
<rect x="984.6" y="90.8864" width="5.30693" height="53.0693" transform="rotate(-90 984.6 90.8864)" fill="#009E9E"/>
<rect x="1016.44" y="191.718" width="5.30693" height="21.2277" fill="#2FBABB"/>
<rect x="1000.52" y="191.718" width="5.30693" height="21.2277" fill="#2FBABB"/>
<rect x="1005.83" y="186.411" width="10.6139" height="5.30693" fill="#2FBABB"/>
<rect x="1000.52" y="207.639" width="21.2277" height="5.30693" fill="#2FBABB"/>
<rect x="1005.77" y="69.6584" width="5.30695" height="10.6139" transform="rotate(-90 1005.77 69.6584)" fill="#088484"/>
<rect x="1021.99" y="80.2722" width="5.30693" height="5.30693" transform="rotate(-90 1021.99 80.2722)" fill="#088484"/>
<rect x="1016.68" y="74.9653" width="5.30693" height="5.30693" transform="rotate(-90 1016.68 74.9653)" fill="#088484"/>
<rect x="1011.13" y="74.9656" width="5.30695" height="5.55007" transform="rotate(-90 1011.13 74.9656)" fill="#088484"/>
<rect x="1021.99" y="85.5795" width="5.30693" height="10.3704" transform="rotate(-90 1021.99 85.5795)" fill="#088484"/>
<rect x="1027.3" y="90.8862" width="5.30693" height="10.3704" transform="rotate(-90 1027.3 90.8862)" fill="#088484"/>
<rect x="1016.68" y="80.2725" width="5.30693" height="5.30693" transform="rotate(-90 1016.68 80.2725)" fill="#088484"/>
<rect x="846.196" y="45.9091" width="12.2261" height="5.30693" transform="rotate(90 846.196 45.9091)" fill="#DFF9FF"/>
<rect x="825.815" y="48.4309" width="5.30693" height="20.381" transform="rotate(-90 825.815 48.4309)" fill="#DFF9FF"/>
<rect x="825.815" y="59.0447" width="5.30693" height="20.381" transform="rotate(-90 825.815 59.0447)" fill="#DFF9FF"/>
<rect x="825.392" y="43.124" width="5.30693" height="21.2277" fill="#2FBABB"/>
<rect x="836.005" y="143.956" width="5.30693" height="21.2277" fill="#2FBABB"/>
<rect x="820.085" y="143.956" width="5.30693" height="21.2277" fill="#2FBABB"/>
<rect x="825.392" y="138.649" width="10.6139" height="5.30693" fill="#2FBABB"/>
<rect x="820.085" y="159.876" width="21.2277" height="5.30693" fill="#2FBABB"/>
<rect x="804.164" y="106.88" width="5.30693" height="15.9976" fill="#66C8C9"/>
<rect x="809.471" y="80.2724" width="5.30693" height="10.6139" fill="#009E9E"/>
<rect x="846.62" y="80.2724" width="5.30693" height="10.6139" fill="#088484"/>
<rect x="851.927" y="106.88" width="5.30693" height="15.6978" fill="#66C8C9"/>
<rect x="836.006" y="101.5" width="5.30693" height="10.4644" fill="#AEF1F1"/>
<rect x="820.085" y="101.5" width="5.30693" height="10.4644" fill="#D1F7FF"/>
<rect x="825.392" y="69.6586" width="5.30695" height="10.6139" transform="rotate(-90 825.392 69.6586)" fill="#088484"/>
<rect x="814.778" y="80.2724" width="5.30693" height="5.30693" transform="rotate(-90 814.778 80.2724)" fill="#009E9E"/>
<rect x="841.313" y="80.2724" width="5.30693" height="5.30693" transform="rotate(-90 841.313 80.2724)" fill="#088484"/>
<rect x="836.006" y="74.9655" width="5.30693" height="5.30693" transform="rotate(-90 836.006 74.9655)" fill="#088484"/>
<rect x="820.085" y="74.9655" width="5.30693" height="5.30693" transform="rotate(-90 820.085 74.9655)" fill="#009E9E"/>
<rect x="804.164" y="90.8864" width="5.30693" height="53.0693" transform="rotate(-90 804.164 90.8864)" fill="#009E9E"/>
<rect x="836.005" y="191.718" width="5.30693" height="21.2277" fill="#2FBABB"/>
<rect x="820.085" y="191.718" width="5.30693" height="21.2277" fill="#2FBABB"/>
<rect x="825.392" y="186.411" width="10.6139" height="5.30693" fill="#2FBABB"/>
<rect x="820.085" y="207.639" width="21.2277" height="5.30693" fill="#2FBABB"/>
<rect x="830.699" y="74.9655" width="5.30695" height="5.30697" transform="rotate(-90 830.699 74.9655)" fill="#088484"/>
<rect x="841.313" y="85.5794" width="5.30693" height="5.30693" transform="rotate(-90 841.313 85.5794)" fill="#088484"/>
<rect x="836.006" y="80.2724" width="5.30693" height="5.30693" transform="rotate(-90 836.006 80.2724)" fill="#088484"/>
<rect x="894.749" y="198.262" width="5.30693" height="45.7445" fill="#2FBABB"/>
<rect width="5.30693" height="45.7445" transform="matrix(-1 0 0 1 947.084 198.262)" fill="#2FBABB"/>
<rect x="905.362" y="187.648" width="31.1078" height="5.30693" fill="#2FBABB"/>
<rect x="900.056" y="192.955" width="5.30693" height="5.30693" fill="#2FBABB"/>
<rect width="5.30693" height="5.30693" transform="matrix(-1 0 0 1 941.777 192.955)" fill="#2FBABB"/>
<rect x="962.935" y="62.5326" width="10.6138" height="5.30693" transform="rotate(90 962.935 62.5326)" fill="#088484"/>
<rect x="926.315" y="0.728333" width="6.6703" height="15.9208" fill="#AEF1F1"/>
<rect x="910.303" y="203.388" width="21.2277" height="40.6184" fill="#AEF1F1"/>
<rect x="1005.83" y="191.718" width="10.6139" height="15.9208" fill="#AEF1F1"/>
<rect x="825.224" y="191.718" width="10.6139" height="15.9208" fill="#AEF1F1"/>
<rect x="1005.83" y="144.105" width="10.6139" height="15.9208" fill="#AEF1F1"/>
<rect x="825.224" y="144.105" width="10.6139" height="15.9208" fill="#AEF1F1"/>
<rect x="910.086" y="119.578" width="21.0416" height="11.1108" fill="#AEF1F1"/>
<rect x="894.749" y="192.955" width="5.30693" height="5.30693" fill="#AEF1F1"/>
<rect x="900.056" y="187.648" width="5.30693" height="5.30693" fill="#AEF1F1"/>
<rect x="900.464" y="109.386" width="47.005" height="5.30693" fill="#AEF1F1"/>
<rect x="816.842" y="122.479" width="35.0841" height="5.30693" fill="#AEF1F1"/>
<rect x="997.278" y="122.479" width="35.0841" height="5.30693" fill="#AEF1F1"/>
<rect x="863.628" y="167.837" width="126.278" height="5.30693" fill="#AEF1F1"/>
<path d="M746.918 225.66V230.265H742.314V244.078H751.523V225.66H746.918Z" fill="#088484"/>
<path d="M746.918 225.66H742.314V230.265H746.918V225.66Z" fill="#088484"/>
<path d="M756.127 221.055H751.523V225.66H756.127V221.055Z" fill="#088484"/>
<path d="M751.523 221.055H746.918V225.66H751.523V221.055Z" fill="#088484"/>
<path d="M746.918 225.66V221.056H737.709V216.451H723.896V211.846H719.291V221.056H723.896V225.66H733.105V230.265H742.314V225.66H746.918Z" fill="#088484"/>
<path d="M774.546 216.451H769.941V221.056H774.546V216.451Z" fill="#088484"/>
<path d="M769.941 216.451H765.337V221.056H769.941V216.451Z" fill="#009E9E"/>
<path d="M765.337 211.846H760.732V216.451H751.523V211.846H746.918V207.242H737.709V211.846H742.314V216.451H746.918V221.056H756.128V225.66H751.523V230.265H760.732V225.66H769.941V221.056H765.337V211.846Z" fill="#088484"/>
<path d="M746.918 216.451H737.709V221.056H746.918V216.451Z" fill="#009E9E"/>
<path d="M774.546 211.846H765.337V216.451H774.546V211.846Z" fill="#2FBABB"/>
<path d="M742.314 211.846H737.709V216.451H742.314V211.846Z" fill="#2FBABB"/>
<path d="M737.709 211.846H728.5V216.451H737.709V211.846Z" fill="#009E9E"/>
<path d="M728.5 211.846H723.896V216.451H728.5V211.846Z" fill="#2FBABB"/>
<path d="M774.546 207.242H765.337V211.846H774.546V207.242Z" fill="#088484"/>
<path d="M760.732 207.242H756.127V211.846H760.732V207.242Z" fill="#088484"/>
<path d="M756.128 202.637H746.918V211.846H751.523V216.451H760.732V211.846H756.128V202.637Z" fill="#009E9E"/>
<path d="M737.709 207.242H728.5V211.846H737.709V207.242Z" fill="#2FBABB"/>
<path d="M728.5 207.242H723.896V211.846H728.5V207.242Z" fill="#088484"/>
<path d="M723.896 207.242H728.5V202.637H737.709V207.242H742.314V198.033H746.918V193.428H733.105V198.033H723.896V202.637H719.291V211.846H723.896V207.242Z" fill="#009E9E"/>
<path d="M760.732 202.637H756.127V207.242H760.732V202.637Z" fill="#2FBABB"/>
<path d="M746.918 202.637H742.314V207.242H746.918V202.637Z" fill="#2FBABB"/>
<path d="M737.709 202.637H728.5V207.242H737.709V202.637Z" fill="#088484"/>
<path d="M774.546 198.033H769.941V202.637H774.546V198.033Z" fill="#2FBABB"/>
<path d="M769.941 198.033H760.732V211.846H765.336V207.242H774.546V202.637H769.941V198.033Z" fill="#009E9E"/>
<path d="M760.732 198.033H756.127V202.637H760.732V198.033Z" fill="#088484"/>
<path d="M756.128 198.033H746.918V202.637H756.128V198.033Z" fill="#2FBABB"/>
<path d="M746.918 198.033H742.314V202.637H746.918V198.033Z" fill="#088484"/>
<path d="M723.896 198.033H719.291V202.637H723.896V198.033Z" fill="#2FBABB"/>
<path d="M769.941 193.428H760.732V198.033H769.941V193.428Z" fill="#2FBABB"/>
<path d="M760.732 193.428H756.127V198.033H760.732V193.428Z" fill="#009E9E"/>
<path d="M756.128 193.428H746.918V198.033H756.128V193.428Z" fill="#088484"/>
<path d="M733.105 193.428H723.896V198.033H733.105V193.428Z" fill="#2FBABB"/>
<path d="M760.732 188.824H733.105V193.428H760.732V188.824Z" fill="#2FBABB"/>
<rect x="1136.25" y="229.742" width="49.8137" height="14.2325" fill="#009E9E"/>
<rect x="1186.07" y="233.3" width="10.6744" height="10.6744" fill="#009E9E"/>
<rect x="1136.25" y="229.742" width="49.8137" height="3.55812" fill="#29B8B8" fill-opacity="0.962426"/>
<rect x="1186.07" y="233.3" width="10.6744" height="3.55812" fill="#29B8B8" fill-opacity="0.962426"/>
<rect x="1161.16" y="233.3" width="10.6744" height="3.55812" fill="#29B8B8" fill-opacity="0.962426"/>
<rect x="1148.71" y="226.184" width="10.6744" height="3.55812" fill="#29B8B8" fill-opacity="0.962426"/>
<rect x="1175.39" y="226.184" width="10.6744" height="3.55812" fill="#29B8B8" fill-opacity="0.962426"/>
<rect x="1139.81" y="233.3" width="10.6744" height="3.55812" fill="#29B8B8" fill-opacity="0.962426"/>
<rect x="1143.37" y="236.858" width="3.55812" height="3.55812" fill="#29B8B8" fill-opacity="0.962426"/>
<rect x="1175.39" y="233.3" width="3.55812" height="3.55812" fill="#29B8B8" fill-opacity="0.962426"/>
<rect x="1186.07" y="236.858" width="3.55812" height="3.55812" fill="#29B8B8" fill-opacity="0.962426"/>
<rect width="49.8137" height="14.2325" transform="matrix(-1 0 0 1 680.948 229.747)" fill="#009E9E"/>
<rect width="10.6744" height="10.6744" transform="matrix(-1 0 0 1 631.134 233.306)" fill="#009E9E"/>
<rect width="49.8137" height="3.55812" transform="matrix(-1 0 0 1 680.948 229.747)" fill="#29B8B8" fill-opacity="0.962426"/>
<rect width="10.6744" height="3.55812" transform="matrix(-1 0 0 1 631.134 233.306)" fill="#29B8B8" fill-opacity="0.962426"/>
<rect width="10.6744" height="3.55812" transform="matrix(-1 0 0 1 656.041 233.306)" fill="#29B8B8" fill-opacity="0.962426"/>
<rect width="10.6744" height="3.55812" transform="matrix(-1 0 0 1 668.494 226.189)" fill="#29B8B8" fill-opacity="0.962426"/>
<rect width="10.6744" height="3.55812" transform="matrix(-1 0 0 1 641.809 226.189)" fill="#29B8B8" fill-opacity="0.962426"/>
<rect width="10.6744" height="3.55812" transform="matrix(-1 0 0 1 677.39 233.306)" fill="#29B8B8" fill-opacity="0.962426"/>
<rect width="3.55812" height="3.55812" transform="matrix(-1 0 0 1 673.832 236.864)" fill="#29B8B8" fill-opacity="0.962426"/>
<rect width="3.55812" height="3.55812" transform="matrix(-1 0 0 1 641.809 233.306)" fill="#29B8B8" fill-opacity="0.962426"/>
<rect width="3.55812" height="3.55812" transform="matrix(-1 0 0 1 631.134 236.864)" fill="#29B8B8" fill-opacity="0.962426"/>
<rect width="44.7601" height="12.7886" transform="matrix(-1 0 0 1 220.568 231.191)" fill="#009E9E"/>
<rect width="9.59145" height="9.59145" transform="matrix(-1 0 0 1 175.808 234.389)" fill="#009E9E"/>
<rect width="44.7601" height="3.19715" transform="matrix(-1 0 0 1 220.568 231.191)" fill="#29B8B8" fill-opacity="0.962426"/>
<rect width="9.59145" height="3.19715" transform="matrix(-1 0 0 1 175.808 234.389)" fill="#29B8B8" fill-opacity="0.962426"/>
<rect width="9.59145" height="3.19715" transform="matrix(-1 0 0 1 198.188 234.389)" fill="#29B8B8" fill-opacity="0.962426"/>
<rect width="9.59145" height="3.19715" transform="matrix(-1 0 0 1 209.378 227.994)" fill="#29B8B8" fill-opacity="0.962426"/>
<rect width="9.59145" height="3.19715" transform="matrix(-1 0 0 1 185.399 227.994)" fill="#29B8B8" fill-opacity="0.962426"/>
<rect width="9.59145" height="3.19715" transform="matrix(-1 0 0 1 217.371 234.389)" fill="#29B8B8" fill-opacity="0.962426"/>
<rect width="3.19715" height="3.19715" transform="matrix(-1 0 0 1 214.173 237.586)" fill="#29B8B8" fill-opacity="0.962426"/>
<rect width="3.19715" height="3.19715" transform="matrix(-1 0 0 1 185.399 234.389)" fill="#29B8B8" fill-opacity="0.962426"/>
<rect width="3.19715" height="3.19715" transform="matrix(-1 0 0 1 175.808 237.586)" fill="#29B8B8" fill-opacity="0.962426"/>
<rect width="49.8137" height="17.7906" transform="matrix(-1 0 0 1 1403.42 226.189)" fill="#009E9E"/>
<rect width="10.6744" height="10.6744" transform="matrix(-1 0 0 1 1353.6 233.306)" fill="#009E9E"/>
<rect width="10.6744" height="10.6744" transform="matrix(-1 0 0 1 1414.09 233.306)" fill="#009E9E"/>
<rect width="7.11624" height="7.11624" transform="matrix(-1 0 0 1 1421.21 236.864)" fill="#009E9E"/>
<rect width="49.8137" height="3.55812" transform="matrix(-1 0 0 1 1403.42 226.189)" fill="#29B8B8" fill-opacity="0.962426"/>
<rect width="10.6744" height="3.55812" transform="matrix(-1 0 0 1 1353.6 233.306)" fill="#29B8B8" fill-opacity="0.962426"/>
<rect width="14.2325" height="3.55812" transform="matrix(-1 0 0 1 1378.51 233.306)" fill="#29B8B8" fill-opacity="0.962426"/>
<rect width="10.6744" height="3.55812" transform="matrix(-1 0 0 1 1414.09 233.306)" fill="#29B8B8" fill-opacity="0.962426"/>
<rect width="10.6744" height="3.55812" transform="matrix(-1 0 0 1 1378.51 229.748)" fill="#29B8B8" fill-opacity="0.962426"/>
<rect width="10.6744" height="3.55812" transform="matrix(-1 0 0 1 1384.74 222.631)" fill="#29B8B8" fill-opacity="0.962426"/>
<rect width="10.6744" height="3.55812" transform="matrix(-1 0 0 1 1395.41 222.631)" fill="#29B8B8" fill-opacity="0.962426"/>
<rect width="10.6744" height="3.55812" transform="matrix(-1 0 0 1 1399.86 229.748)" fill="#29B8B8" fill-opacity="0.962426"/>
<rect width="3.55812" height="3.55812" transform="matrix(-1 0 0 1 1353.6 236.864)" fill="#29B8B8" fill-opacity="0.962426"/>
<rect width="3.55812" height="3.55812" transform="matrix(-1 0 0 1 1403.42 229.748)" fill="#29B8B8" fill-opacity="0.962426"/>
<rect width="3.55812" height="3.55812" transform="matrix(-1 0 0 1 1364.28 229.748)" fill="#29B8B8" fill-opacity="0.962426"/>
<rect width="3.55812" height="3.55812" transform="matrix(-1 0 0 1 1406.98 236.864)" fill="#29B8B8" fill-opacity="0.962426"/>
<rect width="10.6744" height="10.6744" transform="matrix(-1 0 0 1 1087.92 233.306)" fill="#009E9E"/>
<rect width="10.6744" height="10.6744" transform="matrix(-1 0 0 1 1098.59 233.306)" fill="#009E9E"/>
<rect width="7.11624" height="7.11624" transform="matrix(-1 0 0 1 1105.71 236.864)" fill="#009E9E"/>
<rect width="10.6744" height="3.55812" transform="matrix(-1 0 0 1 1087.92 233.306)" fill="#29B8B8" fill-opacity="0.962426"/>
<rect width="10.6744" height="3.55812" transform="matrix(-1 0 0 1 1098.59 233.306)" fill="#29B8B8" fill-opacity="0.962426"/>
<rect width="3.55812" height="3.55812" transform="matrix(-1 0 0 1 1087.92 236.864)" fill="#29B8B8" fill-opacity="0.962426"/>
<rect width="3.55812" height="3.55812" transform="matrix(-1 0 0 1 1080.8 236.864)" fill="#29B8B8" fill-opacity="0.962426"/>
<rect width="3.55812" height="3.55812" transform="matrix(-1 0 0 1 1091.48 236.864)" fill="#29B8B8" fill-opacity="0.962426"/>
<rect width="3.55812" height="3.55812" transform="matrix(-1 0 0 1 1095.04 229.747)" fill="#29B8B8" fill-opacity="0.962426"/>
<rect width="3.55812" height="3.55812" transform="matrix(-1 0 0 1 1091.48 229.747)" fill="#29B8B8" fill-opacity="0.962426"/>
<rect x="1067.46" y="240.422" width="9.78483" height="3.55812" fill="#009E9E"/>
<rect x="1535.45" y="233.348" width="10.6316" height="10.6316" fill="#009E9E"/>
<rect x="1524.82" y="233.348" width="10.6316" height="10.6316" fill="#009E9E"/>
<rect x="1517.73" y="236.892" width="7.08772" height="7.08772" fill="#009E9E"/>
<rect x="1535.45" y="233.348" width="10.6316" height="3.54386" fill="#29B8B8" fill-opacity="0.962426"/>
<rect x="1524.82" y="233.348" width="10.6316" height="3.54386" fill="#29B8B8" fill-opacity="0.962426"/>
<rect x="1535.45" y="236.892" width="3.54386" height="3.54386" fill="#29B8B8" fill-opacity="0.962426"/>
<rect x="1542.54" y="236.892" width="3.54386" height="3.54386" fill="#29B8B8" fill-opacity="0.962426"/>
<rect x="1531.91" y="236.892" width="3.54386" height="3.54386" fill="#29B8B8" fill-opacity="0.962426"/>
<rect x="1528.37" y="229.805" width="3.54386" height="3.54386" fill="#29B8B8" fill-opacity="0.962426"/>
<rect x="1531.91" y="229.805" width="3.54386" height="3.54386" fill="#29B8B8" fill-opacity="0.962426"/>
<rect width="9.74562" height="3.54386" transform="matrix(-1 0 0 1 1555.83 240.436)" fill="#009E9E"/>
<rect width="43.5853" height="15.5662" transform="matrix(-1 0 0 1 423.704 228.414)" fill="#009E9E"/>
<rect width="9.33971" height="9.33971" transform="matrix(-1 0 0 1 380.119 234.64)" fill="#009E9E"/>
<rect width="9.33971" height="9.33971" transform="matrix(-1 0 0 1 433.044 234.64)" fill="#009E9E"/>
<rect width="6.22647" height="6.22647" transform="matrix(-1 0 0 1 439.27 237.754)" fill="#009E9E"/>
<rect width="43.5853" height="3.11324" transform="matrix(-1 0 0 1 423.704 228.414)" fill="#29B8B8" fill-opacity="0.962426"/>
<rect width="9.33971" height="3.11324" transform="matrix(-1 0 0 1 380.119 234.64)" fill="#29B8B8" fill-opacity="0.962426"/>
<rect width="12.4529" height="3.11324" transform="matrix(-1 0 0 1 439.27 237.754)" fill="#29B8B8" fill-opacity="0.962426"/>
<rect width="9.33971" height="3.11324" transform="matrix(-1 0 0 1 433.044 234.64)" fill="#29B8B8" fill-opacity="0.962426"/>
<rect width="9.33971" height="3.11324" transform="matrix(-1 0 0 1 401.911 231.527)" fill="#29B8B8" fill-opacity="0.962426"/>
<rect width="21.0143" height="3.11324" transform="matrix(-1 0 0 1 407.359 225.301)" fill="#29B8B8" fill-opacity="0.962426"/>
<rect width="9.33971" height="3.11324" transform="matrix(-1 0 0 1 416.699 225.301)" fill="#29B8B8" fill-opacity="0.962426"/>
<rect width="9.33971" height="3.11324" transform="matrix(-1 0 0 1 420.591 231.527)" fill="#29B8B8" fill-opacity="0.962426"/>
<rect width="9.33971" height="3.11324" transform="matrix(-1 0 0 1 411.251 222.187)" fill="#29B8B8" fill-opacity="0.962426"/>
<rect width="3.11324" height="3.11324" transform="matrix(-1 0 0 1 380.119 237.754)" fill="#29B8B8" fill-opacity="0.962426"/>
<rect width="3.11324" height="3.11324" transform="matrix(-1 0 0 1 389.458 231.527)" fill="#29B8B8" fill-opacity="0.962426"/>
<rect width="3.11324" height="3.11324" transform="matrix(-1 0 0 1 426.817 237.754)" fill="#29B8B8" fill-opacity="0.962426"/>
<rect x="499.488" y="234.64" width="9.33971" height="9.33971" fill="#009E9E"/>
<rect x="490.148" y="234.64" width="9.33971" height="9.33971" fill="#009E9E"/>
<rect x="483.922" y="237.754" width="6.22647" height="6.22647" fill="#009E9E"/>
<rect x="499.488" y="234.64" width="9.33971" height="3.11324" fill="#29B8B8" fill-opacity="0.962426"/>
<rect x="490.148" y="234.64" width="9.33971" height="3.11324" fill="#29B8B8" fill-opacity="0.962426"/>
<rect x="487.035" y="237.754" width="3.11324" height="3.11324" fill="#29B8B8" fill-opacity="0.962426"/>
<rect x="505.715" y="237.754" width="3.11324" height="3.11324" fill="#29B8B8" fill-opacity="0.962426"/>
<rect x="483.922" y="237.754" width="3.11324" height="3.11324" fill="#29B8B8" fill-opacity="0.962426"/>
<rect x="493.262" y="231.527" width="3.11324" height="3.11324" fill="#29B8B8" fill-opacity="0.962426"/>
<rect x="496.375" y="231.527" width="3.11324" height="3.11324" fill="#29B8B8" fill-opacity="0.962426"/>
<rect width="7.00478" height="3.11324" transform="matrix(-1 0 0 1 515.833 240.867)" fill="#009E9E"/>
<rect x="100.141" y="243.967" width="859.887" height="37.1109" fill="#2FBABB"/>
<rect x="100.141" y="262.975" width="859.887" height="18.1029" fill="#088484"/>
<rect x="100.141" y="261.495" width="174.184" height="4.40909" fill="#009E9E"/>
<rect x="109.073" y="257.086" width="4.46626" height="4.40909" fill="#009E9E"/>
<rect x="118.006" y="265.904" width="4.46626" height="4.40909" fill="#009E9E"/>
<rect x="135.871" y="270.313" width="4.46626" height="4.40909" fill="#009E9E"/>
<rect x="126.938" y="257.086" width="8.93252" height="4.40909" fill="#009E9E"/>
<rect x="104.607" y="265.904" width="8.93252" height="4.40909" fill="#009E9E"/>
<rect x="153.736" y="257.086" width="8.93252" height="4.40909" fill="#009E9E"/>
<rect x="144.803" y="270.313" width="8.93252" height="4.40909" fill="#009E9E"/>
<rect x="162.668" y="265.904" width="8.93252" height="4.40909" fill="#009E9E"/>
<rect x="198.398" y="270.313" width="8.93252" height="4.40909" fill="#009E9E"/>
<rect x="234.128" y="265.904" width="8.93252" height="4.40909" fill="#009E9E"/>
<rect x="251.993" y="265.904" width="8.93252" height="4.40909" fill="#009E9E"/>
<rect x="180.533" y="257.086" width="13.3988" height="4.40909" fill="#009E9E"/>
<rect x="176.067" y="265.904" width="13.3988" height="4.40909" fill="#009E9E"/>
<rect x="171.601" y="257.086" width="4.46626" height="4.40909" fill="#009E9E"/>
<rect x="167.135" y="270.313" width="4.46626" height="4.40909" fill="#009E9E"/>
<rect x="207.331" y="257.086" width="26.7975" height="4.40909" fill="#009E9E"/>
<rect x="193.932" y="265.904" width="26.7975" height="4.40909" fill="#009E9E"/>
<rect x="131.405" y="265.904" width="26.7975" height="4.40909" fill="#009E9E"/>
<rect x="247.527" y="257.086" width="8.93252" height="4.40909" fill="#009E9E"/>
<rect x="265.392" y="257.086" width="4.46626" height="4.40909" fill="#009E9E"/>
<rect x="269.858" y="265.904" width="4.46626" height="4.40909" fill="#009E9E"/>
<rect x="274.325" y="261.495" width="174.184" height="4.40909" fill="#009E9E"/>
<rect x="283.257" y="257.085" width="4.46626" height="4.40909" fill="#009E9E"/>
<rect x="292.19" y="265.904" width="4.46626" height="4.40909" fill="#009E9E"/>
<rect x="310.055" y="270.313" width="4.46626" height="4.40909" fill="#009E9E"/>
<rect x="301.122" y="257.085" width="8.93252" height="4.40909" fill="#009E9E"/>
<rect x="278.791" y="265.904" width="8.93252" height="4.40909" fill="#009E9E"/>
<rect x="327.92" y="257.085" width="8.93252" height="4.40909" fill="#009E9E"/>
<rect x="318.987" y="270.313" width="8.93252" height="4.40909" fill="#009E9E"/>
<rect x="336.852" y="265.904" width="8.93252" height="4.40909" fill="#009E9E"/>
<rect x="372.582" y="270.313" width="8.93252" height="4.40909" fill="#009E9E"/>
<rect x="408.312" y="265.904" width="8.93252" height="4.40909" fill="#009E9E"/>
<rect x="426.177" y="265.904" width="8.93252" height="4.40909" fill="#009E9E"/>
<rect x="354.717" y="257.085" width="13.3988" height="4.40909" fill="#009E9E"/>
<rect x="350.251" y="265.904" width="13.3988" height="4.40909" fill="#009E9E"/>
<rect x="345.785" y="257.085" width="4.46626" height="4.40909" fill="#009E9E"/>
<rect x="341.319" y="270.313" width="4.46626" height="4.40909" fill="#009E9E"/>
<rect x="381.515" y="257.085" width="26.7975" height="4.40909" fill="#009E9E"/>
<rect x="368.116" y="265.904" width="26.7975" height="4.40909" fill="#009E9E"/>
<rect x="305.589" y="265.904" width="26.7975" height="4.40909" fill="#009E9E"/>
<rect x="421.711" y="257.085" width="8.93252" height="4.40909" fill="#009E9E"/>
<rect x="439.576" y="257.085" width="4.46626" height="4.40909" fill="#009E9E"/>
<rect x="444.042" y="265.904" width="4.46626" height="4.40909" fill="#009E9E"/>
<rect x="448.509" y="261.495" width="174.184" height="4.40909" fill="#009E9E"/>
<rect x="457.441" y="257.085" width="4.46626" height="4.40909" fill="#009E9E"/>
<rect x="466.374" y="265.904" width="4.46626" height="4.40909" fill="#009E9E"/>
<rect x="484.239" y="270.313" width="4.46626" height="4.40909" fill="#009E9E"/>
<rect x="475.306" y="257.085" width="8.93252" height="4.40909" fill="#009E9E"/>
<rect x="452.975" y="265.904" width="8.93252" height="4.40909" fill="#009E9E"/>
<rect x="502.104" y="257.085" width="8.93252" height="4.40909" fill="#009E9E"/>
<rect x="493.171" y="270.313" width="8.93252" height="4.40909" fill="#009E9E"/>
<rect x="511.036" y="265.904" width="8.93252" height="4.40909" fill="#009E9E"/>
<rect x="546.766" y="270.313" width="8.93252" height="4.40909" fill="#009E9E"/>
<rect x="582.496" y="265.904" width="8.93252" height="4.40909" fill="#009E9E"/>
<rect x="600.362" y="265.904" width="8.93252" height="4.40909" fill="#009E9E"/>
<rect x="528.901" y="257.085" width="13.3988" height="4.40909" fill="#009E9E"/>
<rect x="524.435" y="265.904" width="13.3988" height="4.40909" fill="#009E9E"/>
<rect x="519.969" y="257.085" width="4.46626" height="4.40909" fill="#009E9E"/>
<rect x="515.503" y="270.313" width="4.46626" height="4.40909" fill="#009E9E"/>
<rect x="555.699" y="257.085" width="26.7975" height="4.40909" fill="#009E9E"/>
<rect x="542.3" y="265.904" width="26.7975" height="4.40909" fill="#009E9E"/>
<rect x="479.773" y="265.904" width="26.7975" height="4.40909" fill="#009E9E"/>
<rect x="595.895" y="257.085" width="8.93252" height="4.40909" fill="#009E9E"/>
<rect x="613.76" y="257.085" width="4.46626" height="4.40909" fill="#009E9E"/>
<rect x="618.227" y="265.904" width="4.46626" height="4.40909" fill="#009E9E"/>
<rect x="622.693" y="261.495" width="174.184" height="4.40909" fill="#009E9E"/>
<rect x="631.625" y="257.085" width="4.46626" height="4.40909" fill="#009E9E"/>
<rect x="640.558" y="265.904" width="4.46626" height="4.40909" fill="#009E9E"/>
<rect x="658.423" y="270.313" width="4.46626" height="4.40909" fill="#009E9E"/>
<rect x="649.49" y="257.085" width="8.93252" height="4.40909" fill="#009E9E"/>
<rect x="627.159" y="265.904" width="8.93252" height="4.40909" fill="#009E9E"/>
<rect x="676.288" y="257.085" width="8.93252" height="4.40909" fill="#009E9E"/>
<rect x="667.355" y="270.313" width="8.93252" height="4.40909" fill="#009E9E"/>
<rect x="685.221" y="265.904" width="8.93252" height="4.40909" fill="#009E9E"/>
<rect x="720.95" y="270.313" width="8.93252" height="4.40909" fill="#009E9E"/>
<rect x="756.681" y="265.904" width="8.93252" height="4.40909" fill="#009E9E"/>
<rect x="774.545" y="265.904" width="8.93252" height="4.40909" fill="#009E9E"/>
<rect x="703.086" y="257.085" width="13.3988" height="4.40909" fill="#009E9E"/>
<rect x="698.619" y="265.904" width="13.3988" height="4.40909" fill="#009E9E"/>
<rect x="694.153" y="257.085" width="4.46626" height="4.40909" fill="#009E9E"/>
<rect x="689.687" y="270.313" width="4.46626" height="4.40909" fill="#009E9E"/>
<rect x="729.883" y="257.085" width="26.7975" height="4.40909" fill="#009E9E"/>
<rect x="716.484" y="265.904" width="26.7975" height="4.40909" fill="#009E9E"/>
<rect x="653.957" y="265.904" width="26.7975" height="4.40909" fill="#009E9E"/>
<rect x="770.079" y="257.085" width="8.93252" height="4.40909" fill="#009E9E"/>
<rect x="787.944" y="257.085" width="4.46626" height="4.40909" fill="#009E9E"/>
<rect x="792.411" y="265.904" width="4.46626" height="4.40909" fill="#009E9E"/>
<rect x="796.468" y="261.606" width="164.039" height="4.40651" fill="#009E9E"/>
<rect x="805.809" y="257.085" width="4.46626" height="4.40909" fill="#009E9E"/>
<rect x="814.742" y="265.904" width="4.46626" height="4.40909" fill="#009E9E"/>
<rect x="832.607" y="270.313" width="4.46626" height="4.40909" fill="#009E9E"/>
<rect x="823.674" y="257.085" width="8.93252" height="4.40909" fill="#009E9E"/>
<rect x="801.343" y="265.904" width="8.93252" height="4.40909" fill="#009E9E"/>
<rect x="850.472" y="257.085" width="8.93252" height="4.40909" fill="#009E9E"/>
<rect x="841.539" y="270.313" width="8.93252" height="4.40909" fill="#009E9E"/>
<rect x="859.404" y="265.904" width="8.93252" height="4.40909" fill="#009E9E"/>
<rect x="895.134" y="270.313" width="8.93252" height="4.40909" fill="#009E9E"/>
<rect x="930.864" y="265.904" width="8.93252" height="4.40909" fill="#009E9E"/>
<rect x="948.729" y="265.904" width="8.93252" height="4.40909" fill="#009E9E"/>
<rect x="877.269" y="257.085" width="13.3988" height="4.40909" fill="#009E9E"/>
<rect x="872.803" y="265.904" width="13.3988" height="4.40909" fill="#009E9E"/>
<rect x="868.337" y="257.085" width="4.46626" height="4.40909" fill="#009E9E"/>
<rect x="863.871" y="270.313" width="4.46626" height="4.40909" fill="#009E9E"/>
<rect x="904.067" y="257.085" width="26.7975" height="4.40909" fill="#009E9E"/>
<rect x="890.668" y="265.904" width="26.7975" height="4.40909" fill="#009E9E"/>
<rect x="828.141" y="265.904" width="26.7975" height="4.40909" fill="#009E9E"/>
<rect x="944.263" y="257.085" width="8.93252" height="4.40909" fill="#009E9E"/>
<rect x="-760.225" y="243.967" width="859.887" height="37.1109" fill="#2FBABB"/>
<rect x="-760.225" y="262.975" width="859.887" height="18.1029" fill="#088484"/>
<rect x="-63.898" y="261.606" width="164.039" height="4.40651" fill="#009E9E"/>
<rect x="-0.96167" y="265.904" width="8.93252" height="4.40909" fill="#009E9E"/>
<rect x="34.7682" y="270.313" width="8.93252" height="4.40909" fill="#009E9E"/>
<rect x="70.4983" y="265.904" width="8.93252" height="4.40909" fill="#009E9E"/>
<rect x="88.3634" y="265.904" width="8.93252" height="4.40909" fill="#009E9E"/>
<rect x="16.9034" y="257.085" width="13.3988" height="4.40909" fill="#009E9E"/>
<rect x="12.4371" y="265.904" width="13.3988" height="4.40909" fill="#009E9E"/>
<rect x="7.97095" y="257.085" width="4.46626" height="4.40909" fill="#009E9E"/>
<rect x="3.50458" y="270.313" width="4.46626" height="4.40909" fill="#009E9E"/>
<rect x="43.7007" y="257.085" width="26.7975" height="4.40909" fill="#009E9E"/>
<rect x="30.3019" y="265.904" width="26.7975" height="4.40909" fill="#009E9E"/>
<rect x="83.897" y="257.085" width="8.93252" height="4.40909" fill="#009E9E"/>
<rect x="960.028" y="243.967" width="859.887" height="37.1109" fill="#2FBABB"/>
<rect x="960.028" y="262.975" width="859.887" height="18.1029" fill="#088484"/>
<rect x="960.028" y="261.495" width="174.184" height="4.40909" fill="#009E9E"/>
<rect x="968.96" y="257.086" width="4.46626" height="4.40909" fill="#009E9E"/>
<rect x="977.893" y="265.904" width="4.46626" height="4.40909" fill="#009E9E"/>
<rect x="995.758" y="270.313" width="4.46626" height="4.40909" fill="#009E9E"/>
<rect x="986.825" y="257.086" width="8.93252" height="4.40909" fill="#009E9E"/>
<rect x="964.494" y="265.904" width="8.93252" height="4.40909" fill="#009E9E"/>
<rect x="1013.62" y="257.086" width="8.93252" height="4.40909" fill="#009E9E"/>
<rect x="1004.69" y="270.313" width="8.93252" height="4.40909" fill="#009E9E"/>
<rect x="1022.56" y="265.904" width="8.93252" height="4.40909" fill="#009E9E"/>
<rect x="1058.29" y="270.313" width="8.93252" height="4.40909" fill="#009E9E"/>
<rect x="1094.02" y="265.904" width="8.93252" height="4.40909" fill="#009E9E"/>
<rect x="1111.88" y="265.904" width="8.93252" height="4.40909" fill="#009E9E"/>
<rect x="1040.42" y="257.086" width="13.3988" height="4.40909" fill="#009E9E"/>
<rect x="1035.95" y="265.904" width="13.3988" height="4.40909" fill="#009E9E"/>
<rect x="1031.49" y="257.086" width="4.46626" height="4.40909" fill="#009E9E"/>
<rect x="1027.02" y="270.313" width="4.46626" height="4.40909" fill="#009E9E"/>
<rect x="1067.22" y="257.086" width="26.7975" height="4.40909" fill="#009E9E"/>
<rect x="1053.82" y="265.904" width="26.7975" height="4.40909" fill="#009E9E"/>
<rect x="991.292" y="265.904" width="26.7975" height="4.40909" fill="#009E9E"/>
<rect x="1107.41" y="257.086" width="8.93252" height="4.40909" fill="#009E9E"/>
<rect x="1125.28" y="257.086" width="4.46626" height="4.40909" fill="#009E9E"/>
<rect x="1129.75" y="265.904" width="4.46626" height="4.40909" fill="#009E9E"/>
<rect x="1134.21" y="261.495" width="174.184" height="4.40909" fill="#009E9E"/>
<rect x="1143.14" y="257.085" width="4.46626" height="4.40909" fill="#009E9E"/>
<rect x="1152.08" y="265.904" width="4.46626" height="4.40909" fill="#009E9E"/>
<rect x="1169.94" y="270.313" width="4.46626" height="4.40909" fill="#009E9E"/>
<rect x="1161.01" y="257.085" width="8.93252" height="4.40909" fill="#009E9E"/>
<rect x="1138.68" y="265.904" width="8.93252" height="4.40909" fill="#009E9E"/>
<rect x="1187.81" y="257.085" width="8.93252" height="4.40909" fill="#009E9E"/>
<rect x="1178.87" y="270.313" width="8.93252" height="4.40909" fill="#009E9E"/>
<rect x="1196.74" y="265.904" width="8.93252" height="4.40909" fill="#009E9E"/>
<rect x="1232.47" y="270.313" width="8.93252" height="4.40909" fill="#009E9E"/>
<rect x="1268.2" y="265.904" width="8.93252" height="4.40909" fill="#009E9E"/>
<rect x="1286.06" y="265.904" width="8.93252" height="4.40909" fill="#009E9E"/>
<rect x="1214.6" y="257.085" width="13.3988" height="4.40909" fill="#009E9E"/>
<rect x="1210.14" y="265.904" width="13.3988" height="4.40909" fill="#009E9E"/>
<rect x="1205.67" y="257.085" width="4.46626" height="4.40909" fill="#009E9E"/>
<rect x="1201.21" y="270.313" width="4.46626" height="4.40909" fill="#009E9E"/>
<rect x="1241.4" y="257.085" width="26.7975" height="4.40909" fill="#009E9E"/>
<rect x="1228" y="265.904" width="26.7975" height="4.40909" fill="#009E9E"/>
<rect x="1165.48" y="265.904" width="26.7975" height="4.40909" fill="#009E9E"/>
<rect x="1281.6" y="257.085" width="8.93252" height="4.40909" fill="#009E9E"/>
<rect x="1299.46" y="257.085" width="4.46626" height="4.40909" fill="#009E9E"/>
<rect x="1303.93" y="265.904" width="4.46626" height="4.40909" fill="#009E9E"/>
<rect x="1308.4" y="261.495" width="174.184" height="4.40909" fill="#009E9E"/>
<rect x="1317.33" y="257.085" width="4.46626" height="4.40909" fill="#009E9E"/>
<rect x="1326.26" y="265.904" width="4.46626" height="4.40909" fill="#009E9E"/>
<rect x="1344.13" y="270.313" width="4.46626" height="4.40909" fill="#009E9E"/>
<rect x="1335.19" y="257.085" width="8.93252" height="4.40909" fill="#009E9E"/>
<rect x="1312.86" y="265.904" width="8.93252" height="4.40909" fill="#009E9E"/>
<rect x="1361.99" y="257.085" width="8.93252" height="4.40909" fill="#009E9E"/>
<rect x="1353.06" y="270.313" width="8.93252" height="4.40909" fill="#009E9E"/>
<rect x="1370.92" y="265.904" width="8.93252" height="4.40909" fill="#009E9E"/>
<rect x="1406.65" y="270.313" width="8.93252" height="4.40909" fill="#009E9E"/>
<rect x="1442.38" y="265.904" width="8.93252" height="4.40909" fill="#009E9E"/>
<rect x="1460.25" y="265.904" width="8.93252" height="4.40909" fill="#009E9E"/>
<rect x="1388.79" y="257.085" width="13.3988" height="4.40909" fill="#009E9E"/>
<rect x="1384.32" y="265.904" width="13.3988" height="4.40909" fill="#009E9E"/>
<rect x="1379.86" y="257.085" width="4.46626" height="4.40909" fill="#009E9E"/>
<rect x="1375.39" y="270.313" width="4.46626" height="4.40909" fill="#009E9E"/>
<rect x="1415.59" y="257.085" width="26.7975" height="4.40909" fill="#009E9E"/>
<rect x="1402.19" y="265.904" width="26.7975" height="4.40909" fill="#009E9E"/>
<rect x="1339.66" y="265.904" width="26.7975" height="4.40909" fill="#009E9E"/>
<rect x="1455.78" y="257.085" width="8.93252" height="4.40909" fill="#009E9E"/>
<rect x="1473.65" y="257.085" width="4.46626" height="4.40909" fill="#009E9E"/>
<rect x="1478.11" y="265.904" width="4.46626" height="4.40909" fill="#009E9E"/>
<rect x="1482.58" y="261.495" width="174.184" height="4.40909" fill="#009E9E"/>
<rect x="1491.51" y="257.085" width="4.46626" height="4.40909" fill="#009E9E"/>
<rect x="1500.44" y="265.904" width="4.46626" height="4.40909" fill="#009E9E"/>
<rect x="1518.31" y="270.313" width="4.46626" height="4.40909" fill="#009E9E"/>
<rect x="1509.38" y="257.085" width="8.93252" height="4.40909" fill="#009E9E"/>
<rect x="1487.05" y="265.904" width="8.93252" height="4.40909" fill="#009E9E"/>
<rect x="1536.18" y="257.085" width="8.93252" height="4.40909" fill="#009E9E"/>
<rect x="1527.24" y="270.313" width="8.93252" height="4.40909" fill="#009E9E"/>
<rect x="1545.11" y="265.904" width="8.93252" height="4.40909" fill="#009E9E"/>
<rect x="1580.84" y="270.313" width="8.93252" height="4.40909" fill="#009E9E"/>
<rect x="1616.57" y="265.904" width="8.93252" height="4.40909" fill="#009E9E"/>
<rect x="1634.43" y="265.904" width="8.93252" height="4.40909" fill="#009E9E"/>
<rect x="1562.97" y="257.085" width="13.3988" height="4.40909" fill="#009E9E"/>
<rect x="1558.51" y="265.904" width="13.3988" height="4.40909" fill="#009E9E"/>
<rect x="1554.04" y="257.085" width="4.46626" height="4.40909" fill="#009E9E"/>
<rect x="1549.57" y="270.313" width="4.46626" height="4.40909" fill="#009E9E"/>
<rect x="1589.77" y="257.085" width="26.7975" height="4.40909" fill="#009E9E"/>
<rect x="1576.37" y="265.904" width="26.7975" height="4.40909" fill="#009E9E"/>
<rect x="1513.84" y="265.904" width="26.7975" height="4.40909" fill="#009E9E"/>
<rect x="1629.97" y="257.085" width="8.93252" height="4.40909" fill="#009E9E"/>
<rect x="1647.83" y="257.085" width="4.46626" height="4.40909" fill="#009E9E"/>
<rect x="1652.3" y="265.904" width="4.46626" height="4.40909" fill="#009E9E"/>
<rect x="1656.36" y="261.606" width="164.039" height="4.40651" fill="#009E9E"/>
<rect x="1665.7" y="257.085" width="4.46626" height="4.40909" fill="#009E9E"/>
<rect x="1674.63" y="265.904" width="4.46626" height="4.40909" fill="#009E9E"/>
<rect x="1692.49" y="270.313" width="4.46626" height="4.40909" fill="#009E9E"/>
<rect x="1683.56" y="257.085" width="8.93252" height="4.40909" fill="#009E9E"/>
<rect x="1661.23" y="265.904" width="8.93252" height="4.40909" fill="#009E9E"/>
<rect x="1710.36" y="257.085" width="8.93252" height="4.40909" fill="#009E9E"/>
<rect x="1701.43" y="270.313" width="8.93252" height="4.40909" fill="#009E9E"/>
<rect x="1719.29" y="265.904" width="8.93252" height="4.40909" fill="#009E9E"/>
<rect x="1755.02" y="270.313" width="8.93252" height="4.40909" fill="#009E9E"/>
<rect x="1790.75" y="265.904" width="8.93252" height="4.40909" fill="#009E9E"/>
<rect x="1808.62" y="265.904" width="8.93252" height="4.40909" fill="#009E9E"/>
<rect x="1737.16" y="257.085" width="13.3988" height="4.40909" fill="#009E9E"/>
<rect x="1732.69" y="265.904" width="13.3988" height="4.40909" fill="#009E9E"/>
<rect x="1728.22" y="257.085" width="4.46626" height="4.40909" fill="#009E9E"/>
<rect x="1723.76" y="270.313" width="4.46626" height="4.40909" fill="#009E9E"/>
<rect x="1763.95" y="257.085" width="26.7975" height="4.40909" fill="#009E9E"/>
<rect x="1750.56" y="265.904" width="26.7975" height="4.40909" fill="#009E9E"/>
<rect x="1688.03" y="265.904" width="26.7975" height="4.40909" fill="#009E9E"/>
<rect x="1804.15" y="257.085" width="8.93252" height="4.40909" fill="#009E9E"/>
<path d="M1272.35 230.725H1267.72V221.35H1263.1V216.662H1258.47V226.037H1253.85V235.412H1258.47V244.787H1263.1V235.412H1267.72V244.787H1272.35V230.725Z" fill="#F7FEFF"/>
<path d="M1253.85 230.725H1249.22V235.412H1253.85V230.725Z" fill="#E1D1DE"/>
<path d="M1244.6 230.725V216.662H1239.97V211.975H1235.35V207.287H1230.72V211.975H1226.1V221.35H1235.35V244.787H1239.97V235.412H1244.6V244.787H1249.22V230.725H1244.6Z" fill="#F7FEFF"/>
<path d="M1276.97 221.35H1272.35V240.1H1276.97V235.412H1281.6V230.725H1276.97V221.35Z" fill="#B44BA1"/>
<path d="M1253.85 226.037H1249.22V230.725H1253.85V226.037Z" fill="#A545A4"/>
<path d="M1249.22 226.037H1244.6V230.725H1249.22V226.037Z" fill="#E1D1DE"/>
<path d="M1281.6 221.35H1276.97V230.725H1281.6V221.35Z" fill="#D779A5"/>
<path d="M1272.35 221.35H1267.72V230.725H1272.35V221.35Z" fill="#E1D1DE"/>
<path d="M1258.47 221.35H1253.85V226.037H1258.47V221.35Z" fill="#E1D1DE"/>
<path d="M1249.22 216.662H1244.6V226.037H1249.22V216.662Z" fill="#A545A4"/>
<path d="M1276.97 216.662H1272.35V221.35H1276.97V216.662Z" fill="#D779A5"/>
<path d="M1272.35 216.662H1267.72V221.35H1272.35V216.662Z" fill="#B44BA1"/>
<path d="M1267.72 216.662H1263.1V221.35H1267.72V216.662Z" fill="#E1D1DE"/>
<path d="M1258.47 211.975H1253.85V216.662H1258.47V211.975Z" fill="#D779A5"/>
<path d="M1244.6 211.975V216.662H1249.22V226.037H1253.85V221.35H1258.47V216.662H1253.85V211.975H1244.6Z" fill="#B44BA1"/>
<path d="M1244.6 211.975H1239.97V216.662H1244.6V211.975Z" fill="#E1D1DE"/>
<path d="M1253.85 202.6H1249.22V211.975H1253.85V202.6Z" fill="#D779A5"/>
<path d="M1249.22 207.287H1244.6V211.975H1249.22V207.287Z" fill="#F7FEFF"/>
<path d="M1244.6 207.287H1239.97V211.975H1244.6V207.287Z" fill="#A545A4"/>
<path d="M1239.97 207.287H1235.35V211.975H1239.97V207.287Z" fill="#E1D1DE"/>
<path d="M1230.72 207.287H1226.1V211.975H1230.72V207.287Z" fill="#A545A4"/>
<path d="M1249.22 202.6H1239.97V207.287H1249.22V202.6Z" fill="#B44BA1"/>
<path d="M1239.97 202.6H1230.72V207.287H1239.97V202.6Z" fill="#A545A4"/>
<path d="M1230.72 202.6H1226.1V207.287H1230.72V202.6Z" fill="#B44BA1"/>
<path d="M1249.22 197.912H1239.97V202.6H1249.22V197.912Z" fill="#D779A5"/>
<path d="M1239.97 197.912H1235.35V202.6H1239.97V197.912Z" fill="#E2B436"/>
<path d="M1235.35 197.912H1230.72V202.6H1235.35V197.912Z" fill="#CF8934"/>
<path d="M1235.35 193.225H1230.72V197.912H1235.35V193.225Z" fill="#E2B436"/>
<path d="M1230.72 193.225H1226.1V197.912H1230.72V193.225Z" fill="#CF8934"/>
<path d="M1230.72 188.537H1226.1V193.225H1230.72V188.537Z" fill="#E2B436"/>
</svg>
