<svg width="1335" height="112" viewBox="0 0 1335 112" fill="none" xmlns="http://www.w3.org/2000/svg">
<rect x="1202.55" y="19.1708" width="42.9285" height="5.23519" fill="#A8E7F4"/>
<rect x="1202.55" y="13.9356" width="38.7404" height="5.23519" fill="#A8E7F4"/>
<rect x="1199.41" y="5.55933" width="21.9878" height="10.4704" fill="#A8E7F4"/>
<rect x="1220.35" y="9.74744" width="5.23519" height="5.23519" fill="#A8E7F4"/>
<rect x="1205.69" y="0.324097" width="10.4704" height="5.23519" fill="#A8E7F4"/>
<rect x="1201.5" y="19.1708" width="43.9756" height="5.23519" fill="#2FBABB"/>
<rect x="1197.32" y="13.9356" width="14.6585" height="5.23519" fill="#2FBABB"/>
<rect x="1197.32" y="5.55933" width="5.23519" height="10.4704" fill="#2FBABB"/>
<rect x="1201.5" y="0.324097" width="5.23519" height="9.42334" fill="#2FBABB"/>
<rect x="5.45679" y="74.0297" width="130.531" height="4.88617" fill="#2FBABB"/>
<rect x="5.45679" y="69.1434" width="125.644" height="4.88617" fill="#A8E7F4"/>
<rect x="5.45679" y="64.2572" width="116.57" height="4.88617" fill="#A8E7F4"/>
<rect x="4.75879" y="60.069" width="112.382" height="4.88617" fill="#A8E7F4"/>
<rect x="89.2198" y="55.1832" width="4.88617" height="4.88617" fill="#2FBABB"/>
<rect x="84.3337" y="60.0694" width="4.88617" height="4.88617" fill="#2FBABB"/>
<rect x="84.3337" y="64.9554" width="9.77235" height="4.18815" fill="#2FBABB"/>
<rect x="84.3337" y="69.1436" width="13.9605" height="4.88617" fill="#2FBABB"/>
<rect x="108.067" y="69.1436" width="4.88617" height="4.88617" fill="#2FBABB"/>
<rect x="6.85284" y="50.9949" width="26.5249" height="9.07432" fill="#A8E7F4"/>
<rect x="13.8331" y="46.1086" width="14.6585" height="5.5842" fill="#A8E7F4"/>
<rect x="13.8331" y="41.2224" width="9.77235" height="4.88617" fill="#A8E7F4"/>
<rect x="5.45673" y="69.1435" width="13.9605" height="4.88617" fill="#2FBABB"/>
<rect x="0.570679" y="64.2575" width="13.9605" height="4.88617" fill="#2FBABB"/>
<rect x="0.570679" y="59.3712" width="9.07432" height="4.88617" fill="#2FBABB"/>
<rect x="0.570679" y="54.485" width="9.07432" height="4.88617" fill="#2FBABB"/>
<rect x="0.570679" y="50.9949" width="9.07432" height="3.49012" fill="#2FBABB"/>
<rect x="5.45673" y="46.1086" width="8.3763" height="4.88617" fill="#2FBABB"/>
<rect x="43.1501" y="49.5986" width="13.2625" height="11.1684" fill="#A8E7F4"/>
<rect x="71.0712" y="41.2224" width="32.1091" height="18.8467" fill="#A8E7F4"/>
<rect x="42.4521" y="69.1433" width="9.07432" height="4.88617" fill="#2FBABB"/>
<rect x="38.2639" y="64.2573" width="9.07432" height="4.88617" fill="#2FBABB"/>
<rect x="38.2639" y="54.4847" width="9.07432" height="4.88617" fill="#2FBABB"/>
<rect x="42.4521" y="49.5988" width="9.07432" height="4.88617" fill="#2FBABB"/>
<rect x="38.2639" y="59.371" width="4.88617" height="4.88617" fill="#2FBABB"/>
<rect x="99.6902" y="55.183" width="12.5644" height="5.5842" fill="#A8E7F4"/>
<rect x="81.5415" y="36.3363" width="12.5644" height="5.5842" fill="#A8E7F4"/>
<rect x="82.2395" y="31.45" width="6.98025" height="4.88617" fill="#A8E7F4"/>
<rect x="66.1849" y="41.2225" width="13.2625" height="4.88617" fill="#2FBABB"/>
<rect x="71.0712" y="36.3363" width="13.2625" height="4.88617" fill="#2FBABB"/>
<rect x="66.1849" y="46.1086" width="9.77235" height="4.88617" fill="#2FBABB"/>
<rect x="61.2988" y="50.9949" width="9.77235" height="4.88617" fill="#2FBABB"/>
<rect x="61.2988" y="55.8811" width="9.77235" height="4.88617" fill="#2FBABB"/>
<rect x="66.1849" y="60.7671" width="4.88617" height="4.88617" fill="#2FBABB"/>
<rect x="79.4475" y="31.45" width="4.88617" height="4.88617" fill="#2FBABB"/>
<rect x="198.982" y="20.7413" width="42.9285" height="5.23519" fill="#A8E7F4"/>
<rect x="198.982" y="15.5061" width="38.7404" height="5.23519" fill="#A8E7F4"/>
<rect x="195.841" y="7.12982" width="21.9878" height="10.4704" fill="#A8E7F4"/>
<rect x="216.781" y="11.318" width="5.23519" height="5.23519" fill="#A8E7F4"/>
<rect x="202.123" y="1.89459" width="10.4704" height="5.23519" fill="#A8E7F4"/>
<rect x="197.935" y="20.7413" width="43.9756" height="5.23519" fill="#2FBABB"/>
<rect x="193.747" y="15.5061" width="14.6585" height="5.23519" fill="#2FBABB"/>
<rect x="193.747" y="7.12982" width="5.23519" height="10.4704" fill="#2FBABB"/>
<rect x="197.935" y="1.89459" width="5.23519" height="9.42334" fill="#2FBABB"/>
<rect x="176.871" y="100.861" width="14.6585" height="6.28222" fill="#A8E7F4"/>
<rect x="176.871" y="95.6256" width="10.4704" height="5.23519" fill="#A8E7F4"/>
<rect x="171.635" y="106.096" width="19.8937" height="5.23519" fill="#2FBABB"/>
<rect x="171.635" y="100.861" width="5.23519" height="6.28222" fill="#2FBABB"/>
<rect width="14.6585" height="6.28222" transform="matrix(-1 0 0 1 1329.42 32.035)" fill="#A8E7F4"/>
<rect width="10.4704" height="5.23519" transform="matrix(-1 0 0 1 1329.42 26.7999)" fill="#A8E7F4"/>
<rect width="19.8937" height="5.23519" transform="matrix(-1 0 0 1 1334.65 37.2702)" fill="#2FBABB"/>
<rect width="5.23519" height="6.28222" transform="matrix(-1 0 0 1 1334.65 32.035)" fill="#2FBABB"/>
</svg>
