<svg width="1822" height="282" viewBox="0 0 1822 282" fill="none" xmlns="http://www.w3.org/2000/svg">
<g clip-path="url(#clip0_274_677)">
<path d="M775 198.3H770.4V203H775V198.3Z" fill="#2FBABB"/>
<path d="M724.4 198.3H719.8V203H724.4V198.3Z" fill="#2FBABB"/>
<path d="M770.4 193.5H761.2V198.2H770.4V193.5Z" fill="#2FBABB"/>
<path d="M733.6 193.5H724.4V198.2H733.6V193.5Z" fill="#2FBABB"/>
<path d="M761.2 188.8H733.6V193.5H761.2V188.8Z" fill="#2FBABB"/>
<path d="M738.5 211.6H728.7V216.5H738.5V211.6Z" fill="#009E9E"/>
<path d="M775 216.5H769.8V221.1H775V216.5Z" fill="#088484"/>
<path d="M766.5 219.6V211.3H761.2V216.5H752V211.8H747.4V207.2H738.2V211.8H742.8V216.5H746L746.8 221.1H746H738.5V216.5H724.4V210.4H719.8V221.1H724.4V225.7H733.6V230.3H742.8V244.1H752V230.3H761.2V225.7H770.4V219.6H766.5Z" fill="#088484"/>
<path d="M775 207.1H765.3V212H775V207.1Z" fill="#088484"/>
<path d="M729 206.7H723.9V211.8H729V206.7Z" fill="#088484"/>
<path d="M738.9 202.3H728.3V207.6H738.9V202.3Z" fill="#088484"/>
<path d="M747.9 197.6H742.4V203.1H747.9V197.6Z" fill="#088484"/>
<path d="M757.6 193.4H746.5V198.5H757.6V193.4Z" fill="#088484"/>
<path d="M761.2 198H756.1V203.1H761.2V198Z" fill="#088484"/>
<path d="M761.8 206.7H756.1V212.4H761.8V206.7Z" fill="#088484"/>
<path d="M770.4 216.5H765.8V221.1H770.4V216.5Z" fill="#009E9E"/>
<path d="M747.4 216.5H738.2V221.4H747.4V216.5Z" fill="#009E9E"/>
<path d="M775 211.8H765.8V216.4H775V211.8Z" fill="#2FBABB"/>
<path d="M742.8 211.8H738.2V216.4H742.8V211.8Z" fill="#2FBABB"/>
<path d="M729 211.8H724.4V216.4H729V211.8Z" fill="#2FBABB"/>
<path d="M756.7 202.4L747.4 202.6L747.2 211.9H752V216.7H761.5V211.9H756.7V202.4Z" fill="#009E9E"/>
<path d="M738.2 207.2H729V211.8H738.2V207.2Z" fill="#2FBABB"/>
<path d="M724.4 207.2H729V202.6H738.2V207.2H742.8V198H747.4V193.4H733.6V198H724.4V202.6H719.8V211.8H724.4V207.2Z" fill="#009E9E"/>
<path d="M761.2 202.6H756.6V207.2H761.2V202.6Z" fill="#2FBABB"/>
<path d="M747.4 202.6H742.8V207.2H747.4V202.6Z" fill="#2FBABB"/>
<path d="M770.4 198H761.2V211.8H765.8V207.2H775V202.6H770.4V198Z" fill="#009E9E"/>
<path d="M756.6 198H747.4V202.6H756.6V198Z" fill="#2FBABB"/>
<path d="M761.2 193.4H756.6V198H761.2V193.4Z" fill="#009E9E"/>
<path d="M1231.7 202.6H1226.6V207.8H1231.7V202.6Z" fill="#B44BA1"/>
<path d="M1249.7 202.4H1239.6V207.5H1249.7V202.4Z" fill="#B44BA1"/>
<path d="M1273.2 216.7H1267.8V222.2H1273.2V216.7Z" fill="#B44BA1"/>
<path d="M1244.3 211.2V216.4H1249.2V226.8L1254.3 226V221.3L1258.9 221.6V216.4H1254.7L1254.2 212L1244.3 211.2Z" fill="#B44BA1"/>
<path d="M1272.8 230.7H1268.2V221.3H1263.6V216.6H1259V226H1254.4V235.4H1259V244.8H1263.6V235.4H1268.2V244.8H1272.8V230.7Z" fill="#F7FEFF"/>
<path d="M1254.3 230.7H1249.7V235.4H1254.3V230.7Z" fill="#E1D1DE"/>
<path d="M1245.1 230.7V216.6H1240.5V212H1235.9V207.3H1231.3V212H1226.7V221.4H1235.9V244.8H1240.5V235.4H1245.1V244.8H1249.7V230.7H1245.1Z" fill="#F7FEFF"/>
<path d="M1277.5 221.4L1272.9 220.9V240.2H1277.5V235.5H1282.1V230.8H1278.3L1277.5 221.4Z" fill="#B44BA1"/>
<path d="M1254.3 226H1249.7V230.7H1254.3V226Z" fill="#A545A4"/>
<path d="M1249.7 226H1245.1V230.7H1249.7V226Z" fill="#E1D1DE"/>
<path d="M1282.1 221.4H1277.5V230.8H1282.1V221.4Z" fill="#D779A5"/>
<path d="M1272.8 221.4H1268.2V230.8H1272.8V221.4Z" fill="#E1D1DE"/>
<path d="M1259 221.4H1254.4V226.1H1259V221.4Z" fill="#E1D1DE"/>
<path d="M1249.7 216.4H1245.1V226H1249.7V216.4Z" fill="#A545A4"/>
<path d="M1277.5 216.7H1272.9V221.4H1277.5V216.7Z" fill="#D779A5"/>
<path d="M1268.2 216.7H1263.6V221.4H1268.2V216.7Z" fill="#E1D1DE"/>
<path d="M1259 212H1254.4V216.7H1259V212Z" fill="#D779A5"/>
<path d="M1245.1 212H1240.5V216.7H1245.1V212Z" fill="#E1D1DE"/>
<path d="M1254.3 202.6H1249.7V212H1254.3V202.6Z" fill="#D779A5"/>
<path d="M1249.7 207.3H1245.1V212H1249.7V207.3Z" fill="#F7FEFF"/>
<path d="M1245.1 207.3H1240.5V212H1245.1V207.3Z" fill="#A545A4"/>
<path d="M1240.5 207.3H1235.9V212H1240.5V207.3Z" fill="#E1D1DE"/>
<path d="M1231.2 207.3H1226.6V212H1231.2V207.3Z" fill="#A545A4"/>
<path d="M1240.5 202.6H1231.3V207.3H1240.5V202.6Z" fill="#A545A4"/>
<path d="M1249.7 197.9H1240.5V202.6H1249.7V197.9Z" fill="#D779A5"/>
<path d="M1240.5 197.9H1235.9V202.6H1240.5V197.9Z" fill="#E2B436"/>
<path d="M1235.8 197.9H1231.2V202.6H1235.8V197.9Z" fill="#CF8934"/>
<path d="M1235.8 193.2H1231.2V197.9H1235.8V193.2Z" fill="#E2B436"/>
<path d="M1231.2 193.2H1226.6V197.9H1231.2V193.2Z" fill="#CF8934"/>
<path d="M1231.2 188.5H1226.6V193.2H1231.2V188.5Z" fill="#E2B436"/>
<path d="M665.5 227.1H610.5V231H598.7V242.8H611H665.5V227.1Z" fill="#009E9E"/>
<path d="M598.7 235H606.5V238.9H610.5V235V231H598.7V235Z" fill="#29B8B8" fill-opacity="0.9624"/>
<path d="M665.5 227.1H651.7V223.2H639.9V227.1H622.3V223.2H610.5V227.1V231H618.3V235H622.3V231H626.2V235H638V231H649.8V234.8H653.7V238.9H657.6V234.8H661.6V231H665.5V227.1Z" fill="#29B8B8" fill-opacity="0.9624"/>
<path d="M1132.6 227.1H1187.7V231H1199.4V242.8H1187.1H1132.6V227.1Z" fill="#009E9E"/>
<path d="M1199.4 235H1191.6V238.9H1187.7V235V231H1199.4V235Z" fill="#29B8B8" fill-opacity="0.9624"/>
<path d="M1132.6 227.1H1146.4V223.2H1158.2V227.1H1175.9V223.2H1187.7V227.1V231H1179.8V235H1175.9V231H1171.9V235H1160.1V231H1148.3V234.8H1144.4V238.9H1140.5V234.8H1136.6V231H1132.6V227.1Z" fill="#29B8B8" fill-opacity="0.9624"/>
<path d="M119.1 228.7V232.2H108.5V242.8H119.1H120H168.5V228.7H119.1Z" fill="#009E9E"/>
<path d="M156.2 228.7V225.2H145.6V228.7H129.7V225.2H119.1V228.7V232.2H108.5V235.8H115.5V239.3H119.1V235.8V232.2H126.1V235.8H129.7V232.2H133.2V235.8H143.8V232.2H154.4V235.8H157.9V239.3H161.5V235.8H165V232.2H168.5V228.7H156.2Z" fill="#29B8B8" fill-opacity="0.9624"/>
<path d="M403.3 236V232.5H392.9V225.6H344.8V232.5H334.5V242.8H344.8H392.9H401.5H403.3H410.1V236H403.3Z" fill="#009E9E"/>
<path d="M403.3 236V232.5H392.9V236V237.2V239.4H396.4H410.1V236H403.3Z" fill="#29B8B8" fill-opacity="0.9624"/>
<path d="M385.2 222.2H379.2V218.8H368.9V222.2H351.7V225.6H344.8V229.1H351.7V232.5H355.1V229.1H358.5V232.5H368.9V229.1H379.2V232.5H389.5V229.1H392.9V225.6H385.2V222.2Z" fill="#29B8B8" fill-opacity="0.9624"/>
<path d="M334.5 232.5V236H341.3V239.4H344.8V236V235.2V232.5H334.5Z" fill="#29B8B8" fill-opacity="0.9624"/>
<path d="M1358.7 236V232.5H1369V225.6H1417.2V232.5H1427.5V242.8H1417.2H1369H1360.4H1358.7H1351.8V236H1358.7Z" fill="#009E9E"/>
<path d="M1358.7 236V232.5H1369V236V237.2V239.4H1365.6H1351.8V236H1358.7Z" fill="#29B8B8" fill-opacity="0.9624"/>
<path d="M1376.8 222.2H1382.8V218.8H1393.1V222.2H1410.3V225.6H1417.2V229.1H1410.3V232.5H1406.9V229.1H1403.4V232.5H1393.1V229.1H1382.8V232.5H1372.5V229.1H1369V225.6H1376.8V222.2Z" fill="#29B8B8" fill-opacity="0.9624"/>
<path d="M1427.5 232.5V236H1420.6V239.4H1417.2V236V235.2V232.5H1427.5Z" fill="#29B8B8" fill-opacity="0.9624"/>
<path d="M487 239.4V232.5H476.7H466.4V236H459.5V242.8H466.4H467.1H476.7H485.7H487H494.7V239.4H487Z" fill="#009E9E"/>
<path d="M476.7 232.5V229.1H473.2H469.8V232.5H466.4V236H476.7H483.5V239.4H487V236V235.3V232.5H476.7Z" fill="#29B8B8" fill-opacity="0.9624"/>
<path d="M462.9 236H459.5V239.4H462.9H466.3V236H462.9Z" fill="#29B8B8" fill-opacity="0.9624"/>
<path d="M1075.5 239.4V232.5H1085.8H1096.1V236H1103V242.8H1096.1H1095.4H1085.8H1076.7H1075.5H1067.7V239.4H1075.5Z" fill="#009E9E"/>
<path d="M1085.8 232.5V229.1H1089.2H1092.7V232.5H1096.1V236H1085.8H1078.9V239.4H1075.5V236V235.3V232.5H1085.8Z" fill="#29B8B8" fill-opacity="0.9624"/>
<path d="M1099.5 236H1103V239.4H1099.5H1096.1V236H1099.5Z" fill="#29B8B8" fill-opacity="0.9624"/>
<path d="M1568.9 239.4V232.5H1558.6H1548.3V236H1541.4V242.8H1548.3H1549H1558.6H1567.7H1568.9H1576.7V239.4H1568.9Z" fill="#009E9E"/>
<path d="M1558.6 232.5V229.1H1555.2H1551.7V232.5H1548.3V236H1558.6H1565.5V239.4H1568.9V236V235.3V232.5H1558.6Z" fill="#29B8B8" fill-opacity="0.9624"/>
<path d="M1544.9 236H1541.4V239.4H1544.9H1548.3V236H1544.9Z" fill="#29B8B8" fill-opacity="0.9624"/>
<path d="M909.5 242.8H-30V283.8H909.5V242.8Z" fill="#2FBABB"/>
<path d="M1842.8 242.8H909V283.8H1842.8V242.8Z" fill="#2FBABB"/>
<path d="M1842.8 281.7V263.8H909.5H909H-30V283.8L1665.6 284.8L1841.7 281.6L1842.8 281.7Z" fill="#088484"/>
<path d="M1826.8 262.3V257.3H1797.2V262.3H1782.4V257.3H1767.6V262.3H1762.6V257.3H1757.7V262.3H1747.8V257.3H1738V262.3H1718.2V257.3H1708.4V262.3H1693.6V257.3H1688.6V262.3H1678.7V262.2H1673.8V257.3H1668.9V262.2H1659V257.3H1649.2V262.2H1634.3V257.3H1604.7V262.2H1589.9V257.3H1575.1V262.2H1570.2V257.3H1565.3V262.2H1555.4V257.3H1545.5V262.2H1525.8V257.3H1515.9V262.2H1501.1V257.3H1496.2V262.2H1486.3H1481.4V257.3H1476.4V262.2H1466.6V257.3H1456.7V262.2H1441.9V257.3H1412.3V262.2H1397.5V257.3H1382.7V262.2H1377.8V257.3H1372.8V262.2H1363V257.3H1353.1V262.2H1333.3V257.3H1323.5V262.2H1308.7V257.3H1303.7V262.2H1295.8H1293.9H1288.9V257.3H1284V262.2H1274.1V257.3H1264.3V262.2H1249.5V257.3H1219.9V262.2H1205.1V257.3H1190.3V262.2H1185.3V257.3H1180.4V262.2H1170.5V257.3H1160.7V262.2H1140.9V257.3H1131V262.2H1116.2V257.3H1111.3V262.2H1101.4H1096.5V257.3H1091.6V262.2H1081.7V257.3H1071.8V262.2H1057V257.3H1027.4V262.2H1012.6V257.3H997.8V262.2H992.9V257.3H988V262.2H978.1V257.3H968.2V262.2H948.5V257.3H938.6V262.2H923.8V257.3H918.9V262.2H909V262.3H901.9V257.3H892.1V262.3H877.3V257.3H847.6V262.3H832.8V257.3H818V262.3H813.1V257.3H808.2V262.3H798.3V257.3H788.4V262.3H768.7V257.3H758.8V262.3H744V257.3H739.1V262.3H729.2V262.2H724.3V257.3H719.4V262.2H709.5V257.3H699.6V262.2H684.8V257.3H655.2V262.2H640.4V257.3H625.6V262.2H620.7V257.3H615.7V262.2H605.9V257.3H596V262.2H576.3V257.3H566.4V262.2H551.6V257.3H546.7V262.2H536.8H531.9V257.3H526.9V262.2H517V257.3H507.2V262.2H492.4V257.3H462.8V262.2H448V257.3H433.2V262.2H428.2V257.3H423.3V262.2H413.4V257.3H403.6V262.2H383.8V257.3H374V262.2H359.1V257.3H354.2V262.2H344.3H339.4V257.3H334.5V262.2H324.6V257.3H314.7V262.2H299.9V257.3H270.3V262.2H255.5V257.3H240.7V262.2H235.8V257.3H230.9V262.2H221V257.3H211.1V262.2H191.4V257.3H181.5V262.2H166.7V257.3H161.8V262.2H151H147V257.3H142V262.2H132.2V257.3H122.3V262.2H107.5V257.3H77.9V262.2H63.1V257.3H48.3V262.2H43.4V257.3H38.4V262.2H28.6V257.3H18.7V262.2H-1.1V257.3H-10.9V262.2H-30V267.1H-20.8V271.9H-15.9V267.1H-6V271.9H-1.1V276.8H3.9V271.9H8.8V276.8H18.7V271.9H23.6V267.1H28.6V271.9H33.5V276.8H38.4V271.9V267.1H43.4V271.9H58.2V267.1H63.1V271.9H68V276.8H77.9V271.9H92.7V267.1H107.5V271.9H117.4V267.1H127.2V271.9H137.1V267.1H147V271.9H151.9V267.1H156.8V271.9H166.7V267.1H171.6V271.9H176.6V267.1H186.4V271.9H191.4V276.8H196.3V271.9H201.3V276.8H211.1V271.9H216.1V267.1H221V271.9H225.9V276.8H230.9V271.9V267.1H235.8V271.9H250.6V267.1H255.5V271.9H260.5V276.8H270.3V271.9H285.1V267.1H299.9V271.9H309.8V267.1H319.7V271.9H329.5V267.1H339.4V271.9H344.3V267.1H349.3V271.5H359.1V267.1H364.1V271.5H369V267.1H378.9V271.5H383.8V276.8H388.8V271.5H393.7V276.8H403.6V271.5H408.5V267.1H413.4V271.5H418.4V276.8H423.3V271.5V267.1H428.2V271.5H443V267.1H448V271.5H452.9V276.8H462.8V271.5H477.6V267.1H492.4V271.9H502.2V267.1H512.1V271.9H522V267.1H531.8V271.9H536.8V267.1H541.7V271.9H551.6V267.1H556.5V271.9H561.5V267.1H571.3V271.6H576.3V276.8H581.2V271.6H586.1V276.8H596V271.6H600.9V267.1H605.9V271.6H610.8V276.8H615.7V271.6V267.1H620.7V271.6H635.5V267.1H640.4V271.6H645.3V276.8H655.2V271.6H670V267.1H684.8V271.9H694.7V267.1H704.6V271.9H714.4V267.1H724.3V271.9H729.2V267.2H734.2V271.9H744V267.2H749V271.9H753.9V267.2H763.8V271.9H768.7V276.8H773.6V271.9H778.6V276.8H788.4V271.9H793.4V267.2H798.3V271.9H803.2V276.8H808.2V271.9V267.2H813.1V271.9H827.9V267.2H832.8V271.9H837.8V276.8H847.6V271.9H862.4V267.2H877.3V271.9H887.1V267.2H897V271.9H906.9V267.2H910V267.1H913.9V271.9H923.8V267.1H928.7V271.9H933.7V267.1H943.5V271.9H948.5V276.8H953.4V271.9H958.3V276.8H968.2V271.9H973.1V267.1H978.1V271.9H983V276.8H987.9V271.9V267.1H992.9V271.9H1007.7V267.1H1012.6V271.9H1017.6V276.8H1027.4V271.9H1042.2V267.1H1057V271.9H1066.9V267.1H1076.8V271.9H1086.6V267.1H1096.5V271.9H1101.4V267.1H1106.4V271.9H1116.2V267.1H1121.2V271.9H1126.1V267.1H1136V271.9H1140.9V276.8H1145.8V271.9H1150.8V276.8H1160.6V271.9H1165.6V267.1H1170.5V271.9H1175.4V276.8H1180.4V271.9V267.1H1185.3V271.9H1200.1V267.1H1205.1V271.9H1210V276.8H1219.9V271.9H1234.7V267.1H1249.5V271.9H1259.3V267.1H1269.2V271.9H1279.1V267.1H1288.9V271.9H1293.9V267.1H1298.8V271.6H1308.7V267.1H1313.6V271.6H1318.5V267.1H1328.4V271.6H1333.3V276.8H1338.3V271.6H1343.2V276.8H1353.1V271.6H1358V267.1H1363V271.6H1367.9V276.8H1372.8V271.6V267.1H1377.8V271.6H1392.6V267.1H1397.5V271.6H1402.4V276.8H1412.3V271.6H1427.1V267.1H1441.9V271.6H1451.8V267.1H1461.6V271.6H1471.5V267.1H1481.4V271.6H1486.3V267.1H1491.3V271.6H1501.1V267.1H1506.1V271.6H1511V267.1H1520.8V271.6H1525.8V276.8H1530.7V271.6H1535.7V276.8H1545.5V271.6H1550.5V267.1H1555.4V271.6H1560.3V276.8H1565.3V271.6V267.1H1570.2V271.6H1585V267.1H1589.9V271.6H1594.9V276.8H1604.7V271.6H1619.5V267.1H1634.3V271.9H1644.2V267.1H1654.1V271.9H1663.9V267.1H1678.3H1673.8V271.9H1678.8V267.2H1683.7V271.9H1693.6V267.2H1698.5V271.9H1703.4V267.2H1713.3V271.9H1718.2V276.8H1723.2V271.9H1728.1V276.8H1738V271.9H1742.9V267.2H1747.8V271.9H1752.8V276.8H1757.7V271.9V267.2H1762.6V271.9H1777.4V267.2H1782.4V271.9H1787.3V276.8H1797.2V271.9H1812V267.2H1843.3V262.3H1826.8Z" fill="#009E9E"/>
<path d="M990.4 89.3V144L978.5 147.1L974.5 151.6L967.6 147.1H958.6L953.3 151.6L948 147.1V104.2H958.6L961.4 101.5L960.9 90.9L955.8 85.6H949.6V69.7H893.1V84.6L884.7 88V104.2H892.4V149.3H852.4V89.3H810V244.8H1032.9V142.8V89.3H990.4Z" fill="#DFF9FF"/>
<path d="M919.7 16.6H942.6V11.3V6.00001V0.700012H919.7V3.40001H918.8V13.9H919.7V16.6Z" fill="#DFF9FF"/>
<path d="M1027.1 53.7V48.4V43.1H1006.7V48.4H1009.4V53.7H1006.7V59H1027.1V53.7Z" fill="#DFF9FF"/>
<path d="M846.7 53.7V48.4V45.9V43.1H826.3V48.4H829V53.7H826.3V59H846.7V53.7Z" fill="#DFF9FF"/>
<path d="M852.4 122.9V122.5H817.3V127.8H836.5V244H852.4V122.9Z" fill="#AEF1F1"/>
<path d="M1032.9 122.5H997.8V127.8H1016.9V244.8H1032.9V127.8V122.5Z" fill="#AEF1F1"/>
<path d="M947.9 109.4H926.7V149.3H947.9V109.4Z" fill="#AEF1F1"/>
<path d="M1032.8 90.9H1016.9V101.5H1032.8V90.9Z" fill="#AEF1F1"/>
<path d="M852.4 90.9H836.3V101.5H852.4V90.9Z" fill="#AEF1F1"/>
<path d="M895.2 236.3V198.3H889.9V236.3H852.4V244H895.2V236.3Z" fill="#AEF1F1"/>
<path d="M937.2 203.8H931.9V244H937.2V203.8Z" fill="#2FBABB"/>
<path d="M910.9 203.8H905.6V244H910.9V203.8Z" fill="#2FBABB"/>
<path d="M931.9 198.3H910.8V203.6H931.9V198.3Z" fill="#2FBABB"/>
<path d="M931.6 114.3H910.5V119.6H931.6V114.3Z" fill="#2FBABB"/>
<path d="M931.6 119.6V130.7H910.6V119.6H905.3V130.7V136H910.6H931.6H936.9V119.6H931.6Z" fill="#2FBABB"/>
<path d="M963.4 62.5H958.1V67.8H963.4V62.5Z" fill="#009E9E"/>
<path d="M952.8 51.9H947.5V57.2H952.8V51.9Z" fill="#009E9E"/>
<path d="M942.2 41.3H936.9V46.6H942.2V41.3Z" fill="#009E9E"/>
<path d="M958.1 57.2H952.8V62.5H958.1V57.2Z" fill="#009E9E"/>
<path d="M947.5 46.6H942.2V51.9H947.5V46.6Z" fill="#009E9E"/>
<path d="M936.9 36H931.6V41.3H936.9V36Z" fill="#009E9E"/>
<path d="M931.6 30.7H926.3V36H931.6V30.7Z" fill="#009E9E"/>
<path d="M990.4 149.3V144H976.3V149.3H971V144H955.9V149.3H950.6V144H934.6V149.3H929V144H912.6V149.3H907.3V144H892.2V149.3H886.9V144H871.8V149.3H866.5V144H852.4V150.8V167.8H990.5V149.3H990.4Z" fill="#66C8C9"/>
<path d="M912.6 147.9H907.3V154.5H912.6V147.9Z" fill="#DFF9FF"/>
<path d="M916.1 85.6H910.8V99H916.1V85.6Z" fill="#DFF9FF"/>
<path d="M934.6 147.9H929V154.5H934.6V147.9Z" fill="#AEF1F1"/>
<path d="M955.9 149.3H950.6V154.6H955.9V149.3Z" fill="#5EDDDE"/>
<path d="M949.6 73.1H926.7V88H926.8V98.9H932.1V88H941.9V98.9H947.2V88H949.6V73.1Z" fill="#AEF1F1"/>
<path d="M976.3 149.3H971V154.6H976.3V149.3Z" fill="#5EDDDE"/>
<path d="M958.2 88H958.1V82.7H947.2V98.9H941.9V82.7H932.1V98.9H926.8V82.7H915.9V98.9H910.8V82.7H901V88H895.7V82.7H884.7V88H884.5H879.4V109.4H884.5H884.7H958.1H958.2H963.4V88H958.2Z" fill="#66C8C9"/>
<path d="M892.2 149.3H886.9V154.6H892.2V149.3Z" fill="#5EDDDE"/>
<path d="M871.8 149.3H866.5V154.6H871.8V149.3Z" fill="#5EDDDE"/>
<path d="M901 85.6H895.7V99H901V85.6Z" fill="#DFF9FF"/>
<path d="M960.8 67.8V65.1L955.2 59.9L950.1 53.7L944.3 49.1L940 43.9L933.8 38.6L929 32.5L925 29.4L919.3 28.2L916.2 30.7H911.3V35.8L911.1 36H905.9V41.3H900.6V46.3L900.3 46.6H895.3V51.9H890V57.2H890.2L890 57.4V57.2H884.7V62.5H879.4V67.8V73.1H963.4V67.8H960.8Z" fill="#009E9E"/>
<path d="M921.4 0.700012H916.1V25.4H921.4V0.700012Z" fill="#2FBABB"/>
<path d="M926.7 25.4H916.1V30.7H926.7V25.4Z" fill="#009E9E"/>
<path d="M1016.9 138.6H1006.3V143.9H1016.9V138.6Z" fill="#2FBABB"/>
<path d="M1022.2 159.9V144H1016.9V159.9H1006.3V144H1001V159.9V165.2H1006.3H1016.9H1022.2V159.9Z" fill="#2FBABB"/>
<path d="M1011.6 43.1H1006.3V64.3H1011.6V43.1Z" fill="#2FBABB"/>
<path d="M1032.9 80.3H1027.6V90.9H1032.9V80.3Z" fill="#009E9E"/>
<path d="M1038.2 106.9H1032.9V101.5H990.4V106.9H985.1V122.9H990.4V123H1032.9V122.6H1038.2V106.9Z" fill="#66C8C9"/>
<path d="M1022.2 98.9H1016.9V112.1H1022.2V98.9Z" fill="#AEF1F1"/>
<path d="M1006.3 100.5H1001V112.1H1006.3V100.5Z" fill="#DFF9FF"/>
<path d="M1016.9 64.4H1006.3V69.7H1016.9V64.4Z" fill="#009E9E"/>
<path d="M1027.6 75H1022.3V80.3H1027.6V75Z" fill="#009E9E"/>
<path d="M1022.2 69.7H1016.9V75H1022.2V69.7Z" fill="#009E9E"/>
<path d="M1030 85.6V82.5L1024.4 77L1019 71.8L1014.7 67.6L1009.7 66.6L1006.2 69.6H1000.9V75H995.6V80.2L995.5 80.3H990.3V85.6H985V90.9H1038.1V85.6H1030Z" fill="#009E9E"/>
<path d="M1016.9 186.4H1006.3V191.7H1016.9V186.4Z" fill="#2FBABB"/>
<path d="M1022.2 207.6V191.7H1016.9V207.6H1006.3V191.7H1001V207.6V212.9H1022.2V207.6Z" fill="#2FBABB"/>
<path d="M831.2 43.1H825.9V64.3H831.2V43.1Z" fill="#2FBABB"/>
<path d="M836.5 138.6H825.9V143.9H836.5V138.6Z" fill="#2FBABB"/>
<path d="M841.8 159.9V144H836.5V159.9H825.9V144H820.6V159.9V165.2H825.9H836.5H841.8V159.9Z" fill="#2FBABB"/>
<path d="M857.7 106.9H852.4V101.5H809.9V106.9H804.7V122.9H810H852.4V122.6H857.7V106.9Z" fill="#66C8C9"/>
<path d="M841.8 100.5H836.5V112H841.8V100.5Z" fill="#AEF1F1"/>
<path d="M825.9 100.5H820.6V112H825.9V100.5Z" fill="#DFF9FF"/>
<path d="M849.4 85.6V82.5L843.8 77L838.5 71.7L834.2 67.6L829.2 66.6L825.7 69.7H820.6V74.9L820.5 75H815.3V80.1L815.1 80.3H810V85.6H804.7V90.9H857.7V85.6H849.4Z" fill="#009E9E"/>
<path d="M836.5 186.4H825.9V191.7H836.5V186.4Z" fill="#2FBABB"/>
<path d="M841.8 207.6V191.7H836.5V207.6H825.9V191.7H820.6V207.6V212.9H841.8V207.6Z" fill="#2FBABB"/>
<path d="M900.5 198.3H895.2V244H900.5V198.3Z" fill="#2FBABB"/>
<path d="M947.6 198.3H942.3V244H947.6V198.3Z" fill="#2FBABB"/>
<path d="M937 187.6H905.9V192.9H937V187.6Z" fill="#2FBABB"/>
<path d="M905.9 193H900.6V198.3H905.9V193Z" fill="#2FBABB"/>
<path d="M942.3 193H937V198.3H942.3V193Z" fill="#2FBABB"/>
<path d="M933.5 0.700012H926.8V16.6H933.5V0.700012Z" fill="#AEF1F1"/>
<path d="M932 203.4H910.8V244H932V203.4Z" fill="#AEF1F1"/>
<path d="M1016.9 191.7H1006.3V207.6H1016.9V191.7Z" fill="#AEF1F1"/>
<path d="M836.3 191.7H825.7V207.6H836.3V191.7Z" fill="#AEF1F1"/>
<path d="M1016.9 144.1H1006.3V160H1016.9V144.1Z" fill="#AEF1F1"/>
<path d="M836.3 144.1H825.7V160H836.3V144.1Z" fill="#AEF1F1"/>
<path d="M931.6 119.6H910.6V130.7H931.6V119.6Z" fill="#AEF1F1"/>
<path d="M900.5 193H895.2V198.3H900.5V193Z" fill="#AEF1F1"/>
<path d="M905.9 187.6H900.6V192.9H905.9V187.6Z" fill="#AEF1F1"/>
<path d="M948 109.4H901V114.7H948V109.4Z" fill="#AEF1F1"/>
<path d="M990.4 167.8H971H864.1V173.1H971V236.3H947.6V244H971H990.4V167.8Z" fill="#AEF1F1"/>
<path d="M825.9 69.7H831.2V75H836.5V69.7V64.4H825.9V69.7Z" fill="#088484"/>
<path d="M841.8 69.7H836.5V75V80.3H840.8H841.8V85.6H847.1V80.3V79.4V75H841.8V69.7Z" fill="#088484"/>
<path d="M852.401 85.6V80.3H847.101V90.9H852.401H857.701V85.6H852.401Z" fill="#088484"/>
<path d="M936.9 36H931.6V30.7H926.7V25.4H916.1V30.7H921.4V36H926.3V41.3H931.6V46.6H936.9V51.9H942.2V46.6V45.1V41.3H936.9V36Z" fill="#088484"/>
<path d="M960.8 62.5H958.1V57.2H952.8V51.9H951.3H947.5V46.6H942.2V51.9V57.2H944.8V57.3H947.5V62.5H952.8V67.8H958.1V67.7V73.1H963.4V62.5H960.8Z" fill="#088484"/>
<path d="M1016.9 64.4H1006.3V69.7H1016.9V64.4Z" fill="#088484"/>
<path d="M1032.9 85.6V80.3H1027.6H1027.8V75H1022.5V69.7H1017.2H1011.6V75H1017.1V77.6H1017.2V80.3H1022.5V82.7V85.6H1027.8V90.9H1038.2V85.6H1032.9Z" fill="#088484"/>
</g>
<defs>
<clipPath id="clip0_274_677">
<rect width="1821" height="282" fill="white" transform="translate(0.5)"/>
</clipPath>
</defs>
</svg>
