<svg width="1640" height="254" viewBox="0 0 1640 254" fill="none" xmlns="http://www.w3.org/2000/svg">
<g clip-path="url(#clip0_274_677)">
<path d="M697.518 178.611H693.375V182.843H697.518V178.611Z" fill="#2FBABB"/>
<path d="M651.947 178.611H647.805V182.843H651.947V178.611Z" fill="#2FBABB"/>
<path d="M693.375 174.287H685.09V178.52H693.375V174.287Z" fill="#2FBABB"/>
<path d="M660.233 174.287H651.947V178.52H660.233V174.287Z" fill="#2FBABB"/>
<path d="M685.09 170.054H660.233V174.287H685.09V170.054Z" fill="#2FBABB"/>
<path d="M664.646 190.59H655.82V195.003H664.646V190.59Z" fill="#009E9E"/>
<path d="M697.518 195.004H692.835V199.146H697.518V195.004Z" fill="#088484"/>
<path d="M689.863 197.796V190.32H685.09V195.004H676.804V190.77H672.661V186.627H664.376V190.77H668.519V195.004H671.401L672.121 199.147H671.401H664.646V195.004H651.947V189.509H647.805V199.147H651.947V203.29H660.233V207.433H668.519V219.863H676.804V207.433H685.09V203.29H693.375V197.796H689.863Z" fill="#088484"/>
<path d="M697.518 186.537H688.782V190.95H697.518V186.537Z" fill="#088484"/>
<path d="M656.09 186.177H651.497V190.77H656.09V186.177Z" fill="#088484"/>
<path d="M665.006 182.213H655.46V186.987H665.006V182.213Z" fill="#088484"/>
<path d="M673.112 177.98H668.158V182.933H673.112V177.98Z" fill="#088484"/>
<path d="M681.847 174.197H671.851V178.79H681.847V174.197Z" fill="#088484"/>
<path d="M685.09 178.34H680.497V182.933H685.09V178.34Z" fill="#088484"/>
<path d="M685.63 186.177H680.497V191.31H685.63V186.177Z" fill="#088484"/>
<path d="M693.375 195.004H689.232V199.146H693.375V195.004Z" fill="#009E9E"/>
<path d="M672.662 195.004H664.376V199.416H672.662V195.004Z" fill="#009E9E"/>
<path d="M697.518 190.77H689.232V194.913H697.518V190.77Z" fill="#2FBABB"/>
<path d="M668.519 190.77H664.376V194.913H668.519V190.77Z" fill="#2FBABB"/>
<path d="M656.09 190.77H651.947V194.913H656.09V190.77Z" fill="#2FBABB"/>
<path d="M681.037 182.304L672.662 182.484L672.481 190.86H676.804V195.184H685.36V190.86H681.037V182.304Z" fill="#009E9E"/>
<path d="M664.376 186.627H656.09V190.77H664.376V186.627Z" fill="#2FBABB"/>
<path d="M651.947 186.627H656.09V182.484H664.376V186.627H668.519V178.34H672.661V174.197H660.233V178.34H651.947V182.484H647.805V190.77H651.947V186.627V186.627Z" fill="#009E9E"/>
<path d="M685.09 182.484H680.947V186.626H685.09V182.484Z" fill="#2FBABB"/>
<path d="M672.661 182.484H668.519V186.626H672.661V182.484Z" fill="#2FBABB"/>
<path d="M693.375 178.34H685.09V190.77H689.233V186.627H697.518V182.484H693.375V178.34Z" fill="#009E9E"/>
<path d="M680.947 178.34H672.662V182.483H680.947V178.34Z" fill="#2FBABB"/>
<path d="M685.09 174.197H680.947V178.34H685.09V174.197Z" fill="#009E9E"/>
<path d="M1108.82 182.484H1104.23V187.167H1108.82V182.484Z" fill="#B44BA1"/>
<path d="M1125.03 182.304H1115.94V186.897H1125.03V182.304Z" fill="#B44BA1"/>
<path d="M1146.2 195.184H1141.34V200.137H1146.2V195.184Z" fill="#B44BA1"/>
<path d="M1120.17 190.23V194.913H1124.58V204.281L1129.18 203.56V199.327L1133.32 199.597V194.913H1129.54L1129.09 190.95L1120.17 190.23Z" fill="#B44BA1"/>
<path d="M1145.84 207.794H1141.7V199.327H1137.55V195.094H1133.41V203.56H1129.27V212.027H1133.41V220.494H1137.55V212.027H1141.7V220.494H1145.84V207.794Z" fill="#F7FEFF"/>
<path d="M1129.18 207.794H1125.03V212.026H1129.18V207.794Z" fill="#E1D1DE"/>
<path d="M1120.89 207.794V195.094H1116.75V190.95H1112.61V186.717H1108.46V190.95H1104.32V199.417H1112.61V220.494H1116.75V212.027H1120.89V220.494H1125.03V207.794H1120.89V207.794Z" fill="#F7FEFF"/>
<path d="M1150.07 199.417L1145.93 198.967V216.35H1150.07V212.117H1154.21V207.884H1150.79L1150.07 199.417Z" fill="#B44BA1"/>
<path d="M1129.18 203.56H1125.03V207.793H1129.18V203.56Z" fill="#A545A4"/>
<path d="M1125.03 203.56H1120.89V207.793H1125.03V203.56Z" fill="#E1D1DE"/>
<path d="M1154.21 199.417H1150.07V207.883H1154.21V199.417Z" fill="#D779A5"/>
<path d="M1145.84 199.417H1141.7V207.883H1145.84V199.417Z" fill="#E1D1DE"/>
<path d="M1133.41 199.417H1129.27V203.65H1133.41V199.417Z" fill="#E1D1DE"/>
<path d="M1125.03 194.913H1120.89V203.56H1125.03V194.913Z" fill="#A545A4"/>
<path d="M1150.07 195.184H1145.93V199.417H1150.07V195.184Z" fill="#D779A5"/>
<path d="M1141.7 195.184H1137.55V199.417H1141.7V195.184Z" fill="#E1D1DE"/>
<path d="M1133.41 190.95H1129.27V195.183H1133.41V190.95Z" fill="#D779A5"/>
<path d="M1120.89 190.95H1116.75V195.183H1120.89V190.95Z" fill="#E1D1DE"/>
<path d="M1129.18 182.484H1125.03V190.949H1129.18V182.484Z" fill="#D779A5"/>
<path d="M1125.03 186.717H1120.89V190.95H1125.03V186.717Z" fill="#F7FEFF"/>
<path d="M1120.89 186.717H1116.75V190.95H1120.89V186.717Z" fill="#A545A4"/>
<path d="M1116.75 186.717H1112.61V190.95H1116.75V186.717Z" fill="#E1D1DE"/>
<path d="M1108.37 186.717H1104.23V190.95H1108.37V186.717Z" fill="#A545A4"/>
<path d="M1116.75 182.484H1108.46V186.717H1116.75V182.484Z" fill="#A545A4"/>
<path d="M1125.03 178.25H1116.75V182.483H1125.03V178.25Z" fill="#D779A5"/>
<path d="M1116.75 178.25H1112.61V182.483H1116.75V178.25Z" fill="#E2B436"/>
<path d="M1112.52 178.25H1108.37V182.483H1112.52V178.25Z" fill="#CF8934"/>
<path d="M1112.52 174.017H1108.37V178.25H1112.52V174.017Z" fill="#E2B436"/>
<path d="M1108.37 174.017H1104.23V178.25H1108.37V174.017Z" fill="#CF8934"/>
<path d="M1108.37 169.784H1104.23V174.017H1108.37V169.784Z" fill="#E2B436"/>
<path d="M598.902 204.551H549.368V208.064H538.741V218.692H549.819H598.902V204.551Z" fill="#009E9E"/>
<path d="M538.741 211.666H545.766V215.179H549.368V211.666V208.064H538.741V211.666Z" fill="#29B8B8" fill-opacity="0.9624"/>
<path d="M598.901 204.551H586.473V201.038H575.846V204.551H559.995V201.038H549.368V204.551V208.064H556.393V211.667H559.995V208.064H563.508V211.667H574.135V208.064H584.762V211.487H588.274V215.179H591.787V211.487H595.389V208.064H598.901V204.551Z" fill="#29B8B8" fill-opacity="0.9624"/>
<path d="M1019.57 204.551H1069.2V208.064H1079.73V218.692H1068.66H1019.57V204.551Z" fill="#009E9E"/>
<path d="M1079.73 211.666H1072.71V215.179H1069.2V211.666V208.064H1079.73V211.666Z" fill="#29B8B8" fill-opacity="0.9624"/>
<path d="M1019.57 204.551H1032V201.038H1042.63V204.551H1058.57V201.038H1069.2V204.551V208.064H1062.08V211.667H1058.57V208.064H1054.97V211.667H1044.34V208.064H1033.71V211.487H1030.2V215.179H1026.69V211.487H1023.18V208.064H1019.57V204.551Z" fill="#29B8B8" fill-opacity="0.9624"/>
<path d="M106.812 205.992V209.145H97.2651V218.692H106.812H107.622H151.301V205.992H106.812Z" fill="#009E9E"/>
<path d="M140.224 205.992V202.84H130.678V205.992H116.358V202.84H106.812V205.992V209.145H97.2651V212.387H103.569V215.54H106.812V212.387V209.145H113.116V212.387H116.358V209.145H119.51V212.387H129.056V209.145H138.603V212.387H141.755V215.54H144.997V212.387H148.149V209.145H151.301V205.992H140.224Z" fill="#29B8B8" fill-opacity="0.9624"/>
<path d="M362.763 212.567V209.415H353.397V203.2H310.078V209.415H300.802V218.692H310.078H353.397H361.142H362.763H368.887V212.567H362.763Z" fill="#009E9E"/>
<path d="M362.763 212.567V209.415H353.397V212.567V213.648V215.629H356.549H368.887V212.567H362.763Z" fill="#29B8B8" fill-opacity="0.9624"/>
<path d="M346.463 200.138H341.059V197.075H331.783V200.138H316.292V203.2H310.078V206.353H316.292V209.415H319.354V206.353H322.416V209.415H331.783V206.353H341.059V209.415H350.335V206.353H353.397V203.2H346.463V200.138Z" fill="#29B8B8" fill-opacity="0.9624"/>
<path d="M300.802 209.415V212.567H306.926V215.629H310.078V212.567V211.847V209.415H300.802Z" fill="#29B8B8" fill-opacity="0.9624"/>
<path d="M1223.2 212.567V209.415H1232.48V203.2H1275.89V209.415H1285.16V218.692H1275.89H1232.48H1224.73H1223.2H1216.99V212.567H1223.2Z" fill="#009E9E"/>
<path d="M1223.2 212.567V209.415H1232.48V212.567V213.648V215.629H1229.41H1216.99V212.567H1223.2Z" fill="#29B8B8" fill-opacity="0.9624"/>
<path d="M1239.5 200.138H1244.9V197.075H1254.18V200.138H1269.67V203.2H1275.89V206.353H1269.67V209.415H1266.61V206.353H1263.46V209.415H1254.18V206.353H1244.9V209.415H1235.63V206.353H1232.48V203.2H1239.5V200.138Z" fill="#29B8B8" fill-opacity="0.9624"/>
<path d="M1285.16 209.415V212.567H1278.95V215.629H1275.89V212.567V211.847V209.415H1285.16Z" fill="#29B8B8" fill-opacity="0.9624"/>
<path d="M438.144 215.63V209.415H428.868H419.592V212.567H413.377V218.692H419.592H420.222H428.868H436.973H438.144H445.079V215.63H438.144Z" fill="#009E9E"/>
<path d="M428.868 209.415V206.352H425.716H422.654V209.415H419.592V212.567H428.868H434.992V215.63H438.144V212.567V211.937V209.415H428.868Z" fill="#29B8B8" fill-opacity="0.9624"/>
<path d="M416.439 212.567H413.377V215.629H416.439H419.502V212.567H416.439Z" fill="#29B8B8" fill-opacity="0.9624"/>
<path d="M968.149 215.63V209.415H977.426H986.702V212.567H992.916V218.692H986.702H986.071H977.426H969.23H968.149H961.125V215.63H968.149Z" fill="#009E9E"/>
<path d="M977.426 209.415V206.352H980.488H983.64V209.415H986.702V212.567H977.426H971.211V215.63H968.149V212.567V211.937V209.415H977.426Z" fill="#29B8B8" fill-opacity="0.9624"/>
<path d="M989.764 212.567H992.916V215.629H989.764H986.702V212.567H989.764Z" fill="#29B8B8" fill-opacity="0.9624"/>
<path d="M1412.51 215.63V209.415H1403.23H1393.95V212.567H1387.74V218.692H1393.95H1394.59H1403.23H1411.43H1412.51H1419.53V215.63H1412.51Z" fill="#009E9E"/>
<path d="M1403.23 209.415V206.352H1400.17H1397.02V209.415H1393.96V212.567H1403.23H1409.45V215.63H1412.51V212.567V211.937V209.415H1403.23Z" fill="#29B8B8" fill-opacity="0.9624"/>
<path d="M1390.89 212.567H1387.74V215.629H1390.89H1393.95V212.567H1390.89Z" fill="#29B8B8" fill-opacity="0.9624"/>
<path d="M818.649 218.692H-27.4683V255.621H818.649V218.692Z" fill="#2FBABB"/>
<path d="M1659.18 218.692H818.199V255.621H1659.18V218.692Z" fill="#2FBABB"/>
<path d="M1659.18 253.73V237.607H818.649H818.199H-27.4683V255.621L1499.6 256.522L1658.19 253.64L1659.18 253.73Z" fill="#088484"/>
<path d="M1644.77 236.256V231.752H1618.12V236.256H1604.79V231.752H1591.46V236.256H1586.95V231.752H1582.54V236.256H1573.63V231.752H1564.8V236.256H1546.97V231.752H1538.14V236.256H1524.81V231.752H1520.31V236.256H1511.39V236.166H1506.98V231.752H1502.57V236.166H1493.65V231.752H1484.83V236.166H1471.41V231.752H1444.75V236.166H1431.42V231.752H1418.09V236.166H1413.68V231.752H1409.27V236.166H1400.35V231.752H1391.43V236.166H1373.69V231.752H1364.78V236.166H1351.45V231.752H1347.03V236.166H1338.12H1333.7V231.752H1329.2V236.166H1320.38V231.752H1311.46V236.166H1298.13V231.752H1271.47V236.166H1258.14V231.752H1244.82V236.166H1240.4V231.752H1235.9V236.166H1227.07V231.752H1218.16V236.166H1200.33V231.752H1191.5V236.166H1178.17V231.752H1173.67V236.166H1166.55H1164.84H1160.34V231.752H1155.93V236.166H1147.01V231.752H1138.18V236.166H1124.85V231.752H1098.2V236.166H1084.87V231.752H1071.54V236.166H1067.04V231.752H1062.62V236.166H1053.71V231.752H1044.88V236.166H1027.05V231.752H1018.13V236.166H1004.8V231.752H1000.39V236.166H991.475H987.062V231.752H982.649V236.166H973.733V231.752H964.817V236.166H951.488V231.752H924.831V236.166H911.502V231.752H898.173V236.166H893.76V231.752H889.347V236.166H880.431V231.752H871.515V236.166H853.773V231.752H844.857V236.166H831.528V231.752H827.115V236.166H818.199V236.256H811.805V231.752H802.979V236.256H789.65V231.752H762.902V236.256H749.573V231.752H736.244V236.256H731.831V231.752H727.418V236.256H718.502V231.752H709.586V236.256H691.844V231.752H682.928V236.256H669.599V231.752H665.186V236.256H656.27V236.166H651.857V231.752H647.444V236.166H638.528V231.752H629.612V236.166H616.284V231.752H589.626V236.166H576.297V231.752H562.968V236.166H558.555V231.752H554.052V236.166H545.226V231.752H536.31V236.166H518.568V231.752H509.652V236.166H496.323V231.752H491.91V236.166H482.994H478.581V231.752H474.078V236.166H465.162V231.752H456.336V236.166H443.007V231.752H416.349V236.166H403.02V231.752H389.692V236.166H385.189V231.752H380.776V236.166H371.86V231.752H363.034V236.166H345.202V231.752H336.376V236.166H322.957V231.752H318.544V236.166H309.628H305.215V231.752H300.802V236.166H291.886V231.752H282.97V236.166H269.641V231.752H242.983V236.166H229.654V231.752H216.325V236.166H211.912V231.752H207.499V236.166H198.583V231.752H189.667V236.166H171.925V231.752H163.009V236.166H149.681V231.752H145.268V236.166H135.541H131.939V231.752H127.436V236.166H118.61V231.752H109.694V236.166H96.3648V231.752H69.7069V236.166H56.378V231.752H43.049V236.166H38.6361V231.752H34.1331V236.166H25.3071V231.752H16.3912V236.166H-1.4408V231.752H-10.2667V236.166H-27.4683V240.579H-19.1827V244.903H-14.7697V240.579H-5.85376V244.903H-1.4408V249.316H3.06222V244.903H7.47518V249.316H16.3912V244.903H20.8041V240.579H25.3071V244.903H29.7201V249.316H34.1331V244.903V240.579H38.6361V244.903H51.965V240.579H56.378V244.903H60.7909V249.316H69.7069V244.903H83.0359V240.579H96.3648V244.903H105.281V240.579H114.107V244.903H123.023V240.579H131.939V244.903H136.352V240.579H140.765V244.903H149.681V240.579H154.094V244.903H158.597V240.579H167.422V244.903H171.925V249.316H176.338V244.903H180.841V249.316H189.667V244.903H194.17V240.579H198.583V244.903H202.996V249.316H207.499V244.903V240.579H211.912V244.903H225.241V240.579H229.654V244.903H234.157V249.316H242.983V244.903H256.312V240.579H269.641V244.903H278.557V240.579H287.473V244.903H296.299V240.579H305.215V244.903H309.628V240.579H314.131V244.543H322.957V240.579H327.46V244.543H331.873V240.579H340.789V244.543H345.202V249.316H349.705V244.543H354.118V249.316H363.034V244.543H367.447V240.579H371.86V244.543H376.363V249.316H380.776V244.543V240.579H385.189V244.543H398.517V240.579H403.02V244.543H407.433V249.316H416.349V244.543H429.678V240.579H443.007V244.903H451.833V240.579H460.749V244.903H469.665V240.579H478.491V244.903H482.994V240.579H487.407V244.903H496.323V240.579H500.736V244.903H505.239V240.579H514.065V244.633H518.568V249.316H522.981V244.633H527.394V249.316H536.31V244.633H540.723V240.579H545.226V244.633H549.639V249.316H554.052V244.633V240.579H558.555V244.633H571.884V240.579H576.297V244.633H580.71V249.316H589.626V244.633H602.955V240.579H616.284V244.903H625.2V240.579H634.115V244.903H642.941V240.579H651.857V244.903H656.27V240.669H660.773V244.903H669.599V240.669H674.102V244.903H678.515V240.669H687.431V244.903H691.844V249.316H696.257V244.903H700.76V249.316H709.586V244.903H714.089V240.669H718.502V244.903H722.915V249.316H727.418V244.903V240.669H731.831V244.903H745.16V240.669H749.573V244.903H754.076V249.316H762.902V244.903H776.231V240.669H789.65V244.903H798.476V240.669H807.392V244.903H816.308V240.669H819.1V240.579H822.612V244.903H831.528V240.579H835.941V244.903H840.444V240.579H849.27V244.903H853.773V249.316H858.186V244.903H862.599V249.316H871.515V244.903H875.928V240.579H880.431V244.903H884.844V249.316H889.257V244.903V240.579H893.76V244.903H907.089V240.579H911.502V244.903H916.005V249.316H924.831V244.903H938.159V240.579H951.488V244.903H960.404V240.579H969.32V244.903H978.146V240.579H987.062V244.903H991.475V240.579H995.978V244.903H1004.8V240.579H1009.31V244.903H1013.72V240.579H1022.64V244.903H1027.05V249.316H1031.46V244.903H1035.97V249.316H1044.79V244.903H1049.29V240.579H1053.71V244.903H1058.12V249.316H1062.62V244.903V240.579H1067.04V244.903H1080.36V240.579H1084.87V244.903H1089.28V249.316H1098.2V244.903H1111.53V240.579H1124.85V244.903H1133.68V240.579H1142.6V244.903H1151.51V240.579H1160.34V244.903H1164.84V240.579H1169.25V244.633H1178.17V240.579H1182.58V244.633H1187V240.579H1195.91V244.633H1200.33V249.316H1204.83V244.633H1209.24V249.316H1218.16V244.633H1222.57V240.579H1227.07V244.633H1231.49V249.316H1235.9V244.633V240.579H1240.4V244.633H1253.73V240.579H1258.14V244.633H1262.56V249.316H1271.47V244.633H1284.8V240.579H1298.13V244.633H1307.05V240.579H1315.87V244.633H1324.79V240.579H1333.7V244.633H1338.12V240.579H1342.62V244.633H1351.45V240.579H1355.95V244.633H1360.36V240.579H1369.19V244.633H1373.69V249.316H1378.1V244.633H1382.61V249.316H1391.43V244.633H1395.94V240.579H1400.35V244.633H1404.76V249.316H1409.27V244.633V240.579H1413.68V244.633H1427.01V240.579H1431.42V244.633H1435.92V249.316H1444.75V244.633H1458.08V240.579H1471.41V244.903H1480.32V240.579H1489.24V244.903H1498.06V240.579H1511.03H1506.98V244.903H1511.48V240.669H1515.9V244.903H1524.81V240.669H1529.23V244.903H1533.64V240.669H1542.55V244.903H1546.97V249.316H1551.47V244.903H1555.88V249.316H1564.8V244.903H1569.21V240.669H1573.63V244.903H1578.13V249.316H1582.54V244.903V240.669H1586.95V244.903H1600.28V240.669H1604.79V244.903H1609.2V249.316H1618.12V244.903H1631.44V240.669H1659.63V236.256H1644.77Z" fill="#009E9E"/>
<path d="M891.508 80.4333V129.702L880.79 132.494L877.188 136.548L870.974 132.494H862.868L858.095 136.548L853.322 132.494V93.8539H862.868L865.39 91.422L864.94 81.8745L860.347 77.1007H854.763V62.7794H803.879V76.2L796.314 79.2624V93.8539H803.248V134.476H767.224V80.4333H729.039V220.494H929.783V128.621V80.4333H891.508Z" fill="#DFF9FF"/>
<path d="M827.835 14.9517H848.459V10.178V5.40419V0.630432H827.835V3.06235H827.024V12.5198H827.835V14.9517Z" fill="#DFF9FF"/>
<path d="M924.56 48.3681V43.5943V38.8206H906.188V43.5943H908.619V48.3681H906.188V53.1418H924.56V48.3681Z" fill="#DFF9FF"/>
<path d="M762.091 48.3681V43.5943V41.3425V38.8206H743.718V43.5943H746.15V48.3681H743.718V53.1418H762.091V48.3681Z" fill="#DFF9FF"/>
<path d="M767.225 110.697V110.337H735.613V115.111H752.905V219.773H767.225V110.697Z" fill="#AEF1F1"/>
<path d="M929.784 110.337H898.172V115.111H915.374V220.494H929.784V115.111V110.337Z" fill="#AEF1F1"/>
<path d="M853.232 98.5376H834.139V134.476H853.232V98.5376Z" fill="#AEF1F1"/>
<path d="M929.694 81.8745H915.374V91.422H929.694V81.8745Z" fill="#AEF1F1"/>
<path d="M767.224 81.8745H752.725V91.422H767.224V81.8745Z" fill="#AEF1F1"/>
<path d="M805.77 212.838V178.611H800.997V212.838H767.225V219.773H805.77V212.838Z" fill="#AEF1F1"/>
<path d="M843.595 183.565H838.822V219.773H843.595V183.565Z" fill="#2FBABB"/>
<path d="M819.91 183.565H815.137V219.773H819.91V183.565Z" fill="#2FBABB"/>
<path d="M838.823 178.611H819.82V183.384H838.823V178.611Z" fill="#2FBABB"/>
<path d="M838.552 102.951H819.549V107.724H838.552V102.951Z" fill="#2FBABB"/>
<path d="M838.552 107.725V117.723H819.639V107.725H814.866V117.723V122.496H819.639H838.552H843.325V107.725H838.552Z" fill="#2FBABB"/>
<path d="M867.192 56.2943H862.418V61.0675H867.192V56.2943Z" fill="#009E9E"/>
<path d="M857.645 46.7468H852.872V51.52H857.645V46.7468Z" fill="#009E9E"/>
<path d="M848.099 37.1993H843.326V41.9725H848.099V37.1993Z" fill="#009E9E"/>
<path d="M862.418 51.5206H857.645V56.2938H862.418V51.5206Z" fill="#009E9E"/>
<path d="M852.872 41.9731H848.099V46.7463H852.872V41.9731Z" fill="#009E9E"/>
<path d="M843.325 32.4255H838.552V37.1987H843.325V32.4255Z" fill="#009E9E"/>
<path d="M838.552 27.6518H833.779V32.425H838.552V27.6518Z" fill="#009E9E"/>
<path d="M891.508 134.476V129.702H878.809V134.476H874.036V129.702H860.437V134.476H855.664V129.702H841.254V134.476H836.211V129.702H821.441V134.476H816.668V129.702H803.069V134.476H798.295V129.702H784.696V134.476H779.923V129.702H767.225V135.827V151.139H891.598V134.476H891.508Z" fill="#66C8C9"/>
<path d="M821.441 133.215H816.667V139.159H821.441V133.215Z" fill="#DFF9FF"/>
<path d="M824.593 77.1007H819.82V89.1702H824.593V77.1007Z" fill="#DFF9FF"/>
<path d="M841.254 133.215H836.211V139.159H841.254V133.215Z" fill="#AEF1F1"/>
<path d="M860.437 134.476H855.664V139.249H860.437V134.476Z" fill="#5EDDDE"/>
<path d="M854.763 65.8419H834.139V79.2624H834.229V89.0802H839.002V79.2624H847.828V89.0802H852.602V79.2624H854.763V65.8419Z" fill="#AEF1F1"/>
<path d="M878.809 134.476H874.036V139.249H878.809V134.476Z" fill="#5EDDDE"/>
<path d="M862.508 79.2624H862.418V74.4886H852.601V89.0801H847.828V74.4886H839.002V89.0801H834.229V74.4886H824.413V89.0801H819.819V74.4886H810.994V79.2624H806.22V74.4886H796.314V79.2624H796.134H791.541V98.5376H796.134H796.314H862.418H862.508H867.191V79.2624H862.508Z" fill="#66C8C9"/>
<path d="M803.069 134.476H798.295V139.249H803.069V134.476Z" fill="#5EDDDE"/>
<path d="M784.696 134.476H779.923V139.249H784.696V134.476Z" fill="#5EDDDE"/>
<path d="M810.994 77.1007H806.221V89.1702H810.994V77.1007Z" fill="#DFF9FF"/>
<path d="M864.85 61.0681V58.6362L859.806 53.9525L855.213 48.3681L849.99 44.2248L846.117 39.5412L840.533 34.7674L836.21 29.2731L832.608 26.4809L827.475 25.4L824.683 27.6518H820.27V32.2454L820.09 32.4256H815.407V37.1993H810.633V41.7029L810.363 41.9731H805.86V46.7468H801.087V51.5206H801.267L801.087 51.7007V51.5206H796.314V56.2943H791.541V61.0681V65.8419H867.191V61.0681H864.85Z" fill="#009E9E"/>
<path d="M829.366 0.630432H824.593V22.8779H829.366V0.630432Z" fill="#2FBABB"/>
<path d="M834.139 22.8781H824.593V27.6513H834.139V22.8781Z" fill="#009E9E"/>
<path d="M915.374 124.838H905.827V129.612H915.374V124.838Z" fill="#2FBABB"/>
<path d="M920.147 144.023V129.702H915.374V144.023H905.827V129.702H901.054V144.023V148.797H905.827H915.374H920.147V144.023Z" fill="#2FBABB"/>
<path d="M910.6 38.8206H905.827V57.9156H910.6V38.8206Z" fill="#2FBABB"/>
<path d="M929.783 72.327H925.01V81.8745H929.783V72.327Z" fill="#009E9E"/>
<path d="M934.556 96.2858H929.783V91.422H891.508V96.2858H886.734V110.697H891.508V110.787H929.783V110.427H934.556V96.2858Z" fill="#66C8C9"/>
<path d="M920.147 89.0801H915.374V100.969H920.147V89.0801Z" fill="#AEF1F1"/>
<path d="M905.827 90.5213H901.054V100.97H905.827V90.5213Z" fill="#DFF9FF"/>
<path d="M915.374 58.0057H905.827V62.7789H915.374V58.0057Z" fill="#009E9E"/>
<path d="M925.01 67.5532H920.237V72.3264H925.01V67.5532Z" fill="#009E9E"/>
<path d="M920.147 62.7794H915.374V67.5526H920.147V62.7794Z" fill="#009E9E"/>
<path d="M927.172 77.1007V74.3085L922.128 69.3546L917.265 64.6709L913.392 60.888L908.889 59.9872L905.737 62.6894H900.964V67.5532H896.191V72.2369L896.101 72.327H891.418V77.1007H886.645V81.8745H934.467V77.1007H927.172Z" fill="#009E9E"/>
<path d="M915.374 167.892H905.827V172.665H915.374V167.892Z" fill="#2FBABB"/>
<path d="M920.147 186.987V172.666H915.374V186.987H905.827V172.666H901.054V186.987V191.761H920.147V186.987Z" fill="#2FBABB"/>
<path d="M748.132 38.8206H743.358V57.9156H748.132V38.8206Z" fill="#2FBABB"/>
<path d="M752.905 124.838H743.358V129.612H752.905V124.838Z" fill="#2FBABB"/>
<path d="M757.678 144.023V129.702H752.905V144.023H743.358V129.702H738.585V144.023V148.797H743.358H752.905H757.678V144.023Z" fill="#2FBABB"/>
<path d="M771.998 96.2858H767.224V91.422H728.949V96.2858H724.266V110.697H729.039H767.224V110.427H771.998V96.2858Z" fill="#66C8C9"/>
<path d="M757.678 90.5213H752.905V100.879H757.678V90.5213Z" fill="#AEF1F1"/>
<path d="M743.358 90.5213H738.585V100.879H743.358V90.5213Z" fill="#DFF9FF"/>
<path d="M764.523 77.1007V74.3085L759.479 69.3546L754.706 64.5809L750.833 60.888L746.33 59.9872L743.178 62.7794H738.585V67.4631L738.495 67.5532H733.812V72.1468L733.632 72.327H729.039V77.1007H724.266V81.8745H771.998V77.1007H764.523Z" fill="#009E9E"/>
<path d="M752.905 167.892H743.358V172.665H752.905V167.892Z" fill="#2FBABB"/>
<path d="M757.678 186.987V172.666H752.905V186.987H743.358V172.666H738.585V186.987V191.761H757.678V186.987Z" fill="#2FBABB"/>
<path d="M810.544 178.611H805.771V219.773H810.544V178.611Z" fill="#2FBABB"/>
<path d="M852.962 178.611H848.188V219.773H852.962V178.611Z" fill="#2FBABB"/>
<path d="M843.416 168.973H815.407V173.746H843.416V168.973Z" fill="#2FBABB"/>
<path d="M815.407 173.837H810.633V178.61H815.407V173.837Z" fill="#2FBABB"/>
<path d="M848.189 173.837H843.416V178.61H848.189V173.837Z" fill="#2FBABB"/>
<path d="M840.264 0.630432H834.229V14.9517H840.264V0.630432Z" fill="#AEF1F1"/>
<path d="M838.913 183.204H819.82V219.773H838.913V183.204Z" fill="#AEF1F1"/>
<path d="M915.374 172.666H905.827V186.987H915.374V172.666Z" fill="#AEF1F1"/>
<path d="M752.725 172.666H743.178V186.987H752.725V172.666Z" fill="#AEF1F1"/>
<path d="M915.374 129.792H905.827V144.114H915.374V129.792Z" fill="#AEF1F1"/>
<path d="M752.725 129.792H743.178V144.114H752.725V129.792Z" fill="#AEF1F1"/>
<path d="M838.552 107.725H819.64V117.723H838.552V107.725Z" fill="#AEF1F1"/>
<path d="M810.544 173.837H805.771V178.61H810.544V173.837Z" fill="#AEF1F1"/>
<path d="M815.407 168.973H810.633V173.746H815.407V168.973Z" fill="#AEF1F1"/>
<path d="M853.322 98.5376H810.994V103.311H853.322V98.5376Z" fill="#AEF1F1"/>
<path d="M891.508 151.139H874.036H777.761V155.913H874.036V212.838H852.962V219.773H874.036H891.508V151.139Z" fill="#AEF1F1"/>
<path d="M743.358 62.7794H748.132V67.5532H752.905V62.7794V58.0057H743.358V62.7794Z" fill="#088484"/>
<path d="M757.678 62.7794H752.905V67.5532V72.3269H756.777H757.678V77.1007H762.451V72.3269V71.5163V67.5532H757.678V62.7794Z" fill="#088484"/>
<path d="M767.224 77.1007V72.327H762.451V81.8745H767.224H771.998V77.1007H767.224Z" fill="#088484"/>
<path d="M843.325 32.4256H838.552V27.6518H834.139V22.8781H824.593V27.6518H829.366V32.4256H833.779V37.1993H838.552V41.9731H843.325V46.7468H848.099V41.9731V40.622V37.1993H843.325V32.4256Z" fill="#088484"/>
<path d="M864.85 56.2944H862.418V51.5206H857.645V46.7468H856.294H852.872V41.9731H848.099V46.7468V51.5206H850.44V51.6107H852.872V56.2944H857.645V61.0681H862.418V60.978V65.8419H867.191V56.2944H864.85Z" fill="#088484"/>
<path d="M915.374 58.0057H905.827V62.7789H915.374V58.0057Z" fill="#088484"/>
<path d="M929.783 77.1007V72.3269H925.01H925.19V67.5532H920.417V62.7794H915.644H910.6V67.5532H915.553V69.895H915.644V72.3269H920.417V74.4886V77.1007H925.19V81.8745H934.556V77.1007H929.783Z" fill="#088484"/>
</g>
<defs>
<clipPath id="clip0_274_677">
<rect width="1640" height="254" fill="white"/>
</clipPath>
</defs>
</svg>
