<svg width="1335" height="128" viewBox="0 0 1335 128" fill="none" xmlns="http://www.w3.org/2000/svg">
<path d="M422.5 117.25V112.35V107.45H412.7V99.05H398.7V103.55H394.5V94.15H390.3V87.85H376.3V96.25H372.1V103.55V105.65V112.25H352.6V117.15H344.2V112.25H329.5V117.85H332.3V122.05H427.2V117.15L422.5 117.25Z" fill="#A8E7F4"/>
<path d="M403 121.85V117.25H407.9V112.45V107.55H398.1V112.45H393.2V116.55V117.25V121.85H368.8V117.25H373.7V112.45H378.6V107.55H373.7V103.15V98.05H380.7V93.05V87.95H375.8V93.05H370.9V98.05H365.3V103.15H361.8V107.55H354.1V112.45H363.9V116.55H359V121.85H339.5V116.55H334.6V112.45H329.7V116.55H324.8V121.85H319.9V127.05H427.4V121.85H403Z" fill="#2FBABB"/>
<path d="M349.3 112.45H354.2V117.35H349.3V112.45Z" fill="#2FBABB"/>
<path d="M1241.2 19.85V14.55H1225.5V10.35H1221.3V6.25001H1216.1V0.950012H1205.6V6.25001H1199.3V16.65H1202.5V19.85V25.05H1245.4V19.85H1241.2Z" fill="#A8E7F4"/>
<path d="M1201.4 25.05H1245.4V19.85H1211.9V14.55H1202.5V10.35H1206.6V0.950012H1201.4V6.25001H1197.2V14.55V16.65V19.85H1201.4V25.05Z" fill="#2FBABB"/>
<path d="M198.9 21.35H241.8V26.55H198.9V21.35Z" fill="#A8E7F4"/>
<path d="M221.9 16.15V11.95H217.7V7.75005H212.5V2.55005H202V7.75005H195.7V18.25H198.9V21.35H237.6V16.15H221.9Z" fill="#A8E7F4"/>
<path d="M208.3 20.85V16.15H198.9V11.95H203.1V2.55005H197.8V7.75005H193.6V16.15V18.25V21.35H197.8V26.65H241.8V20.85H208.3Z" fill="#2FBABB"/>
<path d="M187.2 101.55V96.25H176.8V101.55V102.55V107.75H191.4V101.55H187.2Z" fill="#A8E7F4"/>
<path d="M176.8 101.55H171.5V106.75V107.75V111.95H191.4V106.75H176.8V101.55Z" fill="#2FBABB"/>
<path d="M1318.8 27.45V32.65H1314.7V38.95H1329.3V32.65V27.45H1318.8Z" fill="#A8E7F4"/>
<path d="M1329.3 32.65V37.95H1314.7V43.15H1334.6V38.95V37.95V32.65H1329.3Z" fill="#2FBABB"/>
<path d="M121.9 69.25V64.95H117V60.75H112.2V55.85H103.1V41.85H94.0002V36.95H89.1002V32.15H82.1002V36.95H81.4002V41.85H71.0002V60.75H56.3002V50.25H43.1002V60.75H33.3002V51.65H28.4002V46.75H23.5002V41.85H13.7002V46.75V51.65H6.8002V60.75H4.7002V65.65H5.4002V69.25V69.75V74.65H131V69.25H121.9Z" fill="#A8E7F4"/>
<path d="M112.9 74.45V69.25H108V74.45H98.2V69.25H94V66.35H89.1V61.15H94V55.85H89.1V61.15H84.2V66.35V69.25V70.95V74.45H51.4V69.75H47.2V64.95H43.1V60.55H47.2V55.35H51.4V50.25H42.4V55.35H38.2V60.05V60.55V64.95V69.75H42.4V74.45H19.3V69.75H14.4V64.95H9.5V60.35V55.35V52.25H13.7V46.75H5.4V51.75H0.5V55.35V60.35V64.95V65.45V69.75H5.4V74.65V79.55H135.9V74.45H112.9Z" fill="#2FBABB"/>
<path d="M79.3002 32.15V36.95H71.0002V41.85H66.1002V46.95V51.65H61.2002V56.55V61.45H66.1002V66.35H71.0002V61.45V56.55V52.05H75.9002V46.95H79.3002V42.45H84.2002V37.75V36.95V32.15H79.3002Z" fill="#2FBABB"/>
<path d="M1153.6 111.25V107.05H1158.4V103.05H1163.1V98.25H1171.9V84.75H1180.7V80.05H1185.4V75.25H1192.2V80.05H1192.9V84.75H1203V103.05H1217.2V92.85H1230.1V103.05H1239.5V94.25H1244.3V89.45H1249V84.75H1258.5V89.45V94.25H1265.2V103.05H1267.3V107.75H1266.6V111.25V111.85V116.55H1144.8V111.25H1153.6Z" fill="#A8E7F4"/>
<path d="M1162.4 116.25V111.25H1167.2V116.25H1176.6V111.25H1180.7V108.55H1185.4V103.35H1180.7V98.25H1185.4V103.35H1190.2V108.55V111.25V112.85V116.25H1222V111.85H1226V107.05H1230.1V102.85H1226V97.85H1222V92.85H1230.7V97.85H1234.8V102.35V102.85V107.05V111.85H1230.7V116.25H1253.1V111.85H1257.8V107.05H1262.5V102.65V97.85V94.75H1258.5V89.45H1266.6V94.35H1271.3V97.85V102.65V107.05V107.55V111.85H1266.6V116.55V121.25H1140.1V116.25H1162.4Z" fill="#2FBABB"/>
<path d="M1194.9 75.25V80.05H1203V84.75H1207.7V89.65V94.25H1212.5V98.95V103.65H1207.7V108.45H1203V103.65V98.95V94.65H1198.3V89.65H1194.9V85.35H1190.2V80.75V80.05V75.25H1194.9Z" fill="#2FBABB"/>
</svg>
