<svg width="908" height="143" viewBox="0 0 908 143" fill="none" xmlns="http://www.w3.org/2000/svg">
<path d="M131.079 0.978713C130.547 0.978713 130.192 1.42229 130.192 1.86587V64.8541C130.192 65.2977 130.547 65.6526 131.079 65.6526H192.648C193.181 65.6526 193.535 65.3864 193.535 64.7654V47.111C193.535 46.5787 193.181 46.3125 192.648 46.3125H160.001V43.1188H181.027C181.559 43.1188 181.825 42.8526 181.825 42.2316V24.4884C181.825 23.8674 181.559 23.6013 181.027 23.6013H160.001V20.4075H192.648C193.181 20.4075 193.535 20.1413 193.535 19.5203V1.86587C193.535 1.24486 193.181 0.978713 192.648 0.978713H131.079ZM198.441 64.8541C198.441 65.2977 198.796 65.6526 199.24 65.6526H262.228C262.671 65.6526 263.115 65.2977 263.115 64.8541V46.7561C263.115 46.3125 262.671 45.9577 262.228 45.9577H228.871V1.77716C228.871 1.33358 228.427 0.978713 227.984 0.978713H199.24C198.796 0.978713 198.441 1.33358 198.441 1.77716V64.8541ZM283.979 32.3841C292.851 32.3841 299.948 25.2869 299.948 16.504C299.948 7.72112 292.851 0.978713 283.979 0.978713C275.196 0.978713 268.01 7.72112 268.01 16.504C268.01 25.2869 275.196 32.3841 283.979 32.3841ZM269.341 34.2472C268.898 34.2472 268.454 34.6907 268.454 35.1343V64.7654C268.454 65.2977 268.898 65.6526 269.341 65.6526H298.617C299.061 65.6526 299.504 65.2977 299.504 64.7654V35.1343C299.504 34.6907 299.061 34.2472 298.617 34.2472H269.341ZM341.283 34.7795C341.017 34.7795 340.75 34.8682 340.573 35.1343C339.863 36.2876 338.799 36.9086 337.557 36.9086C335.516 36.9086 333.919 35.3118 333.919 33.2713C333.919 31.3195 335.516 29.7227 337.557 29.7227C338.799 29.7227 339.775 30.255 340.573 31.4083C340.75 31.6744 341.017 31.8518 341.283 31.8518H369.14C369.938 31.8518 370.115 31.5857 370.027 30.7872C368.696 13.7538 354.413 0.978713 337.557 0.978713C319.547 0.978713 304.82 15.3507 304.82 33.2713C304.82 51.2806 319.547 65.6526 337.557 65.6526C347.315 65.6526 356.276 61.5717 362.22 54.5631H369.317C369.761 54.5631 370.115 54.1195 370.115 53.6759V35.6666C370.115 35.223 369.849 34.7795 369.406 34.7795H341.283ZM390.975 32.3841C399.847 32.3841 406.944 25.2869 406.944 16.504C406.944 7.72112 399.847 0.978713 390.975 0.978713C382.193 0.978713 375.007 7.72112 375.007 16.504C375.007 25.2869 382.193 32.3841 390.975 32.3841ZM376.337 34.2472C375.894 34.2472 375.45 34.6907 375.45 35.1343V64.7654C375.45 65.2977 375.894 65.6526 376.337 65.6526H405.614C406.057 65.6526 406.501 65.2977 406.501 64.7654V35.1343C406.501 34.6907 406.057 34.2472 405.614 34.2472H376.337ZM414.035 0.978713C413.502 0.978713 413.147 1.42229 413.147 1.86587V64.8541C413.147 65.2977 413.502 65.6526 414.035 65.6526H453.424C465.312 65.6526 475.071 55.8938 475.071 44.0059C475.071 40.1911 474.095 36.5538 472.232 33.2713C474.095 30.0775 475.071 26.4402 475.071 22.6254C475.071 10.7375 465.312 0.978713 453.424 0.978713H414.035ZM442.069 22.1818V16.7701H443.577C445.085 16.7701 446.327 18.0122 446.327 19.5203C446.327 21.0285 445.085 22.1818 443.577 22.1818H442.069ZM442.069 50.1273V44.6269H443.577C445.085 44.6269 446.327 45.8689 446.327 47.3771C446.327 48.8853 445.085 50.1273 443.577 50.1273H442.069ZM480.183 64.8541C480.183 65.2977 480.538 65.6526 480.982 65.6526H543.97C544.414 65.6526 544.857 65.2977 544.857 64.8541V46.7561C544.857 46.3125 544.414 45.9577 543.97 45.9577H510.613V1.77716C510.613 1.33358 510.169 0.978713 509.726 0.978713H480.982C480.538 0.978713 480.183 1.33358 480.183 1.77716V64.8541ZM551.527 0.978713C550.995 0.978713 550.64 1.42229 550.64 1.86587V64.8541C550.64 65.2977 550.995 65.6526 551.527 65.6526H613.096C613.628 65.6526 613.983 65.3864 613.983 64.7654V47.111C613.983 46.5787 613.628 46.3125 613.096 46.3125H580.448V43.1188H601.474C602.006 43.1188 602.272 42.8526 602.272 42.2316V24.4884C602.272 23.8674 602.006 23.6013 601.474 23.6013H580.448V20.4075H613.096C613.628 20.4075 613.983 20.1413 613.983 19.5203V1.86587C613.983 1.24486 613.628 0.978713 613.096 0.978713H551.527ZM645.841 0.978713C645.397 0.978713 645.042 1.33358 645.042 1.77716V32.9164C645.042 33.36 645.397 33.7149 645.841 33.7149H661.987V64.8541C661.987 65.2977 662.342 65.6526 662.786 65.6526H691.618C692.062 65.6526 692.505 65.2977 692.505 64.8541V33.7149H708.652C709.095 33.7149 709.45 33.36 709.45 32.9164V1.77716C709.45 1.33358 709.095 0.978713 708.652 0.978713H645.841ZM746.477 0.978713C728.468 0.978713 713.918 15.3507 713.918 33.36C713.918 51.3693 728.468 65.6526 746.477 65.6526C764.487 65.6526 779.036 51.3693 779.036 33.36C779.036 15.3507 764.487 0.978713 746.477 0.978713ZM746.477 36.4651C744.792 36.4651 743.372 35.1343 743.372 33.36C743.372 31.6744 744.792 30.255 746.477 30.255C748.163 30.255 749.582 31.6744 749.582 33.36C749.582 35.1343 748.163 36.4651 746.477 36.4651ZM66.8173 78.8659C66.8173 78.4223 66.4625 77.9787 65.9302 77.9787H36.8314C36.2991 77.9787 35.9442 78.4223 35.9442 78.8659V110.005C35.9442 111.247 34.8796 112.312 33.7263 112.312C32.3956 112.312 31.4197 111.247 31.4197 110.005V104.239C31.4197 103.795 31.0648 103.351 30.5325 103.351H1.61116C1.16758 103.351 0.812715 103.795 0.812715 104.239V110.36C0.990147 128.369 15.717 142.653 34.1699 142.653C52.0905 142.653 66.7286 128.369 66.8173 110.537V78.8659ZM103.98 77.9787C85.9709 77.9787 71.4215 92.3507 71.4215 110.36C71.4215 128.369 85.9709 142.653 103.98 142.653C121.99 142.653 136.539 128.369 136.539 110.36C136.539 92.3507 121.99 77.9787 103.98 77.9787ZM103.98 113.465C102.295 113.465 100.875 112.134 100.875 110.36C100.875 108.674 102.295 107.255 103.98 107.255C105.666 107.255 107.085 108.674 107.085 110.36C107.085 112.134 105.666 113.465 103.98 113.465ZM157.49 109.384C166.361 109.384 173.459 102.287 173.459 93.504C173.459 84.7211 166.361 77.9787 157.49 77.9787C148.707 77.9787 141.521 84.7211 141.521 93.504C141.521 102.287 148.707 109.384 157.49 109.384ZM142.852 111.247C142.408 111.247 141.965 111.691 141.965 112.134V141.765C141.965 142.298 142.408 142.653 142.852 142.653H172.128C172.572 142.653 173.015 142.298 173.015 141.765V112.134C173.015 111.691 172.572 111.247 172.128 111.247H142.852ZM210.18 110.094C210.18 109.916 210.358 109.916 210.358 110.094L214.438 141.854C214.527 142.209 214.793 142.564 215.148 142.653H244.247C244.691 142.653 245.134 142.298 245.134 141.854V78.8659C245.134 78.3336 244.691 77.9787 244.247 77.9787H215.414C214.971 77.9787 214.616 78.3336 214.616 78.8659V109.828C214.616 110.005 214.438 110.005 214.438 109.828L210.446 78.7772C210.358 78.2449 210.003 77.9787 209.47 77.9787H180.46C180.017 77.9787 179.662 78.3336 179.662 78.8659V141.854C179.662 142.298 180.017 142.653 180.46 142.653H209.293C209.737 142.653 210.18 142.298 210.18 141.854V110.094ZM279.748 77.9787C279.216 77.9787 278.861 78.4223 278.861 78.8659V141.854C278.861 142.298 279.216 142.653 279.748 142.653H319.138C331.026 142.653 340.784 132.894 340.784 121.006C340.784 117.191 339.809 113.554 337.946 110.271C339.809 107.078 340.784 103.44 340.784 99.6254C340.784 87.7375 331.026 77.9787 319.138 77.9787H279.748ZM307.782 99.1818V93.7701H309.29C310.798 93.7701 312.04 95.0122 312.04 96.5203C312.04 98.0285 310.798 99.1818 309.29 99.1818H307.782ZM307.782 127.127V121.627H309.29C310.798 121.627 312.04 122.869 312.04 124.377C312.04 125.885 310.798 127.127 309.29 127.127H307.782ZM379.697 112.312C378.455 112.312 377.391 111.336 377.391 110.005V78.8659C377.391 78.3336 377.036 77.9787 376.592 77.9787H347.671C347.139 77.9787 346.784 78.3336 346.784 78.8659V110.537C346.784 128.369 361.688 142.653 379.697 142.653C397.707 142.653 412.611 128.369 412.611 110.537V78.8659C412.611 78.3336 412.256 77.9787 411.724 77.9787H382.802C382.359 77.9787 382.004 78.3336 382.004 78.8659V110.005C382.004 111.336 380.939 112.312 379.697 112.312ZM434.814 109.384C443.685 109.384 450.782 102.287 450.782 93.504C450.782 84.7211 443.685 77.9787 434.814 77.9787C426.031 77.9787 418.845 84.7211 418.845 93.504C418.845 102.287 426.031 109.384 434.814 109.384ZM420.175 111.247C419.732 111.247 419.288 111.691 419.288 112.134V141.765C419.288 142.298 419.732 142.653 420.175 142.653H449.452C449.895 142.653 450.339 142.298 450.339 141.765V112.134C450.339 111.691 449.895 111.247 449.452 111.247H420.175ZM457.873 77.9787C457.34 77.9787 456.986 78.4223 456.986 78.8659V141.854C456.986 142.298 457.34 142.653 457.873 142.653H487.326C505.158 142.653 519.619 128.103 519.619 110.36C519.619 92.5281 505.158 77.9787 487.415 77.9787H457.873ZM485.552 113.376V107.078H487.326C489.101 107.078 490.52 108.497 490.52 110.271C490.52 112.046 489.101 113.376 487.326 113.376H485.552ZM524.541 141.854C524.541 142.298 524.896 142.653 525.34 142.653H588.328C588.772 142.653 589.215 142.298 589.215 141.854V123.756C589.215 123.313 588.772 122.958 588.328 122.958H554.971V78.7772C554.971 78.3336 554.527 77.9787 554.084 77.9787H525.34C524.896 77.9787 524.541 78.3336 524.541 78.7772V141.854ZM630.129 111.779C629.863 111.779 629.597 111.868 629.419 112.134C628.71 113.288 627.645 113.909 626.403 113.909C624.363 113.909 622.766 112.312 622.766 110.271C622.766 108.32 624.363 106.723 626.403 106.723C627.645 106.723 628.621 107.255 629.419 108.408C629.597 108.674 629.863 108.852 630.129 108.852H657.986C658.784 108.852 658.962 108.586 658.873 107.787C657.542 90.7538 643.259 77.9787 626.403 77.9787C608.394 77.9787 593.667 92.3507 593.667 110.271C593.667 128.281 608.394 142.653 626.403 142.653C636.162 142.653 645.122 138.572 651.066 131.563H658.163C658.607 131.563 658.962 131.12 658.962 130.676V112.667C658.962 112.223 658.696 111.779 658.252 111.779H630.129ZM697.654 112.312C696.412 112.312 695.347 111.336 695.347 110.005V78.8659C695.347 78.3336 694.992 77.9787 694.549 77.9787H665.627C665.095 77.9787 664.74 78.3336 664.74 78.8659V110.537C664.74 128.369 679.644 142.653 697.654 142.653C715.663 142.653 730.567 128.369 730.567 110.537V78.8659C730.567 78.3336 730.212 77.9787 729.68 77.9787H700.759C700.315 77.9787 699.96 78.3336 699.96 78.8659V110.005C699.96 111.336 698.896 112.312 697.654 112.312ZM752.77 109.384C761.641 109.384 768.739 102.287 768.739 93.504C768.739 84.7211 761.641 77.9787 752.77 77.9787C743.987 77.9787 736.801 84.7211 736.801 93.504C736.801 102.287 743.987 109.384 752.77 109.384ZM738.132 111.247C737.688 111.247 737.245 111.691 737.245 112.134V141.765C737.245 142.298 737.688 142.653 738.132 142.653H767.408C767.852 142.653 768.295 142.298 768.295 141.765V112.134C768.295 111.691 767.852 111.247 767.408 111.247H738.132ZM775.829 77.9787C775.297 77.9787 774.942 78.4223 774.942 78.8659V141.854C774.942 142.298 775.297 142.653 775.829 142.653H805.283C823.115 142.653 837.575 128.103 837.575 110.36C837.575 92.5281 823.115 77.9787 805.371 77.9787H775.829ZM803.508 113.376V107.078H805.283C807.057 107.078 808.476 108.497 808.476 110.271C808.476 112.046 807.057 113.376 805.283 113.376H803.508ZM842.498 141.854C842.498 142.298 842.853 142.653 843.296 142.653H906.284C906.728 142.653 907.172 142.298 907.172 141.854V123.756C907.172 123.313 906.728 122.958 906.284 122.958H872.927V78.7772C872.927 78.3336 872.484 77.9787 872.04 77.9787H843.296C842.853 77.9787 842.498 78.3336 842.498 78.7772V141.854Z" fill="#088484"/>
</svg>
