<svg width="907" height="65" viewBox="0 0 907 65" fill="none" xmlns="http://www.w3.org/2000/svg">
<path d="M66.5277 1.21327C66.5277 0.769693 66.1728 0.326111 65.6405 0.326111H36.5417C36.0094 0.326111 35.6546 0.769693 35.6546 1.21327V32.3525C35.6546 33.5946 34.59 34.6592 33.4367 34.6592C32.1059 34.6592 31.13 33.5946 31.13 32.3525V26.586C31.13 26.1424 30.7752 25.6989 30.2429 25.6989H1.32151C0.877935 25.6989 0.523071 26.1424 0.523071 26.586V32.7074C0.700503 50.7167 15.4273 65 33.8802 65C51.8008 65 66.439 50.7167 66.5277 32.8848V1.21327Z" fill="#088484"/>
<path d="M103.691 0.326111C85.6813 0.326111 71.1319 14.6981 71.1319 32.7074C71.1319 50.7167 85.6813 65 103.691 65C121.7 65 136.249 50.7167 136.249 32.7074C136.249 14.6981 121.7 0.326111 103.691 0.326111ZM103.691 35.8125C102.005 35.8125 100.586 34.4817 100.586 32.7074C100.586 31.0218 102.005 29.6023 103.691 29.6023C105.376 29.6023 106.796 31.0218 106.796 32.7074C106.796 34.4817 105.376 35.8125 103.691 35.8125Z" fill="#088484"/>
<path d="M157.2 31.7315C166.072 31.7315 173.169 24.6343 173.169 15.8514C173.169 7.06851 166.072 0.326111 157.2 0.326111C148.417 0.326111 141.231 7.06851 141.231 15.8514C141.231 24.6343 148.417 31.7315 157.2 31.7315ZM142.562 33.5946C142.118 33.5946 141.675 34.0381 141.675 34.4817V64.1128C141.675 64.6451 142.118 65 142.562 65H171.838C172.282 65 172.725 64.6451 172.725 64.1128V34.4817C172.725 34.0381 172.282 33.5946 171.838 33.5946H142.562Z" fill="#088484"/>
<path d="M209.89 32.4413C209.89 32.2638 210.068 32.2638 210.068 32.4413L214.149 64.2015C214.238 64.5564 214.504 64.9113 214.859 65H243.957C244.401 65 244.845 64.6451 244.845 64.2015V1.21327C244.845 0.680978 244.401 0.326111 243.957 0.326111H215.125C214.681 0.326111 214.326 0.680978 214.326 1.21327V32.1751C214.326 32.3525 214.149 32.3525 214.149 32.1751L210.157 1.12456C210.068 0.592264 209.713 0.326111 209.181 0.326111H180.171C179.727 0.326111 179.372 0.680978 179.372 1.21327V64.2015C179.372 64.6451 179.727 65 180.171 65H209.003C209.447 65 209.89 64.6451 209.89 64.2015V32.4413Z" fill="#088484"/>
<path d="M279.458 0.326111C278.926 0.326111 278.571 0.769693 278.571 1.21327V64.2015C278.571 64.6451 278.926 65 279.458 65H318.848C330.736 65 340.495 55.2412 340.495 43.3533C340.495 39.5385 339.519 35.9012 337.656 32.6187C339.519 29.4249 340.495 25.7876 340.495 21.9728C340.495 10.0849 330.736 0.326111 318.848 0.326111H279.458ZM307.492 21.5292V16.1175H309.001C310.509 16.1175 311.751 17.3596 311.751 18.8677C311.751 20.3759 310.509 21.5292 309.001 21.5292H307.492ZM307.492 49.4747V43.9743H309.001C310.509 43.9743 311.751 45.2163 311.751 46.7245C311.751 48.2327 310.509 49.4747 309.001 49.4747H307.492Z" fill="#088484"/>
<path d="M379.408 34.6592C378.166 34.6592 377.101 33.6833 377.101 32.3525V1.21327C377.101 0.680978 376.746 0.326111 376.303 0.326111H347.381C346.849 0.326111 346.494 0.680978 346.494 1.21327V32.8848C346.494 50.7167 361.398 65 379.408 65C397.417 65 412.321 50.7167 412.321 32.8848V1.21327C412.321 0.680978 411.967 0.326111 411.434 0.326111H382.513C382.069 0.326111 381.714 0.680978 381.714 1.21327V32.3525C381.714 33.6833 380.65 34.6592 379.408 34.6592Z" fill="#088484"/>
<path d="M434.524 31.7315C443.395 31.7315 450.493 24.6343 450.493 15.8514C450.493 7.06851 443.395 0.326111 434.524 0.326111C425.741 0.326111 418.555 7.06851 418.555 15.8514C418.555 24.6343 425.741 31.7315 434.524 31.7315ZM419.886 33.5946C419.442 33.5946 418.999 34.0381 418.999 34.4817V64.1128C418.999 64.6451 419.442 65 419.886 65H449.162C449.606 65 450.049 64.6451 450.049 64.1128V34.4817C450.049 34.0381 449.606 33.5946 449.162 33.5946H419.886Z" fill="#088484"/>
<path d="M457.583 0.326111C457.051 0.326111 456.696 0.769693 456.696 1.21327V64.2015C456.696 64.6451 457.051 65 457.583 65H487.037C504.869 65 519.329 50.4506 519.329 32.7074C519.329 14.8755 504.869 0.326111 487.125 0.326111H457.583ZM485.262 35.7237V29.4249H487.037C488.811 29.4249 490.23 30.8444 490.23 32.6187C490.23 34.393 488.811 35.7237 487.037 35.7237H485.262Z" fill="#088484"/>
<path d="M524.252 64.2015C524.252 64.6451 524.607 65 525.05 65H588.038C588.482 65 588.926 64.6451 588.926 64.2015V46.1035C588.926 45.6599 588.482 45.3051 588.038 45.3051H554.681V1.12456C554.681 0.680979 554.238 0.326111 553.794 0.326111H525.05C524.607 0.326111 524.252 0.680979 524.252 1.12456V64.2015Z" fill="#088484"/>
<path d="M629.839 34.1269C629.573 34.1269 629.307 34.2156 629.13 34.4817C628.42 35.635 627.355 36.256 626.113 36.256C624.073 36.256 622.476 34.6592 622.476 32.6187C622.476 30.6669 624.073 29.0701 626.113 29.0701C627.355 29.0701 628.331 29.6024 629.13 30.7557C629.307 31.0218 629.573 31.1992 629.839 31.1992H657.696C658.495 31.1992 658.672 30.9331 658.583 30.1346C657.253 13.1012 642.969 0.326111 626.113 0.326111C608.104 0.326111 593.377 14.6981 593.377 32.6187C593.377 50.628 608.104 65 626.113 65C635.872 65 644.832 60.9191 650.776 53.9105H657.874C658.317 53.9105 658.672 53.4669 658.672 53.0233V35.014C658.672 34.5704 658.406 34.1269 657.962 34.1269H629.839Z" fill="#088484"/>
<path d="M697.364 34.6592C696.122 34.6592 695.057 33.6833 695.057 32.3525V1.21327C695.057 0.680978 694.703 0.326111 694.259 0.326111H665.338C664.805 0.326111 664.451 0.680978 664.451 1.21327V32.8848C664.451 50.7167 679.355 65 697.364 65C715.373 65 730.278 50.7167 730.278 32.8848V1.21327C730.278 0.680978 729.923 0.326111 729.391 0.326111H700.469C700.026 0.326111 699.671 0.680978 699.671 1.21327V32.3525C699.671 33.6833 698.606 34.6592 697.364 34.6592Z" fill="#088484"/>
<path d="M752.48 31.7315C761.352 31.7315 768.449 24.6343 768.449 15.8514C768.449 7.06851 761.352 0.326111 752.48 0.326111C743.697 0.326111 736.511 7.06851 736.511 15.8514C736.511 24.6343 743.697 31.7315 752.48 31.7315ZM737.842 33.5946C737.399 33.5946 736.955 34.0381 736.955 34.4817V64.1128C736.955 64.6451 737.399 65 737.842 65H767.118C767.562 65 768.005 64.6451 768.005 64.1128V34.4817C768.005 34.0381 767.562 33.5946 767.118 33.5946H737.842Z" fill="#088484"/>
<path d="M775.539 0.326111C775.007 0.326111 774.652 0.769693 774.652 1.21327V64.2015C774.652 64.6451 775.007 65 775.539 65H804.993C822.825 65 837.286 50.4506 837.286 32.7074C837.286 14.8755 822.825 0.326111 805.082 0.326111H775.539ZM803.219 35.7237V29.4249H804.993C806.767 29.4249 808.187 30.8444 808.187 32.6187C808.187 34.393 806.767 35.7237 804.993 35.7237H803.219Z" fill="#088484"/>
<path d="M842.208 64.2015C842.208 64.6451 842.563 65 843.006 65H905.995C906.438 65 906.882 64.6451 906.882 64.2015V46.1035C906.882 45.6599 906.438 45.3051 905.995 45.3051H872.638V1.12456C872.638 0.680979 872.194 0.326111 871.75 0.326111H843.006C842.563 0.326111 842.208 0.680979 842.208 1.12456V64.2015Z" fill="#088484"/>
</svg>
