<svg width="1512" height="171" viewBox="0 0 1512 171" fill="none" xmlns="http://www.w3.org/2000/svg">
<rect width="192.438" height="4.87115" transform="matrix(-1 0 0 1 778 138.878)" fill="#088484"/>
<rect width="4.9343" height="4.87115" transform="matrix(-1 0 0 1 768.131 134.006)" fill="#088484"/>
<rect width="4.9343" height="4.87115" transform="matrix(-1 0 0 1 758.263 143.749)" fill="#088484"/>
<rect width="4.9343" height="4.87115" transform="matrix(-1 0 0 1 738.525 148.62)" fill="#088484"/>
<rect width="9.86861" height="4.87115" transform="matrix(-1 0 0 1 748.394 134.006)" fill="#088484"/>
<rect width="9.86861" height="4.87115" transform="matrix(-1 0 0 1 773.066 143.749)" fill="#088484"/>
<rect width="9.86861" height="4.87115" transform="matrix(-1 0 0 1 718.788 134.006)" fill="#088484"/>
<rect width="9.86861" height="4.87115" transform="matrix(-1 0 0 1 728.657 148.62)" fill="#088484"/>
<rect width="9.86861" height="4.87115" transform="matrix(-1 0 0 1 708.92 143.749)" fill="#088484"/>
<rect width="9.86861" height="4.87115" transform="matrix(-1 0 0 1 669.445 148.62)" fill="#088484"/>
<rect width="9.86861" height="4.87115" transform="matrix(-1 0 0 1 629.971 143.749)" fill="#088484"/>
<rect width="9.86861" height="4.87115" transform="matrix(-1 0 0 1 610.234 143.749)" fill="#088484"/>
<rect width="14.8029" height="4.87115" transform="matrix(-1 0 0 1 689.182 134.006)" fill="#088484"/>
<rect width="14.8029" height="4.87115" transform="matrix(-1 0 0 1 694.117 143.749)" fill="#088484"/>
<rect width="4.9343" height="4.87115" transform="matrix(-1 0 0 1 699.051 134.006)" fill="#088484"/>
<rect width="4.9343" height="4.87115" transform="matrix(-1 0 0 1 703.985 148.62)" fill="#088484"/>
<rect width="29.6058" height="4.87115" transform="matrix(-1 0 0 1 659.577 134.006)" fill="#088484"/>
<rect width="29.6058" height="4.87115" transform="matrix(-1 0 0 1 674.38 143.749)" fill="#088484"/>
<rect width="29.6058" height="4.87115" transform="matrix(-1 0 0 1 743.46 143.749)" fill="#088484"/>
<rect width="9.86861" height="4.87115" transform="matrix(-1 0 0 1 615.168 134.006)" fill="#088484"/>
<rect width="4.9343" height="4.87115" transform="matrix(-1 0 0 1 595.431 134.006)" fill="#088484"/>
<rect width="4.9343" height="4.87115" transform="matrix(-1 0 0 1 590.496 143.749)" fill="#088484"/>
<rect width="192.438" height="4.87115" transform="matrix(-1 0 0 1 585.562 138.877)" fill="#088484"/>
<rect width="4.9343" height="4.87115" transform="matrix(-1 0 0 1 575.694 134.006)" fill="#088484"/>
<rect width="4.9343" height="4.87115" transform="matrix(-1 0 0 1 565.825 143.749)" fill="#088484"/>
<rect width="4.9343" height="4.87115" transform="matrix(-1 0 0 1 546.088 148.62)" fill="#088484"/>
<rect width="9.86861" height="4.87115" transform="matrix(-1 0 0 1 555.956 134.006)" fill="#088484"/>
<rect width="9.86861" height="4.87115" transform="matrix(-1 0 0 1 580.628 143.749)" fill="#088484"/>
<rect width="9.86861" height="4.87115" transform="matrix(-1 0 0 1 526.35 134.006)" fill="#088484"/>
<rect width="9.86861" height="4.87115" transform="matrix(-1 0 0 1 536.219 148.62)" fill="#088484"/>
<rect width="9.86861" height="4.87115" transform="matrix(-1 0 0 1 516.482 143.749)" fill="#088484"/>
<rect width="9.86861" height="4.87115" transform="matrix(-1 0 0 1 477.008 148.62)" fill="#088484"/>
<rect width="9.86861" height="4.87115" transform="matrix(-1 0 0 1 437.533 143.749)" fill="#088484"/>
<rect width="9.86861" height="4.87115" transform="matrix(-1 0 0 1 417.796 143.749)" fill="#088484"/>
<rect width="14.8029" height="4.87115" transform="matrix(-1 0 0 1 496.745 134.006)" fill="#088484"/>
<rect width="14.8029" height="4.87115" transform="matrix(-1 0 0 1 501.679 143.749)" fill="#088484"/>
<rect width="4.9343" height="4.87115" transform="matrix(-1 0 0 1 506.613 134.006)" fill="#088484"/>
<rect width="4.9343" height="4.87115" transform="matrix(-1 0 0 1 511.548 148.62)" fill="#088484"/>
<rect width="29.6058" height="4.87115" transform="matrix(-1 0 0 1 467.139 134.006)" fill="#088484"/>
<rect width="29.6058" height="4.87115" transform="matrix(-1 0 0 1 481.942 143.749)" fill="#088484"/>
<rect width="29.6058" height="4.87115" transform="matrix(-1 0 0 1 551.022 143.749)" fill="#088484"/>
<rect width="9.86861" height="4.87115" transform="matrix(-1 0 0 1 422.73 134.006)" fill="#088484"/>
<rect width="4.9343" height="4.87115" transform="matrix(-1 0 0 1 402.993 134.006)" fill="#088484"/>
<rect width="4.9343" height="4.87115" transform="matrix(-1 0 0 1 398.059 143.749)" fill="#088484"/>
<rect width="192.438" height="4.87115" transform="matrix(-1 0 0 1 393.124 138.877)" fill="#088484"/>
<rect width="4.9343" height="4.87115" transform="matrix(-1 0 0 1 383.256 134.006)" fill="#088484"/>
<rect width="4.9343" height="4.87115" transform="matrix(-1 0 0 1 373.387 143.749)" fill="#088484"/>
<rect width="4.9343" height="4.87115" transform="matrix(-1 0 0 1 353.65 148.62)" fill="#088484"/>
<rect width="9.86861" height="4.87115" transform="matrix(-1 0 0 1 363.518 134.006)" fill="#088484"/>
<rect width="9.86861" height="4.87115" transform="matrix(-1 0 0 1 388.19 143.749)" fill="#088484"/>
<rect width="9.86861" height="4.87115" transform="matrix(-1 0 0 1 333.913 134.006)" fill="#088484"/>
<rect width="9.86861" height="4.87115" transform="matrix(-1 0 0 1 343.781 148.62)" fill="#088484"/>
<rect width="9.86861" height="4.87115" transform="matrix(-1 0 0 1 324.044 143.749)" fill="#088484"/>
<rect width="9.86861" height="4.87115" transform="matrix(-1 0 0 1 284.57 148.62)" fill="#088484"/>
<rect width="9.86861" height="4.87115" transform="matrix(-1 0 0 1 256.405 143.749)" fill="#088484"/>
<rect width="9.86861" height="4.87115" transform="matrix(-1 0 0 1 232.084 143.749)" fill="#088484"/>
<rect width="14.8029" height="4.87115" transform="matrix(-1 0 0 1 304.307 134.006)" fill="#088484"/>
<rect width="14.8029" height="4.87115" transform="matrix(-1 0 0 1 309.241 143.749)" fill="#088484"/>
<rect width="4.9343" height="4.87115" transform="matrix(-1 0 0 1 314.175 134.006)" fill="#088484"/>
<rect width="4.9343" height="4.87115" transform="matrix(-1 0 0 1 319.11 148.62)" fill="#088484"/>
<rect width="29.6058" height="4.87115" transform="matrix(-1 0 0 1 274.701 134.006)" fill="#088484"/>
<rect width="29.6058" height="4.87115" transform="matrix(-1 0 0 1 289.504 143.749)" fill="#088484"/>
<rect width="29.6058" height="4.87115" transform="matrix(-1 0 0 1 358.584 143.749)" fill="#088484"/>
<rect width="9.86861" height="4.87115" transform="matrix(-1 0 0 1 230.292 134.006)" fill="#088484"/>
<rect width="4.9343" height="4.87115" transform="matrix(-1 0 0 1 210.555 134.006)" fill="#088484"/>
<rect width="4.9343" height="4.87115" transform="matrix(-1 0 0 1 205.621 143.749)" fill="#088484"/>
<rect width="192.438" height="4.87115" transform="matrix(-1 0 0 1 200.686 138.877)" fill="#088484"/>
<rect width="4.9343" height="4.87115" transform="matrix(-1 0 0 1 190.818 134.006)" fill="#088484"/>
<rect width="4.9343" height="4.87115" transform="matrix(-1 0 0 1 180.949 143.749)" fill="#088484"/>
<rect width="4.9343" height="4.87115" transform="matrix(-1 0 0 1 161.212 148.62)" fill="#088484"/>
<rect width="9.86861" height="4.87115" transform="matrix(-1 0 0 1 171.081 134.006)" fill="#088484"/>
<rect width="24.3333" height="4.87115" transform="matrix(-1 0 0 1 202.14 143.749)" fill="#088484"/>
<rect width="9.86861" height="4.87115" transform="matrix(-1 0 0 1 141.475 134.006)" fill="#088484"/>
<rect width="9.86861" height="4.87115" transform="matrix(-1 0 0 1 151.343 148.62)" fill="#088484"/>
<rect width="9.86861" height="4.87115" transform="matrix(-1 0 0 1 131.606 143.749)" fill="#088484"/>
<rect width="9.86861" height="4.87115" transform="matrix(-1 0 0 1 92.132 148.62)" fill="#088484"/>
<rect width="9.86861" height="4.87115" transform="matrix(-1 0 0 1 52.6573 143.749)" fill="#088484"/>
<rect width="9.86861" height="4.87115" transform="matrix(-1 0 0 1 32.9203 143.749)" fill="#088484"/>
<rect width="14.8029" height="4.87115" transform="matrix(-1 0 0 1 111.869 134.006)" fill="#088484"/>
<rect width="14.8029" height="4.87115" transform="matrix(-1 0 0 1 116.803 143.749)" fill="#088484"/>
<rect width="4.9343" height="4.87115" transform="matrix(-1 0 0 1 121.738 134.006)" fill="#088484"/>
<rect width="4.9343" height="4.87115" transform="matrix(-1 0 0 1 126.672 148.62)" fill="#088484"/>
<rect width="29.6058" height="4.87115" transform="matrix(-1 0 0 1 82.2634 134.006)" fill="#088484"/>
<rect width="29.6058" height="4.87115" transform="matrix(-1 0 0 1 97.0663 143.749)" fill="#088484"/>
<rect width="29.6058" height="4.87115" transform="matrix(-1 0 0 1 166.146 143.749)" fill="#088484"/>
<rect width="9.86861" height="4.87115" transform="matrix(-1 0 0 1 37.8545 134.006)" fill="#088484"/>
<rect width="4.9343" height="4.87115" transform="matrix(-1 0 0 1 18.1173 134.006)" fill="#088484"/>
<rect width="4.9343" height="4.87115" transform="matrix(-1 0 0 1 13.183 143.749)" fill="#088484"/>
<rect width="181.229" height="4.86829" transform="matrix(-1 0 0 1 8.70007 139.001)" fill="#088484"/>
<rect width="9.86861" height="4.87115" transform="matrix(-1 0 0 1 3.31433 143.749)" fill="#088484"/>
<rect x="912.471" y="84.3123" width="55.034" height="15.724" fill="#009E9E"/>
<rect x="967.505" y="88.2433" width="11.793" height="11.793" fill="#009E9E"/>
<rect x="912.471" y="84.3123" width="55.034" height="3.931" fill="#29B8B8" fill-opacity="0.962426"/>
<rect x="967.505" y="88.2433" width="11.793" height="3.931" fill="#29B8B8" fill-opacity="0.962426"/>
<rect x="939.988" y="88.2433" width="11.793" height="3.931" fill="#29B8B8" fill-opacity="0.962426"/>
<rect x="926.229" y="80.3813" width="11.793" height="3.931" fill="#29B8B8" fill-opacity="0.962426"/>
<rect x="955.712" y="80.3813" width="11.793" height="3.931" fill="#29B8B8" fill-opacity="0.962426"/>
<rect x="916.402" y="88.2433" width="11.793" height="3.931" fill="#29B8B8" fill-opacity="0.962426"/>
<rect x="920.333" y="92.1743" width="3.931" height="3.931" fill="#29B8B8" fill-opacity="0.962426"/>
<rect x="955.712" y="88.2433" width="3.931" height="3.931" fill="#29B8B8" fill-opacity="0.962426"/>
<rect x="967.505" y="92.1743" width="3.931" height="3.931" fill="#29B8B8" fill-opacity="0.962426"/>
<rect width="55.034" height="15.724" transform="matrix(-1 0 0 1 663.298 84.3182)" fill="#009E9E"/>
<rect width="11.793" height="11.793" transform="matrix(-1 0 0 1 608.264 88.2493)" fill="#009E9E"/>
<rect width="55.034" height="3.931" transform="matrix(-1 0 0 1 663.298 84.3182)" fill="#29B8B8" fill-opacity="0.962426"/>
<rect width="11.793" height="3.931" transform="matrix(-1 0 0 1 608.264 88.2493)" fill="#29B8B8" fill-opacity="0.962426"/>
<rect width="11.793" height="3.931" transform="matrix(-1 0 0 1 635.781 88.2493)" fill="#29B8B8" fill-opacity="0.962426"/>
<rect width="11.793" height="3.931" transform="matrix(-1 0 0 1 649.539 80.3873)" fill="#29B8B8" fill-opacity="0.962426"/>
<rect width="11.793" height="3.931" transform="matrix(-1 0 0 1 620.057 80.3873)" fill="#29B8B8" fill-opacity="0.962426"/>
<rect width="11.793" height="3.931" transform="matrix(-1 0 0 1 659.367 88.2493)" fill="#29B8B8" fill-opacity="0.962426"/>
<rect width="3.931" height="3.931" transform="matrix(-1 0 0 1 655.436 92.1802)" fill="#29B8B8" fill-opacity="0.962426"/>
<rect width="3.931" height="3.931" transform="matrix(-1 0 0 1 620.057 88.2493)" fill="#29B8B8" fill-opacity="0.962426"/>
<rect width="3.931" height="3.931" transform="matrix(-1 0 0 1 608.264 92.1802)" fill="#29B8B8" fill-opacity="0.962426"/>
<rect width="55.034" height="19.655" transform="matrix(-1 0 0 1 1178.3 80.3873)" fill="#009E9E"/>
<rect width="11.793" height="11.793" transform="matrix(-1 0 0 1 1123.26 88.2493)" fill="#009E9E"/>
<rect width="11.793" height="11.793" transform="matrix(-1 0 0 1 1190.09 88.2493)" fill="#009E9E"/>
<rect width="7.862" height="7.862" transform="matrix(-1 0 0 1 1197.95 92.1803)" fill="#009E9E"/>
<rect width="55.034" height="3.931" transform="matrix(-1 0 0 1 1178.3 80.3873)" fill="#29B8B8" fill-opacity="0.962426"/>
<rect width="11.793" height="3.931" transform="matrix(-1 0 0 1 1123.26 88.2493)" fill="#29B8B8" fill-opacity="0.962426"/>
<rect width="15.724" height="3.931" transform="matrix(-1 0 0 1 1150.78 88.2493)" fill="#29B8B8" fill-opacity="0.962426"/>
<rect width="11.793" height="3.931" transform="matrix(-1 0 0 1 1190.09 88.2493)" fill="#29B8B8" fill-opacity="0.962426"/>
<rect width="11.793" height="3.931" transform="matrix(-1 0 0 1 1150.78 84.3184)" fill="#29B8B8" fill-opacity="0.962426"/>
<rect width="11.793" height="3.931" transform="matrix(-1 0 0 1 1157.66 76.4563)" fill="#29B8B8" fill-opacity="0.962426"/>
<rect width="11.793" height="3.931" transform="matrix(-1 0 0 1 1169.45 76.4563)" fill="#29B8B8" fill-opacity="0.962426"/>
<rect width="11.793" height="3.931" transform="matrix(-1 0 0 1 1174.37 84.3184)" fill="#29B8B8" fill-opacity="0.962426"/>
<rect width="3.931" height="3.931" transform="matrix(-1 0 0 1 1123.26 92.1803)" fill="#29B8B8" fill-opacity="0.962426"/>
<rect width="3.931" height="3.931" transform="matrix(-1 0 0 1 1178.3 84.3184)" fill="#29B8B8" fill-opacity="0.962426"/>
<rect width="3.931" height="3.931" transform="matrix(-1 0 0 1 1135.06 84.3184)" fill="#29B8B8" fill-opacity="0.962426"/>
<rect width="3.931" height="3.931" transform="matrix(-1 0 0 1 1182.23 92.1803)" fill="#29B8B8" fill-opacity="0.962426"/>
<rect width="11.793" height="11.793" transform="matrix(-1 0 0 1 859.074 88.2493)" fill="#009E9E"/>
<rect width="11.793" height="11.793" transform="matrix(-1 0 0 1 870.867 88.2493)" fill="#009E9E"/>
<rect width="7.862" height="7.862" transform="matrix(-1 0 0 1 878.729 92.1804)" fill="#009E9E"/>
<rect width="11.793" height="3.931" transform="matrix(-1 0 0 1 859.074 88.2493)" fill="#29B8B8" fill-opacity="0.962426"/>
<rect width="11.793" height="3.931" transform="matrix(-1 0 0 1 870.867 88.2493)" fill="#29B8B8" fill-opacity="0.962426"/>
<rect width="3.931" height="3.931" transform="matrix(-1 0 0 1 859.074 92.1804)" fill="#29B8B8" fill-opacity="0.962426"/>
<rect width="3.931" height="3.931" transform="matrix(-1 0 0 1 851.212 92.1804)" fill="#29B8B8" fill-opacity="0.962426"/>
<rect width="3.931" height="3.931" transform="matrix(-1 0 0 1 863.005 92.1804)" fill="#29B8B8" fill-opacity="0.962426"/>
<rect width="3.931" height="3.931" transform="matrix(-1 0 0 1 866.936 84.3183)" fill="#29B8B8" fill-opacity="0.962426"/>
<rect width="3.931" height="3.931" transform="matrix(-1 0 0 1 863.005 84.3183)" fill="#29B8B8" fill-opacity="0.962426"/>
<rect x="836.471" y="96.1113" width="10.8102" height="3.931" fill="#009E9E"/>
<rect x="1324.17" y="88.2965" width="11.7457" height="11.7457" fill="#009E9E"/>
<rect x="1312.42" y="88.2965" width="11.7457" height="11.7457" fill="#009E9E"/>
<rect x="1304.59" y="92.2118" width="7.83049" height="7.83049" fill="#009E9E"/>
<rect x="1324.17" y="88.2965" width="11.7457" height="3.91525" fill="#29B8B8" fill-opacity="0.962426"/>
<rect x="1312.42" y="88.2965" width="11.7457" height="3.91525" fill="#29B8B8" fill-opacity="0.962426"/>
<rect x="1324.17" y="92.2118" width="3.91525" height="3.91525" fill="#29B8B8" fill-opacity="0.962426"/>
<rect x="1332" y="92.2118" width="3.91525" height="3.91525" fill="#29B8B8" fill-opacity="0.962426"/>
<rect x="1320.25" y="92.2118" width="3.91525" height="3.91525" fill="#29B8B8" fill-opacity="0.962426"/>
<rect x="1316.34" y="84.3813" width="3.91525" height="3.91525" fill="#29B8B8" fill-opacity="0.962426"/>
<rect x="1320.25" y="84.3813" width="3.91525" height="3.91525" fill="#29B8B8" fill-opacity="0.962426"/>
<rect width="10.7669" height="3.91525" transform="matrix(-1 0 0 1 1346.68 96.127)" fill="#009E9E"/>
<rect width="48.1529" height="17.1975" transform="matrix(-1 0 0 1 184.942 82.8449)" fill="#009E9E"/>
<rect width="10.3185" height="10.3185" transform="matrix(-1 0 0 1 136.789 89.7238)" fill="#009E9E"/>
<rect width="10.3185" height="10.3185" transform="matrix(-1 0 0 1 195.261 89.7238)" fill="#009E9E"/>
<rect width="6.87898" height="6.87898" transform="matrix(-1 0 0 1 202.14 93.1633)" fill="#009E9E"/>
<rect width="48.1529" height="3.43949" transform="matrix(-1 0 0 1 184.942 82.8449)" fill="#29B8B8" fill-opacity="0.962426"/>
<rect width="10.3185" height="3.43949" transform="matrix(-1 0 0 1 136.789 89.7238)" fill="#29B8B8" fill-opacity="0.962426"/>
<rect width="13.758" height="3.43949" transform="matrix(-1 0 0 1 202.14 93.1633)" fill="#29B8B8" fill-opacity="0.962426"/>
<rect width="10.3185" height="3.43949" transform="matrix(-1 0 0 1 195.261 89.7238)" fill="#29B8B8" fill-opacity="0.962426"/>
<rect width="10.3185" height="3.43949" transform="matrix(-1 0 0 1 160.866 86.2844)" fill="#29B8B8" fill-opacity="0.962426"/>
<rect width="23.2166" height="3.43949" transform="matrix(-1 0 0 1 166.885 79.4054)" fill="#29B8B8" fill-opacity="0.962426"/>
<rect width="10.3185" height="3.43949" transform="matrix(-1 0 0 1 177.203 79.4054)" fill="#29B8B8" fill-opacity="0.962426"/>
<rect width="10.3185" height="3.43949" transform="matrix(-1 0 0 1 181.503 86.2844)" fill="#29B8B8" fill-opacity="0.962426"/>
<rect width="10.3185" height="3.43949" transform="matrix(-1 0 0 1 171.184 75.9659)" fill="#29B8B8" fill-opacity="0.962426"/>
<rect width="3.43949" height="3.43949" transform="matrix(-1 0 0 1 136.789 93.1633)" fill="#29B8B8" fill-opacity="0.962426"/>
<rect width="3.43949" height="3.43949" transform="matrix(-1 0 0 1 147.108 86.2844)" fill="#29B8B8" fill-opacity="0.962426"/>
<rect width="3.43949" height="3.43949" transform="matrix(-1 0 0 1 188.382 93.1633)" fill="#29B8B8" fill-opacity="0.962426"/>
<rect x="-172.529" y="100.028" width="950" height="41" fill="#2FBABB"/>
<rect x="-172.529" y="121.028" width="950" height="20" fill="#088484"/>
<rect x="-172.529" y="119.392" width="192.438" height="4.87115" fill="#009E9E"/>
<rect x="-4.76282" y="124.264" width="9.86861" height="4.87115" fill="#009E9E"/>
<rect x="-9.69727" y="114.521" width="9.86861" height="4.87115" fill="#009E9E"/>
<rect x="10.04" y="114.521" width="4.9343" height="4.87115" fill="#009E9E"/>
<rect x="14.9744" y="124.264" width="4.9343" height="4.87115" fill="#009E9E"/>
<rect x="19.9087" y="119.392" width="192.438" height="4.87115" fill="#009E9E"/>
<rect x="29.7773" y="114.521" width="4.9343" height="4.87115" fill="#009E9E"/>
<rect x="39.6459" y="124.263" width="4.9343" height="4.87115" fill="#009E9E"/>
<rect x="59.3833" y="129.135" width="4.9343" height="4.87115" fill="#009E9E"/>
<rect x="49.5145" y="114.521" width="9.86861" height="4.87115" fill="#009E9E"/>
<rect x="24.843" y="124.263" width="9.86861" height="4.87115" fill="#009E9E"/>
<rect x="79.1205" y="114.521" width="9.86861" height="4.87115" fill="#009E9E"/>
<rect x="69.2517" y="129.135" width="9.86861" height="4.87115" fill="#009E9E"/>
<rect x="88.989" y="124.263" width="9.86861" height="4.87115" fill="#009E9E"/>
<rect x="128.463" y="129.135" width="9.86861" height="4.87115" fill="#009E9E"/>
<rect x="167.938" y="124.263" width="9.86861" height="4.87115" fill="#009E9E"/>
<rect x="187.675" y="124.263" width="9.86861" height="4.87115" fill="#009E9E"/>
<rect x="108.726" y="114.521" width="14.8029" height="4.87115" fill="#009E9E"/>
<rect x="103.792" y="124.263" width="14.8029" height="4.87115" fill="#009E9E"/>
<rect x="98.8575" y="114.521" width="4.9343" height="4.87115" fill="#009E9E"/>
<rect x="93.9233" y="129.135" width="4.9343" height="4.87115" fill="#009E9E"/>
<rect x="138.332" y="114.521" width="29.6058" height="4.87115" fill="#009E9E"/>
<rect x="123.529" y="124.263" width="29.6058" height="4.87115" fill="#009E9E"/>
<rect x="54.449" y="124.263" width="29.6058" height="4.87115" fill="#009E9E"/>
<rect x="182.741" y="114.521" width="9.86861" height="4.87115" fill="#009E9E"/>
<rect x="202.478" y="114.521" width="4.9343" height="4.87115" fill="#009E9E"/>
<rect x="207.412" y="124.263" width="4.9343" height="4.87115" fill="#009E9E"/>
<rect x="212.347" y="119.392" width="192.438" height="4.87115" fill="#009E9E"/>
<rect x="222.215" y="114.521" width="4.9343" height="4.87115" fill="#009E9E"/>
<rect x="232.084" y="124.264" width="4.9343" height="4.87115" fill="#009E9E"/>
<rect x="251.821" y="129.135" width="4.9343" height="4.87115" fill="#009E9E"/>
<rect x="241.952" y="114.521" width="9.86861" height="4.87115" fill="#009E9E"/>
<rect x="217.281" y="124.264" width="9.86861" height="4.87115" fill="#009E9E"/>
<rect x="271.558" y="114.521" width="9.86861" height="4.87115" fill="#009E9E"/>
<rect x="261.69" y="129.135" width="9.86861" height="4.87115" fill="#009E9E"/>
<rect x="281.427" y="124.264" width="9.86861" height="4.87115" fill="#009E9E"/>
<rect x="320.901" y="129.135" width="9.86861" height="4.87115" fill="#009E9E"/>
<rect x="360.376" y="124.264" width="9.86861" height="4.87115" fill="#009E9E"/>
<rect x="380.113" y="124.264" width="9.86861" height="4.87115" fill="#009E9E"/>
<rect x="301.164" y="114.521" width="14.8029" height="4.87115" fill="#009E9E"/>
<rect x="296.23" y="124.264" width="14.8029" height="4.87115" fill="#009E9E"/>
<rect x="291.296" y="114.521" width="4.9343" height="4.87115" fill="#009E9E"/>
<rect x="286.361" y="129.135" width="4.9343" height="4.87115" fill="#009E9E"/>
<rect x="330.77" y="114.521" width="29.6058" height="4.87115" fill="#009E9E"/>
<rect x="315.967" y="124.264" width="29.6058" height="4.87115" fill="#009E9E"/>
<rect x="246.887" y="124.264" width="29.6058" height="4.87115" fill="#009E9E"/>
<rect x="375.179" y="114.521" width="9.86861" height="4.87115" fill="#009E9E"/>
<rect x="394.916" y="114.521" width="4.9343" height="4.87115" fill="#009E9E"/>
<rect x="399.85" y="124.264" width="4.9343" height="4.87115" fill="#009E9E"/>
<rect x="404.784" y="119.392" width="192.438" height="4.87115" fill="#009E9E"/>
<rect x="414.653" y="114.521" width="4.9343" height="4.87115" fill="#009E9E"/>
<rect x="424.522" y="124.264" width="4.9343" height="4.87115" fill="#009E9E"/>
<rect x="444.259" y="129.135" width="4.9343" height="4.87115" fill="#009E9E"/>
<rect x="434.39" y="114.521" width="9.86861" height="4.87115" fill="#009E9E"/>
<rect x="409.719" y="124.264" width="9.86861" height="4.87115" fill="#009E9E"/>
<rect x="463.996" y="114.521" width="9.86861" height="4.87115" fill="#009E9E"/>
<rect x="454.128" y="129.135" width="9.86861" height="4.87115" fill="#009E9E"/>
<rect x="473.865" y="124.264" width="9.86861" height="4.87115" fill="#009E9E"/>
<rect x="513.339" y="129.135" width="9.86861" height="4.87115" fill="#009E9E"/>
<rect x="552.813" y="124.264" width="9.86861" height="4.87115" fill="#009E9E"/>
<rect x="572.551" y="124.264" width="9.86861" height="4.87115" fill="#009E9E"/>
<rect x="493.602" y="114.521" width="14.8029" height="4.87115" fill="#009E9E"/>
<rect x="488.668" y="124.264" width="14.8029" height="4.87115" fill="#009E9E"/>
<rect x="483.733" y="114.521" width="4.9343" height="4.87115" fill="#009E9E"/>
<rect x="478.799" y="129.135" width="4.9343" height="4.87115" fill="#009E9E"/>
<rect x="523.207" y="114.521" width="29.6058" height="4.87115" fill="#009E9E"/>
<rect x="508.405" y="124.264" width="29.6058" height="4.87115" fill="#009E9E"/>
<rect x="439.325" y="124.264" width="29.6058" height="4.87115" fill="#009E9E"/>
<rect x="567.616" y="114.521" width="9.86861" height="4.87115" fill="#009E9E"/>
<rect x="587.354" y="114.521" width="4.9343" height="4.87115" fill="#009E9E"/>
<rect x="592.288" y="124.264" width="4.9343" height="4.87115" fill="#009E9E"/>
<rect x="596.771" y="119.516" width="181.229" height="4.86829" fill="#009E9E"/>
<rect x="607.091" y="114.521" width="4.9343" height="4.87115" fill="#009E9E"/>
<rect x="616.959" y="124.264" width="4.9343" height="4.87115" fill="#009E9E"/>
<rect x="636.697" y="129.135" width="4.9343" height="4.87115" fill="#009E9E"/>
<rect x="626.828" y="114.521" width="9.86861" height="4.87115" fill="#009E9E"/>
<rect x="602.157" y="124.264" width="9.86861" height="4.87115" fill="#009E9E"/>
<rect x="656.434" y="114.521" width="9.86861" height="4.87115" fill="#009E9E"/>
<rect x="646.565" y="129.135" width="9.86861" height="4.87115" fill="#009E9E"/>
<rect x="666.303" y="124.264" width="9.86861" height="4.87115" fill="#009E9E"/>
<rect x="705.777" y="129.135" width="9.86861" height="4.87115" fill="#009E9E"/>
<rect x="745.251" y="124.264" width="9.86861" height="4.87115" fill="#009E9E"/>
<rect x="764.989" y="124.264" width="9.86861" height="4.87115" fill="#009E9E"/>
<rect x="686.04" y="114.521" width="14.8029" height="4.87115" fill="#009E9E"/>
<rect x="681.105" y="124.264" width="14.8029" height="4.87115" fill="#009E9E"/>
<rect x="676.171" y="114.521" width="4.9343" height="4.87115" fill="#009E9E"/>
<rect x="671.237" y="129.135" width="4.9343" height="4.87115" fill="#009E9E"/>
<rect x="715.645" y="114.521" width="29.6058" height="4.87115" fill="#009E9E"/>
<rect x="700.842" y="124.264" width="29.6058" height="4.87115" fill="#009E9E"/>
<rect x="631.763" y="124.264" width="29.6058" height="4.87115" fill="#009E9E"/>
<rect x="760.054" y="114.521" width="9.86861" height="4.87115" fill="#009E9E"/>
<rect x="268.668" y="89.7238" width="10.3185" height="10.3185" fill="#009E9E"/>
<rect x="258.35" y="89.7238" width="10.3185" height="10.3185" fill="#009E9E"/>
<rect x="251.471" y="93.1633" width="6.87898" height="6.87898" fill="#009E9E"/>
<rect x="268.668" y="89.7238" width="10.3185" height="3.43949" fill="#29B8B8" fill-opacity="0.962426"/>
<rect x="258.35" y="89.7238" width="10.3185" height="3.43949" fill="#29B8B8" fill-opacity="0.962426"/>
<rect x="254.91" y="93.1633" width="3.43949" height="3.43949" fill="#29B8B8" fill-opacity="0.962426"/>
<rect x="275.547" y="93.1633" width="3.43949" height="3.43949" fill="#29B8B8" fill-opacity="0.962426"/>
<rect x="251.471" y="93.1633" width="3.43949" height="3.43949" fill="#29B8B8" fill-opacity="0.962426"/>
<rect x="261.789" y="86.2843" width="3.43949" height="3.43949" fill="#29B8B8" fill-opacity="0.962426"/>
<rect x="265.229" y="86.2843" width="3.43949" height="3.43949" fill="#29B8B8" fill-opacity="0.962426"/>
<rect width="7.73885" height="3.43949" transform="matrix(-1 0 0 1 286.726 96.6028)" fill="#009E9E"/>
<rect x="413.872" y="12.2975" width="19.8603" height="23.8324" fill="#A8E7F4"/>
<rect x="374.151" y="8.3252" width="3.97206" height="3.97206" fill="#088484"/>
<rect x="378.123" y="12.2975" width="3.97206" height="3.97206" fill="#088484"/>
<rect x="382.095" y="12.2975" width="3.97206" height="3.97206" fill="#088484"/>
<rect x="386.067" y="12.2975" width="3.97206" height="3.97206" fill="#088484"/>
<rect x="390.039" y="12.2975" width="3.97206" height="3.97206" fill="#088484"/>
<rect x="386.067" y="8.3252" width="3.97206" height="3.97206" fill="#088484"/>
<rect x="390.039" y="8.3252" width="3.97206" height="3.97206" fill="#088484"/>
<rect x="394.011" y="8.3252" width="3.97206" height="3.97206" fill="#088484"/>
<rect x="397.983" y="8.3252" width="3.97206" height="3.97206" fill="#088484"/>
<rect x="405.927" y="16.2692" width="3.97206" height="3.97206" fill="#088484"/>
<rect x="405.927" y="20.2415" width="3.97206" height="3.97206" fill="#088484"/>
<rect x="394.011" y="4.35339" width="3.97206" height="3.97206" fill="#088484"/>
<rect x="409.899" y="16.2692" width="3.97206" height="3.97206" fill="#088484"/>
<rect x="409.899" y="24.2136" width="3.97206" height="3.97206" fill="#088484"/>
<rect x="409.899" y="20.2415" width="3.97206" height="3.97206" fill="#088484"/>
<rect x="397.983" y="4.35339" width="3.97206" height="3.97206" fill="#088484"/>
<rect x="409.899" y="28.1859" width="3.97206" height="3.97206" fill="#088484"/>
<rect x="390.039" y="4.35339" width="3.97206" height="3.97206" fill="#088484"/>
<rect x="405.927" y="12.2975" width="3.97206" height="3.97206" fill="#088484"/>
<rect x="409.899" y="12.2975" width="3.97206" height="3.97206" fill="#088484"/>
<rect x="409.899" y="8.3252" width="3.97206" height="3.97206" fill="#088484"/>
<rect x="405.927" y="4.35339" width="3.97206" height="3.97206" fill="#088484"/>
<rect x="397.983" y="0.381287" width="3.97206" height="3.97206" fill="#088484"/>
<rect x="401.955" y="0.381287" width="3.97206" height="3.97206" fill="#088484"/>
<rect x="405.927" y="0.381287" width="3.97206" height="3.97206" fill="#088484"/>
<rect x="401.955" y="4.35339" width="3.97206" height="3.97206" fill="#088484"/>
<rect x="413.872" y="8.3252" width="3.97206" height="3.97206" fill="#088484"/>
<rect x="429.76" y="20.2415" width="3.97206" height="3.97206" fill="#29B8B8" fill-opacity="0.962426"/>
<rect x="425.788" y="28.1859" width="3.97206" height="3.97206" fill="#009E9E"/>
<rect x="417.844" y="20.2415" width="3.97206" height="3.97206" fill="#29B8B8" fill-opacity="0.962426"/>
<rect x="413.872" y="12.2975" width="3.97206" height="3.97206" fill="#088484"/>
<rect x="421.816" y="8.3252" width="3.97206" height="3.97206" fill="#088484"/>
<rect x="429.76" y="8.3252" width="3.97206" height="3.97206" fill="#088484"/>
<rect x="433.732" y="8.3252" width="3.97206" height="3.97206" fill="#088484"/>
<rect x="417.844" y="4.35339" width="3.97206" height="3.97206" fill="#088484"/>
<rect x="421.816" y="4.35339" width="3.97206" height="3.97206" fill="#088484"/>
<rect x="417.844" y="8.3252" width="3.97206" height="3.97206" fill="#088484"/>
<rect x="413.872" y="4.35339" width="3.97206" height="3.97206" fill="#088484"/>
<rect x="425.788" y="4.35339" width="3.97206" height="3.97206" fill="#088484"/>
<rect x="429.76" y="4.35339" width="3.97206" height="3.97206" fill="#088484"/>
<rect x="425.788" y="8.3252" width="3.97206" height="3.97206" fill="#088484"/>
<rect x="409.899" y="4.35339" width="3.97206" height="3.97206" fill="#29B8B8" fill-opacity="0.962426"/>
<rect x="405.927" y="8.3252" width="3.97206" height="3.97206" fill="#29B8B8" fill-opacity="0.962426"/>
<rect x="417.844" y="36.1298" width="7.94413" height="11.9162" fill="#A8E7F4"/>
<rect x="413.872" y="48.0463" width="15.8883" height="15.8883" fill="#29B8B8" fill-opacity="0.962426"/>
<rect x="425.788" y="40.1021" width="3.97206" height="7.94413" fill="#29B8B8" fill-opacity="0.962426"/>
<rect x="413.872" y="40.1021" width="3.97206" height="7.94413" fill="#29B8B8" fill-opacity="0.962426"/>
<rect x="413.872" y="63.9346" width="15.8883" height="3.97206" fill="#A8E7F4"/>
<rect x="409.899" y="67.9067" width="19.8603" height="11.9162" fill="#026262"/>
<rect x="409.899" y="79.8229" width="7.94413" height="3.97206" fill="#017171"/>
<rect x="425.787" y="71.8785" width="7.94413" height="11.9162" fill="#026262"/>
<rect x="425.788" y="83.7948" width="7.94413" height="3.97206" fill="#A8E7F4"/>
<rect x="433.732" y="40.1021" width="7.94413" height="3.97206" transform="rotate(90 433.732 40.1021)" fill="#A8E7F4"/>
<rect x="413.872" y="40.1021" width="7.94413" height="3.97206" transform="rotate(90 413.872 40.1021)" fill="#A8E7F4"/>
<rect x="433.732" y="48.0463" width="7.94413" height="3.97206" fill="#A8E7F4"/>
<rect x="405.927" y="44.0742" width="7.94413" height="3.97206" fill="#A8E7F4"/>
<rect x="405.927" y="48.0463" width="7.94413" height="3.97206" transform="rotate(90 405.927 48.0463)" fill="#A8E7F4"/>
<rect x="409.899" y="83.7948" width="3.97206" height="3.97206" fill="#A8E7F4"/>
<rect x="429.76" y="87.767" width="3.97206" height="3.97206" fill="#A8E7F4"/>
<rect x="441.676" y="44.0742" width="3.97206" height="3.97206" fill="#A8E7F4"/>
<rect x="405.927" y="55.99" width="3.97206" height="3.97206" fill="#A8E7F4"/>
<rect x="405.927" y="83.7948" width="3.97206" height="3.97206" fill="#A8E7F4"/>
<rect x="401.955" y="83.7948" width="3.97206" height="7.94413" fill="#088484"/>
<rect x="429.76" y="95.711" width="3.97206" height="3.97206" transform="rotate(-90 429.76 95.711)" fill="#A8E7F4"/>
<rect x="429.76" y="99.6829" width="3.97206" height="7.94413" transform="rotate(-90 429.76 99.6829)" fill="#088484"/>
<rect width="192.438" height="4.87115" transform="matrix(-1 0 0 1 1535.09 138.877)" fill="#088484"/>
<rect width="4.9343" height="4.87115" transform="matrix(-1 0 0 1 1515.35 143.749)" fill="#088484"/>
<rect width="4.9343" height="4.87115" transform="matrix(-1 0 0 1 1495.62 148.62)" fill="#088484"/>
<rect width="9.86861" height="4.87115" transform="matrix(-1 0 0 1 1505.49 134.006)" fill="#088484"/>
<rect width="9.86861" height="4.87115" transform="matrix(-1 0 0 1 1475.88 134.006)" fill="#088484"/>
<rect width="9.86861" height="4.87115" transform="matrix(-1 0 0 1 1485.75 148.62)" fill="#088484"/>
<rect width="9.86861" height="4.87115" transform="matrix(-1 0 0 1 1466.01 143.749)" fill="#088484"/>
<rect width="9.86861" height="4.87115" transform="matrix(-1 0 0 1 1426.54 148.62)" fill="#088484"/>
<rect width="9.86861" height="4.87115" transform="matrix(-1 0 0 1 1387.06 143.749)" fill="#088484"/>
<rect width="9.86861" height="4.87115" transform="matrix(-1 0 0 1 1367.33 143.749)" fill="#088484"/>
<rect width="14.8029" height="4.87115" transform="matrix(-1 0 0 1 1446.27 134.006)" fill="#088484"/>
<rect width="14.8029" height="4.87115" transform="matrix(-1 0 0 1 1451.21 143.749)" fill="#088484"/>
<rect width="4.9343" height="4.87115" transform="matrix(-1 0 0 1 1456.14 134.006)" fill="#088484"/>
<rect width="4.9343" height="4.87115" transform="matrix(-1 0 0 1 1461.08 148.62)" fill="#088484"/>
<rect width="29.6058" height="4.87115" transform="matrix(-1 0 0 1 1416.67 134.006)" fill="#088484"/>
<rect width="29.6058" height="4.87115" transform="matrix(-1 0 0 1 1431.47 143.749)" fill="#088484"/>
<rect width="29.6058" height="4.87115" transform="matrix(-1 0 0 1 1500.55 143.749)" fill="#088484"/>
<rect width="9.86861" height="4.87115" transform="matrix(-1 0 0 1 1372.26 134.006)" fill="#088484"/>
<rect width="4.9343" height="4.87115" transform="matrix(-1 0 0 1 1352.52 134.006)" fill="#088484"/>
<rect width="4.9343" height="4.87115" transform="matrix(-1 0 0 1 1347.59 143.749)" fill="#088484"/>
<rect width="192.438" height="4.87115" transform="matrix(-1 0 0 1 1342.65 138.877)" fill="#088484"/>
<rect width="4.9343" height="4.87115" transform="matrix(-1 0 0 1 1332.79 134.006)" fill="#088484"/>
<rect width="4.9343" height="4.87115" transform="matrix(-1 0 0 1 1322.92 143.749)" fill="#088484"/>
<rect width="4.9343" height="4.87115" transform="matrix(-1 0 0 1 1303.18 148.62)" fill="#088484"/>
<rect width="9.86861" height="4.87115" transform="matrix(-1 0 0 1 1313.05 134.006)" fill="#088484"/>
<rect width="9.86861" height="4.87115" transform="matrix(-1 0 0 1 1337.72 143.749)" fill="#088484"/>
<rect width="9.86861" height="4.87115" transform="matrix(-1 0 0 1 1283.44 134.006)" fill="#088484"/>
<rect width="9.86861" height="4.87115" transform="matrix(-1 0 0 1 1293.31 148.62)" fill="#088484"/>
<rect width="9.86861" height="4.87115" transform="matrix(-1 0 0 1 1273.57 143.749)" fill="#088484"/>
<rect width="9.86861" height="4.87115" transform="matrix(-1 0 0 1 1234.1 148.62)" fill="#088484"/>
<rect width="9.86861" height="4.87115" transform="matrix(-1 0 0 1 1205.93 143.749)" fill="#088484"/>
<rect width="9.86861" height="4.87115" transform="matrix(-1 0 0 1 1181.61 143.749)" fill="#088484"/>
<rect width="14.8029" height="4.87115" transform="matrix(-1 0 0 1 1253.84 134.006)" fill="#088484"/>
<rect width="14.8029" height="4.87115" transform="matrix(-1 0 0 1 1258.77 143.749)" fill="#088484"/>
<rect width="4.9343" height="4.87115" transform="matrix(-1 0 0 1 1263.7 134.006)" fill="#088484"/>
<rect width="4.9343" height="4.87115" transform="matrix(-1 0 0 1 1268.64 148.62)" fill="#088484"/>
<rect width="29.6058" height="4.87115" transform="matrix(-1 0 0 1 1224.23 134.006)" fill="#088484"/>
<rect width="29.6058" height="4.87115" transform="matrix(-1 0 0 1 1239.03 143.749)" fill="#088484"/>
<rect width="29.6058" height="4.87115" transform="matrix(-1 0 0 1 1308.11 143.749)" fill="#088484"/>
<rect width="9.86861" height="4.87115" transform="matrix(-1 0 0 1 1179.82 134.006)" fill="#088484"/>
<rect width="4.9343" height="4.87115" transform="matrix(-1 0 0 1 1160.08 134.006)" fill="#088484"/>
<rect width="4.9343" height="4.87115" transform="matrix(-1 0 0 1 1155.15 143.749)" fill="#088484"/>
<rect width="192.438" height="4.87115" transform="matrix(-1 0 0 1 1150.22 138.877)" fill="#088484"/>
<rect width="4.9343" height="4.87115" transform="matrix(-1 0 0 1 1140.35 134.006)" fill="#088484"/>
<rect width="4.9343" height="4.87115" transform="matrix(-1 0 0 1 1130.48 143.749)" fill="#088484"/>
<rect width="4.9343" height="4.87115" transform="matrix(-1 0 0 1 1110.74 148.62)" fill="#088484"/>
<rect width="9.86861" height="4.87115" transform="matrix(-1 0 0 1 1120.61 134.006)" fill="#088484"/>
<rect width="24.3333" height="4.87115" transform="matrix(-1 0 0 1 1151.67 143.749)" fill="#088484"/>
<rect width="9.86861" height="4.87115" transform="matrix(-1 0 0 1 1091 134.006)" fill="#088484"/>
<rect width="9.86861" height="4.87115" transform="matrix(-1 0 0 1 1100.87 148.62)" fill="#088484"/>
<rect width="9.86861" height="4.87115" transform="matrix(-1 0 0 1 1081.14 143.749)" fill="#088484"/>
<rect width="9.86861" height="4.87115" transform="matrix(-1 0 0 1 1041.66 148.62)" fill="#088484"/>
<rect width="9.86861" height="4.87115" transform="matrix(-1 0 0 1 1002.19 143.749)" fill="#088484"/>
<rect width="9.86861" height="4.87115" transform="matrix(-1 0 0 1 982.45 143.749)" fill="#088484"/>
<rect width="14.8029" height="4.87115" transform="matrix(-1 0 0 1 1061.4 134.006)" fill="#088484"/>
<rect width="14.8029" height="4.87115" transform="matrix(-1 0 0 1 1066.33 143.749)" fill="#088484"/>
<rect width="4.9343" height="4.87115" transform="matrix(-1 0 0 1 1071.27 134.006)" fill="#088484"/>
<rect width="4.9343" height="4.87115" transform="matrix(-1 0 0 1 1076.2 148.62)" fill="#088484"/>
<rect width="29.6058" height="4.87115" transform="matrix(-1 0 0 1 1031.79 134.006)" fill="#088484"/>
<rect width="29.6058" height="4.87115" transform="matrix(-1 0 0 1 1046.6 143.749)" fill="#088484"/>
<rect width="29.6058" height="4.87115" transform="matrix(-1 0 0 1 1115.68 143.749)" fill="#088484"/>
<rect width="9.86861" height="4.87115" transform="matrix(-1 0 0 1 987.384 134.006)" fill="#088484"/>
<rect width="4.9343" height="4.87115" transform="matrix(-1 0 0 1 967.647 134.006)" fill="#088484"/>
<rect width="4.9343" height="4.87115" transform="matrix(-1 0 0 1 962.712 143.749)" fill="#088484"/>
<rect width="181.229" height="4.86829" transform="matrix(-1 0 0 1 958.229 139.001)" fill="#088484"/>
<rect width="4.9343" height="4.87115" transform="matrix(-1 0 0 1 947.909 134.006)" fill="#088484"/>
<rect width="4.9343" height="4.87115" transform="matrix(-1 0 0 1 938.041 143.749)" fill="#088484"/>
<rect width="4.9343" height="4.87115" transform="matrix(-1 0 0 1 918.303 148.62)" fill="#088484"/>
<rect width="9.86861" height="4.87115" transform="matrix(-1 0 0 1 928.172 134.006)" fill="#088484"/>
<rect width="9.86861" height="4.87115" transform="matrix(-1 0 0 1 952.844 143.749)" fill="#088484"/>
<rect width="9.86861" height="4.87115" transform="matrix(-1 0 0 1 898.566 134.006)" fill="#088484"/>
<rect width="9.86861" height="4.87115" transform="matrix(-1 0 0 1 908.435 148.62)" fill="#088484"/>
<rect width="17.5043" height="4.87115" transform="matrix(-1 0 0 1 888.698 143.749)" fill="#088484"/>
<rect width="9.86861" height="4.87115" transform="matrix(-1 0 0 1 849.223 148.62)" fill="#088484"/>
<rect width="9.86861" height="4.87115" transform="matrix(-1 0 0 1 809.749 143.749)" fill="#088484"/>
<rect width="13.0114" height="4.87115" transform="matrix(-1 0 0 1 790.012 143.749)" fill="#088484"/>
<rect width="14.8029" height="4.87115" transform="matrix(-1 0 0 1 868.96 134.006)" fill="#088484"/>
<rect width="14.8029" height="4.87115" transform="matrix(-1 0 0 1 873.895 143.749)" fill="#088484"/>
<rect width="4.9343" height="4.87115" transform="matrix(-1 0 0 1 878.829 134.006)" fill="#088484"/>
<rect width="6.70038" height="4.87115" transform="matrix(-1 0 0 1 871.193 148.62)" fill="#088484"/>
<rect width="29.6058" height="4.87115" transform="matrix(-1 0 0 1 839.355 134.006)" fill="#088484"/>
<rect width="29.6058" height="4.87115" transform="matrix(-1 0 0 1 854.158 143.749)" fill="#088484"/>
<rect width="29.6058" height="4.87115" transform="matrix(-1 0 0 1 923.238 143.749)" fill="#088484"/>
<rect width="9.86861" height="4.87115" transform="matrix(-1 0 0 1 794.946 134.006)" fill="#088484"/>
<rect x="777" y="100.028" width="950" height="41" fill="#2FBABB"/>
<rect x="777" y="121.028" width="950" height="20" fill="#088484"/>
<rect x="777" y="119.392" width="192.438" height="4.87115" fill="#009E9E"/>
<rect x="786.869" y="114.521" width="4.9343" height="4.87115" fill="#009E9E"/>
<rect x="796.737" y="124.264" width="4.9343" height="4.87115" fill="#009E9E"/>
<rect x="816.475" y="129.135" width="4.9343" height="4.87115" fill="#009E9E"/>
<rect x="806.606" y="114.521" width="9.86861" height="4.87115" fill="#009E9E"/>
<rect x="781.934" y="124.264" width="9.86861" height="4.87115" fill="#009E9E"/>
<rect x="836.212" y="114.521" width="9.86861" height="4.87115" fill="#009E9E"/>
<rect x="826.343" y="129.135" width="9.86861" height="4.87115" fill="#009E9E"/>
<rect x="846.08" y="124.264" width="9.86861" height="4.87115" fill="#009E9E"/>
<rect x="885.555" y="129.135" width="9.86861" height="4.87115" fill="#009E9E"/>
<rect x="925.029" y="124.264" width="9.86861" height="4.87115" fill="#009E9E"/>
<rect x="944.766" y="124.264" width="9.86861" height="4.87115" fill="#009E9E"/>
<rect x="865.818" y="114.521" width="14.8029" height="4.87115" fill="#009E9E"/>
<rect x="860.883" y="124.264" width="14.8029" height="4.87115" fill="#009E9E"/>
<rect x="855.949" y="114.521" width="4.9343" height="4.87115" fill="#009E9E"/>
<rect x="851.015" y="129.135" width="4.9343" height="4.87115" fill="#009E9E"/>
<rect x="895.423" y="114.521" width="29.6058" height="4.87115" fill="#009E9E"/>
<rect x="880.62" y="124.264" width="29.6058" height="4.87115" fill="#009E9E"/>
<rect x="811.54" y="124.264" width="29.6058" height="4.87115" fill="#009E9E"/>
<rect x="939.832" y="114.521" width="9.86861" height="4.87115" fill="#009E9E"/>
<rect x="959.569" y="114.521" width="4.9343" height="4.87115" fill="#009E9E"/>
<rect x="964.504" y="124.264" width="4.9343" height="4.87115" fill="#009E9E"/>
<rect x="969.438" y="119.392" width="192.438" height="4.87115" fill="#009E9E"/>
<rect x="979.307" y="114.521" width="4.9343" height="4.87115" fill="#009E9E"/>
<rect x="989.175" y="124.263" width="4.9343" height="4.87115" fill="#009E9E"/>
<rect x="1008.91" y="129.135" width="4.9343" height="4.87115" fill="#009E9E"/>
<rect x="999.044" y="114.521" width="9.86861" height="4.87115" fill="#009E9E"/>
<rect x="974.372" y="124.263" width="9.86861" height="4.87115" fill="#009E9E"/>
<rect x="1028.65" y="114.521" width="9.86861" height="4.87115" fill="#009E9E"/>
<rect x="1018.78" y="129.135" width="9.86861" height="4.87115" fill="#009E9E"/>
<rect x="1038.52" y="124.263" width="9.86861" height="4.87115" fill="#009E9E"/>
<rect x="1077.99" y="129.135" width="9.86861" height="4.87115" fill="#009E9E"/>
<rect x="1117.47" y="124.263" width="9.86861" height="4.87115" fill="#009E9E"/>
<rect x="1137.2" y="124.263" width="9.86861" height="4.87115" fill="#009E9E"/>
<rect x="1058.26" y="114.521" width="14.8029" height="4.87115" fill="#009E9E"/>
<rect x="1053.32" y="124.263" width="14.8029" height="4.87115" fill="#009E9E"/>
<rect x="1048.39" y="114.521" width="4.9343" height="4.87115" fill="#009E9E"/>
<rect x="1043.45" y="129.135" width="4.9343" height="4.87115" fill="#009E9E"/>
<rect x="1087.86" y="114.521" width="29.6058" height="4.87115" fill="#009E9E"/>
<rect x="1073.06" y="124.263" width="29.6058" height="4.87115" fill="#009E9E"/>
<rect x="1003.98" y="124.263" width="29.6058" height="4.87115" fill="#009E9E"/>
<rect x="1132.27" y="114.521" width="9.86861" height="4.87115" fill="#009E9E"/>
<rect x="1152.01" y="114.521" width="4.9343" height="4.87115" fill="#009E9E"/>
<rect x="1156.94" y="124.263" width="4.9343" height="4.87115" fill="#009E9E"/>
<rect x="1161.88" y="119.392" width="192.438" height="4.87115" fill="#009E9E"/>
<rect x="1171.74" y="114.521" width="4.9343" height="4.87115" fill="#009E9E"/>
<rect x="1181.61" y="124.264" width="4.9343" height="4.87115" fill="#009E9E"/>
<rect x="1201.35" y="129.135" width="4.9343" height="4.87115" fill="#009E9E"/>
<rect x="1191.48" y="114.521" width="9.86861" height="4.87115" fill="#009E9E"/>
<rect x="1166.81" y="124.264" width="9.86861" height="4.87115" fill="#009E9E"/>
<rect x="1221.09" y="114.521" width="9.86861" height="4.87115" fill="#009E9E"/>
<rect x="1211.22" y="129.135" width="9.86861" height="4.87115" fill="#009E9E"/>
<rect x="1230.96" y="124.264" width="9.86861" height="4.87115" fill="#009E9E"/>
<rect x="1270.43" y="129.135" width="9.86861" height="4.87115" fill="#009E9E"/>
<rect x="1309.9" y="124.264" width="9.86861" height="4.87115" fill="#009E9E"/>
<rect x="1329.64" y="124.264" width="9.86861" height="4.87115" fill="#009E9E"/>
<rect x="1250.69" y="114.521" width="14.8029" height="4.87115" fill="#009E9E"/>
<rect x="1245.76" y="124.264" width="14.8029" height="4.87115" fill="#009E9E"/>
<rect x="1240.82" y="114.521" width="4.9343" height="4.87115" fill="#009E9E"/>
<rect x="1235.89" y="129.135" width="4.9343" height="4.87115" fill="#009E9E"/>
<rect x="1280.3" y="114.521" width="29.6058" height="4.87115" fill="#009E9E"/>
<rect x="1265.5" y="124.264" width="29.6058" height="4.87115" fill="#009E9E"/>
<rect x="1196.42" y="124.264" width="29.6058" height="4.87115" fill="#009E9E"/>
<rect x="1324.71" y="114.521" width="9.86861" height="4.87115" fill="#009E9E"/>
<rect x="1344.45" y="114.521" width="4.9343" height="4.87115" fill="#009E9E"/>
<rect x="1349.38" y="124.264" width="4.9343" height="4.87115" fill="#009E9E"/>
<rect x="1354.31" y="119.392" width="192.438" height="4.87115" fill="#009E9E"/>
<rect x="1364.18" y="114.521" width="4.9343" height="4.87115" fill="#009E9E"/>
<rect x="1374.05" y="124.264" width="4.9343" height="4.87115" fill="#009E9E"/>
<rect x="1393.79" y="129.135" width="4.9343" height="4.87115" fill="#009E9E"/>
<rect x="1383.92" y="114.521" width="9.86861" height="4.87115" fill="#009E9E"/>
<rect x="1359.25" y="124.264" width="9.86861" height="4.87115" fill="#009E9E"/>
<rect x="1413.53" y="114.521" width="9.86861" height="4.87115" fill="#009E9E"/>
<rect x="1403.66" y="129.135" width="9.86861" height="4.87115" fill="#009E9E"/>
<rect x="1423.39" y="124.264" width="9.86861" height="4.87115" fill="#009E9E"/>
<rect x="1462.87" y="129.135" width="9.86861" height="4.87115" fill="#009E9E"/>
<rect x="1502.34" y="124.264" width="9.86861" height="4.87115" fill="#009E9E"/>
<rect x="1443.13" y="114.521" width="14.8029" height="4.87115" fill="#009E9E"/>
<rect x="1438.2" y="124.264" width="14.8029" height="4.87115" fill="#009E9E"/>
<rect x="1433.26" y="114.521" width="4.9343" height="4.87115" fill="#009E9E"/>
<rect x="1428.33" y="129.135" width="4.9343" height="4.87115" fill="#009E9E"/>
<rect x="1472.74" y="114.521" width="29.6058" height="4.87115" fill="#009E9E"/>
<rect x="1457.93" y="124.264" width="29.6058" height="4.87115" fill="#009E9E"/>
<rect x="1388.85" y="124.264" width="29.6058" height="4.87115" fill="#009E9E"/>
<rect x="200.686" y="148.619" width="9.49841" height="4.3078" transform="rotate(90 200.686 148.619)" fill="#009E9E"/>
<rect width="9.49841" height="4.3078" transform="matrix(6.43669e-08 1 1 -2.96843e-08 143.942 151.562)" fill="#088484"/>
<rect width="6.11511" height="4.3078" transform="matrix(6.43669e-08 1 1 -2.96843e-08 139.634 161.06)" fill="#009E9E"/>
<rect x="204.994" y="158.118" width="6.11511" height="4.3078" transform="rotate(90 204.994 158.118)" fill="#2FBABB"/>
<rect width="9.84424" height="4.3078" transform="matrix(6.43669e-08 1 1 -2.96843e-08 45.5691 148.619)" fill="#009E9E"/>
<rect width="9.49841" height="4.3078" transform="matrix(6.43669e-08 1 1 -2.96843e-08 18.407 149.631)" fill="#009E9E"/>
<rect width="5.42334" height="21.2883" transform="matrix(6.43669e-08 1 1 -2.96843e-08 11.632 148.957)" fill="#009E9E"/>
<rect width="5.42334" height="24.0764" transform="matrix(6.43669e-08 1 1 -2.96843e-08 7.0188 143.533)" fill="#088484"/>
<rect width="7.92212" height="4.3078" transform="matrix(6.43669e-08 1 1 -2.96843e-08 28.6124 145.284)" fill="#009E9E"/>
<rect width="7.92212" height="4.3078" transform="matrix(6.43669e-08 1 1 -2.96843e-08 16.2529 144.995)" fill="#009E9E"/>
<rect x="873.604" y="143.869" width="8.78192" height="9.31457" transform="rotate(90 873.604 143.869)" fill="#088484"/>
<rect x="873.604" y="152.651" width="8.78192" height="4.3078" transform="rotate(90 873.604 152.651)" fill="#088484"/>
<rect x="869.769" y="161.433" width="7.75787" height="4.3078" transform="rotate(90 869.769 161.433)" fill="#009E9E"/>
<rect x="884.691" y="148.619" width="9.49841" height="4.3078" transform="rotate(90 884.691 148.619)" fill="#009E9E"/>
<rect width="9.49841" height="4.3078" transform="matrix(6.43669e-08 1 1 -2.96843e-08 805.441 148.62)" fill="#088484"/>
<rect width="6.11511" height="4.3078" transform="matrix(6.43669e-08 1 1 -2.96843e-08 801.133 158.118)" fill="#009E9E"/>
<rect x="888.999" y="158.118" width="6.11511" height="4.3078" transform="rotate(90 888.999 158.118)" fill="#2FBABB"/>
<rect width="9.84424" height="4.93417" transform="matrix(6.43669e-08 1 1 -2.96843e-08 728.657 148.619)" fill="#009E9E"/>
<rect width="9.49841" height="4.3078" transform="matrix(6.43669e-08 1 1 -2.96843e-08 702.412 149.631)" fill="#009E9E"/>
<rect width="5.42334" height="21.2883" transform="matrix(6.43669e-08 1 1 -2.96843e-08 695.637 148.344)" fill="#009E9E"/>
<rect width="5.08618" height="24.0764" transform="matrix(6.43669e-08 1 1 -2.96843e-08 690.695 143.533)" fill="#088484"/>
<rect width="8.48315" height="6.17096" transform="matrix(6.43669e-08 1 1 -2.96843e-08 712.617 145.284)" fill="#009E9E"/>
<rect width="7.92212" height="4.3078" transform="matrix(6.43669e-08 1 1 -2.96843e-08 700.258 144.995)" fill="#009E9E"/>
<rect width="8.78192" height="9.31457" transform="matrix(4.37114e-08 1 1 -4.37114e-08 1136.62 148.085)" fill="#088484"/>
<rect width="8.78192" height="4.3078" transform="matrix(6.43669e-08 1 1 -2.96843e-08 1136.62 156.867)" fill="#088484"/>
<rect width="7.75787" height="4.3078" transform="matrix(6.43669e-08 1 1 -2.96843e-08 1140.93 162.304)" fill="#009E9E"/>
<rect width="9.49841" height="4.3078" transform="matrix(6.43669e-08 1 1 -2.96843e-08 1125.53 148.085)" fill="#009E9E"/>
<rect x="1205.93" y="148.086" width="9.49841" height="4.3078" transform="rotate(90 1205.93 148.086)" fill="#088484"/>
<rect x="1210.24" y="157.584" width="6.11511" height="4.3078" transform="rotate(90 1210.24 157.584)" fill="#009E9E"/>
<rect width="6.11511" height="4.3078" transform="matrix(6.43669e-08 1 1 -2.96843e-08 1121.23 157.583)" fill="#2FBABB"/>
<rect x="1263.7" y="153.491" width="9.84424" height="4.93417" transform="rotate(90 1263.7 153.491)" fill="#009E9E"/>
<rect x="1350.67" y="149.846" width="9.49841" height="4.3078" transform="rotate(90 1350.67 149.846)" fill="#009E9E"/>
<rect x="1357.45" y="148.559" width="5.42334" height="21.2883" transform="rotate(90 1357.45 148.559)" fill="#009E9E"/>
<rect x="1362.39" y="143.748" width="5.08618" height="26.2301" transform="rotate(90 1362.39 143.748)" fill="#088484"/>
<rect x="1340.47" y="145.499" width="8.48315" height="6.17096" transform="rotate(90 1340.47 145.499)" fill="#009E9E"/>
<rect x="1352.83" y="145.211" width="7.92212" height="4.3078" transform="rotate(90 1352.83 145.211)" fill="#009E9E"/>
<rect x="1445.72" y="140.079" width="8.78192" height="9.31457" transform="rotate(90 1445.72 140.079)" fill="#088484"/>
<rect x="1445.72" y="148.861" width="8.78192" height="4.3078" transform="rotate(90 1445.72 148.861)" fill="#088484"/>
<rect x="1450.03" y="155.577" width="7.75787" height="4.3078" transform="rotate(90 1450.03 155.577)" fill="#009E9E"/>
</svg>
