<svg width="1825" height="171" viewBox="0 0 1825 171" fill="none" xmlns="http://www.w3.org/2000/svg">
<rect width="192.438" height="4.87115" transform="matrix(-1 0 0 1 934.5 138.878)" fill="#088484"/>
<rect width="4.9343" height="4.87115" transform="matrix(-1 0 0 1 924.631 134.006)" fill="#088484"/>
<rect width="4.9343" height="4.87115" transform="matrix(-1 0 0 1 914.763 143.749)" fill="#088484"/>
<rect width="4.9343" height="4.87115" transform="matrix(-1 0 0 1 895.025 148.62)" fill="#088484"/>
<rect width="9.86861" height="4.87115" transform="matrix(-1 0 0 1 904.894 134.006)" fill="#088484"/>
<rect width="9.86861" height="4.87115" transform="matrix(-1 0 0 1 929.566 143.749)" fill="#088484"/>
<rect width="9.86861" height="4.87115" transform="matrix(-1 0 0 1 875.288 134.006)" fill="#088484"/>
<rect width="9.86861" height="4.87115" transform="matrix(-1 0 0 1 885.157 148.62)" fill="#088484"/>
<rect width="9.86861" height="4.87115" transform="matrix(-1 0 0 1 865.42 143.749)" fill="#088484"/>
<rect width="9.86861" height="4.87115" transform="matrix(-1 0 0 1 825.945 148.62)" fill="#088484"/>
<rect width="9.86861" height="4.87115" transform="matrix(-1 0 0 1 786.471 143.749)" fill="#088484"/>
<rect width="9.86861" height="4.87115" transform="matrix(-1 0 0 1 766.734 143.749)" fill="#088484"/>
<rect width="14.8029" height="4.87115" transform="matrix(-1 0 0 1 845.682 134.006)" fill="#088484"/>
<rect width="14.8029" height="4.87115" transform="matrix(-1 0 0 1 850.617 143.749)" fill="#088484"/>
<rect width="4.9343" height="4.87115" transform="matrix(-1 0 0 1 855.551 134.006)" fill="#088484"/>
<rect width="4.9343" height="4.87115" transform="matrix(-1 0 0 1 860.485 148.62)" fill="#088484"/>
<rect width="29.6058" height="4.87115" transform="matrix(-1 0 0 1 816.077 134.006)" fill="#088484"/>
<rect width="29.6058" height="4.87115" transform="matrix(-1 0 0 1 830.88 143.749)" fill="#088484"/>
<rect width="29.6058" height="4.87115" transform="matrix(-1 0 0 1 899.96 143.749)" fill="#088484"/>
<rect width="9.86861" height="4.87115" transform="matrix(-1 0 0 1 771.668 134.006)" fill="#088484"/>
<rect width="4.9343" height="4.87115" transform="matrix(-1 0 0 1 751.931 134.006)" fill="#088484"/>
<rect width="4.9343" height="4.87115" transform="matrix(-1 0 0 1 746.996 143.749)" fill="#088484"/>
<rect width="192.438" height="4.87115" transform="matrix(-1 0 0 1 742.062 138.877)" fill="#088484"/>
<rect width="4.9343" height="4.87115" transform="matrix(-1 0 0 1 732.193 134.006)" fill="#088484"/>
<rect width="4.9343" height="4.87115" transform="matrix(-1 0 0 1 722.325 143.748)" fill="#088484"/>
<rect width="4.9343" height="4.87115" transform="matrix(-1 0 0 1 702.588 148.62)" fill="#088484"/>
<rect width="9.86861" height="4.87115" transform="matrix(-1 0 0 1 712.456 134.006)" fill="#088484"/>
<rect width="9.86861" height="4.87115" transform="matrix(-1 0 0 1 737.128 143.748)" fill="#088484"/>
<rect width="9.86861" height="4.87115" transform="matrix(-1 0 0 1 682.85 134.006)" fill="#088484"/>
<rect width="9.86861" height="4.87115" transform="matrix(-1 0 0 1 692.719 148.62)" fill="#088484"/>
<rect width="9.86861" height="4.87115" transform="matrix(-1 0 0 1 672.982 143.748)" fill="#088484"/>
<rect width="9.86861" height="4.87115" transform="matrix(-1 0 0 1 633.508 148.62)" fill="#088484"/>
<rect width="9.86861" height="4.87115" transform="matrix(-1 0 0 1 594.033 143.748)" fill="#088484"/>
<rect width="9.86861" height="4.87115" transform="matrix(-1 0 0 1 574.296 143.748)" fill="#088484"/>
<rect width="14.8029" height="4.87115" transform="matrix(-1 0 0 1 653.245 134.006)" fill="#088484"/>
<rect width="14.8029" height="4.87115" transform="matrix(-1 0 0 1 658.179 143.748)" fill="#088484"/>
<rect width="4.9343" height="4.87115" transform="matrix(-1 0 0 1 663.113 134.006)" fill="#088484"/>
<rect width="4.9343" height="4.87115" transform="matrix(-1 0 0 1 668.047 148.62)" fill="#088484"/>
<rect width="29.6058" height="4.87115" transform="matrix(-1 0 0 1 623.639 134.006)" fill="#088484"/>
<rect width="29.6058" height="4.87115" transform="matrix(-1 0 0 1 638.442 143.748)" fill="#088484"/>
<rect width="29.6058" height="4.87115" transform="matrix(-1 0 0 1 707.522 143.748)" fill="#088484"/>
<rect width="9.86861" height="4.87115" transform="matrix(-1 0 0 1 579.23 134.006)" fill="#088484"/>
<rect width="4.9343" height="4.87115" transform="matrix(-1 0 0 1 559.493 134.006)" fill="#088484"/>
<rect width="4.9343" height="4.87115" transform="matrix(-1 0 0 1 554.559 143.748)" fill="#088484"/>
<rect width="192.438" height="4.87115" transform="matrix(-1 0 0 1 549.624 138.877)" fill="#088484"/>
<rect width="4.9343" height="4.87115" transform="matrix(-1 0 0 1 539.756 134.006)" fill="#088484"/>
<rect width="4.9343" height="4.87115" transform="matrix(-1 0 0 1 529.887 143.749)" fill="#088484"/>
<rect width="4.9343" height="4.87115" transform="matrix(-1 0 0 1 510.15 148.62)" fill="#088484"/>
<rect width="9.86861" height="4.87115" transform="matrix(-1 0 0 1 520.018 134.006)" fill="#088484"/>
<rect width="9.86861" height="4.87115" transform="matrix(-1 0 0 1 544.69 143.749)" fill="#088484"/>
<rect width="9.86861" height="4.87115" transform="matrix(-1 0 0 1 490.412 134.006)" fill="#088484"/>
<rect width="9.86861" height="4.87115" transform="matrix(-1 0 0 1 500.281 148.62)" fill="#088484"/>
<rect width="9.86861" height="4.87115" transform="matrix(-1 0 0 1 480.544 143.749)" fill="#088484"/>
<rect width="9.86861" height="4.87115" transform="matrix(-1 0 0 1 441.07 148.62)" fill="#088484"/>
<rect width="9.86861" height="4.87115" transform="matrix(-1 0 0 1 412.905 143.749)" fill="#088484"/>
<rect width="9.86861" height="4.87115" transform="matrix(-1 0 0 1 388.584 143.749)" fill="#088484"/>
<rect width="14.8029" height="4.87115" transform="matrix(-1 0 0 1 460.807 134.006)" fill="#088484"/>
<rect width="14.8029" height="4.87115" transform="matrix(-1 0 0 1 465.741 143.749)" fill="#088484"/>
<rect width="4.9343" height="4.87115" transform="matrix(-1 0 0 1 470.675 134.006)" fill="#088484"/>
<rect width="4.9343" height="4.87115" transform="matrix(-1 0 0 1 475.61 148.62)" fill="#088484"/>
<rect width="29.6058" height="4.87115" transform="matrix(-1 0 0 1 431.201 134.006)" fill="#088484"/>
<rect width="29.6058" height="4.87115" transform="matrix(-1 0 0 1 446.004 143.749)" fill="#088484"/>
<rect width="29.6058" height="4.87115" transform="matrix(-1 0 0 1 515.084 143.749)" fill="#088484"/>
<rect width="9.86861" height="4.87115" transform="matrix(-1 0 0 1 386.792 134.006)" fill="#088484"/>
<rect width="4.9343" height="4.87115" transform="matrix(-1 0 0 1 367.055 134.006)" fill="#088484"/>
<rect width="4.9343" height="4.87115" transform="matrix(-1 0 0 1 362.121 143.749)" fill="#088484"/>
<rect width="192.438" height="4.87115" transform="matrix(-1 0 0 1 357.186 138.877)" fill="#088484"/>
<rect width="4.9343" height="4.87115" transform="matrix(-1 0 0 1 347.318 134.006)" fill="#088484"/>
<rect width="4.9343" height="4.87115" transform="matrix(-1 0 0 1 337.449 143.749)" fill="#088484"/>
<rect width="4.9343" height="4.87115" transform="matrix(-1 0 0 1 317.712 148.62)" fill="#088484"/>
<rect width="9.86861" height="4.87115" transform="matrix(-1 0 0 1 327.581 134.006)" fill="#088484"/>
<rect width="24.3333" height="4.87115" transform="matrix(-1 0 0 1 358.64 143.749)" fill="#088484"/>
<rect width="9.86861" height="4.87115" transform="matrix(-1 0 0 1 297.975 134.006)" fill="#088484"/>
<rect width="9.86861" height="4.87115" transform="matrix(-1 0 0 1 307.843 148.62)" fill="#088484"/>
<rect width="9.86861" height="4.87115" transform="matrix(-1 0 0 1 288.106 143.749)" fill="#088484"/>
<rect width="9.86861" height="4.87115" transform="matrix(-1 0 0 1 248.632 148.62)" fill="#088484"/>
<rect width="9.86861" height="4.87115" transform="matrix(-1 0 0 1 209.157 143.749)" fill="#088484"/>
<rect width="9.86861" height="4.87115" transform="matrix(-1 0 0 1 189.42 143.749)" fill="#088484"/>
<rect width="14.8029" height="4.87115" transform="matrix(-1 0 0 1 268.369 134.006)" fill="#088484"/>
<rect width="14.8029" height="4.87115" transform="matrix(-1 0 0 1 273.303 143.749)" fill="#088484"/>
<rect width="4.9343" height="4.87115" transform="matrix(-1 0 0 1 278.237 134.006)" fill="#088484"/>
<rect width="4.9343" height="4.87115" transform="matrix(-1 0 0 1 283.172 148.62)" fill="#088484"/>
<rect width="29.6058" height="4.87115" transform="matrix(-1 0 0 1 238.763 134.006)" fill="#088484"/>
<rect width="29.6058" height="4.87115" transform="matrix(-1 0 0 1 253.566 143.749)" fill="#088484"/>
<rect width="29.6058" height="4.87115" transform="matrix(-1 0 0 1 322.646 143.749)" fill="#088484"/>
<rect width="9.86861" height="4.87115" transform="matrix(-1 0 0 1 194.354 134.006)" fill="#088484"/>
<rect width="4.9343" height="4.87115" transform="matrix(-1 0 0 1 174.617 134.006)" fill="#088484"/>
<rect width="4.9343" height="4.87115" transform="matrix(-1 0 0 1 169.683 143.749)" fill="#088484"/>
<rect width="181.229" height="4.86829" transform="matrix(-1 0 0 1 165.2 139)" fill="#088484"/>
<rect width="4.9343" height="4.87115" transform="matrix(-1 0 0 1 154.88 134.006)" fill="#088484"/>
<rect width="4.9343" height="4.87115" transform="matrix(-1 0 0 1 145.011 143.749)" fill="#088484"/>
<rect width="4.9343" height="4.87115" transform="matrix(-1 0 0 1 125.274 148.62)" fill="#088484"/>
<rect width="9.86861" height="4.87115" transform="matrix(-1 0 0 1 135.143 134.006)" fill="#088484"/>
<rect width="9.86861" height="4.87115" transform="matrix(-1 0 0 1 159.814 143.749)" fill="#088484"/>
<rect width="9.86861" height="4.87115" transform="matrix(-1 0 0 1 105.537 134.006)" fill="#088484"/>
<rect width="9.86861" height="4.87115" transform="matrix(-1 0 0 1 115.405 148.62)" fill="#088484"/>
<rect width="17.5043" height="4.87115" transform="matrix(-1 0 0 1 95.6681 143.749)" fill="#088484"/>
<rect width="9.86861" height="4.87115" transform="matrix(-1 0 0 1 56.1938 148.62)" fill="#088484"/>
<rect width="9.86861" height="4.87115" transform="matrix(-1 0 0 1 16.7195 143.749)" fill="#088484"/>
<rect width="14.8029" height="4.87115" transform="matrix(-1 0 0 1 75.9309 134.006)" fill="#088484"/>
<rect width="14.8029" height="4.87115" transform="matrix(-1 0 0 1 80.8652 143.749)" fill="#088484"/>
<rect width="4.9343" height="4.87115" transform="matrix(-1 0 0 1 85.7994 134.006)" fill="#088484"/>
<rect width="6.70038" height="4.87115" transform="matrix(-1 0 0 1 78.1639 148.62)" fill="#088484"/>
<rect width="29.6058" height="4.87115" transform="matrix(-1 0 0 1 46.3253 134.006)" fill="#088484"/>
<rect width="29.6058" height="4.87115" transform="matrix(-1 0 0 1 61.1282 143.749)" fill="#088484"/>
<rect width="29.6058" height="4.87115" transform="matrix(-1 0 0 1 130.208 143.749)" fill="#088484"/>
<rect width="9.86861" height="4.87115" transform="matrix(-1 0 0 1 1.9165 134.006)" fill="#088484"/>
<rect x="1068.97" y="84.3123" width="55.034" height="15.724" fill="#009E9E"/>
<rect x="1124" y="88.2433" width="11.793" height="11.793" fill="#009E9E"/>
<rect x="1068.97" y="84.3123" width="55.034" height="3.931" fill="#29B8B8" fill-opacity="0.962426"/>
<rect x="1124" y="88.2433" width="11.793" height="3.931" fill="#29B8B8" fill-opacity="0.962426"/>
<rect x="1096.49" y="88.2433" width="11.793" height="3.931" fill="#29B8B8" fill-opacity="0.962426"/>
<rect x="1082.73" y="80.3813" width="11.793" height="3.931" fill="#29B8B8" fill-opacity="0.962426"/>
<rect x="1112.21" y="80.3813" width="11.793" height="3.931" fill="#29B8B8" fill-opacity="0.962426"/>
<rect x="1072.9" y="88.2433" width="11.793" height="3.931" fill="#29B8B8" fill-opacity="0.962426"/>
<rect x="1076.83" y="92.1743" width="3.931" height="3.931" fill="#29B8B8" fill-opacity="0.962426"/>
<rect x="1112.21" y="88.2433" width="3.931" height="3.931" fill="#29B8B8" fill-opacity="0.962426"/>
<rect x="1124" y="92.1743" width="3.931" height="3.931" fill="#29B8B8" fill-opacity="0.962426"/>
<rect width="55.034" height="15.724" transform="matrix(-1 0 0 1 819.798 84.3182)" fill="#009E9E"/>
<rect width="11.793" height="11.793" transform="matrix(-1 0 0 1 764.764 88.2493)" fill="#009E9E"/>
<rect width="55.034" height="3.931" transform="matrix(-1 0 0 1 819.798 84.3182)" fill="#29B8B8" fill-opacity="0.962426"/>
<rect width="11.793" height="3.931" transform="matrix(-1 0 0 1 764.764 88.2493)" fill="#29B8B8" fill-opacity="0.962426"/>
<rect width="11.793" height="3.931" transform="matrix(-1 0 0 1 792.281 88.2493)" fill="#29B8B8" fill-opacity="0.962426"/>
<rect width="11.793" height="3.931" transform="matrix(-1 0 0 1 806.039 80.3873)" fill="#29B8B8" fill-opacity="0.962426"/>
<rect width="11.793" height="3.931" transform="matrix(-1 0 0 1 776.557 80.3873)" fill="#29B8B8" fill-opacity="0.962426"/>
<rect width="11.793" height="3.931" transform="matrix(-1 0 0 1 815.867 88.2493)" fill="#29B8B8" fill-opacity="0.962426"/>
<rect width="3.931" height="3.931" transform="matrix(-1 0 0 1 811.936 92.1802)" fill="#29B8B8" fill-opacity="0.962426"/>
<rect width="3.931" height="3.931" transform="matrix(-1 0 0 1 776.557 88.2493)" fill="#29B8B8" fill-opacity="0.962426"/>
<rect width="3.931" height="3.931" transform="matrix(-1 0 0 1 764.764 92.1802)" fill="#29B8B8" fill-opacity="0.962426"/>
<rect width="49.4508" height="14.1288" transform="matrix(-1 0 0 1 117.018 85.9135)" fill="#009E9E"/>
<rect width="10.5966" height="10.5966" transform="matrix(-1 0 0 1 67.5674 89.4457)" fill="#009E9E"/>
<rect width="49.4508" height="3.5322" transform="matrix(-1 0 0 1 117.018 85.9135)" fill="#29B8B8" fill-opacity="0.962426"/>
<rect width="10.5966" height="3.5322" transform="matrix(-1 0 0 1 67.5674 89.4457)" fill="#29B8B8" fill-opacity="0.962426"/>
<rect width="10.5966" height="3.5322" transform="matrix(-1 0 0 1 92.2928 89.4457)" fill="#29B8B8" fill-opacity="0.962426"/>
<rect width="10.5966" height="3.5322" transform="matrix(-1 0 0 1 104.656 82.3813)" fill="#29B8B8" fill-opacity="0.962426"/>
<rect width="10.5966" height="3.5322" transform="matrix(-1 0 0 1 78.1639 82.3813)" fill="#29B8B8" fill-opacity="0.962426"/>
<rect width="10.5966" height="3.5322" transform="matrix(-1 0 0 1 113.486 89.4457)" fill="#29B8B8" fill-opacity="0.962426"/>
<rect width="3.5322" height="3.5322" transform="matrix(-1 0 0 1 109.954 92.9778)" fill="#29B8B8" fill-opacity="0.962426"/>
<rect width="3.5322" height="3.5322" transform="matrix(-1 0 0 1 78.1639 89.4457)" fill="#29B8B8" fill-opacity="0.962426"/>
<rect width="3.5322" height="3.5322" transform="matrix(-1 0 0 1 67.5674 92.9778)" fill="#29B8B8" fill-opacity="0.962426"/>
<rect width="55.034" height="19.655" transform="matrix(-1 0 0 1 1334.8 80.3873)" fill="#009E9E"/>
<rect width="11.793" height="11.793" transform="matrix(-1 0 0 1 1279.76 88.2493)" fill="#009E9E"/>
<rect width="11.793" height="11.793" transform="matrix(-1 0 0 1 1346.59 88.2493)" fill="#009E9E"/>
<rect width="7.862" height="7.862" transform="matrix(-1 0 0 1 1354.45 92.1803)" fill="#009E9E"/>
<rect width="55.034" height="3.931" transform="matrix(-1 0 0 1 1334.8 80.3873)" fill="#29B8B8" fill-opacity="0.962426"/>
<rect width="11.793" height="3.931" transform="matrix(-1 0 0 1 1279.76 88.2493)" fill="#29B8B8" fill-opacity="0.962426"/>
<rect width="15.724" height="3.931" transform="matrix(-1 0 0 1 1307.28 88.2493)" fill="#29B8B8" fill-opacity="0.962426"/>
<rect width="11.793" height="3.931" transform="matrix(-1 0 0 1 1346.59 88.2493)" fill="#29B8B8" fill-opacity="0.962426"/>
<rect width="11.793" height="3.931" transform="matrix(-1 0 0 1 1307.28 84.3184)" fill="#29B8B8" fill-opacity="0.962426"/>
<rect width="11.793" height="3.931" transform="matrix(-1 0 0 1 1314.16 76.4563)" fill="#29B8B8" fill-opacity="0.962426"/>
<rect width="11.793" height="3.931" transform="matrix(-1 0 0 1 1325.95 76.4563)" fill="#29B8B8" fill-opacity="0.962426"/>
<rect width="11.793" height="3.931" transform="matrix(-1 0 0 1 1330.87 84.3184)" fill="#29B8B8" fill-opacity="0.962426"/>
<rect width="3.931" height="3.931" transform="matrix(-1 0 0 1 1279.76 92.1803)" fill="#29B8B8" fill-opacity="0.962426"/>
<rect width="3.931" height="3.931" transform="matrix(-1 0 0 1 1334.8 84.3184)" fill="#29B8B8" fill-opacity="0.962426"/>
<rect width="3.931" height="3.931" transform="matrix(-1 0 0 1 1291.56 84.3184)" fill="#29B8B8" fill-opacity="0.962426"/>
<rect width="3.931" height="3.931" transform="matrix(-1 0 0 1 1338.73 92.1803)" fill="#29B8B8" fill-opacity="0.962426"/>
<rect width="11.793" height="11.793" transform="matrix(-1 0 0 1 1015.57 88.2493)" fill="#009E9E"/>
<rect width="11.793" height="11.793" transform="matrix(-1 0 0 1 1027.37 88.2493)" fill="#009E9E"/>
<rect width="7.862" height="7.862" transform="matrix(-1 0 0 1 1035.23 92.1804)" fill="#009E9E"/>
<rect width="11.793" height="3.931" transform="matrix(-1 0 0 1 1015.57 88.2493)" fill="#29B8B8" fill-opacity="0.962426"/>
<rect width="11.793" height="3.931" transform="matrix(-1 0 0 1 1027.37 88.2493)" fill="#29B8B8" fill-opacity="0.962426"/>
<rect width="3.931" height="3.931" transform="matrix(-1 0 0 1 1015.57 92.1804)" fill="#29B8B8" fill-opacity="0.962426"/>
<rect width="3.931" height="3.931" transform="matrix(-1 0 0 1 1007.71 92.1804)" fill="#29B8B8" fill-opacity="0.962426"/>
<rect width="3.931" height="3.931" transform="matrix(-1 0 0 1 1019.51 92.1804)" fill="#29B8B8" fill-opacity="0.962426"/>
<rect width="3.931" height="3.931" transform="matrix(-1 0 0 1 1023.44 84.3183)" fill="#29B8B8" fill-opacity="0.962426"/>
<rect width="3.931" height="3.931" transform="matrix(-1 0 0 1 1019.51 84.3183)" fill="#29B8B8" fill-opacity="0.962426"/>
<rect x="992.971" y="96.1113" width="10.8102" height="3.931" fill="#009E9E"/>
<rect x="1480.67" y="88.2965" width="11.7457" height="11.7457" fill="#009E9E"/>
<rect x="1468.92" y="88.2965" width="11.7457" height="11.7457" fill="#009E9E"/>
<rect x="1461.09" y="92.2118" width="7.83049" height="7.83049" fill="#009E9E"/>
<rect x="1480.67" y="88.2965" width="11.7457" height="3.91525" fill="#29B8B8" fill-opacity="0.962426"/>
<rect x="1468.92" y="88.2965" width="11.7457" height="3.91525" fill="#29B8B8" fill-opacity="0.962426"/>
<rect x="1480.67" y="92.2118" width="3.91525" height="3.91525" fill="#29B8B8" fill-opacity="0.962426"/>
<rect x="1488.5" y="92.2118" width="3.91525" height="3.91525" fill="#29B8B8" fill-opacity="0.962426"/>
<rect x="1476.75" y="92.2118" width="3.91525" height="3.91525" fill="#29B8B8" fill-opacity="0.962426"/>
<rect x="1472.84" y="84.3813" width="3.91525" height="3.91525" fill="#29B8B8" fill-opacity="0.962426"/>
<rect x="1476.75" y="84.3813" width="3.91525" height="3.91525" fill="#29B8B8" fill-opacity="0.962426"/>
<rect width="10.7669" height="3.91525" transform="matrix(-1 0 0 1 1503.18 96.127)" fill="#009E9E"/>
<rect width="48.1529" height="17.1975" transform="matrix(-1 0 0 1 341.442 82.8449)" fill="#009E9E"/>
<rect width="10.3185" height="10.3185" transform="matrix(-1 0 0 1 293.289 89.7238)" fill="#009E9E"/>
<rect width="10.3185" height="10.3185" transform="matrix(-1 0 0 1 351.761 89.7238)" fill="#009E9E"/>
<rect width="6.87898" height="6.87898" transform="matrix(-1 0 0 1 358.64 93.1633)" fill="#009E9E"/>
<rect width="48.1529" height="3.43949" transform="matrix(-1 0 0 1 341.442 82.8449)" fill="#29B8B8" fill-opacity="0.962426"/>
<rect width="10.3185" height="3.43949" transform="matrix(-1 0 0 1 293.289 89.7238)" fill="#29B8B8" fill-opacity="0.962426"/>
<rect width="13.758" height="3.43949" transform="matrix(-1 0 0 1 358.64 93.1633)" fill="#29B8B8" fill-opacity="0.962426"/>
<rect width="10.3185" height="3.43949" transform="matrix(-1 0 0 1 351.761 89.7238)" fill="#29B8B8" fill-opacity="0.962426"/>
<rect width="10.3185" height="3.43949" transform="matrix(-1 0 0 1 317.366 86.2844)" fill="#29B8B8" fill-opacity="0.962426"/>
<rect width="23.2166" height="3.43949" transform="matrix(-1 0 0 1 323.385 79.4054)" fill="#29B8B8" fill-opacity="0.962426"/>
<rect width="10.3185" height="3.43949" transform="matrix(-1 0 0 1 333.703 79.4054)" fill="#29B8B8" fill-opacity="0.962426"/>
<rect width="10.3185" height="3.43949" transform="matrix(-1 0 0 1 338.003 86.2844)" fill="#29B8B8" fill-opacity="0.962426"/>
<rect width="10.3185" height="3.43949" transform="matrix(-1 0 0 1 327.684 75.9659)" fill="#29B8B8" fill-opacity="0.962426"/>
<rect width="3.43949" height="3.43949" transform="matrix(-1 0 0 1 293.289 93.1633)" fill="#29B8B8" fill-opacity="0.962426"/>
<rect width="3.43949" height="3.43949" transform="matrix(-1 0 0 1 303.608 86.2844)" fill="#29B8B8" fill-opacity="0.962426"/>
<rect width="3.43949" height="3.43949" transform="matrix(-1 0 0 1 344.882 93.1633)" fill="#29B8B8" fill-opacity="0.962426"/>
<rect x="-16.0293" y="100.028" width="950" height="41" fill="#2FBABB"/>
<rect x="-16.0293" y="121.028" width="950" height="20" fill="#088484"/>
<rect x="-16.0293" y="119.393" width="192.438" height="4.87115" fill="#009E9E"/>
<rect x="3.70801" y="124.264" width="4.9343" height="4.87115" fill="#009E9E"/>
<rect x="23.4453" y="129.135" width="4.9343" height="4.87115" fill="#009E9E"/>
<rect x="13.5767" y="114.521" width="9.86861" height="4.87115" fill="#009E9E"/>
<rect x="43.1824" y="114.521" width="9.86861" height="4.87115" fill="#009E9E"/>
<rect x="33.3138" y="129.135" width="9.86861" height="4.87115" fill="#009E9E"/>
<rect x="53.051" y="124.264" width="9.86861" height="4.87115" fill="#009E9E"/>
<rect x="92.5254" y="129.135" width="9.86861" height="4.87115" fill="#009E9E"/>
<rect x="132" y="124.264" width="9.86861" height="4.87115" fill="#009E9E"/>
<rect x="151.737" y="124.264" width="9.86861" height="4.87115" fill="#009E9E"/>
<rect x="72.7883" y="114.521" width="14.8029" height="4.87115" fill="#009E9E"/>
<rect x="67.854" y="124.264" width="14.8029" height="4.87115" fill="#009E9E"/>
<rect x="62.9196" y="114.521" width="4.9343" height="4.87115" fill="#009E9E"/>
<rect x="57.9854" y="129.135" width="4.9343" height="4.87115" fill="#009E9E"/>
<rect x="102.394" y="114.521" width="29.6058" height="4.87115" fill="#009E9E"/>
<rect x="87.5911" y="124.264" width="29.6058" height="4.87115" fill="#009E9E"/>
<rect x="18.511" y="124.264" width="29.6058" height="4.87115" fill="#009E9E"/>
<rect x="146.803" y="114.521" width="9.86861" height="4.87115" fill="#009E9E"/>
<rect x="166.54" y="114.521" width="4.9343" height="4.87115" fill="#009E9E"/>
<rect x="171.474" y="124.264" width="4.9343" height="4.87115" fill="#009E9E"/>
<rect x="176.409" y="119.392" width="192.438" height="4.87115" fill="#009E9E"/>
<rect x="186.277" y="114.521" width="4.9343" height="4.87115" fill="#009E9E"/>
<rect x="196.146" y="124.263" width="4.9343" height="4.87115" fill="#009E9E"/>
<rect x="215.883" y="129.135" width="4.9343" height="4.87115" fill="#009E9E"/>
<rect x="206.015" y="114.521" width="9.86861" height="4.87115" fill="#009E9E"/>
<rect x="181.343" y="124.263" width="9.86861" height="4.87115" fill="#009E9E"/>
<rect x="235.62" y="114.521" width="9.86861" height="4.87115" fill="#009E9E"/>
<rect x="225.752" y="129.135" width="9.86861" height="4.87115" fill="#009E9E"/>
<rect x="245.489" y="124.263" width="9.86861" height="4.87115" fill="#009E9E"/>
<rect x="284.963" y="129.135" width="9.86861" height="4.87115" fill="#009E9E"/>
<rect x="324.438" y="124.263" width="9.86861" height="4.87115" fill="#009E9E"/>
<rect x="344.175" y="124.263" width="9.86861" height="4.87115" fill="#009E9E"/>
<rect x="265.226" y="114.521" width="14.8029" height="4.87115" fill="#009E9E"/>
<rect x="260.292" y="124.263" width="14.8029" height="4.87115" fill="#009E9E"/>
<rect x="255.358" y="114.521" width="4.9343" height="4.87115" fill="#009E9E"/>
<rect x="250.423" y="129.135" width="4.9343" height="4.87115" fill="#009E9E"/>
<rect x="294.832" y="114.521" width="29.6058" height="4.87115" fill="#009E9E"/>
<rect x="280.029" y="124.263" width="29.6058" height="4.87115" fill="#009E9E"/>
<rect x="210.949" y="124.263" width="29.6058" height="4.87115" fill="#009E9E"/>
<rect x="339.241" y="114.521" width="9.86861" height="4.87115" fill="#009E9E"/>
<rect x="358.978" y="114.521" width="4.9343" height="4.87115" fill="#009E9E"/>
<rect x="363.912" y="124.263" width="4.9343" height="4.87115" fill="#009E9E"/>
<rect x="368.846" y="119.392" width="192.438" height="4.87115" fill="#009E9E"/>
<rect x="378.715" y="114.521" width="4.9343" height="4.87115" fill="#009E9E"/>
<rect x="388.584" y="124.264" width="4.9343" height="4.87115" fill="#009E9E"/>
<rect x="408.321" y="129.135" width="4.9343" height="4.87115" fill="#009E9E"/>
<rect x="398.452" y="114.521" width="9.86861" height="4.87115" fill="#009E9E"/>
<rect x="373.781" y="124.264" width="9.86861" height="4.87115" fill="#009E9E"/>
<rect x="428.058" y="114.521" width="9.86861" height="4.87115" fill="#009E9E"/>
<rect x="418.19" y="129.135" width="9.86861" height="4.87115" fill="#009E9E"/>
<rect x="437.927" y="124.264" width="9.86861" height="4.87115" fill="#009E9E"/>
<rect x="477.401" y="129.135" width="9.86861" height="4.87115" fill="#009E9E"/>
<rect x="516.876" y="124.264" width="9.86861" height="4.87115" fill="#009E9E"/>
<rect x="536.613" y="124.264" width="9.86861" height="4.87115" fill="#009E9E"/>
<rect x="457.664" y="114.521" width="14.8029" height="4.87115" fill="#009E9E"/>
<rect x="452.73" y="124.264" width="14.8029" height="4.87115" fill="#009E9E"/>
<rect x="447.796" y="114.521" width="4.9343" height="4.87115" fill="#009E9E"/>
<rect x="442.861" y="129.135" width="4.9343" height="4.87115" fill="#009E9E"/>
<rect x="487.27" y="114.521" width="29.6058" height="4.87115" fill="#009E9E"/>
<rect x="472.467" y="124.264" width="29.6058" height="4.87115" fill="#009E9E"/>
<rect x="403.387" y="124.264" width="29.6058" height="4.87115" fill="#009E9E"/>
<rect x="531.678" y="114.521" width="9.86861" height="4.87115" fill="#009E9E"/>
<rect x="551.416" y="114.521" width="4.9343" height="4.87115" fill="#009E9E"/>
<rect x="556.35" y="124.264" width="4.9343" height="4.87115" fill="#009E9E"/>
<rect x="561.284" y="119.392" width="192.438" height="4.87115" fill="#009E9E"/>
<rect x="571.153" y="114.521" width="4.9343" height="4.87115" fill="#009E9E"/>
<rect x="581.022" y="124.264" width="4.9343" height="4.87115" fill="#009E9E"/>
<rect x="600.759" y="129.135" width="4.9343" height="4.87115" fill="#009E9E"/>
<rect x="590.89" y="114.521" width="9.86861" height="4.87115" fill="#009E9E"/>
<rect x="566.219" y="124.264" width="9.86861" height="4.87115" fill="#009E9E"/>
<rect x="620.496" y="114.521" width="9.86861" height="4.87115" fill="#009E9E"/>
<rect x="610.628" y="129.135" width="9.86861" height="4.87115" fill="#009E9E"/>
<rect x="630.365" y="124.264" width="9.86861" height="4.87115" fill="#009E9E"/>
<rect x="669.839" y="129.135" width="9.86861" height="4.87115" fill="#009E9E"/>
<rect x="709.313" y="124.264" width="9.86861" height="4.87115" fill="#009E9E"/>
<rect x="729.051" y="124.264" width="9.86861" height="4.87115" fill="#009E9E"/>
<rect x="650.102" y="114.521" width="14.8029" height="4.87115" fill="#009E9E"/>
<rect x="645.168" y="124.264" width="14.8029" height="4.87115" fill="#009E9E"/>
<rect x="640.233" y="114.521" width="4.9343" height="4.87115" fill="#009E9E"/>
<rect x="635.299" y="129.135" width="4.9343" height="4.87115" fill="#009E9E"/>
<rect x="679.707" y="114.521" width="29.6058" height="4.87115" fill="#009E9E"/>
<rect x="664.905" y="124.264" width="29.6058" height="4.87115" fill="#009E9E"/>
<rect x="595.825" y="124.264" width="29.6058" height="4.87115" fill="#009E9E"/>
<rect x="724.116" y="114.521" width="9.86861" height="4.87115" fill="#009E9E"/>
<rect x="743.854" y="114.521" width="4.9343" height="4.87115" fill="#009E9E"/>
<rect x="748.788" y="124.264" width="4.9343" height="4.87115" fill="#009E9E"/>
<rect x="753.271" y="119.516" width="181.229" height="4.86829" fill="#009E9E"/>
<rect x="763.591" y="114.521" width="4.9343" height="4.87115" fill="#009E9E"/>
<rect x="773.459" y="124.264" width="4.9343" height="4.87115" fill="#009E9E"/>
<rect x="793.197" y="129.135" width="4.9343" height="4.87115" fill="#009E9E"/>
<rect x="783.328" y="114.521" width="9.86861" height="4.87115" fill="#009E9E"/>
<rect x="758.656" y="124.264" width="9.86861" height="4.87115" fill="#009E9E"/>
<rect x="812.934" y="114.521" width="9.86861" height="4.87115" fill="#009E9E"/>
<rect x="803.065" y="129.135" width="9.86861" height="4.87115" fill="#009E9E"/>
<rect x="822.802" y="124.264" width="9.86861" height="4.87115" fill="#009E9E"/>
<rect x="862.277" y="129.135" width="9.86861" height="4.87115" fill="#009E9E"/>
<rect x="901.751" y="124.264" width="9.86861" height="4.87115" fill="#009E9E"/>
<rect x="921.488" y="124.264" width="9.86861" height="4.87115" fill="#009E9E"/>
<rect x="842.54" y="114.521" width="14.8029" height="4.87115" fill="#009E9E"/>
<rect x="837.605" y="124.264" width="14.8029" height="4.87115" fill="#009E9E"/>
<rect x="832.671" y="114.521" width="4.9343" height="4.87115" fill="#009E9E"/>
<rect x="827.737" y="129.135" width="4.9343" height="4.87115" fill="#009E9E"/>
<rect x="872.145" y="114.521" width="29.6058" height="4.87115" fill="#009E9E"/>
<rect x="857.342" y="124.264" width="29.6058" height="4.87115" fill="#009E9E"/>
<rect x="788.262" y="124.264" width="29.6058" height="4.87115" fill="#009E9E"/>
<rect x="916.554" y="114.521" width="9.86861" height="4.87115" fill="#009E9E"/>
<rect x="425.168" y="89.7238" width="10.3185" height="10.3185" fill="#009E9E"/>
<rect x="414.85" y="89.7238" width="10.3185" height="10.3185" fill="#009E9E"/>
<rect x="407.971" y="93.1633" width="6.87898" height="6.87898" fill="#009E9E"/>
<rect x="425.168" y="89.7238" width="10.3185" height="3.43949" fill="#29B8B8" fill-opacity="0.962426"/>
<rect x="414.85" y="89.7238" width="10.3185" height="3.43949" fill="#29B8B8" fill-opacity="0.962426"/>
<rect x="411.41" y="93.1633" width="3.43949" height="3.43949" fill="#29B8B8" fill-opacity="0.962426"/>
<rect x="432.047" y="93.1633" width="3.43949" height="3.43949" fill="#29B8B8" fill-opacity="0.962426"/>
<rect x="407.971" y="93.1633" width="3.43949" height="3.43949" fill="#29B8B8" fill-opacity="0.962426"/>
<rect x="418.289" y="86.2843" width="3.43949" height="3.43949" fill="#29B8B8" fill-opacity="0.962426"/>
<rect x="421.729" y="86.2843" width="3.43949" height="3.43949" fill="#29B8B8" fill-opacity="0.962426"/>
<rect width="7.73885" height="3.43949" transform="matrix(-1 0 0 1 443.226 96.6028)" fill="#009E9E"/>
<rect x="570.372" y="12.2975" width="19.8603" height="23.8324" fill="#A8E7F4"/>
<rect x="530.651" y="8.3252" width="3.97206" height="3.97206" fill="#026262"/>
<rect x="534.623" y="12.2975" width="3.97206" height="3.97206" fill="#026262"/>
<rect x="538.595" y="12.2975" width="3.97206" height="3.97206" fill="#026262"/>
<rect x="542.567" y="12.2975" width="3.97206" height="3.97206" fill="#026262"/>
<rect x="546.539" y="12.2975" width="3.97206" height="3.97206" fill="#026262"/>
<rect x="542.567" y="8.3252" width="3.97206" height="3.97206" fill="#026262"/>
<rect x="546.539" y="8.3252" width="3.97206" height="3.97206" fill="#026262"/>
<rect x="550.511" y="8.3252" width="3.97206" height="3.97206" fill="#026262"/>
<rect x="554.483" y="8.3252" width="3.97206" height="3.97206" fill="#026262"/>
<rect x="562.427" y="16.2692" width="3.97206" height="3.97206" fill="#026262"/>
<rect x="562.427" y="20.2415" width="3.97206" height="3.97206" fill="#026262"/>
<rect x="550.511" y="4.35339" width="3.97206" height="3.97206" fill="#026262"/>
<rect x="566.399" y="16.2692" width="3.97206" height="3.97206" fill="#026262"/>
<rect x="566.399" y="24.2136" width="3.97206" height="3.97206" fill="#026262"/>
<rect x="566.399" y="20.2415" width="3.97206" height="3.97206" fill="#026262"/>
<rect x="554.483" y="4.35339" width="3.97206" height="3.97206" fill="#026262"/>
<rect x="566.399" y="28.1859" width="3.97206" height="3.97206" fill="#026262"/>
<rect x="546.539" y="4.35339" width="3.97206" height="3.97206" fill="#026262"/>
<rect x="562.427" y="12.2975" width="3.97206" height="3.97206" fill="#026262"/>
<rect x="566.399" y="12.2975" width="3.97206" height="3.97206" fill="#026262"/>
<rect x="566.399" y="8.3252" width="3.97206" height="3.97206" fill="#026262"/>
<rect x="562.427" y="4.35339" width="3.97206" height="3.97206" fill="#026262"/>
<rect x="554.483" y="0.381287" width="3.97206" height="3.97206" fill="#026262"/>
<rect x="558.455" y="0.381287" width="3.97206" height="3.97206" fill="#026262"/>
<rect x="562.427" y="0.381287" width="3.97206" height="3.97206" fill="#026262"/>
<rect x="558.455" y="4.35339" width="3.97206" height="3.97206" fill="#026262"/>
<rect x="570.372" y="8.3252" width="3.97206" height="3.97206" fill="#026262"/>
<rect x="586.26" y="20.2415" width="3.97206" height="3.97206" fill="#29B8B8" fill-opacity="0.962426"/>
<rect x="582.288" y="28.1859" width="3.97206" height="3.97206" fill="#009E9E"/>
<rect x="574.344" y="20.2415" width="3.97206" height="3.97206" fill="#29B8B8" fill-opacity="0.962426"/>
<rect x="570.372" y="12.2975" width="3.97206" height="3.97206" fill="#026262"/>
<rect x="578.315" y="8.3252" width="3.97206" height="3.97206" fill="#026262"/>
<rect x="586.26" y="8.3252" width="3.97206" height="3.97206" fill="#026262"/>
<rect x="590.232" y="8.3252" width="3.97206" height="3.97206" fill="#026262"/>
<rect x="574.344" y="4.35339" width="3.97206" height="3.97206" fill="#026262"/>
<rect x="578.315" y="4.35339" width="3.97206" height="3.97206" fill="#026262"/>
<rect x="574.344" y="8.3252" width="3.97206" height="3.97206" fill="#026262"/>
<rect x="570.372" y="4.35339" width="3.97206" height="3.97206" fill="#026262"/>
<rect x="582.288" y="4.35339" width="3.97206" height="3.97206" fill="#026262"/>
<rect x="586.26" y="4.35339" width="3.97206" height="3.97206" fill="#026262"/>
<rect x="582.288" y="8.3252" width="3.97206" height="3.97206" fill="#026262"/>
<rect x="566.399" y="4.35339" width="3.97206" height="3.97206" fill="#29B8B8" fill-opacity="0.962426"/>
<rect x="562.427" y="8.3252" width="3.97206" height="3.97206" fill="#29B8B8" fill-opacity="0.962426"/>
<rect x="574.344" y="36.1298" width="7.94413" height="11.9162" fill="#A8E7F4"/>
<rect x="570.372" y="48.0463" width="15.8883" height="15.8883" fill="#29B8B8" fill-opacity="0.962426"/>
<rect x="582.288" y="40.1021" width="3.97206" height="7.94413" fill="#29B8B8" fill-opacity="0.962426"/>
<rect x="570.372" y="40.1021" width="3.97206" height="7.94413" fill="#29B8B8" fill-opacity="0.962426"/>
<rect x="570.372" y="63.9346" width="15.8883" height="3.97206" fill="#A8E7F4"/>
<rect x="566.399" y="67.9067" width="19.8603" height="11.9162" fill="#026262"/>
<rect x="566.399" y="79.8229" width="7.94413" height="3.97206" fill="#017171"/>
<rect x="582.287" y="71.8785" width="7.94413" height="11.9162" fill="#026262"/>
<rect x="582.288" y="83.7948" width="7.94413" height="3.97206" fill="#A8E7F4"/>
<rect x="590.232" y="40.1021" width="7.94413" height="3.97206" transform="rotate(90 590.232 40.1021)" fill="#A8E7F4"/>
<rect x="570.372" y="40.1021" width="7.94413" height="3.97206" transform="rotate(90 570.372 40.1021)" fill="#A8E7F4"/>
<rect x="590.232" y="48.0463" width="7.94413" height="3.97206" fill="#A8E7F4"/>
<rect x="562.427" y="44.0742" width="7.94413" height="3.97206" fill="#A8E7F4"/>
<rect x="562.427" y="48.0463" width="7.94413" height="3.97206" transform="rotate(90 562.427 48.0463)" fill="#A8E7F4"/>
<rect x="566.399" y="83.7948" width="3.97206" height="3.97206" fill="#A8E7F4"/>
<rect x="586.26" y="87.767" width="3.97206" height="3.97206" fill="#A8E7F4"/>
<rect x="598.176" y="44.0742" width="3.97206" height="3.97206" fill="#A8E7F4"/>
<rect x="562.427" y="55.99" width="3.97206" height="3.97206" fill="#A8E7F4"/>
<rect x="562.427" y="83.7948" width="3.97206" height="3.97206" fill="#A8E7F4"/>
<rect x="558.455" y="83.7948" width="3.97206" height="7.94413" fill="#026262"/>
<rect x="586.26" y="95.711" width="3.97206" height="3.97206" transform="rotate(-90 586.26 95.711)" fill="#A8E7F4"/>
<rect x="586.26" y="99.6829" width="3.97206" height="7.94413" transform="rotate(-90 586.26 99.6829)" fill="#026262"/>
<rect width="192.438" height="4.87115" transform="matrix(-1 0 0 1 1884.03 138.878)" fill="#088484"/>
<rect width="9.86861" height="4.87115" transform="matrix(-1 0 0 1 1824.82 134.006)" fill="#088484"/>
<rect width="9.86861" height="4.87115" transform="matrix(-1 0 0 1 1834.69 148.62)" fill="#088484"/>
<rect width="9.86861" height="4.87115" transform="matrix(-1 0 0 1 1814.95 143.749)" fill="#088484"/>
<rect width="9.86861" height="4.87115" transform="matrix(-1 0 0 1 1775.47 148.62)" fill="#088484"/>
<rect width="9.86861" height="4.87115" transform="matrix(-1 0 0 1 1736 143.749)" fill="#088484"/>
<rect width="9.86861" height="4.87115" transform="matrix(-1 0 0 1 1716.26 143.749)" fill="#088484"/>
<rect width="14.8029" height="4.87115" transform="matrix(-1 0 0 1 1795.21 134.006)" fill="#088484"/>
<rect width="14.8029" height="4.87115" transform="matrix(-1 0 0 1 1800.15 143.749)" fill="#088484"/>
<rect width="4.9343" height="4.87115" transform="matrix(-1 0 0 1 1805.08 134.006)" fill="#088484"/>
<rect width="4.9343" height="4.87115" transform="matrix(-1 0 0 1 1810.01 148.62)" fill="#088484"/>
<rect width="29.6058" height="4.87115" transform="matrix(-1 0 0 1 1765.61 134.006)" fill="#088484"/>
<rect width="29.6058" height="4.87115" transform="matrix(-1 0 0 1 1780.41 143.749)" fill="#088484"/>
<rect width="29.6058" height="4.87115" transform="matrix(-1 0 0 1 1849.49 143.749)" fill="#088484"/>
<rect width="9.86861" height="4.87115" transform="matrix(-1 0 0 1 1721.2 134.006)" fill="#088484"/>
<rect width="4.9343" height="4.87115" transform="matrix(-1 0 0 1 1701.46 134.006)" fill="#088484"/>
<rect width="4.9343" height="4.87115" transform="matrix(-1 0 0 1 1696.53 143.749)" fill="#088484"/>
<rect width="192.438" height="4.87115" transform="matrix(-1 0 0 1 1691.59 138.877)" fill="#088484"/>
<rect width="4.9343" height="4.87115" transform="matrix(-1 0 0 1 1681.72 134.006)" fill="#088484"/>
<rect width="4.9343" height="4.87115" transform="matrix(-1 0 0 1 1671.85 143.748)" fill="#088484"/>
<rect width="4.9343" height="4.87115" transform="matrix(-1 0 0 1 1652.12 148.62)" fill="#088484"/>
<rect width="9.86861" height="4.87115" transform="matrix(-1 0 0 1 1661.99 134.006)" fill="#088484"/>
<rect width="9.86861" height="4.87115" transform="matrix(-1 0 0 1 1686.66 143.748)" fill="#088484"/>
<rect width="9.86861" height="4.87115" transform="matrix(-1 0 0 1 1632.38 134.006)" fill="#088484"/>
<rect width="9.86861" height="4.87115" transform="matrix(-1 0 0 1 1642.25 148.62)" fill="#088484"/>
<rect width="9.86861" height="4.87115" transform="matrix(-1 0 0 1 1622.51 143.748)" fill="#088484"/>
<rect width="9.86861" height="4.87115" transform="matrix(-1 0 0 1 1583.04 148.62)" fill="#088484"/>
<rect width="9.86861" height="4.87115" transform="matrix(-1 0 0 1 1543.56 143.748)" fill="#088484"/>
<rect width="9.86861" height="4.87115" transform="matrix(-1 0 0 1 1523.83 143.748)" fill="#088484"/>
<rect width="14.8029" height="4.87115" transform="matrix(-1 0 0 1 1602.77 134.006)" fill="#088484"/>
<rect width="14.8029" height="4.87115" transform="matrix(-1 0 0 1 1607.71 143.748)" fill="#088484"/>
<rect width="4.9343" height="4.87115" transform="matrix(-1 0 0 1 1612.64 134.006)" fill="#088484"/>
<rect width="4.9343" height="4.87115" transform="matrix(-1 0 0 1 1617.58 148.62)" fill="#088484"/>
<rect width="29.6058" height="4.87115" transform="matrix(-1 0 0 1 1573.17 134.006)" fill="#088484"/>
<rect width="29.6058" height="4.87115" transform="matrix(-1 0 0 1 1587.97 143.748)" fill="#088484"/>
<rect width="29.6058" height="4.87115" transform="matrix(-1 0 0 1 1657.05 143.748)" fill="#088484"/>
<rect width="9.86861" height="4.87115" transform="matrix(-1 0 0 1 1528.76 134.006)" fill="#088484"/>
<rect width="4.9343" height="4.87115" transform="matrix(-1 0 0 1 1509.02 134.006)" fill="#088484"/>
<rect width="4.9343" height="4.87115" transform="matrix(-1 0 0 1 1504.09 143.748)" fill="#088484"/>
<rect width="192.438" height="4.87115" transform="matrix(-1 0 0 1 1499.15 138.877)" fill="#088484"/>
<rect width="4.9343" height="4.87115" transform="matrix(-1 0 0 1 1489.29 134.006)" fill="#088484"/>
<rect width="4.9343" height="4.87115" transform="matrix(-1 0 0 1 1479.42 143.749)" fill="#088484"/>
<rect width="4.9343" height="4.87115" transform="matrix(-1 0 0 1 1459.68 148.62)" fill="#088484"/>
<rect width="9.86861" height="4.87115" transform="matrix(-1 0 0 1 1469.55 134.006)" fill="#088484"/>
<rect width="9.86861" height="4.87115" transform="matrix(-1 0 0 1 1494.22 143.749)" fill="#088484"/>
<rect width="9.86861" height="4.87115" transform="matrix(-1 0 0 1 1439.94 134.006)" fill="#088484"/>
<rect width="9.86861" height="4.87115" transform="matrix(-1 0 0 1 1449.81 148.62)" fill="#088484"/>
<rect width="9.86861" height="4.87115" transform="matrix(-1 0 0 1 1430.07 143.749)" fill="#088484"/>
<rect width="9.86861" height="4.87115" transform="matrix(-1 0 0 1 1390.6 148.62)" fill="#088484"/>
<rect width="9.86861" height="4.87115" transform="matrix(-1 0 0 1 1362.43 143.749)" fill="#088484"/>
<rect width="9.86861" height="4.87115" transform="matrix(-1 0 0 1 1338.11 143.749)" fill="#088484"/>
<rect width="14.8029" height="4.87115" transform="matrix(-1 0 0 1 1410.34 134.006)" fill="#088484"/>
<rect width="14.8029" height="4.87115" transform="matrix(-1 0 0 1 1415.27 143.749)" fill="#088484"/>
<rect width="4.9343" height="4.87115" transform="matrix(-1 0 0 1 1420.2 134.006)" fill="#088484"/>
<rect width="4.9343" height="4.87115" transform="matrix(-1 0 0 1 1425.14 148.62)" fill="#088484"/>
<rect width="29.6058" height="4.87115" transform="matrix(-1 0 0 1 1380.73 134.006)" fill="#088484"/>
<rect width="29.6058" height="4.87115" transform="matrix(-1 0 0 1 1395.53 143.749)" fill="#088484"/>
<rect width="29.6058" height="4.87115" transform="matrix(-1 0 0 1 1464.61 143.749)" fill="#088484"/>
<rect width="9.86861" height="4.87115" transform="matrix(-1 0 0 1 1336.32 134.006)" fill="#088484"/>
<rect width="4.9343" height="4.87115" transform="matrix(-1 0 0 1 1316.58 134.006)" fill="#088484"/>
<rect width="4.9343" height="4.87115" transform="matrix(-1 0 0 1 1311.65 143.749)" fill="#088484"/>
<rect width="192.438" height="4.87115" transform="matrix(-1 0 0 1 1306.72 138.877)" fill="#088484"/>
<rect width="4.9343" height="4.87115" transform="matrix(-1 0 0 1 1296.85 134.006)" fill="#088484"/>
<rect width="4.9343" height="4.87115" transform="matrix(-1 0 0 1 1286.98 143.749)" fill="#088484"/>
<rect width="4.9343" height="4.87115" transform="matrix(-1 0 0 1 1267.24 148.62)" fill="#088484"/>
<rect width="9.86861" height="4.87115" transform="matrix(-1 0 0 1 1277.11 134.006)" fill="#088484"/>
<rect width="24.3333" height="4.87115" transform="matrix(-1 0 0 1 1308.17 143.749)" fill="#088484"/>
<rect width="9.86861" height="4.87115" transform="matrix(-1 0 0 1 1247.5 134.006)" fill="#088484"/>
<rect width="9.86861" height="4.87115" transform="matrix(-1 0 0 1 1257.37 148.62)" fill="#088484"/>
<rect width="9.86861" height="4.87115" transform="matrix(-1 0 0 1 1237.64 143.749)" fill="#088484"/>
<rect width="9.86861" height="4.87115" transform="matrix(-1 0 0 1 1198.16 148.62)" fill="#088484"/>
<rect width="9.86861" height="4.87115" transform="matrix(-1 0 0 1 1158.69 143.749)" fill="#088484"/>
<rect width="9.86861" height="4.87115" transform="matrix(-1 0 0 1 1138.95 143.749)" fill="#088484"/>
<rect width="14.8029" height="4.87115" transform="matrix(-1 0 0 1 1217.9 134.006)" fill="#088484"/>
<rect width="14.8029" height="4.87115" transform="matrix(-1 0 0 1 1222.83 143.749)" fill="#088484"/>
<rect width="4.9343" height="4.87115" transform="matrix(-1 0 0 1 1227.77 134.006)" fill="#088484"/>
<rect width="4.9343" height="4.87115" transform="matrix(-1 0 0 1 1232.7 148.62)" fill="#088484"/>
<rect width="29.6058" height="4.87115" transform="matrix(-1 0 0 1 1188.29 134.006)" fill="#088484"/>
<rect width="29.6058" height="4.87115" transform="matrix(-1 0 0 1 1203.1 143.749)" fill="#088484"/>
<rect width="29.6058" height="4.87115" transform="matrix(-1 0 0 1 1272.18 143.749)" fill="#088484"/>
<rect width="9.86861" height="4.87115" transform="matrix(-1 0 0 1 1143.88 134.006)" fill="#088484"/>
<rect width="4.9343" height="4.87115" transform="matrix(-1 0 0 1 1124.15 134.006)" fill="#088484"/>
<rect width="4.9343" height="4.87115" transform="matrix(-1 0 0 1 1119.21 143.749)" fill="#088484"/>
<rect width="181.229" height="4.86829" transform="matrix(-1 0 0 1 1114.73 139)" fill="#088484"/>
<rect width="4.9343" height="4.87115" transform="matrix(-1 0 0 1 1104.41 134.006)" fill="#088484"/>
<rect width="4.9343" height="4.87115" transform="matrix(-1 0 0 1 1094.54 143.749)" fill="#088484"/>
<rect width="4.9343" height="4.87115" transform="matrix(-1 0 0 1 1074.8 148.62)" fill="#088484"/>
<rect width="9.86861" height="4.87115" transform="matrix(-1 0 0 1 1084.67 134.006)" fill="#088484"/>
<rect width="9.86861" height="4.87115" transform="matrix(-1 0 0 1 1109.34 143.749)" fill="#088484"/>
<rect width="9.86861" height="4.87115" transform="matrix(-1 0 0 1 1055.07 134.006)" fill="#088484"/>
<rect width="9.86861" height="4.87115" transform="matrix(-1 0 0 1 1064.93 148.62)" fill="#088484"/>
<rect width="17.5043" height="4.87115" transform="matrix(-1 0 0 1 1045.2 143.749)" fill="#088484"/>
<rect width="9.86861" height="4.87115" transform="matrix(-1 0 0 1 1005.72 148.62)" fill="#088484"/>
<rect width="9.86861" height="4.87115" transform="matrix(-1 0 0 1 966.249 143.749)" fill="#088484"/>
<rect width="13.0114" height="4.87115" transform="matrix(-1 0 0 1 946.512 143.749)" fill="#088484"/>
<rect width="14.8029" height="4.87115" transform="matrix(-1 0 0 1 1025.46 134.006)" fill="#088484"/>
<rect width="14.8029" height="4.87115" transform="matrix(-1 0 0 1 1030.39 143.749)" fill="#088484"/>
<rect width="4.9343" height="4.87115" transform="matrix(-1 0 0 1 1035.33 134.006)" fill="#088484"/>
<rect width="6.70038" height="4.87115" transform="matrix(-1 0 0 1 1027.69 148.62)" fill="#088484"/>
<rect width="29.6058" height="4.87115" transform="matrix(-1 0 0 1 995.855 134.006)" fill="#088484"/>
<rect width="29.6058" height="4.87115" transform="matrix(-1 0 0 1 1010.66 143.749)" fill="#088484"/>
<rect width="29.6058" height="4.87115" transform="matrix(-1 0 0 1 1079.74 143.749)" fill="#088484"/>
<rect width="9.86861" height="4.87115" transform="matrix(-1 0 0 1 951.446 134.006)" fill="#088484"/>
<rect x="933.5" y="100.028" width="950" height="41" fill="#2FBABB"/>
<rect x="933.5" y="121.028" width="950" height="20" fill="#088484"/>
<rect x="933.5" y="119.393" width="192.438" height="4.87115" fill="#009E9E"/>
<rect x="943.369" y="114.521" width="4.9343" height="4.87115" fill="#009E9E"/>
<rect x="953.237" y="124.264" width="4.9343" height="4.87115" fill="#009E9E"/>
<rect x="972.975" y="129.135" width="4.9343" height="4.87115" fill="#009E9E"/>
<rect x="963.106" y="114.521" width="9.86861" height="4.87115" fill="#009E9E"/>
<rect x="938.434" y="124.264" width="9.86861" height="4.87115" fill="#009E9E"/>
<rect x="992.712" y="114.521" width="9.86861" height="4.87115" fill="#009E9E"/>
<rect x="982.843" y="129.135" width="9.86861" height="4.87115" fill="#009E9E"/>
<rect x="1002.58" y="124.264" width="9.86861" height="4.87115" fill="#009E9E"/>
<rect x="1042.05" y="129.135" width="9.86861" height="4.87115" fill="#009E9E"/>
<rect x="1081.53" y="124.264" width="9.86861" height="4.87115" fill="#009E9E"/>
<rect x="1101.27" y="124.264" width="9.86861" height="4.87115" fill="#009E9E"/>
<rect x="1022.32" y="114.521" width="14.8029" height="4.87115" fill="#009E9E"/>
<rect x="1017.38" y="124.264" width="14.8029" height="4.87115" fill="#009E9E"/>
<rect x="1012.45" y="114.521" width="4.9343" height="4.87115" fill="#009E9E"/>
<rect x="1007.51" y="129.135" width="4.9343" height="4.87115" fill="#009E9E"/>
<rect x="1051.92" y="114.521" width="29.6058" height="4.87115" fill="#009E9E"/>
<rect x="1037.12" y="124.264" width="29.6058" height="4.87115" fill="#009E9E"/>
<rect x="968.04" y="124.264" width="29.6058" height="4.87115" fill="#009E9E"/>
<rect x="1096.33" y="114.521" width="9.86861" height="4.87115" fill="#009E9E"/>
<rect x="1116.07" y="114.521" width="4.9343" height="4.87115" fill="#009E9E"/>
<rect x="1121" y="124.264" width="4.9343" height="4.87115" fill="#009E9E"/>
<rect x="1125.94" y="119.392" width="192.438" height="4.87115" fill="#009E9E"/>
<rect x="1135.81" y="114.521" width="4.9343" height="4.87115" fill="#009E9E"/>
<rect x="1145.68" y="124.263" width="4.9343" height="4.87115" fill="#009E9E"/>
<rect x="1165.41" y="129.135" width="4.9343" height="4.87115" fill="#009E9E"/>
<rect x="1155.54" y="114.521" width="9.86861" height="4.87115" fill="#009E9E"/>
<rect x="1130.87" y="124.263" width="9.86861" height="4.87115" fill="#009E9E"/>
<rect x="1185.15" y="114.521" width="9.86861" height="4.87115" fill="#009E9E"/>
<rect x="1175.28" y="129.135" width="9.86861" height="4.87115" fill="#009E9E"/>
<rect x="1195.02" y="124.263" width="9.86861" height="4.87115" fill="#009E9E"/>
<rect x="1234.49" y="129.135" width="9.86861" height="4.87115" fill="#009E9E"/>
<rect x="1273.97" y="124.263" width="9.86861" height="4.87115" fill="#009E9E"/>
<rect x="1293.7" y="124.263" width="9.86861" height="4.87115" fill="#009E9E"/>
<rect x="1214.76" y="114.521" width="14.8029" height="4.87115" fill="#009E9E"/>
<rect x="1209.82" y="124.263" width="14.8029" height="4.87115" fill="#009E9E"/>
<rect x="1204.89" y="114.521" width="4.9343" height="4.87115" fill="#009E9E"/>
<rect x="1199.95" y="129.135" width="4.9343" height="4.87115" fill="#009E9E"/>
<rect x="1244.36" y="114.521" width="29.6058" height="4.87115" fill="#009E9E"/>
<rect x="1229.56" y="124.263" width="29.6058" height="4.87115" fill="#009E9E"/>
<rect x="1160.48" y="124.263" width="29.6058" height="4.87115" fill="#009E9E"/>
<rect x="1288.77" y="114.521" width="9.86861" height="4.87115" fill="#009E9E"/>
<rect x="1308.51" y="114.521" width="4.9343" height="4.87115" fill="#009E9E"/>
<rect x="1313.44" y="124.263" width="4.9343" height="4.87115" fill="#009E9E"/>
<rect x="1318.38" y="119.392" width="192.438" height="4.87115" fill="#009E9E"/>
<rect x="1328.24" y="114.521" width="4.9343" height="4.87115" fill="#009E9E"/>
<rect x="1338.11" y="124.264" width="4.9343" height="4.87115" fill="#009E9E"/>
<rect x="1357.85" y="129.135" width="4.9343" height="4.87115" fill="#009E9E"/>
<rect x="1347.98" y="114.521" width="9.86861" height="4.87115" fill="#009E9E"/>
<rect x="1323.31" y="124.264" width="9.86861" height="4.87115" fill="#009E9E"/>
<rect x="1377.59" y="114.521" width="9.86861" height="4.87115" fill="#009E9E"/>
<rect x="1367.72" y="129.135" width="9.86861" height="4.87115" fill="#009E9E"/>
<rect x="1387.46" y="124.264" width="9.86861" height="4.87115" fill="#009E9E"/>
<rect x="1426.93" y="129.135" width="9.86861" height="4.87115" fill="#009E9E"/>
<rect x="1466.4" y="124.264" width="9.86861" height="4.87115" fill="#009E9E"/>
<rect x="1486.14" y="124.264" width="9.86861" height="4.87115" fill="#009E9E"/>
<rect x="1407.19" y="114.521" width="14.8029" height="4.87115" fill="#009E9E"/>
<rect x="1402.26" y="124.264" width="14.8029" height="4.87115" fill="#009E9E"/>
<rect x="1397.32" y="114.521" width="4.9343" height="4.87115" fill="#009E9E"/>
<rect x="1392.39" y="129.135" width="4.9343" height="4.87115" fill="#009E9E"/>
<rect x="1436.8" y="114.521" width="29.6058" height="4.87115" fill="#009E9E"/>
<rect x="1422" y="124.264" width="29.6058" height="4.87115" fill="#009E9E"/>
<rect x="1352.92" y="124.264" width="29.6058" height="4.87115" fill="#009E9E"/>
<rect x="1481.21" y="114.521" width="9.86861" height="4.87115" fill="#009E9E"/>
<rect x="1500.95" y="114.521" width="4.9343" height="4.87115" fill="#009E9E"/>
<rect x="1505.88" y="124.264" width="4.9343" height="4.87115" fill="#009E9E"/>
<rect x="1510.81" y="119.392" width="192.438" height="4.87115" fill="#009E9E"/>
<rect x="1520.68" y="114.521" width="4.9343" height="4.87115" fill="#009E9E"/>
<rect x="1530.55" y="124.264" width="4.9343" height="4.87115" fill="#009E9E"/>
<rect x="1550.29" y="129.135" width="4.9343" height="4.87115" fill="#009E9E"/>
<rect x="1540.42" y="114.521" width="9.86861" height="4.87115" fill="#009E9E"/>
<rect x="1515.75" y="124.264" width="9.86861" height="4.87115" fill="#009E9E"/>
<rect x="1570.03" y="114.521" width="9.86861" height="4.87115" fill="#009E9E"/>
<rect x="1560.16" y="129.135" width="9.86861" height="4.87115" fill="#009E9E"/>
<rect x="1579.89" y="124.264" width="9.86861" height="4.87115" fill="#009E9E"/>
<rect x="1619.37" y="129.135" width="9.86861" height="4.87115" fill="#009E9E"/>
<rect x="1658.84" y="124.264" width="9.86861" height="4.87115" fill="#009E9E"/>
<rect x="1678.58" y="124.264" width="9.86861" height="4.87115" fill="#009E9E"/>
<rect x="1599.63" y="114.521" width="14.8029" height="4.87115" fill="#009E9E"/>
<rect x="1594.7" y="124.264" width="14.8029" height="4.87115" fill="#009E9E"/>
<rect x="1589.76" y="114.521" width="4.9343" height="4.87115" fill="#009E9E"/>
<rect x="1584.83" y="129.135" width="4.9343" height="4.87115" fill="#009E9E"/>
<rect x="1629.24" y="114.521" width="29.6058" height="4.87115" fill="#009E9E"/>
<rect x="1614.43" y="124.264" width="29.6058" height="4.87115" fill="#009E9E"/>
<rect x="1545.35" y="124.264" width="29.6058" height="4.87115" fill="#009E9E"/>
<rect x="1673.65" y="114.521" width="9.86861" height="4.87115" fill="#009E9E"/>
<rect x="1693.38" y="114.521" width="4.9343" height="4.87115" fill="#009E9E"/>
<rect x="1698.32" y="124.264" width="4.9343" height="4.87115" fill="#009E9E"/>
<rect x="1702.8" y="119.516" width="181.229" height="4.86829" fill="#009E9E"/>
<rect x="1713.12" y="114.521" width="4.9343" height="4.87115" fill="#009E9E"/>
<rect x="1722.99" y="124.264" width="4.9343" height="4.87115" fill="#009E9E"/>
<rect x="1742.73" y="129.135" width="4.9343" height="4.87115" fill="#009E9E"/>
<rect x="1732.86" y="114.521" width="9.86861" height="4.87115" fill="#009E9E"/>
<rect x="1708.19" y="124.264" width="9.86861" height="4.87115" fill="#009E9E"/>
<rect x="1762.46" y="114.521" width="9.86861" height="4.87115" fill="#009E9E"/>
<rect x="1752.59" y="129.135" width="9.86861" height="4.87115" fill="#009E9E"/>
<rect x="1772.33" y="124.264" width="9.86861" height="4.87115" fill="#009E9E"/>
<rect x="1811.81" y="129.135" width="9.86861" height="4.87115" fill="#009E9E"/>
<rect x="1792.07" y="114.521" width="14.8029" height="4.87115" fill="#009E9E"/>
<rect x="1787.13" y="124.264" width="14.8029" height="4.87115" fill="#009E9E"/>
<rect x="1782.2" y="114.521" width="4.9343" height="4.87115" fill="#009E9E"/>
<rect x="1777.27" y="129.135" width="4.9343" height="4.87115" fill="#009E9E"/>
<rect x="1821.67" y="114.521" width="29.6058" height="4.87115" fill="#009E9E"/>
<rect x="1806.87" y="124.264" width="29.6058" height="4.87115" fill="#009E9E"/>
<rect x="1737.79" y="124.264" width="29.6058" height="4.87115" fill="#009E9E"/>
<rect x="357.186" y="148.619" width="9.49841" height="4.3078" transform="rotate(90 357.186 148.619)" fill="#009E9E"/>
<rect width="9.49841" height="4.3078" transform="matrix(6.43669e-08 1 1 -2.96843e-08 300.442 151.561)" fill="#088484"/>
<rect width="6.11511" height="4.3078" transform="matrix(6.43669e-08 1 1 -2.96843e-08 296.134 161.06)" fill="#009E9E"/>
<rect x="361.494" y="158.118" width="6.11511" height="4.3078" transform="rotate(90 361.494 158.118)" fill="#2FBABB"/>
<rect width="9.84424" height="4.3078" transform="matrix(6.43669e-08 1 1 -2.96843e-08 202.069 148.619)" fill="#009E9E"/>
<rect width="9.49841" height="4.3078" transform="matrix(6.43669e-08 1 1 -2.96843e-08 174.907 149.631)" fill="#009E9E"/>
<rect width="5.42334" height="21.2883" transform="matrix(6.43669e-08 1 1 -2.96843e-08 168.132 148.957)" fill="#009E9E"/>
<rect width="5.42334" height="24.0764" transform="matrix(6.43669e-08 1 1 -2.96843e-08 163.519 143.533)" fill="#088484"/>
<rect width="7.92212" height="4.3078" transform="matrix(6.43669e-08 1 1 -2.96843e-08 185.112 145.284)" fill="#009E9E"/>
<rect width="7.92212" height="4.3078" transform="matrix(6.43669e-08 1 1 -2.96843e-08 172.753 144.995)" fill="#009E9E"/>
<rect x="1030.1" y="143.869" width="8.78192" height="9.31457" transform="rotate(90 1030.1 143.869)" fill="#088484"/>
<rect x="1030.1" y="152.651" width="8.78192" height="4.3078" transform="rotate(90 1030.1 152.651)" fill="#088484"/>
<rect x="1026.27" y="161.433" width="7.75787" height="4.3078" transform="rotate(90 1026.27 161.433)" fill="#009E9E"/>
<rect x="1041.19" y="148.619" width="9.49841" height="4.3078" transform="rotate(90 1041.19 148.619)" fill="#009E9E"/>
<rect width="9.49841" height="4.3078" transform="matrix(6.43669e-08 1 1 -2.96843e-08 961.941 148.62)" fill="#088484"/>
<rect width="6.11511" height="4.3078" transform="matrix(6.43669e-08 1 1 -2.96843e-08 957.633 158.118)" fill="#009E9E"/>
<rect x="1045.5" y="158.118" width="6.11511" height="4.3078" transform="rotate(90 1045.5 158.118)" fill="#2FBABB"/>
<rect width="9.84424" height="4.93417" transform="matrix(6.43669e-08 1 1 -2.96843e-08 885.157 148.619)" fill="#009E9E"/>
<rect width="9.49841" height="4.3078" transform="matrix(6.43669e-08 1 1 -2.96843e-08 858.912 149.631)" fill="#009E9E"/>
<rect width="5.42334" height="21.2883" transform="matrix(6.43669e-08 1 1 -2.96843e-08 852.137 148.344)" fill="#009E9E"/>
<rect width="5.08618" height="24.0764" transform="matrix(6.43669e-08 1 1 -2.96843e-08 847.195 143.533)" fill="#088484"/>
<rect width="8.48315" height="6.17096" transform="matrix(6.43669e-08 1 1 -2.96843e-08 869.117 145.284)" fill="#009E9E"/>
<rect width="7.92212" height="4.3078" transform="matrix(6.43669e-08 1 1 -2.96843e-08 856.758 144.995)" fill="#009E9E"/>
<rect width="8.78192" height="9.31457" transform="matrix(4.37114e-08 1 1 -4.37114e-08 1293.12 148.085)" fill="#088484"/>
<rect width="8.78192" height="4.3078" transform="matrix(6.43669e-08 1 1 -2.96843e-08 1293.12 156.867)" fill="#088484"/>
<rect width="7.75787" height="4.3078" transform="matrix(6.43669e-08 1 1 -2.96843e-08 1297.43 162.304)" fill="#009E9E"/>
<rect width="9.49841" height="4.3078" transform="matrix(6.43669e-08 1 1 -2.96843e-08 1282.03 148.085)" fill="#009E9E"/>
<rect x="1362.43" y="148.086" width="9.49841" height="4.3078" transform="rotate(90 1362.43 148.086)" fill="#088484"/>
<rect x="1366.74" y="157.584" width="6.11511" height="4.3078" transform="rotate(90 1366.74 157.584)" fill="#009E9E"/>
<rect width="6.11511" height="4.3078" transform="matrix(6.43669e-08 1 1 -2.96843e-08 1277.73 157.583)" fill="#2FBABB"/>
<rect x="1420.2" y="153.491" width="9.84424" height="4.93417" transform="rotate(90 1420.2 153.491)" fill="#009E9E"/>
<rect x="1507.17" y="149.846" width="9.49841" height="4.3078" transform="rotate(90 1507.17 149.846)" fill="#009E9E"/>
<rect x="1513.95" y="148.559" width="5.42334" height="21.2883" transform="rotate(90 1513.95 148.559)" fill="#009E9E"/>
<rect x="1518.89" y="143.748" width="5.08618" height="26.2301" transform="rotate(90 1518.89 143.748)" fill="#088484"/>
<rect x="1496.97" y="145.499" width="8.48315" height="6.17096" transform="rotate(90 1496.97 145.499)" fill="#009E9E"/>
<rect x="1509.33" y="145.211" width="7.92212" height="4.3078" transform="rotate(90 1509.33 145.211)" fill="#009E9E"/>
<rect x="1602.22" y="140.079" width="8.78192" height="9.31457" transform="rotate(90 1602.22 140.079)" fill="#088484"/>
<rect x="1602.22" y="148.861" width="8.78192" height="4.3078" transform="rotate(90 1602.22 148.861)" fill="#088484"/>
<rect x="1606.53" y="155.577" width="7.75787" height="4.3078" transform="rotate(90 1606.53 155.577)" fill="#009E9E"/>
</svg>
