<svg width="1825" height="171" viewBox="0 0 1825 171" fill="none" xmlns="http://www.w3.org/2000/svg">
<g clip-path="url(#clip0_274_926)">
<path d="M819.8 84.3H764.8V88.2H753V100H765.3H819.8V84.3Z" fill="#009E9E"/>
<path d="M753 92.2H760.8V96.1H764.8V92.2V88.2H753V92.2Z" fill="#29B8B8" fill-opacity="0.9624"/>
<path d="M819.8 84.3H806V80.4H794.2V84.3H776.6V80.4H764.8V84.3V88.2H772.6V92.2H776.6V88.2H780.5V92.2H792.3V88.2H804.1V92H808V96.1H811.9V92H815.9V88.2H819.8V84.3Z" fill="#29B8B8" fill-opacity="0.9624"/>
<path d="M1087.2 84.3H1142.3V88.2H1154V100H1141.7H1087.2V84.3Z" fill="#009E9E"/>
<path d="M1154 92.2H1146.2V96.1H1142.3V92.2V88.2H1154V92.2Z" fill="#29B8B8" fill-opacity="0.9624"/>
<path d="M1087.2 84.3H1101V80.4H1112.8V84.3H1130.5V80.4H1142.3V84.3V88.2H1134.4V92.2H1130.5V88.2H1126.5V92.2H1114.7V88.2H1102.9V92H1099V96.1H1095.1V92H1091.2V88.2H1087.2V84.3Z" fill="#29B8B8" fill-opacity="0.9624"/>
<path d="M67.6 85.9V89.4H57V100H67.6H68.5H117V85.9H67.6Z" fill="#009E9E"/>
<path d="M104.7 85.9V82.4H94.1V85.9H78.2V82.4H67.6V85.9V89.4H57V93H64V96.5H67.6V93V89.4H74.6V93H78.2V89.4H81.7V93H92.3V89.4H102.9V93H106.4V96.5H110V93H113.5V89.4H117V85.9H104.7Z" fill="#29B8B8" fill-opacity="0.9624"/>
<path d="M351.8 93.2V89.7H341.4V82.8H293.3V89.7H283V100H293.3H341.4H350H351.8H358.6V93.2H351.8Z" fill="#009E9E"/>
<path d="M351.8 93.2V89.7H341.4V93.2V94.4V96.6H344.9H358.6V93.2H351.8Z" fill="#29B8B8" fill-opacity="0.9624"/>
<path d="M333.7 79.4H327.7V76H317.4V79.4H300.2V82.8H293.3V86.3H300.2V89.7H303.6V86.3H307V89.7H317.4V86.3H327.7V89.7H338V86.3H341.4V82.8H333.7V79.4Z" fill="#29B8B8" fill-opacity="0.9624"/>
<path d="M283 89.7V93.2H289.8V96.6H293.3V93.2V92.4V89.7H283Z" fill="#29B8B8" fill-opacity="0.9624"/>
<path d="M1268.6 93.2V89.7H1278.9V82.8H1327.1V89.7H1337.4V100H1327.1H1278.9H1270.3H1268.6H1261.7V93.2H1268.6Z" fill="#009E9E"/>
<path d="M1268.6 93.2V89.7H1278.9V93.2V94.4V96.6H1275.5H1261.7V93.2H1268.6Z" fill="#29B8B8" fill-opacity="0.9624"/>
<path d="M1286.7 79.4H1292.7V76H1303V79.4H1320.2V82.8H1327.1V86.3H1320.2V89.7H1316.8V86.3H1313.3V89.7H1303V86.3H1292.7V89.7H1282.4V86.3H1278.9V82.8H1286.7V79.4Z" fill="#29B8B8" fill-opacity="0.9624"/>
<path d="M1337.4 89.7V93.2H1330.5V96.6H1327.1V93.2V92.4V89.7H1337.4Z" fill="#29B8B8" fill-opacity="0.9624"/>
<path d="M934 100H-16V141H934V100Z" fill="#2FBABB"/>
<path d="M435.5 96.6V89.7H425.2H414.9V93.2H408V100H414.9H415.6H425.2H434.2H435.5H443.2V96.6H435.5Z" fill="#009E9E"/>
<path d="M425.2 89.7V86.3H421.7H418.3V89.7H414.9V93.2H425.2H432V96.6H435.5V93.2V92.5V89.7H425.2Z" fill="#29B8B8" fill-opacity="0.9624"/>
<path d="M411.4 93.2H408V96.6H411.4H414.8V93.2H411.4Z" fill="#29B8B8" fill-opacity="0.9624"/>
<path d="M956.4 96.6V89.7H966.7H977V93.2H983.9V100H977H976.3H966.7H957.6H956.4H948.6V96.6H956.4Z" fill="#009E9E"/>
<path d="M966.7 89.7V86.3H970.1H973.6V89.7H977V93.2H966.7H959.8V96.6H956.4V93.2V92.5V89.7H966.7Z" fill="#29B8B8" fill-opacity="0.9624"/>
<path d="M980.4 93.2H983.9V96.6H980.4H977V93.2H980.4Z" fill="#29B8B8" fill-opacity="0.9624"/>
<path d="M1464.6 96.6V89.7H1454.3H1444V93.2H1437.1V100H1444H1444.7H1454.3H1463.4H1464.6H1472.4V96.6H1464.6Z" fill="#009E9E"/>
<path d="M1454.3 89.7V86.3H1450.9H1447.4V89.7H1444V93.2H1454.3H1461.2V96.6H1464.6V93.2V92.5V89.7H1454.3Z" fill="#29B8B8" fill-opacity="0.9624"/>
<path d="M1440.6 93.2H1437.1V96.6H1440.6H1444V93.2H1440.6Z" fill="#29B8B8" fill-opacity="0.9624"/>
<path d="M1883.5 100H933.5V141H1883.5V100Z" fill="#2FBABB"/>
<path d="M586.3 63.1H570.4V67.9H586.3V63.1Z" fill="#A8E7F4"/>
<path d="M590.2 12.3H570.4V36.1H574.3V48H582.3V36.1H590.2V12.3Z" fill="#A8E7F4"/>
<path d="M534.7 8.30005H530.7V12.3H534.7V8.30005Z" fill="#026262"/>
<path d="M590.3 20.2H586.3V24.2H590.3V20.2Z" fill="#29B8B8" fill-opacity="0.9624"/>
<path d="M586.3 28.2H582.3V32.2H586.3V28.2Z" fill="#009E9E"/>
<path d="M578.3 20.2H574.3V24.2H578.3V20.2Z" fill="#29B8B8" fill-opacity="0.9624"/>
<path d="M590 8.30002V4.40002H585.8H585H582.3H581.6H578.3H575H574.3H570.4V8.30002H566.4V11.7V12.3H562.4V15.9V16.3V19.3V20.2V24.2H566.4V26.1V27.7V32.2H570.4V27.7V26.1V24.2V23.3V20.2V19.3V16.3H571.1H574.3V12.3H575H578.3H581.6H582.3H585H585.8H588.8H590H594.2V8.30002H590Z" fill="#026262"/>
<path d="M570.4 4.40002H566.4V8.40002H570.4V4.40002Z" fill="#29B8B8" fill-opacity="0.9624"/>
<path d="M566.4 8.30005H562.4V12.3H566.4V8.30005Z" fill="#29B8B8" fill-opacity="0.9624"/>
<path d="M586.3 48V40.1H582.3V48H574.3V40.1H570.4V48V48.8V63.9H586.3V48Z" fill="#29B8B8" fill-opacity="0.9624"/>
<path d="M586.3 71.9V67.9H566.4V78.7V79.8V83.8H574.3V79.8H582.3V83.8H590.2V71.9H586.3Z" fill="#026262"/>
<path d="M590.3 40.1H586.3V48H590.3V40.1Z" fill="#A8E7F4"/>
<path d="M598.1 48H590.2V52H598.1V48Z" fill="#A8E7F4"/>
<path d="M566.4 40.1V44.1H562.4V48H566.4H570.4V40.1H566.4Z" fill="#A8E7F4"/>
<path d="M562.5 48H558.5V55.9H562.5V48Z" fill="#A8E7F4"/>
<path d="M602.2 44.1H598.2V48.1H602.2V44.1Z" fill="#A8E7F4"/>
<path d="M566.4 56H562.4V60H566.4V56Z" fill="#A8E7F4"/>
<path d="M566.4 83.8H565.5H562.4V87.8H565.5H566.4H570.4V83.8H566.4Z" fill="#A8E7F4"/>
<path d="M562.5 83.8H558.5V91.7H562.5V83.8Z" fill="#026262"/>
<path d="M590.2 83.8H582.3V87.8H586.3V91.7V92.8V95.7H590.2V92.8V91.7V87.8V83.8Z" fill="#A8E7F4"/>
<path d="M594.2 95.7H586.3V99.7H594.2V95.7Z" fill="#026262"/>
<path d="M566.4 4.40002V0.400024H562.4H558.5H554.5V4.40002H550.5H546.5V8.30002H542.6V11.3V12.3H538.6H534.6V16.3H538.6H542.6H546.5H550.5V13.8V12.3H554.5H558.5V8.30002H562.4H566.4V4.40002Z" fill="#026262"/>
<path d="M300.4 161.1H296.1V167.2H300.4V161.1Z" fill="#088484"/>
<path d="M361.5 158.1H357.2V164.2H361.5V158.1Z" fill="#088484"/>
<path d="M1026.3 161.4H1022V169.2H1026.3V161.4Z" fill="#088484"/>
<path d="M961.9 158.1H957.6V164.2H961.9V158.1Z" fill="#088484"/>
<path d="M1045.5 158.1H1041.2V164.2H1045.5V158.1Z" fill="#088484"/>
<path d="M1366.7 157.6H1362.4V163.7H1366.7V157.6Z" fill="#088484"/>
<path d="M1420.2 153.5H1415.3V163.3H1420.2V153.5Z" fill="#088484"/>
<path d="M1883.5 138.9V121H934H933.5H-16V141V143.8H6.9V148.6H16.8V143.8H31.6V148.6H46.4V153.5H56.3V148.6H61.2V143.8H66.1V148.6H71.5V153.5H78.2V148.6H80.9H95.7V143.8H100.6V148.6H105.5V153.5H115.4V148.6H120.3V153.5H125.2V148.6H130.1V143.8H140V148.6H144.9V143.8H149.8V148.6H159.7V143.8H163.4V148.9H168V154.3H174.8V159H179.1V154.3H189.3V149V148.7V143.8H199.2V148.3H202V158.5H206.3V148.3H209.1V143.8H224V148.3H238.8V153.4H248.7V148.3H253.6V143.8H258.5V148.3H273.3V143.8H278.2V148.2V153.2H283.1V148.2H288V143.8H292.9V148.2H297.8V153.2H300.3V161H304.6V153.2H307.7V148.2H312.6V153.2H317.5V148.2H322.4V143.8H332.3V148.2H334.1H337.2H352.6V158H356.9V148.2H358.4H361.9V143.8H378.5V148.2H388.4V143.8H403V148.2H412.9V143.8H416.4V148.2H431.2V153.5H441.1V148.2H446V143.8H450.9V148.2H465.7V143.8H470.6V148.4V153.5H475.5V148.4H480.4V143.8H485.3V148.4H490.2V153.5H500.1V148.4H505V153.5H509.9V148.4H514.8V143.8H524.7V148.4H529.6V143.8H534.5V148.4H544.4V143.8H549.3V148.7H554.2V143.8H564.1V148.7H574V143.8H583.9V148.7H593.8V143.8H608.6V148.7H623.4V153.6H633.3V148.7H638.2V143.8H643.1V148.7H657.9V143.8H662.8V148.1V153.6H667.7V148.7H672.6V143.8H677.5V148.7H682.4V153.6H692.3V148.7H697.2V153.6H702.1V148.7H707V143.8H716.9V148.7H721.8V143.8H726.7V148.7H736.6V143.8H741.5V148.7H746.4V143.8H756.3V148.7H766.2V143.8H776.1V148.7H786V143.8H800.8V148.7H815.6V153.6H825.5V148.7H830.4V143.8H835.3V148.7H850.1H851.6V153.8H858.4V159.2H862.7V153.8H872.9H874.8V153.5H884.7V158.5H889.6V153.5H894.5V148.6H899.4V143.7H909.3V148.6H914.2V143.7H919.1V148.6H929V143.7H932.9V148.6H945.9V143.8H955.8V148.6H961.4V158.1H965.7V148.6V143.8H980.5V148.6H995.3V153.5H1005.2V148.6H1010.1V143.8H1015V148.6H1020.2V152.6H1020.4V153.4H1025.2V161.3H1029.5V152.5V148.5H1029.8H1036.3V158H1040.6V148.5H1044.6V143.7H1049.5V148.5H1054.4V153.4H1064.3V148.5H1069.2V153.4H1074.1V148.5H1079V143.7H1088.9V148.5H1093.8V143.7H1098.7V148.5H1108.6V143.7H1113.5V148.5H1118.4V143.6H1128.3V148.1H1138.2V143.6H1148.1V148.1H1158V143.6H1172.8V148.1H1187.6V153.4H1197.5V148.1H1202.4V143.6H1207.3V148.1H1222.1V143.6H1227V148.1V153.3H1231.9V148.1H1236.8V143.6H1241.7V148.1H1246.6V153.3H1256.5V148.1H1261.4V153.3H1266.3V148.1H1271.2V143.6H1281.1V147.9V157.4H1276.8V163.5H1281.1V157.4H1285.4V148.4H1286H1292.1V155.9V156.6V165.4H1295.5V169.8H1300.7V162H1296.4V156.6H1301.4V148.4H1305.7H1307.2H1310.7V144.1H1327.3V148.4H1337.2V144.1H1351.7V148.4H1357.3V157.4H1361.6V147.9V144.1H1365.1V148.4H1379.9V153.3H1389.8V148.4H1394.7V144.1H1399.6V148.4H1414.4V144.1H1419.3V148.4V153.3H1424.2V148.4H1429.1V144.1H1434V148.4H1438.9V153.3H1448.8V148.4H1453.7V153.3H1458.6V148.4H1463.5V144.1H1473.4V148.4H1478.3V144.1H1483.2V148.4H1489.6V153.8H1491.5H1501.7V159.2H1506V154H1512.8V148.9H1517.7V148.7H1522.6V143.8H1532.5V148.7H1542.4V143.8H1557.2V148.7H1572V153.6H1581.9V148.7H1586.8V143.8H1591.7V148.9H1596.7V157.7H1600.3V163.4H1605.3V155.6H1601V148.9V148.7H1606.5V143.8H1611.4V148.7V153.3H1616.3V148.7H1621.2V143.8H1626.1V148.7H1631V153.3H1640.9V148.7H1645.8V153.3H1650.7V148.7H1655.6V143.8H1665.5V148.7H1670.4V143.8H1675.3V148.7H1685.2V143.8H1690.1V142V143.7V148.6H1695V143.7H1704.9V148.6H1714.8V143.7H1724.7V148.6H1734.6V143.7H1749.4V148.6H1764.2V153.5H1774.1V148.6H1779V143.7H1783.9V148.6H1798.7V143.7H1803.6V148.6V153.5H1808.5V148.6H1813.4V143.7H1818.3V148.6H1823.2V153.5H1833.1V148.6H1847.9V143.7H1882.4V138.8H1883.5V138.9Z" fill="#088484"/>
<path d="M1851.3 119.5V114.5H1821.7V119.5H1806.9V114.5H1792.1V119.5H1787.1V114.5H1782.2V119.5H1772.3V114.5H1762.5V119.5H1742.7V114.5H1732.9V119.5H1718.1V114.5H1713.1V119.5H1703.2V119.4H1698.3V114.5H1693.4V119.4H1683.5V114.5H1673.7V119.4H1658.8V114.5H1629.2V119.4H1614.4V114.5H1599.6V119.4H1594.7V114.5H1589.8V119.4H1579.9V114.5H1570V119.4H1550.3V114.5H1540.4V119.4H1525.6V114.5H1520.7V119.4H1510.8H1505.9V114.5H1500.9V119.4H1491.1V114.5H1481.2V119.4H1466.4V114.5H1436.8V119.4H1422V114.5H1407.2V119.4H1402.3V114.5H1397.3V119.4H1387.5V114.5H1377.6V119.4H1357.8V114.5H1348V119.4H1333.2V114.5H1328.2V119.4H1320.3H1318.4H1313.4V114.5H1308.5V119.4H1298.6V114.5H1288.8V119.4H1274V114.5H1244.4V119.4H1229.6V114.5H1214.8V119.4H1209.8V114.5H1204.9V119.4H1195V114.5H1185.2V119.4H1165.4V114.5H1155.5V119.4H1140.7V114.5H1135.8V119.4H1125.9H1121V114.5H1116.1V119.4H1106.2V114.5H1096.3V119.4H1081.5V114.5H1051.9V119.4H1037.1V114.5H1022.3V119.4H1017.4V114.5H1012.5V119.4H1002.6V114.5H992.7V119.4H973V114.5H963.1V119.4H948.3V114.5H943.4V119.4H933.5V119.5H926.4V114.5H916.6V119.5H901.8V114.5H872.1V119.5H857.3V114.5H842.5V119.5H837.6V114.5H832.7V119.5H822.8V114.5H812.9V119.5H793.2V114.5H783.3V119.5H768.5V114.5H763.6V119.5H753.7V119.4H748.8V114.5H743.9V119.4H734V114.5H724.1V119.4H709.3V114.5H679.7V119.4H664.9V114.5H650.1V119.4H645.2V114.5H640.2V119.4H630.4V114.5H620.5V119.4H600.8V114.5H590.9V119.4H576.1V114.5H571.2V119.4H561.3H556.4V114.5H551.4V119.4H541.5V114.5H531.7V119.4H516.9V114.5H487.3V119.4H472.5V114.5H457.7V119.4H452.7V114.5H447.8V119.4H437.9V114.5H428.1V119.4H408.3V114.5H398.5V119.4H383.6V114.5H378.7V119.4H368.8H363.9V114.5H359V119.4H349.1V114.5H339.2V119.4H324.4V114.5H294.8V119.4H280V114.5H265.2V119.4H260.3V114.5H255.4V119.4H245.5V114.5H235.6V119.4H215.9V114.5H206V119.4H191.2V114.5H186.3V119.4H175.5H171.5V114.5H166.5V119.4H156.7V114.5H146.8V119.4H132V114.5H102.4V119.4H87.6V114.5H72.8V119.4H67.9V114.5H62.9V119.4H53.1V114.5H43.2V119.4H23.4V114.5H13.6V119.4H-16V124.3H3.7V129.1H8.6V124.3H18.5V129.1H23.4V134H28.4V129.1H33.3V134H43.2V129.1H48.1V124.3H53.1V129.1H58V134H62.9V129.1V124.3H67.9V129.1H82.7V124.3H87.6V129.1H92.5V134H102.4V129.1H117.2V124.3H132V129.1H141.9V124.3H151.7V129.1H161.6V124.3H171.5V129.1H176.4V124.3H181.3V129.1H191.2V124.3H196.1V129.1H201.1V124.3H210.9V129.1H215.9V134H220.8V129.1H225.8V134H235.6V129.1H240.6V124.3H245.5V129.1H250.4V134H255.4V129.1V124.3H260.3V129.1H275.1V124.3H280V129.1H285V134H294.8V129.1H309.6V124.3H324.4V129.1H334.3V124.3H344.2V129.1H354V124.3H363.9V129.1H368.8V124.3H373.8V128.7H383.6V124.3H388.6V128.7H393.5V124.3H403.4V128.7H408.3V134H413.3V128.7H418.2V134H428.1V128.7H433V124.3H437.9V128.7H442.9V134H447.8V128.7V124.3H452.7V128.7H467.5V124.3H472.5V128.7H477.4V134H487.3V128.7H502.1V124.3H516.9V129.1H526.7V124.3H536.6V129.1H546.5V124.3H556.3V129.1H561.3V124.3H566.2V129.1H576.1V124.3H581V129.1H586V124.3H595.8V128.8H600.8V134H605.7V128.8H610.6V134H620.5V128.8H625.4V124.3H630.4V128.8H635.3V134H640.2V128.8V124.3H645.2V128.8H660V124.3H664.9V128.8H669.8V134H679.7V128.8H694.5V124.3H709.3V129.1H719.2V124.3H729.1V129.1H738.9V124.3H748.8V129.1H753.7V124.4H758.7V129.1H768.5V124.4H773.5V129.1H778.4V124.4H788.3V129.1H793.2V134H798.1V129.1H803.1V134H812.9V129.1H817.9V124.4H822.8V129.1H827.7V134H832.7V129.1V124.4H837.6V129.1H852.4V124.4H857.3V129.1H862.3V134H872.1V129.1H886.9V124.4H901.8V129.1H911.6V124.4H921.5V129.1H931.4V124.4H934.5V124.3H938.4V129.1H948.3V124.3H953.2V129.1H958.2V124.3H968V129.1H973V134H977.9V129.1H982.8V134H992.7V129.1H997.6V124.3H1002.6V129.1H1007.5V134H1012.4V129.1V124.3H1017.4V129.1H1032.2V124.3H1037.1V129.1H1042.1V134H1051.9V129.1H1066.7V124.3H1081.5V129.1H1091.4V124.3H1101.3V129.1H1111.1V124.3H1121V129.1H1125.9V124.3H1130.9V129.1H1140.7V124.3H1145.7V129.1H1150.6V124.3H1160.5V129.1H1165.4V134H1170.3V129.1H1175.3V134H1185.1V129.1H1190.1V124.3H1195V129.1H1199.9V134H1204.9V129.1V124.3H1209.8V129.1H1224.6V124.3H1229.6V129.1H1234.5V134H1244.4V129.1H1259.2V124.3H1274V129.1H1283.8V124.3H1293.7V129.1H1303.6V124.3H1313.4V129.1H1318.4V124.3H1323.3V128.8H1333.2V124.3H1338.1V128.8H1343V124.3H1352.9V128.8H1357.8V134H1362.8V128.8H1367.7V134H1377.6V128.8H1382.5V124.3H1387.5V128.8H1392.4V134H1397.3V128.8V124.3H1402.3V128.8H1417.1V124.3H1422V128.8H1426.9V134H1436.8V128.8H1451.6V124.3H1466.4V128.8H1476.3V124.3H1486.1V128.8H1496V124.3H1505.9V128.8H1510.8V124.3H1515.8V128.8H1525.6V124.3H1530.6V128.8H1535.5V124.3H1545.3V128.8H1550.3V134H1555.2V128.8H1560.2V134H1570V128.8H1575V124.3H1579.9V128.8H1584.8V134H1589.8V128.8V124.3H1594.7V128.8H1609.5V124.3H1614.4V128.8H1619.4V134H1629.2V128.8H1644V124.3H1658.8V129.1H1668.7V124.3H1678.6V129.1H1688.4V124.3H1702.8H1698.3V129.1H1703.3V124.4H1708.2V129.1H1718.1V124.4H1723V129.1H1727.9V124.4H1737.8V129.1H1742.7V134H1747.7V129.1H1752.6V134H1762.5V129.1H1767.4V124.4H1772.3V129.1H1777.3V134H1782.2V129.1V124.4H1787.1V129.1H1801.9V124.4H1806.9V129.1H1811.8V134H1821.7V129.1H1836.5V124.4H1884V119.5H1851.3Z" fill="#009E9E"/>
</g>
<defs>
<clipPath id="clip0_274_926">
<rect width="1825" height="171" fill="white"/>
</clipPath>
</defs>
</svg>
