<svg width="1824" height="171" viewBox="0 0 1824 171" fill="none" xmlns="http://www.w3.org/2000/svg">
<rect width="192.438" height="4.87115" transform="matrix(-1 0 0 1 934 138.878)" fill="#088484"/>
<rect width="4.9343" height="4.87115" transform="matrix(-1 0 0 1 924.131 134.006)" fill="#088484"/>
<rect width="4.9343" height="4.87115" transform="matrix(-1 0 0 1 914.263 143.749)" fill="#088484"/>
<rect width="4.9343" height="4.87115" transform="matrix(-1 0 0 1 894.525 148.62)" fill="#088484"/>
<rect width="9.86861" height="4.87115" transform="matrix(-1 0 0 1 904.394 134.006)" fill="#088484"/>
<rect width="9.86861" height="4.87115" transform="matrix(-1 0 0 1 929.066 143.749)" fill="#088484"/>
<rect width="9.86861" height="4.87115" transform="matrix(-1 0 0 1 874.788 134.006)" fill="#088484"/>
<rect width="9.86861" height="4.87115" transform="matrix(-1 0 0 1 884.657 148.62)" fill="#088484"/>
<rect width="9.86861" height="4.87115" transform="matrix(-1 0 0 1 864.92 143.749)" fill="#088484"/>
<rect width="9.86861" height="4.87115" transform="matrix(-1 0 0 1 825.445 148.62)" fill="#088484"/>
<rect width="9.86861" height="4.87115" transform="matrix(-1 0 0 1 785.971 143.749)" fill="#088484"/>
<rect width="9.86861" height="4.87115" transform="matrix(-1 0 0 1 766.234 143.749)" fill="#088484"/>
<rect width="14.8029" height="4.87115" transform="matrix(-1 0 0 1 845.182 134.006)" fill="#088484"/>
<rect width="14.8029" height="4.87115" transform="matrix(-1 0 0 1 850.117 143.749)" fill="#088484"/>
<rect width="4.9343" height="4.87115" transform="matrix(-1 0 0 1 855.051 134.006)" fill="#088484"/>
<rect width="4.9343" height="4.87115" transform="matrix(-1 0 0 1 859.985 148.62)" fill="#088484"/>
<rect width="29.6058" height="4.87115" transform="matrix(-1 0 0 1 815.577 134.006)" fill="#088484"/>
<rect width="29.6058" height="4.87115" transform="matrix(-1 0 0 1 830.38 143.749)" fill="#088484"/>
<rect width="29.6058" height="4.87115" transform="matrix(-1 0 0 1 899.46 143.749)" fill="#088484"/>
<rect width="9.86861" height="4.87115" transform="matrix(-1 0 0 1 771.168 134.006)" fill="#088484"/>
<rect width="4.9343" height="4.87115" transform="matrix(-1 0 0 1 751.431 134.006)" fill="#088484"/>
<rect width="4.9343" height="4.87115" transform="matrix(-1 0 0 1 746.496 143.749)" fill="#088484"/>
<rect width="192.438" height="4.87115" transform="matrix(-1 0 0 1 741.562 138.877)" fill="#088484"/>
<rect width="4.9343" height="4.87115" transform="matrix(-1 0 0 1 731.693 134.006)" fill="#088484"/>
<rect width="4.9343" height="4.87115" transform="matrix(-1 0 0 1 721.825 143.748)" fill="#088484"/>
<rect width="4.9343" height="4.87115" transform="matrix(-1 0 0 1 702.087 148.62)" fill="#088484"/>
<rect width="9.86861" height="4.87115" transform="matrix(-1 0 0 1 711.956 134.006)" fill="#088484"/>
<rect width="9.86861" height="4.87115" transform="matrix(-1 0 0 1 736.628 143.748)" fill="#088484"/>
<rect width="9.86861" height="4.87115" transform="matrix(-1 0 0 1 682.35 134.006)" fill="#088484"/>
<rect width="9.86861" height="4.87115" transform="matrix(-1 0 0 1 692.219 148.62)" fill="#088484"/>
<rect width="9.86861" height="4.87115" transform="matrix(-1 0 0 1 672.482 143.748)" fill="#088484"/>
<rect width="9.86861" height="4.87115" transform="matrix(-1 0 0 1 633.008 148.62)" fill="#088484"/>
<rect width="9.86861" height="4.87115" transform="matrix(-1 0 0 1 593.533 143.748)" fill="#088484"/>
<rect width="9.86861" height="4.87115" transform="matrix(-1 0 0 1 573.796 143.748)" fill="#088484"/>
<rect width="14.8029" height="4.87115" transform="matrix(-1 0 0 1 652.744 134.006)" fill="#088484"/>
<rect width="14.8029" height="4.87115" transform="matrix(-1 0 0 1 657.679 143.748)" fill="#088484"/>
<rect width="4.9343" height="4.87115" transform="matrix(-1 0 0 1 662.613 134.006)" fill="#088484"/>
<rect width="4.9343" height="4.87115" transform="matrix(-1 0 0 1 667.547 148.62)" fill="#088484"/>
<rect width="29.6058" height="4.87115" transform="matrix(-1 0 0 1 623.139 134.006)" fill="#088484"/>
<rect width="29.6058" height="4.87115" transform="matrix(-1 0 0 1 637.942 143.748)" fill="#088484"/>
<rect width="29.6058" height="4.87115" transform="matrix(-1 0 0 1 707.022 143.748)" fill="#088484"/>
<rect width="9.86861" height="4.87115" transform="matrix(-1 0 0 1 578.73 134.006)" fill="#088484"/>
<rect width="4.9343" height="4.87115" transform="matrix(-1 0 0 1 558.993 134.006)" fill="#088484"/>
<rect width="4.9343" height="4.87115" transform="matrix(-1 0 0 1 554.059 143.748)" fill="#088484"/>
<rect width="192.438" height="4.87115" transform="matrix(-1 0 0 1 549.124 138.877)" fill="#088484"/>
<rect width="4.9343" height="4.87115" transform="matrix(-1 0 0 1 539.255 134.006)" fill="#088484"/>
<rect width="4.9343" height="4.87115" transform="matrix(-1 0 0 1 529.387 143.749)" fill="#088484"/>
<rect width="4.9343" height="4.87115" transform="matrix(-1 0 0 1 509.649 148.62)" fill="#088484"/>
<rect width="9.86861" height="4.87115" transform="matrix(-1 0 0 1 519.518 134.006)" fill="#088484"/>
<rect width="9.86861" height="4.87115" transform="matrix(-1 0 0 1 544.19 143.749)" fill="#088484"/>
<rect width="9.86861" height="4.87115" transform="matrix(-1 0 0 1 489.912 134.006)" fill="#088484"/>
<rect width="9.86861" height="4.87115" transform="matrix(-1 0 0 1 499.781 148.62)" fill="#088484"/>
<rect width="9.86861" height="4.87115" transform="matrix(-1 0 0 1 480.044 143.749)" fill="#088484"/>
<rect width="9.86861" height="4.87115" transform="matrix(-1 0 0 1 440.57 148.62)" fill="#088484"/>
<rect width="9.86861" height="4.87115" transform="matrix(-1 0 0 1 412.405 143.749)" fill="#088484"/>
<rect width="9.86861" height="4.87115" transform="matrix(-1 0 0 1 388.083 143.749)" fill="#088484"/>
<rect width="14.8029" height="4.87115" transform="matrix(-1 0 0 1 460.306 134.006)" fill="#088484"/>
<rect width="14.8029" height="4.87115" transform="matrix(-1 0 0 1 465.241 143.749)" fill="#088484"/>
<rect width="4.9343" height="4.87115" transform="matrix(-1 0 0 1 470.175 134.006)" fill="#088484"/>
<rect width="4.9343" height="4.87115" transform="matrix(-1 0 0 1 475.109 148.62)" fill="#088484"/>
<rect width="29.6058" height="4.87115" transform="matrix(-1 0 0 1 430.701 134.006)" fill="#088484"/>
<rect width="29.6058" height="4.87115" transform="matrix(-1 0 0 1 445.504 143.749)" fill="#088484"/>
<rect width="29.6058" height="4.87115" transform="matrix(-1 0 0 1 514.584 143.749)" fill="#088484"/>
<rect width="9.86861" height="4.87115" transform="matrix(-1 0 0 1 386.292 134.006)" fill="#088484"/>
<rect width="4.9343" height="4.87115" transform="matrix(-1 0 0 1 366.555 134.006)" fill="#088484"/>
<rect width="4.9343" height="4.87115" transform="matrix(-1 0 0 1 361.621 143.749)" fill="#088484"/>
<rect width="192.438" height="4.87115" transform="matrix(-1 0 0 1 356.687 138.877)" fill="#088484"/>
<rect width="4.9343" height="4.87115" transform="matrix(-1 0 0 1 346.818 134.006)" fill="#088484"/>
<rect width="4.9343" height="4.87115" transform="matrix(-1 0 0 1 336.949 143.749)" fill="#088484"/>
<rect width="4.9343" height="4.87115" transform="matrix(-1 0 0 1 317.212 148.62)" fill="#088484"/>
<rect width="9.86861" height="4.87115" transform="matrix(-1 0 0 1 327.081 134.006)" fill="#088484"/>
<rect width="24.3333" height="4.87115" transform="matrix(-1 0 0 1 358.14 143.749)" fill="#088484"/>
<rect width="9.86861" height="4.87115" transform="matrix(-1 0 0 1 297.475 134.006)" fill="#088484"/>
<rect width="9.86861" height="4.87115" transform="matrix(-1 0 0 1 307.343 148.62)" fill="#088484"/>
<rect width="9.86861" height="4.87115" transform="matrix(-1 0 0 1 287.606 143.749)" fill="#088484"/>
<rect width="9.86861" height="4.87115" transform="matrix(-1 0 0 1 248.132 148.62)" fill="#088484"/>
<rect width="9.86861" height="4.87115" transform="matrix(-1 0 0 1 208.657 143.749)" fill="#088484"/>
<rect width="9.86861" height="4.87115" transform="matrix(-1 0 0 1 188.92 143.749)" fill="#088484"/>
<rect width="14.8029" height="4.87115" transform="matrix(-1 0 0 1 267.869 134.006)" fill="#088484"/>
<rect width="14.8029" height="4.87115" transform="matrix(-1 0 0 1 272.803 143.749)" fill="#088484"/>
<rect width="4.9343" height="4.87115" transform="matrix(-1 0 0 1 277.738 134.006)" fill="#088484"/>
<rect width="4.9343" height="4.87115" transform="matrix(-1 0 0 1 282.672 148.62)" fill="#088484"/>
<rect width="29.6058" height="4.87115" transform="matrix(-1 0 0 1 238.263 134.006)" fill="#088484"/>
<rect width="29.6058" height="4.87115" transform="matrix(-1 0 0 1 253.066 143.749)" fill="#088484"/>
<rect width="29.6058" height="4.87115" transform="matrix(-1 0 0 1 322.146 143.749)" fill="#088484"/>
<rect width="9.86861" height="4.87115" transform="matrix(-1 0 0 1 193.854 134.006)" fill="#088484"/>
<rect width="4.9343" height="4.87115" transform="matrix(-1 0 0 1 174.117 134.006)" fill="#088484"/>
<rect width="4.9343" height="4.87115" transform="matrix(-1 0 0 1 169.183 143.749)" fill="#088484"/>
<rect width="181.229" height="4.86829" transform="matrix(-1 0 0 1 164.7 139)" fill="#088484"/>
<rect width="4.9343" height="4.87115" transform="matrix(-1 0 0 1 154.38 134.006)" fill="#088484"/>
<rect width="4.9343" height="4.87115" transform="matrix(-1 0 0 1 144.511 143.749)" fill="#088484"/>
<rect width="4.9343" height="4.87115" transform="matrix(-1 0 0 1 124.774 148.62)" fill="#088484"/>
<rect width="9.86861" height="4.87115" transform="matrix(-1 0 0 1 134.643 134.006)" fill="#088484"/>
<rect width="9.86861" height="4.87115" transform="matrix(-1 0 0 1 159.314 143.749)" fill="#088484"/>
<rect width="9.86861" height="4.87115" transform="matrix(-1 0 0 1 105.037 134.006)" fill="#088484"/>
<rect width="9.86861" height="4.87115" transform="matrix(-1 0 0 1 114.905 148.62)" fill="#088484"/>
<rect width="17.5043" height="4.87115" transform="matrix(-1 0 0 1 95.1682 143.749)" fill="#088484"/>
<rect width="9.86861" height="4.87115" transform="matrix(-1 0 0 1 55.6938 148.62)" fill="#088484"/>
<rect width="9.86861" height="4.87115" transform="matrix(-1 0 0 1 16.2195 143.749)" fill="#088484"/>
<rect width="14.8029" height="4.87115" transform="matrix(-1 0 0 1 75.4309 134.006)" fill="#088484"/>
<rect width="14.8029" height="4.87115" transform="matrix(-1 0 0 1 80.3652 143.749)" fill="#088484"/>
<rect width="4.9343" height="4.87115" transform="matrix(-1 0 0 1 85.2993 134.006)" fill="#088484"/>
<rect width="6.70038" height="4.87115" transform="matrix(-1 0 0 1 77.6638 148.62)" fill="#088484"/>
<rect width="29.6058" height="4.87115" transform="matrix(-1 0 0 1 45.8252 134.006)" fill="#088484"/>
<rect width="29.6058" height="4.87115" transform="matrix(-1 0 0 1 60.6282 143.749)" fill="#088484"/>
<rect width="29.6058" height="4.87115" transform="matrix(-1 0 0 1 129.708 143.749)" fill="#088484"/>
<rect width="9.86861" height="4.87115" transform="matrix(-1 0 0 1 1.4165 134.006)" fill="#088484"/>
<rect x="1068.47" y="84.3123" width="55.034" height="15.724" fill="#009E9E"/>
<rect x="1123.5" y="88.2433" width="11.793" height="11.793" fill="#009E9E"/>
<rect x="1068.47" y="84.3123" width="55.034" height="3.931" fill="#29B8B8" fill-opacity="0.962426"/>
<rect x="1123.5" y="88.2433" width="11.793" height="3.931" fill="#29B8B8" fill-opacity="0.962426"/>
<rect x="1095.99" y="88.2433" width="11.793" height="3.931" fill="#29B8B8" fill-opacity="0.962426"/>
<rect x="1082.23" y="80.3813" width="11.793" height="3.931" fill="#29B8B8" fill-opacity="0.962426"/>
<rect x="1111.71" y="80.3813" width="11.793" height="3.931" fill="#29B8B8" fill-opacity="0.962426"/>
<rect x="1072.4" y="88.2433" width="11.793" height="3.931" fill="#29B8B8" fill-opacity="0.962426"/>
<rect x="1076.33" y="92.1743" width="3.931" height="3.931" fill="#29B8B8" fill-opacity="0.962426"/>
<rect x="1111.71" y="88.2433" width="3.931" height="3.931" fill="#29B8B8" fill-opacity="0.962426"/>
<rect x="1123.5" y="92.1743" width="3.931" height="3.931" fill="#29B8B8" fill-opacity="0.962426"/>
<rect width="55.034" height="15.724" transform="matrix(-1 0 0 1 819.298 84.3182)" fill="#009E9E"/>
<rect width="11.793" height="11.793" transform="matrix(-1 0 0 1 764.264 88.2493)" fill="#009E9E"/>
<rect width="55.034" height="3.931" transform="matrix(-1 0 0 1 819.298 84.3182)" fill="#29B8B8" fill-opacity="0.962426"/>
<rect width="11.793" height="3.931" transform="matrix(-1 0 0 1 764.264 88.2493)" fill="#29B8B8" fill-opacity="0.962426"/>
<rect width="11.793" height="3.931" transform="matrix(-1 0 0 1 791.781 88.2493)" fill="#29B8B8" fill-opacity="0.962426"/>
<rect width="11.793" height="3.931" transform="matrix(-1 0 0 1 805.539 80.3873)" fill="#29B8B8" fill-opacity="0.962426"/>
<rect width="11.793" height="3.931" transform="matrix(-1 0 0 1 776.057 80.3873)" fill="#29B8B8" fill-opacity="0.962426"/>
<rect width="11.793" height="3.931" transform="matrix(-1 0 0 1 815.367 88.2493)" fill="#29B8B8" fill-opacity="0.962426"/>
<rect width="3.931" height="3.931" transform="matrix(-1 0 0 1 811.436 92.1802)" fill="#29B8B8" fill-opacity="0.962426"/>
<rect width="3.931" height="3.931" transform="matrix(-1 0 0 1 776.057 88.2493)" fill="#29B8B8" fill-opacity="0.962426"/>
<rect width="3.931" height="3.931" transform="matrix(-1 0 0 1 764.264 92.1802)" fill="#29B8B8" fill-opacity="0.962426"/>
<rect width="49.4508" height="14.1288" transform="matrix(-1 0 0 1 116.518 85.9135)" fill="#009E9E"/>
<rect width="10.5966" height="10.5966" transform="matrix(-1 0 0 1 67.0674 89.4457)" fill="#009E9E"/>
<rect width="49.4508" height="3.5322" transform="matrix(-1 0 0 1 116.518 85.9135)" fill="#29B8B8" fill-opacity="0.962426"/>
<rect width="10.5966" height="3.5322" transform="matrix(-1 0 0 1 67.0674 89.4457)" fill="#29B8B8" fill-opacity="0.962426"/>
<rect width="10.5966" height="3.5322" transform="matrix(-1 0 0 1 91.7927 89.4457)" fill="#29B8B8" fill-opacity="0.962426"/>
<rect width="10.5966" height="3.5322" transform="matrix(-1 0 0 1 104.155 82.3813)" fill="#29B8B8" fill-opacity="0.962426"/>
<rect width="10.5966" height="3.5322" transform="matrix(-1 0 0 1 77.6638 82.3813)" fill="#29B8B8" fill-opacity="0.962426"/>
<rect width="10.5966" height="3.5322" transform="matrix(-1 0 0 1 112.986 89.4457)" fill="#29B8B8" fill-opacity="0.962426"/>
<rect width="3.5322" height="3.5322" transform="matrix(-1 0 0 1 109.454 92.9778)" fill="#29B8B8" fill-opacity="0.962426"/>
<rect width="3.5322" height="3.5322" transform="matrix(-1 0 0 1 77.6638 89.4457)" fill="#29B8B8" fill-opacity="0.962426"/>
<rect width="3.5322" height="3.5322" transform="matrix(-1 0 0 1 67.0674 92.9778)" fill="#29B8B8" fill-opacity="0.962426"/>
<rect width="55.034" height="19.655" transform="matrix(-1 0 0 1 1334.3 80.3873)" fill="#009E9E"/>
<rect width="11.793" height="11.793" transform="matrix(-1 0 0 1 1279.26 88.2493)" fill="#009E9E"/>
<rect width="11.793" height="11.793" transform="matrix(-1 0 0 1 1346.09 88.2493)" fill="#009E9E"/>
<rect width="7.862" height="7.862" transform="matrix(-1 0 0 1 1353.95 92.1803)" fill="#009E9E"/>
<rect width="55.034" height="3.931" transform="matrix(-1 0 0 1 1334.3 80.3873)" fill="#29B8B8" fill-opacity="0.962426"/>
<rect width="11.793" height="3.931" transform="matrix(-1 0 0 1 1279.26 88.2493)" fill="#29B8B8" fill-opacity="0.962426"/>
<rect width="15.724" height="3.931" transform="matrix(-1 0 0 1 1306.78 88.2493)" fill="#29B8B8" fill-opacity="0.962426"/>
<rect width="11.793" height="3.931" transform="matrix(-1 0 0 1 1346.09 88.2493)" fill="#29B8B8" fill-opacity="0.962426"/>
<rect width="11.793" height="3.931" transform="matrix(-1 0 0 1 1306.78 84.3184)" fill="#29B8B8" fill-opacity="0.962426"/>
<rect width="11.793" height="3.931" transform="matrix(-1 0 0 1 1313.66 76.4563)" fill="#29B8B8" fill-opacity="0.962426"/>
<rect width="11.793" height="3.931" transform="matrix(-1 0 0 1 1325.45 76.4563)" fill="#29B8B8" fill-opacity="0.962426"/>
<rect width="11.793" height="3.931" transform="matrix(-1 0 0 1 1330.37 84.3184)" fill="#29B8B8" fill-opacity="0.962426"/>
<rect width="3.931" height="3.931" transform="matrix(-1 0 0 1 1279.26 92.1803)" fill="#29B8B8" fill-opacity="0.962426"/>
<rect width="3.931" height="3.931" transform="matrix(-1 0 0 1 1334.3 84.3184)" fill="#29B8B8" fill-opacity="0.962426"/>
<rect width="3.931" height="3.931" transform="matrix(-1 0 0 1 1291.06 84.3184)" fill="#29B8B8" fill-opacity="0.962426"/>
<rect width="3.931" height="3.931" transform="matrix(-1 0 0 1 1338.23 92.1803)" fill="#29B8B8" fill-opacity="0.962426"/>
<rect width="11.793" height="11.793" transform="matrix(-1 0 0 1 1015.07 88.2493)" fill="#009E9E"/>
<rect width="11.793" height="11.793" transform="matrix(-1 0 0 1 1026.87 88.2493)" fill="#009E9E"/>
<rect width="7.862" height="7.862" transform="matrix(-1 0 0 1 1034.73 92.1804)" fill="#009E9E"/>
<rect width="11.793" height="3.931" transform="matrix(-1 0 0 1 1015.07 88.2493)" fill="#29B8B8" fill-opacity="0.962426"/>
<rect width="11.793" height="3.931" transform="matrix(-1 0 0 1 1026.87 88.2493)" fill="#29B8B8" fill-opacity="0.962426"/>
<rect width="3.931" height="3.931" transform="matrix(-1 0 0 1 1015.07 92.1804)" fill="#29B8B8" fill-opacity="0.962426"/>
<rect width="3.931" height="3.931" transform="matrix(-1 0 0 1 1007.21 92.1804)" fill="#29B8B8" fill-opacity="0.962426"/>
<rect width="3.931" height="3.931" transform="matrix(-1 0 0 1 1019.01 92.1804)" fill="#29B8B8" fill-opacity="0.962426"/>
<rect width="3.931" height="3.931" transform="matrix(-1 0 0 1 1022.94 84.3183)" fill="#29B8B8" fill-opacity="0.962426"/>
<rect width="3.931" height="3.931" transform="matrix(-1 0 0 1 1019.01 84.3183)" fill="#29B8B8" fill-opacity="0.962426"/>
<rect x="992.471" y="96.1113" width="10.8102" height="3.931" fill="#009E9E"/>
<rect x="1480.17" y="88.2965" width="11.7457" height="11.7457" fill="#009E9E"/>
<rect x="1468.42" y="88.2965" width="11.7457" height="11.7457" fill="#009E9E"/>
<rect x="1460.59" y="92.2118" width="7.83049" height="7.83049" fill="#009E9E"/>
<rect x="1480.17" y="88.2965" width="11.7457" height="3.91525" fill="#29B8B8" fill-opacity="0.962426"/>
<rect x="1468.42" y="88.2965" width="11.7457" height="3.91525" fill="#29B8B8" fill-opacity="0.962426"/>
<rect x="1480.17" y="92.2118" width="3.91525" height="3.91525" fill="#29B8B8" fill-opacity="0.962426"/>
<rect x="1488" y="92.2118" width="3.91525" height="3.91525" fill="#29B8B8" fill-opacity="0.962426"/>
<rect x="1476.25" y="92.2118" width="3.91525" height="3.91525" fill="#29B8B8" fill-opacity="0.962426"/>
<rect x="1472.34" y="84.3813" width="3.91525" height="3.91525" fill="#29B8B8" fill-opacity="0.962426"/>
<rect x="1476.25" y="84.3813" width="3.91525" height="3.91525" fill="#29B8B8" fill-opacity="0.962426"/>
<rect width="10.7669" height="3.91525" transform="matrix(-1 0 0 1 1502.68 96.127)" fill="#009E9E"/>
<rect width="48.1529" height="17.1975" transform="matrix(-1 0 0 1 340.942 82.8449)" fill="#009E9E"/>
<rect width="10.3185" height="10.3185" transform="matrix(-1 0 0 1 292.789 89.7238)" fill="#009E9E"/>
<rect width="10.3185" height="10.3185" transform="matrix(-1 0 0 1 351.26 89.7238)" fill="#009E9E"/>
<rect width="6.87898" height="6.87898" transform="matrix(-1 0 0 1 358.139 93.1633)" fill="#009E9E"/>
<rect width="48.1529" height="3.43949" transform="matrix(-1 0 0 1 340.942 82.8449)" fill="#29B8B8" fill-opacity="0.962426"/>
<rect width="10.3185" height="3.43949" transform="matrix(-1 0 0 1 292.789 89.7238)" fill="#29B8B8" fill-opacity="0.962426"/>
<rect width="13.758" height="3.43949" transform="matrix(-1 0 0 1 358.139 93.1633)" fill="#29B8B8" fill-opacity="0.962426"/>
<rect width="10.3185" height="3.43949" transform="matrix(-1 0 0 1 351.26 89.7238)" fill="#29B8B8" fill-opacity="0.962426"/>
<rect width="10.3185" height="3.43949" transform="matrix(-1 0 0 1 316.866 86.2844)" fill="#29B8B8" fill-opacity="0.962426"/>
<rect width="23.2166" height="3.43949" transform="matrix(-1 0 0 1 322.885 79.4054)" fill="#29B8B8" fill-opacity="0.962426"/>
<rect width="10.3185" height="3.43949" transform="matrix(-1 0 0 1 333.203 79.4054)" fill="#29B8B8" fill-opacity="0.962426"/>
<rect width="10.3185" height="3.43949" transform="matrix(-1 0 0 1 337.503 86.2844)" fill="#29B8B8" fill-opacity="0.962426"/>
<rect width="10.3185" height="3.43949" transform="matrix(-1 0 0 1 327.184 75.9659)" fill="#29B8B8" fill-opacity="0.962426"/>
<rect width="3.43949" height="3.43949" transform="matrix(-1 0 0 1 292.789 93.1633)" fill="#29B8B8" fill-opacity="0.962426"/>
<rect width="3.43949" height="3.43949" transform="matrix(-1 0 0 1 303.108 86.2844)" fill="#29B8B8" fill-opacity="0.962426"/>
<rect width="3.43949" height="3.43949" transform="matrix(-1 0 0 1 344.382 93.1633)" fill="#29B8B8" fill-opacity="0.962426"/>
<rect x="-16.5293" y="100.028" width="950" height="41" fill="#2FBABB"/>
<rect x="-16.5293" y="121.028" width="950" height="20" fill="#088484"/>
<rect x="-16.5293" y="119.393" width="192.438" height="4.87115" fill="#009E9E"/>
<rect x="3.20801" y="124.264" width="4.9343" height="4.87115" fill="#009E9E"/>
<rect x="22.9453" y="129.135" width="4.9343" height="4.87115" fill="#009E9E"/>
<rect x="13.0767" y="114.521" width="9.86861" height="4.87115" fill="#009E9E"/>
<rect x="42.6824" y="114.521" width="9.86861" height="4.87115" fill="#009E9E"/>
<rect x="32.814" y="129.135" width="9.86861" height="4.87115" fill="#009E9E"/>
<rect x="52.551" y="124.264" width="9.86861" height="4.87115" fill="#009E9E"/>
<rect x="92.0254" y="129.135" width="9.86861" height="4.87115" fill="#009E9E"/>
<rect x="131.5" y="124.264" width="9.86861" height="4.87115" fill="#009E9E"/>
<rect x="151.237" y="124.264" width="9.86861" height="4.87115" fill="#009E9E"/>
<rect x="72.2883" y="114.521" width="14.8029" height="4.87115" fill="#009E9E"/>
<rect x="67.354" y="124.264" width="14.8029" height="4.87115" fill="#009E9E"/>
<rect x="62.4194" y="114.521" width="4.9343" height="4.87115" fill="#009E9E"/>
<rect x="57.4854" y="129.135" width="4.9343" height="4.87115" fill="#009E9E"/>
<rect x="101.894" y="114.521" width="29.6058" height="4.87115" fill="#009E9E"/>
<rect x="87.0911" y="124.264" width="29.6058" height="4.87115" fill="#009E9E"/>
<rect x="18.011" y="124.264" width="29.6058" height="4.87115" fill="#009E9E"/>
<rect x="146.303" y="114.521" width="9.86861" height="4.87115" fill="#009E9E"/>
<rect x="166.04" y="114.521" width="4.9343" height="4.87115" fill="#009E9E"/>
<rect x="170.974" y="124.264" width="4.9343" height="4.87115" fill="#009E9E"/>
<rect x="175.909" y="119.392" width="192.438" height="4.87115" fill="#009E9E"/>
<rect x="185.777" y="114.521" width="4.9343" height="4.87115" fill="#009E9E"/>
<rect x="195.646" y="124.263" width="4.9343" height="4.87115" fill="#009E9E"/>
<rect x="215.383" y="129.135" width="4.9343" height="4.87115" fill="#009E9E"/>
<rect x="205.515" y="114.521" width="9.86861" height="4.87115" fill="#009E9E"/>
<rect x="180.843" y="124.263" width="9.86861" height="4.87115" fill="#009E9E"/>
<rect x="235.121" y="114.521" width="9.86861" height="4.87115" fill="#009E9E"/>
<rect x="225.252" y="129.135" width="9.86861" height="4.87115" fill="#009E9E"/>
<rect x="244.989" y="124.263" width="9.86861" height="4.87115" fill="#009E9E"/>
<rect x="284.463" y="129.135" width="9.86861" height="4.87115" fill="#009E9E"/>
<rect x="323.938" y="124.263" width="9.86861" height="4.87115" fill="#009E9E"/>
<rect x="343.675" y="124.263" width="9.86861" height="4.87115" fill="#009E9E"/>
<rect x="264.726" y="114.521" width="14.8029" height="4.87115" fill="#009E9E"/>
<rect x="259.792" y="124.263" width="14.8029" height="4.87115" fill="#009E9E"/>
<rect x="254.857" y="114.521" width="4.9343" height="4.87115" fill="#009E9E"/>
<rect x="249.923" y="129.135" width="4.9343" height="4.87115" fill="#009E9E"/>
<rect x="294.332" y="114.521" width="29.6058" height="4.87115" fill="#009E9E"/>
<rect x="279.529" y="124.263" width="29.6058" height="4.87115" fill="#009E9E"/>
<rect x="210.449" y="124.263" width="29.6058" height="4.87115" fill="#009E9E"/>
<rect x="338.741" y="114.521" width="9.86861" height="4.87115" fill="#009E9E"/>
<rect x="358.478" y="114.521" width="4.9343" height="4.87115" fill="#009E9E"/>
<rect x="363.412" y="124.263" width="4.9343" height="4.87115" fill="#009E9E"/>
<rect x="368.346" y="119.392" width="192.438" height="4.87115" fill="#009E9E"/>
<rect x="378.215" y="114.521" width="4.9343" height="4.87115" fill="#009E9E"/>
<rect x="388.084" y="124.264" width="4.9343" height="4.87115" fill="#009E9E"/>
<rect x="407.821" y="129.135" width="4.9343" height="4.87115" fill="#009E9E"/>
<rect x="397.952" y="114.521" width="9.86861" height="4.87115" fill="#009E9E"/>
<rect x="373.281" y="124.264" width="9.86861" height="4.87115" fill="#009E9E"/>
<rect x="427.558" y="114.521" width="9.86861" height="4.87115" fill="#009E9E"/>
<rect x="417.689" y="129.135" width="9.86861" height="4.87115" fill="#009E9E"/>
<rect x="437.427" y="124.264" width="9.86861" height="4.87115" fill="#009E9E"/>
<rect x="476.901" y="129.135" width="9.86861" height="4.87115" fill="#009E9E"/>
<rect x="516.375" y="124.264" width="9.86861" height="4.87115" fill="#009E9E"/>
<rect x="536.113" y="124.264" width="9.86861" height="4.87115" fill="#009E9E"/>
<rect x="457.164" y="114.521" width="14.8029" height="4.87115" fill="#009E9E"/>
<rect x="452.23" y="124.264" width="14.8029" height="4.87115" fill="#009E9E"/>
<rect x="447.295" y="114.521" width="4.9343" height="4.87115" fill="#009E9E"/>
<rect x="442.361" y="129.135" width="4.9343" height="4.87115" fill="#009E9E"/>
<rect x="486.77" y="114.521" width="29.6058" height="4.87115" fill="#009E9E"/>
<rect x="471.967" y="124.264" width="29.6058" height="4.87115" fill="#009E9E"/>
<rect x="402.887" y="124.264" width="29.6058" height="4.87115" fill="#009E9E"/>
<rect x="531.178" y="114.521" width="9.86861" height="4.87115" fill="#009E9E"/>
<rect x="550.916" y="114.521" width="4.9343" height="4.87115" fill="#009E9E"/>
<rect x="555.85" y="124.264" width="4.9343" height="4.87115" fill="#009E9E"/>
<rect x="560.784" y="119.392" width="192.438" height="4.87115" fill="#009E9E"/>
<rect x="570.653" y="114.521" width="4.9343" height="4.87115" fill="#009E9E"/>
<rect x="580.522" y="124.264" width="4.9343" height="4.87115" fill="#009E9E"/>
<rect x="600.259" y="129.135" width="4.9343" height="4.87115" fill="#009E9E"/>
<rect x="590.39" y="114.521" width="9.86861" height="4.87115" fill="#009E9E"/>
<rect x="565.719" y="124.264" width="9.86861" height="4.87115" fill="#009E9E"/>
<rect x="619.996" y="114.521" width="9.86861" height="4.87115" fill="#009E9E"/>
<rect x="610.128" y="129.135" width="9.86861" height="4.87115" fill="#009E9E"/>
<rect x="629.865" y="124.264" width="9.86861" height="4.87115" fill="#009E9E"/>
<rect x="669.339" y="129.135" width="9.86861" height="4.87115" fill="#009E9E"/>
<rect x="708.813" y="124.264" width="9.86861" height="4.87115" fill="#009E9E"/>
<rect x="728.551" y="124.264" width="9.86861" height="4.87115" fill="#009E9E"/>
<rect x="649.602" y="114.521" width="14.8029" height="4.87115" fill="#009E9E"/>
<rect x="644.668" y="124.264" width="14.8029" height="4.87115" fill="#009E9E"/>
<rect x="639.733" y="114.521" width="4.9343" height="4.87115" fill="#009E9E"/>
<rect x="634.799" y="129.135" width="4.9343" height="4.87115" fill="#009E9E"/>
<rect x="679.208" y="114.521" width="29.6058" height="4.87115" fill="#009E9E"/>
<rect x="664.405" y="124.264" width="29.6058" height="4.87115" fill="#009E9E"/>
<rect x="595.325" y="124.264" width="29.6058" height="4.87115" fill="#009E9E"/>
<rect x="723.616" y="114.521" width="9.86861" height="4.87115" fill="#009E9E"/>
<rect x="743.354" y="114.521" width="4.9343" height="4.87115" fill="#009E9E"/>
<rect x="748.288" y="124.264" width="4.9343" height="4.87115" fill="#009E9E"/>
<rect x="752.771" y="119.516" width="181.229" height="4.86829" fill="#009E9E"/>
<rect x="763.091" y="114.521" width="4.9343" height="4.87115" fill="#009E9E"/>
<rect x="772.959" y="124.264" width="4.9343" height="4.87115" fill="#009E9E"/>
<rect x="792.697" y="129.135" width="4.9343" height="4.87115" fill="#009E9E"/>
<rect x="782.828" y="114.521" width="9.86861" height="4.87115" fill="#009E9E"/>
<rect x="758.156" y="124.264" width="9.86861" height="4.87115" fill="#009E9E"/>
<rect x="812.434" y="114.521" width="9.86861" height="4.87115" fill="#009E9E"/>
<rect x="802.565" y="129.135" width="9.86861" height="4.87115" fill="#009E9E"/>
<rect x="822.302" y="124.264" width="9.86861" height="4.87115" fill="#009E9E"/>
<rect x="861.777" y="129.135" width="9.86861" height="4.87115" fill="#009E9E"/>
<rect x="901.251" y="124.264" width="9.86861" height="4.87115" fill="#009E9E"/>
<rect x="920.989" y="124.264" width="9.86861" height="4.87115" fill="#009E9E"/>
<rect x="842.04" y="114.521" width="14.8029" height="4.87115" fill="#009E9E"/>
<rect x="837.105" y="124.264" width="14.8029" height="4.87115" fill="#009E9E"/>
<rect x="832.171" y="114.521" width="4.9343" height="4.87115" fill="#009E9E"/>
<rect x="827.237" y="129.135" width="4.9343" height="4.87115" fill="#009E9E"/>
<rect x="871.646" y="114.521" width="29.6058" height="4.87115" fill="#009E9E"/>
<rect x="856.843" y="124.264" width="29.6058" height="4.87115" fill="#009E9E"/>
<rect x="787.762" y="124.264" width="29.6058" height="4.87115" fill="#009E9E"/>
<rect x="916.054" y="114.521" width="9.86861" height="4.87115" fill="#009E9E"/>
<rect x="424.668" y="89.7238" width="10.3185" height="10.3185" fill="#009E9E"/>
<rect x="414.35" y="89.7238" width="10.3185" height="10.3185" fill="#009E9E"/>
<rect x="407.471" y="93.1633" width="6.87898" height="6.87898" fill="#009E9E"/>
<rect x="424.668" y="89.7238" width="10.3185" height="3.43949" fill="#29B8B8" fill-opacity="0.962426"/>
<rect x="414.35" y="89.7238" width="10.3185" height="3.43949" fill="#29B8B8" fill-opacity="0.962426"/>
<rect x="410.91" y="93.1633" width="3.43949" height="3.43949" fill="#29B8B8" fill-opacity="0.962426"/>
<rect x="431.547" y="93.1633" width="3.43949" height="3.43949" fill="#29B8B8" fill-opacity="0.962426"/>
<rect x="407.471" y="93.1633" width="3.43949" height="3.43949" fill="#29B8B8" fill-opacity="0.962426"/>
<rect x="417.789" y="86.2843" width="3.43949" height="3.43949" fill="#29B8B8" fill-opacity="0.962426"/>
<rect x="421.229" y="86.2843" width="3.43949" height="3.43949" fill="#29B8B8" fill-opacity="0.962426"/>
<rect width="7.73885" height="3.43949" transform="matrix(-1 0 0 1 442.726 96.6028)" fill="#009E9E"/>
<rect x="569.872" y="12.2975" width="19.8603" height="23.8324" fill="#A8E7F4"/>
<rect x="530.151" y="8.3252" width="3.97206" height="3.97206" fill="#026262"/>
<rect x="534.123" y="12.2975" width="3.97206" height="3.97206" fill="#026262"/>
<rect x="538.095" y="12.2975" width="3.97206" height="3.97206" fill="#026262"/>
<rect x="542.067" y="12.2975" width="3.97206" height="3.97206" fill="#026262"/>
<rect x="546.039" y="12.2975" width="3.97206" height="3.97206" fill="#026262"/>
<rect x="542.067" y="8.3252" width="3.97206" height="3.97206" fill="#026262"/>
<rect x="546.039" y="8.3252" width="3.97206" height="3.97206" fill="#026262"/>
<rect x="550.011" y="8.3252" width="3.97206" height="3.97206" fill="#026262"/>
<rect x="553.983" y="8.3252" width="3.97206" height="3.97206" fill="#026262"/>
<rect x="561.927" y="16.2692" width="3.97206" height="3.97206" fill="#026262"/>
<rect x="561.927" y="20.2415" width="3.97206" height="3.97206" fill="#026262"/>
<rect x="550.011" y="4.35339" width="3.97206" height="3.97206" fill="#026262"/>
<rect x="565.899" y="16.2692" width="3.97206" height="3.97206" fill="#026262"/>
<rect x="565.899" y="24.2136" width="3.97206" height="3.97206" fill="#026262"/>
<rect x="565.899" y="20.2415" width="3.97206" height="3.97206" fill="#026262"/>
<rect x="553.983" y="4.35339" width="3.97206" height="3.97206" fill="#026262"/>
<rect x="565.899" y="28.1859" width="3.97206" height="3.97206" fill="#026262"/>
<rect x="546.039" y="4.35339" width="3.97206" height="3.97206" fill="#026262"/>
<rect x="561.927" y="12.2975" width="3.97206" height="3.97206" fill="#026262"/>
<rect x="565.899" y="12.2975" width="3.97206" height="3.97206" fill="#026262"/>
<rect x="565.899" y="8.3252" width="3.97206" height="3.97206" fill="#026262"/>
<rect x="561.927" y="4.35339" width="3.97206" height="3.97206" fill="#026262"/>
<rect x="553.983" y="0.381287" width="3.97206" height="3.97206" fill="#026262"/>
<rect x="557.955" y="0.381287" width="3.97206" height="3.97206" fill="#026262"/>
<rect x="561.927" y="0.381287" width="3.97206" height="3.97206" fill="#026262"/>
<rect x="557.955" y="4.35339" width="3.97206" height="3.97206" fill="#026262"/>
<rect x="569.872" y="8.3252" width="3.97206" height="3.97206" fill="#026262"/>
<rect x="585.76" y="20.2415" width="3.97206" height="3.97206" fill="#29B8B8" fill-opacity="0.962426"/>
<rect x="581.788" y="28.1859" width="3.97206" height="3.97206" fill="#009E9E"/>
<rect x="573.844" y="20.2415" width="3.97206" height="3.97206" fill="#29B8B8" fill-opacity="0.962426"/>
<rect x="569.872" y="12.2975" width="3.97206" height="3.97206" fill="#026262"/>
<rect x="577.815" y="8.3252" width="3.97206" height="3.97206" fill="#026262"/>
<rect x="585.76" y="8.3252" width="3.97206" height="3.97206" fill="#026262"/>
<rect x="589.732" y="8.3252" width="3.97206" height="3.97206" fill="#026262"/>
<rect x="573.844" y="4.35339" width="3.97206" height="3.97206" fill="#026262"/>
<rect x="577.815" y="4.35339" width="3.97206" height="3.97206" fill="#026262"/>
<rect x="573.844" y="8.3252" width="3.97206" height="3.97206" fill="#026262"/>
<rect x="569.872" y="4.35339" width="3.97206" height="3.97206" fill="#026262"/>
<rect x="581.788" y="4.35339" width="3.97206" height="3.97206" fill="#026262"/>
<rect x="585.76" y="4.35339" width="3.97206" height="3.97206" fill="#026262"/>
<rect x="581.788" y="8.3252" width="3.97206" height="3.97206" fill="#026262"/>
<rect x="565.899" y="4.35339" width="3.97206" height="3.97206" fill="#29B8B8" fill-opacity="0.962426"/>
<rect x="561.927" y="8.3252" width="3.97206" height="3.97206" fill="#29B8B8" fill-opacity="0.962426"/>
<rect x="573.844" y="36.1298" width="7.94413" height="11.9162" fill="#A8E7F4"/>
<rect x="569.872" y="48.0463" width="15.8883" height="15.8883" fill="#29B8B8" fill-opacity="0.962426"/>
<rect x="581.788" y="40.1021" width="3.97206" height="7.94413" fill="#29B8B8" fill-opacity="0.962426"/>
<rect x="569.872" y="40.1021" width="3.97206" height="7.94413" fill="#29B8B8" fill-opacity="0.962426"/>
<rect x="569.872" y="63.9346" width="15.8883" height="3.97206" fill="#A8E7F4"/>
<rect x="565.899" y="67.9067" width="19.8603" height="11.9162" fill="#026262"/>
<rect x="565.899" y="79.8229" width="7.94413" height="3.97206" fill="#017171"/>
<rect x="581.788" y="71.8785" width="7.94413" height="11.9162" fill="#026262"/>
<rect x="581.788" y="83.7948" width="7.94413" height="3.97206" fill="#A8E7F4"/>
<rect x="589.732" y="40.1021" width="7.94413" height="3.97206" transform="rotate(90 589.732 40.1021)" fill="#A8E7F4"/>
<rect x="569.872" y="40.1021" width="7.94413" height="3.97206" transform="rotate(90 569.872 40.1021)" fill="#A8E7F4"/>
<rect x="589.732" y="48.0463" width="7.94413" height="3.97206" fill="#A8E7F4"/>
<rect x="561.927" y="44.0742" width="7.94413" height="3.97206" fill="#A8E7F4"/>
<rect x="561.927" y="48.0463" width="7.94413" height="3.97206" transform="rotate(90 561.927 48.0463)" fill="#A8E7F4"/>
<rect x="565.899" y="83.7948" width="3.97206" height="3.97206" fill="#A8E7F4"/>
<rect x="585.76" y="87.767" width="3.97206" height="3.97206" fill="#A8E7F4"/>
<rect x="597.676" y="44.0742" width="3.97206" height="3.97206" fill="#A8E7F4"/>
<rect x="561.927" y="55.99" width="3.97206" height="3.97206" fill="#A8E7F4"/>
<rect x="561.927" y="83.7948" width="3.97206" height="3.97206" fill="#A8E7F4"/>
<rect x="557.955" y="83.7948" width="3.97206" height="7.94413" fill="#026262"/>
<rect x="585.76" y="95.711" width="3.97206" height="3.97206" transform="rotate(-90 585.76 95.711)" fill="#A8E7F4"/>
<rect x="585.76" y="99.6829" width="3.97206" height="7.94413" transform="rotate(-90 585.76 99.6829)" fill="#026262"/>
<rect width="192.438" height="4.87115" transform="matrix(-1 0 0 1 1883.53 138.878)" fill="#088484"/>
<rect width="9.86861" height="4.87115" transform="matrix(-1 0 0 1 1824.32 134.006)" fill="#088484"/>
<rect width="9.86861" height="4.87115" transform="matrix(-1 0 0 1 1814.45 143.749)" fill="#088484"/>
<rect width="9.86861" height="4.87115" transform="matrix(-1 0 0 1 1774.97 148.62)" fill="#088484"/>
<rect width="9.86861" height="4.87115" transform="matrix(-1 0 0 1 1735.5 143.749)" fill="#088484"/>
<rect width="9.86861" height="4.87115" transform="matrix(-1 0 0 1 1715.76 143.749)" fill="#088484"/>
<rect width="14.8029" height="4.87115" transform="matrix(-1 0 0 1 1794.71 134.006)" fill="#088484"/>
<rect width="14.8029" height="4.87115" transform="matrix(-1 0 0 1 1799.65 143.749)" fill="#088484"/>
<rect width="4.9343" height="4.87115" transform="matrix(-1 0 0 1 1804.58 134.006)" fill="#088484"/>
<rect width="4.9343" height="4.87115" transform="matrix(-1 0 0 1 1809.51 148.62)" fill="#088484"/>
<rect width="29.6058" height="4.87115" transform="matrix(-1 0 0 1 1765.11 134.006)" fill="#088484"/>
<rect width="29.6058" height="4.87115" transform="matrix(-1 0 0 1 1779.91 143.749)" fill="#088484"/>
<rect width="29.6058" height="4.87115" transform="matrix(-1 0 0 1 1848.99 143.749)" fill="#088484"/>
<rect width="9.86861" height="4.87115" transform="matrix(-1 0 0 1 1720.7 134.006)" fill="#088484"/>
<rect width="4.9343" height="4.87115" transform="matrix(-1 0 0 1 1700.96 134.006)" fill="#088484"/>
<rect width="4.9343" height="4.87115" transform="matrix(-1 0 0 1 1696.03 143.749)" fill="#088484"/>
<rect width="192.438" height="4.87115" transform="matrix(-1 0 0 1 1691.09 138.877)" fill="#088484"/>
<rect width="4.9343" height="4.87115" transform="matrix(-1 0 0 1 1681.22 134.006)" fill="#088484"/>
<rect width="4.9343" height="4.87115" transform="matrix(-1 0 0 1 1671.35 143.748)" fill="#088484"/>
<rect width="4.9343" height="4.87115" transform="matrix(-1 0 0 1 1651.62 148.62)" fill="#088484"/>
<rect width="9.86861" height="4.87115" transform="matrix(-1 0 0 1 1661.49 134.006)" fill="#088484"/>
<rect width="9.86861" height="4.87115" transform="matrix(-1 0 0 1 1686.16 143.748)" fill="#088484"/>
<rect width="9.86861" height="4.87115" transform="matrix(-1 0 0 1 1631.88 134.006)" fill="#088484"/>
<rect width="9.86861" height="4.87115" transform="matrix(-1 0 0 1 1641.75 148.62)" fill="#088484"/>
<rect width="9.86861" height="4.87115" transform="matrix(-1 0 0 1 1622.01 143.748)" fill="#088484"/>
<rect width="9.86861" height="4.87115" transform="matrix(-1 0 0 1 1582.54 148.62)" fill="#088484"/>
<rect width="9.86861" height="4.87115" transform="matrix(-1 0 0 1 1543.06 143.748)" fill="#088484"/>
<rect width="9.86861" height="4.87115" transform="matrix(-1 0 0 1 1523.33 143.748)" fill="#088484"/>
<rect width="14.8029" height="4.87115" transform="matrix(-1 0 0 1 1602.27 134.006)" fill="#088484"/>
<rect width="14.8029" height="4.87115" transform="matrix(-1 0 0 1 1607.21 143.748)" fill="#088484"/>
<rect width="4.9343" height="4.87115" transform="matrix(-1 0 0 1 1612.14 134.006)" fill="#088484"/>
<rect width="4.9343" height="4.87115" transform="matrix(-1 0 0 1 1617.08 148.62)" fill="#088484"/>
<rect width="29.6058" height="4.87115" transform="matrix(-1 0 0 1 1572.67 134.006)" fill="#088484"/>
<rect width="29.6058" height="4.87115" transform="matrix(-1 0 0 1 1587.47 143.748)" fill="#088484"/>
<rect width="29.6058" height="4.87115" transform="matrix(-1 0 0 1 1656.55 143.748)" fill="#088484"/>
<rect width="9.86861" height="4.87115" transform="matrix(-1 0 0 1 1528.26 134.006)" fill="#088484"/>
<rect width="4.9343" height="4.87115" transform="matrix(-1 0 0 1 1508.52 134.006)" fill="#088484"/>
<rect width="4.9343" height="4.87115" transform="matrix(-1 0 0 1 1503.59 143.748)" fill="#088484"/>
<rect width="192.438" height="4.87115" transform="matrix(-1 0 0 1 1498.65 138.877)" fill="#088484"/>
<rect width="4.9343" height="4.87115" transform="matrix(-1 0 0 1 1488.78 134.006)" fill="#088484"/>
<rect width="4.9343" height="4.87115" transform="matrix(-1 0 0 1 1478.92 143.749)" fill="#088484"/>
<rect width="4.9343" height="4.87115" transform="matrix(-1 0 0 1 1459.18 148.62)" fill="#088484"/>
<rect width="9.86861" height="4.87115" transform="matrix(-1 0 0 1 1469.05 134.006)" fill="#088484"/>
<rect width="9.86861" height="4.87115" transform="matrix(-1 0 0 1 1493.72 143.749)" fill="#088484"/>
<rect width="9.86861" height="4.87115" transform="matrix(-1 0 0 1 1439.44 134.006)" fill="#088484"/>
<rect width="9.86861" height="4.87115" transform="matrix(-1 0 0 1 1449.31 148.62)" fill="#088484"/>
<rect width="9.86861" height="4.87115" transform="matrix(-1 0 0 1 1429.57 143.749)" fill="#088484"/>
<rect width="9.86861" height="4.87115" transform="matrix(-1 0 0 1 1390.1 148.62)" fill="#088484"/>
<rect width="9.86861" height="4.87115" transform="matrix(-1 0 0 1 1361.93 143.749)" fill="#088484"/>
<rect width="9.86861" height="4.87115" transform="matrix(-1 0 0 1 1337.61 143.749)" fill="#088484"/>
<rect width="14.8029" height="4.87115" transform="matrix(-1 0 0 1 1409.84 134.006)" fill="#088484"/>
<rect width="14.8029" height="4.87115" transform="matrix(-1 0 0 1 1414.77 143.749)" fill="#088484"/>
<rect width="4.9343" height="4.87115" transform="matrix(-1 0 0 1 1419.7 134.006)" fill="#088484"/>
<rect width="4.9343" height="4.87115" transform="matrix(-1 0 0 1 1424.64 148.62)" fill="#088484"/>
<rect width="29.6058" height="4.87115" transform="matrix(-1 0 0 1 1380.23 134.006)" fill="#088484"/>
<rect width="29.6058" height="4.87115" transform="matrix(-1 0 0 1 1395.03 143.749)" fill="#088484"/>
<rect width="29.6058" height="4.87115" transform="matrix(-1 0 0 1 1464.11 143.749)" fill="#088484"/>
<rect width="9.86861" height="4.87115" transform="matrix(-1 0 0 1 1335.82 134.006)" fill="#088484"/>
<rect width="4.9343" height="4.87115" transform="matrix(-1 0 0 1 1316.08 134.006)" fill="#088484"/>
<rect width="4.9343" height="4.87115" transform="matrix(-1 0 0 1 1311.15 143.749)" fill="#088484"/>
<rect width="192.438" height="4.87115" transform="matrix(-1 0 0 1 1306.22 138.877)" fill="#088484"/>
<rect width="4.9343" height="4.87115" transform="matrix(-1 0 0 1 1296.35 134.006)" fill="#088484"/>
<rect width="4.9343" height="4.87115" transform="matrix(-1 0 0 1 1286.48 143.749)" fill="#088484"/>
<rect width="4.9343" height="4.87115" transform="matrix(-1 0 0 1 1266.74 148.62)" fill="#088484"/>
<rect width="9.86861" height="4.87115" transform="matrix(-1 0 0 1 1276.61 134.006)" fill="#088484"/>
<rect width="24.3333" height="4.87115" transform="matrix(-1 0 0 1 1307.67 143.749)" fill="#088484"/>
<rect width="9.86861" height="4.87115" transform="matrix(-1 0 0 1 1247 134.006)" fill="#088484"/>
<rect width="9.86861" height="4.87115" transform="matrix(-1 0 0 1 1256.87 148.62)" fill="#088484"/>
<rect width="9.86861" height="4.87115" transform="matrix(-1 0 0 1 1237.14 143.749)" fill="#088484"/>
<rect width="9.86861" height="4.87115" transform="matrix(-1 0 0 1 1197.66 148.62)" fill="#088484"/>
<rect width="9.86861" height="4.87115" transform="matrix(-1 0 0 1 1158.19 143.749)" fill="#088484"/>
<rect width="9.86861" height="4.87115" transform="matrix(-1 0 0 1 1138.45 143.749)" fill="#088484"/>
<rect width="14.8029" height="4.87115" transform="matrix(-1 0 0 1 1217.4 134.006)" fill="#088484"/>
<rect width="14.8029" height="4.87115" transform="matrix(-1 0 0 1 1222.33 143.749)" fill="#088484"/>
<rect width="4.9343" height="4.87115" transform="matrix(-1 0 0 1 1227.27 134.006)" fill="#088484"/>
<rect width="4.9343" height="4.87115" transform="matrix(-1 0 0 1 1232.2 148.62)" fill="#088484"/>
<rect width="29.6058" height="4.87115" transform="matrix(-1 0 0 1 1187.79 134.006)" fill="#088484"/>
<rect width="29.6058" height="4.87115" transform="matrix(-1 0 0 1 1202.6 143.749)" fill="#088484"/>
<rect width="29.6058" height="4.87115" transform="matrix(-1 0 0 1 1271.68 143.749)" fill="#088484"/>
<rect width="9.86861" height="4.87115" transform="matrix(-1 0 0 1 1143.38 134.006)" fill="#088484"/>
<rect width="4.9343" height="4.87115" transform="matrix(-1 0 0 1 1123.65 134.006)" fill="#088484"/>
<rect width="4.9343" height="4.87115" transform="matrix(-1 0 0 1 1118.71 143.749)" fill="#088484"/>
<rect width="181.229" height="4.86829" transform="matrix(-1 0 0 1 1114.23 139)" fill="#088484"/>
<rect width="4.9343" height="4.87115" transform="matrix(-1 0 0 1 1103.91 134.006)" fill="#088484"/>
<rect width="4.9343" height="4.87115" transform="matrix(-1 0 0 1 1094.04 143.749)" fill="#088484"/>
<rect width="4.9343" height="4.87115" transform="matrix(-1 0 0 1 1074.3 148.62)" fill="#088484"/>
<rect width="9.86861" height="4.87115" transform="matrix(-1 0 0 1 1084.17 134.006)" fill="#088484"/>
<rect width="9.86861" height="4.87115" transform="matrix(-1 0 0 1 1108.84 143.749)" fill="#088484"/>
<rect width="9.86861" height="4.87115" transform="matrix(-1 0 0 1 1054.57 134.006)" fill="#088484"/>
<rect width="9.86861" height="4.87115" transform="matrix(-1 0 0 1 1064.43 148.62)" fill="#088484"/>
<rect width="17.5043" height="4.87115" transform="matrix(-1 0 0 1 1044.7 143.749)" fill="#088484"/>
<rect width="9.86861" height="4.87115" transform="matrix(-1 0 0 1 1005.22 148.62)" fill="#088484"/>
<rect width="9.86861" height="4.87115" transform="matrix(-1 0 0 1 965.749 143.749)" fill="#088484"/>
<rect width="13.0114" height="4.87115" transform="matrix(-1 0 0 1 946.011 143.749)" fill="#088484"/>
<rect width="14.8029" height="4.87115" transform="matrix(-1 0 0 1 1024.96 134.006)" fill="#088484"/>
<rect width="14.8029" height="4.87115" transform="matrix(-1 0 0 1 1029.89 143.749)" fill="#088484"/>
<rect width="4.9343" height="4.87115" transform="matrix(-1 0 0 1 1034.83 134.006)" fill="#088484"/>
<rect width="6.70038" height="4.87115" transform="matrix(-1 0 0 1 1027.19 148.62)" fill="#088484"/>
<rect width="29.6058" height="4.87115" transform="matrix(-1 0 0 1 995.354 134.006)" fill="#088484"/>
<rect width="29.6058" height="4.87115" transform="matrix(-1 0 0 1 1010.16 143.749)" fill="#088484"/>
<rect width="29.6058" height="4.87115" transform="matrix(-1 0 0 1 1079.24 143.749)" fill="#088484"/>
<rect width="9.86861" height="4.87115" transform="matrix(-1 0 0 1 950.946 134.006)" fill="#088484"/>
<rect x="933" y="100.028" width="950" height="41" fill="#2FBABB"/>
<rect x="933" y="121.028" width="950" height="20" fill="#088484"/>
<rect x="933" y="119.393" width="192.438" height="4.87115" fill="#009E9E"/>
<rect x="942.869" y="114.521" width="4.9343" height="4.87115" fill="#009E9E"/>
<rect x="952.737" y="124.264" width="4.9343" height="4.87115" fill="#009E9E"/>
<rect x="972.475" y="129.135" width="4.9343" height="4.87115" fill="#009E9E"/>
<rect x="962.606" y="114.521" width="9.86861" height="4.87115" fill="#009E9E"/>
<rect x="937.934" y="124.264" width="9.86861" height="4.87115" fill="#009E9E"/>
<rect x="992.212" y="114.521" width="9.86861" height="4.87115" fill="#009E9E"/>
<rect x="982.343" y="129.135" width="9.86861" height="4.87115" fill="#009E9E"/>
<rect x="1002.08" y="124.264" width="9.86861" height="4.87115" fill="#009E9E"/>
<rect x="1041.55" y="129.135" width="9.86861" height="4.87115" fill="#009E9E"/>
<rect x="1081.03" y="124.264" width="9.86861" height="4.87115" fill="#009E9E"/>
<rect x="1100.77" y="124.264" width="9.86861" height="4.87115" fill="#009E9E"/>
<rect x="1021.82" y="114.521" width="14.8029" height="4.87115" fill="#009E9E"/>
<rect x="1016.88" y="124.264" width="14.8029" height="4.87115" fill="#009E9E"/>
<rect x="1011.95" y="114.521" width="4.9343" height="4.87115" fill="#009E9E"/>
<rect x="1007.01" y="129.135" width="4.9343" height="4.87115" fill="#009E9E"/>
<rect x="1051.42" y="114.521" width="29.6058" height="4.87115" fill="#009E9E"/>
<rect x="1036.62" y="124.264" width="29.6058" height="4.87115" fill="#009E9E"/>
<rect x="967.54" y="124.264" width="29.6058" height="4.87115" fill="#009E9E"/>
<rect x="1095.83" y="114.521" width="9.86861" height="4.87115" fill="#009E9E"/>
<rect x="1115.57" y="114.521" width="4.9343" height="4.87115" fill="#009E9E"/>
<rect x="1120.5" y="124.264" width="4.9343" height="4.87115" fill="#009E9E"/>
<rect x="1125.44" y="119.392" width="192.438" height="4.87115" fill="#009E9E"/>
<rect x="1135.31" y="114.521" width="4.9343" height="4.87115" fill="#009E9E"/>
<rect x="1145.18" y="124.263" width="4.9343" height="4.87115" fill="#009E9E"/>
<rect x="1164.91" y="129.135" width="4.9343" height="4.87115" fill="#009E9E"/>
<rect x="1155.04" y="114.521" width="9.86861" height="4.87115" fill="#009E9E"/>
<rect x="1130.37" y="124.263" width="9.86861" height="4.87115" fill="#009E9E"/>
<rect x="1184.65" y="114.521" width="9.86861" height="4.87115" fill="#009E9E"/>
<rect x="1174.78" y="129.135" width="9.86861" height="4.87115" fill="#009E9E"/>
<rect x="1194.52" y="124.263" width="9.86861" height="4.87115" fill="#009E9E"/>
<rect x="1233.99" y="129.135" width="9.86861" height="4.87115" fill="#009E9E"/>
<rect x="1273.47" y="124.263" width="9.86861" height="4.87115" fill="#009E9E"/>
<rect x="1293.2" y="124.263" width="9.86861" height="4.87115" fill="#009E9E"/>
<rect x="1214.26" y="114.521" width="14.8029" height="4.87115" fill="#009E9E"/>
<rect x="1209.32" y="124.263" width="14.8029" height="4.87115" fill="#009E9E"/>
<rect x="1204.39" y="114.521" width="4.9343" height="4.87115" fill="#009E9E"/>
<rect x="1199.45" y="129.135" width="4.9343" height="4.87115" fill="#009E9E"/>
<rect x="1243.86" y="114.521" width="29.6058" height="4.87115" fill="#009E9E"/>
<rect x="1229.06" y="124.263" width="29.6058" height="4.87115" fill="#009E9E"/>
<rect x="1159.98" y="124.263" width="29.6058" height="4.87115" fill="#009E9E"/>
<rect x="1288.27" y="114.521" width="9.86861" height="4.87115" fill="#009E9E"/>
<rect x="1308.01" y="114.521" width="4.9343" height="4.87115" fill="#009E9E"/>
<rect x="1312.94" y="124.263" width="4.9343" height="4.87115" fill="#009E9E"/>
<rect x="1317.88" y="119.392" width="192.438" height="4.87115" fill="#009E9E"/>
<rect x="1327.74" y="114.521" width="4.9343" height="4.87115" fill="#009E9E"/>
<rect x="1337.61" y="124.264" width="4.9343" height="4.87115" fill="#009E9E"/>
<rect x="1357.35" y="129.135" width="4.9343" height="4.87115" fill="#009E9E"/>
<rect x="1347.48" y="114.521" width="9.86861" height="4.87115" fill="#009E9E"/>
<rect x="1322.81" y="124.264" width="9.86861" height="4.87115" fill="#009E9E"/>
<rect x="1377.09" y="114.521" width="9.86861" height="4.87115" fill="#009E9E"/>
<rect x="1367.22" y="129.135" width="9.86861" height="4.87115" fill="#009E9E"/>
<rect x="1386.96" y="124.264" width="9.86861" height="4.87115" fill="#009E9E"/>
<rect x="1426.43" y="129.135" width="9.86861" height="4.87115" fill="#009E9E"/>
<rect x="1465.9" y="124.264" width="9.86861" height="4.87115" fill="#009E9E"/>
<rect x="1485.64" y="124.264" width="9.86861" height="4.87115" fill="#009E9E"/>
<rect x="1406.69" y="114.521" width="14.8029" height="4.87115" fill="#009E9E"/>
<rect x="1401.76" y="124.264" width="14.8029" height="4.87115" fill="#009E9E"/>
<rect x="1396.82" y="114.521" width="4.9343" height="4.87115" fill="#009E9E"/>
<rect x="1391.89" y="129.135" width="4.9343" height="4.87115" fill="#009E9E"/>
<rect x="1436.3" y="114.521" width="29.6058" height="4.87115" fill="#009E9E"/>
<rect x="1421.5" y="124.264" width="29.6058" height="4.87115" fill="#009E9E"/>
<rect x="1352.42" y="124.264" width="29.6058" height="4.87115" fill="#009E9E"/>
<rect x="1480.71" y="114.521" width="9.86861" height="4.87115" fill="#009E9E"/>
<rect x="1500.44" y="114.521" width="4.9343" height="4.87115" fill="#009E9E"/>
<rect x="1505.38" y="124.264" width="4.9343" height="4.87115" fill="#009E9E"/>
<rect x="1510.31" y="119.392" width="192.438" height="4.87115" fill="#009E9E"/>
<rect x="1520.18" y="114.521" width="4.9343" height="4.87115" fill="#009E9E"/>
<rect x="1530.05" y="124.264" width="4.9343" height="4.87115" fill="#009E9E"/>
<rect x="1549.79" y="129.135" width="4.9343" height="4.87115" fill="#009E9E"/>
<rect x="1539.92" y="114.521" width="9.86861" height="4.87115" fill="#009E9E"/>
<rect x="1515.25" y="124.264" width="9.86861" height="4.87115" fill="#009E9E"/>
<rect x="1569.53" y="114.521" width="9.86861" height="4.87115" fill="#009E9E"/>
<rect x="1559.66" y="129.135" width="9.86861" height="4.87115" fill="#009E9E"/>
<rect x="1579.39" y="124.264" width="9.86861" height="4.87115" fill="#009E9E"/>
<rect x="1618.87" y="129.135" width="9.86861" height="4.87115" fill="#009E9E"/>
<rect x="1658.34" y="124.264" width="9.86861" height="4.87115" fill="#009E9E"/>
<rect x="1678.08" y="124.264" width="9.86861" height="4.87115" fill="#009E9E"/>
<rect x="1599.13" y="114.521" width="14.8029" height="4.87115" fill="#009E9E"/>
<rect x="1594.2" y="124.264" width="14.8029" height="4.87115" fill="#009E9E"/>
<rect x="1589.26" y="114.521" width="4.9343" height="4.87115" fill="#009E9E"/>
<rect x="1584.33" y="129.135" width="4.9343" height="4.87115" fill="#009E9E"/>
<rect x="1628.74" y="114.521" width="29.6058" height="4.87115" fill="#009E9E"/>
<rect x="1613.93" y="124.264" width="29.6058" height="4.87115" fill="#009E9E"/>
<rect x="1544.85" y="124.264" width="29.6058" height="4.87115" fill="#009E9E"/>
<rect x="1673.15" y="114.521" width="9.86861" height="4.87115" fill="#009E9E"/>
<rect x="1692.88" y="114.521" width="4.9343" height="4.87115" fill="#009E9E"/>
<rect x="1697.82" y="124.264" width="4.9343" height="4.87115" fill="#009E9E"/>
<rect x="1702.3" y="119.516" width="181.229" height="4.86829" fill="#009E9E"/>
<rect x="1712.62" y="114.521" width="4.9343" height="4.87115" fill="#009E9E"/>
<rect x="1722.49" y="124.264" width="4.9343" height="4.87115" fill="#009E9E"/>
<rect x="1742.23" y="129.135" width="4.9343" height="4.87115" fill="#009E9E"/>
<rect x="1732.36" y="114.521" width="9.86861" height="4.87115" fill="#009E9E"/>
<rect x="1707.69" y="124.264" width="9.86861" height="4.87115" fill="#009E9E"/>
<rect x="1761.96" y="114.521" width="9.86861" height="4.87115" fill="#009E9E"/>
<rect x="1752.09" y="129.135" width="9.86861" height="4.87115" fill="#009E9E"/>
<rect x="1771.83" y="124.264" width="9.86861" height="4.87115" fill="#009E9E"/>
<rect x="1811.31" y="129.135" width="9.86861" height="4.87115" fill="#009E9E"/>
<rect x="1791.57" y="114.521" width="14.8029" height="4.87115" fill="#009E9E"/>
<rect x="1786.63" y="124.264" width="14.8029" height="4.87115" fill="#009E9E"/>
<rect x="1781.7" y="114.521" width="4.9343" height="4.87115" fill="#009E9E"/>
<rect x="1776.77" y="129.135" width="4.9343" height="4.87115" fill="#009E9E"/>
<rect x="1821.17" y="114.521" width="29.6058" height="4.87115" fill="#009E9E"/>
<rect x="1806.37" y="124.264" width="29.6058" height="4.87115" fill="#009E9E"/>
<rect x="1737.29" y="124.264" width="29.6058" height="4.87115" fill="#009E9E"/>
<rect x="356.686" y="148.619" width="9.49841" height="4.3078" transform="rotate(90 356.686 148.619)" fill="#009E9E"/>
<rect width="9.49841" height="4.3078" transform="matrix(6.43669e-08 1 1 -2.96843e-08 299.942 151.561)" fill="#088484"/>
<rect width="6.11511" height="4.3078" transform="matrix(6.43669e-08 1 1 -2.96843e-08 295.634 161.06)" fill="#009E9E"/>
<rect x="360.994" y="158.118" width="6.11511" height="4.3078" transform="rotate(90 360.994 158.118)" fill="#2FBABB"/>
<rect width="9.84424" height="4.3078" transform="matrix(6.43669e-08 1 1 -2.96843e-08 201.569 148.619)" fill="#009E9E"/>
<rect width="9.49841" height="4.3078" transform="matrix(6.43669e-08 1 1 -2.96843e-08 174.407 149.631)" fill="#009E9E"/>
<rect width="5.42334" height="21.2883" transform="matrix(6.43669e-08 1 1 -2.96843e-08 167.632 148.957)" fill="#009E9E"/>
<rect width="5.42334" height="24.0764" transform="matrix(6.43669e-08 1 1 -2.96843e-08 163.019 143.533)" fill="#088484"/>
<rect width="7.92212" height="4.3078" transform="matrix(6.43669e-08 1 1 -2.96843e-08 184.612 145.284)" fill="#009E9E"/>
<rect width="7.92212" height="4.3078" transform="matrix(6.43669e-08 1 1 -2.96843e-08 172.253 144.995)" fill="#009E9E"/>
<rect x="1029.6" y="143.869" width="8.78192" height="9.31457" transform="rotate(90 1029.6 143.869)" fill="#088484"/>
<rect x="1029.6" y="152.651" width="8.78192" height="4.3078" transform="rotate(90 1029.6 152.651)" fill="#088484"/>
<rect x="1025.77" y="161.433" width="7.75787" height="4.3078" transform="rotate(90 1025.77 161.433)" fill="#009E9E"/>
<rect x="1040.69" y="148.619" width="9.49841" height="4.3078" transform="rotate(90 1040.69 148.619)" fill="#009E9E"/>
<rect width="9.49841" height="4.3078" transform="matrix(6.43669e-08 1 1 -2.96843e-08 961.441 148.62)" fill="#088484"/>
<rect width="6.11511" height="4.3078" transform="matrix(6.43669e-08 1 1 -2.96843e-08 957.133 158.118)" fill="#009E9E"/>
<rect x="1045" y="158.118" width="6.11511" height="4.3078" transform="rotate(90 1045 158.118)" fill="#2FBABB"/>
<rect width="9.84424" height="4.93417" transform="matrix(6.43669e-08 1 1 -2.96843e-08 884.657 148.619)" fill="#009E9E"/>
<rect width="9.49841" height="4.3078" transform="matrix(6.43669e-08 1 1 -2.96843e-08 858.412 149.631)" fill="#009E9E"/>
<rect width="5.42334" height="21.2883" transform="matrix(6.43669e-08 1 1 -2.96843e-08 851.637 148.344)" fill="#009E9E"/>
<rect width="5.08618" height="24.0764" transform="matrix(6.43669e-08 1 1 -2.96843e-08 846.695 143.533)" fill="#088484"/>
<rect width="8.48315" height="6.17096" transform="matrix(6.43669e-08 1 1 -2.96843e-08 868.617 145.284)" fill="#009E9E"/>
<rect width="7.92212" height="4.3078" transform="matrix(6.43669e-08 1 1 -2.96843e-08 856.258 144.995)" fill="#009E9E"/>
<rect width="8.78192" height="9.31457" transform="matrix(4.37114e-08 1 1 -4.37114e-08 1292.62 148.085)" fill="#088484"/>
<rect width="8.78192" height="4.3078" transform="matrix(6.43669e-08 1 1 -2.96843e-08 1292.62 156.867)" fill="#088484"/>
<rect width="7.75787" height="4.3078" transform="matrix(6.43669e-08 1 1 -2.96843e-08 1296.93 162.304)" fill="#009E9E"/>
<rect width="9.49841" height="4.3078" transform="matrix(6.43669e-08 1 1 -2.96843e-08 1281.53 148.085)" fill="#009E9E"/>
<rect x="1361.93" y="148.086" width="9.49841" height="4.3078" transform="rotate(90 1361.93 148.086)" fill="#088484"/>
<rect x="1366.24" y="157.584" width="6.11511" height="4.3078" transform="rotate(90 1366.24 157.584)" fill="#009E9E"/>
<rect width="6.11511" height="4.3078" transform="matrix(6.43669e-08 1 1 -2.96843e-08 1277.23 157.583)" fill="#2FBABB"/>
<rect x="1419.7" y="153.491" width="9.84424" height="4.93417" transform="rotate(90 1419.7 153.491)" fill="#009E9E"/>
<rect x="1506.67" y="149.846" width="9.49841" height="4.3078" transform="rotate(90 1506.67 149.846)" fill="#009E9E"/>
<rect x="1513.45" y="148.559" width="5.42334" height="21.2883" transform="rotate(90 1513.45 148.559)" fill="#009E9E"/>
<rect x="1518.39" y="143.748" width="5.08618" height="26.2301" transform="rotate(90 1518.39 143.748)" fill="#088484"/>
<rect x="1496.47" y="145.499" width="8.48315" height="6.17096" transform="rotate(90 1496.47 145.499)" fill="#009E9E"/>
<rect x="1508.83" y="145.211" width="7.92212" height="4.3078" transform="rotate(90 1508.83 145.211)" fill="#009E9E"/>
<rect x="1601.72" y="140.079" width="8.78192" height="9.31457" transform="rotate(90 1601.72 140.079)" fill="#088484"/>
<rect x="1601.72" y="148.861" width="8.78192" height="4.3078" transform="rotate(90 1601.72 148.861)" fill="#088484"/>
<rect x="1606.03" y="155.577" width="7.75787" height="4.3078" transform="rotate(90 1606.03 155.577)" fill="#009E9E"/>
</svg>
