<svg width="1547" height="358" viewBox="0 0 1547 358" fill="none" xmlns="http://www.w3.org/2000/svg">
<rect x="5.34863" y="342.61" width="142.886" height="5.34868" fill="#2FBABB"/>
<rect x="5.34863" y="337.261" width="137.538" height="5.34868" fill="#A8E7F4"/>
<rect x="5.34863" y="331.913" width="127.604" height="5.34868" fill="#A8E7F4"/>
<rect x="4.58459" y="327.328" width="123.02" height="5.34868" fill="#A8E7F4"/>
<rect x="97.0404" y="321.98" width="5.34868" height="5.34868" fill="#2FBABB"/>
<rect x="91.6918" y="327.328" width="5.34868" height="5.34868" fill="#2FBABB"/>
<rect x="91.6918" y="332.677" width="10.6974" height="4.58459" fill="#2FBABB"/>
<rect x="91.6918" y="337.261" width="15.282" height="5.34868" fill="#2FBABB"/>
<rect x="117.671" y="337.261" width="5.34868" height="5.34868" fill="#2FBABB"/>
<rect x="6.87683" y="317.395" width="29.0357" height="9.93327" fill="#A8E7F4"/>
<rect x="14.5178" y="312.046" width="16.0461" height="6.11278" fill="#A8E7F4"/>
<rect x="14.5178" y="306.697" width="10.6974" height="5.34868" fill="#A8E7F4"/>
<rect x="5.34863" y="337.261" width="15.282" height="5.34868" fill="#2FBABB"/>
<rect y="331.913" width="15.282" height="5.34868" fill="#2FBABB"/>
<rect y="326.564" width="9.93327" height="5.34868" fill="#2FBABB"/>
<rect y="321.215" width="9.93327" height="5.34868" fill="#2FBABB"/>
<rect y="317.395" width="9.93327" height="3.82049" fill="#2FBABB"/>
<rect x="5.34863" y="312.046" width="9.16918" height="5.34868" fill="#2FBABB"/>
<rect x="46.6099" y="315.866" width="14.5179" height="12.2256" fill="#A8E7F4"/>
<rect x="77.174" y="306.697" width="35.1485" height="20.6306" fill="#A8E7F4"/>
<rect x="45.8458" y="337.261" width="9.93327" height="5.34868" fill="#2FBABB"/>
<rect x="41.2612" y="331.913" width="9.93327" height="5.34868" fill="#2FBABB"/>
<rect x="41.2612" y="321.215" width="9.93327" height="5.34868" fill="#2FBABB"/>
<rect x="45.8458" y="315.867" width="9.93327" height="5.34868" fill="#2FBABB"/>
<rect x="41.2612" y="326.564" width="5.34868" height="5.34868" fill="#2FBABB"/>
<rect x="108.502" y="321.979" width="13.7538" height="6.11278" fill="#A8E7F4"/>
<rect x="88.6354" y="301.349" width="13.7538" height="6.11278" fill="#A8E7F4"/>
<rect x="89.3994" y="296" width="7.64098" height="5.34868" fill="#A8E7F4"/>
<rect x="71.8252" y="306.698" width="14.5179" height="5.34868" fill="#2FBABB"/>
<rect x="77.174" y="301.349" width="14.5179" height="5.34868" fill="#2FBABB"/>
<rect x="71.8252" y="312.046" width="10.6974" height="5.34868" fill="#2FBABB"/>
<rect x="66.4766" y="317.395" width="10.6974" height="5.34868" fill="#2FBABB"/>
<rect x="66.4766" y="322.744" width="10.6974" height="5.34868" fill="#2FBABB"/>
<rect x="71.8252" y="328.092" width="5.34868" height="5.34868" fill="#2FBABB"/>
<rect x="86.3431" y="296" width="5.34868" height="5.34868" fill="#2FBABB"/>
<rect width="131.394" height="4.91848" transform="matrix(-1 0 0 1 1541.39 160.861)" fill="#2FBABB"/>
<rect width="126.475" height="4.91848" transform="matrix(-1 0 0 1 1541.39 155.943)" fill="#A8E7F4"/>
<rect width="117.341" height="4.91848" transform="matrix(-1 0 0 1 1541.39 151.024)" fill="#A8E7F4"/>
<rect width="113.125" height="4.91848" transform="matrix(-1 0 0 1 1542.1 146.808)" fill="#A8E7F4"/>
<rect width="4.91848" height="4.91848" transform="matrix(-1 0 0 1 1457.08 141.89)" fill="#2FBABB"/>
<rect width="4.91848" height="4.91848" transform="matrix(-1 0 0 1 1462 146.808)" fill="#2FBABB"/>
<rect width="9.83696" height="4.21584" transform="matrix(-1 0 0 1 1462 151.727)" fill="#2FBABB"/>
<rect width="14.0528" height="4.91848" transform="matrix(-1 0 0 1 1462 155.943)" fill="#2FBABB"/>
<rect width="4.91848" height="4.91848" transform="matrix(-1 0 0 1 1438.11 155.943)" fill="#2FBABB"/>
<rect width="26.7003" height="9.13432" transform="matrix(-1 0 0 1 1539.99 137.674)" fill="#A8E7F4"/>
<rect width="14.7554" height="5.62112" transform="matrix(-1 0 0 1 1532.96 132.755)" fill="#A8E7F4"/>
<rect width="9.83696" height="4.91848" transform="matrix(-1 0 0 1 1532.96 127.837)" fill="#A8E7F4"/>
<rect width="14.0528" height="4.91848" transform="matrix(-1 0 0 1 1541.39 155.943)" fill="#2FBABB"/>
<rect width="14.0528" height="4.91848" transform="matrix(-1 0 0 1 1546.31 151.024)" fill="#2FBABB"/>
<rect width="9.13432" height="4.91848" transform="matrix(-1 0 0 1 1546.31 146.106)" fill="#2FBABB"/>
<rect width="9.13432" height="4.91848" transform="matrix(-1 0 0 1 1546.31 141.187)" fill="#2FBABB"/>
<rect width="9.13432" height="3.5132" transform="matrix(-1 0 0 1 1546.31 137.674)" fill="#2FBABB"/>
<rect width="8.43168" height="4.91848" transform="matrix(-1 0 0 1 1541.39 132.755)" fill="#2FBABB"/>
<rect width="13.3502" height="11.2422" transform="matrix(-1 0 0 1 1503.45 136.269)" fill="#A8E7F4"/>
<rect width="32.3215" height="18.9713" transform="matrix(-1 0 0 1 1475.35 127.837)" fill="#A8E7F4"/>
<rect width="9.13432" height="4.91848" transform="matrix(-1 0 0 1 1504.15 155.943)" fill="#2FBABB"/>
<rect width="9.13432" height="4.91848" transform="matrix(-1 0 0 1 1508.37 151.024)" fill="#2FBABB"/>
<rect width="9.13432" height="4.91848" transform="matrix(-1 0 0 1 1508.37 141.187)" fill="#2FBABB"/>
<rect width="9.13432" height="4.91848" transform="matrix(-1 0 0 1 1504.15 136.269)" fill="#2FBABB"/>
<rect width="4.91848" height="4.91848" transform="matrix(-1 0 0 1 1508.37 146.106)" fill="#2FBABB"/>
<rect width="12.6475" height="5.62112" transform="matrix(-1 0 0 1 1446.54 141.89)" fill="#A8E7F4"/>
<rect width="12.6475" height="5.62112" transform="matrix(-1 0 0 1 1464.81 122.918)" fill="#A8E7F4"/>
<rect width="7.0264" height="4.91848" transform="matrix(-1 0 0 1 1464.1 118)" fill="#A8E7F4"/>
<rect width="13.3502" height="4.91848" transform="matrix(-1 0 0 1 1480.26 127.837)" fill="#2FBABB"/>
<rect width="13.3502" height="4.91848" transform="matrix(-1 0 0 1 1475.35 122.918)" fill="#2FBABB"/>
<rect width="9.83696" height="4.91848" transform="matrix(-1 0 0 1 1480.26 132.755)" fill="#2FBABB"/>
<rect width="9.83696" height="4.91848" transform="matrix(-1 0 0 1 1485.18 137.674)" fill="#2FBABB"/>
<rect width="9.83696" height="4.91848" transform="matrix(-1 0 0 1 1485.18 142.592)" fill="#2FBABB"/>
<rect width="4.91848" height="4.91848" transform="matrix(-1 0 0 1 1480.26 147.511)" fill="#2FBABB"/>
<rect width="4.91848" height="4.91848" transform="matrix(-1 0 0 1 1466.91 118)" fill="#2FBABB"/>
<rect x="1392.05" y="325.647" width="5.40473" height="9.72852" fill="#A8E7F4"/>
<rect x="1419.43" y="328.53" width="14.4126" height="10.8095" fill="#A8E7F4"/>
<rect x="1392.05" y="333.214" width="29.1856" height="9.72852" fill="#A8E7F4"/>
<rect x="1428.08" y="337.178" width="15.8539" height="5.04442" fill="#A8E7F4"/>
<rect x="1396.37" y="317" width="14.4126" height="35.3109" fill="#A8E7F4"/>
<rect x="1348.09" y="342.222" width="15.1333" height="5.04442" fill="#A8E7F4"/>
<rect x="1371.87" y="342.222" width="72.0631" height="5.04442" fill="#A8E7F4"/>
<rect x="1350.97" y="347.267" width="98.0058" height="5.04442" fill="#A8E7F4"/>
<rect x="1338" y="352.311" width="110.977" height="5.04442" fill="#2FBABB"/>
<rect x="1343.04" y="347.267" width="15.1333" height="5.04442" fill="#2FBABB"/>
<rect x="1383.4" y="342.222" width="10.0888" height="5.04442" fill="#2FBABB"/>
<rect x="1381.24" y="332.133" width="12.2507" height="5.04442" fill="#2FBABB"/>
<rect x="1384.84" y="327.089" width="8.64757" height="5.04442" fill="#2FBABB"/>
<rect x="1378.36" y="347.267" width="10.0888" height="5.04442" fill="#2FBABB"/>
<rect x="1413.67" y="347.267" width="10.0888" height="5.04442" fill="#2FBABB"/>
<rect x="1418.71" y="337.178" width="10.0888" height="5.04442" fill="#2FBABB"/>
<rect x="1390.61" y="322.044" width="10.0888" height="5.04442" fill="#2FBABB"/>
<rect x="1413.67" y="342.222" width="15.1333" height="5.04442" fill="#2FBABB"/>
<rect x="1373.31" y="337.178" width="25.2221" height="5.04442" fill="#2FBABB"/>
<rect x="1348.09" y="342.222" width="5.04442" height="5.04442" fill="#2FBABB"/>
<rect x="1368.27" y="342.222" width="5.04442" height="5.04442" fill="#2FBABB"/>
<rect x="1395.65" y="317" width="5.04442" height="5.04442" fill="#2FBABB"/>
<rect x="1408.62" y="323.486" width="6.48568" height="18.7364" fill="#A8E7F4"/>
<rect x="474.307" y="9.16919" width="5.73073" height="10.3153" fill="#A8E7F4"/>
<rect x="503.343" y="12.2258" width="15.282" height="11.4615" fill="#A8E7F4"/>
<rect x="474.307" y="17.1923" width="30.946" height="10.3153" fill="#A8E7F4"/>
<rect x="512.512" y="21.395" width="16.8102" height="5.34868" fill="#A8E7F4"/>
<rect x="478.892" y="0.000114441" width="15.282" height="37.4408" fill="#A8E7F4"/>
<rect x="427.697" y="26.7434" width="16.0461" height="5.34868" fill="#A8E7F4"/>
<rect x="452.913" y="26.7434" width="76.4098" height="5.34868" fill="#A8E7F4"/>
<rect x="430.754" y="32.0922" width="103.917" height="5.34868" fill="#A8E7F4"/>
<rect x="417" y="37.441" width="117.671" height="5.34868" fill="#2FBABB"/>
<rect x="422.349" y="32.0922" width="16.0461" height="5.34868" fill="#2FBABB"/>
<rect x="465.138" y="26.7434" width="10.6974" height="5.34868" fill="#2FBABB"/>
<rect x="462.846" y="16.0462" width="12.9897" height="5.34868" fill="#2FBABB"/>
<rect x="466.666" y="10.6974" width="9.16918" height="5.34868" fill="#2FBABB"/>
<rect x="459.789" y="32.0922" width="10.6974" height="5.34868" fill="#2FBABB"/>
<rect x="497.23" y="32.0922" width="10.6974" height="5.34868" fill="#2FBABB"/>
<rect x="502.579" y="21.395" width="10.6974" height="5.34868" fill="#2FBABB"/>
<rect x="472.779" y="5.34888" width="10.6974" height="5.34868" fill="#2FBABB"/>
<rect x="497.23" y="26.7434" width="16.0461" height="5.34868" fill="#2FBABB"/>
<rect x="454.441" y="21.395" width="26.7434" height="5.34868" fill="#2FBABB"/>
<rect x="427.697" y="26.7434" width="5.34868" height="5.34868" fill="#2FBABB"/>
<rect x="449.092" y="26.7434" width="5.34868" height="5.34868" fill="#2FBABB"/>
<rect x="478.128" y="0.000114441" width="5.34868" height="5.34868" fill="#2FBABB"/>
<rect x="491.882" y="6.877" width="6.87688" height="19.8665" fill="#A8E7F4"/>
<rect x="186.731" y="162.631" width="46.992" height="5.73073" fill="#A8E7F4"/>
<rect x="186.731" y="156.9" width="42.4074" height="5.73073" fill="#A8E7F4"/>
<rect x="183.292" y="147.731" width="24.0691" height="11.4615" fill="#A8E7F4"/>
<rect x="206.215" y="152.315" width="5.73073" height="5.73073" fill="#A8E7F4"/>
<rect x="190.169" y="142" width="11.4615" height="5.73073" fill="#A8E7F4"/>
<rect x="185.584" y="162.631" width="48.1382" height="5.73073" fill="#2FBABB"/>
<rect x="181" y="156.9" width="16.0461" height="5.73073" fill="#2FBABB"/>
<rect x="181" y="147.731" width="5.73073" height="11.4615" fill="#2FBABB"/>
<rect x="185.584" y="142" width="5.73073" height="10.3153" fill="#2FBABB"/>
<rect x="335.731" y="190.731" width="16.0461" height="6.87688" fill="#A8E7F4"/>
<rect x="335.731" y="185" width="11.4615" height="5.73073" fill="#A8E7F4"/>
<rect x="330" y="196.461" width="21.7768" height="5.73073" fill="#2FBABB"/>
<rect x="330" y="190.731" width="5.73073" height="6.87688" fill="#2FBABB"/>
<rect x="1211.73" y="231.631" width="46.992" height="5.73073" fill="#A8E7F4"/>
<rect x="1211.73" y="225.9" width="42.4074" height="5.73073" fill="#A8E7F4"/>
<rect x="1208.29" y="216.731" width="24.0691" height="11.4615" fill="#A8E7F4"/>
<rect x="1231.22" y="221.315" width="5.73073" height="5.73073" fill="#A8E7F4"/>
<rect x="1215.17" y="211" width="11.4615" height="5.73073" fill="#A8E7F4"/>
<rect x="1210.58" y="231.631" width="48.1382" height="5.73073" fill="#2FBABB"/>
<rect x="1206" y="225.9" width="16.0461" height="5.73073" fill="#2FBABB"/>
<rect x="1206" y="216.731" width="5.73073" height="11.4615" fill="#2FBABB"/>
<rect x="1210.58" y="211" width="5.73073" height="10.3153" fill="#2FBABB"/>
<rect width="45.7718" height="5.58193" transform="matrix(-1 0 0 1 1074.77 57.0952)" fill="#A8E7F4"/>
<rect width="41.3062" height="5.58193" transform="matrix(-1 0 0 1 1074.77 51.5131)" fill="#A8E7F4"/>
<rect width="23.4441" height="11.1639" transform="matrix(-1 0 0 1 1078.12 42.5822)" fill="#A8E7F4"/>
<rect width="5.58193" height="5.58193" transform="matrix(-1 0 0 1 1055.79 47.0476)" fill="#A8E7F4"/>
<rect width="11.1639" height="5.58193" transform="matrix(-1 0 0 1 1071.42 37.0001)" fill="#A8E7F4"/>
<rect width="46.8882" height="5.58193" transform="matrix(-1 0 0 1 1075.89 57.0952)" fill="#2FBABB"/>
<rect width="15.6294" height="5.58193" transform="matrix(-1 0 0 1 1080.35 51.5131)" fill="#2FBABB"/>
<rect width="5.58193" height="11.1639" transform="matrix(-1 0 0 1 1080.35 42.5822)" fill="#2FBABB"/>
<rect width="5.58193" height="10.0475" transform="matrix(-1 0 0 1 1075.89 37.0001)" fill="#2FBABB"/>
<rect x="915.582" y="31.5821" width="15.6294" height="6.69831" fill="#A8E7F4"/>
<rect x="915.582" y="26" width="11.1639" height="5.58193" fill="#A8E7F4"/>
<rect x="910" y="37.1637" width="21.2113" height="5.58193" fill="#2FBABB"/>
<rect x="910" y="31.5821" width="5.58193" height="6.69831" fill="#2FBABB"/>
</svg>
