<svg width="1549" height="356" viewBox="0 0 1549 356" fill="none" xmlns="http://www.w3.org/2000/svg">
<path d="M525.55 31.7612V26.5612V21.3612H515.15V12.4612H500.25V17.2612H495.75V7.26123H491.25V0.561234H476.35V9.46123H471.85V17.2612V19.4612V26.4612H451.15V31.6612H442.25V26.4612H426.65V32.4612H429.65V36.9612H530.45V31.7612H525.55Z" fill="#A8E7F4"/>
<path d="M504.85 36.6612V31.7612H510.05V26.6612V21.4612H499.65V26.6612H494.45V31.0612V31.7612V36.6612H468.55V31.7612H473.75V26.6612H478.95V21.4612H473.75V16.7612V11.3612H481.15V6.06123V0.661232H475.95V6.06123H470.75V11.3612H464.75V16.7612H461.05V21.4612H452.85V26.6612H463.25V31.0612H458.05V36.6612H437.35V31.0612H432.15V26.6612H426.95V31.0612H421.75V36.6612H416.55V42.1612H530.75V36.6612H504.85Z" fill="#2FBABB"/>
<path d="M447.75 26.6612H452.95V31.8612H447.75V26.6612Z" fill="#2FBABB"/>
<path d="M1446.25 345.461V340.261V335.061H1435.85V326.161H1420.95V330.961H1416.45V320.961H1411.95V314.261H1397.05V323.161H1392.55V330.961V333.161V340.161H1371.95V345.361H1363.05V340.161H1347.45V346.161H1350.45V350.661H1451.25V345.461H1446.25Z" fill="#A8E7F4"/>
<path d="M1425.55 350.261V345.361H1430.75V340.261V335.061H1420.35V340.261H1415.15V344.661V345.361V350.261H1389.25V345.361H1394.45V340.261H1399.65V335.061H1394.45V330.361V324.961H1401.85V319.661V314.261H1396.65V319.661H1391.45V324.961H1385.45V330.361H1381.75V335.061H1373.55V340.261H1383.95V344.661H1378.75V350.261H1358.05V344.661H1352.85V340.261H1347.65V344.661H1342.45V350.261H1337.25V355.761H1451.45V350.261H1425.55Z" fill="#2FBABB"/>
<path d="M1368.45 340.361H1373.65V345.561H1368.45V340.361Z" fill="#2FBABB"/>
<path d="M189.35 160.861H235.95V166.561H189.35V160.861Z" fill="#A8E7F4"/>
<path d="M214.35 155.161V150.561H209.75V145.961H204.05V140.261H192.65V145.961H185.85V157.361H189.35V160.761H231.45V155.061H214.35V155.161Z" fill="#A8E7F4"/>
<path d="M199.55 160.261V155.161H189.35V150.561H193.95V140.361H188.15V146.061H183.55V155.161V157.461V160.861H188.15V166.661H235.95V160.361H199.55V160.261Z" fill="#2FBABB"/>
<path d="M1215.95 230.961H1262.55V236.661H1215.95V230.961Z" fill="#A8E7F4"/>
<path d="M1240.95 225.261V220.661H1236.35V216.061H1230.65V210.561H1219.25V216.261H1212.45V227.561H1215.95V230.961H1258.05V225.261H1240.95Z" fill="#A8E7F4"/>
<path d="M1226.15 230.461V225.361H1215.95V220.761H1220.55V210.561H1214.75V216.261H1210.15V225.361V227.661V231.061H1214.75V236.861H1262.55V230.561H1226.15V230.461Z" fill="#2FBABB"/>
<path d="M1076.35 62.3612H1029.75V56.6612H1076.35V62.3612Z" fill="#A8E7F4"/>
<path d="M1034.35 51.0612V56.7612H1076.45V53.3612H1079.95V41.9612H1073.15V36.2612H1061.75V41.9612H1056.05V46.5612H1051.45V51.1612H1034.35V51.0612Z" fill="#A8E7F4"/>
<path d="M1029.75 56.1612V62.4612H1077.55V56.6612H1082.15V53.2612V50.9612V41.8612H1077.55V36.1612H1071.75V46.3612H1076.35V50.9612H1066.15V56.0612H1029.75V56.1612Z" fill="#2FBABB"/>
<path d="M349.95 189.961V184.061H338.35V189.961V191.061V196.861H354.65V189.961H349.95Z" fill="#A8E7F4"/>
<path d="M338.35 189.961H332.45V195.761V196.861V201.561H354.75V195.761H338.45L338.35 189.961Z" fill="#2FBABB"/>
<path d="M928.45 29.0612V23.1612H916.85V29.0612V30.1612V35.9612H933.15V29.0612H928.45Z" fill="#A8E7F4"/>
<path d="M916.85 29.0612H910.95V34.8612V35.9612V40.6612H933.25V34.8612H916.95V29.0612H916.85Z" fill="#2FBABB"/>
<path d="M131.15 336.261V331.661H125.85V327.161H120.75V321.861H110.95V306.861H101.15V301.561H95.95V296.461H88.45V301.561H87.6499V306.861H76.5499V327.161H60.75V315.861H46.65V327.161H36.15V317.361H30.85V312.061H25.55V306.761H15.15V312.061V317.361H7.74995V327.161H5.44995V332.461H6.24995V336.361V336.861V342.161H140.95V336.361L131.15 336.261Z" fill="#A8E7F4"/>
<path d="M121.45 341.761V336.161H116.15V341.761H105.65V336.161H101.15V333.061H95.95V327.561H101.25V321.861H95.95V327.561H90.6499V333.161V336.261V338.061V341.861H55.5499V336.861H51.0499V331.761H46.65V327.061H51.0499V321.461H55.5499V315.961H45.95V321.461H41.45V326.461V326.961V331.661V336.761H45.95V341.761H21.15V336.761H15.85V331.661H10.55V326.761V321.361V318.061H15.05V312.161H6.24995V317.561H0.949951V321.461V326.861V331.761V332.261V336.861H6.24995V342.161V347.461H146.15V341.961H121.45V341.761Z" fill="#2FBABB"/>
<path d="M85.45 296.461V301.561H76.5499V306.861H71.25V312.361V317.361H65.95V322.661V327.961H71.25V333.261H76.5499V327.961V322.561V317.761H81.85V312.261H85.45V307.461H90.75V302.461V301.561V296.461H85.45Z" fill="#2FBABB"/>
<path d="M1413.05 154.461V160.061H1542.85V154.961V154.461V150.761H1543.55V145.661H1541.35V136.261H1534.25V131.161V126.061H1524.15V131.161H1519.05V136.261H1513.95V145.661H1503.95V134.761H1490.35V145.661H1475.15V126.161H1464.45V121.061H1463.75V116.061H1456.55V121.061H1451.45V126.161H1442.05V140.561H1432.65V145.661H1427.65V149.961H1422.55V154.361H1413.05V154.461Z" fill="#A8E7F4"/>
<path d="M1408.05 159.861V165.161H1542.95V160.061V154.961H1548.05V150.561V150.061V145.261V140.061V136.361H1542.95V131.161H1534.35V136.861H1538.65V140.061V145.261V150.061H1533.55V155.061H1528.45V159.961H1504.55V155.061H1508.85V150.061V145.561V145.061V140.161H1504.55V134.861H1495.25V140.161H1499.55V145.561H1503.75V150.061H1499.55V155.061H1495.25V159.961H1461.35V156.361V154.561V151.561V146.161H1456.25V140.561H1451.15V146.061H1456.25V151.461H1451.15V154.461H1446.85V159.861H1436.75V154.461H1431.65V159.861H1408.05Z" fill="#2FBABB"/>
<path d="M1461.45 116.061V121.061V121.861V126.761H1466.55V131.461H1470.05V136.761H1475.15V141.461V146.561V151.661H1480.25V146.561H1485.35V141.461V136.361H1480.25V131.461V126.161H1475.15V121.061H1466.55V116.061H1461.45Z" fill="#2FBABB"/>
</svg>
