<svg width="24" height="29" viewBox="0 0 24 29" fill="none" xmlns="http://www.w3.org/2000/svg">
<path d="M14.0001 26.2222H10.0001V28.2222H14.0001V26.2222Z" fill="#231E2B"/>
<path d="M18 24.2223H14V26.2223H18V24.2223Z" fill="#231E2B"/>
<path d="M14 24.2223H12V26.2223H14V24.2223Z" fill="#CF8934"/>
<path d="M9.99994 12.2222H3.99994V14.2222H7.99994V26.2222H9.99994V12.2222Z" fill="#231E2B"/>
<path d="M20.0001 22.2222H18.0001V24.2222H20.0001V22.2222Z" fill="#231E2B"/>
<path d="M18.0001 22.2222H16.0001V24.2222H18.0001V22.2222Z" fill="#F5F38E"/>
<path d="M18.0001 20.2223H16.0001V22.2223H18.0001V20.2223Z" fill="#231E2B"/>
<path d="M16 20.2223H14V22.2223H16V20.2223Z" fill="#CF8934"/>
<path d="M20.0001 18.222H18.0001V20.222H20.0001V18.222Z" fill="#231E2B"/>
<path d="M18 18.222H14V20.222H18V18.222Z" fill="#F5F38E"/>
<path d="M14 14.2221H12V18.2221H14V14.2221Z" fill="#F5F38E"/>
<path d="M14 12.2222V18.2222H18V16.2222H16V14.2222H20V12.2222H14Z" fill="#231E2B"/>
<path d="M22 10.2223H20V12.2223H22V10.2223Z" fill="#231E2B"/>
<path d="M20 10.2223H14V12.2223H20V10.2223Z" fill="#CF8934"/>
<path d="M9.99994 10.2223H3.99994V12.2223H9.99994V10.2223Z" fill="#CF8934"/>
<path d="M4 10.2223H2V12.2223H4V10.2223Z" fill="#231E2B"/>
<path d="M22 8.22223H20V10.2222H22V8.22223Z" fill="#CF8934"/>
<path d="M11.9999 8.22223H5.99994V10.2222H11.9999V8.22223Z" fill="#F5F38E"/>
<path d="M4 8.22223H2V10.2222H4V8.22223Z" fill="#CF8934"/>
<path d="M2 4.22238H0V10.2224H2V4.22238Z" fill="#231E2B"/>
<path d="M17.9999 6.22229H5.99994V8.22229H17.9999V6.22229Z" fill="#231E2B"/>
<path d="M24.0001 4.22238H22.0001V10.2224H24.0001V4.22238Z" fill="#231E2B"/>
<path d="M22 4.22238H20V6.22238H22V4.22238Z" fill="#F5F38E"/>
<path d="M18.0001 8.22238H12.0001V10.2224H10.0001V26.2224H12.0001V24.2224H16.0001V22.2224H14.0001V18.2224H12.0001V14.2224H14.0001V10.2224H20.0001V8.22238H22.0001V6.22238H20.0001V4.22238H18.0001V8.22238Z" fill="#E2B436"/>
<path d="M17.9999 4.22238H5.99994V6.22238H17.9999V4.22238Z" fill="#CF8934"/>
<path d="M2 4.22229V8.22229H4V10.2223H6V4.22229H14V2.22229H4V4.22229H2Z" fill="#E2B436"/>
<path d="M22 2.22229H20V4.22229H22V2.22229Z" fill="#231E2B"/>
<path d="M20 2.22229H14V4.22229H20V2.22229Z" fill="#F5F38E"/>
<path d="M4 2.22229H2V4.22229H4V2.22229Z" fill="#231E2B"/>
<path d="M19.9999 0.222198H3.99994V2.2222H19.9999V0.222198Z" fill="#231E2B"/>
</svg>
