<svg width="29" height="29" viewBox="0 0 29 29" fill="none" xmlns="http://www.w3.org/2000/svg">
<path d="M28.5707 2.07513H26.5707V26.0751H2.57068V2.07513H0.570679V28.0751H28.5707V2.07513Z" fill="#231E2B"/>
<path d="M26.5707 24.0752H2.57068V26.0752H26.5707V24.0752Z" fill="#CF8934"/>
<path d="M6.57068 18.0752H2.57068V24.0752H6.57068V18.0752Z" fill="#E2B436"/>
<path d="M18.5707 20.0752H10.5707V22.0752H18.5707V20.0752Z" fill="#522B29"/>
<path d="M26.5707 18.0752H22.5707V24.0752H26.5707V18.0752Z" fill="#E2B436"/>
<path d="M18.5707 18.0752V22.0752H10.5707V18.0752H6.57068V24.0752H22.5707V18.0752H18.5707Z" fill="#784028"/>
<path d="M26.5707 16.0752H22.5707V18.0752H26.5707V16.0752Z" fill="#C2751D"/>
<path d="M22.5707 16.0752H18.5707V18.0752H22.5707V16.0752Z" fill="#522B29"/>
<path d="M16.5707 14.0753H12.5707V18.0753H16.5707V14.0753Z" fill="#522B29"/>
<path d="M10.5707 16.0752H6.57068V18.0752H10.5707V16.0752Z" fill="#522B29"/>
<path d="M6.57068 16.0752H2.57068V18.0752H6.57068V16.0752Z" fill="#C2751D"/>
<path d="M26.5707 14.0753H18.5707V16.0753H26.5707V14.0753Z" fill="#F5F38E"/>
<path d="M16.5707 18.0753H12.5707V14.0753H10.5707V20.0753H18.5707V14.0753H16.5707V18.0753Z" fill="#E2B436"/>
<path d="M10.5707 14.0753H2.57068V16.0753H10.5707V14.0753Z" fill="#F5F38E"/>
<path d="M22.5707 12.0752H18.5707V14.0752H22.5707V12.0752Z" fill="#522B29"/>
<path d="M18.5707 12.0752H10.5707V14.0752H18.5707V12.0752Z" fill="#F5F38E"/>
<path d="M10.5707 12.0752H6.57068V14.0752H10.5707V12.0752Z" fill="#522B29"/>
<path d="M6.57068 2.07513H2.57068V14.0751H6.57068V2.07513Z" fill="#E2B436"/>
<path d="M22.5707 10.0752H18.5707V12.0752H22.5707V10.0752Z" fill="#A6644B"/>
<path d="M18.5707 10.0752H10.5707V12.0752H18.5707V10.0752Z" fill="#522B29"/>
<path d="M10.5707 10.0752H6.57068V12.0752H10.5707V10.0752Z" fill="#A6644B"/>
<path d="M22.5707 8.0752H6.57068V10.0752H22.5707V8.0752Z" fill="#784028"/>
<path d="M22.5707 6.0752H6.57068V8.0752H22.5707V6.0752Z" fill="#A6644B"/>
<path d="M22.5707 4.07526H6.57068V6.07526H22.5707V4.07526Z" fill="#784028"/>
<path d="M26.5707 2.07513H22.5707V14.0751H26.5707V2.07513Z" fill="#E2B436"/>
<path d="M22.5707 2.07513H6.57068V4.07513H22.5707V2.07513Z" fill="#A6644B"/>
<path d="M26.5707 0.0751953H2.57068V2.0752H26.5707V0.0751953Z" fill="#231E2B"/>
</svg>
